<svg width="805" height="151" viewBox="0 0 805 151" fill="none" xmlns="http://www.w3.org/2000/svg">
<g filter="url(#filter0_d)">
<path d="M59.24 126.52C40.64 126.52 26.24 121.48 16.04 111.4C5.84 101.32 0.74 85.54 0.74 64.06C0.74 42.82 5.9 27.04 16.22 16.72C26.54 6.39999 40.88 1.23999 59.24 1.23999C73.76 1.23999 88.04 4.17999 102.08 10.06V36.52C93.92 32.2 86.84 29.02 80.84 26.98C74.96 24.94 68.96 23.92 62.84 23.92C51.92 23.92 43.76 26.98 38.36 33.1C33.08 39.1 30.44 49.36 30.44 63.88C30.44 78.16 33.14 88.42 38.54 94.66C43.94 100.78 51.62 103.84 61.58 103.84C68.66 103.84 74.18 102.88 78.14 100.96V79.72H58.34V57.04H107.3V113.56C91.7 122.2 75.68 126.52 59.24 126.52ZM132.87 3.93999H215.13V26.44H162.03V52.54H208.11V75.22H162.03V101.5H215.13V124H132.87V3.93999ZM293.029 126.52C274.669 126.52 260.329 121.3 250.009 110.86C239.689 100.42 234.529 84.82 234.529 64.06C234.529 43.66 239.569 28.18 249.649 17.62C259.849 6.94 274.309 1.6 293.029 1.6C311.389 1.6 325.729 6.82 336.049 17.26C346.489 27.58 351.709 43.12 351.709 63.88C351.709 84.28 346.609 99.82 336.409 110.5C326.329 121.18 311.869 126.52 293.029 126.52ZM293.029 102.58C302.509 102.58 309.649 99.58 314.449 93.58C319.249 87.58 321.649 77.68 321.649 63.88C321.649 50.08 319.249 40.24 314.449 34.36C309.769 28.36 302.629 25.36 293.029 25.36C283.549 25.36 276.409 28.36 271.609 34.36C266.929 40.36 264.589 50.32 264.589 64.24C264.589 77.92 266.929 87.76 271.609 93.76C276.409 99.64 283.549 102.58 293.029 102.58ZM461.924 118.6C465.044 123.04 468.584 125.26 472.544 125.26C474.704 125.26 476.564 125.02 478.124 124.54C479.804 124.06 481.844 123.1 484.244 121.66V139.66C480.284 141.82 474.584 142.9 467.144 142.9C453.704 142.9 444.464 137.56 439.424 126.88C434.624 127.48 430.064 127.78 425.744 127.78C406.424 127.78 391.844 122.62 382.004 112.3C372.164 101.86 367.244 85.78 367.244 64.06C367.244 42.82 372.044 26.92 381.644 16.36C391.364 5.67999 406.064 0.339993 425.744 0.339993C445.184 0.339993 459.824 5.55999 469.664 16C479.504 26.32 484.424 42.28 484.424 63.88C484.424 90.52 476.924 108.76 461.924 118.6ZM425.744 22.84C416.144 22.84 409.004 26.02 404.324 32.38C399.644 38.62 397.304 49.24 397.304 64.24C397.304 72.52 397.964 79.66 399.284 85.66V84.94C401.444 81.7 404.744 78.94 409.184 76.66C413.624 74.26 418.484 73.06 423.764 73.06C435.764 73.06 444.884 78.76 451.124 90.16C453.284 83.68 454.364 74.92 454.364 63.88C454.364 49 451.964 38.44 447.164 32.2C442.484 25.96 435.344 22.84 425.744 22.84ZM404.504 98.26C406.904 101.62 409.844 104.02 413.324 105.46C416.804 106.9 420.944 107.62 425.744 107.62C427.544 107.62 430.004 107.38 433.124 106.9C431.444 102.58 429.284 99.28 426.644 97C424.124 94.6 421.304 93.4 418.184 93.4C413.024 93.4 408.464 95.02 404.504 98.26ZM560.259 127.78C541.659 127.78 527.799 123.82 518.679 115.9C509.559 107.98 504.999 95.74 504.999 79.18V3.93999H535.419V77.92C535.419 87.16 537.279 94 540.999 98.44C544.719 102.88 550.659 105.1 558.819 105.1C566.379 105.1 572.199 102.82 576.279 98.26C580.359 93.7 582.399 86.92 582.399 77.92V3.93999H610.119V79.18C610.119 95.38 605.619 107.56 596.619 115.72C587.739 123.76 575.619 127.78 560.259 127.78ZM635.604 3.93999H664.764V124H635.604V3.93999ZM781.532 24.82L723.932 101.32H781.532V124H687.212V102.76L746.252 26.8H688.112V3.93999H781.532V24.82Z" fill="white"/>
</g>
<defs>
<filter id="filter0_d" x="0.73999" y="0.339996" width="803.792" height="150.56" filterUnits="userSpaceOnUse" color-interpolation-filters="sRGB">
<feFlood flood-opacity="0" result="BackgroundImageFix"/>
<feColorMatrix in="SourceAlpha" type="matrix" values="0 0 0 0 0 0 0 0 0 0 0 0 0 0 0 0 0 0 127 0"/>
<feOffset dx="19" dy="4"/>
<feGaussianBlur stdDeviation="2"/>
<feColorMatrix type="matrix" values="0 0 0 0 0 0 0 0 0 0 0 0 0 0 0 0 0 0 0.5 0"/>
<feBlend mode="normal" in2="BackgroundImageFix" result="effect1_dropShadow"/>
<feBlend mode="normal" in="SourceGraphic" in2="effect1_dropShadow" result="shape"/>
</filter>
</defs>
</svg>
