<svg width="36" height="36" viewBox="0 0 36 36" fill="none" xmlns="http://www.w3.org/2000/svg">
<g opacity="0.5">
<path d="M36 17.7049C36 27.4831 27.9411 35.4098 18 35.4098C8.05888 35.4098 0 27.4831 0 17.7049C0 7.92676 8.05888 0 18 0C27.9411 0 36 7.92676 36 17.7049Z" fill="#424242"/>
<path d="M11.8032 10.9372C12.245 9.65183 13.117 8.56794 14.2647 7.87752C15.4124 7.18711 16.7619 6.93473 18.074 7.16509C19.3861 7.39545 20.5762 8.09369 21.4335 9.13612C22.2909 10.1786 22.7601 11.4979 22.7581 12.8605C22.7581 16.7071 17.121 18.6304 17.121 18.6304" stroke="white" stroke-width="5" stroke-linecap="round" stroke-linejoin="round"/>
<path d="M17.2715 26.3235H17.29" stroke="white" stroke-width="5" stroke-linecap="round" stroke-linejoin="round"/>
</g>
</svg>
