<svg width="791" height="762" viewBox="0 0 791 762" fill="none" xmlns="http://www.w3.org/2000/svg">
<g filter="url(#filter0_d)">
<path d="M392.414 754C193.363 754 32 585.211 32 376.999C32 168.789 193.363 0 392.414 0C591.465 0 752.828 168.789 752.828 376.999C752.828 585.211 591.465 754 392.414 754Z" fill="#3F7EB4"/>
<g filter="url(#filter1_d)">
<path d="M136.101 397.826C138 398.182 136.631 396.126 136.101 395.176C134.887 393.004 132.622 392.163 131.435 390.139C130.594 388.706 131.665 386.133 130.398 384.838C127.856 382.238 110.801 385.79 108.627 384.307C106.903 383.132 107.07 378.464 106.812 376.62C106.344 373.264 106.06 369.892 105.516 366.548C104.827 362.323 107.015 348.163 105.516 345.608C102.48 340.433 87.618 348.97 86.5959 342.692C84.852 331.997 95.4076 329.451 95.4076 316.716C95.4076 313.419 90.2656 309.15 87.6317 312.74C84.0477 317.627 86.7925 331.56 74.1548 331.56C73.0281 331.56 70.4745 332.064 69.4895 331.56C63.2969 328.393 62.8699 307.116 63.7873 300.547C64.6751 294.192 69.2696 289.081 72.34 283.848C74.2721 280.555 72.7586 276.623 74.9316 273.511C76.7696 270.88 79.2555 269.046 81.6706 266.884C84.8308 264.057 87.9361 259.535 92.0381 258.137C93.6827 257.577 95.546 258.116 97.2223 257.871C101.223 257.287 104.997 257.076 109.145 257.076C111.803 257.076 113.63 258.483 115.366 260.257C120.626 265.638 120.547 272.437 121.586 279.872C121.943 282.43 120.75 286.42 122.364 288.62C123.252 289.832 126.293 287.921 127.029 287.294C134.032 281.326 129.488 268.796 127.547 261.848C126.256 257.228 126.717 245.997 129.879 242.763C133.659 238.898 139.459 234.418 144.653 232.425C149.305 230.641 153.78 229.718 157.612 225.799C159.976 223.383 160.709 219.592 162.538 216.787C164.606 213.613 167.691 211.266 169.795 208.04C172.399 204.045 172.861 198.808 176.274 195.317C182.821 188.621 190.718 193.184 195.195 189.75C199.02 186.816 194.474 181.49 199.601 177.558C202.499 175.334 211.043 175.424 214.115 174.376C215.973 173.743 220.974 167.777 222.669 169.075C224.034 170.123 221.652 176.456 223.447 176.762C224.251 176.9 226.288 177.03 227.075 176.762C228.074 176.422 231.927 171.519 233.295 170.401C236.729 167.591 244.303 164.419 246.773 161.388C250.872 156.358 236.409 160.063 235.887 160.063C235.259 160.063 233.017 160.446 232.517 160.063C230.551 158.554 233.985 152.057 231.481 150.521C229.004 149.001 218.548 150.114 218.262 149.726C218.121 149.533 218.262 147.674 218.262 147.34C218.262 146.634 218.044 145.566 218.521 144.955C223.644 138.406 246.662 134.819 254.549 133.026C258.53 132.121 263.389 132.831 266.989 130.376C267.675 129.909 268.116 128.818 268.804 128.255C270.512 126.857 273.572 126.036 273.987 123.484C274.54 120.096 266.369 109.498 265.693 104.665C265.34 102.136 264.796 95.8265 265.693 93.5314C266.365 91.8136 269.572 88.834 268.286 86.6405C265.576 82.0215 249.012 93.5004 246.773 92.7365C244.797 92.0631 254.457 81.3603 252.734 78.4237C251.324 76.0204 241.2 75.9939 238.738 76.833C233.555 78.5993 224.223 90.8797 223.187 96.183C222.825 98.0344 224.195 102.323 223.187 103.87C220.584 107.862 215.272 109.762 211.782 112.616C208.803 115.054 206.371 117.621 203.747 120.303C202.576 121.502 192.249 134.473 190.27 131.436C187.415 127.056 195.535 116.086 193.899 110.231C192.882 106.592 187.266 109.014 185.864 107.58C185.304 107.008 185.206 104.868 185.086 104.135C184.764 102.158 184.429 97.3356 185.605 95.652C190.963 87.9818 206.642 79.616 214.634 74.7123C215.473 74.1967 215.142 73.1281 215.93 72.5916C217.081 71.8067 218.517 71.0041 219.817 70.2059C222.506 68.5566 226.155 68.5147 229.148 67.2904C239.427 63.0854 236.077 58.2788 250.66 58.2788C257.85 58.2788 269.66 51.378 275.543 47.9403C275.777 47.8034 282.526 43.5444 282.282 43.1701C282.005 42.7451 276.742 43.0973 276.32 43.1701C266.464 44.8492 257.308 51.6915 248.328 55.6282C247.66 55.9208 243.438 57.622 242.626 57.4829C240.724 57.1594 246.803 52.5316 244.699 51.9167C243.848 51.6683 241.541 52.4764 240.812 51.9167C238.157 49.881 238.654 49.4163 235.145 50.0135C232.465 50.4705 224.359 54.1688 221.793 55.9186C218.741 57.9995 212.24 61.6326 209.163 63.5204C203.956 66.7163 200.074 71.8232 194.676 74.9772C188.65 78.4988 183.042 83.5693 177.31 87.9652C166.496 96.2614 156.37 105.123 146.093 114.133C135.749 123.2 119.309 140.394 111.662 152.124C106.998 159.279 98.9853 167.962 94.691 175.282C91.0371 181.51 86.2767 189.139 82.3471 195.167C80.7321 197.644 78.7429 203.947 77.2125 206.45C72.7882 213.69 72.6603 217.192 68.9705 224.738C66.7541 229.272 64.8474 235.927 61.9726 239.847C58.9106 244.023 54.5624 251.79 53.5721 256.851C53.0224 259.662 52.6874 260.303 54.1967 261.848C55.6098 263.292 55.3477 269.22 54.9746 271.125C53.8162 277.047 49.8886 281.494 48.7545 287.294C47.5919 293.238 49.9943 299.036 49.0135 305.053C48.4068 308.773 45.2741 313.14 46.4219 317.246C47.6511 321.649 51.6622 325.314 53.6788 329.44C55.4936 333.151 55.7895 337.897 57.8262 341.367C60.4199 345.788 66.2183 348.923 70.2663 352.235C72.766 354.28 74.1061 358.173 77.0053 359.657C79.3158 360.838 89.4338 363.971 90.4833 365.223C91.9028 366.917 91.8499 370.138 92.816 372.115C97.2192 381.121 99.5719 388.295 108.108 394.115C109.489 395.056 116.565 394.943 118.216 394.38C120.141 393.724 120.575 391.327 122.881 390.934C123.585 390.814 128.115 390.455 128.584 390.934C129.463 391.833 130.246 393.734 131.435 394.645C132.96 395.815 135.441 396.622 136.877 398.091" fill="#8DAA5C"/>
</g>
<g filter="url(#filter2_d)">
<path d="M132.109 396.718C129.352 398.365 126.717 400.013 124.939 402.741C124.275 403.761 124.953 405.04 124.684 406.145C123.809 409.718 120.796 412.547 120.33 416.357C120.163 417.729 120.345 420.131 119.563 421.333C117.876 423.92 115.853 425.637 115.209 428.927C113.72 436.544 114.953 445.507 114.953 453.28C114.953 459.114 112.477 460.882 111.881 466.373C111.324 471.499 111.993 476.711 111.368 481.823C110.724 487.101 107.16 491.839 108.552 497.534C109.053 499.581 113.22 503.679 114.441 506.176C118.744 514.974 123.752 522.317 129.804 529.743C132.865 533.499 134.213 540.342 138.255 543.097C140.386 544.551 143.319 544.86 145.68 546.24C150.2 548.882 154.142 553.575 159.251 554.619C162.818 555.349 167.408 555.368 170.261 558.286C172.529 560.605 179.667 568.443 181.015 570.855C181.899 572.435 182.137 574.398 182.552 576.092C183.018 577.999 186.675 584.178 187.928 585.781C189.996 588.424 192.799 590.501 194.842 593.113C198.321 597.56 197.268 602.998 198.683 608.3C200.591 615.458 203.666 621.998 205.084 629.25C206.159 634.75 214.131 648.772 217.119 653.865C218.022 655.404 226.782 663.746 228.64 665.648C231.004 668.064 230.071 672.583 232.225 675.337C234.486 678.227 236.734 678.847 239.651 680.835C245.057 684.52 248.616 689.442 252.71 691.834C260.626 696.461 268.989 699.885 276.778 704.665C278.144 705.502 279.166 707.369 280.108 708.332C284.343 712.662 289.821 714.347 295.214 716.711C296.402 717.232 306.896 721.172 307.25 720.9C310.779 718.192 295.366 715.112 294.446 714.878C294.134 714.797 280.228 701.371 276.778 699.167C267.625 693.316 268.987 687.303 266.025 678.217C264.717 674.205 259.86 665.163 261.927 660.934C264.267 656.15 272.288 658.336 272.938 657.007C273.581 655.692 273.514 648.954 272.938 647.58C272.42 646.341 268.682 644.843 269.353 643.128C270.219 640.914 277.272 639.539 278.571 634.224C279.311 631.198 278.819 627.97 279.852 624.274C281.231 619.334 285.353 614.599 286.508 609.872C287.329 606.518 285.299 600.83 287.533 598.089C291.177 593.617 299.483 588.069 304.433 585.257C307.438 583.55 311.364 583.046 314.163 581.33C315.097 580.756 314.419 575.078 314.419 573.997C314.419 566.676 316.434 566.013 318.003 559.595C319.864 551.985 315.943 543.645 319.54 536.289C326.195 522.675 340.879 517.362 338.744 499.891C338.558 498.371 337.276 497.628 336.439 496.486C335.684 495.457 335.542 493.735 334.648 492.82C330.467 488.547 323.659 492.963 319.795 490.988C316.503 489.304 314.318 484.727 311.602 482.346C308.324 479.472 298.935 475.671 294.703 474.228C288.162 471.998 275.142 477.53 270.378 472.658C266.84 469.04 262.701 466.181 258.855 463.231C255.84 460.918 251.92 461.638 249.125 458.779C244.236 453.78 251.376 441.736 243.748 438.616C238.793 436.589 230.158 434.063 224.8 433.379C220.578 432.839 213.497 435.078 209.693 432.855C206.374 430.915 204.474 425.16 201.755 422.38C195.965 416.459 188.345 412.488 181.783 407.455C180.866 406.75 179.835 406.07 178.967 405.359C178.064 404.621 178.138 402.267 176.918 401.955C175.643 401.629 166.795 404.05 162.836 404.05C150.781 404.05 142.627 397.813 131.597 395.933C129.303 395.542 128.78 396.74 128.78 398.813" fill="#8DAA5C"/>
</g>
<g filter="url(#filter3_d)">
<path d="M142.321 322.38C135.734 322.72 137.494 316.422 134.332 313.187C127.856 306.566 117.338 315.259 111.506 310.999C105.758 306.801 119.851 300.083 122.348 299.62C126.705 298.809 131.063 305.149 134.759 306.914C139.654 309.249 145.913 309.049 150.167 312.312C150.889 312.866 152.884 315.664 151.594 316.543C149.215 318.165 145.531 318.349 142.178 320.92" fill="#8DAA5C"/>
</g>
<g filter="url(#filter4_d)">
<path d="M161.01 321.941C159.432 322.079 157.624 321.547 156.159 322.38C154.572 323.281 154.395 324.913 153.164 326.173C151.723 327.646 141.913 335.234 144.746 337.407C149.378 340.959 168.254 336.273 172.138 332.3C173.87 330.529 175.617 326.55 173.137 324.859C171.018 323.415 163.161 323.512 159.869 322.671" fill="#8DAA5C"/>
</g>
<g filter="url(#filter5_d)">
<path d="M272.206 138.354C270.824 139.173 269.415 139.949 268.057 140.811C259.212 146.425 272.393 144.22 273.517 149.969C274.791 156.483 267.927 159.199 265.218 163.817C264.197 165.558 270.855 166.05 271.551 166.05C280.371 166.05 277.997 162.713 284.437 160.243C285.303 159.911 290.902 159.593 291.207 159.126C291.401 158.829 291.207 156.921 291.207 156.669C291.207 149.916 285.895 148.716 281.16 145.948C278.977 144.672 277.272 142.008 274.827 141.257C273.058 140.715 270.986 141.034 269.149 141.034" fill="#8DAA5C"/>
</g>
<g filter="url(#filter6_d)">
<path d="M266.682 59.5318C263.791 60.3852 259.605 58.4577 256.77 59.9072C254.522 61.0564 264.018 75.9101 267.416 74.1724C270.205 72.7461 272.322 69.5756 275.308 68.3535C277.523 67.4472 281.038 69.676 282.833 67.2275C285.446 63.6639 283.932 57.5226 287.422 54.4636C290.545 51.7269 293.142 55.9793 297.15 50.7101C298.566 48.8478 306.757 34.4445 305.042 32.6903C300.579 28.1266 288.703 29.9017 283.935 32.5026C283.652 32.6561 280.448 33.9521 280.448 34.3794C280.448 34.6984 281.069 34.4666 281.365 34.567C284.175 35.5253 289.169 38.8106 289.624 42.075C290.053 45.1484 288.498 46.9059 286.688 49.02C279.732 57.1506 272.7 54.8654 265.581 59.7195" fill="#8DAA5C"/>
</g>
<g filter="url(#filter7_d)">
<path d="M251.582 43.881C246.079 43.0751 244.1 42.0761 256.211 41.4236C260.38 41.1995 264.039 39.4255 267.665 37.5708C268.764 37.0089 270.165 37.7618 271.282 37.1083C272.248 36.5431 272.416 35.1366 273.543 34.642C276.227 33.4663 279.12 32.7477 281.833 31.5598C282.287 31.36 287.71 29.141 287.71 29.0936C287.71 28.8043 280.538 31.1348 279.134 30.9957C274.829 30.5696 252.938 41.7493 251.322 43.8159" fill="#8DAA5C"/>
</g>
<g filter="url(#filter8_d)">
<path d="M379.987 17.3828C377.588 17.3707 379.045 16.3473 378.326 15.6121C377.7 14.9718 373.41 15.0999 372.451 15.0999C368.585 15.0999 363.894 14.6594 360.243 15.7258C358.374 16.2723 356.954 18.1611 355.235 19.041C347.357 23.0682 341.751 22.7149 332.986 29.4369C331.307 30.7263 334.425 33.2974 332.397 35.1631C324.971 41.9977 320.464 39.792 320.464 51.888C320.464 54.277 319.984 57.0302 321.347 59.1211C325.709 65.8133 335.195 72.2305 341.974 65.2988C344.849 62.3579 344.545 57.8935 346.983 54.9018C349.501 51.8129 352.631 52.7414 354.498 50.8337C356.096 49.1988 355.946 45.8913 357.445 44.0533C359.696 41.2901 367.827 38.0345 368.494 36.67C369.047 35.5407 369.279 34.312 369.82 33.2047C370.644 31.5201 370.371 30.0032 372.177 28.684C374.618 26.9011 377.643 26.4629 379.987 24.4647C381.337 23.3144 382.791 17.8377 380.576 16.9313C379.873 16.6432 378.396 16.9313 377.629 16.9313" fill="#8DAA5C"/>
</g>
<g filter="url(#filter9_d)">
<path d="M387.206 36.8202C385.171 36.7782 383.173 37.1138 381.165 36.8202C378.994 36.5034 379.544 41.8597 379.544 43.4505C379.544 49.8314 396.525 46.9953 395.899 40.588C395.493 36.4448 388.232 40.5747 386.764 36.8202" fill="#8DAA5C"/>
</g>
<g filter="url(#filter10_d)">
<path d="M705.65 218.918C704.899 217.275 703.562 215.982 702.862 214.312C701.775 211.719 702.094 208.658 700.717 206.198C695.525 196.903 690.318 183.608 684.204 175.272C679.995 169.533 675.592 162.078 670.693 157.068C666.723 153.008 656.491 143.506 653.75 139.302C647.696 130.016 638.672 120.727 631.446 112.106C626.804 106.567 613.901 95.1387 607.686 91.3257C603.271 88.6166 598.942 86.391 594.987 83.1553C589.678 78.8113 584.405 75.5601 579.17 71.0979C570.684 63.8659 560.491 62.8072 551.002 55.5289C549.321 54.2395 545.052 52.4643 543.542 51.2279C541.318 49.4097 538.226 48.3499 535.674 46.8585C530.366 43.7563 525.712 41.2195 520.097 38.7587C515.899 36.9196 509.829 36.0872 505.756 34.3021C502.238 32.7599 498.285 30.6745 494.507 29.8443C491.858 29.2614 491.282 30.2119 485.869 27.9831C479.923 25.5345 470.607 23.6655 464.35 22.5991C462.174 22.2282 458.893 21.2224 456.755 20.7853C455.842 20.5987 451.774 19.784 452.608 20.2101C456.379 22.1387 461.645 21.7325 465.237 23.9371C468.26 25.7917 472.38 25.0719 475.317 26.7886C477.862 28.2756 480.296 30.053 483.038 31.1746C483.646 31.423 490.909 36.2859 490.33 36.8776C488.586 38.6605 483.903 34.0283 481.966 33.3681C478.062 32.0368 475.033 29.4944 471.457 27.6651C464.192 23.9503 456.681 23.2791 448.723 23.2791C447.676 23.2791 442.693 22.6477 442.075 23.2791C440.79 24.5939 440.736 32.9045 441.432 34.6841C442.004 36.149 443.713 36.2075 444.434 37.3159C446.017 39.7424 447.217 43.0079 448.51 45.6507C451.809 52.3992 449.792 58.9787 458.589 62.9773C467.07 66.8312 468.704 62.5379 476.604 62.5379C481.379 62.5379 482.938 71.6753 487.112 73.5046C488.361 74.0521 491.328 74.4264 492.474 73.7243C493.688 72.9802 496.256 63.5226 495.262 62.0996C493.883 60.1258 486.499 55.2728 484.324 53.3265C479.608 49.1061 474.96 44.8051 470.17 40.6057C469.509 40.0261 465.676 36.8412 465.881 36C466.311 34.2403 471.963 39.6419 472.529 40.6057C475.564 45.7788 486.187 53.4248 492.045 54.4238C500.076 55.7916 502.775 54.4238 510.06 54.4238C510.74 54.4238 505.342 53.7383 505.342 55.3004C505.342 59.6367 512.187 56.9276 513.277 64.7314C513.297 64.875 513.741 65.8442 513.491 66.0474C512.523 66.84 510.738 65.6588 509.846 66.267C508.679 67.0619 508.331 73.488 509.202 74.6019C514.602 81.5038 509.192 79.3224 505.985 80.9618C502.474 82.7579 501.409 85.7264 497.192 86.4451C493.593 87.0589 480.513 78.872 477.891 85.1292C475.209 91.5266 477.046 99.2642 471.242 104.21C469.138 106.004 467.238 105.21 465.023 105.965C463.814 106.377 452.047 111.96 451.941 112.106C450.506 114.063 453.642 116.924 454.943 117.589C458.906 119.616 466.288 121.455 469.098 125.046C470.306 126.591 469.955 128.942 469.955 130.749C469.955 131.609 470.28 133.486 469.955 134.258C467.52 140.07 451.315 135.567 446.793 137.548C442.225 139.55 438.618 143.171 440.36 148.514C441.167 150.991 440.276 153.607 441.432 155.971C443.043 159.266 446.38 161.063 447.652 164.964C448.771 168.397 449.776 172.221 452.584 174.615C460.95 181.744 464.154 176.594 469.742 173.737C474.254 171.43 479.094 173.293 482.18 168.034C484.891 163.414 483.819 155.906 484.968 154.436C486.993 151.848 490.783 151.56 493.118 149.172C494.932 147.318 495.506 144.574 497.836 143.25C501.29 141.288 505.884 141.207 510.06 138.644C512.657 137.051 513.42 133.161 516.923 133.161C523.593 133.161 528.896 140.754 534.295 143.908C540.476 147.52 547.009 150.845 552.738 155.533C553.689 156.31 558.166 159.352 559.386 158.603C560.328 158.025 560.008 152.188 559.601 151.147C558.575 148.521 553.984 148.428 551.88 147.198C547.923 144.886 545.003 141.111 541.158 138.864C539.362 137.814 537.252 137.217 535.581 135.793C534.614 134.969 531.26 130.481 533.651 129.433C536.519 128.176 538.216 132.015 540.085 133.381C546.806 138.29 555.161 139.149 561.102 145.224C561.948 146.089 562.058 147.324 562.818 148.295C564.914 150.974 570.101 148.724 572.255 150.927C572.716 151.399 572.681 152.951 573.112 153.559C575.612 157.075 579.067 159.687 581.262 163.428C581.678 164.138 581.929 166.024 582.548 166.499C582.897 166.765 583.406 166.792 583.835 166.718C584.81 166.552 584.373 165.617 584.694 164.964C584.873 164.595 586.464 162.834 586.409 162.552C586.339 162.195 576.646 151.1 582.335 150.269C589.72 149.189 593.33 161.859 598.204 165.183C602.307 167.981 619.841 171.186 624.583 169.569C625.593 169.225 626.21 167.57 627.157 167.376C629.796 166.836 631.818 175.28 633.161 177.685C634.466 180.018 640.375 186.857 638.094 189.967C636.428 192.238 629.999 190.35 627.586 190.625C619.056 191.594 623.04 194.347 611.501 192.379C605.312 191.325 599.463 184.107 592.843 185.8C587.146 187.256 589.695 190.486 588.554 194.573C587.941 196.765 585.937 203.997 582.977 203.565C581.657 203.372 573.472 196.792 571.825 195.669C570.784 194.959 567.848 195.889 566.678 195.889C565.105 195.889 564.016 193.327 562.604 193.037C557.319 191.956 550.562 190.154 546.519 186.019C542.677 182.09 543.16 171.044 537.082 170.008C529.773 168.762 523.401 173.263 516.494 174.833C510.301 176.241 503.446 173.986 497.192 175.053C496.271 175.21 495.759 175.795 494.833 175.93C493.48 176.128 491.114 175.31 489.901 175.93C488.815 176.485 488.087 177.692 486.683 178.123C486.013 178.329 483.985 178.244 483.467 178.562C482.595 179.097 481.245 181.671 477.891 183.388C474.059 185.346 467.353 181.428 463.522 183.388C462.75 183.782 460.879 192.815 459.447 193.915C457.204 195.635 452.743 194.876 451.083 197.424C448.143 201.934 451.439 217.342 449.796 219.357C448.17 221.354 444.475 221.967 442.29 223.085C435.328 226.645 424.126 236.329 420.844 243.044C418.601 247.632 419.821 253.833 418.485 258.615C417.317 262.797 413.884 266.352 414.625 270.898C415.121 273.947 417.319 276.687 417.841 279.891C419.239 288.465 416.543 297.513 419.557 305.99C422.127 313.218 429.534 317.323 433.926 323.098C434.924 324.411 435.194 326.139 436.071 327.484C445.691 342.243 463.624 364.826 483.467 362.795C486.293 362.506 500.86 347.889 509.202 350.733C510.509 351.179 511.481 352.526 512.849 352.926C520.896 355.278 535.79 349.478 547.377 351.172C550.47 351.623 555.956 352.269 558.529 354.242C559.419 354.925 560.068 356.256 560.888 357.094C561.893 358.122 563.362 358.567 564.534 359.287C565.861 360.102 566.718 361.61 568.18 362.357C571.42 364.014 577.663 364.409 581.262 363.673C585.226 362.863 591.488 358.52 595.845 357.094C600.857 355.453 606.028 354.025 610.858 351.83C618.745 348.244 625.994 342.495 632.733 337.135C637.83 333.08 643.977 330.304 649.032 326.168C655.782 320.647 662.305 314.899 668.977 309.28C677.2 302.355 683.347 294.34 683.347 283.181C683.347 281.726 684.348 277.941 683.56 276.601C682.923 275.512 678.989 269.293 678.199 268.486C676.587 266.837 674.467 266.03 673.267 263.88C672.136 261.855 672.986 259.172 671.765 257.299C670.746 255.736 668.89 254.811 667.905 253.133C665.385 248.838 663.941 243.491 661.686 238.877C657.43 230.172 649.544 223.339 646.459 213.873C645.284 210.27 643.659 205.308 641.097 202.688C640.35 201.923 638.094 198.916 638.094 197.863C638.094 197.1 637.597 194.921 637.451 195.669C636.265 201.736 643.05 205.727 646.888 209.048C651.645 213.166 666.318 230.84 668.763 236.463C670.062 239.453 667.616 243.953 669.191 246.772C669.427 247.194 689.994 272.434 690.637 273.092C692.451 274.946 694.783 277.036 696.214 279.233C697.999 281.971 702.199 293.008 706.937 289.98C708.244 289.144 708.744 288.258 709.726 287.128C716.528 279.301 721.748 277.79 720.019 265.415C719.518 261.828 716.958 257.972 715.945 254.449C714.695 250.105 713.967 244.369 711.226 240.631C706.212 233.794 697.124 231.169 691.925 224.401C690.179 222.129 689.47 219.06 688.065 216.505C686.77 214.151 684.854 212.129 683.347 209.926C683.075 209.529 681.593 206.316 682.274 205.758C684.103 204.262 686.776 208.828 687.421 209.487C690.295 212.426 693.633 215.397 695.785 218.699C696.955 220.493 699.551 219.838 700.717 221.33C701.639 222.508 707.451 225.981 707.795 223.524C708.186 220.724 705.65 221.098 705.65 219.137" fill="#8DAA5C"/>
</g>
<g filter="url(#filter11_d)">
<path d="M685.766 277.611C687.98 278.516 688.779 281.359 690.278 283.198C700.301 295.497 694.729 295.7 698.591 303.6C701.433 309.413 708.361 309.221 712.128 313.072C713.153 314.121 711.777 316.485 712.366 317.688C712.868 318.713 713.927 319.388 714.266 320.602C716.557 328.806 719.023 343.134 717.828 351.692C716.47 361.419 711.043 365.463 708.803 372.337C706.02 380.876 701.703 389.108 698.591 397.596C697.846 399.629 696.281 401.498 695.978 403.669C693.539 421.135 697.318 439.295 695.028 456.861C693.921 465.352 690.423 478.239 684.816 484.792C680.8 489.486 675.046 492.45 671.515 497.665C663.696 509.216 654.347 537.214 643.016 546.485C641.373 547.83 639.186 548.455 637.553 549.886C626.424 559.641 617.991 569.253 603.354 573.932C600.236 574.928 594.22 577.288 590.766 575.875C590.034 575.576 588.454 575.105 587.916 574.418C585.247 571.006 586.728 562.81 586.728 559.116C586.728 548.305 587.516 539.135 590.053 528.755C591.144 524.293 590.688 509.771 587.678 505.924C586.165 503.989 583.494 502.383 582.216 500.094C580.432 496.901 579.129 491.116 579.129 487.464C579.129 482.514 578.749 477.487 579.841 472.649C582.972 458.775 592.303 450.854 590.529 434.515C590.344 432.821 580.165 419.415 577.941 411.684C575.127 401.901 575.218 392.456 574.141 382.537C573.711 378.581 571.721 363.882 574.616 360.921C576.254 359.245 582.366 361.247 584.591 360.678C586.289 360.244 587.855 358.965 589.103 358.006C593.524 354.615 600.018 352.762 605.253 351.692C615.136 349.669 629.74 333.224 636.128 326.188C644.26 317.232 654.558 310.498 662.966 301.9C665.848 298.952 669.7 296.387 672.229 293.156C672.996 292.174 672.971 290.211 673.653 289.513C675.669 287.452 677.521 285.314 679.59 283.198C680.484 282.283 685.507 271.76 686.953 273.239C688.243 274.56 686.036 276.019 685.766 277.125" fill="#8DAA5C"/>
</g>
<g filter="url(#filter12_d)">
<path d="M449.272 100.079C447.829 100.82 442.975 106.158 446.781 106.158C451.32 106.158 452.098 100.532 456.01 99.7323C459.867 98.9429 466.451 98.8436 465.521 93.1317C465.442 92.6471 463.75 92.0311 463.312 91.6833C461.018 89.8596 460.77 86.625 458.444 84.6777C456.279 82.8672 452.671 83.0582 450.687 81.0302C448.629 78.925 445.192 76.525 443.554 74.4297C442.463 73.0354 441.794 71.056 440.044 69.6241C438.455 68.3248 435.842 69.0942 434.155 67.7132C432.921 66.7031 434.886 64.8043 433.816 64.0083C432.688 63.1693 429.782 62.7542 428.891 64.0083C427.388 66.1202 428.081 69.7125 429.287 71.7669C432.888 77.9038 438.438 77.4622 441.629 81.3779C442.342 82.2534 441.332 84.5474 441.629 84.8521C441.918 85.1468 442.523 84.6291 442.874 85.1413C444.38 87.3415 442.207 90.9426 444.403 93.1891C447.111 95.9589 455.201 95.1553 447.8 100.832" fill="#8DAA5C"/>
</g>
<g filter="url(#filter13_d)">
<path d="M435.174 87.6892C433.185 86.806 434.747 80.9429 432.57 80.625C429.186 80.1304 421.379 83.2833 422.097 87.6892C422.245 88.5977 424.214 89.3915 424.531 90.5263C425.238 93.0566 424.275 95.1718 427.419 96.7791C431.777 99.008 436.647 94.9984 436.647 90.4104C436.647 90.0759 438.485 89.9512 438.119 89.4831C437.891 89.1928 436.774 90.0561 437.1 89.8894C437.227 89.8242 435.541 88.6717 435.458 88.6154" fill="#8DAA5C"/>
</g>
<path d="M395.414 754C196.363 754 35 585.211 35 376.999C35 168.789 196.363 0 395.414 0C594.465 0 755.828 168.789 755.828 376.999C755.828 585.211 594.465 754 395.414 754Z" fill="#3F7EB4"/>
<g filter="url(#filter14_d)">
<path d="M139.101 397.826C141 398.182 139.631 396.126 139.101 395.176C137.887 393.004 135.622 392.163 134.435 390.139C133.594 388.706 134.665 386.133 133.398 384.838C130.856 382.238 113.801 385.79 111.627 384.307C109.903 383.132 110.07 378.464 109.812 376.62C109.344 373.264 109.06 369.892 108.516 366.548C107.827 362.323 110.015 348.163 108.516 345.608C105.48 340.433 90.618 348.97 89.5959 342.692C87.852 331.997 98.4076 329.451 98.4076 316.716C98.4076 313.419 93.2656 309.15 90.6317 312.74C87.0477 317.627 89.7925 331.56 77.1548 331.56C76.0281 331.56 73.4745 332.064 72.4895 331.56C66.2969 328.393 65.8699 307.116 66.7873 300.547C67.6751 294.192 72.2696 289.081 75.34 283.848C77.2721 280.555 75.7586 276.623 77.9316 273.511C79.7696 270.88 82.2555 269.046 84.6706 266.884C87.8308 264.057 90.9361 259.535 95.0381 258.137C96.6827 257.577 98.546 258.116 100.222 257.871C104.223 257.287 107.997 257.076 112.145 257.076C114.803 257.076 116.63 258.483 118.366 260.257C123.626 265.638 123.547 272.437 124.586 279.872C124.943 282.43 123.75 286.42 125.364 288.62C126.252 289.832 129.293 287.921 130.029 287.294C137.032 281.326 132.488 268.796 130.547 261.848C129.256 257.228 129.717 245.997 132.879 242.763C136.659 238.898 142.459 234.418 147.653 232.425C152.305 230.641 156.78 229.718 160.612 225.799C162.976 223.383 163.709 219.592 165.538 216.787C167.606 213.613 170.691 211.266 172.795 208.04C175.399 204.045 175.861 198.808 179.274 195.317C185.821 188.621 193.718 193.184 198.195 189.75C202.02 186.816 197.474 181.49 202.601 177.558C205.499 175.334 214.043 175.424 217.115 174.376C218.973 173.743 223.974 167.777 225.669 169.075C227.034 170.123 224.652 176.456 226.447 176.762C227.251 176.9 229.288 177.03 230.075 176.762C231.074 176.422 234.927 171.519 236.295 170.401C239.729 167.591 247.303 164.419 249.773 161.388C253.872 156.358 239.409 160.063 238.887 160.063C238.259 160.063 236.017 160.446 235.517 160.063C233.551 158.554 236.985 152.057 234.481 150.521C232.004 149.001 221.548 150.114 221.262 149.726C221.121 149.533 221.262 147.674 221.262 147.34C221.262 146.634 221.044 145.566 221.521 144.955C226.644 138.406 249.662 134.819 257.549 133.026C261.53 132.121 266.389 132.831 269.989 130.376C270.675 129.909 271.116 128.818 271.804 128.255C273.512 126.857 276.572 126.036 276.987 123.484C277.54 120.096 269.369 109.498 268.693 104.665C268.34 102.136 267.796 95.8265 268.693 93.5314C269.365 91.8136 272.572 88.834 271.286 86.6405C268.576 82.0215 252.012 93.5004 249.773 92.7365C247.797 92.0631 257.457 81.3603 255.734 78.4237C254.324 76.0204 244.2 75.9939 241.738 76.833C236.555 78.5993 227.223 90.8797 226.187 96.183C225.825 98.0344 227.195 102.323 226.187 103.87C223.584 107.862 218.272 109.762 214.782 112.616C211.803 115.054 209.371 117.621 206.747 120.303C205.576 121.502 195.249 134.473 193.27 131.436C190.415 127.056 198.535 116.086 196.899 110.231C195.882 106.592 190.266 109.014 188.864 107.58C188.304 107.008 188.206 104.868 188.086 104.135C187.764 102.158 187.429 97.3356 188.605 95.652C193.963 87.9818 209.642 79.616 217.634 74.7123C218.473 74.1967 218.142 73.1281 218.93 72.5916C220.081 71.8067 221.517 71.0041 222.817 70.2059C225.506 68.5566 229.155 68.5147 232.148 67.2904C242.427 63.0854 239.077 58.2788 253.66 58.2788C260.85 58.2788 272.66 51.378 278.543 47.9403C278.777 47.8034 285.526 43.5444 285.282 43.1701C285.005 42.7451 279.742 43.0973 279.32 43.1701C269.464 44.8492 260.308 51.6915 251.328 55.6282C250.66 55.9208 246.438 57.622 245.626 57.4829C243.724 57.1594 249.803 52.5316 247.699 51.9167C246.848 51.6683 244.541 52.4764 243.812 51.9167C241.157 49.881 241.654 49.4163 238.145 50.0135C235.465 50.4705 227.359 54.1688 224.793 55.9186C221.741 57.9995 215.24 61.6326 212.163 63.5204C206.956 66.7163 203.074 71.8232 197.676 74.9772C191.65 78.4988 186.042 83.5693 180.31 87.9652C169.496 96.2614 159.37 105.123 149.093 114.133C138.749 123.2 122.309 140.394 114.662 152.124C109.998 159.279 101.985 167.962 97.691 175.282C94.0371 181.51 89.2767 189.139 85.3471 195.167C83.7321 197.644 81.7429 203.947 80.2125 206.45C75.7882 213.69 75.6603 217.192 71.9705 224.738C69.7541 229.272 67.8474 235.927 64.9726 239.847C61.9106 244.023 57.5624 251.79 56.5721 256.851C56.0224 259.662 55.6874 260.303 57.1967 261.848C58.6098 263.292 58.3477 269.22 57.9746 271.125C56.8162 277.047 52.8886 281.494 51.7545 287.294C50.5919 293.238 52.9943 299.036 52.0135 305.053C51.4068 308.773 48.2741 313.14 49.4219 317.246C50.6511 321.649 54.6622 325.314 56.6788 329.44C58.4936 333.151 58.7895 337.897 60.8262 341.367C63.4199 345.788 69.2183 348.923 73.2663 352.235C75.766 354.28 77.1061 358.173 80.0053 359.657C82.3158 360.838 92.4338 363.971 93.4833 365.223C94.9028 366.917 94.8499 370.138 95.816 372.115C100.219 381.121 102.572 388.295 111.108 394.115C112.489 395.056 119.565 394.943 121.216 394.38C123.141 393.724 123.575 391.327 125.881 390.934C126.585 390.814 131.115 390.455 131.584 390.934C132.463 391.833 133.246 393.734 134.435 394.645C135.96 395.815 138.441 396.622 139.877 398.091" fill="#8DAA5C"/>
</g>
<g filter="url(#filter15_d)">
<path d="M135.109 396.718C132.352 398.365 129.717 400.013 127.939 402.741C127.275 403.761 127.953 405.04 127.684 406.145C126.809 409.718 123.796 412.547 123.33 416.357C123.163 417.729 123.345 420.131 122.563 421.333C120.876 423.92 118.853 425.637 118.209 428.927C116.72 436.544 117.953 445.507 117.953 453.28C117.953 459.114 115.477 460.882 114.881 466.373C114.324 471.499 114.993 476.711 114.368 481.823C113.724 487.101 110.16 491.839 111.552 497.534C112.053 499.581 116.22 503.679 117.441 506.176C121.744 514.974 126.752 522.317 132.804 529.743C135.865 533.499 137.213 540.342 141.255 543.097C143.386 544.551 146.319 544.86 148.68 546.24C153.2 548.882 157.142 553.575 162.251 554.619C165.818 555.349 170.408 555.368 173.261 558.286C175.529 560.605 182.667 568.443 184.015 570.855C184.899 572.435 185.137 574.398 185.552 576.092C186.018 577.999 189.675 584.178 190.928 585.781C192.996 588.424 195.799 590.501 197.842 593.113C201.321 597.56 200.268 602.998 201.683 608.3C203.591 615.458 206.666 621.998 208.084 629.25C209.159 634.75 217.131 648.772 220.119 653.865C221.022 655.404 229.782 663.746 231.64 665.648C234.004 668.064 233.071 672.583 235.225 675.337C237.486 678.227 239.734 678.847 242.651 680.835C248.057 684.52 251.616 689.442 255.71 691.834C263.626 696.461 271.989 699.885 279.778 704.665C281.144 705.502 282.166 707.369 283.108 708.332C287.343 712.662 292.821 714.347 298.214 716.711C299.402 717.232 309.896 721.172 310.25 720.9C313.779 718.192 298.366 715.112 297.446 714.878C297.134 714.797 283.228 701.371 279.778 699.167C270.625 693.316 271.987 687.303 269.025 678.217C267.717 674.205 262.86 665.163 264.927 660.934C267.267 656.15 275.288 658.336 275.938 657.007C276.581 655.692 276.514 648.954 275.938 647.58C275.42 646.341 271.682 644.843 272.353 643.128C273.219 640.914 280.272 639.539 281.571 634.224C282.311 631.198 281.819 627.97 282.852 624.274C284.231 619.334 288.353 614.599 289.508 609.872C290.329 606.518 288.299 600.83 290.533 598.089C294.177 593.617 302.483 588.069 307.433 585.257C310.438 583.55 314.364 583.046 317.163 581.33C318.097 580.756 317.419 575.078 317.419 573.997C317.419 566.676 319.434 566.013 321.003 559.595C322.864 551.985 318.943 543.645 322.54 536.289C329.195 522.675 343.879 517.362 341.744 499.891C341.558 498.371 340.276 497.628 339.439 496.486C338.684 495.457 338.542 493.735 337.648 492.82C333.467 488.547 326.659 492.963 322.795 490.988C319.503 489.304 317.318 484.727 314.602 482.346C311.324 479.472 301.935 475.671 297.703 474.228C291.162 471.998 278.142 477.53 273.378 472.658C269.84 469.04 265.701 466.181 261.855 463.231C258.84 460.918 254.92 461.638 252.125 458.779C247.236 453.78 254.376 441.736 246.748 438.616C241.793 436.589 233.158 434.063 227.8 433.379C223.578 432.839 216.497 435.078 212.693 432.855C209.374 430.915 207.474 425.16 204.755 422.38C198.965 416.459 191.345 412.488 184.783 407.455C183.866 406.75 182.835 406.07 181.967 405.359C181.064 404.621 181.138 402.267 179.918 401.955C178.643 401.629 169.795 404.05 165.836 404.05C153.781 404.05 145.627 397.813 134.597 395.933C132.303 395.542 131.78 396.74 131.78 398.813" fill="#8DAA5C"/>
</g>
<g filter="url(#filter16_d)">
<path d="M145.321 322.38C138.734 322.72 140.494 316.422 137.332 313.187C130.856 306.566 120.338 315.259 114.506 310.999C108.758 306.801 122.851 300.083 125.348 299.62C129.705 298.809 134.063 305.149 137.759 306.914C142.654 309.249 148.913 309.049 153.167 312.312C153.889 312.866 155.884 315.664 154.594 316.543C152.215 318.165 148.531 318.349 145.178 320.92" fill="#8DAA5C"/>
</g>
<g filter="url(#filter17_d)">
<path d="M164.01 321.941C162.432 322.079 160.624 321.547 159.159 322.38C157.572 323.281 157.395 324.913 156.164 326.173C154.723 327.646 144.913 335.234 147.746 337.407C152.378 340.959 171.254 336.273 175.138 332.3C176.87 330.529 178.617 326.55 176.137 324.859C174.018 323.415 166.161 323.512 162.869 322.671" fill="#8DAA5C"/>
</g>
<g filter="url(#filter18_d)">
<path d="M275.206 138.354C273.824 139.173 272.415 139.949 271.057 140.811C262.212 146.425 275.393 144.22 276.517 149.969C277.791 156.483 270.927 159.199 268.218 163.817C267.197 165.558 273.855 166.05 274.551 166.05C283.371 166.05 280.997 162.713 287.437 160.243C288.303 159.911 293.902 159.593 294.207 159.126C294.401 158.829 294.207 156.921 294.207 156.669C294.207 149.916 288.895 148.716 284.16 145.948C281.977 144.672 280.272 142.008 277.827 141.257C276.058 140.715 273.986 141.034 272.149 141.034" fill="#8DAA5C"/>
</g>
<g filter="url(#filter19_d)">
<path d="M269.682 59.5318C266.791 60.3852 262.605 58.4577 259.77 59.9072C257.522 61.0564 267.018 75.9101 270.416 74.1724C273.205 72.7461 275.322 69.5756 278.308 68.3535C280.523 67.4472 284.038 69.676 285.833 67.2275C288.446 63.6639 286.932 57.5226 290.422 54.4636C293.545 51.7269 296.142 55.9793 300.15 50.7101C301.566 48.8478 309.757 34.4445 308.042 32.6903C303.579 28.1266 291.703 29.9017 286.935 32.5026C286.652 32.6561 283.448 33.9521 283.448 34.3794C283.448 34.6984 284.069 34.4666 284.365 34.567C287.175 35.5253 292.169 38.8106 292.624 42.075C293.053 45.1484 291.498 46.9059 289.688 49.02C282.732 57.1506 275.7 54.8654 268.581 59.7195" fill="#8DAA5C"/>
</g>
<g filter="url(#filter20_d)">
<path d="M254.582 43.881C249.079 43.0751 247.1 42.0761 259.211 41.4236C263.38 41.1995 267.039 39.4255 270.665 37.5708C271.764 37.0089 273.165 37.7618 274.282 37.1083C275.248 36.5431 275.416 35.1366 276.543 34.642C279.227 33.4663 282.12 32.7477 284.833 31.5598C285.287 31.36 290.71 29.141 290.71 29.0936C290.71 28.8043 283.538 31.1348 282.134 30.9957C277.829 30.5696 255.938 41.7493 254.322 43.8159" fill="#8DAA5C"/>
</g>
<g filter="url(#filter21_d)">
<path d="M382.987 17.3828C380.588 17.3707 382.045 16.3473 381.326 15.6121C380.7 14.9718 376.41 15.0999 375.451 15.0999C371.585 15.0999 366.894 14.6594 363.243 15.7258C361.374 16.2723 359.954 18.1611 358.235 19.041C350.357 23.0682 344.751 22.7149 335.986 29.4369C334.307 30.7263 337.425 33.2974 335.397 35.1631C327.971 41.9977 323.464 39.792 323.464 51.888C323.464 54.277 322.984 57.0302 324.347 59.1211C328.709 65.8133 338.195 72.2305 344.974 65.2988C347.849 62.3579 347.545 57.8935 349.983 54.9018C352.501 51.8129 355.631 52.7414 357.498 50.8337C359.096 49.1988 358.946 45.8913 360.445 44.0533C362.696 41.2901 370.827 38.0345 371.494 36.67C372.047 35.5407 372.279 34.312 372.82 33.2047C373.644 31.5201 373.371 30.0032 375.177 28.684C377.618 26.9011 380.643 26.4629 382.987 24.4647C384.337 23.3144 385.791 17.8377 383.576 16.9313C382.873 16.6432 381.396 16.9313 380.629 16.9313" fill="#8DAA5C"/>
</g>
<g filter="url(#filter22_d)">
<path d="M390.206 36.8202C388.171 36.7782 386.173 37.1138 384.165 36.8202C381.994 36.5034 382.544 41.8597 382.544 43.4505C382.544 49.8314 399.525 46.9953 398.899 40.588C398.493 36.4448 391.232 40.5747 389.764 36.8202" fill="#8DAA5C"/>
</g>
<g filter="url(#filter23_d)">
<path d="M708.65 218.918C707.899 217.275 706.562 215.982 705.862 214.312C704.775 211.719 705.094 208.658 703.717 206.198C698.525 196.903 693.318 183.608 687.204 175.272C682.995 169.533 678.592 162.078 673.693 157.068C669.723 153.008 659.491 143.506 656.75 139.302C650.696 130.016 641.672 120.727 634.446 112.106C629.804 106.567 616.901 95.1387 610.686 91.3257C606.271 88.6166 601.942 86.391 597.987 83.1553C592.678 78.8113 587.405 75.5601 582.17 71.0979C573.684 63.8659 563.491 62.8072 554.002 55.5289C552.321 54.2395 548.052 52.4643 546.542 51.2279C544.318 49.4097 541.226 48.3499 538.674 46.8585C533.366 43.7563 528.712 41.2195 523.097 38.7587C518.899 36.9196 512.829 36.0872 508.756 34.3021C505.238 32.7599 501.285 30.6745 497.507 29.8443C494.858 29.2614 494.282 30.2119 488.869 27.9831C482.923 25.5345 473.607 23.6655 467.35 22.5991C465.174 22.2282 461.893 21.2224 459.755 20.7853C458.842 20.5987 454.774 19.784 455.608 20.2101C459.379 22.1387 464.645 21.7325 468.237 23.9371C471.26 25.7917 475.38 25.0719 478.317 26.7886C480.862 28.2756 483.296 30.053 486.038 31.1746C486.646 31.423 493.909 36.2859 493.33 36.8776C491.586 38.6605 486.903 34.0283 484.966 33.3681C481.062 32.0368 478.033 29.4944 474.457 27.6651C467.192 23.9503 459.681 23.2791 451.723 23.2791C450.676 23.2791 445.693 22.6477 445.075 23.2791C443.79 24.5939 443.736 32.9045 444.432 34.6841C445.004 36.149 446.713 36.2075 447.434 37.3159C449.017 39.7424 450.217 43.0079 451.51 45.6507C454.809 52.3992 452.792 58.9787 461.589 62.9773C470.07 66.8312 471.704 62.5379 479.604 62.5379C484.379 62.5379 485.938 71.6753 490.112 73.5046C491.361 74.0521 494.328 74.4264 495.474 73.7243C496.688 72.9802 499.256 63.5226 498.262 62.0996C496.883 60.1258 489.499 55.2728 487.324 53.3265C482.608 49.1061 477.96 44.8051 473.17 40.6057C472.509 40.0261 468.676 36.8412 468.881 36C469.311 34.2403 474.963 39.6419 475.529 40.6057C478.564 45.7788 489.187 53.4248 495.045 54.4238C503.076 55.7916 505.775 54.4238 513.06 54.4238C513.74 54.4238 508.342 53.7383 508.342 55.3004C508.342 59.6367 515.187 56.9276 516.277 64.7314C516.297 64.875 516.741 65.8442 516.491 66.0474C515.523 66.84 513.738 65.6588 512.846 66.267C511.679 67.0619 511.331 73.488 512.202 74.6019C517.602 81.5038 512.192 79.3224 508.985 80.9618C505.474 82.7579 504.409 85.7264 500.192 86.4451C496.593 87.0589 483.513 78.872 480.891 85.1292C478.209 91.5266 480.046 99.2642 474.242 104.21C472.138 106.004 470.238 105.21 468.023 105.965C466.814 106.377 455.047 111.96 454.941 112.106C453.506 114.063 456.642 116.924 457.943 117.589C461.906 119.616 469.288 121.455 472.098 125.046C473.306 126.591 472.955 128.942 472.955 130.749C472.955 131.609 473.28 133.486 472.955 134.258C470.52 140.07 454.315 135.567 449.793 137.548C445.225 139.55 441.618 143.171 443.36 148.514C444.167 150.991 443.276 153.607 444.432 155.971C446.043 159.266 449.38 161.063 450.652 164.964C451.771 168.397 452.776 172.221 455.584 174.615C463.95 181.744 467.154 176.594 472.742 173.737C477.254 171.43 482.094 173.293 485.18 168.034C487.891 163.414 486.819 155.906 487.968 154.436C489.993 151.848 493.783 151.56 496.118 149.172C497.932 147.318 498.506 144.574 500.836 143.25C504.29 141.288 508.884 141.207 513.06 138.644C515.657 137.051 516.42 133.161 519.923 133.161C526.593 133.161 531.896 140.754 537.295 143.908C543.476 147.52 550.009 150.845 555.738 155.533C556.689 156.31 561.166 159.352 562.386 158.603C563.328 158.025 563.008 152.188 562.601 151.147C561.575 148.521 556.984 148.428 554.88 147.198C550.923 144.886 548.003 141.111 544.158 138.864C542.362 137.814 540.252 137.217 538.581 135.793C537.614 134.969 534.26 130.481 536.651 129.433C539.519 128.176 541.216 132.015 543.085 133.381C549.806 138.29 558.161 139.149 564.102 145.224C564.948 146.089 565.058 147.324 565.818 148.295C567.914 150.974 573.101 148.724 575.255 150.927C575.716 151.399 575.681 152.951 576.112 153.559C578.612 157.075 582.067 159.687 584.262 163.428C584.678 164.138 584.929 166.024 585.548 166.499C585.897 166.765 586.406 166.792 586.835 166.718C587.81 166.552 587.373 165.617 587.694 164.964C587.873 164.595 589.464 162.834 589.409 162.552C589.339 162.195 579.646 151.1 585.335 150.269C592.72 149.189 596.33 161.859 601.204 165.183C605.307 167.981 622.841 171.186 627.583 169.569C628.593 169.225 629.21 167.57 630.157 167.376C632.796 166.836 634.818 175.28 636.161 177.685C637.466 180.018 643.375 186.857 641.094 189.967C639.428 192.238 632.999 190.35 630.586 190.625C622.056 191.594 626.04 194.347 614.501 192.379C608.312 191.325 602.463 184.107 595.843 185.8C590.146 187.256 592.695 190.486 591.554 194.573C590.941 196.765 588.937 203.997 585.977 203.565C584.657 203.372 576.472 196.792 574.825 195.669C573.784 194.959 570.848 195.889 569.678 195.889C568.105 195.889 567.016 193.327 565.604 193.037C560.319 191.956 553.562 190.154 549.519 186.019C545.677 182.09 546.16 171.044 540.082 170.008C532.773 168.762 526.401 173.263 519.494 174.833C513.301 176.241 506.446 173.986 500.192 175.053C499.271 175.21 498.759 175.795 497.833 175.93C496.48 176.128 494.114 175.31 492.901 175.93C491.815 176.485 491.087 177.692 489.683 178.123C489.013 178.329 486.985 178.244 486.467 178.562C485.595 179.097 484.245 181.671 480.891 183.388C477.059 185.346 470.353 181.428 466.522 183.388C465.75 183.782 463.879 192.815 462.447 193.915C460.204 195.635 455.743 194.876 454.083 197.424C451.143 201.934 454.439 217.342 452.796 219.357C451.17 221.354 447.475 221.967 445.29 223.085C438.328 226.645 427.126 236.329 423.844 243.044C421.601 247.632 422.821 253.833 421.485 258.615C420.317 262.797 416.884 266.352 417.625 270.898C418.121 273.947 420.319 276.687 420.841 279.891C422.239 288.465 419.543 297.513 422.557 305.99C425.127 313.218 432.534 317.323 436.926 323.098C437.924 324.411 438.194 326.139 439.071 327.484C448.691 342.243 466.624 364.826 486.467 362.795C489.293 362.506 503.86 347.889 512.202 350.733C513.509 351.179 514.481 352.526 515.849 352.926C523.896 355.278 538.79 349.478 550.377 351.172C553.47 351.623 558.956 352.269 561.529 354.242C562.419 354.925 563.068 356.256 563.888 357.094C564.893 358.122 566.362 358.567 567.534 359.287C568.861 360.102 569.718 361.61 571.18 362.357C574.42 364.014 580.663 364.409 584.262 363.673C588.226 362.863 594.488 358.52 598.845 357.094C603.857 355.453 609.028 354.025 613.858 351.83C621.745 348.244 628.994 342.495 635.733 337.135C640.83 333.08 646.977 330.304 652.032 326.168C658.782 320.647 665.305 314.899 671.977 309.28C680.2 302.355 686.347 294.34 686.347 283.181C686.347 281.726 687.348 277.941 686.56 276.601C685.923 275.512 681.989 269.293 681.199 268.486C679.587 266.837 677.467 266.03 676.267 263.88C675.136 261.855 675.986 259.172 674.765 257.299C673.746 255.736 671.89 254.811 670.905 253.133C668.385 248.838 666.941 243.491 664.686 238.877C660.43 230.172 652.544 223.339 649.459 213.873C648.284 210.27 646.659 205.308 644.097 202.688C643.35 201.923 641.094 198.916 641.094 197.863C641.094 197.1 640.597 194.921 640.451 195.669C639.265 201.736 646.05 205.727 649.888 209.048C654.645 213.166 669.318 230.84 671.763 236.463C673.062 239.453 670.616 243.953 672.191 246.772C672.427 247.194 692.994 272.434 693.637 273.092C695.451 274.946 697.783 277.036 699.214 279.233C700.999 281.971 705.199 293.008 709.937 289.98C711.244 289.144 711.744 288.258 712.726 287.128C719.528 279.301 724.748 277.79 723.019 265.415C722.518 261.828 719.958 257.972 718.945 254.449C717.695 250.105 716.967 244.369 714.226 240.631C709.212 233.794 700.124 231.169 694.925 224.401C693.179 222.129 692.47 219.06 691.065 216.505C689.77 214.151 687.854 212.129 686.347 209.926C686.075 209.529 684.593 206.316 685.274 205.758C687.103 204.262 689.776 208.828 690.421 209.487C693.295 212.426 696.633 215.397 698.785 218.699C699.955 220.493 702.551 219.838 703.717 221.33C704.639 222.508 710.451 225.981 710.795 223.524C711.186 220.724 708.65 221.098 708.65 219.137" fill="#8DAA5C"/>
</g>
<g filter="url(#filter24_d)">
<path d="M688.766 277.611C690.98 278.516 691.779 281.359 693.278 283.198C703.301 295.497 697.729 295.7 701.591 303.6C704.433 309.413 711.361 309.221 715.128 313.072C716.153 314.121 714.777 316.485 715.366 317.688C715.868 318.713 716.927 319.388 717.266 320.602C719.557 328.806 722.023 343.134 720.828 351.692C719.47 361.419 714.043 365.463 711.803 372.337C709.02 380.876 704.703 389.108 701.591 397.596C700.846 399.629 699.281 401.498 698.978 403.669C696.539 421.135 700.318 439.295 698.028 456.861C696.921 465.352 693.423 478.239 687.816 484.792C683.8 489.486 678.046 492.45 674.515 497.665C666.696 509.216 657.347 537.214 646.016 546.485C644.373 547.83 642.186 548.455 640.553 549.886C629.424 559.641 620.991 569.253 606.354 573.932C603.236 574.928 597.22 577.288 593.766 575.875C593.034 575.576 591.454 575.105 590.916 574.418C588.247 571.006 589.728 562.81 589.728 559.116C589.728 548.305 590.516 539.135 593.053 528.755C594.144 524.293 593.688 509.771 590.678 505.924C589.165 503.989 586.494 502.383 585.216 500.094C583.432 496.901 582.129 491.116 582.129 487.464C582.129 482.514 581.749 477.487 582.841 472.649C585.972 458.775 595.303 450.854 593.529 434.515C593.344 432.821 583.165 419.415 580.941 411.684C578.127 401.901 578.218 392.456 577.141 382.537C576.711 378.581 574.721 363.882 577.616 360.921C579.254 359.245 585.366 361.247 587.591 360.678C589.289 360.244 590.855 358.965 592.103 358.006C596.524 354.615 603.018 352.762 608.253 351.692C618.136 349.669 632.74 333.224 639.128 326.188C647.26 317.232 657.558 310.498 665.966 301.9C668.848 298.952 672.7 296.387 675.229 293.156C675.996 292.174 675.971 290.211 676.653 289.513C678.669 287.452 680.521 285.314 682.59 283.198C683.484 282.283 688.507 271.76 689.953 273.239C691.243 274.56 689.036 276.019 688.766 277.125" fill="#8DAA5C"/>
</g>
<g filter="url(#filter25_d)">
<path d="M452.272 100.079C450.829 100.82 445.975 106.158 449.781 106.158C454.32 106.158 455.098 100.532 459.01 99.7323C462.867 98.9429 469.451 98.8436 468.521 93.1317C468.442 92.6471 466.75 92.0311 466.312 91.6833C464.018 89.8596 463.77 86.625 461.444 84.6777C459.279 82.8672 455.671 83.0582 453.687 81.0302C451.629 78.925 448.192 76.525 446.554 74.4297C445.463 73.0354 444.794 71.056 443.044 69.6241C441.455 68.3248 438.842 69.0942 437.155 67.7132C435.921 66.7031 437.886 64.8043 436.816 64.0083C435.688 63.1693 432.782 62.7542 431.891 64.0083C430.388 66.1202 431.081 69.7125 432.287 71.7669C435.888 77.9038 441.438 77.4622 444.629 81.3779C445.342 82.2534 444.332 84.5474 444.629 84.8521C444.918 85.1468 445.523 84.6291 445.874 85.1413C447.38 87.3415 445.207 90.9426 447.403 93.1891C450.111 95.9589 458.201 95.1553 450.8 100.832" fill="#8DAA5C"/>
</g>
<g filter="url(#filter26_d)">
<path d="M438.174 87.6892C436.185 86.806 437.747 80.9429 435.57 80.625C432.186 80.1304 424.379 83.2833 425.097 87.6892C425.245 88.5977 427.214 89.3915 427.531 90.5263C428.238 93.0566 427.275 95.1718 430.419 96.7791C434.777 99.008 439.647 94.9984 439.647 90.4104C439.647 90.0759 441.485 89.9512 441.119 89.4831C440.891 89.1928 439.774 90.0561 440.1 89.8894C440.227 89.8242 438.541 88.6717 438.458 88.6154" fill="#8DAA5C"/>
</g>
<g clip-path="url(#clip0)">
<g filter="url(#filter27_d)">
<path d="M63.5155 452.203C44.9106 452.203 30.5068 445.804 20.3041 433.006C10.1014 420.208 5 400.173 5 372.902C5 345.934 10.1614 325.899 20.4841 312.797C30.8069 299.694 45.1507 293.143 63.5155 293.143C78.0394 293.143 92.3232 296.875 106.367 304.341V337.936C98.2048 332.451 91.1229 328.413 85.1213 325.823C79.2397 323.233 73.2381 321.938 67.1165 321.938C56.1936 321.938 48.0314 325.823 42.63 333.593C37.3486 341.211 34.7079 354.238 34.7079 372.673C34.7079 390.803 37.4086 403.83 42.81 411.753C48.2115 419.523 55.8935 423.408 65.8562 423.408C72.938 423.408 78.4595 422.189 82.4206 419.751V392.784H62.6153V363.989H111.588V435.749C95.9842 446.718 79.9599 452.203 63.5155 452.203ZM137.165 296.571H219.447V325.138H166.333V358.275H212.425V387.071H166.333V420.437H219.447V449.004H137.165V296.571ZM297.367 452.203C279.002 452.203 264.658 445.576 254.335 432.321C244.012 419.066 238.851 399.259 238.851 372.902C238.851 347.001 243.892 327.347 253.975 313.939C264.178 300.38 278.642 293.6 297.367 293.6C315.732 293.6 330.075 300.227 340.398 313.482C350.841 326.585 356.062 346.315 356.062 372.673C356.062 398.574 350.961 418.304 340.758 431.864C330.676 445.423 316.212 452.203 297.367 452.203ZM297.367 421.808C306.849 421.808 313.991 417.999 318.792 410.381C323.594 402.763 325.994 390.194 325.994 372.673C325.994 355.152 323.594 342.659 318.792 335.193C314.111 327.575 306.969 323.766 297.367 323.766C287.884 323.766 280.742 327.575 275.941 335.193C271.26 342.811 268.919 355.457 268.919 373.13C268.919 390.499 271.26 402.992 275.941 410.61C280.742 418.075 287.884 421.808 297.367 421.808ZM466.307 442.148C469.427 447.785 472.968 450.604 476.929 450.604C479.09 450.604 480.95 450.299 482.511 449.689C484.191 449.08 486.232 447.861 488.632 446.033V468.886C484.671 471.629 478.97 473 471.528 473C458.084 473 448.842 466.22 443.801 452.66C438.999 453.422 434.438 453.803 430.117 453.803C410.792 453.803 396.208 447.252 386.365 434.149C376.523 420.894 371.601 400.478 371.601 372.902C371.601 345.934 376.403 325.747 386.005 312.34C395.728 298.78 410.432 292 430.117 292C449.562 292 464.206 298.628 474.049 311.883C483.891 324.985 488.813 345.249 488.813 372.673C488.813 406.496 481.311 429.654 466.307 442.148ZM430.117 320.567C420.514 320.567 413.372 324.604 408.691 332.679C404.01 340.602 401.669 354.085 401.669 373.13C401.669 383.643 402.33 392.708 403.65 400.326V399.412C405.81 395.298 409.111 391.794 413.553 388.899C417.994 385.852 422.855 384.328 428.136 384.328C440.14 384.328 449.262 391.565 455.504 406.039C457.664 397.812 458.745 386.69 458.745 372.673C458.745 353.781 456.344 340.373 451.543 332.451C446.861 324.528 439.719 320.567 430.117 320.567ZM408.871 416.323C411.272 420.589 414.213 423.636 417.694 425.465C421.175 427.293 425.316 428.207 430.117 428.207C431.917 428.207 434.378 427.902 437.499 427.293C435.818 421.808 433.658 417.618 431.017 414.723C428.497 411.676 425.676 410.153 422.555 410.153C417.394 410.153 412.832 412.21 408.871 416.323ZM564.668 453.803C546.063 453.803 532.199 448.775 523.077 438.72C513.954 428.664 509.393 413.124 509.393 392.098V296.571H539.821V390.499C539.821 402.23 541.682 410.915 545.403 416.552C549.124 422.189 555.065 425.008 563.227 425.008C570.789 425.008 576.611 422.113 580.692 416.323C584.773 410.534 586.814 401.926 586.814 390.499V296.571H614.541V392.098C614.541 412.667 610.04 428.131 601.037 438.491C592.155 448.699 580.032 453.803 564.668 453.803ZM640.033 296.571H669.2V449.004H640.033V296.571ZM785.999 323.081L728.384 420.208H785.999V449.004H691.654V422.037L750.71 325.595H692.555V296.571H785.999V323.081Z" fill="white"/>
</g>
</g>
</g>
<defs>
<filter id="filter0_d" x="0" y="0" width="791" height="762" filterUnits="userSpaceOnUse" color-interpolation-filters="sRGB">
<feFlood flood-opacity="0" result="BackgroundImageFix"/>
<feColorMatrix in="SourceAlpha" type="matrix" values="0 0 0 0 0 0 0 0 0 0 0 0 0 0 0 0 0 0 127 0"/>
<feOffset dy="4"/>
<feGaussianBlur stdDeviation="2"/>
<feColorMatrix type="matrix" values="0 0 0 0 0 0 0 0 0 0 0 0 0 0 0 0 0 0 0.5 0"/>
<feBlend mode="normal" in2="BackgroundImageFix" result="effect1_dropShadow"/>
<feBlend mode="normal" in="SourceGraphic" in2="effect1_dropShadow" result="shape"/>
</filter>
<filter id="filter1_d" x="42.1713" y="42.964" width="244.117" height="374.127" filterUnits="userSpaceOnUse" color-interpolation-filters="sRGB">
<feFlood flood-opacity="0" result="BackgroundImageFix"/>
<feColorMatrix in="SourceAlpha" type="matrix" values="0 0 0 0 0 0 0 0 0 0 0 0 0 0 0 0 0 0 127 0"/>
<feOffset dy="15"/>
<feGaussianBlur stdDeviation="2"/>
<feColorMatrix type="matrix" values="0 0 0 0 0 0 0 0 0 0 0 0 0 0 0 0 0 0 0.25 0"/>
<feBlend mode="normal" in2="BackgroundImageFix" result="effect1_dropShadow"/>
<feBlend mode="normal" in="SourceGraphic" in2="effect1_dropShadow" result="shape"/>
</filter>
<filter id="filter2_d" x="104.232" y="395.859" width="238.722" height="344.054" filterUnits="userSpaceOnUse" color-interpolation-filters="sRGB">
<feFlood flood-opacity="0" result="BackgroundImageFix"/>
<feColorMatrix in="SourceAlpha" type="matrix" values="0 0 0 0 0 0 0 0 0 0 0 0 0 0 0 0 0 0 127 0"/>
<feOffset dy="15"/>
<feGaussianBlur stdDeviation="2"/>
<feColorMatrix type="matrix" values="0 0 0 0 0 0 0 0 0 0 0 0 0 0 0 0 0 0 0.25 0"/>
<feBlend mode="normal" in2="BackgroundImageFix" result="effect1_dropShadow"/>
<feBlend mode="normal" in="SourceGraphic" in2="effect1_dropShadow" result="shape"/>
</filter>
<filter id="filter3_d" x="106.14" y="299.548" width="49.8785" height="41.8446" filterUnits="userSpaceOnUse" color-interpolation-filters="sRGB">
<feFlood flood-opacity="0" result="BackgroundImageFix"/>
<feColorMatrix in="SourceAlpha" type="matrix" values="0 0 0 0 0 0 0 0 0 0 0 0 0 0 0 0 0 0 127 0"/>
<feOffset dy="15"/>
<feGaussianBlur stdDeviation="2"/>
<feColorMatrix type="matrix" values="0 0 0 0 0 0 0 0 0 0 0 0 0 0 0 0 0 0 0.25 0"/>
<feBlend mode="normal" in2="BackgroundImageFix" result="effect1_dropShadow"/>
<feBlend mode="normal" in="SourceGraphic" in2="effect1_dropShadow" result="shape"/>
</filter>
<filter id="filter4_d" x="140.235" y="321.899" width="38.1346" height="35.7671" filterUnits="userSpaceOnUse" color-interpolation-filters="sRGB">
<feFlood flood-opacity="0" result="BackgroundImageFix"/>
<feColorMatrix in="SourceAlpha" type="matrix" values="0 0 0 0 0 0 0 0 0 0 0 0 0 0 0 0 0 0 127 0"/>
<feOffset dy="15"/>
<feGaussianBlur stdDeviation="2"/>
<feColorMatrix type="matrix" values="0 0 0 0 0 0 0 0 0 0 0 0 0 0 0 0 0 0 0.25 0"/>
<feBlend mode="normal" in2="BackgroundImageFix" result="effect1_dropShadow"/>
<feBlend mode="normal" in="SourceGraphic" in2="effect1_dropShadow" result="shape"/>
</filter>
<filter id="filter5_d" x="261.02" y="138.354" width="34.2726" height="46.696" filterUnits="userSpaceOnUse" color-interpolation-filters="sRGB">
<feFlood flood-opacity="0" result="BackgroundImageFix"/>
<feColorMatrix in="SourceAlpha" type="matrix" values="0 0 0 0 0 0 0 0 0 0 0 0 0 0 0 0 0 0 127 0"/>
<feOffset dy="15"/>
<feGaussianBlur stdDeviation="2"/>
<feColorMatrix type="matrix" values="0 0 0 0 0 0 0 0 0 0 0 0 0 0 0 0 0 0 0.25 0"/>
<feBlend mode="normal" in2="BackgroundImageFix" result="effect1_dropShadow"/>
<feBlend mode="normal" in="SourceGraphic" in2="effect1_dropShadow" result="shape"/>
</filter>
<filter id="filter6_d" x="252.43" y="29.8776" width="56.8466" height="63.436" filterUnits="userSpaceOnUse" color-interpolation-filters="sRGB">
<feFlood flood-opacity="0" result="BackgroundImageFix"/>
<feColorMatrix in="SourceAlpha" type="matrix" values="0 0 0 0 0 0 0 0 0 0 0 0 0 0 0 0 0 0 127 0"/>
<feOffset dy="15"/>
<feGaussianBlur stdDeviation="2"/>
<feColorMatrix type="matrix" values="0 0 0 0 0 0 0 0 0 0 0 0 0 0 0 0 0 0 0.25 0"/>
<feBlend mode="normal" in2="BackgroundImageFix" result="effect1_dropShadow"/>
<feBlend mode="normal" in="SourceGraphic" in2="effect1_dropShadow" result="shape"/>
</filter>
<filter id="filter7_d" x="243.253" y="29.0687" width="48.4569" height="33.8123" filterUnits="userSpaceOnUse" color-interpolation-filters="sRGB">
<feFlood flood-opacity="0" result="BackgroundImageFix"/>
<feColorMatrix in="SourceAlpha" type="matrix" values="0 0 0 0 0 0 0 0 0 0 0 0 0 0 0 0 0 0 127 0"/>
<feOffset dy="15"/>
<feGaussianBlur stdDeviation="2"/>
<feColorMatrix type="matrix" values="0 0 0 0 0 0 0 0 0 0 0 0 0 0 0 0 0 0 0.25 0"/>
<feBlend mode="normal" in2="BackgroundImageFix" result="effect1_dropShadow"/>
<feBlend mode="normal" in="SourceGraphic" in2="effect1_dropShadow" result="shape"/>
</filter>
<filter id="filter8_d" x="316.382" y="15.0097" width="69.337" height="72.2772" filterUnits="userSpaceOnUse" color-interpolation-filters="sRGB">
<feFlood flood-opacity="0" result="BackgroundImageFix"/>
<feColorMatrix in="SourceAlpha" type="matrix" values="0 0 0 0 0 0 0 0 0 0 0 0 0 0 0 0 0 0 127 0"/>
<feOffset dy="15"/>
<feGaussianBlur stdDeviation="2"/>
<feColorMatrix type="matrix" values="0 0 0 0 0 0 0 0 0 0 0 0 0 0 0 0 0 0 0.25 0"/>
<feBlend mode="normal" in2="BackgroundImageFix" result="effect1_dropShadow"/>
<feBlend mode="normal" in="SourceGraphic" in2="effect1_dropShadow" result="shape"/>
</filter>
<filter id="filter9_d" x="375.482" y="36.8067" width="24.434" height="29.2389" filterUnits="userSpaceOnUse" color-interpolation-filters="sRGB">
<feFlood flood-opacity="0" result="BackgroundImageFix"/>
<feColorMatrix in="SourceAlpha" type="matrix" values="0 0 0 0 0 0 0 0 0 0 0 0 0 0 0 0 0 0 127 0"/>
<feOffset dy="15"/>
<feGaussianBlur stdDeviation="2"/>
<feColorMatrix type="matrix" values="0 0 0 0 0 0 0 0 0 0 0 0 0 0 0 0 0 0 0.25 0"/>
<feBlend mode="normal" in2="BackgroundImageFix" result="effect1_dropShadow"/>
<feBlend mode="normal" in="SourceGraphic" in2="effect1_dropShadow" result="shape"/>
</filter>
<filter id="filter10_d" x="410.521" y="20.0884" width="313.832" height="362.94" filterUnits="userSpaceOnUse" color-interpolation-filters="sRGB">
<feFlood flood-opacity="0" result="BackgroundImageFix"/>
<feColorMatrix in="SourceAlpha" type="matrix" values="0 0 0 0 0 0 0 0 0 0 0 0 0 0 0 0 0 0 127 0"/>
<feOffset dy="15"/>
<feGaussianBlur stdDeviation="2"/>
<feColorMatrix type="matrix" values="0 0 0 0 0 0 0 0 0 0 0 0 0 0 0 0 0 0 0.25 0"/>
<feBlend mode="normal" in2="BackgroundImageFix" result="effect1_dropShadow"/>
<feBlend mode="normal" in="SourceGraphic" in2="effect1_dropShadow" result="shape"/>
</filter>
<filter id="filter11_d" x="569.074" y="273.097" width="153.066" height="322.217" filterUnits="userSpaceOnUse" color-interpolation-filters="sRGB">
<feFlood flood-opacity="0" result="BackgroundImageFix"/>
<feColorMatrix in="SourceAlpha" type="matrix" values="0 0 0 0 0 0 0 0 0 0 0 0 0 0 0 0 0 0 127 0"/>
<feOffset dy="15"/>
<feGaussianBlur stdDeviation="2"/>
<feColorMatrix type="matrix" values="0 0 0 0 0 0 0 0 0 0 0 0 0 0 0 0 0 0 0.25 0"/>
<feBlend mode="normal" in2="BackgroundImageFix" result="effect1_dropShadow"/>
<feBlend mode="normal" in="SourceGraphic" in2="effect1_dropShadow" result="shape"/>
</filter>
<filter id="filter12_d" x="424.034" y="63.2159" width="45.5762" height="61.9425" filterUnits="userSpaceOnUse" color-interpolation-filters="sRGB">
<feFlood flood-opacity="0" result="BackgroundImageFix"/>
<feColorMatrix in="SourceAlpha" type="matrix" values="0 0 0 0 0 0 0 0 0 0 0 0 0 0 0 0 0 0 127 0"/>
<feOffset dy="15"/>
<feGaussianBlur stdDeviation="2"/>
<feColorMatrix type="matrix" values="0 0 0 0 0 0 0 0 0 0 0 0 0 0 0 0 0 0 0.25 0"/>
<feBlend mode="normal" in2="BackgroundImageFix" result="effect1_dropShadow"/>
<feBlend mode="normal" in="SourceGraphic" in2="effect1_dropShadow" result="shape"/>
</filter>
<filter id="filter13_d" x="418.051" y="80.5739" width="24.1165" height="35.8394" filterUnits="userSpaceOnUse" color-interpolation-filters="sRGB">
<feFlood flood-opacity="0" result="BackgroundImageFix"/>
<feColorMatrix in="SourceAlpha" type="matrix" values="0 0 0 0 0 0 0 0 0 0 0 0 0 0 0 0 0 0 127 0"/>
<feOffset dy="15"/>
<feGaussianBlur stdDeviation="2"/>
<feColorMatrix type="matrix" values="0 0 0 0 0 0 0 0 0 0 0 0 0 0 0 0 0 0 0.25 0"/>
<feBlend mode="normal" in2="BackgroundImageFix" result="effect1_dropShadow"/>
<feBlend mode="normal" in="SourceGraphic" in2="effect1_dropShadow" result="shape"/>
</filter>
<filter id="filter14_d" x="45.1713" y="42.964" width="244.117" height="374.127" filterUnits="userSpaceOnUse" color-interpolation-filters="sRGB">
<feFlood flood-opacity="0" result="BackgroundImageFix"/>
<feColorMatrix in="SourceAlpha" type="matrix" values="0 0 0 0 0 0 0 0 0 0 0 0 0 0 0 0 0 0 127 0"/>
<feOffset dy="15"/>
<feGaussianBlur stdDeviation="2"/>
<feColorMatrix type="matrix" values="0 0 0 0 0 0 0 0 0 0 0 0 0 0 0 0 0 0 0.25 0"/>
<feBlend mode="normal" in2="BackgroundImageFix" result="effect1_dropShadow"/>
<feBlend mode="normal" in="SourceGraphic" in2="effect1_dropShadow" result="shape"/>
</filter>
<filter id="filter15_d" x="107.232" y="395.859" width="238.722" height="344.054" filterUnits="userSpaceOnUse" color-interpolation-filters="sRGB">
<feFlood flood-opacity="0" result="BackgroundImageFix"/>
<feColorMatrix in="SourceAlpha" type="matrix" values="0 0 0 0 0 0 0 0 0 0 0 0 0 0 0 0 0 0 127 0"/>
<feOffset dy="15"/>
<feGaussianBlur stdDeviation="2"/>
<feColorMatrix type="matrix" values="0 0 0 0 0 0 0 0 0 0 0 0 0 0 0 0 0 0 0.25 0"/>
<feBlend mode="normal" in2="BackgroundImageFix" result="effect1_dropShadow"/>
<feBlend mode="normal" in="SourceGraphic" in2="effect1_dropShadow" result="shape"/>
</filter>
<filter id="filter16_d" x="109.14" y="299.548" width="49.8785" height="41.8446" filterUnits="userSpaceOnUse" color-interpolation-filters="sRGB">
<feFlood flood-opacity="0" result="BackgroundImageFix"/>
<feColorMatrix in="SourceAlpha" type="matrix" values="0 0 0 0 0 0 0 0 0 0 0 0 0 0 0 0 0 0 127 0"/>
<feOffset dy="15"/>
<feGaussianBlur stdDeviation="2"/>
<feColorMatrix type="matrix" values="0 0 0 0 0 0 0 0 0 0 0 0 0 0 0 0 0 0 0.25 0"/>
<feBlend mode="normal" in2="BackgroundImageFix" result="effect1_dropShadow"/>
<feBlend mode="normal" in="SourceGraphic" in2="effect1_dropShadow" result="shape"/>
</filter>
<filter id="filter17_d" x="143.235" y="321.899" width="38.1346" height="35.7671" filterUnits="userSpaceOnUse" color-interpolation-filters="sRGB">
<feFlood flood-opacity="0" result="BackgroundImageFix"/>
<feColorMatrix in="SourceAlpha" type="matrix" values="0 0 0 0 0 0 0 0 0 0 0 0 0 0 0 0 0 0 127 0"/>
<feOffset dy="15"/>
<feGaussianBlur stdDeviation="2"/>
<feColorMatrix type="matrix" values="0 0 0 0 0 0 0 0 0 0 0 0 0 0 0 0 0 0 0.25 0"/>
<feBlend mode="normal" in2="BackgroundImageFix" result="effect1_dropShadow"/>
<feBlend mode="normal" in="SourceGraphic" in2="effect1_dropShadow" result="shape"/>
</filter>
<filter id="filter18_d" x="264.02" y="138.354" width="34.2726" height="46.696" filterUnits="userSpaceOnUse" color-interpolation-filters="sRGB">
<feFlood flood-opacity="0" result="BackgroundImageFix"/>
<feColorMatrix in="SourceAlpha" type="matrix" values="0 0 0 0 0 0 0 0 0 0 0 0 0 0 0 0 0 0 127 0"/>
<feOffset dy="15"/>
<feGaussianBlur stdDeviation="2"/>
<feColorMatrix type="matrix" values="0 0 0 0 0 0 0 0 0 0 0 0 0 0 0 0 0 0 0.25 0"/>
<feBlend mode="normal" in2="BackgroundImageFix" result="effect1_dropShadow"/>
<feBlend mode="normal" in="SourceGraphic" in2="effect1_dropShadow" result="shape"/>
</filter>
<filter id="filter19_d" x="255.43" y="29.8776" width="56.8466" height="63.436" filterUnits="userSpaceOnUse" color-interpolation-filters="sRGB">
<feFlood flood-opacity="0" result="BackgroundImageFix"/>
<feColorMatrix in="SourceAlpha" type="matrix" values="0 0 0 0 0 0 0 0 0 0 0 0 0 0 0 0 0 0 127 0"/>
<feOffset dy="15"/>
<feGaussianBlur stdDeviation="2"/>
<feColorMatrix type="matrix" values="0 0 0 0 0 0 0 0 0 0 0 0 0 0 0 0 0 0 0.25 0"/>
<feBlend mode="normal" in2="BackgroundImageFix" result="effect1_dropShadow"/>
<feBlend mode="normal" in="SourceGraphic" in2="effect1_dropShadow" result="shape"/>
</filter>
<filter id="filter20_d" x="246.253" y="29.0687" width="48.4569" height="33.8123" filterUnits="userSpaceOnUse" color-interpolation-filters="sRGB">
<feFlood flood-opacity="0" result="BackgroundImageFix"/>
<feColorMatrix in="SourceAlpha" type="matrix" values="0 0 0 0 0 0 0 0 0 0 0 0 0 0 0 0 0 0 127 0"/>
<feOffset dy="15"/>
<feGaussianBlur stdDeviation="2"/>
<feColorMatrix type="matrix" values="0 0 0 0 0 0 0 0 0 0 0 0 0 0 0 0 0 0 0.25 0"/>
<feBlend mode="normal" in2="BackgroundImageFix" result="effect1_dropShadow"/>
<feBlend mode="normal" in="SourceGraphic" in2="effect1_dropShadow" result="shape"/>
</filter>
<filter id="filter21_d" x="319.382" y="15.0097" width="69.337" height="72.2772" filterUnits="userSpaceOnUse" color-interpolation-filters="sRGB">
<feFlood flood-opacity="0" result="BackgroundImageFix"/>
<feColorMatrix in="SourceAlpha" type="matrix" values="0 0 0 0 0 0 0 0 0 0 0 0 0 0 0 0 0 0 127 0"/>
<feOffset dy="15"/>
<feGaussianBlur stdDeviation="2"/>
<feColorMatrix type="matrix" values="0 0 0 0 0 0 0 0 0 0 0 0 0 0 0 0 0 0 0.25 0"/>
<feBlend mode="normal" in2="BackgroundImageFix" result="effect1_dropShadow"/>
<feBlend mode="normal" in="SourceGraphic" in2="effect1_dropShadow" result="shape"/>
</filter>
<filter id="filter22_d" x="378.482" y="36.8067" width="24.434" height="29.2389" filterUnits="userSpaceOnUse" color-interpolation-filters="sRGB">
<feFlood flood-opacity="0" result="BackgroundImageFix"/>
<feColorMatrix in="SourceAlpha" type="matrix" values="0 0 0 0 0 0 0 0 0 0 0 0 0 0 0 0 0 0 127 0"/>
<feOffset dy="15"/>
<feGaussianBlur stdDeviation="2"/>
<feColorMatrix type="matrix" values="0 0 0 0 0 0 0 0 0 0 0 0 0 0 0 0 0 0 0.25 0"/>
<feBlend mode="normal" in2="BackgroundImageFix" result="effect1_dropShadow"/>
<feBlend mode="normal" in="SourceGraphic" in2="effect1_dropShadow" result="shape"/>
</filter>
<filter id="filter23_d" x="413.521" y="20.0884" width="313.832" height="362.94" filterUnits="userSpaceOnUse" color-interpolation-filters="sRGB">
<feFlood flood-opacity="0" result="BackgroundImageFix"/>
<feColorMatrix in="SourceAlpha" type="matrix" values="0 0 0 0 0 0 0 0 0 0 0 0 0 0 0 0 0 0 127 0"/>
<feOffset dy="15"/>
<feGaussianBlur stdDeviation="2"/>
<feColorMatrix type="matrix" values="0 0 0 0 0 0 0 0 0 0 0 0 0 0 0 0 0 0 0.25 0"/>
<feBlend mode="normal" in2="BackgroundImageFix" result="effect1_dropShadow"/>
<feBlend mode="normal" in="SourceGraphic" in2="effect1_dropShadow" result="shape"/>
</filter>
<filter id="filter24_d" x="572.074" y="273.097" width="153.066" height="322.217" filterUnits="userSpaceOnUse" color-interpolation-filters="sRGB">
<feFlood flood-opacity="0" result="BackgroundImageFix"/>
<feColorMatrix in="SourceAlpha" type="matrix" values="0 0 0 0 0 0 0 0 0 0 0 0 0 0 0 0 0 0 127 0"/>
<feOffset dy="15"/>
<feGaussianBlur stdDeviation="2"/>
<feColorMatrix type="matrix" values="0 0 0 0 0 0 0 0 0 0 0 0 0 0 0 0 0 0 0.25 0"/>
<feBlend mode="normal" in2="BackgroundImageFix" result="effect1_dropShadow"/>
<feBlend mode="normal" in="SourceGraphic" in2="effect1_dropShadow" result="shape"/>
</filter>
<filter id="filter25_d" x="427.034" y="63.2159" width="45.5762" height="61.9425" filterUnits="userSpaceOnUse" color-interpolation-filters="sRGB">
<feFlood flood-opacity="0" result="BackgroundImageFix"/>
<feColorMatrix in="SourceAlpha" type="matrix" values="0 0 0 0 0 0 0 0 0 0 0 0 0 0 0 0 0 0 127 0"/>
<feOffset dy="15"/>
<feGaussianBlur stdDeviation="2"/>
<feColorMatrix type="matrix" values="0 0 0 0 0 0 0 0 0 0 0 0 0 0 0 0 0 0 0.25 0"/>
<feBlend mode="normal" in2="BackgroundImageFix" result="effect1_dropShadow"/>
<feBlend mode="normal" in="SourceGraphic" in2="effect1_dropShadow" result="shape"/>
</filter>
<filter id="filter26_d" x="421.051" y="80.5739" width="24.1165" height="35.8394" filterUnits="userSpaceOnUse" color-interpolation-filters="sRGB">
<feFlood flood-opacity="0" result="BackgroundImageFix"/>
<feColorMatrix in="SourceAlpha" type="matrix" values="0 0 0 0 0 0 0 0 0 0 0 0 0 0 0 0 0 0 127 0"/>
<feOffset dy="15"/>
<feGaussianBlur stdDeviation="2"/>
<feColorMatrix type="matrix" values="0 0 0 0 0 0 0 0 0 0 0 0 0 0 0 0 0 0 0.25 0"/>
<feBlend mode="normal" in2="BackgroundImageFix" result="effect1_dropShadow"/>
<feBlend mode="normal" in="SourceGraphic" in2="effect1_dropShadow" result="shape"/>
</filter>
<filter id="filter27_d" x="5" y="292" width="803.999" height="189" filterUnits="userSpaceOnUse" color-interpolation-filters="sRGB">
<feFlood flood-opacity="0" result="BackgroundImageFix"/>
<feColorMatrix in="SourceAlpha" type="matrix" values="0 0 0 0 0 0 0 0 0 0 0 0 0 0 0 0 0 0 127 0"/>
<feOffset dx="19" dy="4"/>
<feGaussianBlur stdDeviation="2"/>
<feColorMatrix type="matrix" values="0 0 0 0 0 0 0 0 0 0 0 0 0 0 0 0 0 0 0.5 0"/>
<feBlend mode="normal" in2="BackgroundImageFix" result="effect1_dropShadow"/>
<feBlend mode="normal" in="SourceGraphic" in2="effect1_dropShadow" result="shape"/>
</filter>
<clipPath id="clip0">
<path d="M4 292H787V473H4V292Z" fill="white"/>
</clipPath>
</defs>
</svg>
