<svg width="1440" height="919" viewBox="0 0 1440 919" fill="none" xmlns="http://www.w3.org/2000/svg">
<path d="M57.3177 908.274L46.5232 918.416L35.0372 908.552L45.8312 898.41L57.3177 908.274Z" fill="white"/>
<path d="M1410.56 897.785L1399.77 907.927L1388.28 898.063L1399.08 887.921L1410.56 897.785Z" fill="white"/>
<path d="M622.158 834.917L580.518 865.835L614.807 908.578L656.445 877.658L622.158 834.917Z" fill="white"/>
<path d="M332.117 809.932L309.179 826.569L328.123 849.633L351.06 832.997L332.117 809.932Z" fill="white"/>
<path d="M1014.3 807.835L991.357 824.471L1010.3 847.535L1033.24 830.899L1014.3 807.835Z" fill="white"/>
<path d="M1141.69 686.964L1130.9 697.106L1119.41 687.242L1130.21 677.1L1141.69 686.964Z" fill="white"/>
<path d="M357.298 665.987L346.504 676.129L335.018 666.265L345.812 656.123L357.298 665.987Z" fill="white"/>
<path d="M52.0533 544.546L10.4132 575.465L44.7025 618.207L86.3402 587.288L52.0533 544.546Z" fill="white"/>
<path d="M222.863 535.928L212.068 546.07L200.582 536.206L211.376 526.064L222.863 535.928Z" fill="white"/>
<path d="M1309.83 466.955L1286.89 483.591L1305.84 506.655L1328.77 490.019L1309.83 466.955Z" fill="white"/>
<path d="M1178.36 443.628L1167.56 453.77L1156.08 443.906L1166.87 433.764L1178.36 443.628Z" fill="white"/>
<path d="M153.24 359.971L130.301 376.607L149.246 399.671L172.183 383.035L153.24 359.971Z" fill="white"/>
<path d="M271.748 308.325L260.954 318.467L249.468 308.603L260.262 298.461L271.748 308.325Z" fill="white"/>
<path d="M1190.58 263.224L1179.78 273.366L1168.3 263.502L1179.09 253.36L1190.58 263.224Z" fill="white"/>
<path d="M1403.08 192.128L1361.44 223.047L1395.73 265.789L1437.36 234.87L1403.08 192.128Z" fill="white"/>
<path d="M345.077 177.217L334.282 187.359L322.796 177.495L333.591 167.353L345.077 177.217Z" fill="white"/>
<path d="M205.459 131.319L182.52 147.955L201.465 171.019L224.402 154.383L205.459 131.319Z" fill="white"/>
<path d="M1060.59 139.458L1049.79 149.6L1038.31 139.736L1049.1 129.594L1060.59 139.458Z" fill="white"/>
<path d="M1352.79 52.4027L1342 62.5445L1330.51 52.6804L1341.3 42.5387L1352.79 52.4027Z" fill="white"/>
<path d="M1089.76 40.0434L1048.12 70.9623L1082.41 113.704L1124.05 82.7853L1089.76 40.0434Z" fill="white"/>
<path d="M22.8755 31.4255L12.081 41.5672L0.595014 31.7032L11.389 21.5614L22.8755 31.4255Z" fill="white"/>
<path d="M558.769 1.25989L535.831 17.8962L554.775 40.9603L577.712 24.324L558.769 1.25989Z" fill="white"/>
</svg>
