<svg width="1624" height="470" viewBox="0 0 1624 470" fill="none" xmlns="http://www.w3.org/2000/svg">
<rect width="5.22555" height="5.1238" transform="matrix(0.813201 0.581982 -0.605185 0.796085 1347.55 55.1273)" fill="white" fill-opacity="0.27"/>
<rect width="5.22555" height="5.1238" transform="matrix(0.813201 0.581982 -0.605185 0.796085 1297.76 285.562)" fill="white" fill-opacity="0.27"/>
<rect width="5.22555" height="5.1238" transform="matrix(0.813201 0.581982 -0.605185 0.796085 1263.74 35.0614)" fill="white" fill-opacity="0.27"/>
<rect width="5.22555" height="5.1238" transform="matrix(-0.813201 -0.581982 0.605185 -0.796084 1276.22 453.939)" fill="white" fill-opacity="0.27"/>
<rect width="5.22555" height="5.1238" transform="matrix(0.813201 0.581982 -0.605185 0.796085 1216.78 70.0974)" fill="white" fill-opacity="0.27"/>
<rect width="5.22555" height="5.1238" transform="matrix(0.813201 0.581982 -0.605185 0.796085 1140.31 416.396)" fill="white" fill-opacity="0.27"/>
<rect width="5.22555" height="5.1238" transform="matrix(0.813201 0.581982 -0.605185 0.796085 1140.46 302.986)" fill="white" fill-opacity="0.27"/>
<rect width="5.22555" height="5.1238" transform="matrix(0.813201 0.581982 -0.605185 0.796085 253.034 58.5819)" fill="white" fill-opacity="0.27"/>
<rect width="5.22555" height="5.1238" transform="matrix(0.813201 0.581982 -0.605185 0.796085 133.866 193.865)" fill="white" fill-opacity="0.27"/>
<rect width="5.22555" height="5.1238" transform="matrix(0.813201 0.581982 -0.605185 0.796085 260.619 450.191)" fill="white" fill-opacity="0.27"/>
<rect width="5.22555" height="5.1238" transform="matrix(-0.813201 -0.581982 0.605185 -0.796084 135.077 395.22)" fill="white" fill-opacity="0.27"/>
<rect width="5.22555" height="5.1238" transform="matrix(-0.813201 -0.581982 0.605185 -0.796084 181.705 457.393)" fill="white" fill-opacity="0.27"/>
<rect width="5.22555" height="5.1238" transform="matrix(0.813201 0.581982 -0.605185 0.796085 3.10083 208.835)" fill="white" fill-opacity="0.27"/>
<rect width="5.22555" height="5.1238" transform="matrix(0.813201 0.581982 -0.605185 0.796085 38.4583 53.486)" fill="white" fill-opacity="0.27"/>
<rect width="5.22555" height="5.1238" transform="matrix(0.813201 0.581982 -0.605185 0.796085 45.9482 306.441)" fill="white" fill-opacity="0.27"/>
<rect width="5.22555" height="5.1238" transform="matrix(0.813201 0.581982 -0.605185 0.796085 517.654 9.06592)" fill="white" fill-opacity="0.27"/>
<rect width="5.22555" height="5.1238" transform="matrix(0.813201 0.581982 -0.605185 0.796085 463.863 86.7404)" fill="white" fill-opacity="0.27"/>
<rect width="5.22555" height="5.1238" transform="matrix(0.813201 0.581982 -0.605185 0.796085 467.866 239.5)" fill="white" fill-opacity="0.27"/>
<rect width="5.22555" height="5.1238" transform="matrix(0.813201 0.581982 -0.605185 0.796085 398.486 144.349)" fill="white" fill-opacity="0.27"/>
<rect width="5.22555" height="5.1238" transform="matrix(0.813201 0.581982 -0.605185 0.796085 525.238 400.675)" fill="white" fill-opacity="0.27"/>
<rect width="5.22555" height="5.1238" transform="matrix(-0.813201 -0.581982 0.605185 -0.796084 399.696 345.704)" fill="white" fill-opacity="0.27"/>
<rect width="5.22555" height="5.1238" transform="matrix(-0.813201 -0.581982 0.605185 -0.796084 446.323 407.877)" fill="white" fill-opacity="0.27"/>
<rect width="5.22555" height="5.1238" transform="matrix(0.813201 0.581982 -0.605185 0.796085 386.888 24.036)" fill="white" fill-opacity="0.27"/>
<rect width="5.22555" height="5.1238" transform="matrix(0.813201 0.581982 -0.605185 0.796085 310.416 370.334)" fill="white" fill-opacity="0.27"/>
<rect width="5.22555" height="5.1238" transform="matrix(0.813201 0.581982 -0.605185 0.796085 310.566 256.925)" fill="white" fill-opacity="0.27"/>
<rect width="5.22555" height="5.1238" transform="matrix(0.813201 0.581982 -0.605185 0.796085 801.835 101.189)" fill="white" fill-opacity="0.27"/>
<rect width="5.22555" height="5.1238" transform="matrix(0.813201 0.581982 -0.605185 0.796085 748.045 178.863)" fill="white" fill-opacity="0.27"/>
<rect width="5.22555" height="5.1238" transform="matrix(0.813201 0.581982 -0.605185 0.796085 752.047 331.623)" fill="white" fill-opacity="0.27"/>
<rect width="5.22555" height="5.1238" transform="matrix(0.813201 0.581982 -0.605185 0.796085 682.667 236.472)" fill="white" fill-opacity="0.27"/>
<rect width="5.22555" height="5.1238" transform="matrix(0.813201 0.581982 -0.605185 0.796085 725.363 447.487)" fill="white" fill-opacity="0.27"/>
<rect width="5.22555" height="5.1238" transform="matrix(0.813201 0.581982 -0.605185 0.796085 718.024 81.1228)" fill="white" fill-opacity="0.27"/>
<rect width="5.22555" height="5.1238" transform="matrix(0.813201 0.581982 -0.605185 0.796085 594.598 462.457)" fill="white" fill-opacity="0.27"/>
<rect width="5.22555" height="5.1238" transform="matrix(0.813201 0.581982 -0.605185 0.796085 587.259 96.0927)" fill="white" fill-opacity="0.27"/>
<rect width="5.22555" height="5.1238" transform="matrix(0.813201 0.581982 -0.605185 0.796085 594.749 349.048)" fill="white" fill-opacity="0.27"/>
<rect width="5.22555" height="5.1238" transform="matrix(0.813201 0.581982 -0.605185 0.796085 1086.02 20.5813)" fill="white" fill-opacity="0.27"/>
<rect width="5.22555" height="5.1238" transform="matrix(0.813201 0.581982 -0.605185 0.796085 1032.23 98.2557)" fill="white" fill-opacity="0.27"/>
<rect width="5.22555" height="5.1238" transform="matrix(0.813201 0.581982 -0.605185 0.796085 1036.23 251.016)" fill="white" fill-opacity="0.27"/>
<rect width="5.22555" height="5.1238" transform="matrix(0.813201 0.581982 -0.605185 0.796085 966.849 155.864)" fill="white" fill-opacity="0.27"/>
<rect width="5.22555" height="5.1238" transform="matrix(0.813201 0.581982 -0.605185 0.796085 1002.21 0.515381)" fill="white" fill-opacity="0.27"/>
<rect width="5.22555" height="5.1238" transform="matrix(-0.813201 -0.581982 0.605185 -0.796084 1014.69 419.393)" fill="white" fill-opacity="0.27"/>
<rect width="5.22555" height="5.1238" transform="matrix(0.813201 0.581982 -0.605185 0.796085 878.78 381.85)" fill="white" fill-opacity="0.27"/>
<rect width="5.22555" height="5.1238" transform="matrix(0.813201 0.581982 -0.605185 0.796085 871.441 15.4854)" fill="white" fill-opacity="0.27"/>
<rect width="5.22555" height="5.1238" transform="matrix(0.813201 0.581982 -0.605185 0.796085 878.931 268.44)" fill="white" fill-opacity="0.27"/>
<rect width="5.22555" height="5.1238" transform="matrix(0.813201 0.581982 -0.605185 0.796085 1612.17 32.0966)" fill="white" fill-opacity="0.27"/>
<rect width="5.22555" height="5.1238" transform="matrix(0.813201 0.581982 -0.605185 0.796085 1558.38 109.771)" fill="white" fill-opacity="0.27"/>
<rect width="5.22555" height="5.1238" transform="matrix(0.813201 0.581982 -0.605185 0.796085 1562.38 262.531)" fill="white" fill-opacity="0.27"/>
<rect width="5.22555" height="5.1238" transform="matrix(0.813201 0.581982 -0.605185 0.796085 1493 167.38)" fill="white" fill-opacity="0.27"/>
<rect width="5.22555" height="5.1238" transform="matrix(0.813201 0.581982 -0.605185 0.796085 1528.35 12.0308)" fill="white" fill-opacity="0.27"/>
<rect width="5.22555" height="5.1238" transform="matrix(0.813201 0.581982 -0.605185 0.796085 1619.75 423.705)" fill="white" fill-opacity="0.27"/>
<rect width="5.22555" height="5.1238" transform="matrix(-0.813201 -0.581982 0.605185 -0.796084 1494.21 368.735)" fill="white" fill-opacity="0.27"/>
<rect width="5.22555" height="5.1238" transform="matrix(-0.813201 -0.581982 0.605185 -0.796084 1540.83 430.908)" fill="white" fill-opacity="0.27"/>
<rect width="5.22555" height="5.1238" transform="matrix(0.813201 0.581982 -0.605185 0.796085 1362.23 182.35)" fill="white" fill-opacity="0.27"/>
<rect width="5.22555" height="5.1238" transform="matrix(0.813201 0.581982 -0.605185 0.796085 1404.93 393.365)" fill="white" fill-opacity="0.27"/>
<rect width="5.22555" height="5.1238" transform="matrix(0.813201 0.581982 -0.605185 0.796085 1397.59 27.0007)" fill="white" fill-opacity="0.27"/>
<rect width="5.22555" height="5.1238" transform="matrix(0.813201 0.581982 -0.605185 0.796085 1405.08 279.956)" fill="white" fill-opacity="0.27"/>
</svg>
