<svg width="783" height="754" viewBox="0 0 783 754" fill="none" xmlns="http://www.w3.org/2000/svg">
<path d="M388.414 754C189.363 754 28 585.211 28 376.999C28 168.789 189.363 0 388.414 0C587.465 0 748.828 168.789 748.828 376.999C748.828 585.211 587.465 754 388.414 754Z" fill="#3F7EB4"/>
<g filter="url(#filter0_d)">
<path d="M132.101 397.826C134 398.182 132.631 396.126 132.101 395.176C130.887 393.004 128.622 392.163 127.435 390.139C126.594 388.706 127.665 386.133 126.398 384.838C123.856 382.238 106.801 385.79 104.627 384.307C102.903 383.132 103.07 378.464 102.812 376.62C102.344 373.264 102.06 369.892 101.516 366.548C100.827 362.323 103.015 348.163 101.516 345.608C98.4795 340.433 83.618 348.97 82.5959 342.692C80.852 331.997 91.4076 329.451 91.4076 316.716C91.4076 313.419 86.2656 309.15 83.6317 312.74C80.0477 317.627 82.7925 331.56 70.1548 331.56C69.0281 331.56 66.4745 332.064 65.4895 331.56C59.2969 328.393 58.8699 307.116 59.7873 300.547C60.6751 294.192 65.2696 289.081 68.34 283.848C70.2721 280.555 68.7586 276.623 70.9316 273.511C72.7696 270.88 75.2555 269.046 77.6706 266.884C80.8308 264.057 83.9361 259.535 88.0381 258.137C89.6827 257.577 91.546 258.116 93.2223 257.871C97.2228 257.287 100.997 257.076 105.145 257.076C107.803 257.076 109.63 258.483 111.366 260.257C116.626 265.638 116.547 272.437 117.586 279.872C117.943 282.43 116.75 286.42 118.364 288.62C119.252 289.832 122.293 287.921 123.029 287.294C130.032 281.326 125.488 268.796 123.547 261.848C122.256 257.228 122.717 245.997 125.879 242.763C129.659 238.898 135.459 234.418 140.653 232.425C145.305 230.641 149.78 229.718 153.612 225.799C155.976 223.383 156.709 219.592 158.538 216.787C160.606 213.613 163.691 211.266 165.795 208.04C168.399 204.045 168.861 198.808 172.274 195.317C178.821 188.621 186.718 193.184 191.195 189.75C195.02 186.816 190.474 181.49 195.601 177.558C198.499 175.334 207.043 175.424 210.115 174.376C211.973 173.743 216.974 167.777 218.669 169.075C220.034 170.123 217.652 176.456 219.447 176.762C220.251 176.9 222.288 177.03 223.075 176.762C224.074 176.422 227.927 171.519 229.295 170.401C232.729 167.591 240.303 164.419 242.773 161.388C246.872 156.358 232.409 160.063 231.887 160.063C231.259 160.063 229.017 160.446 228.517 160.063C226.551 158.554 229.985 152.057 227.481 150.521C225.004 149.001 214.548 150.114 214.262 149.726C214.121 149.533 214.262 147.674 214.262 147.34C214.262 146.634 214.044 145.566 214.521 144.955C219.644 138.406 242.662 134.819 250.549 133.026C254.53 132.121 259.389 132.831 262.989 130.376C263.675 129.909 264.116 128.818 264.804 128.255C266.512 126.857 269.572 126.036 269.987 123.484C270.54 120.096 262.369 109.498 261.693 104.665C261.34 102.136 260.796 95.8265 261.693 93.5314C262.365 91.8136 265.572 88.834 264.286 86.6405C261.576 82.0215 245.012 93.5004 242.773 92.7365C240.797 92.0631 250.457 81.3603 248.734 78.4237C247.324 76.0204 237.2 75.9939 234.738 76.833C229.555 78.5993 220.223 90.8797 219.187 96.183C218.825 98.0344 220.195 102.323 219.187 103.87C216.584 107.862 211.272 109.762 207.782 112.616C204.803 115.054 202.371 117.621 199.747 120.303C198.576 121.502 188.249 134.473 186.27 131.436C183.415 127.056 191.535 116.086 189.899 110.231C188.882 106.592 183.266 109.014 181.864 107.58C181.304 107.008 181.206 104.868 181.086 104.135C180.764 102.158 180.429 97.3356 181.605 95.652C186.963 87.9818 202.642 79.616 210.634 74.7123C211.473 74.1967 211.142 73.1281 211.93 72.5916C213.081 71.8067 214.517 71.0041 215.817 70.2059C218.506 68.5566 222.155 68.5147 225.148 67.2904C235.427 63.0854 232.077 58.2788 246.66 58.2788C253.85 58.2788 265.66 51.378 271.543 47.9403C271.777 47.8034 278.526 43.5444 278.282 43.1701C278.005 42.7451 272.742 43.0973 272.32 43.1701C262.464 44.8492 253.308 51.6915 244.328 55.6282C243.66 55.9208 239.438 57.622 238.626 57.4829C236.724 57.1594 242.803 52.5316 240.699 51.9167C239.848 51.6683 237.541 52.4764 236.812 51.9167C234.157 49.881 234.654 49.4163 231.145 50.0135C228.465 50.4705 220.359 54.1688 217.793 55.9186C214.741 57.9995 208.24 61.6326 205.163 63.5204C199.956 66.7163 196.074 71.8232 190.676 74.9772C184.65 78.4988 179.042 83.5693 173.31 87.9652C162.496 96.2614 152.37 105.123 142.093 114.133C131.749 123.2 115.309 140.394 107.662 152.124C102.998 159.279 94.9853 167.962 90.691 175.282C87.0371 181.51 82.2767 189.139 78.3471 195.167C76.7321 197.644 74.7429 203.947 73.2125 206.45C68.7882 213.69 68.6603 217.192 64.9705 224.738C62.7541 229.272 60.8474 235.927 57.9726 239.847C54.9106 244.023 50.5624 251.79 49.5721 256.851C49.0224 259.662 48.6874 260.303 50.1967 261.848C51.6098 263.292 51.3477 269.22 50.9746 271.125C49.8162 277.047 45.8886 281.494 44.7545 287.294C43.5919 293.238 45.9943 299.036 45.0135 305.053C44.4068 308.773 41.2741 313.14 42.4219 317.246C43.6511 321.649 47.6622 325.314 49.6788 329.44C51.4936 333.151 51.7895 337.897 53.8262 341.367C56.4199 345.788 62.2183 348.923 66.2663 352.235C68.766 354.28 70.1061 358.173 73.0053 359.657C75.3158 360.838 85.4338 363.971 86.4833 365.223C87.9028 366.917 87.8499 370.138 88.816 372.115C93.2192 381.121 95.5719 388.295 104.108 394.115C105.489 395.056 112.565 394.943 114.216 394.38C116.141 393.724 116.575 391.327 118.881 390.934C119.585 390.814 124.115 390.455 124.584 390.934C125.463 391.833 126.246 393.734 127.435 394.645C128.96 395.815 131.441 396.622 132.877 398.091" fill="#8DAA5C"/>
</g>
<g filter="url(#filter1_d)">
<path d="M128.109 396.718C125.352 398.365 122.717 400.013 120.939 402.741C120.275 403.761 120.953 405.04 120.684 406.145C119.809 409.718 116.796 412.547 116.33 416.357C116.163 417.729 116.345 420.131 115.563 421.333C113.876 423.92 111.853 425.637 111.209 428.927C109.72 436.544 110.953 445.507 110.953 453.28C110.953 459.114 108.477 460.882 107.881 466.373C107.324 471.499 107.993 476.711 107.368 481.823C106.724 487.101 103.16 491.839 104.552 497.534C105.053 499.581 109.22 503.679 110.441 506.176C114.744 514.974 119.752 522.317 125.804 529.743C128.865 533.499 130.213 540.342 134.255 543.097C136.386 544.551 139.319 544.86 141.68 546.24C146.2 548.882 150.142 553.575 155.251 554.619C158.818 555.349 163.408 555.368 166.261 558.286C168.529 560.605 175.667 568.443 177.015 570.855C177.899 572.435 178.137 574.398 178.552 576.092C179.018 577.999 182.675 584.178 183.928 585.781C185.996 588.424 188.799 590.501 190.842 593.113C194.321 597.56 193.268 602.998 194.683 608.3C196.591 615.458 199.666 621.998 201.084 629.25C202.159 634.75 210.131 648.772 213.119 653.865C214.022 655.404 222.782 663.746 224.64 665.648C227.004 668.064 226.071 672.583 228.225 675.337C230.486 678.227 232.734 678.847 235.651 680.835C241.057 684.52 244.616 689.442 248.71 691.834C256.626 696.461 264.989 699.885 272.778 704.665C274.144 705.502 275.166 707.369 276.108 708.332C280.343 712.662 285.821 714.347 291.214 716.711C292.402 717.232 302.896 721.172 303.25 720.9C306.779 718.192 291.366 715.112 290.446 714.878C290.134 714.797 276.228 701.371 272.778 699.167C263.625 693.316 264.987 687.303 262.025 678.217C260.717 674.205 255.86 665.163 257.927 660.934C260.267 656.15 268.288 658.336 268.938 657.007C269.581 655.692 269.514 648.954 268.938 647.58C268.42 646.341 264.682 644.843 265.353 643.128C266.219 640.914 273.272 639.539 274.571 634.224C275.311 631.198 274.819 627.97 275.852 624.274C277.231 619.334 281.353 614.599 282.508 609.872C283.329 606.518 281.299 600.83 283.533 598.089C287.177 593.617 295.483 588.069 300.433 585.257C303.438 583.55 307.364 583.046 310.163 581.33C311.097 580.756 310.419 575.078 310.419 573.997C310.419 566.676 312.434 566.013 314.003 559.595C315.864 551.985 311.943 543.645 315.54 536.289C322.195 522.675 336.879 517.362 334.744 499.891C334.558 498.371 333.276 497.628 332.439 496.486C331.684 495.457 331.542 493.735 330.648 492.82C326.467 488.547 319.659 492.963 315.795 490.988C312.503 489.304 310.318 484.727 307.602 482.346C304.324 479.472 294.935 475.671 290.703 474.228C284.162 471.998 271.142 477.53 266.378 472.658C262.84 469.04 258.701 466.181 254.855 463.231C251.84 460.918 247.92 461.638 245.125 458.779C240.236 453.78 247.376 441.736 239.748 438.616C234.793 436.589 226.158 434.063 220.8 433.379C216.578 432.839 209.497 435.078 205.693 432.855C202.374 430.915 200.474 425.16 197.755 422.38C191.965 416.459 184.345 412.488 177.783 407.455C176.866 406.75 175.835 406.07 174.967 405.359C174.064 404.621 174.138 402.267 172.918 401.955C171.643 401.629 162.795 404.05 158.836 404.05C146.781 404.05 138.627 397.813 127.597 395.933C125.303 395.542 124.78 396.74 124.78 398.813" fill="#8DAA5C"/>
</g>
<g filter="url(#filter2_d)">
<path d="M138.321 322.38C131.734 322.72 133.494 316.422 130.332 313.187C123.856 306.566 113.338 315.259 107.506 310.999C101.758 306.801 115.851 300.083 118.348 299.62C122.705 298.809 127.063 305.149 130.759 306.914C135.654 309.249 141.913 309.049 146.167 312.312C146.889 312.866 148.884 315.664 147.594 316.543C145.215 318.165 141.531 318.349 138.178 320.92" fill="#8DAA5C"/>
</g>
<g filter="url(#filter3_d)">
<path d="M157.01 321.941C155.432 322.079 153.624 321.547 152.159 322.38C150.572 323.281 150.395 324.913 149.164 326.173C147.723 327.646 137.913 335.234 140.746 337.407C145.378 340.959 164.254 336.273 168.138 332.3C169.87 330.529 171.617 326.55 169.137 324.859C167.018 323.415 159.161 323.512 155.869 322.671" fill="#8DAA5C"/>
</g>
<g filter="url(#filter4_d)">
<path d="M268.206 138.354C266.824 139.173 265.415 139.949 264.057 140.811C255.212 146.425 268.393 144.22 269.517 149.969C270.791 156.483 263.927 159.199 261.218 163.817C260.197 165.558 266.855 166.05 267.551 166.05C276.371 166.05 273.997 162.713 280.437 160.243C281.303 159.911 286.902 159.593 287.207 159.126C287.401 158.829 287.207 156.921 287.207 156.669C287.207 149.916 281.895 148.716 277.16 145.948C274.977 144.672 273.272 142.008 270.827 141.257C269.058 140.715 266.986 141.034 265.149 141.034" fill="#8DAA5C"/>
</g>
<g filter="url(#filter5_d)">
<path d="M262.682 59.5318C259.791 60.3852 255.605 58.4577 252.77 59.9072C250.522 61.0564 260.018 75.9101 263.416 74.1724C266.205 72.7461 268.322 69.5756 271.308 68.3535C273.523 67.4472 277.038 69.676 278.833 67.2275C281.446 63.6639 279.932 57.5226 283.422 54.4636C286.545 51.7269 289.142 55.9793 293.15 50.7101C294.566 48.8478 302.757 34.4445 301.042 32.6903C296.579 28.1266 284.703 29.9017 279.935 32.5026C279.652 32.6561 276.448 33.9521 276.448 34.3794C276.448 34.6984 277.069 34.4666 277.365 34.567C280.175 35.5253 285.169 38.8106 285.624 42.075C286.053 45.1484 284.498 46.9059 282.688 49.02C275.732 57.1506 268.7 54.8654 261.581 59.7195" fill="#8DAA5C"/>
</g>
<g filter="url(#filter6_d)">
<path d="M247.582 43.881C242.079 43.0751 240.1 42.0761 252.211 41.4236C256.38 41.1995 260.039 39.4255 263.665 37.5708C264.764 37.0089 266.165 37.7618 267.282 37.1083C268.248 36.5431 268.416 35.1366 269.543 34.642C272.227 33.4663 275.12 32.7477 277.833 31.5598C278.287 31.36 283.71 29.141 283.71 29.0936C283.71 28.8043 276.538 31.1348 275.134 30.9957C270.829 30.5696 248.938 41.7493 247.322 43.8159" fill="#8DAA5C"/>
</g>
<g filter="url(#filter7_d)">
<path d="M375.987 17.3828C373.588 17.3707 375.045 16.3473 374.326 15.6121C373.7 14.9718 369.41 15.0999 368.451 15.0999C364.585 15.0999 359.894 14.6594 356.243 15.7258C354.374 16.2723 352.954 18.1611 351.235 19.041C343.357 23.0682 337.751 22.7149 328.986 29.4369C327.307 30.7263 330.425 33.2974 328.397 35.1631C320.971 41.9977 316.464 39.792 316.464 51.888C316.464 54.277 315.984 57.0302 317.347 59.1211C321.709 65.8133 331.195 72.2305 337.974 65.2988C340.849 62.3579 340.545 57.8935 342.983 54.9018C345.501 51.8129 348.631 52.7414 350.498 50.8337C352.096 49.1988 351.946 45.8913 353.445 44.0533C355.696 41.2901 363.827 38.0345 364.494 36.67C365.047 35.5407 365.279 34.312 365.82 33.2047C366.644 31.5201 366.371 30.0032 368.177 28.684C370.618 26.9011 373.643 26.4629 375.987 24.4647C377.337 23.3144 378.791 17.8377 376.576 16.9313C375.873 16.6432 374.396 16.9313 373.629 16.9313" fill="#8DAA5C"/>
</g>
<g filter="url(#filter8_d)">
<path d="M383.206 36.8202C381.171 36.7782 379.173 37.1138 377.165 36.8202C374.994 36.5034 375.544 41.8597 375.544 43.4505C375.544 49.8314 392.525 46.9953 391.899 40.588C391.493 36.4448 384.232 40.5747 382.764 36.8202" fill="#8DAA5C"/>
</g>
<g filter="url(#filter9_d)">
<path d="M701.65 218.918C700.899 217.275 699.562 215.982 698.862 214.312C697.775 211.719 698.094 208.658 696.717 206.198C691.525 196.903 686.318 183.608 680.204 175.272C675.995 169.533 671.592 162.078 666.693 157.068C662.723 153.008 652.491 143.506 649.75 139.302C643.696 130.016 634.672 120.727 627.446 112.106C622.804 106.567 609.901 95.1387 603.686 91.3257C599.271 88.6166 594.942 86.391 590.987 83.1553C585.678 78.8113 580.405 75.5601 575.17 71.0979C566.684 63.8659 556.491 62.8072 547.002 55.5289C545.321 54.2395 541.052 52.4643 539.542 51.2279C537.318 49.4097 534.226 48.3499 531.674 46.8585C526.366 43.7563 521.712 41.2195 516.097 38.7587C511.899 36.9196 505.829 36.0872 501.756 34.3021C498.238 32.7599 494.285 30.6745 490.507 29.8443C487.858 29.2614 487.282 30.2119 481.869 27.9831C475.923 25.5345 466.607 23.6655 460.35 22.5991C458.174 22.2282 454.893 21.2224 452.755 20.7853C451.842 20.5987 447.774 19.784 448.608 20.2101C452.379 22.1387 457.645 21.7325 461.237 23.9371C464.26 25.7917 468.38 25.0719 471.317 26.7886C473.862 28.2756 476.296 30.053 479.038 31.1746C479.646 31.423 486.909 36.2859 486.33 36.8776C484.586 38.6605 479.903 34.0283 477.966 33.3681C474.062 32.0368 471.033 29.4944 467.457 27.6651C460.192 23.9503 452.681 23.2791 444.723 23.2791C443.676 23.2791 438.693 22.6477 438.075 23.2791C436.79 24.5939 436.736 32.9045 437.432 34.6841C438.004 36.149 439.713 36.2075 440.434 37.3159C442.017 39.7424 443.217 43.0079 444.51 45.6507C447.809 52.3992 445.792 58.9787 454.589 62.9773C463.07 66.8312 464.704 62.5379 472.604 62.5379C477.379 62.5379 478.938 71.6753 483.112 73.5046C484.361 74.0521 487.328 74.4264 488.474 73.7243C489.688 72.9802 492.256 63.5226 491.262 62.0996C489.883 60.1258 482.499 55.2728 480.324 53.3265C475.608 49.1061 470.96 44.8051 466.17 40.6057C465.509 40.0261 461.676 36.8412 461.881 36C462.311 34.2403 467.963 39.6419 468.529 40.6057C471.564 45.7788 482.187 53.4248 488.045 54.4238C496.076 55.7916 498.775 54.4238 506.06 54.4238C506.74 54.4238 501.342 53.7383 501.342 55.3004C501.342 59.6367 508.187 56.9276 509.277 64.7314C509.297 64.875 509.741 65.8442 509.491 66.0474C508.523 66.84 506.738 65.6588 505.846 66.267C504.679 67.0619 504.331 73.488 505.202 74.6019C510.602 81.5038 505.192 79.3224 501.985 80.9618C498.474 82.7579 497.409 85.7264 493.192 86.4451C489.593 87.0589 476.513 78.872 473.891 85.1292C471.209 91.5266 473.046 99.2642 467.242 104.21C465.138 106.004 463.238 105.21 461.023 105.965C459.814 106.377 448.047 111.96 447.941 112.106C446.506 114.063 449.642 116.924 450.943 117.589C454.906 119.616 462.288 121.455 465.098 125.046C466.306 126.591 465.955 128.942 465.955 130.749C465.955 131.609 466.28 133.486 465.955 134.258C463.52 140.07 447.315 135.567 442.793 137.548C438.225 139.55 434.618 143.171 436.36 148.514C437.167 150.991 436.276 153.607 437.432 155.971C439.043 159.266 442.38 161.063 443.652 164.964C444.771 168.397 445.776 172.221 448.584 174.615C456.95 181.744 460.154 176.594 465.742 173.737C470.254 171.43 475.094 173.293 478.18 168.034C480.891 163.414 479.819 155.906 480.968 154.436C482.993 151.848 486.783 151.56 489.118 149.172C490.932 147.318 491.506 144.574 493.836 143.25C497.29 141.288 501.884 141.207 506.06 138.644C508.657 137.051 509.42 133.161 512.923 133.161C519.593 133.161 524.896 140.754 530.295 143.908C536.476 147.52 543.009 150.845 548.738 155.533C549.689 156.31 554.166 159.352 555.386 158.603C556.328 158.025 556.008 152.188 555.601 151.147C554.575 148.521 549.984 148.428 547.88 147.198C543.923 144.886 541.003 141.111 537.158 138.864C535.362 137.814 533.252 137.217 531.581 135.793C530.614 134.969 527.26 130.481 529.651 129.433C532.519 128.176 534.216 132.015 536.085 133.381C542.806 138.29 551.161 139.149 557.102 145.224C557.948 146.089 558.058 147.324 558.818 148.295C560.914 150.974 566.101 148.724 568.255 150.927C568.716 151.399 568.681 152.951 569.112 153.559C571.612 157.075 575.067 159.687 577.262 163.428C577.678 164.138 577.929 166.024 578.548 166.499C578.897 166.765 579.406 166.792 579.835 166.718C580.81 166.552 580.373 165.617 580.694 164.964C580.873 164.595 582.464 162.834 582.409 162.552C582.339 162.195 572.646 151.1 578.335 150.269C585.72 149.189 589.33 161.859 594.204 165.183C598.307 167.981 615.841 171.186 620.583 169.569C621.593 169.225 622.21 167.57 623.157 167.376C625.796 166.836 627.818 175.28 629.161 177.685C630.466 180.018 636.375 186.857 634.094 189.967C632.428 192.238 625.999 190.35 623.586 190.625C615.056 191.594 619.04 194.347 607.501 192.379C601.312 191.325 595.463 184.107 588.843 185.8C583.146 187.256 585.695 190.486 584.554 194.573C583.941 196.765 581.937 203.997 578.977 203.565C577.657 203.372 569.472 196.792 567.825 195.669C566.784 194.959 563.848 195.889 562.678 195.889C561.105 195.889 560.016 193.327 558.604 193.037C553.319 191.956 546.562 190.154 542.519 186.019C538.677 182.09 539.16 171.044 533.082 170.008C525.773 168.762 519.401 173.263 512.494 174.833C506.301 176.241 499.446 173.986 493.192 175.053C492.271 175.21 491.759 175.795 490.833 175.93C489.48 176.128 487.114 175.31 485.901 175.93C484.815 176.485 484.087 177.692 482.683 178.123C482.013 178.329 479.985 178.244 479.467 178.562C478.595 179.097 477.245 181.671 473.891 183.388C470.059 185.346 463.353 181.428 459.522 183.388C458.75 183.782 456.879 192.815 455.447 193.915C453.204 195.635 448.743 194.876 447.083 197.424C444.143 201.934 447.439 217.342 445.796 219.357C444.17 221.354 440.475 221.967 438.29 223.085C431.328 226.645 420.126 236.329 416.844 243.044C414.601 247.632 415.821 253.833 414.485 258.615C413.317 262.797 409.884 266.352 410.625 270.898C411.121 273.947 413.319 276.687 413.841 279.891C415.239 288.465 412.543 297.513 415.557 305.99C418.127 313.218 425.534 317.323 429.926 323.098C430.924 324.411 431.194 326.139 432.071 327.484C441.691 342.243 459.624 364.826 479.467 362.795C482.293 362.506 496.86 347.889 505.202 350.733C506.509 351.179 507.481 352.526 508.849 352.926C516.896 355.278 531.79 349.478 543.377 351.172C546.47 351.623 551.956 352.269 554.529 354.242C555.419 354.925 556.068 356.256 556.888 357.094C557.893 358.122 559.362 358.567 560.534 359.287C561.861 360.102 562.718 361.61 564.18 362.357C567.42 364.014 573.663 364.409 577.262 363.673C581.226 362.863 587.488 358.52 591.845 357.094C596.857 355.453 602.028 354.025 606.858 351.83C614.745 348.244 621.994 342.495 628.733 337.135C633.83 333.08 639.977 330.304 645.032 326.168C651.782 320.647 658.305 314.899 664.977 309.28C673.2 302.355 679.347 294.34 679.347 283.181C679.347 281.726 680.348 277.941 679.56 276.601C678.923 275.512 674.989 269.293 674.199 268.486C672.587 266.837 670.467 266.03 669.267 263.88C668.136 261.855 668.986 259.172 667.765 257.299C666.746 255.736 664.89 254.811 663.905 253.133C661.385 248.838 659.941 243.491 657.686 238.877C653.43 230.172 645.544 223.339 642.459 213.873C641.284 210.27 639.659 205.308 637.097 202.688C636.35 201.923 634.094 198.916 634.094 197.863C634.094 197.1 633.597 194.921 633.451 195.669C632.265 201.736 639.05 205.727 642.888 209.048C647.645 213.166 662.318 230.84 664.763 236.463C666.062 239.453 663.616 243.953 665.191 246.772C665.427 247.194 685.994 272.434 686.637 273.092C688.451 274.946 690.783 277.036 692.214 279.233C693.999 281.971 698.199 293.008 702.937 289.98C704.244 289.144 704.744 288.258 705.726 287.128C712.528 279.301 717.748 277.79 716.019 265.415C715.518 261.828 712.958 257.972 711.945 254.449C710.695 250.105 709.967 244.369 707.226 240.631C702.212 233.794 693.124 231.169 687.925 224.401C686.179 222.129 685.47 219.06 684.065 216.505C682.77 214.151 680.854 212.129 679.347 209.926C679.075 209.529 677.593 206.316 678.274 205.758C680.103 204.262 682.776 208.828 683.421 209.487C686.295 212.426 689.633 215.397 691.785 218.699C692.955 220.493 695.551 219.838 696.717 221.33C697.639 222.508 703.451 225.981 703.795 223.524C704.186 220.724 701.65 221.098 701.65 219.137" fill="#8DAA5C"/>
</g>
<g filter="url(#filter10_d)">
<path d="M681.766 277.611C683.98 278.516 684.779 281.359 686.278 283.198C696.301 295.497 690.729 295.7 694.591 303.6C697.433 309.413 704.361 309.221 708.128 313.072C709.153 314.121 707.777 316.485 708.366 317.688C708.868 318.713 709.927 319.388 710.266 320.602C712.557 328.806 715.023 343.134 713.828 351.692C712.47 361.419 707.043 365.463 704.803 372.337C702.02 380.876 697.703 389.108 694.591 397.596C693.846 399.629 692.281 401.498 691.978 403.669C689.539 421.135 693.318 439.295 691.028 456.861C689.921 465.352 686.423 478.239 680.816 484.792C676.8 489.486 671.046 492.45 667.515 497.665C659.696 509.216 650.347 537.214 639.016 546.485C637.373 547.83 635.186 548.455 633.553 549.886C622.424 559.641 613.991 569.253 599.354 573.932C596.236 574.928 590.22 577.288 586.766 575.875C586.034 575.576 584.454 575.105 583.916 574.418C581.247 571.006 582.728 562.81 582.728 559.116C582.728 548.305 583.516 539.135 586.053 528.755C587.144 524.293 586.688 509.771 583.678 505.924C582.165 503.989 579.494 502.383 578.216 500.094C576.432 496.901 575.129 491.116 575.129 487.464C575.129 482.514 574.749 477.487 575.841 472.649C578.972 458.775 588.303 450.854 586.529 434.515C586.344 432.821 576.165 419.415 573.941 411.684C571.127 401.901 571.218 392.456 570.141 382.537C569.711 378.581 567.721 363.882 570.616 360.921C572.254 359.245 578.366 361.247 580.591 360.678C582.289 360.244 583.855 358.965 585.103 358.006C589.524 354.615 596.018 352.762 601.253 351.692C611.136 349.669 625.74 333.224 632.128 326.188C640.26 317.232 650.558 310.498 658.966 301.9C661.848 298.952 665.7 296.387 668.229 293.156C668.996 292.174 668.971 290.211 669.653 289.513C671.669 287.452 673.521 285.314 675.59 283.198C676.484 282.283 681.507 271.76 682.953 273.239C684.243 274.56 682.036 276.019 681.766 277.125" fill="#8DAA5C"/>
</g>
<g filter="url(#filter11_d)">
<path d="M445.272 100.079C443.829 100.82 438.975 106.158 442.781 106.158C447.32 106.158 448.098 100.532 452.01 99.7323C455.867 98.9429 462.451 98.8436 461.521 93.1317C461.442 92.6471 459.75 92.0311 459.312 91.6833C457.018 89.8596 456.77 86.625 454.444 84.6777C452.279 82.8672 448.671 83.0582 446.687 81.0302C444.629 78.925 441.192 76.525 439.554 74.4297C438.463 73.0354 437.794 71.056 436.044 69.6241C434.455 68.3248 431.842 69.0942 430.155 67.7132C428.921 66.7031 430.886 64.8043 429.816 64.0083C428.688 63.1693 425.782 62.7542 424.891 64.0083C423.388 66.1202 424.081 69.7125 425.287 71.7669C428.888 77.9038 434.438 77.4622 437.629 81.3779C438.342 82.2534 437.332 84.5474 437.629 84.8521C437.918 85.1468 438.523 84.6291 438.874 85.1413C440.38 87.3415 438.207 90.9426 440.403 93.1891C443.111 95.9589 451.201 95.1553 443.8 100.832" fill="#8DAA5C"/>
</g>
<g filter="url(#filter12_d)">
<path d="M431.174 87.6892C429.185 86.806 430.747 80.9429 428.57 80.625C425.186 80.1304 417.379 83.2833 418.097 87.6892C418.245 88.5977 420.214 89.3915 420.531 90.5263C421.238 93.0566 420.275 95.1718 423.419 96.7791C427.777 99.008 432.647 94.9984 432.647 90.4104C432.647 90.0759 434.485 89.9512 434.119 89.4831C433.891 89.1928 432.774 90.0561 433.1 89.8894C433.227 89.8242 431.541 88.6717 431.458 88.6154" fill="#8DAA5C"/>
</g>
<path d="M391.414 754C192.363 754 31 585.211 31 376.999C31 168.789 192.363 0 391.414 0C590.465 0 751.828 168.789 751.828 376.999C751.828 585.211 590.465 754 391.414 754Z" fill="#3F7EB4"/>
<g filter="url(#filter13_d)">
<path d="M135.101 397.826C137 398.182 135.631 396.126 135.101 395.176C133.887 393.004 131.622 392.163 130.435 390.139C129.594 388.706 130.665 386.133 129.398 384.838C126.856 382.238 109.801 385.79 107.627 384.307C105.903 383.132 106.07 378.464 105.812 376.62C105.344 373.264 105.06 369.892 104.516 366.548C103.827 362.323 106.015 348.163 104.516 345.608C101.48 340.433 86.618 348.97 85.5959 342.692C83.852 331.997 94.4076 329.451 94.4076 316.716C94.4076 313.419 89.2656 309.15 86.6317 312.74C83.0477 317.627 85.7925 331.56 73.1548 331.56C72.0281 331.56 69.4745 332.064 68.4895 331.56C62.2969 328.393 61.8699 307.116 62.7873 300.547C63.6751 294.192 68.2696 289.081 71.34 283.848C73.2721 280.555 71.7586 276.623 73.9316 273.511C75.7696 270.88 78.2555 269.046 80.6706 266.884C83.8308 264.057 86.9361 259.535 91.0381 258.137C92.6827 257.577 94.546 258.116 96.2223 257.871C100.223 257.287 103.997 257.076 108.145 257.076C110.803 257.076 112.63 258.483 114.366 260.257C119.626 265.638 119.547 272.437 120.586 279.872C120.943 282.43 119.75 286.42 121.364 288.62C122.252 289.832 125.293 287.921 126.029 287.294C133.032 281.326 128.488 268.796 126.547 261.848C125.256 257.228 125.717 245.997 128.879 242.763C132.659 238.898 138.459 234.418 143.653 232.425C148.305 230.641 152.78 229.718 156.612 225.799C158.976 223.383 159.709 219.592 161.538 216.787C163.606 213.613 166.691 211.266 168.795 208.04C171.399 204.045 171.861 198.808 175.274 195.317C181.821 188.621 189.718 193.184 194.195 189.75C198.02 186.816 193.474 181.49 198.601 177.558C201.499 175.334 210.043 175.424 213.115 174.376C214.973 173.743 219.974 167.777 221.669 169.075C223.034 170.123 220.652 176.456 222.447 176.762C223.251 176.9 225.288 177.03 226.075 176.762C227.074 176.422 230.927 171.519 232.295 170.401C235.729 167.591 243.303 164.419 245.773 161.388C249.872 156.358 235.409 160.063 234.887 160.063C234.259 160.063 232.017 160.446 231.517 160.063C229.551 158.554 232.985 152.057 230.481 150.521C228.004 149.001 217.548 150.114 217.262 149.726C217.121 149.533 217.262 147.674 217.262 147.34C217.262 146.634 217.044 145.566 217.521 144.955C222.644 138.406 245.662 134.819 253.549 133.026C257.53 132.121 262.389 132.831 265.989 130.376C266.675 129.909 267.116 128.818 267.804 128.255C269.512 126.857 272.572 126.036 272.987 123.484C273.54 120.096 265.369 109.498 264.693 104.665C264.34 102.136 263.796 95.8265 264.693 93.5314C265.365 91.8136 268.572 88.834 267.286 86.6405C264.576 82.0215 248.012 93.5004 245.773 92.7365C243.797 92.0631 253.457 81.3603 251.734 78.4237C250.324 76.0204 240.2 75.9939 237.738 76.833C232.555 78.5993 223.223 90.8797 222.187 96.183C221.825 98.0344 223.195 102.323 222.187 103.87C219.584 107.862 214.272 109.762 210.782 112.616C207.803 115.054 205.371 117.621 202.747 120.303C201.576 121.502 191.249 134.473 189.27 131.436C186.415 127.056 194.535 116.086 192.899 110.231C191.882 106.592 186.266 109.014 184.864 107.58C184.304 107.008 184.206 104.868 184.086 104.135C183.764 102.158 183.429 97.3356 184.605 95.652C189.963 87.9818 205.642 79.616 213.634 74.7123C214.473 74.1967 214.142 73.1281 214.93 72.5916C216.081 71.8067 217.517 71.0041 218.817 70.2059C221.506 68.5566 225.155 68.5147 228.148 67.2904C238.427 63.0854 235.077 58.2788 249.66 58.2788C256.85 58.2788 268.66 51.378 274.543 47.9403C274.777 47.8034 281.526 43.5444 281.282 43.1701C281.005 42.7451 275.742 43.0973 275.32 43.1701C265.464 44.8492 256.308 51.6915 247.328 55.6282C246.66 55.9208 242.438 57.622 241.626 57.4829C239.724 57.1594 245.803 52.5316 243.699 51.9167C242.848 51.6683 240.541 52.4764 239.812 51.9167C237.157 49.881 237.654 49.4163 234.145 50.0135C231.465 50.4705 223.359 54.1688 220.793 55.9186C217.741 57.9995 211.24 61.6326 208.163 63.5204C202.956 66.7163 199.074 71.8232 193.676 74.9772C187.65 78.4988 182.042 83.5693 176.31 87.9652C165.496 96.2614 155.37 105.123 145.093 114.133C134.749 123.2 118.309 140.394 110.662 152.124C105.998 159.279 97.9853 167.962 93.691 175.282C90.0371 181.51 85.2767 189.139 81.3471 195.167C79.7321 197.644 77.7429 203.947 76.2125 206.45C71.7882 213.69 71.6603 217.192 67.9705 224.738C65.7541 229.272 63.8474 235.927 60.9726 239.847C57.9106 244.023 53.5624 251.79 52.5721 256.851C52.0224 259.662 51.6874 260.303 53.1967 261.848C54.6098 263.292 54.3477 269.22 53.9746 271.125C52.8162 277.047 48.8886 281.494 47.7545 287.294C46.5919 293.238 48.9943 299.036 48.0135 305.053C47.4068 308.773 44.2741 313.14 45.4219 317.246C46.6511 321.649 50.6622 325.314 52.6788 329.44C54.4936 333.151 54.7895 337.897 56.8262 341.367C59.4199 345.788 65.2183 348.923 69.2663 352.235C71.766 354.28 73.1061 358.173 76.0053 359.657C78.3158 360.838 88.4338 363.971 89.4833 365.223C90.9028 366.917 90.8499 370.138 91.816 372.115C96.2192 381.121 98.5719 388.295 107.108 394.115C108.489 395.056 115.565 394.943 117.216 394.38C119.141 393.724 119.575 391.327 121.881 390.934C122.585 390.814 127.115 390.455 127.584 390.934C128.463 391.833 129.246 393.734 130.435 394.645C131.96 395.815 134.441 396.622 135.877 398.091" fill="#8DAA5C"/>
</g>
<g filter="url(#filter14_d)">
<path d="M131.109 396.718C128.352 398.365 125.717 400.013 123.939 402.741C123.275 403.761 123.953 405.04 123.684 406.145C122.809 409.718 119.796 412.547 119.33 416.357C119.163 417.729 119.345 420.131 118.563 421.333C116.876 423.92 114.853 425.637 114.209 428.927C112.72 436.544 113.953 445.507 113.953 453.28C113.953 459.114 111.477 460.882 110.881 466.373C110.324 471.499 110.993 476.711 110.368 481.823C109.724 487.101 106.16 491.839 107.552 497.534C108.053 499.581 112.22 503.679 113.441 506.176C117.744 514.974 122.752 522.317 128.804 529.743C131.865 533.499 133.213 540.342 137.255 543.097C139.386 544.551 142.319 544.86 144.68 546.24C149.2 548.882 153.142 553.575 158.251 554.619C161.818 555.349 166.408 555.368 169.261 558.286C171.529 560.605 178.667 568.443 180.015 570.855C180.899 572.435 181.137 574.398 181.552 576.092C182.018 577.999 185.675 584.178 186.928 585.781C188.996 588.424 191.799 590.501 193.842 593.113C197.321 597.56 196.268 602.998 197.683 608.3C199.591 615.458 202.666 621.998 204.084 629.25C205.159 634.75 213.131 648.772 216.119 653.865C217.022 655.404 225.782 663.746 227.64 665.648C230.004 668.064 229.071 672.583 231.225 675.337C233.486 678.227 235.734 678.847 238.651 680.835C244.057 684.52 247.616 689.442 251.71 691.834C259.626 696.461 267.989 699.885 275.778 704.665C277.144 705.502 278.166 707.369 279.108 708.332C283.343 712.662 288.821 714.347 294.214 716.711C295.402 717.232 305.896 721.172 306.25 720.9C309.779 718.192 294.366 715.112 293.446 714.878C293.134 714.797 279.228 701.371 275.778 699.167C266.625 693.316 267.987 687.303 265.025 678.217C263.717 674.205 258.86 665.163 260.927 660.934C263.267 656.15 271.288 658.336 271.938 657.007C272.581 655.692 272.514 648.954 271.938 647.58C271.42 646.341 267.682 644.843 268.353 643.128C269.219 640.914 276.272 639.539 277.571 634.224C278.311 631.198 277.819 627.97 278.852 624.274C280.231 619.334 284.353 614.599 285.508 609.872C286.329 606.518 284.299 600.83 286.533 598.089C290.177 593.617 298.483 588.069 303.433 585.257C306.438 583.55 310.364 583.046 313.163 581.33C314.097 580.756 313.419 575.078 313.419 573.997C313.419 566.676 315.434 566.013 317.003 559.595C318.864 551.985 314.943 543.645 318.54 536.289C325.195 522.675 339.879 517.362 337.744 499.891C337.558 498.371 336.276 497.628 335.439 496.486C334.684 495.457 334.542 493.735 333.648 492.82C329.467 488.547 322.659 492.963 318.795 490.988C315.503 489.304 313.318 484.727 310.602 482.346C307.324 479.472 297.935 475.671 293.703 474.228C287.162 471.998 274.142 477.53 269.378 472.658C265.84 469.04 261.701 466.181 257.855 463.231C254.84 460.918 250.92 461.638 248.125 458.779C243.236 453.78 250.376 441.736 242.748 438.616C237.793 436.589 229.158 434.063 223.8 433.379C219.578 432.839 212.497 435.078 208.693 432.855C205.374 430.915 203.474 425.16 200.755 422.38C194.965 416.459 187.345 412.488 180.783 407.455C179.866 406.75 178.835 406.07 177.967 405.359C177.064 404.621 177.138 402.267 175.918 401.955C174.643 401.629 165.795 404.05 161.836 404.05C149.781 404.05 141.627 397.813 130.597 395.933C128.303 395.542 127.78 396.74 127.78 398.813" fill="#8DAA5C"/>
</g>
<g filter="url(#filter15_d)">
<path d="M141.321 322.38C134.734 322.72 136.494 316.422 133.332 313.187C126.856 306.566 116.338 315.259 110.506 310.999C104.758 306.801 118.851 300.083 121.348 299.62C125.705 298.809 130.063 305.149 133.759 306.914C138.654 309.249 144.913 309.049 149.167 312.312C149.889 312.866 151.884 315.664 150.594 316.543C148.215 318.165 144.531 318.349 141.178 320.92" fill="#8DAA5C"/>
</g>
<g filter="url(#filter16_d)">
<path d="M160.01 321.941C158.432 322.079 156.624 321.547 155.159 322.38C153.572 323.281 153.395 324.913 152.164 326.173C150.723 327.646 140.913 335.234 143.746 337.407C148.378 340.959 167.254 336.273 171.138 332.3C172.87 330.529 174.617 326.55 172.137 324.859C170.018 323.415 162.161 323.512 158.869 322.671" fill="#8DAA5C"/>
</g>
<g filter="url(#filter17_d)">
<path d="M271.206 138.354C269.824 139.173 268.415 139.949 267.057 140.811C258.212 146.425 271.393 144.22 272.517 149.969C273.791 156.483 266.927 159.199 264.218 163.817C263.197 165.558 269.855 166.05 270.551 166.05C279.371 166.05 276.997 162.713 283.437 160.243C284.303 159.911 289.902 159.593 290.207 159.126C290.401 158.829 290.207 156.921 290.207 156.669C290.207 149.916 284.895 148.716 280.16 145.948C277.977 144.672 276.272 142.008 273.827 141.257C272.058 140.715 269.986 141.034 268.149 141.034" fill="#8DAA5C"/>
</g>
<g filter="url(#filter18_d)">
<path d="M265.682 59.5318C262.791 60.3852 258.605 58.4577 255.77 59.9072C253.522 61.0564 263.018 75.9101 266.416 74.1724C269.205 72.7461 271.322 69.5756 274.308 68.3535C276.523 67.4472 280.038 69.676 281.833 67.2275C284.446 63.6639 282.932 57.5226 286.422 54.4636C289.545 51.7269 292.142 55.9793 296.15 50.7101C297.566 48.8478 305.757 34.4445 304.042 32.6903C299.579 28.1266 287.703 29.9017 282.935 32.5026C282.652 32.6561 279.448 33.9521 279.448 34.3794C279.448 34.6984 280.069 34.4666 280.365 34.567C283.175 35.5253 288.169 38.8106 288.624 42.075C289.053 45.1484 287.498 46.9059 285.688 49.02C278.732 57.1506 271.7 54.8654 264.581 59.7195" fill="#8DAA5C"/>
</g>
<g filter="url(#filter19_d)">
<path d="M250.582 43.881C245.079 43.0751 243.1 42.0761 255.211 41.4236C259.38 41.1995 263.039 39.4255 266.665 37.5708C267.764 37.0089 269.165 37.7618 270.282 37.1083C271.248 36.5431 271.416 35.1366 272.543 34.642C275.227 33.4663 278.12 32.7477 280.833 31.5598C281.287 31.36 286.71 29.141 286.71 29.0936C286.71 28.8043 279.538 31.1348 278.134 30.9957C273.829 30.5696 251.938 41.7493 250.322 43.8159" fill="#8DAA5C"/>
</g>
<g filter="url(#filter20_d)">
<path d="M378.987 17.3828C376.588 17.3707 378.045 16.3473 377.326 15.6121C376.7 14.9718 372.41 15.0999 371.451 15.0999C367.585 15.0999 362.894 14.6594 359.243 15.7258C357.374 16.2723 355.954 18.1611 354.235 19.041C346.357 23.0682 340.751 22.7149 331.986 29.4369C330.307 30.7263 333.425 33.2974 331.397 35.1631C323.971 41.9977 319.464 39.792 319.464 51.888C319.464 54.277 318.984 57.0302 320.347 59.1211C324.709 65.8133 334.195 72.2305 340.974 65.2988C343.849 62.3579 343.545 57.8935 345.983 54.9018C348.501 51.8129 351.631 52.7414 353.498 50.8337C355.096 49.1988 354.946 45.8913 356.445 44.0533C358.696 41.2901 366.827 38.0345 367.494 36.67C368.047 35.5407 368.279 34.312 368.82 33.2047C369.644 31.5201 369.371 30.0032 371.177 28.684C373.618 26.9011 376.643 26.4629 378.987 24.4647C380.337 23.3144 381.791 17.8377 379.576 16.9313C378.873 16.6432 377.396 16.9313 376.629 16.9313" fill="#8DAA5C"/>
</g>
<g filter="url(#filter21_d)">
<path d="M386.206 36.8202C384.171 36.7782 382.173 37.1138 380.165 36.8202C377.994 36.5034 378.544 41.8597 378.544 43.4505C378.544 49.8314 395.525 46.9953 394.899 40.588C394.493 36.4448 387.232 40.5747 385.764 36.8202" fill="#8DAA5C"/>
</g>
<g filter="url(#filter22_d)">
<path d="M704.65 218.918C703.899 217.275 702.562 215.982 701.862 214.312C700.775 211.719 701.094 208.658 699.717 206.198C694.525 196.903 689.318 183.608 683.204 175.272C678.995 169.533 674.592 162.078 669.693 157.068C665.723 153.008 655.491 143.506 652.75 139.302C646.696 130.016 637.672 120.727 630.446 112.106C625.804 106.567 612.901 95.1387 606.686 91.3257C602.271 88.6166 597.942 86.391 593.987 83.1553C588.678 78.8113 583.405 75.5601 578.17 71.0979C569.684 63.8659 559.491 62.8072 550.002 55.5289C548.321 54.2395 544.052 52.4643 542.542 51.2279C540.318 49.4097 537.226 48.3499 534.674 46.8585C529.366 43.7563 524.712 41.2195 519.097 38.7587C514.899 36.9196 508.829 36.0872 504.756 34.3021C501.238 32.7599 497.285 30.6745 493.507 29.8443C490.858 29.2614 490.282 30.2119 484.869 27.9831C478.923 25.5345 469.607 23.6655 463.35 22.5991C461.174 22.2282 457.893 21.2224 455.755 20.7853C454.842 20.5987 450.774 19.784 451.608 20.2101C455.379 22.1387 460.645 21.7325 464.237 23.9371C467.26 25.7917 471.38 25.0719 474.317 26.7886C476.862 28.2756 479.296 30.053 482.038 31.1746C482.646 31.423 489.909 36.2859 489.33 36.8776C487.586 38.6605 482.903 34.0283 480.966 33.3681C477.062 32.0368 474.033 29.4944 470.457 27.6651C463.192 23.9503 455.681 23.2791 447.723 23.2791C446.676 23.2791 441.693 22.6477 441.075 23.2791C439.79 24.5939 439.736 32.9045 440.432 34.6841C441.004 36.149 442.713 36.2075 443.434 37.3159C445.017 39.7424 446.217 43.0079 447.51 45.6507C450.809 52.3992 448.792 58.9787 457.589 62.9773C466.07 66.8312 467.704 62.5379 475.604 62.5379C480.379 62.5379 481.938 71.6753 486.112 73.5046C487.361 74.0521 490.328 74.4264 491.474 73.7243C492.688 72.9802 495.256 63.5226 494.262 62.0996C492.883 60.1258 485.499 55.2728 483.324 53.3265C478.608 49.1061 473.96 44.8051 469.17 40.6057C468.509 40.0261 464.676 36.8412 464.881 36C465.311 34.2403 470.963 39.6419 471.529 40.6057C474.564 45.7788 485.187 53.4248 491.045 54.4238C499.076 55.7916 501.775 54.4238 509.06 54.4238C509.74 54.4238 504.342 53.7383 504.342 55.3004C504.342 59.6367 511.187 56.9276 512.277 64.7314C512.297 64.875 512.741 65.8442 512.491 66.0474C511.523 66.84 509.738 65.6588 508.846 66.267C507.679 67.0619 507.331 73.488 508.202 74.6019C513.602 81.5038 508.192 79.3224 504.985 80.9618C501.474 82.7579 500.409 85.7264 496.192 86.4451C492.593 87.0589 479.513 78.872 476.891 85.1292C474.209 91.5266 476.046 99.2642 470.242 104.21C468.138 106.004 466.238 105.21 464.023 105.965C462.814 106.377 451.047 111.96 450.941 112.106C449.506 114.063 452.642 116.924 453.943 117.589C457.906 119.616 465.288 121.455 468.098 125.046C469.306 126.591 468.955 128.942 468.955 130.749C468.955 131.609 469.28 133.486 468.955 134.258C466.52 140.07 450.315 135.567 445.793 137.548C441.225 139.55 437.618 143.171 439.36 148.514C440.167 150.991 439.276 153.607 440.432 155.971C442.043 159.266 445.38 161.063 446.652 164.964C447.771 168.397 448.776 172.221 451.584 174.615C459.95 181.744 463.154 176.594 468.742 173.737C473.254 171.43 478.094 173.293 481.18 168.034C483.891 163.414 482.819 155.906 483.968 154.436C485.993 151.848 489.783 151.56 492.118 149.172C493.932 147.318 494.506 144.574 496.836 143.25C500.29 141.288 504.884 141.207 509.06 138.644C511.657 137.051 512.42 133.161 515.923 133.161C522.593 133.161 527.896 140.754 533.295 143.908C539.476 147.52 546.009 150.845 551.738 155.533C552.689 156.31 557.166 159.352 558.386 158.603C559.328 158.025 559.008 152.188 558.601 151.147C557.575 148.521 552.984 148.428 550.88 147.198C546.923 144.886 544.003 141.111 540.158 138.864C538.362 137.814 536.252 137.217 534.581 135.793C533.614 134.969 530.26 130.481 532.651 129.433C535.519 128.176 537.216 132.015 539.085 133.381C545.806 138.29 554.161 139.149 560.102 145.224C560.948 146.089 561.058 147.324 561.818 148.295C563.914 150.974 569.101 148.724 571.255 150.927C571.716 151.399 571.681 152.951 572.112 153.559C574.612 157.075 578.067 159.687 580.262 163.428C580.678 164.138 580.929 166.024 581.548 166.499C581.897 166.765 582.406 166.792 582.835 166.718C583.81 166.552 583.373 165.617 583.694 164.964C583.873 164.595 585.464 162.834 585.409 162.552C585.339 162.195 575.646 151.1 581.335 150.269C588.72 149.189 592.33 161.859 597.204 165.183C601.307 167.981 618.841 171.186 623.583 169.569C624.593 169.225 625.21 167.57 626.157 167.376C628.796 166.836 630.818 175.28 632.161 177.685C633.466 180.018 639.375 186.857 637.094 189.967C635.428 192.238 628.999 190.35 626.586 190.625C618.056 191.594 622.04 194.347 610.501 192.379C604.312 191.325 598.463 184.107 591.843 185.8C586.146 187.256 588.695 190.486 587.554 194.573C586.941 196.765 584.937 203.997 581.977 203.565C580.657 203.372 572.472 196.792 570.825 195.669C569.784 194.959 566.848 195.889 565.678 195.889C564.105 195.889 563.016 193.327 561.604 193.037C556.319 191.956 549.562 190.154 545.519 186.019C541.677 182.09 542.16 171.044 536.082 170.008C528.773 168.762 522.401 173.263 515.494 174.833C509.301 176.241 502.446 173.986 496.192 175.053C495.271 175.21 494.759 175.795 493.833 175.93C492.48 176.128 490.114 175.31 488.901 175.93C487.815 176.485 487.087 177.692 485.683 178.123C485.013 178.329 482.985 178.244 482.467 178.562C481.595 179.097 480.245 181.671 476.891 183.388C473.059 185.346 466.353 181.428 462.522 183.388C461.75 183.782 459.879 192.815 458.447 193.915C456.204 195.635 451.743 194.876 450.083 197.424C447.143 201.934 450.439 217.342 448.796 219.357C447.17 221.354 443.475 221.967 441.29 223.085C434.328 226.645 423.126 236.329 419.844 243.044C417.601 247.632 418.821 253.833 417.485 258.615C416.317 262.797 412.884 266.352 413.625 270.898C414.121 273.947 416.319 276.687 416.841 279.891C418.239 288.465 415.543 297.513 418.557 305.99C421.127 313.218 428.534 317.323 432.926 323.098C433.924 324.411 434.194 326.139 435.071 327.484C444.691 342.243 462.624 364.826 482.467 362.795C485.293 362.506 499.86 347.889 508.202 350.733C509.509 351.179 510.481 352.526 511.849 352.926C519.896 355.278 534.79 349.478 546.377 351.172C549.47 351.623 554.956 352.269 557.529 354.242C558.419 354.925 559.068 356.256 559.888 357.094C560.893 358.122 562.362 358.567 563.534 359.287C564.861 360.102 565.718 361.61 567.18 362.357C570.42 364.014 576.663 364.409 580.262 363.673C584.226 362.863 590.488 358.52 594.845 357.094C599.857 355.453 605.028 354.025 609.858 351.83C617.745 348.244 624.994 342.495 631.733 337.135C636.83 333.08 642.977 330.304 648.032 326.168C654.782 320.647 661.305 314.899 667.977 309.28C676.2 302.355 682.347 294.34 682.347 283.181C682.347 281.726 683.348 277.941 682.56 276.601C681.923 275.512 677.989 269.293 677.199 268.486C675.587 266.837 673.467 266.03 672.267 263.88C671.136 261.855 671.986 259.172 670.765 257.299C669.746 255.736 667.89 254.811 666.905 253.133C664.385 248.838 662.941 243.491 660.686 238.877C656.43 230.172 648.544 223.339 645.459 213.873C644.284 210.27 642.659 205.308 640.097 202.688C639.35 201.923 637.094 198.916 637.094 197.863C637.094 197.1 636.597 194.921 636.451 195.669C635.265 201.736 642.05 205.727 645.888 209.048C650.645 213.166 665.318 230.84 667.763 236.463C669.062 239.453 666.616 243.953 668.191 246.772C668.427 247.194 688.994 272.434 689.637 273.092C691.451 274.946 693.783 277.036 695.214 279.233C696.999 281.971 701.199 293.008 705.937 289.98C707.244 289.144 707.744 288.258 708.726 287.128C715.528 279.301 720.748 277.79 719.019 265.415C718.518 261.828 715.958 257.972 714.945 254.449C713.695 250.105 712.967 244.369 710.226 240.631C705.212 233.794 696.124 231.169 690.925 224.401C689.179 222.129 688.47 219.06 687.065 216.505C685.77 214.151 683.854 212.129 682.347 209.926C682.075 209.529 680.593 206.316 681.274 205.758C683.103 204.262 685.776 208.828 686.421 209.487C689.295 212.426 692.633 215.397 694.785 218.699C695.955 220.493 698.551 219.838 699.717 221.33C700.639 222.508 706.451 225.981 706.795 223.524C707.186 220.724 704.65 221.098 704.65 219.137" fill="#8DAA5C"/>
</g>
<g filter="url(#filter23_d)">
<path d="M684.766 277.611C686.98 278.516 687.779 281.359 689.278 283.198C699.301 295.497 693.729 295.7 697.591 303.6C700.433 309.413 707.361 309.221 711.128 313.072C712.153 314.121 710.777 316.485 711.366 317.688C711.868 318.713 712.927 319.388 713.266 320.602C715.557 328.806 718.023 343.134 716.828 351.692C715.47 361.419 710.043 365.463 707.803 372.337C705.02 380.876 700.703 389.108 697.591 397.596C696.846 399.629 695.281 401.498 694.978 403.669C692.539 421.135 696.318 439.295 694.028 456.861C692.921 465.352 689.423 478.239 683.816 484.792C679.8 489.486 674.046 492.45 670.515 497.665C662.696 509.216 653.347 537.214 642.016 546.485C640.373 547.83 638.186 548.455 636.553 549.886C625.424 559.641 616.991 569.253 602.354 573.932C599.236 574.928 593.22 577.288 589.766 575.875C589.034 575.576 587.454 575.105 586.916 574.418C584.247 571.006 585.728 562.81 585.728 559.116C585.728 548.305 586.516 539.135 589.053 528.755C590.144 524.293 589.688 509.771 586.678 505.924C585.165 503.989 582.494 502.383 581.216 500.094C579.432 496.901 578.129 491.116 578.129 487.464C578.129 482.514 577.749 477.487 578.841 472.649C581.972 458.775 591.303 450.854 589.529 434.515C589.344 432.821 579.165 419.415 576.941 411.684C574.127 401.901 574.218 392.456 573.141 382.537C572.711 378.581 570.721 363.882 573.616 360.921C575.254 359.245 581.366 361.247 583.591 360.678C585.289 360.244 586.855 358.965 588.103 358.006C592.524 354.615 599.018 352.762 604.253 351.692C614.136 349.669 628.74 333.224 635.128 326.188C643.26 317.232 653.558 310.498 661.966 301.9C664.848 298.952 668.7 296.387 671.229 293.156C671.996 292.174 671.971 290.211 672.653 289.513C674.669 287.452 676.521 285.314 678.59 283.198C679.484 282.283 684.507 271.76 685.953 273.239C687.243 274.56 685.036 276.019 684.766 277.125" fill="#8DAA5C"/>
</g>
<g filter="url(#filter24_d)">
<path d="M448.272 100.079C446.829 100.82 441.975 106.158 445.781 106.158C450.32 106.158 451.098 100.532 455.01 99.7323C458.867 98.9429 465.451 98.8436 464.521 93.1317C464.442 92.6471 462.75 92.0311 462.312 91.6833C460.018 89.8596 459.77 86.625 457.444 84.6777C455.279 82.8672 451.671 83.0582 449.687 81.0302C447.629 78.925 444.192 76.525 442.554 74.4297C441.463 73.0354 440.794 71.056 439.044 69.6241C437.455 68.3248 434.842 69.0942 433.155 67.7132C431.921 66.7031 433.886 64.8043 432.816 64.0083C431.688 63.1693 428.782 62.7542 427.891 64.0083C426.388 66.1202 427.081 69.7125 428.287 71.7669C431.888 77.9038 437.438 77.4622 440.629 81.3779C441.342 82.2534 440.332 84.5474 440.629 84.8521C440.918 85.1468 441.523 84.6291 441.874 85.1413C443.38 87.3415 441.207 90.9426 443.403 93.1891C446.111 95.9589 454.201 95.1553 446.8 100.832" fill="#8DAA5C"/>
</g>
<g filter="url(#filter25_d)">
<path d="M434.174 87.6892C432.185 86.806 433.747 80.9429 431.57 80.625C428.186 80.1304 420.379 83.2833 421.097 87.6892C421.245 88.5977 423.214 89.3915 423.531 90.5263C424.238 93.0566 423.275 95.1718 426.419 96.7791C430.777 99.008 435.647 94.9984 435.647 90.4104C435.647 90.0759 437.485 89.9512 437.119 89.4831C436.891 89.1928 435.774 90.0561 436.1 89.8894C436.227 89.8242 434.541 88.6717 434.458 88.6154" fill="#8DAA5C"/>
</g>
<g clip-path="url(#clip0)">
<g filter="url(#filter26_d)">
<path d="M59.5155 452.203C40.9106 452.203 26.5068 445.804 16.3041 433.006C6.10136 420.208 1 400.173 1 372.902C1 345.934 6.16137 325.899 16.4841 312.797C26.8069 299.694 41.1507 293.143 59.5155 293.143C74.0394 293.143 88.3232 296.875 102.367 304.341V337.936C94.2048 332.451 87.1229 328.413 81.1213 325.823C75.2397 323.233 69.2381 321.938 63.1165 321.938C52.1936 321.938 44.0314 325.823 38.63 333.593C33.3486 341.211 30.7079 354.238 30.7079 372.673C30.7079 390.803 33.4086 403.83 38.81 411.753C44.2115 419.523 51.8935 423.408 61.8562 423.408C68.938 423.408 74.4595 422.189 78.4206 419.751V392.784H58.6153V363.989H107.588V435.749C91.9842 446.718 75.9599 452.203 59.5155 452.203ZM133.165 296.571H215.447V325.138H162.333V358.275H208.425V387.071H162.333V420.437H215.447V449.004H133.165V296.571ZM293.367 452.203C275.002 452.203 260.658 445.576 250.335 432.321C240.012 419.066 234.851 399.259 234.851 372.902C234.851 347.001 239.892 327.347 249.975 313.939C260.178 300.38 274.642 293.6 293.367 293.6C311.732 293.6 326.075 300.227 336.398 313.482C346.841 326.585 352.062 346.315 352.062 372.673C352.062 398.574 346.961 418.304 336.758 431.864C326.676 445.423 312.212 452.203 293.367 452.203ZM293.367 421.808C302.849 421.808 309.991 417.999 314.792 410.381C319.594 402.763 321.994 390.194 321.994 372.673C321.994 355.152 319.594 342.659 314.792 335.193C310.111 327.575 302.969 323.766 293.367 323.766C283.884 323.766 276.742 327.575 271.941 335.193C267.26 342.811 264.919 355.457 264.919 373.13C264.919 390.499 267.26 402.992 271.941 410.61C276.742 418.075 283.884 421.808 293.367 421.808ZM462.307 442.148C465.427 447.785 468.968 450.604 472.929 450.604C475.09 450.604 476.95 450.299 478.511 449.689C480.191 449.08 482.232 447.861 484.632 446.033V468.886C480.671 471.629 474.97 473 467.528 473C454.084 473 444.842 466.22 439.801 452.66C434.999 453.422 430.438 453.803 426.117 453.803C406.792 453.803 392.208 447.252 382.365 434.149C372.523 420.894 367.601 400.478 367.601 372.902C367.601 345.934 372.403 325.747 382.005 312.34C391.728 298.78 406.432 292 426.117 292C445.562 292 460.206 298.628 470.049 311.883C479.891 324.985 484.813 345.249 484.813 372.673C484.813 406.496 477.311 429.654 462.307 442.148ZM426.117 320.567C416.514 320.567 409.372 324.604 404.691 332.679C400.01 340.602 397.669 354.085 397.669 373.13C397.669 383.643 398.33 392.708 399.65 400.326V399.412C401.81 395.298 405.111 391.794 409.553 388.899C413.994 385.852 418.855 384.328 424.136 384.328C436.14 384.328 445.262 391.565 451.504 406.039C453.664 397.812 454.745 386.69 454.745 372.673C454.745 353.781 452.344 340.373 447.543 332.451C442.861 324.528 435.719 320.567 426.117 320.567ZM404.871 416.323C407.272 420.589 410.213 423.636 413.694 425.465C417.175 427.293 421.316 428.207 426.117 428.207C427.917 428.207 430.378 427.902 433.499 427.293C431.818 421.808 429.658 417.618 427.017 414.723C424.497 411.676 421.676 410.153 418.555 410.153C413.394 410.153 408.832 412.21 404.871 416.323ZM560.668 453.803C542.063 453.803 528.199 448.775 519.077 438.72C509.954 428.664 505.393 413.124 505.393 392.098V296.571H535.821V390.499C535.821 402.23 537.682 410.915 541.403 416.552C545.124 422.189 551.065 425.008 559.227 425.008C566.789 425.008 572.611 422.113 576.692 416.323C580.773 410.534 582.814 401.926 582.814 390.499V296.571H610.541V392.098C610.541 412.667 606.04 428.131 597.037 438.491C588.155 448.699 576.032 453.803 560.668 453.803ZM636.033 296.571H665.2V449.004H636.033V296.571ZM781.999 323.081L724.384 420.208H781.999V449.004H687.654V422.037L746.71 325.595H688.555V296.571H781.999V323.081Z" fill="white"/>
</g>
</g>
<defs>
<filter id="filter0_d" x="38.1713" y="42.964" width="244.117" height="374.127" filterUnits="userSpaceOnUse" color-interpolation-filters="sRGB">
<feFlood flood-opacity="0" result="BackgroundImageFix"/>
<feColorMatrix in="SourceAlpha" type="matrix" values="0 0 0 0 0 0 0 0 0 0 0 0 0 0 0 0 0 0 127 0"/>
<feOffset dy="15"/>
<feGaussianBlur stdDeviation="2"/>
<feColorMatrix type="matrix" values="0 0 0 0 0 0 0 0 0 0 0 0 0 0 0 0 0 0 0.25 0"/>
<feBlend mode="normal" in2="BackgroundImageFix" result="effect1_dropShadow"/>
<feBlend mode="normal" in="SourceGraphic" in2="effect1_dropShadow" result="shape"/>
</filter>
<filter id="filter1_d" x="100.232" y="395.859" width="238.722" height="344.054" filterUnits="userSpaceOnUse" color-interpolation-filters="sRGB">
<feFlood flood-opacity="0" result="BackgroundImageFix"/>
<feColorMatrix in="SourceAlpha" type="matrix" values="0 0 0 0 0 0 0 0 0 0 0 0 0 0 0 0 0 0 127 0"/>
<feOffset dy="15"/>
<feGaussianBlur stdDeviation="2"/>
<feColorMatrix type="matrix" values="0 0 0 0 0 0 0 0 0 0 0 0 0 0 0 0 0 0 0.25 0"/>
<feBlend mode="normal" in2="BackgroundImageFix" result="effect1_dropShadow"/>
<feBlend mode="normal" in="SourceGraphic" in2="effect1_dropShadow" result="shape"/>
</filter>
<filter id="filter2_d" x="102.14" y="299.548" width="49.8785" height="41.8446" filterUnits="userSpaceOnUse" color-interpolation-filters="sRGB">
<feFlood flood-opacity="0" result="BackgroundImageFix"/>
<feColorMatrix in="SourceAlpha" type="matrix" values="0 0 0 0 0 0 0 0 0 0 0 0 0 0 0 0 0 0 127 0"/>
<feOffset dy="15"/>
<feGaussianBlur stdDeviation="2"/>
<feColorMatrix type="matrix" values="0 0 0 0 0 0 0 0 0 0 0 0 0 0 0 0 0 0 0.25 0"/>
<feBlend mode="normal" in2="BackgroundImageFix" result="effect1_dropShadow"/>
<feBlend mode="normal" in="SourceGraphic" in2="effect1_dropShadow" result="shape"/>
</filter>
<filter id="filter3_d" x="136.235" y="321.899" width="38.1346" height="35.7671" filterUnits="userSpaceOnUse" color-interpolation-filters="sRGB">
<feFlood flood-opacity="0" result="BackgroundImageFix"/>
<feColorMatrix in="SourceAlpha" type="matrix" values="0 0 0 0 0 0 0 0 0 0 0 0 0 0 0 0 0 0 127 0"/>
<feOffset dy="15"/>
<feGaussianBlur stdDeviation="2"/>
<feColorMatrix type="matrix" values="0 0 0 0 0 0 0 0 0 0 0 0 0 0 0 0 0 0 0.25 0"/>
<feBlend mode="normal" in2="BackgroundImageFix" result="effect1_dropShadow"/>
<feBlend mode="normal" in="SourceGraphic" in2="effect1_dropShadow" result="shape"/>
</filter>
<filter id="filter4_d" x="257.02" y="138.354" width="34.2726" height="46.696" filterUnits="userSpaceOnUse" color-interpolation-filters="sRGB">
<feFlood flood-opacity="0" result="BackgroundImageFix"/>
<feColorMatrix in="SourceAlpha" type="matrix" values="0 0 0 0 0 0 0 0 0 0 0 0 0 0 0 0 0 0 127 0"/>
<feOffset dy="15"/>
<feGaussianBlur stdDeviation="2"/>
<feColorMatrix type="matrix" values="0 0 0 0 0 0 0 0 0 0 0 0 0 0 0 0 0 0 0.25 0"/>
<feBlend mode="normal" in2="BackgroundImageFix" result="effect1_dropShadow"/>
<feBlend mode="normal" in="SourceGraphic" in2="effect1_dropShadow" result="shape"/>
</filter>
<filter id="filter5_d" x="248.43" y="29.8776" width="56.8466" height="63.436" filterUnits="userSpaceOnUse" color-interpolation-filters="sRGB">
<feFlood flood-opacity="0" result="BackgroundImageFix"/>
<feColorMatrix in="SourceAlpha" type="matrix" values="0 0 0 0 0 0 0 0 0 0 0 0 0 0 0 0 0 0 127 0"/>
<feOffset dy="15"/>
<feGaussianBlur stdDeviation="2"/>
<feColorMatrix type="matrix" values="0 0 0 0 0 0 0 0 0 0 0 0 0 0 0 0 0 0 0.25 0"/>
<feBlend mode="normal" in2="BackgroundImageFix" result="effect1_dropShadow"/>
<feBlend mode="normal" in="SourceGraphic" in2="effect1_dropShadow" result="shape"/>
</filter>
<filter id="filter6_d" x="239.253" y="29.0687" width="48.4569" height="33.8123" filterUnits="userSpaceOnUse" color-interpolation-filters="sRGB">
<feFlood flood-opacity="0" result="BackgroundImageFix"/>
<feColorMatrix in="SourceAlpha" type="matrix" values="0 0 0 0 0 0 0 0 0 0 0 0 0 0 0 0 0 0 127 0"/>
<feOffset dy="15"/>
<feGaussianBlur stdDeviation="2"/>
<feColorMatrix type="matrix" values="0 0 0 0 0 0 0 0 0 0 0 0 0 0 0 0 0 0 0.25 0"/>
<feBlend mode="normal" in2="BackgroundImageFix" result="effect1_dropShadow"/>
<feBlend mode="normal" in="SourceGraphic" in2="effect1_dropShadow" result="shape"/>
</filter>
<filter id="filter7_d" x="312.382" y="15.0097" width="69.337" height="72.2772" filterUnits="userSpaceOnUse" color-interpolation-filters="sRGB">
<feFlood flood-opacity="0" result="BackgroundImageFix"/>
<feColorMatrix in="SourceAlpha" type="matrix" values="0 0 0 0 0 0 0 0 0 0 0 0 0 0 0 0 0 0 127 0"/>
<feOffset dy="15"/>
<feGaussianBlur stdDeviation="2"/>
<feColorMatrix type="matrix" values="0 0 0 0 0 0 0 0 0 0 0 0 0 0 0 0 0 0 0.25 0"/>
<feBlend mode="normal" in2="BackgroundImageFix" result="effect1_dropShadow"/>
<feBlend mode="normal" in="SourceGraphic" in2="effect1_dropShadow" result="shape"/>
</filter>
<filter id="filter8_d" x="371.482" y="36.8067" width="24.434" height="29.2389" filterUnits="userSpaceOnUse" color-interpolation-filters="sRGB">
<feFlood flood-opacity="0" result="BackgroundImageFix"/>
<feColorMatrix in="SourceAlpha" type="matrix" values="0 0 0 0 0 0 0 0 0 0 0 0 0 0 0 0 0 0 127 0"/>
<feOffset dy="15"/>
<feGaussianBlur stdDeviation="2"/>
<feColorMatrix type="matrix" values="0 0 0 0 0 0 0 0 0 0 0 0 0 0 0 0 0 0 0.25 0"/>
<feBlend mode="normal" in2="BackgroundImageFix" result="effect1_dropShadow"/>
<feBlend mode="normal" in="SourceGraphic" in2="effect1_dropShadow" result="shape"/>
</filter>
<filter id="filter9_d" x="406.521" y="20.0884" width="313.832" height="362.94" filterUnits="userSpaceOnUse" color-interpolation-filters="sRGB">
<feFlood flood-opacity="0" result="BackgroundImageFix"/>
<feColorMatrix in="SourceAlpha" type="matrix" values="0 0 0 0 0 0 0 0 0 0 0 0 0 0 0 0 0 0 127 0"/>
<feOffset dy="15"/>
<feGaussianBlur stdDeviation="2"/>
<feColorMatrix type="matrix" values="0 0 0 0 0 0 0 0 0 0 0 0 0 0 0 0 0 0 0.25 0"/>
<feBlend mode="normal" in2="BackgroundImageFix" result="effect1_dropShadow"/>
<feBlend mode="normal" in="SourceGraphic" in2="effect1_dropShadow" result="shape"/>
</filter>
<filter id="filter10_d" x="565.074" y="273.097" width="153.066" height="322.217" filterUnits="userSpaceOnUse" color-interpolation-filters="sRGB">
<feFlood flood-opacity="0" result="BackgroundImageFix"/>
<feColorMatrix in="SourceAlpha" type="matrix" values="0 0 0 0 0 0 0 0 0 0 0 0 0 0 0 0 0 0 127 0"/>
<feOffset dy="15"/>
<feGaussianBlur stdDeviation="2"/>
<feColorMatrix type="matrix" values="0 0 0 0 0 0 0 0 0 0 0 0 0 0 0 0 0 0 0.25 0"/>
<feBlend mode="normal" in2="BackgroundImageFix" result="effect1_dropShadow"/>
<feBlend mode="normal" in="SourceGraphic" in2="effect1_dropShadow" result="shape"/>
</filter>
<filter id="filter11_d" x="420.034" y="63.2159" width="45.5762" height="61.9425" filterUnits="userSpaceOnUse" color-interpolation-filters="sRGB">
<feFlood flood-opacity="0" result="BackgroundImageFix"/>
<feColorMatrix in="SourceAlpha" type="matrix" values="0 0 0 0 0 0 0 0 0 0 0 0 0 0 0 0 0 0 127 0"/>
<feOffset dy="15"/>
<feGaussianBlur stdDeviation="2"/>
<feColorMatrix type="matrix" values="0 0 0 0 0 0 0 0 0 0 0 0 0 0 0 0 0 0 0.25 0"/>
<feBlend mode="normal" in2="BackgroundImageFix" result="effect1_dropShadow"/>
<feBlend mode="normal" in="SourceGraphic" in2="effect1_dropShadow" result="shape"/>
</filter>
<filter id="filter12_d" x="414.051" y="80.5739" width="24.1165" height="35.8394" filterUnits="userSpaceOnUse" color-interpolation-filters="sRGB">
<feFlood flood-opacity="0" result="BackgroundImageFix"/>
<feColorMatrix in="SourceAlpha" type="matrix" values="0 0 0 0 0 0 0 0 0 0 0 0 0 0 0 0 0 0 127 0"/>
<feOffset dy="15"/>
<feGaussianBlur stdDeviation="2"/>
<feColorMatrix type="matrix" values="0 0 0 0 0 0 0 0 0 0 0 0 0 0 0 0 0 0 0.25 0"/>
<feBlend mode="normal" in2="BackgroundImageFix" result="effect1_dropShadow"/>
<feBlend mode="normal" in="SourceGraphic" in2="effect1_dropShadow" result="shape"/>
</filter>
<filter id="filter13_d" x="41.1713" y="42.964" width="244.117" height="374.127" filterUnits="userSpaceOnUse" color-interpolation-filters="sRGB">
<feFlood flood-opacity="0" result="BackgroundImageFix"/>
<feColorMatrix in="SourceAlpha" type="matrix" values="0 0 0 0 0 0 0 0 0 0 0 0 0 0 0 0 0 0 127 0"/>
<feOffset dy="15"/>
<feGaussianBlur stdDeviation="2"/>
<feColorMatrix type="matrix" values="0 0 0 0 0 0 0 0 0 0 0 0 0 0 0 0 0 0 0.25 0"/>
<feBlend mode="normal" in2="BackgroundImageFix" result="effect1_dropShadow"/>
<feBlend mode="normal" in="SourceGraphic" in2="effect1_dropShadow" result="shape"/>
</filter>
<filter id="filter14_d" x="103.232" y="395.859" width="238.722" height="344.054" filterUnits="userSpaceOnUse" color-interpolation-filters="sRGB">
<feFlood flood-opacity="0" result="BackgroundImageFix"/>
<feColorMatrix in="SourceAlpha" type="matrix" values="0 0 0 0 0 0 0 0 0 0 0 0 0 0 0 0 0 0 127 0"/>
<feOffset dy="15"/>
<feGaussianBlur stdDeviation="2"/>
<feColorMatrix type="matrix" values="0 0 0 0 0 0 0 0 0 0 0 0 0 0 0 0 0 0 0.25 0"/>
<feBlend mode="normal" in2="BackgroundImageFix" result="effect1_dropShadow"/>
<feBlend mode="normal" in="SourceGraphic" in2="effect1_dropShadow" result="shape"/>
</filter>
<filter id="filter15_d" x="105.14" y="299.548" width="49.8785" height="41.8446" filterUnits="userSpaceOnUse" color-interpolation-filters="sRGB">
<feFlood flood-opacity="0" result="BackgroundImageFix"/>
<feColorMatrix in="SourceAlpha" type="matrix" values="0 0 0 0 0 0 0 0 0 0 0 0 0 0 0 0 0 0 127 0"/>
<feOffset dy="15"/>
<feGaussianBlur stdDeviation="2"/>
<feColorMatrix type="matrix" values="0 0 0 0 0 0 0 0 0 0 0 0 0 0 0 0 0 0 0.25 0"/>
<feBlend mode="normal" in2="BackgroundImageFix" result="effect1_dropShadow"/>
<feBlend mode="normal" in="SourceGraphic" in2="effect1_dropShadow" result="shape"/>
</filter>
<filter id="filter16_d" x="139.235" y="321.899" width="38.1346" height="35.7671" filterUnits="userSpaceOnUse" color-interpolation-filters="sRGB">
<feFlood flood-opacity="0" result="BackgroundImageFix"/>
<feColorMatrix in="SourceAlpha" type="matrix" values="0 0 0 0 0 0 0 0 0 0 0 0 0 0 0 0 0 0 127 0"/>
<feOffset dy="15"/>
<feGaussianBlur stdDeviation="2"/>
<feColorMatrix type="matrix" values="0 0 0 0 0 0 0 0 0 0 0 0 0 0 0 0 0 0 0.25 0"/>
<feBlend mode="normal" in2="BackgroundImageFix" result="effect1_dropShadow"/>
<feBlend mode="normal" in="SourceGraphic" in2="effect1_dropShadow" result="shape"/>
</filter>
<filter id="filter17_d" x="260.02" y="138.354" width="34.2726" height="46.696" filterUnits="userSpaceOnUse" color-interpolation-filters="sRGB">
<feFlood flood-opacity="0" result="BackgroundImageFix"/>
<feColorMatrix in="SourceAlpha" type="matrix" values="0 0 0 0 0 0 0 0 0 0 0 0 0 0 0 0 0 0 127 0"/>
<feOffset dy="15"/>
<feGaussianBlur stdDeviation="2"/>
<feColorMatrix type="matrix" values="0 0 0 0 0 0 0 0 0 0 0 0 0 0 0 0 0 0 0.25 0"/>
<feBlend mode="normal" in2="BackgroundImageFix" result="effect1_dropShadow"/>
<feBlend mode="normal" in="SourceGraphic" in2="effect1_dropShadow" result="shape"/>
</filter>
<filter id="filter18_d" x="251.43" y="29.8776" width="56.8466" height="63.436" filterUnits="userSpaceOnUse" color-interpolation-filters="sRGB">
<feFlood flood-opacity="0" result="BackgroundImageFix"/>
<feColorMatrix in="SourceAlpha" type="matrix" values="0 0 0 0 0 0 0 0 0 0 0 0 0 0 0 0 0 0 127 0"/>
<feOffset dy="15"/>
<feGaussianBlur stdDeviation="2"/>
<feColorMatrix type="matrix" values="0 0 0 0 0 0 0 0 0 0 0 0 0 0 0 0 0 0 0.25 0"/>
<feBlend mode="normal" in2="BackgroundImageFix" result="effect1_dropShadow"/>
<feBlend mode="normal" in="SourceGraphic" in2="effect1_dropShadow" result="shape"/>
</filter>
<filter id="filter19_d" x="242.253" y="29.0687" width="48.4569" height="33.8123" filterUnits="userSpaceOnUse" color-interpolation-filters="sRGB">
<feFlood flood-opacity="0" result="BackgroundImageFix"/>
<feColorMatrix in="SourceAlpha" type="matrix" values="0 0 0 0 0 0 0 0 0 0 0 0 0 0 0 0 0 0 127 0"/>
<feOffset dy="15"/>
<feGaussianBlur stdDeviation="2"/>
<feColorMatrix type="matrix" values="0 0 0 0 0 0 0 0 0 0 0 0 0 0 0 0 0 0 0.25 0"/>
<feBlend mode="normal" in2="BackgroundImageFix" result="effect1_dropShadow"/>
<feBlend mode="normal" in="SourceGraphic" in2="effect1_dropShadow" result="shape"/>
</filter>
<filter id="filter20_d" x="315.382" y="15.0097" width="69.337" height="72.2772" filterUnits="userSpaceOnUse" color-interpolation-filters="sRGB">
<feFlood flood-opacity="0" result="BackgroundImageFix"/>
<feColorMatrix in="SourceAlpha" type="matrix" values="0 0 0 0 0 0 0 0 0 0 0 0 0 0 0 0 0 0 127 0"/>
<feOffset dy="15"/>
<feGaussianBlur stdDeviation="2"/>
<feColorMatrix type="matrix" values="0 0 0 0 0 0 0 0 0 0 0 0 0 0 0 0 0 0 0.25 0"/>
<feBlend mode="normal" in2="BackgroundImageFix" result="effect1_dropShadow"/>
<feBlend mode="normal" in="SourceGraphic" in2="effect1_dropShadow" result="shape"/>
</filter>
<filter id="filter21_d" x="374.482" y="36.8067" width="24.434" height="29.2389" filterUnits="userSpaceOnUse" color-interpolation-filters="sRGB">
<feFlood flood-opacity="0" result="BackgroundImageFix"/>
<feColorMatrix in="SourceAlpha" type="matrix" values="0 0 0 0 0 0 0 0 0 0 0 0 0 0 0 0 0 0 127 0"/>
<feOffset dy="15"/>
<feGaussianBlur stdDeviation="2"/>
<feColorMatrix type="matrix" values="0 0 0 0 0 0 0 0 0 0 0 0 0 0 0 0 0 0 0.25 0"/>
<feBlend mode="normal" in2="BackgroundImageFix" result="effect1_dropShadow"/>
<feBlend mode="normal" in="SourceGraphic" in2="effect1_dropShadow" result="shape"/>
</filter>
<filter id="filter22_d" x="409.521" y="20.0884" width="313.832" height="362.94" filterUnits="userSpaceOnUse" color-interpolation-filters="sRGB">
<feFlood flood-opacity="0" result="BackgroundImageFix"/>
<feColorMatrix in="SourceAlpha" type="matrix" values="0 0 0 0 0 0 0 0 0 0 0 0 0 0 0 0 0 0 127 0"/>
<feOffset dy="15"/>
<feGaussianBlur stdDeviation="2"/>
<feColorMatrix type="matrix" values="0 0 0 0 0 0 0 0 0 0 0 0 0 0 0 0 0 0 0.25 0"/>
<feBlend mode="normal" in2="BackgroundImageFix" result="effect1_dropShadow"/>
<feBlend mode="normal" in="SourceGraphic" in2="effect1_dropShadow" result="shape"/>
</filter>
<filter id="filter23_d" x="568.074" y="273.097" width="153.066" height="322.217" filterUnits="userSpaceOnUse" color-interpolation-filters="sRGB">
<feFlood flood-opacity="0" result="BackgroundImageFix"/>
<feColorMatrix in="SourceAlpha" type="matrix" values="0 0 0 0 0 0 0 0 0 0 0 0 0 0 0 0 0 0 127 0"/>
<feOffset dy="15"/>
<feGaussianBlur stdDeviation="2"/>
<feColorMatrix type="matrix" values="0 0 0 0 0 0 0 0 0 0 0 0 0 0 0 0 0 0 0.25 0"/>
<feBlend mode="normal" in2="BackgroundImageFix" result="effect1_dropShadow"/>
<feBlend mode="normal" in="SourceGraphic" in2="effect1_dropShadow" result="shape"/>
</filter>
<filter id="filter24_d" x="423.034" y="63.2159" width="45.5762" height="61.9425" filterUnits="userSpaceOnUse" color-interpolation-filters="sRGB">
<feFlood flood-opacity="0" result="BackgroundImageFix"/>
<feColorMatrix in="SourceAlpha" type="matrix" values="0 0 0 0 0 0 0 0 0 0 0 0 0 0 0 0 0 0 127 0"/>
<feOffset dy="15"/>
<feGaussianBlur stdDeviation="2"/>
<feColorMatrix type="matrix" values="0 0 0 0 0 0 0 0 0 0 0 0 0 0 0 0 0 0 0.25 0"/>
<feBlend mode="normal" in2="BackgroundImageFix" result="effect1_dropShadow"/>
<feBlend mode="normal" in="SourceGraphic" in2="effect1_dropShadow" result="shape"/>
</filter>
<filter id="filter25_d" x="417.051" y="80.5739" width="24.1165" height="35.8394" filterUnits="userSpaceOnUse" color-interpolation-filters="sRGB">
<feFlood flood-opacity="0" result="BackgroundImageFix"/>
<feColorMatrix in="SourceAlpha" type="matrix" values="0 0 0 0 0 0 0 0 0 0 0 0 0 0 0 0 0 0 127 0"/>
<feOffset dy="15"/>
<feGaussianBlur stdDeviation="2"/>
<feColorMatrix type="matrix" values="0 0 0 0 0 0 0 0 0 0 0 0 0 0 0 0 0 0 0.25 0"/>
<feBlend mode="normal" in2="BackgroundImageFix" result="effect1_dropShadow"/>
<feBlend mode="normal" in="SourceGraphic" in2="effect1_dropShadow" result="shape"/>
</filter>
<filter id="filter26_d" x="1" y="292" width="803.999" height="189" filterUnits="userSpaceOnUse" color-interpolation-filters="sRGB">
<feFlood flood-opacity="0" result="BackgroundImageFix"/>
<feColorMatrix in="SourceAlpha" type="matrix" values="0 0 0 0 0 0 0 0 0 0 0 0 0 0 0 0 0 0 127 0"/>
<feOffset dx="19" dy="4"/>
<feGaussianBlur stdDeviation="2"/>
<feColorMatrix type="matrix" values="0 0 0 0 0 0 0 0 0 0 0 0 0 0 0 0 0 0 0.5 0"/>
<feBlend mode="normal" in2="BackgroundImageFix" result="effect1_dropShadow"/>
<feBlend mode="normal" in="SourceGraphic" in2="effect1_dropShadow" result="shape"/>
</filter>
<clipPath id="clip0">
<path d="M0 292H783V473H0V292Z" fill="white"/>
</clipPath>
</defs>
</svg>
