<svg width="1297" height="877" viewBox="0 0 1297 877" fill="none" xmlns="http://www.w3.org/2000/svg">
<path d="M46.851 519.178L9.37256 548.656L40.2348 589.407L77.7113 559.929L46.851 519.178Z" fill="white"/>
<path d="M559.979 796.021L522.5 825.5L553.362 866.251L590.839 836.772L559.979 796.021Z" fill="white"/>
<path d="M1262.85 183.178L1225.37 212.656L1256.23 253.407L1293.71 223.929L1262.85 183.178Z" fill="white"/>
<path d="M980.851 38.178L943.373 67.6565L974.235 108.407L1011.71 78.9287L980.851 38.178Z" fill="white"/>
<path d="M244.589 293.962L234.874 303.631L224.536 294.226L234.251 284.557L244.589 293.962Z" fill="white"/>
<path d="M310.589 168.962L300.874 178.631L290.536 169.226L300.251 159.557L310.589 168.962Z" fill="white"/>
<path d="M200.589 510.962L190.874 520.631L180.536 511.226L190.251 501.557L200.589 510.962Z" fill="white"/>
<path d="M321.589 634.962L311.874 644.631L301.536 635.226L311.251 625.557L321.589 634.962Z" fill="white"/>
<path d="M954.589 132.962L944.874 142.631L934.536 133.226L944.251 123.557L954.589 132.962Z" fill="white"/>
<path d="M1071.59 250.962L1061.87 260.631L1051.54 251.226L1061.25 241.557L1071.59 250.962Z" fill="white"/>
<path d="M1060.59 422.962L1050.87 432.631L1040.54 423.226L1050.25 413.557L1060.59 422.962Z" fill="white"/>
<path d="M1027.59 654.962L1017.87 664.631L1007.54 655.226L1017.25 645.557L1027.59 654.962Z" fill="white"/>
<path d="M51.5893 865.962L41.8735 875.631L31.5355 866.226L41.2508 856.557L51.5893 865.962Z" fill="white"/>
<path d="M1269.59 855.962L1259.87 865.631L1249.54 856.226L1259.25 846.557L1269.59 855.962Z" fill="white"/>
<path d="M1217.59 49.9615L1207.87 59.6308L1197.54 50.2263L1207.25 40.557L1217.59 49.9615Z" fill="white"/>
<path d="M20.5893 29.9615L10.8735 39.6308L0.535515 30.2263L10.2508 20.557L20.5893 29.9615Z" fill="white"/>
<path d="M184.925 125.201L164.279 141.062L181.33 163.052L201.975 147.191L184.925 125.201Z" fill="white"/>
<path d="M137.925 343.201L117.279 359.062L134.33 381.052L154.975 365.191L137.925 343.201Z" fill="white"/>
<path d="M502.925 1.2012L482.279 17.0625L499.33 39.0522L519.975 23.1908L502.925 1.2012Z" fill="white"/>
<path d="M298.925 772.201L278.279 788.062L295.33 810.052L315.975 794.191L298.925 772.201Z" fill="white"/>
<path d="M912.925 770.201L892.279 786.062L909.33 808.052L929.975 792.191L912.925 770.201Z" fill="white"/>
<path d="M1178.92 445.201L1158.28 461.062L1175.33 483.052L1195.97 467.191L1178.92 445.201Z" fill="white"/>
<g filter="url(#filter0_d)">
<path d="M657.414 804C458.363 804 297 635.211 297 426.999C297 218.789 458.363 50 657.414 50C856.465 50 1017.83 218.789 1017.83 426.999C1017.83 635.211 856.465 804 657.414 804Z" fill="#3F7EB4"/>
<g filter="url(#filter1_d)">
<path d="M401.101 447.826C403 448.182 401.631 446.126 401.101 445.176C399.887 443.004 397.622 442.163 396.435 440.139C395.594 438.706 396.665 436.133 395.398 434.838C392.856 432.238 375.801 435.79 373.627 434.307C371.903 433.132 372.07 428.464 371.812 426.62C371.344 423.264 371.06 419.892 370.516 416.548C369.827 412.323 372.015 398.163 370.516 395.608C367.48 390.433 352.618 398.97 351.596 392.692C349.852 381.997 360.408 379.451 360.408 366.716C360.408 363.419 355.266 359.15 352.632 362.74C349.048 367.627 351.793 381.56 339.155 381.56C338.028 381.56 335.475 382.064 334.489 381.56C328.297 378.393 327.87 357.116 328.787 350.547C329.675 344.192 334.27 339.081 337.34 333.848C339.272 330.555 337.759 326.623 339.932 323.511C341.77 320.88 344.256 319.046 346.671 316.884C349.831 314.057 352.936 309.535 357.038 308.137C358.683 307.577 360.546 308.116 362.222 307.871C366.223 307.287 369.997 307.076 374.145 307.076C376.803 307.076 378.63 308.483 380.366 310.257C385.626 315.638 385.547 322.437 386.586 329.872C386.943 332.43 385.75 336.42 387.364 338.62C388.252 339.832 391.293 337.921 392.029 337.294C399.032 331.326 394.488 318.796 392.547 311.848C391.256 307.228 391.717 295.997 394.879 292.763C398.659 288.898 404.459 284.418 409.653 282.425C414.305 280.641 418.78 279.718 422.612 275.799C424.976 273.383 425.709 269.592 427.538 266.787C429.606 263.613 432.691 261.266 434.795 258.04C437.399 254.045 437.861 248.808 441.274 245.317C447.821 238.621 455.718 243.184 460.195 239.75C464.02 236.816 459.474 231.49 464.601 227.558C467.499 225.334 476.043 225.424 479.115 224.376C480.973 223.743 485.974 217.777 487.669 219.075C489.034 220.123 486.652 226.456 488.447 226.762C489.251 226.9 491.288 227.03 492.075 226.762C493.074 226.422 496.927 221.519 498.295 220.401C501.729 217.591 509.303 214.419 511.773 211.388C515.872 206.358 501.409 210.063 500.887 210.063C500.259 210.063 498.017 210.446 497.517 210.063C495.551 208.554 498.985 202.057 496.481 200.521C494.004 199.001 483.548 200.114 483.262 199.726C483.121 199.533 483.262 197.674 483.262 197.34C483.262 196.634 483.044 195.566 483.521 194.955C488.644 188.406 511.662 184.819 519.549 183.026C523.53 182.121 528.389 182.831 531.989 180.376C532.675 179.909 533.116 178.818 533.804 178.255C535.512 176.857 538.572 176.036 538.987 173.484C539.54 170.096 531.369 159.498 530.693 154.665C530.34 152.136 529.796 145.826 530.693 143.531C531.365 141.814 534.572 138.834 533.286 136.64C530.576 132.022 514.012 143.5 511.773 142.737C509.797 142.063 519.457 131.36 517.734 128.424C516.324 126.02 506.2 125.994 503.738 126.833C498.555 128.599 489.223 140.88 488.187 146.183C487.825 148.034 489.195 152.323 488.187 153.87C485.584 157.862 480.272 159.762 476.782 162.616C473.803 165.054 471.371 167.621 468.747 170.303C467.576 171.502 457.249 184.473 455.27 181.436C452.415 177.056 460.535 166.086 458.899 160.231C457.882 156.592 452.266 159.014 450.864 157.58C450.304 157.008 450.206 154.868 450.086 154.135C449.764 152.158 449.429 147.336 450.605 145.652C455.963 137.982 471.642 129.616 479.634 124.712C480.473 124.197 480.142 123.128 480.93 122.592C482.081 121.807 483.517 121.004 484.817 120.206C487.506 118.557 491.155 118.515 494.148 117.29C504.427 113.085 501.077 108.279 515.66 108.279C522.85 108.279 534.66 101.378 540.543 97.9403C540.777 97.8034 547.526 93.5444 547.282 93.1701C547.005 92.7451 541.742 93.0973 541.32 93.1701C531.464 94.8492 522.308 101.692 513.328 105.628C512.66 105.921 508.438 107.622 507.626 107.483C505.724 107.159 511.803 102.532 509.699 101.917C508.848 101.668 506.541 102.476 505.812 101.917C503.157 99.881 503.654 99.4163 500.145 100.014C497.465 100.471 489.359 104.169 486.793 105.919C483.741 108 477.24 111.633 474.163 113.52C468.956 116.716 465.074 121.823 459.676 124.977C453.65 128.499 448.042 133.569 442.31 137.965C431.496 146.261 421.37 155.123 411.093 164.133C400.749 173.2 384.309 190.394 376.662 202.124C371.998 209.279 363.985 217.962 359.691 225.282C356.037 231.51 351.277 239.139 347.347 245.167C345.732 247.644 343.743 253.947 342.212 256.45C337.788 263.69 337.66 267.192 333.971 274.738C331.754 279.272 329.847 285.927 326.973 289.847C323.911 294.023 319.562 301.79 318.572 306.851C318.022 309.662 317.687 310.303 319.197 311.848C320.61 313.292 320.348 319.22 319.975 321.125C318.816 327.047 314.889 331.494 313.755 337.294C312.592 343.238 314.994 349.036 314.014 355.053C313.407 358.773 310.274 363.14 311.422 367.246C312.651 371.649 316.662 375.314 318.679 379.44C320.494 383.151 320.789 387.897 322.826 391.367C325.42 395.788 331.218 398.923 335.266 402.235C337.766 404.28 339.106 408.173 342.005 409.657C344.316 410.838 354.434 413.971 355.483 415.223C356.903 416.917 356.85 420.138 357.816 422.115C362.219 431.121 364.572 438.295 373.108 444.115C374.489 445.056 381.565 444.943 383.216 444.38C385.141 443.724 385.575 441.327 387.881 440.934C388.585 440.814 393.115 440.455 393.584 440.934C394.463 441.833 395.246 443.734 396.435 444.645C397.96 445.815 400.441 446.622 401.877 448.091" fill="#8DAA5C"/>
</g>
<g filter="url(#filter2_d)">
<path d="M397.109 446.718C394.352 448.365 391.717 450.013 389.939 452.741C389.275 453.761 389.953 455.04 389.684 456.145C388.809 459.718 385.796 462.547 385.33 466.357C385.163 467.729 385.345 470.131 384.563 471.333C382.876 473.92 380.853 475.637 380.209 478.927C378.72 486.544 379.953 495.507 379.953 503.28C379.953 509.114 377.477 510.882 376.881 516.373C376.324 521.499 376.993 526.711 376.368 531.823C375.724 537.101 372.16 541.839 373.552 547.534C374.053 549.581 378.22 553.679 379.441 556.176C383.744 564.974 388.752 572.317 394.804 579.743C397.865 583.499 399.213 590.342 403.255 593.097C405.386 594.551 408.319 594.86 410.68 596.24C415.2 598.882 419.142 603.575 424.251 604.619C427.818 605.349 432.408 605.368 435.261 608.286C437.529 610.605 444.667 618.443 446.015 620.855C446.899 622.435 447.137 624.398 447.552 626.092C448.018 627.999 451.675 634.178 452.928 635.781C454.996 638.424 457.799 640.501 459.842 643.113C463.321 647.56 462.268 652.998 463.683 658.3C465.591 665.458 468.666 671.998 470.084 679.25C471.159 684.75 479.131 698.772 482.119 703.865C483.022 705.404 491.782 713.746 493.64 715.648C496.004 718.064 495.071 722.583 497.225 725.337C499.486 728.227 501.734 728.847 504.651 730.835C510.057 734.52 513.616 739.442 517.71 741.834C525.626 746.461 533.989 749.885 541.778 754.665C543.144 755.502 544.166 757.369 545.108 758.332C549.343 762.662 554.821 764.347 560.214 766.711C561.402 767.232 571.896 771.172 572.25 770.9C575.779 768.192 560.366 765.112 559.446 764.878C559.134 764.797 545.228 751.371 541.778 749.167C532.625 743.316 533.987 737.303 531.025 728.217C529.717 724.205 524.86 715.163 526.927 710.934C529.267 706.15 537.288 708.336 537.938 707.007C538.581 705.692 538.514 698.954 537.938 697.58C537.42 696.341 533.682 694.843 534.353 693.128C535.219 690.914 542.272 689.539 543.571 684.224C544.311 681.198 543.819 677.97 544.852 674.274C546.231 669.334 550.353 664.599 551.508 659.872C552.329 656.518 550.299 650.83 552.533 648.089C556.177 643.617 564.483 638.069 569.433 635.257C572.438 633.55 576.364 633.046 579.163 631.33C580.097 630.756 579.419 625.078 579.419 623.997C579.419 616.676 581.434 616.013 583.003 609.595C584.864 601.985 580.943 593.645 584.54 586.289C591.195 572.675 605.879 567.362 603.744 549.891C603.558 548.371 602.276 547.628 601.439 546.486C600.684 545.457 600.542 543.735 599.648 542.82C595.467 538.547 588.659 542.963 584.795 540.988C581.503 539.304 579.318 534.727 576.602 532.346C573.324 529.472 563.935 525.671 559.703 524.228C553.162 521.998 540.142 527.53 535.378 522.658C531.84 519.04 527.701 516.181 523.855 513.231C520.84 510.918 516.92 511.638 514.125 508.779C509.236 503.78 516.376 491.736 508.748 488.616C503.793 486.589 495.158 484.063 489.8 483.379C485.578 482.839 478.497 485.078 474.693 482.855C471.374 480.915 469.474 475.16 466.755 472.38C460.965 466.459 453.345 462.488 446.783 457.455C445.866 456.75 444.835 456.07 443.967 455.359C443.064 454.621 443.138 452.267 441.918 451.955C440.643 451.629 431.795 454.05 427.836 454.05C415.781 454.05 407.627 447.813 396.597 445.933C394.303 445.542 393.78 446.74 393.78 448.813" fill="#8DAA5C"/>
</g>
<g filter="url(#filter3_d)">
<path d="M407.321 372.38C400.734 372.72 402.494 366.422 399.332 363.187C392.856 356.566 382.338 365.259 376.506 360.999C370.758 356.801 384.851 350.083 387.348 349.62C391.705 348.809 396.063 355.149 399.759 356.914C404.654 359.249 410.913 359.049 415.167 362.312C415.889 362.866 417.884 365.664 416.594 366.543C414.215 368.165 410.531 368.349 407.178 370.92" fill="#8DAA5C"/>
</g>
<g filter="url(#filter4_d)">
<path d="M426.01 371.941C424.432 372.079 422.624 371.547 421.159 372.38C419.572 373.281 419.395 374.913 418.164 376.173C416.723 377.646 406.913 385.234 409.746 387.407C414.378 390.959 433.254 386.273 437.138 382.3C438.87 380.529 440.617 376.55 438.137 374.859C436.018 373.415 428.161 373.512 424.869 372.671" fill="#8DAA5C"/>
</g>
<g filter="url(#filter5_d)">
<path d="M537.206 188.354C535.824 189.173 534.415 189.949 533.057 190.811C524.212 196.425 537.393 194.22 538.517 199.969C539.791 206.483 532.927 209.199 530.218 213.817C529.197 215.558 535.855 216.05 536.551 216.05C545.371 216.05 542.997 212.713 549.437 210.243C550.303 209.911 555.902 209.593 556.207 209.126C556.401 208.829 556.207 206.921 556.207 206.669C556.207 199.916 550.895 198.716 546.16 195.948C543.977 194.672 542.272 192.008 539.827 191.257C538.058 190.715 535.986 191.034 534.149 191.034" fill="#8DAA5C"/>
</g>
<g filter="url(#filter6_d)">
<path d="M531.682 109.532C528.791 110.385 524.605 108.458 521.77 109.907C519.522 111.056 529.018 125.91 532.416 124.172C535.205 122.746 537.322 119.576 540.308 118.354C542.523 117.447 546.038 119.676 547.833 117.227C550.446 113.664 548.932 107.523 552.422 104.464C555.545 101.727 558.142 105.979 562.15 100.71C563.566 98.8478 571.757 84.4445 570.042 82.6903C565.579 78.1266 553.703 79.9017 548.935 82.5026C548.652 82.6561 545.448 83.9521 545.448 84.3794C545.448 84.6984 546.069 84.4666 546.365 84.567C549.175 85.5253 554.169 88.8106 554.624 92.075C555.053 95.1484 553.498 96.9059 551.688 99.02C544.732 107.151 537.7 104.865 530.581 109.719" fill="#8DAA5C"/>
</g>
<g filter="url(#filter7_d)">
<path d="M516.582 93.881C511.079 93.0751 509.1 92.0761 521.211 91.4236C525.38 91.1995 529.039 89.4255 532.665 87.5708C533.764 87.0089 535.165 87.7618 536.282 87.1083C537.248 86.5431 537.416 85.1366 538.543 84.642C541.227 83.4663 544.12 82.7477 546.833 81.5598C547.287 81.36 552.71 79.141 552.71 79.0936C552.71 78.8043 545.538 81.1348 544.134 80.9957C539.829 80.5696 517.938 91.7493 516.322 93.8159" fill="#8DAA5C"/>
</g>
<g filter="url(#filter8_d)">
<path d="M644.987 67.3828C642.588 67.3707 644.045 66.3473 643.326 65.6121C642.7 64.9718 638.41 65.0999 637.451 65.0999C633.585 65.0999 628.894 64.6594 625.243 65.7258C623.374 66.2723 621.954 68.1611 620.235 69.041C612.357 73.0682 606.751 72.7149 597.986 79.4369C596.307 80.7263 599.425 83.2974 597.397 85.1631C589.971 91.9977 585.464 89.792 585.464 101.888C585.464 104.277 584.984 107.03 586.347 109.121C590.709 115.813 600.195 122.231 606.974 115.299C609.849 112.358 609.545 107.894 611.983 104.902C614.501 101.813 617.631 102.741 619.498 100.834C621.096 99.1988 620.946 95.8913 622.445 94.0533C624.696 91.2901 632.827 88.0345 633.494 86.67C634.047 85.5407 634.279 84.312 634.82 83.2047C635.644 81.5201 635.371 80.0032 637.177 78.684C639.618 76.9011 642.643 76.4629 644.987 74.4647C646.337 73.3144 647.791 67.8377 645.576 66.9313C644.873 66.6432 643.396 66.9313 642.629 66.9313" fill="#8DAA5C"/>
</g>
<g filter="url(#filter9_d)">
<path d="M652.206 86.8202C650.171 86.7782 648.173 87.1138 646.165 86.8202C643.994 86.5034 644.544 91.8597 644.544 93.4505C644.544 99.8314 661.525 96.9953 660.899 90.588C660.493 86.4448 653.232 90.5747 651.764 86.8202" fill="#8DAA5C"/>
</g>
<g filter="url(#filter10_d)">
<path d="M970.65 268.918C969.899 267.275 968.562 265.982 967.862 264.312C966.775 261.719 967.094 258.658 965.717 256.198C960.525 246.903 955.318 233.608 949.204 225.272C944.995 219.533 940.592 212.078 935.693 207.068C931.723 203.008 921.491 193.506 918.75 189.302C912.696 180.016 903.672 170.727 896.446 162.106C891.804 156.567 878.901 145.139 872.686 141.326C868.271 138.617 863.942 136.391 859.987 133.155C854.678 128.811 849.405 125.56 844.17 121.098C835.684 113.866 825.491 112.807 816.002 105.529C814.321 104.239 810.052 102.464 808.542 101.228C806.318 99.4097 803.226 98.3499 800.674 96.8585C795.366 93.7563 790.712 91.2195 785.097 88.7587C780.899 86.9196 774.829 86.0872 770.756 84.3021C767.238 82.7599 763.285 80.6745 759.507 79.8443C756.858 79.2614 756.282 80.2119 750.869 77.9831C744.923 75.5345 735.607 73.6655 729.35 72.5991C727.174 72.2282 723.893 71.2224 721.755 70.7853C720.842 70.5987 716.774 69.784 717.608 70.2101C721.379 72.1387 726.645 71.7325 730.237 73.9371C733.26 75.7917 737.38 75.0719 740.317 76.7886C742.862 78.2756 745.296 80.053 748.038 81.1746C748.646 81.423 755.909 86.2859 755.33 86.8776C753.586 88.6605 748.903 84.0283 746.966 83.3681C743.062 82.0368 740.033 79.4944 736.457 77.6651C729.192 73.9503 721.681 73.2791 713.723 73.2791C712.676 73.2791 707.693 72.6477 707.075 73.2791C705.79 74.5939 705.736 82.9045 706.432 84.6841C707.004 86.149 708.713 86.2075 709.434 87.3159C711.017 89.7424 712.217 93.0079 713.51 95.6507C716.809 102.399 714.792 108.979 723.589 112.977C732.07 116.831 733.704 112.538 741.604 112.538C746.379 112.538 747.938 121.675 752.112 123.505C753.361 124.052 756.328 124.426 757.474 123.724C758.688 122.98 761.256 113.523 760.262 112.1C758.883 110.126 751.499 105.273 749.324 103.327C744.608 99.1061 739.96 94.8051 735.17 90.6057C734.509 90.0261 730.676 86.8412 730.881 86C731.311 84.2403 736.963 89.6419 737.529 90.6057C740.564 95.7788 751.187 103.425 757.045 104.424C765.076 105.792 767.775 104.424 775.06 104.424C775.74 104.424 770.342 103.738 770.342 105.3C770.342 109.637 777.187 106.928 778.277 114.731C778.297 114.875 778.741 115.844 778.491 116.047C777.523 116.84 775.738 115.659 774.846 116.267C773.679 117.062 773.331 123.488 774.202 124.602C779.602 131.504 774.192 129.322 770.985 130.962C767.474 132.758 766.409 135.726 762.192 136.445C758.593 137.059 745.513 128.872 742.891 135.129C740.209 141.527 742.046 149.264 736.242 154.21C734.138 156.004 732.238 155.21 730.023 155.965C728.814 156.377 717.047 161.96 716.941 162.106C715.506 164.063 718.642 166.924 719.943 167.589C723.906 169.616 731.288 171.455 734.098 175.046C735.306 176.591 734.955 178.942 734.955 180.749C734.955 181.609 735.28 183.486 734.955 184.258C732.52 190.07 716.315 185.567 711.793 187.548C707.225 189.55 703.618 193.171 705.36 198.514C706.167 200.991 705.276 203.607 706.432 205.971C708.043 209.266 711.38 211.063 712.652 214.964C713.771 218.397 714.776 222.221 717.584 224.615C725.95 231.744 729.154 226.594 734.742 223.737C739.254 221.43 744.094 223.293 747.18 218.034C749.891 213.414 748.819 205.906 749.968 204.436C751.993 201.848 755.783 201.56 758.118 199.172C759.932 197.318 760.506 194.574 762.836 193.25C766.29 191.288 770.884 191.207 775.06 188.644C777.657 187.051 778.42 183.161 781.923 183.161C788.593 183.161 793.896 190.754 799.295 193.908C805.476 197.52 812.009 200.845 817.738 205.533C818.689 206.31 823.166 209.352 824.386 208.603C825.328 208.025 825.008 202.188 824.601 201.147C823.575 198.521 818.984 198.428 816.88 197.198C812.923 194.886 810.003 191.111 806.158 188.864C804.362 187.814 802.252 187.217 800.581 185.793C799.614 184.969 796.26 180.481 798.651 179.433C801.519 178.176 803.216 182.015 805.085 183.381C811.806 188.29 820.161 189.149 826.102 195.224C826.948 196.089 827.058 197.324 827.818 198.295C829.914 200.974 835.101 198.724 837.255 200.927C837.716 201.399 837.681 202.951 838.112 203.559C840.612 207.075 844.067 209.687 846.262 213.428C846.678 214.138 846.929 216.024 847.548 216.499C847.897 216.765 848.406 216.792 848.835 216.718C849.81 216.552 849.373 215.617 849.694 214.964C849.873 214.595 851.464 212.834 851.409 212.552C851.339 212.195 841.646 201.1 847.335 200.269C854.72 199.189 858.33 211.859 863.204 215.183C867.307 217.981 884.841 221.186 889.583 219.569C890.593 219.225 891.21 217.57 892.157 217.376C894.796 216.836 896.818 225.28 898.161 227.685C899.466 230.018 905.375 236.857 903.094 239.967C901.428 242.238 894.999 240.35 892.586 240.625C884.056 241.594 888.04 244.347 876.501 242.379C870.312 241.325 864.463 234.107 857.843 235.8C852.146 237.256 854.695 240.486 853.554 244.573C852.941 246.765 850.937 253.997 847.977 253.565C846.657 253.372 838.472 246.792 836.825 245.669C835.784 244.959 832.848 245.889 831.678 245.889C830.105 245.889 829.016 243.327 827.604 243.037C822.319 241.956 815.562 240.154 811.519 236.019C807.677 232.09 808.16 221.044 802.082 220.008C794.773 218.762 788.401 223.263 781.494 224.833C775.301 226.241 768.446 223.986 762.192 225.053C761.271 225.21 760.759 225.795 759.833 225.93C758.48 226.128 756.114 225.31 754.901 225.93C753.815 226.485 753.087 227.692 751.683 228.123C751.013 228.329 748.985 228.244 748.467 228.562C747.595 229.097 746.245 231.671 742.891 233.388C739.059 235.346 732.353 231.428 728.522 233.388C727.75 233.782 725.879 242.815 724.447 243.915C722.204 245.635 717.743 244.876 716.083 247.424C713.143 251.934 716.439 267.342 714.796 269.357C713.17 271.354 709.475 271.967 707.29 273.085C700.328 276.645 689.126 286.329 685.844 293.044C683.601 297.632 684.821 303.833 683.485 308.615C682.317 312.797 678.884 316.352 679.625 320.898C680.121 323.947 682.319 326.687 682.841 329.891C684.239 338.465 681.543 347.513 684.557 355.99C687.127 363.218 694.534 367.323 698.926 373.098C699.924 374.411 700.194 376.139 701.071 377.484C710.691 392.243 728.624 414.826 748.467 412.795C751.293 412.506 765.86 397.889 774.202 400.733C775.509 401.179 776.481 402.526 777.849 402.926C785.896 405.278 800.79 399.478 812.377 401.172C815.47 401.623 820.956 402.269 823.529 404.242C824.419 404.925 825.068 406.256 825.888 407.094C826.893 408.122 828.362 408.567 829.534 409.287C830.861 410.102 831.718 411.61 833.18 412.357C836.42 414.014 842.663 414.409 846.262 413.673C850.226 412.863 856.488 408.52 860.845 407.094C865.857 405.453 871.028 404.025 875.858 401.83C883.745 398.244 890.994 392.495 897.733 387.135C902.83 383.08 908.977 380.304 914.032 376.168C920.782 370.647 927.305 364.899 933.977 359.28C942.2 352.355 948.347 344.34 948.347 333.181C948.347 331.726 949.348 327.941 948.56 326.601C947.923 325.512 943.989 319.293 943.199 318.486C941.587 316.837 939.467 316.03 938.267 313.88C937.136 311.855 937.986 309.172 936.765 307.299C935.746 305.736 933.89 304.811 932.905 303.133C930.385 298.838 928.941 293.491 926.686 288.877C922.43 280.172 914.544 273.339 911.459 263.873C910.284 260.27 908.659 255.308 906.097 252.688C905.35 251.923 903.094 248.916 903.094 247.863C903.094 247.1 902.597 244.921 902.451 245.669C901.265 251.736 908.05 255.727 911.888 259.048C916.645 263.166 931.318 280.84 933.763 286.463C935.062 289.453 932.616 293.953 934.191 296.772C934.427 297.194 954.994 322.434 955.637 323.092C957.451 324.946 959.783 327.036 961.214 329.233C962.999 331.971 967.199 343.008 971.937 339.98C973.244 339.144 973.744 338.258 974.726 337.128C981.528 329.301 986.748 327.79 985.019 315.415C984.518 311.828 981.958 307.972 980.945 304.449C979.695 300.105 978.967 294.369 976.226 290.631C971.212 283.794 962.124 281.169 956.925 274.401C955.179 272.129 954.47 269.06 953.065 266.505C951.77 264.151 949.854 262.129 948.347 259.926C948.075 259.529 946.593 256.316 947.274 255.758C949.103 254.262 951.776 258.828 952.421 259.487C955.295 262.426 958.633 265.397 960.785 268.699C961.955 270.493 964.551 269.838 965.717 271.33C966.639 272.508 972.451 275.981 972.795 273.524C973.186 270.724 970.65 271.098 970.65 269.137" fill="#8DAA5C"/>
</g>
<g filter="url(#filter11_d)">
<path d="M950.766 327.611C952.98 328.516 953.779 331.359 955.278 333.198C965.301 345.497 959.729 345.7 963.591 353.6C966.433 359.413 973.361 359.221 977.128 363.072C978.153 364.121 976.777 366.485 977.366 367.688C977.868 368.713 978.927 369.388 979.266 370.602C981.557 378.806 984.023 393.134 982.828 401.692C981.47 411.419 976.043 415.463 973.803 422.337C971.02 430.876 966.703 439.108 963.591 447.596C962.846 449.629 961.281 451.498 960.978 453.669C958.539 471.135 962.318 489.295 960.028 506.861C958.921 515.352 955.423 528.239 949.816 534.792C945.8 539.486 940.046 542.45 936.515 547.665C928.696 559.216 919.347 587.214 908.016 596.485C906.373 597.83 904.186 598.455 902.553 599.886C891.424 609.641 882.991 619.253 868.354 623.932C865.236 624.928 859.22 627.288 855.766 625.875C855.034 625.576 853.454 625.105 852.916 624.418C850.247 621.006 851.728 612.81 851.728 609.116C851.728 598.305 852.516 589.135 855.053 578.755C856.144 574.293 855.688 559.771 852.678 555.924C851.165 553.989 848.494 552.383 847.216 550.094C845.432 546.901 844.129 541.116 844.129 537.464C844.129 532.514 843.749 527.487 844.841 522.649C847.972 508.775 857.303 500.854 855.529 484.515C855.344 482.821 845.165 469.415 842.941 461.684C840.127 451.901 840.218 442.456 839.141 432.537C838.711 428.581 836.721 413.882 839.616 410.921C841.254 409.245 847.366 411.247 849.591 410.678C851.289 410.244 852.855 408.965 854.103 408.006C858.524 404.615 865.018 402.762 870.253 401.692C880.136 399.669 894.74 383.224 901.128 376.188C909.26 367.232 919.558 360.498 927.966 351.9C930.848 348.952 934.7 346.387 937.229 343.156C937.996 342.174 937.971 340.211 938.653 339.513C940.669 337.452 942.521 335.314 944.59 333.198C945.484 332.283 950.507 321.76 951.953 323.239C953.243 324.56 951.036 326.019 950.766 327.125" fill="#8DAA5C"/>
</g>
<g filter="url(#filter12_d)">
<path d="M714.272 150.079C712.829 150.82 707.975 156.158 711.781 156.158C716.32 156.158 717.098 150.532 721.01 149.732C724.867 148.943 731.451 148.844 730.521 143.132C730.442 142.647 728.75 142.031 728.312 141.683C726.018 139.86 725.77 136.625 723.444 134.678C721.279 132.867 717.671 133.058 715.687 131.03C713.629 128.925 710.192 126.525 708.554 124.43C707.463 123.035 706.794 121.056 705.044 119.624C703.455 118.325 700.842 119.094 699.155 117.713C697.921 116.703 699.886 114.804 698.816 114.008C697.688 113.169 694.782 112.754 693.891 114.008C692.388 116.12 693.081 119.712 694.287 121.767C697.888 127.904 703.438 127.462 706.629 131.378C707.342 132.253 706.332 134.547 706.629 134.852C706.918 135.147 707.523 134.629 707.874 135.141C709.38 137.341 707.207 140.943 709.403 143.189C712.111 145.959 720.201 145.155 712.8 150.832" fill="#8DAA5C"/>
</g>
<g filter="url(#filter13_d)">
<path d="M700.174 137.689C698.185 136.806 699.747 130.943 697.57 130.625C694.186 130.13 686.379 133.283 687.097 137.689C687.245 138.598 689.214 139.391 689.531 140.526C690.238 143.057 689.275 145.172 692.419 146.779C696.777 149.008 701.647 144.998 701.647 140.41C701.647 140.076 703.485 139.951 703.119 139.483C702.891 139.193 701.774 140.056 702.1 139.889C702.227 139.824 700.541 138.672 700.458 138.615" fill="#8DAA5C"/>
</g>
<path d="M660.414 804C461.363 804 300 635.211 300 426.999C300 218.789 461.363 50 660.414 50C859.465 50 1020.83 218.789 1020.83 426.999C1020.83 635.211 859.465 804 660.414 804Z" fill="#3F7EB4"/>
<g filter="url(#filter14_d)">
<path d="M404.101 447.826C406 448.182 404.631 446.126 404.101 445.176C402.887 443.004 400.622 442.163 399.435 440.139C398.594 438.706 399.665 436.133 398.398 434.838C395.856 432.238 378.801 435.79 376.627 434.307C374.903 433.132 375.07 428.464 374.812 426.62C374.344 423.264 374.06 419.892 373.516 416.548C372.827 412.323 375.015 398.163 373.516 395.608C370.48 390.433 355.618 398.97 354.596 392.692C352.852 381.997 363.408 379.451 363.408 366.716C363.408 363.419 358.266 359.15 355.632 362.74C352.048 367.627 354.793 381.56 342.155 381.56C341.028 381.56 338.475 382.064 337.489 381.56C331.297 378.393 330.87 357.116 331.787 350.547C332.675 344.192 337.27 339.081 340.34 333.848C342.272 330.555 340.759 326.623 342.932 323.511C344.77 320.88 347.256 319.046 349.671 316.884C352.831 314.057 355.936 309.535 360.038 308.137C361.683 307.577 363.546 308.116 365.222 307.871C369.223 307.287 372.997 307.076 377.145 307.076C379.803 307.076 381.63 308.483 383.366 310.257C388.626 315.638 388.547 322.437 389.586 329.872C389.943 332.43 388.75 336.42 390.364 338.62C391.252 339.832 394.293 337.921 395.029 337.294C402.032 331.326 397.488 318.796 395.547 311.848C394.256 307.228 394.717 295.997 397.879 292.763C401.659 288.898 407.459 284.418 412.653 282.425C417.305 280.641 421.78 279.718 425.612 275.799C427.976 273.383 428.709 269.592 430.538 266.787C432.606 263.613 435.691 261.266 437.795 258.04C440.399 254.045 440.861 248.808 444.274 245.317C450.821 238.621 458.718 243.184 463.195 239.75C467.02 236.816 462.474 231.49 467.601 227.558C470.499 225.334 479.043 225.424 482.115 224.376C483.973 223.743 488.974 217.777 490.669 219.075C492.034 220.123 489.652 226.456 491.447 226.762C492.251 226.9 494.288 227.03 495.075 226.762C496.074 226.422 499.927 221.519 501.295 220.401C504.729 217.591 512.303 214.419 514.773 211.388C518.872 206.358 504.409 210.063 503.887 210.063C503.259 210.063 501.017 210.446 500.517 210.063C498.551 208.554 501.985 202.057 499.481 200.521C497.004 199.001 486.548 200.114 486.262 199.726C486.121 199.533 486.262 197.674 486.262 197.34C486.262 196.634 486.044 195.566 486.521 194.955C491.644 188.406 514.662 184.819 522.549 183.026C526.53 182.121 531.389 182.831 534.989 180.376C535.675 179.909 536.116 178.818 536.804 178.255C538.512 176.857 541.572 176.036 541.987 173.484C542.54 170.096 534.369 159.498 533.693 154.665C533.34 152.136 532.796 145.826 533.693 143.531C534.365 141.814 537.572 138.834 536.286 136.64C533.576 132.022 517.012 143.5 514.773 142.737C512.797 142.063 522.457 131.36 520.734 128.424C519.324 126.02 509.2 125.994 506.738 126.833C501.555 128.599 492.223 140.88 491.187 146.183C490.825 148.034 492.195 152.323 491.187 153.87C488.584 157.862 483.272 159.762 479.782 162.616C476.803 165.054 474.371 167.621 471.747 170.303C470.576 171.502 460.249 184.473 458.27 181.436C455.415 177.056 463.535 166.086 461.899 160.231C460.882 156.592 455.266 159.014 453.864 157.58C453.304 157.008 453.206 154.868 453.086 154.135C452.764 152.158 452.429 147.336 453.605 145.652C458.963 137.982 474.642 129.616 482.634 124.712C483.473 124.197 483.142 123.128 483.93 122.592C485.081 121.807 486.517 121.004 487.817 120.206C490.506 118.557 494.155 118.515 497.148 117.29C507.427 113.085 504.077 108.279 518.66 108.279C525.85 108.279 537.66 101.378 543.543 97.9403C543.777 97.8034 550.526 93.5444 550.282 93.1701C550.005 92.7451 544.742 93.0973 544.32 93.1701C534.464 94.8492 525.308 101.692 516.328 105.628C515.66 105.921 511.438 107.622 510.626 107.483C508.724 107.159 514.803 102.532 512.699 101.917C511.848 101.668 509.541 102.476 508.812 101.917C506.157 99.881 506.654 99.4163 503.145 100.014C500.465 100.471 492.359 104.169 489.793 105.919C486.741 108 480.24 111.633 477.163 113.52C471.956 116.716 468.074 121.823 462.676 124.977C456.65 128.499 451.042 133.569 445.31 137.965C434.496 146.261 424.37 155.123 414.093 164.133C403.749 173.2 387.309 190.394 379.662 202.124C374.998 209.279 366.985 217.962 362.691 225.282C359.037 231.51 354.277 239.139 350.347 245.167C348.732 247.644 346.743 253.947 345.212 256.45C340.788 263.69 340.66 267.192 336.971 274.738C334.754 279.272 332.847 285.927 329.973 289.847C326.911 294.023 322.562 301.79 321.572 306.851C321.022 309.662 320.687 310.303 322.197 311.848C323.61 313.292 323.348 319.22 322.975 321.125C321.816 327.047 317.889 331.494 316.755 337.294C315.592 343.238 317.994 349.036 317.014 355.053C316.407 358.773 313.274 363.14 314.422 367.246C315.651 371.649 319.662 375.314 321.679 379.44C323.494 383.151 323.789 387.897 325.826 391.367C328.42 395.788 334.218 398.923 338.266 402.235C340.766 404.28 342.106 408.173 345.005 409.657C347.316 410.838 357.434 413.971 358.483 415.223C359.903 416.917 359.85 420.138 360.816 422.115C365.219 431.121 367.572 438.295 376.108 444.115C377.489 445.056 384.565 444.943 386.216 444.38C388.141 443.724 388.575 441.327 390.881 440.934C391.585 440.814 396.115 440.455 396.584 440.934C397.463 441.833 398.246 443.734 399.435 444.645C400.96 445.815 403.441 446.622 404.877 448.091" fill="#8DAA5C"/>
</g>
<g filter="url(#filter15_d)">
<path d="M400.109 446.718C397.352 448.365 394.717 450.013 392.939 452.741C392.275 453.761 392.953 455.04 392.684 456.145C391.809 459.718 388.796 462.547 388.33 466.357C388.163 467.729 388.345 470.131 387.563 471.333C385.876 473.92 383.853 475.637 383.209 478.927C381.72 486.544 382.953 495.507 382.953 503.28C382.953 509.114 380.477 510.882 379.881 516.373C379.324 521.499 379.993 526.711 379.368 531.823C378.724 537.101 375.16 541.839 376.552 547.534C377.053 549.581 381.22 553.679 382.441 556.176C386.744 564.974 391.752 572.317 397.804 579.743C400.865 583.499 402.213 590.342 406.255 593.097C408.386 594.551 411.319 594.86 413.68 596.24C418.2 598.882 422.142 603.575 427.251 604.619C430.818 605.349 435.408 605.368 438.261 608.286C440.529 610.605 447.667 618.443 449.015 620.855C449.899 622.435 450.137 624.398 450.552 626.092C451.018 627.999 454.675 634.178 455.928 635.781C457.996 638.424 460.799 640.501 462.842 643.113C466.321 647.56 465.268 652.998 466.683 658.3C468.591 665.458 471.666 671.998 473.084 679.25C474.159 684.75 482.131 698.772 485.119 703.865C486.022 705.404 494.782 713.746 496.64 715.648C499.004 718.064 498.071 722.583 500.225 725.337C502.486 728.227 504.734 728.847 507.651 730.835C513.057 734.52 516.616 739.442 520.71 741.834C528.626 746.461 536.989 749.885 544.778 754.665C546.144 755.502 547.166 757.369 548.108 758.332C552.343 762.662 557.821 764.347 563.214 766.711C564.402 767.232 574.896 771.172 575.25 770.9C578.779 768.192 563.366 765.112 562.446 764.878C562.134 764.797 548.228 751.371 544.778 749.167C535.625 743.316 536.987 737.303 534.025 728.217C532.717 724.205 527.86 715.163 529.927 710.934C532.267 706.15 540.288 708.336 540.938 707.007C541.581 705.692 541.514 698.954 540.938 697.58C540.42 696.341 536.682 694.843 537.353 693.128C538.219 690.914 545.272 689.539 546.571 684.224C547.311 681.198 546.819 677.97 547.852 674.274C549.231 669.334 553.353 664.599 554.508 659.872C555.329 656.518 553.299 650.83 555.533 648.089C559.177 643.617 567.483 638.069 572.433 635.257C575.438 633.55 579.364 633.046 582.163 631.33C583.097 630.756 582.419 625.078 582.419 623.997C582.419 616.676 584.434 616.013 586.003 609.595C587.864 601.985 583.943 593.645 587.54 586.289C594.195 572.675 608.879 567.362 606.744 549.891C606.558 548.371 605.276 547.628 604.439 546.486C603.684 545.457 603.542 543.735 602.648 542.82C598.467 538.547 591.659 542.963 587.795 540.988C584.503 539.304 582.318 534.727 579.602 532.346C576.324 529.472 566.935 525.671 562.703 524.228C556.162 521.998 543.142 527.53 538.378 522.658C534.84 519.04 530.701 516.181 526.855 513.231C523.84 510.918 519.92 511.638 517.125 508.779C512.236 503.78 519.376 491.736 511.748 488.616C506.793 486.589 498.158 484.063 492.8 483.379C488.578 482.839 481.497 485.078 477.693 482.855C474.374 480.915 472.474 475.16 469.755 472.38C463.965 466.459 456.345 462.488 449.783 457.455C448.866 456.75 447.835 456.07 446.967 455.359C446.064 454.621 446.138 452.267 444.918 451.955C443.643 451.629 434.795 454.05 430.836 454.05C418.781 454.05 410.627 447.813 399.597 445.933C397.303 445.542 396.78 446.74 396.78 448.813" fill="#8DAA5C"/>
</g>
<g filter="url(#filter16_d)">
<path d="M410.321 372.38C403.734 372.72 405.494 366.422 402.332 363.187C395.856 356.566 385.338 365.259 379.506 360.999C373.758 356.801 387.851 350.083 390.348 349.62C394.705 348.809 399.063 355.149 402.759 356.914C407.654 359.249 413.913 359.049 418.167 362.312C418.889 362.866 420.884 365.664 419.594 366.543C417.215 368.165 413.531 368.349 410.178 370.92" fill="#8DAA5C"/>
</g>
<g filter="url(#filter17_d)">
<path d="M429.01 371.941C427.432 372.079 425.624 371.547 424.159 372.38C422.572 373.281 422.395 374.913 421.164 376.173C419.723 377.646 409.913 385.234 412.746 387.407C417.378 390.959 436.254 386.273 440.138 382.3C441.87 380.529 443.617 376.55 441.137 374.859C439.018 373.415 431.161 373.512 427.869 372.671" fill="#8DAA5C"/>
</g>
<g filter="url(#filter18_d)">
<path d="M540.206 188.354C538.824 189.173 537.415 189.949 536.057 190.811C527.212 196.425 540.393 194.22 541.517 199.969C542.791 206.483 535.927 209.199 533.218 213.817C532.197 215.558 538.855 216.05 539.551 216.05C548.371 216.05 545.997 212.713 552.437 210.243C553.303 209.911 558.902 209.593 559.207 209.126C559.401 208.829 559.207 206.921 559.207 206.669C559.207 199.916 553.895 198.716 549.16 195.948C546.977 194.672 545.272 192.008 542.827 191.257C541.058 190.715 538.986 191.034 537.149 191.034" fill="#8DAA5C"/>
</g>
<g filter="url(#filter19_d)">
<path d="M534.682 109.532C531.791 110.385 527.605 108.458 524.77 109.907C522.522 111.056 532.018 125.91 535.416 124.172C538.205 122.746 540.322 119.576 543.308 118.354C545.523 117.447 549.038 119.676 550.833 117.227C553.446 113.664 551.932 107.523 555.422 104.464C558.545 101.727 561.142 105.979 565.15 100.71C566.566 98.8478 574.757 84.4445 573.042 82.6903C568.579 78.1266 556.703 79.9017 551.935 82.5026C551.652 82.6561 548.448 83.9521 548.448 84.3794C548.448 84.6984 549.069 84.4666 549.365 84.567C552.175 85.5253 557.169 88.8106 557.624 92.075C558.053 95.1484 556.498 96.9059 554.688 99.02C547.732 107.151 540.7 104.865 533.581 109.719" fill="#8DAA5C"/>
</g>
<g filter="url(#filter20_d)">
<path d="M519.582 93.881C514.079 93.0751 512.1 92.0761 524.211 91.4236C528.38 91.1995 532.039 89.4255 535.665 87.5708C536.764 87.0089 538.165 87.7618 539.282 87.1083C540.248 86.5431 540.416 85.1366 541.543 84.642C544.227 83.4663 547.12 82.7477 549.833 81.5598C550.287 81.36 555.71 79.141 555.71 79.0936C555.71 78.8043 548.538 81.1348 547.134 80.9957C542.829 80.5696 520.938 91.7493 519.322 93.8159" fill="#8DAA5C"/>
</g>
<g filter="url(#filter21_d)">
<path d="M647.987 67.3828C645.588 67.3707 647.045 66.3473 646.326 65.6121C645.7 64.9718 641.41 65.0999 640.451 65.0999C636.585 65.0999 631.894 64.6594 628.243 65.7258C626.374 66.2723 624.954 68.1611 623.235 69.041C615.357 73.0682 609.751 72.7149 600.986 79.4369C599.307 80.7263 602.425 83.2974 600.397 85.1631C592.971 91.9977 588.464 89.792 588.464 101.888C588.464 104.277 587.984 107.03 589.347 109.121C593.709 115.813 603.195 122.231 609.974 115.299C612.849 112.358 612.545 107.894 614.983 104.902C617.501 101.813 620.631 102.741 622.498 100.834C624.096 99.1988 623.946 95.8913 625.445 94.0533C627.696 91.2901 635.827 88.0345 636.494 86.67C637.047 85.5407 637.279 84.312 637.82 83.2047C638.644 81.5201 638.371 80.0032 640.177 78.684C642.618 76.9011 645.643 76.4629 647.987 74.4647C649.337 73.3144 650.791 67.8377 648.576 66.9313C647.873 66.6432 646.396 66.9313 645.629 66.9313" fill="#8DAA5C"/>
</g>
<g filter="url(#filter22_d)">
<path d="M655.206 86.8202C653.171 86.7782 651.173 87.1138 649.165 86.8202C646.994 86.5034 647.544 91.8597 647.544 93.4505C647.544 99.8314 664.525 96.9953 663.899 90.588C663.493 86.4448 656.232 90.5747 654.764 86.8202" fill="#8DAA5C"/>
</g>
<g filter="url(#filter23_d)">
<path d="M973.65 268.918C972.899 267.275 971.562 265.982 970.862 264.312C969.775 261.719 970.094 258.658 968.717 256.198C963.525 246.903 958.318 233.608 952.204 225.272C947.995 219.533 943.592 212.078 938.693 207.068C934.723 203.008 924.491 193.506 921.75 189.302C915.696 180.016 906.672 170.727 899.446 162.106C894.804 156.567 881.901 145.139 875.686 141.326C871.271 138.617 866.942 136.391 862.987 133.155C857.678 128.811 852.405 125.56 847.17 121.098C838.684 113.866 828.491 112.807 819.002 105.529C817.321 104.239 813.052 102.464 811.542 101.228C809.318 99.4097 806.226 98.3499 803.674 96.8585C798.366 93.7563 793.712 91.2195 788.097 88.7587C783.899 86.9196 777.829 86.0872 773.756 84.3021C770.238 82.7599 766.285 80.6745 762.507 79.8443C759.858 79.2614 759.282 80.2119 753.869 77.9831C747.923 75.5345 738.607 73.6655 732.35 72.5991C730.174 72.2282 726.893 71.2224 724.755 70.7853C723.842 70.5987 719.774 69.784 720.608 70.2101C724.379 72.1387 729.645 71.7325 733.237 73.9371C736.26 75.7917 740.38 75.0719 743.317 76.7886C745.862 78.2756 748.296 80.053 751.038 81.1746C751.646 81.423 758.909 86.2859 758.33 86.8776C756.586 88.6605 751.903 84.0283 749.966 83.3681C746.062 82.0368 743.033 79.4944 739.457 77.6651C732.192 73.9503 724.681 73.2791 716.723 73.2791C715.676 73.2791 710.693 72.6477 710.075 73.2791C708.79 74.5939 708.736 82.9045 709.432 84.6841C710.004 86.149 711.713 86.2075 712.434 87.3159C714.017 89.7424 715.217 93.0079 716.51 95.6507C719.809 102.399 717.792 108.979 726.589 112.977C735.07 116.831 736.704 112.538 744.604 112.538C749.379 112.538 750.938 121.675 755.112 123.505C756.361 124.052 759.328 124.426 760.474 123.724C761.688 122.98 764.256 113.523 763.262 112.1C761.883 110.126 754.499 105.273 752.324 103.327C747.608 99.1061 742.96 94.8051 738.17 90.6057C737.509 90.0261 733.676 86.8412 733.881 86C734.311 84.2403 739.963 89.6419 740.529 90.6057C743.564 95.7788 754.187 103.425 760.045 104.424C768.076 105.792 770.775 104.424 778.06 104.424C778.74 104.424 773.342 103.738 773.342 105.3C773.342 109.637 780.187 106.928 781.277 114.731C781.297 114.875 781.741 115.844 781.491 116.047C780.523 116.84 778.738 115.659 777.846 116.267C776.679 117.062 776.331 123.488 777.202 124.602C782.602 131.504 777.192 129.322 773.985 130.962C770.474 132.758 769.409 135.726 765.192 136.445C761.593 137.059 748.513 128.872 745.891 135.129C743.209 141.527 745.046 149.264 739.242 154.21C737.138 156.004 735.238 155.21 733.023 155.965C731.814 156.377 720.047 161.96 719.941 162.106C718.506 164.063 721.642 166.924 722.943 167.589C726.906 169.616 734.288 171.455 737.098 175.046C738.306 176.591 737.955 178.942 737.955 180.749C737.955 181.609 738.28 183.486 737.955 184.258C735.52 190.07 719.315 185.567 714.793 187.548C710.225 189.55 706.618 193.171 708.36 198.514C709.167 200.991 708.276 203.607 709.432 205.971C711.043 209.266 714.38 211.063 715.652 214.964C716.771 218.397 717.776 222.221 720.584 224.615C728.95 231.744 732.154 226.594 737.742 223.737C742.254 221.43 747.094 223.293 750.18 218.034C752.891 213.414 751.819 205.906 752.968 204.436C754.993 201.848 758.783 201.56 761.118 199.172C762.932 197.318 763.506 194.574 765.836 193.25C769.29 191.288 773.884 191.207 778.06 188.644C780.657 187.051 781.42 183.161 784.923 183.161C791.593 183.161 796.896 190.754 802.295 193.908C808.476 197.52 815.009 200.845 820.738 205.533C821.689 206.31 826.166 209.352 827.386 208.603C828.328 208.025 828.008 202.188 827.601 201.147C826.575 198.521 821.984 198.428 819.88 197.198C815.923 194.886 813.003 191.111 809.158 188.864C807.362 187.814 805.252 187.217 803.581 185.793C802.614 184.969 799.26 180.481 801.651 179.433C804.519 178.176 806.216 182.015 808.085 183.381C814.806 188.29 823.161 189.149 829.102 195.224C829.948 196.089 830.058 197.324 830.818 198.295C832.914 200.974 838.101 198.724 840.255 200.927C840.716 201.399 840.681 202.951 841.112 203.559C843.612 207.075 847.067 209.687 849.262 213.428C849.678 214.138 849.929 216.024 850.548 216.499C850.897 216.765 851.406 216.792 851.835 216.718C852.81 216.552 852.373 215.617 852.694 214.964C852.873 214.595 854.464 212.834 854.409 212.552C854.339 212.195 844.646 201.1 850.335 200.269C857.72 199.189 861.33 211.859 866.204 215.183C870.307 217.981 887.841 221.186 892.583 219.569C893.593 219.225 894.21 217.57 895.157 217.376C897.796 216.836 899.818 225.28 901.161 227.685C902.466 230.018 908.375 236.857 906.094 239.967C904.428 242.238 897.999 240.35 895.586 240.625C887.056 241.594 891.04 244.347 879.501 242.379C873.312 241.325 867.463 234.107 860.843 235.8C855.146 237.256 857.695 240.486 856.554 244.573C855.941 246.765 853.937 253.997 850.977 253.565C849.657 253.372 841.472 246.792 839.825 245.669C838.784 244.959 835.848 245.889 834.678 245.889C833.105 245.889 832.016 243.327 830.604 243.037C825.319 241.956 818.562 240.154 814.519 236.019C810.677 232.09 811.16 221.044 805.082 220.008C797.773 218.762 791.401 223.263 784.494 224.833C778.301 226.241 771.446 223.986 765.192 225.053C764.271 225.21 763.759 225.795 762.833 225.93C761.48 226.128 759.114 225.31 757.901 225.93C756.815 226.485 756.087 227.692 754.683 228.123C754.013 228.329 751.985 228.244 751.467 228.562C750.595 229.097 749.245 231.671 745.891 233.388C742.059 235.346 735.353 231.428 731.522 233.388C730.75 233.782 728.879 242.815 727.447 243.915C725.204 245.635 720.743 244.876 719.083 247.424C716.143 251.934 719.439 267.342 717.796 269.357C716.17 271.354 712.475 271.967 710.29 273.085C703.328 276.645 692.126 286.329 688.844 293.044C686.601 297.632 687.821 303.833 686.485 308.615C685.317 312.797 681.884 316.352 682.625 320.898C683.121 323.947 685.319 326.687 685.841 329.891C687.239 338.465 684.543 347.513 687.557 355.99C690.127 363.218 697.534 367.323 701.926 373.098C702.924 374.411 703.194 376.139 704.071 377.484C713.691 392.243 731.624 414.826 751.467 412.795C754.293 412.506 768.86 397.889 777.202 400.733C778.509 401.179 779.481 402.526 780.849 402.926C788.896 405.278 803.79 399.478 815.377 401.172C818.47 401.623 823.956 402.269 826.529 404.242C827.419 404.925 828.068 406.256 828.888 407.094C829.893 408.122 831.362 408.567 832.534 409.287C833.861 410.102 834.718 411.61 836.18 412.357C839.42 414.014 845.663 414.409 849.262 413.673C853.226 412.863 859.488 408.52 863.845 407.094C868.857 405.453 874.028 404.025 878.858 401.83C886.745 398.244 893.994 392.495 900.733 387.135C905.83 383.08 911.977 380.304 917.032 376.168C923.782 370.647 930.305 364.899 936.977 359.28C945.2 352.355 951.347 344.34 951.347 333.181C951.347 331.726 952.348 327.941 951.56 326.601C950.923 325.512 946.989 319.293 946.199 318.486C944.587 316.837 942.467 316.03 941.267 313.88C940.136 311.855 940.986 309.172 939.765 307.299C938.746 305.736 936.89 304.811 935.905 303.133C933.385 298.838 931.941 293.491 929.686 288.877C925.43 280.172 917.544 273.339 914.459 263.873C913.284 260.27 911.659 255.308 909.097 252.688C908.35 251.923 906.094 248.916 906.094 247.863C906.094 247.1 905.597 244.921 905.451 245.669C904.265 251.736 911.05 255.727 914.888 259.048C919.645 263.166 934.318 280.84 936.763 286.463C938.062 289.453 935.616 293.953 937.191 296.772C937.427 297.194 957.994 322.434 958.637 323.092C960.451 324.946 962.783 327.036 964.214 329.233C965.999 331.971 970.199 343.008 974.937 339.98C976.244 339.144 976.744 338.258 977.726 337.128C984.528 329.301 989.748 327.79 988.019 315.415C987.518 311.828 984.958 307.972 983.945 304.449C982.695 300.105 981.967 294.369 979.226 290.631C974.212 283.794 965.124 281.169 959.925 274.401C958.179 272.129 957.47 269.06 956.065 266.505C954.77 264.151 952.854 262.129 951.347 259.926C951.075 259.529 949.593 256.316 950.274 255.758C952.103 254.262 954.776 258.828 955.421 259.487C958.295 262.426 961.633 265.397 963.785 268.699C964.955 270.493 967.551 269.838 968.717 271.33C969.639 272.508 975.451 275.981 975.795 273.524C976.186 270.724 973.65 271.098 973.65 269.137" fill="#8DAA5C"/>
</g>
<g filter="url(#filter24_d)">
<path d="M953.766 327.611C955.98 328.516 956.779 331.359 958.278 333.198C968.301 345.497 962.729 345.7 966.591 353.6C969.433 359.413 976.361 359.221 980.128 363.072C981.153 364.121 979.777 366.485 980.366 367.688C980.868 368.713 981.927 369.388 982.266 370.602C984.557 378.806 987.023 393.134 985.828 401.692C984.47 411.419 979.043 415.463 976.803 422.337C974.02 430.876 969.703 439.108 966.591 447.596C965.846 449.629 964.281 451.498 963.978 453.669C961.539 471.135 965.318 489.295 963.028 506.861C961.921 515.352 958.423 528.239 952.816 534.792C948.8 539.486 943.046 542.45 939.515 547.665C931.696 559.216 922.347 587.214 911.016 596.485C909.373 597.83 907.186 598.455 905.553 599.886C894.424 609.641 885.991 619.253 871.354 623.932C868.236 624.928 862.22 627.288 858.766 625.875C858.034 625.576 856.454 625.105 855.916 624.418C853.247 621.006 854.728 612.81 854.728 609.116C854.728 598.305 855.516 589.135 858.053 578.755C859.144 574.293 858.688 559.771 855.678 555.924C854.165 553.989 851.494 552.383 850.216 550.094C848.432 546.901 847.129 541.116 847.129 537.464C847.129 532.514 846.749 527.487 847.841 522.649C850.972 508.775 860.303 500.854 858.529 484.515C858.344 482.821 848.165 469.415 845.941 461.684C843.127 451.901 843.218 442.456 842.141 432.537C841.711 428.581 839.721 413.882 842.616 410.921C844.254 409.245 850.366 411.247 852.591 410.678C854.289 410.244 855.855 408.965 857.103 408.006C861.524 404.615 868.018 402.762 873.253 401.692C883.136 399.669 897.74 383.224 904.128 376.188C912.26 367.232 922.558 360.498 930.966 351.9C933.848 348.952 937.7 346.387 940.229 343.156C940.996 342.174 940.971 340.211 941.653 339.513C943.669 337.452 945.521 335.314 947.59 333.198C948.484 332.283 953.507 321.76 954.953 323.239C956.243 324.56 954.036 326.019 953.766 327.125" fill="#8DAA5C"/>
</g>
<g filter="url(#filter25_d)">
<path d="M717.272 150.079C715.829 150.82 710.975 156.158 714.781 156.158C719.32 156.158 720.098 150.532 724.01 149.732C727.867 148.943 734.451 148.844 733.521 143.132C733.442 142.647 731.75 142.031 731.312 141.683C729.018 139.86 728.77 136.625 726.444 134.678C724.279 132.867 720.671 133.058 718.687 131.03C716.629 128.925 713.192 126.525 711.554 124.43C710.463 123.035 709.794 121.056 708.044 119.624C706.455 118.325 703.842 119.094 702.155 117.713C700.921 116.703 702.886 114.804 701.816 114.008C700.688 113.169 697.782 112.754 696.891 114.008C695.388 116.12 696.081 119.712 697.287 121.767C700.888 127.904 706.438 127.462 709.629 131.378C710.342 132.253 709.332 134.547 709.629 134.852C709.918 135.147 710.523 134.629 710.874 135.141C712.38 137.341 710.207 140.943 712.403 143.189C715.111 145.959 723.201 145.155 715.8 150.832" fill="#8DAA5C"/>
</g>
<g filter="url(#filter26_d)">
<path d="M703.174 137.689C701.185 136.806 702.747 130.943 700.57 130.625C697.186 130.13 689.379 133.283 690.097 137.689C690.245 138.598 692.214 139.391 692.531 140.526C693.238 143.057 692.275 145.172 695.419 146.779C699.777 149.008 704.647 144.998 704.647 140.41C704.647 140.076 706.485 139.951 706.119 139.483C705.891 139.193 704.774 140.056 705.1 139.889C705.227 139.824 703.541 138.672 703.458 138.615" fill="#8DAA5C"/>
</g>
<g clip-path="url(#clip0)">
<g filter="url(#filter27_d)">
<path d="M328.516 502.203C309.911 502.203 295.507 495.804 285.304 483.006C275.101 470.208 270 450.173 270 422.902C270 395.934 275.161 375.899 285.484 362.797C295.807 349.694 310.151 343.143 328.516 343.143C343.039 343.143 357.323 346.875 371.367 354.341V387.936C363.205 382.451 356.123 378.413 350.121 375.823C344.24 373.233 338.238 371.938 332.117 371.938C321.194 371.938 313.031 375.823 307.63 383.593C302.349 391.211 299.708 404.238 299.708 422.673C299.708 440.803 302.409 453.83 307.81 461.753C313.211 469.523 320.894 473.408 330.856 473.408C337.938 473.408 343.46 472.189 347.421 469.751V442.784H327.615V413.989H376.588V485.749C360.984 496.718 344.96 502.203 328.516 502.203ZM402.165 346.571H484.447V375.138H431.333V408.275H477.425V437.071H431.333V470.437H484.447V499.004H402.165V346.571ZM562.367 502.203C544.002 502.203 529.658 495.576 519.335 482.321C509.012 469.066 503.851 449.259 503.851 422.902C503.851 397.001 508.892 377.347 518.975 363.939C529.178 350.38 543.642 343.6 562.367 343.6C580.732 343.6 595.075 350.227 605.398 363.482C615.841 376.585 621.062 396.315 621.062 422.673C621.062 448.574 615.961 468.304 605.758 481.864C595.676 495.423 581.212 502.203 562.367 502.203ZM562.367 471.808C571.849 471.808 578.991 467.999 583.792 460.381C588.594 452.763 590.994 440.194 590.994 422.673C590.994 405.152 588.594 392.659 583.792 385.193C579.111 377.575 571.969 373.766 562.367 373.766C552.884 373.766 545.742 377.575 540.941 385.193C536.26 392.811 533.919 405.457 533.919 423.13C533.919 440.499 536.26 452.992 540.941 460.61C545.742 468.075 552.884 471.808 562.367 471.808ZM731.307 492.148C734.427 497.785 737.968 500.604 741.929 500.604C744.09 500.604 745.95 500.299 747.511 499.689C749.191 499.08 751.232 497.861 753.632 496.033V518.886C749.671 521.629 743.97 523 736.528 523C723.084 523 713.842 516.22 708.801 502.66C703.999 503.422 699.438 503.803 695.117 503.803C675.792 503.803 661.208 497.252 651.365 484.149C641.523 470.894 636.601 450.478 636.601 422.902C636.601 395.934 641.403 375.747 651.005 362.34C660.728 348.78 675.432 342 695.117 342C714.562 342 729.206 348.628 739.049 361.883C748.891 374.985 753.813 395.249 753.813 422.673C753.813 456.496 746.311 479.654 731.307 492.148ZM695.117 370.567C685.514 370.567 678.372 374.604 673.691 382.679C669.01 390.602 666.669 404.085 666.669 423.13C666.669 433.643 667.33 442.708 668.65 450.326V449.412C670.81 445.298 674.111 441.794 678.553 438.899C682.994 435.852 687.855 434.328 693.136 434.328C705.14 434.328 714.262 441.565 720.504 456.039C722.664 447.812 723.745 436.69 723.745 422.673C723.745 403.781 721.344 390.373 716.543 382.451C711.861 374.528 704.719 370.567 695.117 370.567ZM673.871 466.323C676.272 470.589 679.213 473.636 682.694 475.465C686.175 477.293 690.316 478.207 695.117 478.207C696.917 478.207 699.378 477.902 702.499 477.293C700.818 471.808 698.658 467.618 696.017 464.723C693.497 461.676 690.676 460.153 687.555 460.153C682.394 460.153 677.832 462.21 673.871 466.323ZM829.668 503.803C811.063 503.803 797.199 498.775 788.077 488.72C778.954 478.664 774.393 463.124 774.393 442.098V346.571H804.821V440.499C804.821 452.23 806.682 460.915 810.403 466.552C814.124 472.189 820.065 475.008 828.227 475.008C835.789 475.008 841.611 472.113 845.692 466.323C849.773 460.534 851.814 451.926 851.814 440.499V346.571H879.541V442.098C879.541 462.667 875.04 478.131 866.037 488.491C857.155 498.699 845.032 503.803 829.668 503.803ZM905.033 346.571H934.2V499.004H905.033V346.571ZM1051 373.081L993.384 470.208H1051V499.004H956.654V472.037L1015.71 375.595H957.555V346.571H1051V373.081Z" fill="white"/>
</g>
</g>
</g>
<defs>
<filter id="filter0_d" x="265" y="50" width="791" height="762" filterUnits="userSpaceOnUse" color-interpolation-filters="sRGB">
<feFlood flood-opacity="0" result="BackgroundImageFix"/>
<feColorMatrix in="SourceAlpha" type="matrix" values="0 0 0 0 0 0 0 0 0 0 0 0 0 0 0 0 0 0 127 0"/>
<feOffset dy="4"/>
<feGaussianBlur stdDeviation="2"/>
<feColorMatrix type="matrix" values="0 0 0 0 0 0 0 0 0 0 0 0 0 0 0 0 0 0 0.5 0"/>
<feBlend mode="normal" in2="BackgroundImageFix" result="effect1_dropShadow"/>
<feBlend mode="normal" in="SourceGraphic" in2="effect1_dropShadow" result="shape"/>
</filter>
<filter id="filter1_d" x="307.171" y="92.964" width="244.117" height="374.127" filterUnits="userSpaceOnUse" color-interpolation-filters="sRGB">
<feFlood flood-opacity="0" result="BackgroundImageFix"/>
<feColorMatrix in="SourceAlpha" type="matrix" values="0 0 0 0 0 0 0 0 0 0 0 0 0 0 0 0 0 0 127 0"/>
<feOffset dy="15"/>
<feGaussianBlur stdDeviation="2"/>
<feColorMatrix type="matrix" values="0 0 0 0 0 0 0 0 0 0 0 0 0 0 0 0 0 0 0.25 0"/>
<feBlend mode="normal" in2="BackgroundImageFix" result="effect1_dropShadow"/>
<feBlend mode="normal" in="SourceGraphic" in2="effect1_dropShadow" result="shape"/>
</filter>
<filter id="filter2_d" x="369.232" y="445.859" width="238.722" height="344.054" filterUnits="userSpaceOnUse" color-interpolation-filters="sRGB">
<feFlood flood-opacity="0" result="BackgroundImageFix"/>
<feColorMatrix in="SourceAlpha" type="matrix" values="0 0 0 0 0 0 0 0 0 0 0 0 0 0 0 0 0 0 127 0"/>
<feOffset dy="15"/>
<feGaussianBlur stdDeviation="2"/>
<feColorMatrix type="matrix" values="0 0 0 0 0 0 0 0 0 0 0 0 0 0 0 0 0 0 0.25 0"/>
<feBlend mode="normal" in2="BackgroundImageFix" result="effect1_dropShadow"/>
<feBlend mode="normal" in="SourceGraphic" in2="effect1_dropShadow" result="shape"/>
</filter>
<filter id="filter3_d" x="371.14" y="349.548" width="49.8785" height="41.8446" filterUnits="userSpaceOnUse" color-interpolation-filters="sRGB">
<feFlood flood-opacity="0" result="BackgroundImageFix"/>
<feColorMatrix in="SourceAlpha" type="matrix" values="0 0 0 0 0 0 0 0 0 0 0 0 0 0 0 0 0 0 127 0"/>
<feOffset dy="15"/>
<feGaussianBlur stdDeviation="2"/>
<feColorMatrix type="matrix" values="0 0 0 0 0 0 0 0 0 0 0 0 0 0 0 0 0 0 0.25 0"/>
<feBlend mode="normal" in2="BackgroundImageFix" result="effect1_dropShadow"/>
<feBlend mode="normal" in="SourceGraphic" in2="effect1_dropShadow" result="shape"/>
</filter>
<filter id="filter4_d" x="405.235" y="371.899" width="38.1346" height="35.7671" filterUnits="userSpaceOnUse" color-interpolation-filters="sRGB">
<feFlood flood-opacity="0" result="BackgroundImageFix"/>
<feColorMatrix in="SourceAlpha" type="matrix" values="0 0 0 0 0 0 0 0 0 0 0 0 0 0 0 0 0 0 127 0"/>
<feOffset dy="15"/>
<feGaussianBlur stdDeviation="2"/>
<feColorMatrix type="matrix" values="0 0 0 0 0 0 0 0 0 0 0 0 0 0 0 0 0 0 0.25 0"/>
<feBlend mode="normal" in2="BackgroundImageFix" result="effect1_dropShadow"/>
<feBlend mode="normal" in="SourceGraphic" in2="effect1_dropShadow" result="shape"/>
</filter>
<filter id="filter5_d" x="526.02" y="188.354" width="34.2726" height="46.696" filterUnits="userSpaceOnUse" color-interpolation-filters="sRGB">
<feFlood flood-opacity="0" result="BackgroundImageFix"/>
<feColorMatrix in="SourceAlpha" type="matrix" values="0 0 0 0 0 0 0 0 0 0 0 0 0 0 0 0 0 0 127 0"/>
<feOffset dy="15"/>
<feGaussianBlur stdDeviation="2"/>
<feColorMatrix type="matrix" values="0 0 0 0 0 0 0 0 0 0 0 0 0 0 0 0 0 0 0.25 0"/>
<feBlend mode="normal" in2="BackgroundImageFix" result="effect1_dropShadow"/>
<feBlend mode="normal" in="SourceGraphic" in2="effect1_dropShadow" result="shape"/>
</filter>
<filter id="filter6_d" x="517.43" y="79.8776" width="56.8466" height="63.436" filterUnits="userSpaceOnUse" color-interpolation-filters="sRGB">
<feFlood flood-opacity="0" result="BackgroundImageFix"/>
<feColorMatrix in="SourceAlpha" type="matrix" values="0 0 0 0 0 0 0 0 0 0 0 0 0 0 0 0 0 0 127 0"/>
<feOffset dy="15"/>
<feGaussianBlur stdDeviation="2"/>
<feColorMatrix type="matrix" values="0 0 0 0 0 0 0 0 0 0 0 0 0 0 0 0 0 0 0.25 0"/>
<feBlend mode="normal" in2="BackgroundImageFix" result="effect1_dropShadow"/>
<feBlend mode="normal" in="SourceGraphic" in2="effect1_dropShadow" result="shape"/>
</filter>
<filter id="filter7_d" x="508.253" y="79.0687" width="48.4569" height="33.8123" filterUnits="userSpaceOnUse" color-interpolation-filters="sRGB">
<feFlood flood-opacity="0" result="BackgroundImageFix"/>
<feColorMatrix in="SourceAlpha" type="matrix" values="0 0 0 0 0 0 0 0 0 0 0 0 0 0 0 0 0 0 127 0"/>
<feOffset dy="15"/>
<feGaussianBlur stdDeviation="2"/>
<feColorMatrix type="matrix" values="0 0 0 0 0 0 0 0 0 0 0 0 0 0 0 0 0 0 0.25 0"/>
<feBlend mode="normal" in2="BackgroundImageFix" result="effect1_dropShadow"/>
<feBlend mode="normal" in="SourceGraphic" in2="effect1_dropShadow" result="shape"/>
</filter>
<filter id="filter8_d" x="581.382" y="65.0097" width="69.337" height="72.2772" filterUnits="userSpaceOnUse" color-interpolation-filters="sRGB">
<feFlood flood-opacity="0" result="BackgroundImageFix"/>
<feColorMatrix in="SourceAlpha" type="matrix" values="0 0 0 0 0 0 0 0 0 0 0 0 0 0 0 0 0 0 127 0"/>
<feOffset dy="15"/>
<feGaussianBlur stdDeviation="2"/>
<feColorMatrix type="matrix" values="0 0 0 0 0 0 0 0 0 0 0 0 0 0 0 0 0 0 0.25 0"/>
<feBlend mode="normal" in2="BackgroundImageFix" result="effect1_dropShadow"/>
<feBlend mode="normal" in="SourceGraphic" in2="effect1_dropShadow" result="shape"/>
</filter>
<filter id="filter9_d" x="640.482" y="86.8067" width="24.434" height="29.2389" filterUnits="userSpaceOnUse" color-interpolation-filters="sRGB">
<feFlood flood-opacity="0" result="BackgroundImageFix"/>
<feColorMatrix in="SourceAlpha" type="matrix" values="0 0 0 0 0 0 0 0 0 0 0 0 0 0 0 0 0 0 127 0"/>
<feOffset dy="15"/>
<feGaussianBlur stdDeviation="2"/>
<feColorMatrix type="matrix" values="0 0 0 0 0 0 0 0 0 0 0 0 0 0 0 0 0 0 0.25 0"/>
<feBlend mode="normal" in2="BackgroundImageFix" result="effect1_dropShadow"/>
<feBlend mode="normal" in="SourceGraphic" in2="effect1_dropShadow" result="shape"/>
</filter>
<filter id="filter10_d" x="675.521" y="70.0884" width="313.832" height="362.94" filterUnits="userSpaceOnUse" color-interpolation-filters="sRGB">
<feFlood flood-opacity="0" result="BackgroundImageFix"/>
<feColorMatrix in="SourceAlpha" type="matrix" values="0 0 0 0 0 0 0 0 0 0 0 0 0 0 0 0 0 0 127 0"/>
<feOffset dy="15"/>
<feGaussianBlur stdDeviation="2"/>
<feColorMatrix type="matrix" values="0 0 0 0 0 0 0 0 0 0 0 0 0 0 0 0 0 0 0.25 0"/>
<feBlend mode="normal" in2="BackgroundImageFix" result="effect1_dropShadow"/>
<feBlend mode="normal" in="SourceGraphic" in2="effect1_dropShadow" result="shape"/>
</filter>
<filter id="filter11_d" x="834.074" y="323.097" width="153.066" height="322.217" filterUnits="userSpaceOnUse" color-interpolation-filters="sRGB">
<feFlood flood-opacity="0" result="BackgroundImageFix"/>
<feColorMatrix in="SourceAlpha" type="matrix" values="0 0 0 0 0 0 0 0 0 0 0 0 0 0 0 0 0 0 127 0"/>
<feOffset dy="15"/>
<feGaussianBlur stdDeviation="2"/>
<feColorMatrix type="matrix" values="0 0 0 0 0 0 0 0 0 0 0 0 0 0 0 0 0 0 0.25 0"/>
<feBlend mode="normal" in2="BackgroundImageFix" result="effect1_dropShadow"/>
<feBlend mode="normal" in="SourceGraphic" in2="effect1_dropShadow" result="shape"/>
</filter>
<filter id="filter12_d" x="689.034" y="113.216" width="45.5762" height="61.9425" filterUnits="userSpaceOnUse" color-interpolation-filters="sRGB">
<feFlood flood-opacity="0" result="BackgroundImageFix"/>
<feColorMatrix in="SourceAlpha" type="matrix" values="0 0 0 0 0 0 0 0 0 0 0 0 0 0 0 0 0 0 127 0"/>
<feOffset dy="15"/>
<feGaussianBlur stdDeviation="2"/>
<feColorMatrix type="matrix" values="0 0 0 0 0 0 0 0 0 0 0 0 0 0 0 0 0 0 0.25 0"/>
<feBlend mode="normal" in2="BackgroundImageFix" result="effect1_dropShadow"/>
<feBlend mode="normal" in="SourceGraphic" in2="effect1_dropShadow" result="shape"/>
</filter>
<filter id="filter13_d" x="683.051" y="130.574" width="24.1165" height="35.8394" filterUnits="userSpaceOnUse" color-interpolation-filters="sRGB">
<feFlood flood-opacity="0" result="BackgroundImageFix"/>
<feColorMatrix in="SourceAlpha" type="matrix" values="0 0 0 0 0 0 0 0 0 0 0 0 0 0 0 0 0 0 127 0"/>
<feOffset dy="15"/>
<feGaussianBlur stdDeviation="2"/>
<feColorMatrix type="matrix" values="0 0 0 0 0 0 0 0 0 0 0 0 0 0 0 0 0 0 0.25 0"/>
<feBlend mode="normal" in2="BackgroundImageFix" result="effect1_dropShadow"/>
<feBlend mode="normal" in="SourceGraphic" in2="effect1_dropShadow" result="shape"/>
</filter>
<filter id="filter14_d" x="310.171" y="92.964" width="244.117" height="374.127" filterUnits="userSpaceOnUse" color-interpolation-filters="sRGB">
<feFlood flood-opacity="0" result="BackgroundImageFix"/>
<feColorMatrix in="SourceAlpha" type="matrix" values="0 0 0 0 0 0 0 0 0 0 0 0 0 0 0 0 0 0 127 0"/>
<feOffset dy="15"/>
<feGaussianBlur stdDeviation="2"/>
<feColorMatrix type="matrix" values="0 0 0 0 0 0 0 0 0 0 0 0 0 0 0 0 0 0 0.25 0"/>
<feBlend mode="normal" in2="BackgroundImageFix" result="effect1_dropShadow"/>
<feBlend mode="normal" in="SourceGraphic" in2="effect1_dropShadow" result="shape"/>
</filter>
<filter id="filter15_d" x="372.232" y="445.859" width="238.722" height="344.054" filterUnits="userSpaceOnUse" color-interpolation-filters="sRGB">
<feFlood flood-opacity="0" result="BackgroundImageFix"/>
<feColorMatrix in="SourceAlpha" type="matrix" values="0 0 0 0 0 0 0 0 0 0 0 0 0 0 0 0 0 0 127 0"/>
<feOffset dy="15"/>
<feGaussianBlur stdDeviation="2"/>
<feColorMatrix type="matrix" values="0 0 0 0 0 0 0 0 0 0 0 0 0 0 0 0 0 0 0.25 0"/>
<feBlend mode="normal" in2="BackgroundImageFix" result="effect1_dropShadow"/>
<feBlend mode="normal" in="SourceGraphic" in2="effect1_dropShadow" result="shape"/>
</filter>
<filter id="filter16_d" x="374.14" y="349.548" width="49.8785" height="41.8446" filterUnits="userSpaceOnUse" color-interpolation-filters="sRGB">
<feFlood flood-opacity="0" result="BackgroundImageFix"/>
<feColorMatrix in="SourceAlpha" type="matrix" values="0 0 0 0 0 0 0 0 0 0 0 0 0 0 0 0 0 0 127 0"/>
<feOffset dy="15"/>
<feGaussianBlur stdDeviation="2"/>
<feColorMatrix type="matrix" values="0 0 0 0 0 0 0 0 0 0 0 0 0 0 0 0 0 0 0.25 0"/>
<feBlend mode="normal" in2="BackgroundImageFix" result="effect1_dropShadow"/>
<feBlend mode="normal" in="SourceGraphic" in2="effect1_dropShadow" result="shape"/>
</filter>
<filter id="filter17_d" x="408.235" y="371.899" width="38.1346" height="35.7671" filterUnits="userSpaceOnUse" color-interpolation-filters="sRGB">
<feFlood flood-opacity="0" result="BackgroundImageFix"/>
<feColorMatrix in="SourceAlpha" type="matrix" values="0 0 0 0 0 0 0 0 0 0 0 0 0 0 0 0 0 0 127 0"/>
<feOffset dy="15"/>
<feGaussianBlur stdDeviation="2"/>
<feColorMatrix type="matrix" values="0 0 0 0 0 0 0 0 0 0 0 0 0 0 0 0 0 0 0.25 0"/>
<feBlend mode="normal" in2="BackgroundImageFix" result="effect1_dropShadow"/>
<feBlend mode="normal" in="SourceGraphic" in2="effect1_dropShadow" result="shape"/>
</filter>
<filter id="filter18_d" x="529.02" y="188.354" width="34.2726" height="46.696" filterUnits="userSpaceOnUse" color-interpolation-filters="sRGB">
<feFlood flood-opacity="0" result="BackgroundImageFix"/>
<feColorMatrix in="SourceAlpha" type="matrix" values="0 0 0 0 0 0 0 0 0 0 0 0 0 0 0 0 0 0 127 0"/>
<feOffset dy="15"/>
<feGaussianBlur stdDeviation="2"/>
<feColorMatrix type="matrix" values="0 0 0 0 0 0 0 0 0 0 0 0 0 0 0 0 0 0 0.25 0"/>
<feBlend mode="normal" in2="BackgroundImageFix" result="effect1_dropShadow"/>
<feBlend mode="normal" in="SourceGraphic" in2="effect1_dropShadow" result="shape"/>
</filter>
<filter id="filter19_d" x="520.43" y="79.8776" width="56.8466" height="63.436" filterUnits="userSpaceOnUse" color-interpolation-filters="sRGB">
<feFlood flood-opacity="0" result="BackgroundImageFix"/>
<feColorMatrix in="SourceAlpha" type="matrix" values="0 0 0 0 0 0 0 0 0 0 0 0 0 0 0 0 0 0 127 0"/>
<feOffset dy="15"/>
<feGaussianBlur stdDeviation="2"/>
<feColorMatrix type="matrix" values="0 0 0 0 0 0 0 0 0 0 0 0 0 0 0 0 0 0 0.25 0"/>
<feBlend mode="normal" in2="BackgroundImageFix" result="effect1_dropShadow"/>
<feBlend mode="normal" in="SourceGraphic" in2="effect1_dropShadow" result="shape"/>
</filter>
<filter id="filter20_d" x="511.253" y="79.0687" width="48.4569" height="33.8123" filterUnits="userSpaceOnUse" color-interpolation-filters="sRGB">
<feFlood flood-opacity="0" result="BackgroundImageFix"/>
<feColorMatrix in="SourceAlpha" type="matrix" values="0 0 0 0 0 0 0 0 0 0 0 0 0 0 0 0 0 0 127 0"/>
<feOffset dy="15"/>
<feGaussianBlur stdDeviation="2"/>
<feColorMatrix type="matrix" values="0 0 0 0 0 0 0 0 0 0 0 0 0 0 0 0 0 0 0.25 0"/>
<feBlend mode="normal" in2="BackgroundImageFix" result="effect1_dropShadow"/>
<feBlend mode="normal" in="SourceGraphic" in2="effect1_dropShadow" result="shape"/>
</filter>
<filter id="filter21_d" x="584.382" y="65.0097" width="69.337" height="72.2772" filterUnits="userSpaceOnUse" color-interpolation-filters="sRGB">
<feFlood flood-opacity="0" result="BackgroundImageFix"/>
<feColorMatrix in="SourceAlpha" type="matrix" values="0 0 0 0 0 0 0 0 0 0 0 0 0 0 0 0 0 0 127 0"/>
<feOffset dy="15"/>
<feGaussianBlur stdDeviation="2"/>
<feColorMatrix type="matrix" values="0 0 0 0 0 0 0 0 0 0 0 0 0 0 0 0 0 0 0.25 0"/>
<feBlend mode="normal" in2="BackgroundImageFix" result="effect1_dropShadow"/>
<feBlend mode="normal" in="SourceGraphic" in2="effect1_dropShadow" result="shape"/>
</filter>
<filter id="filter22_d" x="643.482" y="86.8067" width="24.434" height="29.2389" filterUnits="userSpaceOnUse" color-interpolation-filters="sRGB">
<feFlood flood-opacity="0" result="BackgroundImageFix"/>
<feColorMatrix in="SourceAlpha" type="matrix" values="0 0 0 0 0 0 0 0 0 0 0 0 0 0 0 0 0 0 127 0"/>
<feOffset dy="15"/>
<feGaussianBlur stdDeviation="2"/>
<feColorMatrix type="matrix" values="0 0 0 0 0 0 0 0 0 0 0 0 0 0 0 0 0 0 0.25 0"/>
<feBlend mode="normal" in2="BackgroundImageFix" result="effect1_dropShadow"/>
<feBlend mode="normal" in="SourceGraphic" in2="effect1_dropShadow" result="shape"/>
</filter>
<filter id="filter23_d" x="678.521" y="70.0884" width="313.832" height="362.94" filterUnits="userSpaceOnUse" color-interpolation-filters="sRGB">
<feFlood flood-opacity="0" result="BackgroundImageFix"/>
<feColorMatrix in="SourceAlpha" type="matrix" values="0 0 0 0 0 0 0 0 0 0 0 0 0 0 0 0 0 0 127 0"/>
<feOffset dy="15"/>
<feGaussianBlur stdDeviation="2"/>
<feColorMatrix type="matrix" values="0 0 0 0 0 0 0 0 0 0 0 0 0 0 0 0 0 0 0.25 0"/>
<feBlend mode="normal" in2="BackgroundImageFix" result="effect1_dropShadow"/>
<feBlend mode="normal" in="SourceGraphic" in2="effect1_dropShadow" result="shape"/>
</filter>
<filter id="filter24_d" x="837.074" y="323.097" width="153.066" height="322.217" filterUnits="userSpaceOnUse" color-interpolation-filters="sRGB">
<feFlood flood-opacity="0" result="BackgroundImageFix"/>
<feColorMatrix in="SourceAlpha" type="matrix" values="0 0 0 0 0 0 0 0 0 0 0 0 0 0 0 0 0 0 127 0"/>
<feOffset dy="15"/>
<feGaussianBlur stdDeviation="2"/>
<feColorMatrix type="matrix" values="0 0 0 0 0 0 0 0 0 0 0 0 0 0 0 0 0 0 0.25 0"/>
<feBlend mode="normal" in2="BackgroundImageFix" result="effect1_dropShadow"/>
<feBlend mode="normal" in="SourceGraphic" in2="effect1_dropShadow" result="shape"/>
</filter>
<filter id="filter25_d" x="692.034" y="113.216" width="45.5762" height="61.9425" filterUnits="userSpaceOnUse" color-interpolation-filters="sRGB">
<feFlood flood-opacity="0" result="BackgroundImageFix"/>
<feColorMatrix in="SourceAlpha" type="matrix" values="0 0 0 0 0 0 0 0 0 0 0 0 0 0 0 0 0 0 127 0"/>
<feOffset dy="15"/>
<feGaussianBlur stdDeviation="2"/>
<feColorMatrix type="matrix" values="0 0 0 0 0 0 0 0 0 0 0 0 0 0 0 0 0 0 0.25 0"/>
<feBlend mode="normal" in2="BackgroundImageFix" result="effect1_dropShadow"/>
<feBlend mode="normal" in="SourceGraphic" in2="effect1_dropShadow" result="shape"/>
</filter>
<filter id="filter26_d" x="686.051" y="130.574" width="24.1165" height="35.8394" filterUnits="userSpaceOnUse" color-interpolation-filters="sRGB">
<feFlood flood-opacity="0" result="BackgroundImageFix"/>
<feColorMatrix in="SourceAlpha" type="matrix" values="0 0 0 0 0 0 0 0 0 0 0 0 0 0 0 0 0 0 127 0"/>
<feOffset dy="15"/>
<feGaussianBlur stdDeviation="2"/>
<feColorMatrix type="matrix" values="0 0 0 0 0 0 0 0 0 0 0 0 0 0 0 0 0 0 0.25 0"/>
<feBlend mode="normal" in2="BackgroundImageFix" result="effect1_dropShadow"/>
<feBlend mode="normal" in="SourceGraphic" in2="effect1_dropShadow" result="shape"/>
</filter>
<filter id="filter27_d" x="270" y="342" width="803.999" height="189" filterUnits="userSpaceOnUse" color-interpolation-filters="sRGB">
<feFlood flood-opacity="0" result="BackgroundImageFix"/>
<feColorMatrix in="SourceAlpha" type="matrix" values="0 0 0 0 0 0 0 0 0 0 0 0 0 0 0 0 0 0 127 0"/>
<feOffset dx="19" dy="4"/>
<feGaussianBlur stdDeviation="2"/>
<feColorMatrix type="matrix" values="0 0 0 0 0 0 0 0 0 0 0 0 0 0 0 0 0 0 0.5 0"/>
<feBlend mode="normal" in2="BackgroundImageFix" result="effect1_dropShadow"/>
<feBlend mode="normal" in="SourceGraphic" in2="effect1_dropShadow" result="shape"/>
</filter>
<clipPath id="clip0">
<path d="M269 342H1052V523H269V342Z" fill="white"/>
</clipPath>
</defs>
</svg>
