<svg width="1440" height="1059" viewBox="0 0 1440 1059" fill="none" xmlns="http://www.w3.org/2000/svg">
<path d="M470 171.121C420.4 149.646 255.5 64.7867 10 205.277H-4V0H1438V177.811C1203.83 250.974 892.71 264.951 810 257.034C707 247.175 532 197.965 470 171.121Z" fill="#347DAD" fill-opacity="0.08"/>
<rect width="9.34729" height="9.33317" transform="matrix(0.826486 0.562957 -0.537995 0.842948 1384.5 281.742)" fill="white" fill-opacity="0.27"/>
<rect width="9.34729" height="9.33317" transform="matrix(0.826486 0.562957 -0.537995 0.842948 1298.07 431.074)" fill="white" fill-opacity="0.27"/>
<rect width="9.34729" height="9.33317" transform="matrix(0.826486 0.562957 -0.537995 0.842948 1320.01 714.66)" fill="white" fill-opacity="0.27"/>
<rect width="9.34729" height="9.33317" transform="matrix(0.826486 0.562957 -0.537995 0.842948 1189.43 544.172)" fill="white" fill-opacity="0.27"/>
<rect width="9.34729" height="9.33317" transform="matrix(0.826486 0.562957 -0.537995 0.842948 1284.7 932.486)" fill="white" fill-opacity="0.27"/>
<rect width="9.34729" height="9.33317" transform="matrix(0.826486 0.562957 -0.537995 0.842948 1236.03 252.152)" fill="white" fill-opacity="0.27"/>
<rect width="9.34729" height="9.33317" transform="matrix(0.826486 0.562957 -0.537995 0.842948 1314.3 139.446)" fill="white" fill-opacity="0.27"/>
<rect width="9.34729" height="9.33317" transform="matrix(0.826486 0.562957 -0.537995 0.842948 1436.06 1008.98)" fill="white" fill-opacity="0.27"/>
<rect width="9.34729" height="9.33317" transform="matrix(-0.826486 -0.562957 0.537996 -0.842948 1081.83 172.191)" fill="white" fill-opacity="0.27"/>
<rect width="9.34729" height="9.33317" transform="matrix(-0.826486 -0.562957 0.537996 -0.842948 1130.49 852.525)" fill="white" fill-opacity="0.27"/>
<rect width="9.34729" height="9.33317" transform="matrix(-0.826486 -0.562957 0.537996 -0.842948 1052.23 965.232)" fill="white" fill-opacity="0.27"/>
<rect width="9.34729" height="9.33317" transform="matrix(0.826486 0.562957 -0.537995 0.842948 715.72 519.634)" fill="white" fill-opacity="0.27"/>
<rect width="9.34729" height="9.33317" transform="matrix(0.826486 0.562957 -0.537995 0.842948 810.993 907.948)" fill="white" fill-opacity="0.27"/>
<rect width="9.34729" height="9.33317" transform="matrix(0.729598 0.683876 -0.661757 0.749718 717.577 258.654)" fill="white" fill-opacity="0.27"/>
<rect width="9.34729" height="9.33317" transform="matrix(0.729598 0.683876 -0.661757 0.749718 609.12 392.841)" fill="white" fill-opacity="0.27"/>
<rect width="9.34729" height="9.33317" transform="matrix(0.729598 0.683876 -0.661757 0.749718 586.988 676.413)" fill="white" fill-opacity="0.27"/>
<rect width="9.34729" height="9.33317" transform="matrix(0.729598 0.683876 -0.661757 0.749718 484.308 487.799)" fill="white" fill-opacity="0.27"/>
<rect width="9.34729" height="9.33317" transform="matrix(0.729598 0.683876 -0.661757 0.749718 518.451 886.17)" fill="white" fill-opacity="0.27"/>
<rect width="9.34729" height="9.33317" transform="matrix(0.729598 0.683876 -0.661757 0.749718 575.468 206.485)" fill="white" fill-opacity="0.27"/>
<rect width="9.34729" height="9.33317" transform="matrix(0.729598 0.683876 -0.661757 0.749718 656.181 985.126)" fill="white" fill-opacity="0.27"/>
<rect width="9.34729" height="9.33317" transform="matrix(-0.729598 -0.683876 0.661757 -0.749718 214.369 759.135)" fill="white" fill-opacity="0.27"/>
<rect width="9.34729" height="9.33317" transform="matrix(-0.729598 -0.683876 0.661757 -0.749718 283.713 882.609)" fill="white" fill-opacity="0.27"/>
<rect width="9.34729" height="9.33317" transform="matrix(0.729598 0.683876 -0.661757 0.749718 253.348 161.231)" fill="white" fill-opacity="0.27"/>
<rect width="9.34729" height="9.33317" transform="matrix(0.729598 0.683876 -0.661757 0.749718 20.0789 390.376)" fill="white" fill-opacity="0.27"/>
<rect width="9.34729" height="9.33317" transform="matrix(0.729598 0.683876 -0.661757 0.749718 54.2214 788.747)" fill="white" fill-opacity="0.27"/>
<rect width="9.34729" height="9.33317" transform="matrix(0.729598 0.683876 -0.661757 0.749718 111.239 109.062)" fill="white" fill-opacity="0.27"/>
<rect width="9.34729" height="9.33317" transform="matrix(0.729598 0.683876 -0.661757 0.749718 76.0903 578.782)" fill="white" fill-opacity="0.27"/>
</svg>
