<svg width="128" height="32" viewBox="0 0 128 32" fill="none" xmlns="http://www.w3.org/2000/svg">
<rect y="5" width="128" height="27" rx="13.5" fill="#3A7195"/>
<rect x="12" y="5" width="103" height="27" fill="#568FB5"/>
<rect x="23.7988" y="5" width="78.4724" height="27" fill="#74C5E6"/>
<rect x="48" y="5" width="29" height="27" fill="#98E575"/>
<path d="M32.736 22.624C32.736 23.12 32.648 23.488 32.472 23.728C32.296 23.968 32.016 24.2 31.632 24.424C31.408 24.552 31.128 24.68 30.792 24.808C30.456 24.92 30.088 25.016 29.688 25.096C29.288 25.192 28.864 25.264 28.416 25.312C27.984 25.36 27.552 25.384 27.12 25.384C25.968 25.384 24.888 25.232 23.88 24.928C22.872 24.608 21.992 24.136 21.24 23.512C20.504 22.872 19.92 22.08 19.488 21.136C19.056 20.192 18.84 19.096 18.84 17.848C18.84 16.536 19.072 15.392 19.536 14.416C20.016 13.44 20.64 12.632 21.408 11.992C22.192 11.336 23.08 10.848 24.072 10.528C25.08 10.208 26.112 10.048 27.168 10.048C28.688 10.048 29.888 10.296 30.768 10.792C31.664 11.272 32.112 11.904 32.112 12.688C32.112 13.104 32.008 13.464 31.8 13.768C31.592 14.072 31.352 14.312 31.08 14.488C30.68 14.248 30.176 14.016 29.568 13.792C28.976 13.552 28.304 13.432 27.552 13.432C26.208 13.432 25.136 13.816 24.336 14.584C23.552 15.352 23.16 16.416 23.16 17.776C23.16 18.512 23.264 19.152 23.472 19.696C23.696 20.224 23.992 20.664 24.36 21.016C24.728 21.352 25.152 21.608 25.632 21.784C26.112 21.944 26.624 22.024 27.168 22.024C27.52 22.024 27.832 21.992 28.104 21.928C28.376 21.864 28.584 21.792 28.728 21.712V19.456H26.16C26.064 19.28 25.968 19.048 25.872 18.76C25.792 18.472 25.752 18.168 25.752 17.848C25.752 17.272 25.88 16.856 26.136 16.6C26.408 16.344 26.752 16.216 27.168 16.216H31.224C31.704 16.216 32.072 16.352 32.328 16.624C32.6 16.88 32.736 17.248 32.736 17.728V22.624ZM41.3535 25.384C40.4095 25.384 39.5295 25.256 38.7135 25C37.9135 24.728 37.2095 24.328 36.6015 23.8C36.0095 23.272 35.5375 22.608 35.1855 21.808C34.8495 21.008 34.6815 20.072 34.6815 19C34.6815 17.944 34.8495 17.04 35.1855 16.288C35.5375 15.52 35.9935 14.896 36.5535 14.416C37.1135 13.92 37.7535 13.56 38.4735 13.336C39.1935 13.096 39.9295 12.976 40.6815 12.976C41.5295 12.976 42.2975 13.104 42.9855 13.36C43.6895 13.616 44.2895 13.968 44.7855 14.416C45.2975 14.864 45.6895 15.4 45.9615 16.024C46.2495 16.648 46.3935 17.328 46.3935 18.064C46.3935 18.608 46.2415 19.024 45.9375 19.312C45.6335 19.6 45.2095 19.784 44.6655 19.864L38.7375 20.752C38.9135 21.28 39.2735 21.68 39.8175 21.952C40.3615 22.208 40.9855 22.336 41.6895 22.336C42.3455 22.336 42.9615 22.256 43.5375 22.096C44.1295 21.92 44.6095 21.72 44.9775 21.496C45.2335 21.656 45.4495 21.88 45.6255 22.168C45.8015 22.456 45.8895 22.76 45.8895 23.08C45.8895 23.8 45.5535 24.336 44.8815 24.688C44.3695 24.96 43.7935 25.144 43.1535 25.24C42.5135 25.336 41.9135 25.384 41.3535 25.384ZM40.6815 15.952C40.2975 15.952 39.9615 16.016 39.6735 16.144C39.4015 16.272 39.1775 16.44 39.0015 16.648C38.8255 16.84 38.6895 17.064 38.5935 17.32C38.5135 17.56 38.4655 17.808 38.4495 18.064L42.5535 17.392C42.5055 17.072 42.3295 16.752 42.0255 16.432C41.7215 16.112 41.2735 15.952 40.6815 15.952ZM60.4294 19.168C60.4294 20.16 60.2774 21.048 59.9734 21.832C59.6694 22.6 59.2374 23.248 58.6774 23.776C58.1334 24.304 57.4774 24.704 56.7094 24.976C55.9414 25.248 55.0854 25.384 54.1414 25.384C53.1974 25.384 52.3414 25.24 51.5734 24.952C50.8054 24.664 50.1414 24.256 49.5814 23.728C49.0374 23.184 48.6134 22.528 48.3094 21.76C48.0054 20.992 47.8534 20.128 47.8534 19.168C47.8534 18.224 48.0054 17.368 48.3094 16.6C48.6134 15.832 49.0374 15.184 49.5814 14.656C50.1414 14.112 50.8054 13.696 51.5734 13.408C52.3414 13.12 53.1974 12.976 54.1414 12.976C55.0854 12.976 55.9414 13.128 56.7094 13.432C57.4774 13.72 58.1334 14.136 58.6774 14.68C59.2374 15.208 59.6694 15.856 59.9734 16.624C60.2774 17.392 60.4294 18.24 60.4294 19.168ZM52.0294 19.168C52.0294 20.144 52.2134 20.896 52.5814 21.424C52.9654 21.936 53.4934 22.192 54.1654 22.192C54.8374 22.192 55.3494 21.928 55.7014 21.4C56.0694 20.872 56.2534 20.128 56.2534 19.168C56.2534 18.208 56.0694 17.472 55.7014 16.96C55.3334 16.432 54.8134 16.168 54.1414 16.168C53.4694 16.168 52.9494 16.432 52.5814 16.96C52.2134 17.472 52.0294 18.208 52.0294 19.168ZM62.0119 17.704C62.0119 16.456 62.2039 15.352 62.5879 14.392C62.9879 13.432 63.5239 12.632 64.1959 11.992C64.8839 11.336 65.6839 10.84 66.5959 10.504C67.5239 10.168 68.5239 10 69.5959 10C70.6679 10 71.6599 10.168 72.5719 10.504C73.4999 10.84 74.3079 11.336 74.9959 11.992C75.6839 12.632 76.2199 13.432 76.6039 14.392C77.0039 15.352 77.2039 16.456 77.2039 17.704C77.2039 19.272 76.9159 20.608 76.3399 21.712C75.7639 22.8 74.9799 23.656 73.9879 24.28C74.2279 24.392 74.5079 24.512 74.8279 24.64C75.1639 24.768 75.5079 24.896 75.8599 25.024C76.2279 25.152 76.6039 25.272 76.9879 25.384C77.3719 25.512 77.7319 25.624 78.0679 25.72C78.0839 25.816 78.0919 25.896 78.0919 25.96C78.0919 26.04 78.0919 26.112 78.0919 26.176C78.0919 27.088 77.8519 27.752 77.3719 28.168C76.9079 28.584 76.2919 28.792 75.5239 28.792C74.7879 28.792 74.0279 28.584 73.2439 28.168C72.4599 27.768 71.6599 27.184 70.8439 26.416L69.7879 25.432H69.5959C68.5079 25.432 67.4999 25.264 66.5719 24.928C65.6439 24.576 64.8439 24.072 64.1719 23.416C63.4999 22.76 62.9719 21.952 62.5879 20.992C62.2039 20.032 62.0119 18.936 62.0119 17.704ZM66.3319 17.704C66.3319 19.16 66.6279 20.248 67.2199 20.968C67.8119 21.688 68.6039 22.048 69.5959 22.048C70.6039 22.048 71.4039 21.688 71.9959 20.968C72.5879 20.248 72.8839 19.16 72.8839 17.704C72.8839 16.264 72.5879 15.184 71.9959 14.464C71.4199 13.744 70.6279 13.384 69.6199 13.384C68.6279 13.384 67.8279 13.744 67.2199 14.464C66.6279 15.168 66.3319 16.248 66.3319 17.704ZM79.3418 13.504C79.5018 13.456 79.7498 13.408 80.0858 13.36C80.4378 13.312 80.7978 13.288 81.1658 13.288C81.5178 13.288 81.8298 13.312 82.1018 13.36C82.3898 13.408 82.6298 13.504 82.8218 13.648C83.0138 13.792 83.1578 13.992 83.2538 14.248C83.3658 14.488 83.4218 14.808 83.4218 15.208V20.368C83.4218 21.024 83.5818 21.496 83.9018 21.784C84.2218 22.056 84.6858 22.192 85.2938 22.192C85.6618 22.192 85.9578 22.16 86.1818 22.096C86.4218 22.032 86.6058 21.968 86.7338 21.904V13.504C86.8938 13.456 87.1418 13.408 87.4778 13.36C87.8298 13.312 88.1898 13.288 88.5578 13.288C88.9098 13.288 89.2218 13.312 89.4938 13.36C89.7818 13.408 90.0218 13.504 90.2137 13.648C90.4058 13.792 90.5498 13.992 90.6458 14.248C90.7578 14.488 90.8138 14.808 90.8138 15.208V22.504C90.8138 23.304 90.4778 23.904 89.8058 24.304C89.2458 24.656 88.5738 24.92 87.7898 25.096C87.0218 25.288 86.1818 25.384 85.2698 25.384C84.4058 25.384 83.6058 25.288 82.8698 25.096C82.1498 24.904 81.5258 24.608 80.9978 24.208C80.4698 23.808 80.0618 23.296 79.7738 22.672C79.4858 22.032 79.3418 21.264 79.3418 20.368V13.504ZM93.2145 10.096C93.2145 9.488 93.4145 8.976 93.8145 8.56C94.2305 8.144 94.7745 7.936 95.4465 7.936C96.1185 7.936 96.6545 8.144 97.0545 8.56C97.4705 8.976 97.6785 9.488 97.6785 10.096C97.6785 10.704 97.4705 11.216 97.0545 11.632C96.6545 12.048 96.1185 12.256 95.4465 12.256C94.7745 12.256 94.2305 12.048 93.8145 11.632C93.4145 11.216 93.2145 10.704 93.2145 10.096ZM97.4865 24.976C97.3105 25.008 97.0465 25.048 96.6945 25.096C96.3585 25.16 96.0145 25.192 95.6625 25.192C95.3105 25.192 94.9905 25.168 94.7025 25.12C94.4305 25.072 94.1985 24.976 94.0065 24.832C93.8145 24.688 93.6625 24.496 93.5505 24.256C93.4545 24 93.4065 23.672 93.4065 23.272V13.504C93.5825 13.472 93.8385 13.432 94.1745 13.384C94.5265 13.32 94.8785 13.288 95.2305 13.288C95.5825 13.288 95.8945 13.312 96.1665 13.36C96.4545 13.408 96.6945 13.504 96.8865 13.648C97.0785 13.792 97.2225 13.992 97.3185 14.248C97.4305 14.488 97.4865 14.808 97.4865 15.208V24.976ZM100.492 25C100.236 24.776 100.028 24.512 99.8679 24.208C99.7239 23.904 99.6519 23.56 99.6519 23.176C99.6519 22.856 99.7239 22.544 99.8679 22.24C100.028 21.92 100.22 21.624 100.444 21.352L104.572 16.504H100.156C100.06 16.328 99.9639 16.104 99.8679 15.832C99.7879 15.56 99.7479 15.264 99.7479 14.944C99.7479 14.384 99.8679 13.984 100.108 13.744C100.364 13.488 100.7 13.36 101.116 13.36H108.676C108.932 13.584 109.132 13.848 109.276 14.152C109.436 14.456 109.516 14.8 109.516 15.184C109.516 15.504 109.436 15.824 109.276 16.144C109.132 16.448 108.948 16.736 108.724 17.008L104.692 21.856H109.396C109.492 22.032 109.58 22.256 109.66 22.528C109.756 22.8 109.804 23.096 109.804 23.416C109.804 23.976 109.676 24.384 109.42 24.64C109.18 24.88 108.852 25 108.436 25H100.492Z" fill="white"/>
</svg>
