<svg width="1441" height="1010" viewBox="0 0 1441 1010" fill="none" xmlns="http://www.w3.org/2000/svg">
<rect width="1456" height="1027" transform="matrix(-1 0 0 1 1448 -13)" fill="#D7FFD0" fill-opacity="0.5"/>
<path d="M429.878 524.019C458.134 532.712 487.575 540.801 506.786 559.129C518.917 570.702 534.134 604.659 523.159 619.317C512.643 633.363 484.063 646.598 463.826 653.424C436.914 662.501 412.362 668.372 382.712 672.372C369.608 674.14 355.047 672.772 343.357 668.917C339.321 667.586 332.741 664.458 328.486 664.458C321.361 664.458 320.97 659.821 316.319 657.994C298.589 651.029 323.846 619.289 329.237 610.289C333.784 602.698 330.216 592.383 337.349 585.768C342.225 581.244 348.128 570.514 354.172 567.711C360.767 564.652 369.981 549.307 370.395 544.082C371.094 535.26 377.628 530.559 386.017 525.579C392.33 521.831 409.403 518 417.711 518C428.406 518 425.453 502.972 433.934 497.937C438.58 495.179 438.477 489.983 444.899 487.46C449.663 485.588 453.571 482.82 458.268 480.884C469.91 476.084 483.195 472.851 493.417 466.951C511.171 456.705 527.418 444.441 550.047 439.643C558.464 437.859 570.475 426.531 570.475 420.695C570.475 410.838 587.178 411.667 599.015 411.667C612.061 411.667 618.766 401.986 625.152 396.063C635.456 386.506 612.983 378.116 606.225 373.102C596.682 366.02 597.406 355.893 590.003 349.026C586.474 345.753 589.005 339.441 579.939 339.441C573.626 339.441 568.533 337.673 565.669 333.422C558.605 322.939 558.655 317.372 540.734 317.372C528.809 317.372 515.989 315.365 502.881 315.365C486.831 315.365 483.57 317.415 476.444 327.403C471.562 334.245 465.637 343.338 465.028 351.479C464.819 354.263 463.118 363.088 467.731 363.516C475.507 364.237 470.996 370.419 466.229 371.43C450.553 374.753 454.212 383.541 454.212 394.614C454.212 415.886 477.944 429.366 498.825 441.761C506.499 446.316 515.106 451.025 523.159 455.805C530.809 460.346 537.282 470.615 544.94 473.862C555.28 478.246 559.326 492.121 569.124 497.937C573.941 500.797 586.698 514.051 586.698 519.003C586.698 528.643 587.461 538.473 586.698 548.094C586.37 552.232 572.981 570.972 586.698 572.169C593.294 572.745 596.818 575.368 601.569 578.188C604.254 579.782 604.4 590.043 600.217 590.226C590.158 590.665 582.856 604.164 579.188 610.289C573.267 620.173 575.255 625.099 559.059 629.906C549.521 632.737 537.88 642.061 529.919 642.389C517.537 642.9 498.735 643.846 489.362 650.414C479.399 657.396 468.877 662.717 459.019 670.031C455.047 672.979 440.693 689.127 440.693 693.549C440.693 699.209 438.812 703.281 446.101 706.144C449.845 707.615 457.402 711.555 459.62 713.612C466.589 720.076 477.327 723.965 485.156 729.774C495.829 737.694 505.893 736.811 517.751 741.7C521.978 743.443 534.826 750.589 538.03 750.728C541.6 750.884 557.004 749.268 559.51 747.719C569.691 741.423 580.585 736.912 593.458 734.79C610.603 731.962 618.332 729.262 631.311 719.631C643.863 710.317 653.055 699.05 666.61 690.429C686.846 677.558 717.798 659.66 747.574 664.57C751.853 665.276 760.355 670.155 765.148 672.038C772.764 675.029 780.411 678.049 787.98 681.623C800.289 687.435 813.819 693.343 826.134 698.565C846.261 707.099 865.82 730.08 848.966 745.713C842.456 751.751 834.267 755.334 827.335 761.763C823.941 764.911 819.465 767.422 815.92 770.345C814.933 771.158 805.867 777.894 805.855 777.925C802.545 786.523 786.436 786.825 778.066 792.415C773.842 795.236 765.89 799.303 761.093 800.885C753.741 803.31 753.362 809.672 746.222 812.477C732.678 817.798 726.422 827.206 716.48 834.992C709.704 840.3 693.402 851.612 692.146 859.068C691.522 862.774 682.603 866.597 679.979 870.102C676.443 874.824 678.322 878.465 672.619 882.697C664.484 888.733 652.603 889.688 646.782 895.626C642.236 900.265 647.295 911.543 654.143 913.237C661.664 915.097 667.843 915.243 675.923 915.243C691.245 915.243 706.566 915.243 721.888 915.243C729.57 915.243 736.798 913.531 743.518 913.237C747.824 913.049 752.628 912.954 756.887 913.349C763.387 913.952 764.416 919.256 771.758 919.256C786.178 919.256 800.598 919.256 815.018 919.256C828.211 919.256 842.973 919.271 855.725 921.374C861.226 922.281 869.714 924.35 873.901 926.835C876.763 928.535 880.979 933.3 885.467 933.3C899.19 933.3 901.871 946.589 917.762 943.22C919.942 942.758 923.427 934.685 927.376 932.854C932.775 930.35 937.319 927.281 944.95 927.281C950.611 927.281 978.272 925.214 981.452 922.265C992.301 912.203 966.723 909.084 958.469 904.32C949.315 899.037 942.311 895.038 937.59 887.156C935.446 883.576 930.08 875.752 930.08 872.108C930.08 865.735 922.729 862.144 921.968 857.061C920.688 848.512 906.006 841.468 894.93 841.011C882.033 840.479 863.722 834.3 851.67 830.534C844.695 828.355 833.255 822.955 825.984 822.955C824.003 822.955 820.18 819.936 820.426 821.394C820.833 823.813 827.495 825.682 830.039 826.521C840.668 830.027 856.807 832.529 867.892 832.986C881.318 833.539 891.551 839.005 905.745 839.005C921.009 839.005 909.083 822.924 908.449 814.929C908.069 810.138 890.383 792.86 885.467 792.86C871.948 792.86 858.429 792.86 844.91 792.86C834.649 792.86 813.817 788.638 813.817 779.82C813.817 769.538 821.502 765.293 833.945 762.655C838.201 761.752 841.088 754.967 846.262 754.741C853.915 754.407 859.468 755.47 866.54 756.636C872.721 757.655 880.689 760.405 886.819 762.32C891.915 763.913 896.77 762.88 901.54 765.776C905.402 768.12 910.17 771.855 915.209 772.686C938.462 776.52 979.688 764.268 997.524 779.708C1002.05 783.63 1010.7 783.593 1015.25 788.848C1019.57 793.833 1023.21 794.87 1028.02 798.433C1035.25 803.801 1028.79 818.815 1022.61 823.4C1016.55 827.898 1006.79 840.714 1005.79 847.03C1003.73 859.99 988.93 869.654 982.052 881.137C977.206 889.228 971.804 904.117 973.34 913.237C973.974 917.001 983.81 904.213 985.507 903.206C991.226 899.811 990.153 894.095 997.674 891.614C1021.18 883.862 1046.23 885.149 1073.38 885.149C1081.41 885.149 1084.37 886.359 1087.5 881.137C1089.73 877.416 1094.05 873.81 1095.16 870.102C1098.13 860.197 1105.83 852.145 1105.83 842.014C1105.83 830.746 1107.05 820.238 1090.96 814.929C1085.35 813.082 1054.45 807.758 1054.45 805.901C1054.45 796.126 1075.37 794.867 1085.55 794.867C1101.79 794.867 1118.55 783.77 1134.07 779.931C1145.44 777.118 1155.71 777.144 1167.41 776.81C1172.87 776.654 1186.16 775.796 1191 773.801C1199.83 770.158 1225.55 763.898 1230.2 757.862C1233.31 753.818 1243.92 753.112 1249.13 751.732C1258.5 749.248 1257.94 745.694 1265.35 742.257C1270.63 739.811 1275.81 721.384 1276.16 716.622C1277.04 704.914 1285.54 693.856 1268.05 688.088C1257.08 684.468 1239.64 685.965 1230.8 680.063C1225.3 676.388 1226.37 672.065 1224.64 667.579C1223.72 665.192 1208.9 666.465 1205.87 666.465C1194.48 666.465 1171.32 668.197 1162.61 662.452C1153.2 656.251 1137.04 656.433 1124.75 656.433C1114.88 656.433 1090.8 653.182 1083.59 657.994C1073.28 664.885 1066.14 667.536 1065.27 678.502C1064.75 685.104 1059.86 674.321 1059.86 671.48C1059.86 667.958 1062.11 658.825 1057.16 656.879C1047.89 653.238 1032.51 650.414 1022.01 650.414C1008.63 650.414 992.267 642.784 992.267 658.44C992.267 666.801 997.927 662.687 1003.08 667.468C1006.33 670.483 1008.49 676.426 1008.49 680.509C1008.49 697.281 1015.42 714.012 1016.6 730.666C1016.97 735.812 1017.46 739.418 1019.15 743.818C1020.27 746.707 1020.23 754.097 1022.61 756.301C1035.13 767.915 1011.38 772.898 1002.48 776.81C986.884 783.669 965.279 782.829 947.654 782.829C930.833 782.829 924.544 766.607 917.912 757.75C900.855 734.968 916.427 709.894 936.539 691.655C946.729 682.413 960.69 674.068 972.138 665.573C977.78 661.387 979.246 658.7 978.748 652.421C978.45 648.659 962.678 650.414 958.469 650.414C946.854 650.414 925.382 653.605 915.209 649.411C902.783 644.289 903.54 635.241 908.449 625.224C912.883 616.177 913.857 601.534 913.857 592.232C913.857 581.622 908.449 574.088 908.449 564.144C908.449 554.975 907.071 545.241 908.599 536.168C909.601 530.224 913.857 526.384 913.857 520.006C913.857 504.379 912.729 492.326 897.634 479.881C884.364 468.94 869.164 464.58 848.966 463.83C837.199 463.394 813.068 462.669 803.602 468.289C790.813 475.881 788.383 481.214 781.972 491.918C780.377 494.581 779.85 502.451 777.315 503.956C774.605 505.565 770.752 511.372 770.556 513.987C769.419 529.171 755.224 571.09 785.427 576.071C800.837 578.612 816.835 582.358 831.241 587.217C836.166 588.878 846.421 590.01 851.67 590.226C858.781 590.519 867.744 594.422 874.502 596.245C885.998 599.347 900.338 608.44 900.338 617.311C900.338 629.932 899.866 632.931 888.321 641.498C878.314 648.923 875.976 660.446 858.429 660.446C848.091 660.446 826.013 669.232 816.671 663.455C805.667 656.651 790.02 660.377 778.667 652.421C766.292 643.748 767.852 636.55 767.852 624.333C767.852 619.537 765.148 615.269 765.148 611.292C765.148 604.559 759.222 606.276 751.629 606.276C735.186 606.276 725.79 604.713 713.776 596.245C707.658 591.932 692.203 589.872 689.592 583.093C688.295 579.724 684.372 577.054 680.73 574.622C667.113 565.528 657.173 558.462 652.19 544.082C646.6 527.951 640.991 514.563 630.56 499.943C624.315 491.191 611.032 487.473 611.032 475.868C611.032 468.764 607.847 451.793 623.199 451.793C633.583 451.793 636.162 437.487 647.383 439.866C660.232 442.59 678.163 441.349 689.442 448.672C694.819 452.163 708.173 453.46 715.278 456.251C720.724 458.39 730.399 461.824 736.758 461.824C749.495 461.824 760.104 467.843 771.908 467.843C787.527 467.843 789.871 458.305 804.353 455.917C819.257 453.459 822.023 430.353 801.649 438.752C791.391 442.981 775.718 441.761 763.796 441.761C736.091 441.761 711.088 435.742 684.035 435.742C679.878 435.742 667.81 437.245 665.108 434.739C661.598 431.484 658.972 426.272 654.293 424.151C640.135 417.73 638.07 408.809 638.07 397.623C638.07 388.951 638.111 376.62 644.079 369.535C647.92 364.974 685.325 365.523 692.146 365.523C710.626 365.523 725.892 359.504 743.518 359.504C755.232 359.504 785.004 355.308 786.779 343.453C787.925 335.795 791.795 328.325 792.186 320.493C792.561 312.981 793.048 300.409 801.649 295.303C817.543 285.868 781.995 283.765 777.466 283.154C744.959 278.768 710.764 277.246 677.125 277.246C659.475 277.246 642.591 277.459 625.903 279.364C605.581 281.684 585.632 286.783 566.269 289.395C557.182 290.621 551.157 295.303 541.335 295.303C533.473 295.303 525.613 295.303 517.751 295.303C498.495 295.303 477.922 297.143 459.62 292.293C442.507 287.758 424.471 283.908 424.471 268.218C424.471 260.265 416.902 247.835 404.943 247.152C402.317 247.002 387.892 243.318 386.618 242.136C386.179 241.73 370.692 257.28 366.189 259.19C354.094 264.318 350.368 277.7 339.301 282.262C330.607 285.846 330.365 290.273 329.838 297.309C329.573 300.853 326.629 303.341 327.284 307.229C327.908 310.93 332.542 312.506 332.542 316.369C332.542 324.391 356.849 328.614 363.635 332.53C373.969 338.494 393.225 346.08 406.896 340.444C424.871 333.034 420.368 314.62 434.084 304.442C446.835 294.981 439.037 298.724 430.479 305.78C423.533 311.507 417.67 316.78 411.102 323.279C402.031 332.254 400.524 342.427 394.729 352.37C386.89 365.821 390.893 382.069 408.248 389.152C420.077 393.98 432.039 396.81 443.247 402.527C448.077 404.991 470.812 415.982 452.71 409.661C440.078 405.25 427.666 403.642 413.656 403.642C399.426 403.642 392.533 402.851 382.562 411.556C376.125 417.175 367.318 422.867 360.181 428.163C353.688 432.981 333.053 443.936 346.061 448.226C357.455 451.983 380.126 448.147 381.21 461.824C382.109 473.166 390.237 482.846 405.544 486.903C425.486 492.187 432.582 490.339 432.582 506.965C432.582 513.823 434.556 517.027 425.072 519.56C418.199 521.396 416.708 523.998 412.304 527.92C407.81 531.921 401.442 533.285 398.034 538.063C395.442 541.696 387.437 546.486 382.562 548.094C363.421 554.406 340.175 556.119 318.873 556.119C315.183 556.119 308.935 557.021 305.504 555.673C301.095 553.941 304.805 550.474 302.199 548.54C298.8 546.017 285.333 547.228 284.024 542.855C279.542 527.89 276.079 501.804 290.783 488.909C299.328 481.415 311.58 475.461 322.327 469.849C329.099 466.313 341.919 460.291 346.061 454.913C355.657 442.452 331.347 443.767 319.023 443.767C302.745 443.767 285.256 444.686 269.754 448.226C259.885 450.479 250.453 449.062 240.312 449.898C227.133 450.984 216.675 453.799 202.76 453.799C182.544 453.799 150.666 449.141 132.461 456.251C109.97 465.035 95.1222 483.07 81.0892 498.383C73.7426 506.4 66.4709 510.785 60.8109 520.118C57.0511 526.317 51.619 537.232 51.3475 544.082C51.1001 550.323 49.2789 557.062 56.9054 561.023C65.2477 565.357 77.2178 565.944 85.896 570.163C100.658 577.34 111.178 585.221 128.406 589.111C141.654 592.103 159.295 590.487 173.018 590.226C203.186 589.652 229.048 574.042 255.634 566.151C267.161 562.729 313.615 538.502 313.615 559.24C313.615 568.76 306.179 573.182 303.401 582.201C300.341 592.135 302.8 604.131 302.8 614.301C302.8 622.871 315.869 624.723 324.43 627.899C333.739 631.353 332.542 638.64 332.542 645.399C332.542 657.901 327.134 654.898 327.134 644.396C327.134 640.322 329.916 628.626 325.632 625.447C320.255 621.457 299.332 621.914 291.985 620.766C277.352 618.48 261.687 619.866 247.222 617.311C226.284 613.612 189.503 613.147 171.666 623.441C153.938 633.673 150.733 661.655 164.907 673.487C178.708 685.008 175.722 699.828 175.722 714.615C175.722 724.234 192.766 730.425 203.06 734.79C211.381 738.318 228.528 748.437 238.51 748.722C249.056 749.023 262.328 750.264 271.857 746.493C284.055 741.666 293.145 730.787 304.903 724.647C341.163 705.713 386.398 706.59 429.878 706.59C469.727 706.59 502.881 739.329 502.881 767.225C502.881 789.851 487.662 800.065 458.418 805.344C442.481 808.22 406.188 810.147 400.737 794.867C395.614 780.503 429.415 766.779 398.785 766.779C390.531 766.779 341.881 771.156 340.803 767.559C336.146 752.008 359.673 750.478 371.897 742.703C380.123 737.472 383.864 729.41 386.618 721.749C390.654 710.517 384.54 711.225 376.403 719.074C366.686 728.448 362.498 741.263 351.468 750.617C344.686 756.368 335.535 766.409 327.134 770.345C317.905 774.671 307.722 777.627 298.594 781.937C279.978 790.728 251.546 788.848 229.798 788.848C188.884 788.848 75.6817 761.809 75.6817 814.818C75.6817 820.385 73.3985 831.968 84.394 832.874C117.047 835.567 149.496 839.452 182.632 839.005C197.511 838.804 212.666 834.503 218.983 823.958C221.628 819.542 225.365 811.454 231.901 817.382C238.188 823.083 239.68 831.036 250.076 833.878C269.717 839.247 296.897 836.999 317.521 836.999C326.683 836.999 351.677 833.334 356.876 842.014C361.401 849.57 368.442 855.929 375.802 861.966C384.306 868.94 396.967 880.832 410.201 883.143C416.435 884.231 453.203 889.187 454.212 895.181C455.053 900.172 459.62 904.158 459.62 910.116C459.62 915.169 459.62 920.222 459.62 925.275C459.62 937.193 444.045 948.741 435.586 958.156C425.419 969.472 410.479 978.508 402.84 991.036C395.618 1002.88 380.263 1005.53 364.386 1005.53C341.446 1005.53 322.363 999.321 305.504 987.47C288.38 975.432 272.922 955.892 248.123 951.802C217.956 946.828 184.284 944.53 183.833 916.135C183.765 911.829 180.067 876.346 185.335 875.229C189.359 874.376 199.881 889.952 202.76 892.729C210.544 900.237 226.336 905.911 236.858 911.342C264.551 925.638 291.337 927.467 323.229 930.848C342.553 932.896 311.578 931.294 305.504 931.294C286.301 931.294 272.693 925.414 255.634 919.256C220.234 906.477 198.514 886.116 214.176 856.615C218.888 847.74 255.211 818.537 267.651 836.999" stroke="#D3FDD4" stroke-opacity="0.6" stroke-width="7" stroke-linecap="round" stroke-linejoin="round"/>
<path d="M394.535 495.599C422.791 504.292 452.231 512.38 471.442 530.708C483.573 542.282 498.79 576.239 487.815 590.897C477.299 604.943 448.72 618.178 428.482 625.004C401.571 634.081 377.019 639.952 347.369 643.952C334.265 645.72 319.703 644.352 308.013 640.497C303.978 639.166 297.397 636.038 293.143 636.038C286.018 636.038 285.627 631.401 280.976 629.574C263.245 622.608 288.503 590.869 293.894 581.869C298.44 574.278 294.872 563.963 302.005 557.347C306.882 552.824 312.784 542.094 318.829 539.291C325.424 536.232 334.637 520.887 335.051 515.661C335.751 506.84 342.284 502.139 350.673 497.159C356.987 493.411 374.059 489.58 382.368 489.58C393.062 489.58 390.109 474.552 398.59 469.517C403.237 466.759 403.133 461.563 409.556 459.04C414.32 457.168 418.227 454.4 422.924 452.463C434.567 447.664 447.851 444.431 458.074 438.531C475.827 428.285 492.074 416.021 514.703 411.223C523.121 409.439 535.132 398.111 535.132 392.275C535.132 382.418 551.834 383.247 563.672 383.247C576.717 383.247 583.423 373.566 589.808 367.642C600.112 358.085 577.64 349.696 570.882 344.682C561.338 337.6 562.062 327.473 554.659 320.606C551.13 317.333 553.662 311.021 544.595 311.021C538.282 311.021 533.19 309.253 530.325 305.002C523.261 294.519 523.311 288.952 505.39 288.952C493.465 288.952 480.645 286.945 467.537 286.945C451.488 286.945 448.226 288.995 441.1 298.983C436.219 305.824 430.293 314.918 429.684 323.058C429.476 325.842 427.775 334.668 432.388 335.096C440.163 335.817 435.653 341.999 430.886 343.01C415.21 346.333 418.869 355.121 418.869 366.193C418.869 387.466 442.601 400.946 463.481 413.341C471.155 417.896 479.762 422.605 487.815 427.385C495.466 431.926 501.938 442.194 509.596 445.442C519.936 449.826 523.982 463.701 533.78 469.517C538.598 472.377 551.355 485.631 551.355 490.583C551.355 500.223 552.117 510.053 551.355 519.674C551.027 523.812 537.638 542.552 551.355 543.749C557.951 544.325 561.474 546.948 566.225 549.768C568.91 551.362 569.056 561.623 564.874 561.806C554.815 562.245 547.513 575.744 543.844 581.869C537.923 591.753 539.912 596.678 523.716 601.486C514.177 604.317 502.536 613.641 494.575 613.969C482.193 614.48 463.391 615.425 454.018 621.994C444.056 628.976 433.533 634.296 423.676 641.611C419.704 644.559 405.35 660.707 405.35 665.129C405.35 670.789 403.469 674.861 410.757 677.724C414.502 679.195 422.058 683.135 424.276 685.192C431.245 691.656 441.984 695.545 449.812 701.354C460.486 709.274 470.549 708.391 482.408 713.28C486.635 715.022 499.483 722.168 502.686 722.308C506.256 722.464 521.661 720.848 524.166 719.299C534.348 713.003 545.241 708.492 558.114 706.369C575.259 703.542 582.988 700.842 595.967 691.211C608.519 681.897 617.712 670.629 631.267 662.008C651.502 649.138 682.455 631.24 712.23 636.15C716.51 636.855 725.011 641.735 729.805 643.617C737.42 646.609 745.068 649.629 752.637 653.203C764.946 659.015 778.475 664.923 790.79 670.145C810.918 678.679 830.476 701.66 813.622 717.293C807.112 723.331 798.924 726.913 791.992 733.343C788.598 736.491 784.121 739.002 780.576 741.925C779.59 742.738 770.524 749.474 770.512 749.504C767.201 758.103 751.092 758.405 742.723 763.994C738.498 766.816 730.547 770.883 725.749 772.465C718.398 774.89 718.019 781.252 710.878 784.057C697.334 789.378 691.078 798.785 681.137 806.572C674.36 811.879 658.058 823.192 656.802 830.647C656.178 834.353 647.259 838.177 644.635 841.682C641.1 846.404 642.979 850.045 637.275 854.277C629.14 860.313 617.26 861.267 611.439 867.206C606.892 871.845 611.952 883.123 618.799 884.817C626.32 886.677 632.499 886.823 640.58 886.823C655.901 886.823 671.223 886.823 686.544 886.823C694.227 886.823 701.454 885.11 708.174 884.817C712.48 884.629 717.285 884.533 721.543 884.928C728.043 885.531 729.072 890.836 736.414 890.836C750.834 890.836 765.254 890.836 779.675 890.836C792.867 890.836 807.629 890.851 820.382 892.954C825.882 893.861 834.37 895.93 838.557 898.415C841.42 900.114 845.635 904.88 850.123 904.88C863.847 904.88 866.528 918.169 882.419 914.8C884.598 914.338 888.083 906.265 892.032 904.434C897.431 901.93 901.976 898.861 909.607 898.861C915.267 898.861 942.928 896.794 946.108 893.845C956.957 883.782 931.38 880.664 923.126 875.9C913.972 870.617 906.968 866.618 902.246 858.735C900.103 855.156 894.736 847.332 894.736 843.688C894.736 837.314 887.386 833.724 886.625 828.641C885.344 820.092 870.662 813.047 859.587 812.591C846.69 812.059 828.379 805.879 816.326 802.114C809.351 799.935 797.911 794.534 790.64 794.534C788.659 794.534 784.837 791.515 785.082 792.974C785.49 795.393 792.152 797.262 794.696 798.101C805.325 801.606 821.464 804.109 832.549 804.566C845.975 805.119 856.208 810.585 870.402 810.585C885.665 810.585 873.739 794.504 873.106 786.509C872.726 781.718 855.04 764.44 850.123 764.44C836.604 764.44 823.086 764.44 809.567 764.44C799.305 764.44 778.473 760.217 778.473 751.399C778.473 741.118 786.159 736.872 798.601 734.235C802.857 733.332 805.745 726.547 810.918 726.321C818.572 725.987 824.124 727.049 831.197 728.216C837.378 729.235 845.345 731.985 851.475 733.9C856.572 735.492 861.427 734.46 866.196 737.355C870.058 739.7 874.827 743.435 879.865 744.266C903.118 748.1 944.345 735.847 962.181 751.288C966.711 755.21 975.352 755.172 979.905 760.428C984.224 765.413 987.871 766.45 992.673 770.013C999.907 775.381 993.445 790.395 987.266 794.98C981.205 799.478 971.444 812.293 970.442 818.61C968.387 831.57 953.586 841.234 946.709 852.717C941.862 860.808 936.46 875.697 937.997 884.817C938.631 888.581 948.467 875.793 950.164 874.786C955.882 871.391 954.809 865.674 962.331 863.194C985.837 855.442 1010.89 856.729 1038.04 856.729C1046.06 856.729 1049.03 857.939 1052.16 852.717C1054.39 848.996 1058.71 845.39 1059.82 841.682C1062.78 831.776 1070.48 823.725 1070.48 813.594C1070.48 802.326 1071.71 791.818 1055.61 786.509C1050.01 784.662 1019.11 779.338 1019.11 777.481C1019.11 767.706 1040.03 766.446 1050.2 766.446C1066.44 766.446 1083.2 755.349 1098.72 751.511C1110.1 748.698 1120.37 748.724 1132.07 748.39C1137.52 748.234 1150.81 747.376 1155.65 745.381C1164.49 741.738 1190.21 735.478 1194.86 729.442C1197.97 725.398 1208.57 724.692 1213.78 723.311C1223.16 720.828 1222.6 717.274 1230.01 713.837C1235.28 711.39 1240.46 692.964 1240.82 688.201C1241.7 676.493 1250.2 665.436 1232.71 659.668C1221.73 656.048 1204.3 657.545 1195.46 651.643C1189.95 647.968 1191.03 643.645 1189.3 639.159C1188.38 636.772 1173.56 638.044 1170.52 638.044C1159.13 638.044 1135.97 639.777 1127.26 634.032C1117.86 627.831 1101.7 628.013 1089.41 628.013C1079.54 628.013 1055.46 624.762 1048.25 629.574C1037.93 636.465 1030.79 639.116 1029.93 650.082C1029.4 656.684 1024.52 645.901 1024.52 643.06C1024.52 639.538 1026.77 630.405 1021.81 628.459C1012.55 624.818 997.163 621.994 986.665 621.994C973.289 621.994 956.923 614.364 956.923 630.019C956.923 638.38 962.584 634.267 967.738 639.048C970.989 642.062 973.146 648.006 973.146 652.088C973.146 668.861 980.076 685.592 981.257 702.245C981.622 707.391 982.117 710.998 983.811 715.398C984.923 718.287 984.889 725.677 987.266 727.881C999.787 739.495 976.034 744.478 967.137 748.39C951.54 755.248 929.935 754.409 912.311 754.409C895.489 754.409 889.2 738.187 882.569 729.33C865.512 706.548 881.083 681.474 901.195 663.234C911.385 653.993 925.346 645.648 936.795 637.153C942.436 632.967 943.902 630.28 943.404 624.001C943.106 620.239 927.334 621.994 923.126 621.994C911.51 621.994 890.038 625.185 879.865 620.991C867.439 615.869 868.197 606.821 873.106 596.804C877.539 587.757 878.513 573.114 878.513 563.812C878.513 553.202 873.106 545.667 873.106 535.724C873.106 526.554 871.727 516.821 873.256 507.748C874.257 501.803 878.513 497.964 878.513 491.586C878.513 475.959 877.385 463.906 862.29 451.46C849.02 440.519 833.82 436.159 813.622 435.41C801.856 434.974 777.725 434.249 768.259 439.869C755.469 447.461 753.04 452.794 746.628 463.498C745.033 466.161 744.507 474.031 741.972 475.536C739.262 477.144 735.408 482.952 735.212 485.567C734.075 500.751 719.881 542.67 750.083 547.65C765.493 550.191 781.492 553.938 795.897 558.796C800.823 560.458 811.077 561.589 816.326 561.806C823.437 562.099 832.401 566.001 839.158 567.825C850.655 570.927 864.994 580.02 864.994 588.891C864.994 601.512 864.523 604.51 852.977 613.077C842.971 620.502 840.633 632.026 823.086 632.026C812.747 632.026 790.669 640.812 781.327 635.035C770.323 628.231 754.676 631.957 743.324 624.001C730.948 615.328 732.509 608.13 732.509 595.913C732.509 591.117 729.805 586.848 729.805 582.872C729.805 576.139 723.879 577.856 716.286 577.856C699.842 577.856 690.446 576.293 678.433 567.825C672.315 563.512 656.859 561.451 654.249 554.672C652.952 551.303 649.028 548.634 645.386 546.201C631.769 537.108 621.83 530.042 616.846 515.661C611.257 499.531 605.647 486.143 595.216 471.523C588.971 462.77 575.689 459.053 575.689 447.448C575.689 440.344 572.504 423.372 587.856 423.372C598.239 423.372 600.819 409.067 612.04 411.446C624.888 414.17 642.82 412.928 654.099 420.252C659.475 423.742 672.829 425.039 679.935 427.831C685.38 429.97 695.056 433.404 701.415 433.404C714.152 433.404 724.761 439.423 736.564 439.423C752.183 439.423 754.527 429.885 769.01 427.496C783.913 425.039 786.679 401.933 766.306 410.332C756.047 414.561 740.375 413.341 728.453 413.341C700.748 413.341 675.744 407.322 648.691 407.322C644.535 407.322 632.466 408.825 629.764 406.319C626.255 403.064 623.628 397.852 618.949 395.73C604.791 389.31 602.727 380.389 602.727 369.203C602.727 360.53 602.767 348.2 608.735 341.115C612.576 336.554 649.981 337.102 656.802 337.102C675.283 337.102 690.549 331.084 708.174 331.084C719.889 331.084 749.66 326.888 751.435 315.033C752.582 307.375 756.452 299.905 756.843 292.072C757.218 284.561 757.705 271.988 766.306 266.883C782.199 257.448 746.652 255.344 742.122 254.733C709.616 250.348 675.42 248.826 641.781 248.826C624.131 248.826 607.247 249.039 590.559 250.944C570.238 253.264 550.288 258.363 530.926 260.975C521.838 262.201 515.813 266.883 505.991 266.883C498.13 266.883 490.269 266.883 482.408 266.883C463.152 266.883 442.578 268.723 424.276 263.873C407.163 259.338 389.127 255.488 389.127 239.798C389.127 231.845 381.559 219.414 369.6 218.732C366.974 218.582 352.548 214.898 351.274 213.716C350.836 213.31 335.349 228.86 330.845 230.769C318.75 235.898 315.024 249.28 303.958 253.842C295.264 257.426 295.021 261.853 294.494 268.889C294.229 272.433 291.286 274.921 291.941 278.809C292.564 282.51 297.198 284.085 297.198 287.948C297.198 295.971 321.506 300.194 328.292 304.11C338.625 310.074 357.881 317.66 371.552 312.024C389.528 304.614 385.024 286.2 398.741 276.022C411.491 266.561 403.693 270.304 395.136 277.36C388.189 283.087 382.327 288.36 375.758 294.859C366.687 303.833 365.18 314.007 359.385 323.95C351.547 337.401 355.549 353.649 372.904 360.732C384.733 365.559 396.696 368.389 407.903 374.107C412.733 376.571 435.469 387.562 417.367 381.241C404.734 376.829 392.322 375.222 378.312 375.222C364.082 375.222 357.19 374.431 347.218 383.135C340.781 388.755 331.975 394.447 324.837 399.743C318.344 404.561 297.71 415.516 310.717 419.806C322.111 423.563 344.782 419.727 345.866 433.404C346.766 444.746 354.893 454.426 370.201 458.482C390.143 463.767 397.239 461.919 397.239 478.545C397.239 485.403 399.212 488.607 389.728 491.14C382.856 492.976 381.364 495.578 376.96 499.5C372.467 503.501 366.099 504.865 362.69 509.643C360.098 513.275 352.093 518.066 347.218 519.674C328.078 525.986 304.832 527.699 283.529 527.699C279.84 527.699 273.592 528.601 270.16 527.253C265.752 525.521 269.462 522.053 266.856 520.12C263.456 517.597 249.99 518.808 248.68 514.435C244.198 499.47 240.735 473.384 255.44 460.489C263.985 452.995 276.237 447.041 286.984 441.429C293.756 437.893 306.576 431.871 310.717 426.493C320.313 414.032 296.003 415.347 283.679 415.347C267.401 415.347 249.912 416.266 234.41 419.806C224.542 422.059 215.109 420.642 204.969 421.478C191.79 422.564 181.331 425.379 167.416 425.379C147.201 425.379 115.322 420.721 97.1177 427.831C74.626 436.615 59.7787 454.65 45.7456 469.963C38.399 477.979 31.1272 482.364 25.4673 491.697C21.7075 497.897 16.2755 508.812 16.004 515.661C15.7566 521.902 13.9354 528.642 21.5618 532.603C29.9041 536.936 41.8742 537.524 50.5524 541.743C65.3146 548.92 75.8348 556.801 93.0621 560.691C106.31 563.683 123.952 562.067 137.675 561.806C167.843 561.232 193.704 545.621 220.29 537.73C231.818 534.309 278.272 510.082 278.272 530.82C278.272 540.339 270.835 544.762 268.057 553.781C264.997 563.715 267.457 575.711 267.457 585.881C267.457 594.451 280.526 596.303 289.087 599.479C298.396 602.933 297.198 610.22 297.198 616.979C297.198 629.481 291.791 626.478 291.791 615.975C291.791 611.902 294.573 600.206 290.289 597.027C284.911 593.037 263.988 593.494 256.641 592.346C242.008 590.06 226.344 591.446 211.879 588.891C190.941 585.191 154.16 584.727 136.323 595.021C118.594 605.253 115.39 633.235 129.563 645.066C143.364 656.587 140.378 671.408 140.378 686.195C140.378 695.813 157.423 702.005 167.717 706.369C176.037 709.897 193.185 720.017 203.166 720.302C213.712 720.603 226.985 721.844 236.513 718.073C248.711 713.245 257.801 702.366 269.559 696.227C305.819 677.293 351.054 678.17 394.535 678.17C434.383 678.17 467.537 710.908 467.537 738.804C467.537 761.431 452.319 771.645 423.075 776.924C407.138 779.8 370.845 781.727 365.394 766.446C360.27 752.083 394.072 738.359 363.441 738.359C355.187 738.359 306.537 742.736 305.46 739.139C300.803 723.588 324.33 722.058 336.553 714.283C344.779 709.051 348.521 700.99 351.274 693.329C355.31 682.097 349.196 682.805 341.06 690.654C331.342 700.027 327.155 712.843 316.125 722.197C309.343 727.948 300.191 737.988 291.791 741.925C282.562 746.25 272.379 749.207 263.251 753.517C244.634 762.308 216.202 760.428 194.454 760.428C153.54 760.428 40.3382 733.388 40.3382 786.398C40.3382 791.965 38.0549 803.548 49.0504 804.454C81.7035 807.146 114.153 811.032 147.288 810.585C162.168 810.384 177.323 806.083 183.639 795.538C186.284 791.122 190.021 783.034 196.557 788.961C202.844 794.663 204.336 802.615 214.733 805.457C234.374 810.827 261.554 808.578 282.177 808.578C291.339 808.578 316.333 804.914 321.532 813.594C326.058 821.149 333.099 827.509 340.459 833.545C348.963 840.52 361.623 852.412 374.857 854.723C381.091 855.811 417.859 860.767 418.869 866.76C419.71 871.751 424.276 875.738 424.276 881.696C424.276 886.749 424.276 891.802 424.276 896.855C424.276 908.773 408.701 920.32 400.243 929.735C390.076 941.051 375.135 950.087 367.497 962.616C360.275 974.462 344.919 977.106 329.043 977.106C306.103 977.106 287.019 970.901 270.16 959.049C253.037 947.012 237.579 927.471 212.78 923.382C182.613 918.408 148.94 916.11 148.49 887.715C148.421 883.409 144.723 847.926 149.992 846.809C154.015 845.956 164.538 861.532 167.416 864.308C175.2 871.817 190.993 877.491 201.514 882.922C229.208 897.217 255.993 899.047 287.885 902.428C307.209 904.476 276.235 902.874 270.16 902.874C250.958 902.874 237.35 896.994 220.29 890.836C184.89 878.057 163.17 857.696 178.832 828.195C183.544 819.32 219.867 790.116 232.307 808.578" stroke="#F2FFF5" stroke-width="7" stroke-linecap="round" stroke-linejoin="round"/>
<path d="M1335.54 314.692C1357.15 320.108 1377.23 322.048 1390.03 336.302C1398.73 345.976 1403.01 354.596 1403.01 366.791C1403.01 397.66 1395.43 426.497 1368.12 450.448C1361.4 456.341 1357.14 470.667 1344.62 470.667C1333.57 470.667 1331.03 457.854 1328.33 451.839C1318.06 428.978 1304.4 402.892 1304.4 378.665C1304.4 367.321 1300.69 355.13 1321.26 355.13C1342.71 355.13 1349.15 355.957 1365.24 365.721C1380.2 374.805 1396.33 384.584 1405.03 397.494C1406.32 399.411 1405.66 412.594 1406.9 410.759C1411 404.678 1418.19 399.324 1418.58 392.145C1418.95 385.346 1415.28 385.922 1408.2 383.586C1399.71 380.787 1391.98 371.979 1383.55 367.646C1377.33 364.452 1370.31 362.472 1364.23 359.088C1356.93 355.025 1345.96 355.878 1337.55 352.135C1322.39 345.384 1300.75 345.502 1283.78 345.502C1265.15 345.502 1262.87 352.088 1262.87 364.758C1262.87 380.37 1260.28 395.052 1260.28 410.545C1260.28 424.627 1261.75 439.079 1257.68 452.909C1255.82 459.259 1248.27 484.147 1235.48 484.147C1216.39 484.147 1203 486.018 1184.44 480.723C1172.87 477.42 1171.3 467.044 1165.41 460.183C1153.64 446.457 1154.79 430.188 1147.39 414.824C1138.81 396.991 1155.93 397.494 1173.34 397.494C1181.26 397.494 1195.25 395.36 1202.03 398.563C1209.22 401.958 1213.64 406.076 1221.35 408.619C1233.98 412.785 1251.14 414.09 1260.86 422.099C1277.25 435.614 1242.11 452.507 1242.11 467.779C1242.11 474.383 1247.3 479.787 1247.3 486.5C1247.3 493.632 1250.96 505.803 1256.24 511.961C1271.18 529.376 1303.47 476.229 1328.33 476.229C1344.09 476.229 1407.29 466.722 1415.98 476.229C1425.06 486.149 1442.53 547.709 1442.53 560.146C1442.53 576.903 1377.05 588.13 1353.56 588.13C1325.38 588.13 1296.58 590.056 1268.06 590.056C1249.16 590.056 1239.74 589.302 1228.56 578.93C1216.86 568.075 1226.27 550.103 1228.99 537.957C1230.14 532.855 1231.88 528.347 1237.5 525.013C1240.79 523.06 1259.54 521.214 1260.13 519.664C1265.04 506.916 1227.48 511.105 1218.76 511.105C1209.82 511.105 1205.22 509.798 1200.59 515.812C1196.48 521.149 1188.59 521.694 1183 525.013C1175.62 529.393 1150.73 526.915 1140.9 526.51C1136.77 526.34 1136.34 523.495 1133.12 522.231C1130.72 521.289 1124.15 521.292 1122.88 519.878C1121.9 518.787 1124.86 522.659 1126.63 522.659C1132.45 522.659 1138.26 522.659 1144.08 522.659C1184.31 522.659 1223.03 522.187 1261.58 528.543C1274.76 530.717 1258.42 537.961 1256.39 539.134C1248.91 543.45 1244.37 544.854 1240.09 551.543C1233.32 562.16 1229.14 576.473 1229.14 588.13C1229.14 601.715 1249.17 599.386 1261.58 604.498C1270.95 608.362 1288.28 617.459 1297.91 619.047C1317.85 622.336 1333.09 647.376 1345.92 657.453C1359.12 667.826 1368.42 683.213 1373.89 696.393C1380.34 711.955 1384.41 736.395 1379.51 752.771C1377.88 758.196 1372.54 760.443 1369.85 765.288C1367.27 769.936 1382.34 761.582 1383.69 760.581C1395.58 751.759 1433.74 754.35 1433.74 739.399C1433.74 726.526 1434.41 675.695 1433.74 662.802C1432.5 638.775 1365.63 623.898 1338.13 650.134C1328.51 659.312 1326.66 700.918 1318.52 711.263C1308.7 723.754 1276.73 725.288 1259.99 726.668C1233.89 728.82 1210.65 726.682 1200.59 707.091C1194.82 695.858 1197.04 679.082 1198 667.081C1198.76 657.423 1220.97 657.301 1224.09 646.862C1227.89 634.171 1244.84 624.832 1256.53 616.159C1270.94 605.468 1282.86 617.015 1299.2 617.015C1308.39 617.015 1314.05 617.69 1319.97 612.201C1323.3 609.112 1333 605.884 1338.13 605.461C1352.81 604.251 1370.28 600.881 1369.27 588.13C1368.92 583.74 1356.3 586.286 1356.3 591.019C1356.3 599.8 1353.9 599.868 1345.92 605.461C1335 613.11 1322.49 619.751 1310.88 626.643C1300.11 633.04 1282.81 630.494 1269.36 630.494C1258.91 630.494 1251.18 638.331 1242.11 641.085C1232.02 644.149 1221.13 649.447 1212.7 654.564C1209.32 656.617 1209.62 661.021 1205.78 662.802C1195.89 667.39 1192.81 686.118 1192.81 694.04C1192.81 704.676 1192.51 715.288 1181.13 721.854C1176.01 724.81 1171.56 729.149 1167.43 732.98C1165.06 735.175 1157.37 744.494 1156.62 746.994C1149.61 770.406 1122.91 803.793 1157.77 823.912C1188.53 841.664 1173.4 877.161 1153.3 895.802C1143.23 905.141 1132.83 905.858 1116.11 905.858C1096.12 905.858 1075.91 901.412 1057.28 896.23C1043.17 892.303 1042.29 892.106 1042.29 881.681C1042.29 868.784 1039.7 855.29 1039.7 841.885C1039.7 834.991 1041.96 829.554 1033.21 825.945C1029.94 824.596 1011.85 824.814 1019.51 817.707C1030.59 807.432 1043.7 796.912 1047.63 783.795C1050.51 774.164 1078.21 774.574 1086.55 779.73C1089.77 781.719 1094.61 780.055 1098.23 781.762C1102.42 783.743 1104.9 786.277 1108.47 788.395C1114.53 791.997 1120.91 798.841 1127.93 801.447C1134.25 803.793 1140.04 803.8 1147.39 803.8C1159.43 803.8 1151.2 813.159 1154.46 819.205C1166.92 842.332 1217.2 836.536 1246.01 836.536C1260.32 836.536 1277.37 833.791 1285.65 844.238C1292.22 852.522 1301.8 865.622 1301.8 875.049C1301.8 886.867 1305.26 898.205 1304.4 909.71C1303.93 915.922 1298.65 920.74 1295.31 926.184C1290.05 934.771 1289.95 936.668 1303.82 936.668C1319.56 936.668 1334.89 934.743 1351.11 934.743C1356.89 934.743 1367.53 935.533 1371.29 939.022C1375.49 942.917 1371.8 947.436 1378.36 951.218C1382.96 953.875 1389.14 955.576 1392.63 958.813C1399.73 965.396 1400.41 952.078 1400.41 947.794C1400.41 936.891 1401.86 917.9 1395.8 907.784C1392.77 902.733 1397.82 894.186 1397.82 888.528C1397.82 882.849 1400.41 877.382 1400.41 872.16C1400.41 859.905 1364.6 855.792 1352.4 855.792C1334.15 855.792 1321.01 842.313 1303.1 842.313C1296 842.313 1290.73 838.772 1283.63 838.462C1274.27 838.053 1287.11 826.015 1292.72 825.089C1307.36 822.675 1302.17 807.787 1297.19 801.875C1293.21 797.152 1287.65 793.085 1282.48 789.251C1277.75 785.742 1277.82 779.172 1275.27 774.916C1270.21 766.465 1273.87 750.985 1279.74 743.143C1286.77 733.749 1310.28 738.329 1324 738.329C1331.29 738.329 1349.16 736.029 1355 739.399C1362.81 743.905 1360.6 749.641 1364.66 755.66C1371.31 765.532 1373.83 780.432 1387.44 786.042C1396.5 789.778 1416.68 800.794 1415.98 809.577C1415.57 814.774 1401.35 819.247 1396.67 822.094C1391.79 825.055 1382.56 836.449 1382.25 840.387C1381.36 851.548 1358.62 862.025 1351.25 872.053C1338.69 889.135 1327.02 903.416 1319.82 922.119C1317.87 927.185 1310.86 931.792 1309.73 938.487C1308.84 943.789 1339.43 1016.3 1303.1 1010.1C1294.51 1016.47 1261.51 999.756 1247.3 999.135C1242.5 998.926 1222.23 961.71 1218.76 958.813C1212.49 953.585 1231.33 941.21 1222.65 937.631C1212.59 933.484 1184.87 939.022 1173.34 939.022C1155.76 939.022 1158.51 977.727 1144.08 984.026C1134.85 988.054 1086.67 999.135 1075.14 999.135C1060.33 999.135 1106.27 942.553 1111.78 936.668C1118.03 929.99 1120.14 921.946 1120.14 913.989C1120.14 906.343 1122.74 902.007 1111.06 902.007C1089.85 902.007 1067.45 897.339 1046.33 900.189C1033.15 901.967 1019.21 925.201 1013.17 932.817C1010.33 936.399 1024.17 987.751 1019.51 990.673C1008.02 997.889 976.63 1003.75 963.36 1006.07C955.358 1013.34 935.294 991.828 927.088 987.847C916.081 982.507 927.084 939.154 921.619 931.854C917.491 926.34 905.178 926.388 904.751 917.84C904.315 909.095 904.751 900.275 904.751 891.523C904.751 887.141 907.055 877.828 902.733 874.62C898.115 871.194 885.273 873.123 878.8 873.123C863.493 873.123 849.779 876.213 845.064 886.709C840.796 896.21 835.126 909.182 845.641 916.984C856.085 924.734 855.444 937.895 855.444 948.222C855.444 960.552 814.135 984.026 803.566 984.026C778.585 984.026 748.829 965.129 733.619 947.259C720.681 932.059 719.322 913.637 730.303 898.156C735.696 890.553 743.325 867.346 725.69 867.346C704.469 867.346 683.862 868.428 663.407 869.272C656.319 869.564 648.194 874.144 641.349 873.016C635.926 872.122 631.085 865.709 624.481 865.42C602.263 864.451 595.51 890.948 581.662 900.082C572.036 906.431 552.603 935.278 570.272 939.45C577.937 941.259 584.686 941.945 592.042 944.371C596.066 945.698 598.004 947.6 602.423 948.329C608.715 949.367 609.036 955.59 616.696 955.925C626.782 956.365 604.861 967.035 610.352 960.632C614.326 955.999 615.838 943.027 622.463 940.948C646.972 933.253 715.309 946.149 715.309 916.449C715.309 902.713 687.058 913.624 675.085 906.714C665.966 901.451 649.949 902.007 638.61 902.007C626.2 902.007 614.068 899.853 602.279 898.263C587.442 896.261 572.579 884.922 572.579 873.123C572.579 858.084 569.984 843.562 569.984 828.833C569.984 817.601 569.984 806.368 569.984 795.135C569.984 785.851 569.042 783.94 579.5 778.767C587.789 774.666 598.894 768.382 608.911 767.32C615.396 766.633 630.368 762.42 634.717 758.655C636.89 756.774 640.895 754.966 643.8 753.734C646.064 752.774 645.458 749.201 647.26 747.529C652.401 742.761 629.855 744.106 627.076 744.106C612.818 744.106 598.312 741.001 585.555 736.403C559.245 726.921 549.223 708.222 549.223 687.3C549.223 675.899 552.839 675.524 567.966 670.932C579.729 667.361 591.343 664.127 602.567 660.341C613.68 656.593 630.044 660.075 639.907 664.192C648.039 667.586 651.754 675.067 659.371 678.207C675.614 684.903 690.17 690.376 699.162 675.211C704.18 666.749 718.893 662.532 723.671 652.96C726.819 646.653 728.542 639.936 731.024 633.489C731.765 631.565 733.475 646.827 733.475 649.75C733.475 654.215 725.603 662.35 721.653 666.118C709.528 677.686 689.332 683.3 676.383 694.04C666.816 701.974 668.598 713.034 668.598 722.924C668.598 728.737 665.969 738.754 669.174 744.106C671.333 747.71 676.14 751.279 680.276 753.734C687.342 757.929 673.282 753.819 670.616 752.236C663.055 747.748 622.125 750.799 614.101 753.306C598.645 758.135 573.81 748.833 559.604 745.069C550.587 742.679 545.876 738.305 535.671 735.975C526.764 733.942 515.404 733.524 506.116 734.585C491.245 736.282 476.069 737.781 460.99 735.334C456.709 734.639 424.659 728.295 424.659 730.626C424.659 743.377 428.603 759.414 434.463 771.493C438.366 779.538 450.89 783.761 460.414 787.967C471.742 792.971 481.348 796.916 491.987 802.837C497.461 805.884 506.405 814.777 509.72 819.205C515.856 827.4 526.274 833.004 537.257 837.392C544.564 840.311 550.702 843.3 558.45 844.345C572.018 846.176 572.422 845.541 566.812 853.867C556.695 868.881 551.085 884.414 528.463 892.807C518.116 896.646 507.172 900.108 495.88 902.435C483.724 904.941 475.91 915.763 463.441 917.305C451.647 918.764 442.287 924.575 435.039 914.417C428.026 904.587 428.572 895.633 427.11 884.784C425.682 874.185 417.624 846.489 430.426 838.89C434.365 836.551 449.166 838.462 454.503 838.462C465.201 838.462 467.169 843.986 474.542 848.09C483.722 853.198 489.536 856.614 489.536 865.42C489.536 870.471 489.327 875.812 493.573 879.863C505.822 891.549 515.054 906.579 523.272 920.301C527.561 927.461 545.698 971.238 537.257 976.109C531.975 979.158 517.079 986.167 509.72 987.847C497.987 990.526 486.426 987.176 474.542 984.026C442.378 975.503 401.151 960.554 375.352 942.445C366.705 936.376 354.559 934.743 342.914 934.743C330.54 934.743 331.962 937.877 322.874 943.301C305.941 953.408 293.697 960.574 273.567 965.553C261.125 968.63 247.24 967.276 234.352 968.976C228.845 969.703 221.112 970.2 215.898 968.441C207.101 965.474 211.762 950.069 208.69 944.371C204.575 936.738 204.141 927.935 200.184 920.301C195.429 911.128 195.075 906.975 184.613 900.937C177.708 896.952 158.966 896.23 150.156 896.23C120.614 896.23 92.8466 892.532 74.3218 913.347C66.4384 922.205 61.3463 932.4 61.3463 942.873C61.3463 953.458 57.8649 957.609 48.3709 965.66C38.6684 973.888 36.9198 977.107 22.42 977.107C15.3521 977.107 12.0396 969.403 12.0396 964.483C12.0396 956.138 10.0674 947.76 18.6714 941.376C31.135 932.127 37.7657 919.36 43.7574 907.356C50.8296 893.187 72.5006 885.342 81.5303 871.197C86.256 863.794 87.5312 853.635 77.4936 848.946C72.3394 846.538 70.1387 845.11 65.9598 841.885C59.3495 836.784 54.11 838.721 47.2174 835.466C33.2275 828.86 17.7728 833.379 8.00269 821.987C-3.45545 808.626 1.65917 788.402 1.65917 772.99C1.65917 764.636 33.6656 761.175 23.5733 759.511C14.9279 758.085 8.00269 751.502 8.00269 744.782C8.00269 740.564 10.7562 727.236 12.0396 723.074C16.7197 707.897 -4.19387 705.476 8.00269 692.466C15.88 684.064 19.1745 684.066 32.2236 684.412C45.8678 684.773 57.4696 695.298 70.5733 697.891C84.1297 700.573 96.6987 704.852 110.653 707.091C133.223 710.712 132.322 699.745 137.757 687.407C144.414 672.298 144.389 659.114 144.389 643.225C144.389 616.566 92.9943 607.387 64.0857 607.387C49.0501 607.387 27.4715 604.388 15.2113 611.666C-3.6833 622.882 5.62318 646.091 4.72929 663.337C3.94604 678.448 -8.12466 701.91 18.3831 705.486C40.9998 708.538 35.4399 671.171 32.8003 663.337C24.7362 639.402 23.2466 615.405 13.3371 591.875C8.78907 581.075 11.6122 568.092 8.86791 556.892C5.54807 543.344 2.75533 536.139 23.5733 536.139C45.4771 536.139 79.5119 540.87 79.5119 561.172C79.5119 570.57 73.1892 600.655 87.2972 605.889C96.6958 609.376 92.5986 590.2 92.4874 585.991C92.3682 581.481 84.6156 568.519 80.8095 565.13C66.9937 552.828 52.3047 546.059 33.377 538.064C25.3344 534.667 12.6262 529.638 12.0396 521.803C11.3278 512.296 12.0386 504.028 6.84939 494.952C0.235774 483.384 4.83099 471.524 4.83099 458.296C4.83099 442.204 1.56764 424.418 6.84939 408.741C9.3451 401.334 -2.07441 392.233 9.44456 389.791C21.6712 387.199 24.6474 380.106 35.3954 375.884C45.4181 371.947 50.83 363.953 61.3463 360.051C76.3515 354.484 93.8686 355.13 110.076 355.13C133.075 355.13 149.058 368.609 172.935 368.609C176.781 368.609 190.405 367.023 193.119 369.037C200.035 374.169 176.492 376.312 174.089 376.312C144.272 376.312 114.313 378.237 84.8464 378.237C77.6127 378.237 63.2589 380.518 57.4537 377.168C47.4783 371.411 39.2905 365.854 27.0333 362.405C4.52143 356.068 11.4187 338.877 9.44456 319.834C8.01242 306.019 -1.90559 298.146 17.0857 293.113C27.6145 290.323 23.0591 287.924 32.8003 284.31C38.6696 282.132 51.4452 283.882 57.8862 283.882C78.9353 283.882 99.9843 283.882 121.033 283.882C126.771 283.882 133.784 282.217 134.009 287.733C134.145 291.067 135.251 296.549 132.567 299.394C125.552 306.83 130.972 316.233 127.521 324.427C123.35 334.33 118.528 346.521 121.033 357.056C122 361.118 169.008 366.711 174.954 368.181C218.087 378.85 287.651 388.722 314.656 353.097C325.468 338.835 331.236 323.484 331.236 306.989C331.236 298.816 331.754 291.666 324.604 284.845C321.448 281.834 314.997 280.387 310.331 279.175C295.497 275.322 285.247 267.456 270.972 262.7C250.652 255.93 231.95 259.563 211.862 264.626C199.419 267.761 191.898 275.108 181.73 280.138C162.177 289.81 131.598 308.298 126.224 326.246C125.32 329.263 115.777 346.522 108.635 341.223C96.6741 332.348 95.0824 321.071 95.0824 309.022C95.0824 293.935 113.252 292.437 124.205 284.31C133.629 277.317 142.956 270.43 150.877 262.593C160.565 253.008 166.071 241.945 172.791 231.141C177.467 223.624 182.987 216.242 183.316 207.713C184.154 185.937 226.46 191.196 243.003 197.657C263.105 205.508 277.45 209.14 296.346 197.122C314.874 185.338 299.683 164.331 285.678 155.828C275.271 149.51 280.731 148.052 288.417 142.349C303.424 131.213 318.576 116.265 339.021 110.576C361.652 104.279 382.749 108.65 404.475 108.65C423.043 108.65 460.99 110.2 460.99 127.906C460.99 141.885 460.99 155.864 460.99 169.842C460.99 178.307 463.13 188.49 457.819 196.373C452.525 204.228 441.516 206.626 435.039 212.634C426.462 220.589 387.593 221.144 376.65 215.522C363.409 208.72 365.282 190.705 369.586 180.326C372.685 172.852 372.249 171.507 381.84 168.344C393.786 164.405 409.794 166.419 422.641 166.419C437.667 166.419 451.748 163.131 466.181 162.568C476.233 162.175 479.92 157.917 489.536 156.898C512.69 154.443 524.721 170.27 545.475 170.27C581.544 170.27 585.555 150.375 585.555 127.906C585.555 113.131 578.807 97.0861 559.604 89.8218C550.422 86.3484 528.199 81.8138 518.082 86.5054C497.666 95.974 479.156 108.866 479.156 127.478C479.156 141.475 473.418 159.947 494.15 165.991C515.199 172.127 574.768 193.046 583.104 167.275C586.158 157.832 590.745 150.685 590.745 140.637C590.745 134.84 593.277 129.907 595.935 124.483C602.688 110.703 605.406 91.4495 594.493 78.589C588.353 71.3531 578.885 46.0611 589.303 39.4347C603.679 30.2913 611.799 15.8372 627.076 7.01999C656.638 -10.0411 669.655 22.9059 681.573 37.83C687.512 45.2663 687.027 61.3076 686.763 69.7097C686.255 85.9413 638.756 81.6914 625.923 81.6914C604.68 81.6914 587.115 85.6201 575.751 70.7795C570.271 63.6232 571.378 51.347 570.561 43.3929C569.066 28.8342 569.984 14.0207 569.984 -0.575524C569.984 -9.47976 575.597 -4.53347 561.622 -4.53347C556.881 -4.53347 545.604 -7.49312 542.015 -4.53375C535.509 0.830257 522.826 -1.85186 515.631 1.885C502.319 8.79959 471.536 6.59208 455.8 6.59208C440.751 6.59208 451.26 -2.65972 435.039 -4.53375C435.039 -11.9974 428.599 -3.70433 415.249 -2.18031C408.715 -1.43435 402.796 -1.32153 396.262 -0.575575C389.124 0.239213 393.708 -2.09395 387.75 1.885C374.153 10.9655 361.677 10.6974 360.07 23.8157C358.645 35.4512 354.349 56.9141 370.595 64.1468C388.361 72.0567 419.3 80.2354 440.23 75.0587C463.264 69.3614 475.18 49.9913 489.248 36.6532C504.013 22.6538 525.437 23.4688 548.07 23.9227C562.138 24.2048 566.187 37.2226 567.533 45.2115C569.909 59.3132 577.988 69.5691 561.622 81.2635C549.848 89.6768 531.027 87.4683 516.352 87.4683C486.346 87.4683 455.844 88.8493 426.101 85.9706C402.63 83.6989 374.987 80.5065 362.954 62.6491C354.321 49.8376 354.502 34.9533 341.76 23.9227C329.642 13.432 318.977 4.2275 301.536 -2.18021C285.889 -7.92912 261.91 -4.5303 243.003 -2.65972C214.675 0.142939 204.076 17.5137 204.076 33.3368C204.076 45.4237 201.853 58.998 213.303 68.8539C223.255 77.4199 244.577 86.8966 259.727 87.4683C282.244 88.3178 290.158 67.3913 298.076 55.1606C307.559 40.5129 318.26 29.3311 318.26 12.3689C318.26 2.18268 315.711 3.90991 300.095 1.12886C280.774 -2.31185 248.159 -3.42823 228.649 -2.18021C201.386 -0.436222 180.659 -7.4379 168.322 10.8712C160.903 21.881 160.767 37.8616 162.555 50.0256C164.296 61.8676 205.399 69.6752 217.196 74.2028C238.388 82.3366 257.144 92.5372 279.478 99.022C287.767 101.429 313.07 103.198 313.07 112.073C313.07 117.459 303.899 121.928 300.095 125.767C291.5 134.44 287.497 146.957 274.144 152.619C250.006 162.853 224.342 156.53 208.402 141.6C193.265 127.422 187.55 109.706 181.874 92.3893C180.149 87.1279 168.363 67.5144 184.613 70.3516C203.663 73.6775 229.223 88.5973 234.641 102.445C241.635 120.321 227.667 133.659 218.205 148.339C209.573 161.732 191.686 171.381 175.819 179.791C165.649 185.182 152.341 195.303 139.055 195.303C128.783 195.303 118.825 197.229 108.49 197.229C91.5145 197.229 50.2693 203.147 37.4138 192.95C27.9352 185.431 28.6007 168.179 30.7819 158.716C34.0368 144.597 54.1439 130.126 71.0058 124.269C82.4059 120.309 117.666 112.081 126.224 122.664C135.818 134.53 139.035 148.323 139.199 161.926C139.407 179.229 131.99 193.742 128.819 210.708C126.835 221.323 126.53 232.438 122.475 242.802C115.552 260.496 90.4903 276.746 65.0948 268.049C46.2654 261.6 31.6148 247.162 17.0857 236.597C-1.26447 223.253 9.64156 211.953 9.44456 192.95C9.20568 169.907 -0.115052 145.599 2.1103 122.664C4.24656 100.648 -3.19409 83.981 17.5181 66.6073C32.6317 53.9299 53.2404 46.2066 69.7084 34.7276C79.4303 27.9509 87.5841 21.4379 102.579 26.3832C121.158 32.5103 122.826 53.0463 123.484 65.7515C124.246 80.4399 120.836 93.5029 100.273 100.092C40.6348 119.201 12.5893 47.0712 2.1103 16.6755C-1.57272 5.99233 -0.610213 0.415735 17.5181 -2.18021C47.7511 -6.5095 59.9212 -0.371574 90.4998 -2.1802C112.041 -3.45432 155.148 -9.35575 158.592 12.3689C161.082 28.0698 124.139 15.8434 107.193 11.941C97.2572 9.65301 95.0824 -1.71342 95.0824 -7.8501" stroke="#D3FDD4" stroke-opacity="0.6" stroke-width="7" stroke-linecap="round" stroke-linejoin="round"/>
<path d="M1068.09 576.46C1061.78 570.273 1044.56 548.103 1053.47 539.599C1063.98 529.577 1076.54 526.648 1093.6 526.648C1106.87 526.648 1116.43 538.463 1116.43 548.122C1116.43 556.402 1121.48 577.112 1113.14 583.987C1109.94 586.632 1108.24 592.678 1104.19 594.393C1098.1 596.974 1091.82 598.301 1085.55 600.37C1074.54 604 1063.29 608.805 1051.83 610.222C1044.61 611.115 1015.08 613.136 1009.61 609.89C998.191 603.109 1000.66 595.876 994.995 586.423C990.614 579.107 986.344 566.383 987.685 558.417C988.389 554.242 988.813 545.265 991.564 541.592C995.763 535.984 990.221 530.192 990.221 524.545C990.221 511.865 976.96 504.962 965.458 497.203C951.472 487.769 907.259 483.962 892.659 490.783C872.743 500.088 861.332 520.819 861.332 537.717C861.332 552.187 856.625 571.025 865.509 584.209C873.915 596.684 915.951 594.393 931.147 594.393C950.233 594.393 969.448 590.435 980.674 577.346C987.722 569.127 985.116 557.326 990.221 548.565C996.455 537.869 992.907 522.728 992.907 511.372C992.907 488.844 1004.01 446.235 979.481 427.023C971.723 420.947 954.647 413.076 943.23 413.076C925.646 413.076 908.867 401.121 889.526 401.121C873.334 401.121 856.975 391.022 841.938 386.731C833.349 384.279 826.244 378.257 821.054 372.783C813.05 364.344 814.743 359.316 812.401 349.759C808.489 333.795 810.805 321.421 835.822 321.421C849.034 321.421 862.654 320.684 875.802 321.532C889.041 322.386 896.115 329.529 905.637 335.479C930.654 351.111 944.573 370.992 944.573 394.701C944.573 411.104 916.535 417.64 900.715 425.031C872.209 438.349 832.252 436.978 800.914 429.901C768.553 422.593 727.941 400.61 709.468 379.646C701.514 370.62 727.852 360.692 735.127 355.294C755.457 340.209 776.182 333.251 781.372 310.573C786.177 289.579 787.302 268.696 786.146 247.256C785.657 238.191 753.342 221.797 741.84 221.797C727.28 221.797 712.747 212.452 696.341 215.93C686.609 217.993 699.556 242.79 691.567 238.18C687.444 235.8 675.821 237.018 670.682 235.301C662.089 232.432 653.756 230.915 645.918 226.889C630.969 219.209 618.687 200.436 617.127 187.703C616.275 180.752 613.358 164.65 618.47 158.148C623.599 151.623 642.126 154.052 650.394 154.052C667.35 154.052 684.307 154.052 701.264 154.052C725.273 154.052 736.815 152.607 753.923 166.007C762.732 172.906 764.641 182.329 767.946 191.024C774.803 209.064 786.685 225.745 790.92 244.6C797.06 271.939 802.56 292.766 835.822 306.478C848.305 311.623 883.331 308.661 896.239 305.924C905.494 303.962 911.902 291.701 914.439 285.114C917.119 278.152 915.036 268.873 915.036 261.647C915.036 243.786 886.292 224.846 868.045 215.819C848.363 206.083 810.114 192.995 793.008 212.941C783.865 223.603 786.472 248.551 788.98 260.65C794.054 285.123 822.571 299.519 850.74 309.356C879.035 319.236 904.298 335.369 936.517 335.369C950.227 335.369 962.768 338.985 976.199 339.354C987.188 339.656 998.287 339.852 1009.02 341.789C1030.02 345.58 1054.67 345.94 1054.67 366.252C1054.67 379.102 1058.99 403.668 1045.12 413.961C1022.91 430.44 971.664 420.285 948.153 412.633C925.846 405.373 917.721 391.264 917.721 374.222C917.721 358.413 917.362 351.074 935.026 340.35C951.329 330.452 975.676 332.076 994.995 326.956C1013.76 321.984 1026.49 317.436 1046.61 317.436C1084.47 317.436 1139.83 335.064 1155.21 361.16C1163.98 376.027 1162.07 393.552 1162.07 409.534C1162.07 424.967 1166.89 449.092 1143.28 456.468C1132.34 459.886 1109.68 458.903 1097.63 458.903C1084.07 458.903 1068.1 460.767 1055.26 456.911C1026.37 448.233 1027.81 423.1 1027.81 403.113C1027.81 389.647 1032.05 381.61 1037.21 369.352C1042.13 357.685 1058.96 356.577 1065.41 348.209C1072.75 338.673 1098.61 341.346 1110.46 341.346C1135.52 341.346 1160.58 341.346 1185.64 341.346C1215.34 341.346 1244.09 337.318 1254.57 315.112C1260.3 302.959 1258.74 286.285 1258.74 273.491C1258.74 247.112 1245.35 224.083 1228.01 201.318C1219.31 189.89 1207.28 170.426 1186.24 169.992C1175.71 169.775 1160.7 168.141 1150.74 170.435C1121.32 177.209 1100.6 199.475 1086.29 218.255C1072.11 236.867 1070.78 250.958 1070.78 271.72C1070.78 283.75 1093.55 301.848 1107.18 307.363C1115.13 310.582 1121.54 314.939 1129.26 318.543C1138.09 322.669 1149.8 323.741 1159.39 327.399C1179.14 334.935 1195.81 339.917 1216.38 333.376C1222.52 331.424 1235.48 326.264 1239.8 322.528C1246.95 316.338 1273.54 315.444 1284.4 315.444C1295.65 315.444 1368.84 309.16 1368.84 322.418C1368.84 327.274 1369.61 332.555 1368.69 337.361C1367.22 344.965 1351.23 353.927 1344.82 359.279C1332.44 369.607 1295.15 380.564 1276.35 374.222C1250.68 365.566 1258.74 340.321 1258.74 323.414C1258.74 307.525 1262.21 289.696 1272.76 275.594C1282.25 262.929 1307.48 259.478 1319.16 247.478C1334.94 231.266 1355.79 215.983 1357.95 194.345C1359.55 178.268 1361.96 156.436 1357.5 140.547C1353.07 124.779 1331.83 120.737 1313.64 118.187C1291.19 115.04 1253.57 109.234 1247.4 129.257C1244.36 139.13 1237.26 147.906 1237.26 158.148C1237.26 168.853 1234.58 179.333 1234.58 190.138C1234.58 209.768 1252.3 234.51 1279.03 241.722C1303.53 248.332 1319.84 237.454 1325.28 219.804C1330.47 202.93 1342.17 187.136 1347.95 169.992C1352.92 155.256 1354.81 128.592 1348.55 113.981C1343.53 102.289 1332.82 84.437 1320.35 76.345C1310.22 69.7656 1292.43 67.5179 1280.07 63.3938C1261.19 57.0882 1243.68 55.6701 1223.24 53.9848C1204.48 52.4383 1174.77 47.9062 1157.9 56.4201C1136.14 67.3998 1127.17 90.3552 1127.17 108.889C1127.17 121.178 1131.54 124.165 1148.65 124.165C1169.04 124.165 1189.42 124.165 1209.81 124.165C1219.45 124.165 1237.46 126.661 1244.12 119.737C1251.51 112.067 1253.65 101.203 1256.65 92.2849C1261.68 77.3636 1258.74 59.9222 1258.74 44.5759C1258.74 36.7843 1258.49 31.1821 1247.55 27.529C1232.44 22.4819 1210.58 22.4461 1194.15 19.559C1147.78 11.4109 1091.27 2.63187 1044.52 15.0206C1022.47 20.864 1008.23 40.8837 1006.33 57.3057C1005.4 65.4158 1002 75.1957 999.62 83.3187C997.168 91.6873 998.277 100.691 998.277 109.221C998.277 129.123 1003.01 138.899 1027.67 148.96C1044.73 155.923 1061.63 163.166 1078.83 169.549C1100.52 177.596 1115.92 169.088 1122.39 153.609C1129.66 136.234 1126.52 103.649 1097.48 98.2624C1079.69 94.9628 1061 96.2699 1042.73 96.2699C1017.34 96.2699 993.76 95.7811 969.187 101.251C947.945 105.98 915.036 124.15 915.036 141.654C915.036 163.021 912.35 184.357 912.35 205.857C912.35 227.675 922.353 245.191 941.888 261.757C954.399 272.367 988.417 301.966 1011.55 292.309C1022.72 287.647 1027.36 274.977 1034.68 267.735C1047.56 254.988 1067.21 242.973 1070.48 226.003C1077.4 190.076 1021.85 193.902 989.028 193.902C976.765 193.902 960.508 191.552 952.629 200.322C944.495 209.375 945.066 222.048 941.291 232.202C934.533 250.38 936.517 270.734 936.517 289.542C936.517 309.235 866.237 282.935 855.514 277.365C770.208 233.056 706.334 160.917 686.793 85.3112C681.615 65.2764 673.787 19.5712 702.904 6.60784C728.653 -4.85568 760.893 8.67005 780.775 20.9981C802.723 34.6067 814.856 43.8499 824.335 64.3901C827.943 72.2076 835.305 93.9279 825.827 101.805C808.432 116.261 789.893 122.172 763.322 122.172C747.003 122.172 733.309 124.384 723.193 112.874C715.745 104.4 700.219 84.9916 700.219 74.3525C700.219 56.2273 727.965 58.4126 747.956 58.4126C760.417 58.4126 771.253 57.789 783.461 55.9773C796.712 54.0108 809.415 49.3875 822.396 46.5683C834.844 43.8649 848.468 44.0063 861.332 42.9154C882.743 41.0997 915.574 36.824 920.257 59.4088C923.244 73.8155 922.209 87.8096 923.24 102.358C924.929 126.163 924.947 149.106 911.157 171.431C902.203 185.928 870.239 179.955 852.381 179.955C818.394 179.955 805.874 161.353 813.595 137.005C818.331 122.069 847.483 114.922 864.017 111.767C875.449 109.586 922.751 97.5049 928.462 110.217" stroke="#D3FDD4" stroke-opacity="0.6" stroke-width="7" stroke-linecap="round" stroke-linejoin="round"/>
<path d="M1117.56 562.098C1111.24 555.911 1094.02 533.741 1102.94 525.237C1113.44 515.215 1126 512.286 1143.07 512.286C1156.34 512.286 1165.89 524.101 1165.89 533.76C1165.89 542.04 1170.95 562.75 1162.61 569.625C1159.4 572.27 1157.7 578.316 1153.66 580.031C1147.57 582.612 1141.29 583.939 1135.01 586.008C1124 589.638 1112.76 594.443 1101.3 595.86C1094.08 596.753 1064.55 598.774 1059.08 595.528C1047.66 588.747 1050.12 581.514 1044.46 572.061C1040.08 564.745 1035.81 552.021 1037.15 544.055C1037.85 539.88 1038.28 530.903 1041.03 527.23C1045.23 521.622 1039.69 515.83 1039.69 510.183C1039.69 497.503 1026.42 490.6 1014.92 482.841C1000.94 473.407 956.723 469.6 942.123 476.421C922.207 485.726 910.796 506.457 910.796 523.355C910.796 537.825 906.089 556.663 914.973 569.847C923.379 582.322 965.415 580.031 980.611 580.031C999.697 580.031 1018.91 576.073 1030.14 562.984C1037.19 554.765 1034.58 542.964 1039.69 534.203C1045.92 523.507 1042.37 508.366 1042.37 497.01C1042.37 474.482 1053.47 431.873 1028.94 412.661C1021.19 406.585 1004.11 398.714 992.694 398.714C975.11 398.714 958.331 386.759 938.99 386.759C922.798 386.759 906.44 376.66 891.403 372.369C882.814 369.917 875.709 363.895 870.518 358.421C862.515 349.982 864.207 344.954 861.865 335.397C857.954 319.433 860.269 307.059 885.286 307.059C898.498 307.059 912.118 306.322 925.266 307.17C938.505 308.024 945.579 315.167 955.102 321.117C980.118 336.749 994.037 356.63 994.037 380.339C994.037 396.742 965.999 403.278 950.179 410.669C921.673 423.987 881.716 422.616 850.379 415.539C818.017 408.231 777.405 386.248 758.933 365.284C750.979 356.258 777.316 346.33 784.591 340.932C804.921 325.847 825.647 318.889 830.836 296.211C835.641 275.217 836.766 254.334 835.61 232.894C835.121 223.829 802.807 207.435 791.304 207.435C776.744 207.435 762.211 198.09 745.805 201.568C736.074 203.631 749.02 228.428 741.031 223.817C736.908 221.438 725.286 222.656 720.146 220.939C711.553 218.07 703.221 216.553 695.383 212.527C680.433 204.847 668.151 186.074 666.591 173.341C665.74 166.39 662.822 150.288 667.934 143.786C673.063 137.261 691.59 139.69 699.858 139.69C716.815 139.69 733.771 139.69 750.728 139.69C774.738 139.69 786.28 138.245 803.388 151.645C812.196 158.544 814.105 167.967 817.41 176.662C824.268 194.702 836.149 211.383 840.384 230.238C846.525 257.577 852.024 278.404 885.286 292.116C897.769 297.261 932.795 294.299 945.703 291.562C954.958 289.6 961.366 277.339 963.903 270.752C966.583 263.79 964.5 254.511 964.5 247.285C964.5 229.424 935.757 210.484 917.509 201.457C897.827 191.721 859.579 178.632 842.472 198.579C833.329 209.241 835.936 234.189 838.444 246.288C843.519 270.761 872.035 285.157 900.204 294.994C928.5 304.874 953.762 321.007 985.981 321.007C999.691 321.007 1012.23 324.623 1025.66 324.992C1036.65 325.294 1047.75 325.49 1058.48 327.427C1079.48 331.218 1104.13 331.578 1104.13 351.89C1104.13 364.74 1108.46 389.306 1094.58 399.599C1072.38 416.078 1021.13 405.923 997.617 398.271C975.31 391.011 967.185 376.902 967.185 359.86C967.185 344.051 966.826 336.712 984.49 325.988C1000.79 316.09 1025.14 317.714 1044.46 312.594C1063.22 307.622 1075.96 303.074 1096.07 303.074C1133.93 303.074 1189.29 320.702 1204.68 346.798C1213.44 361.665 1211.54 379.19 1211.54 395.172C1211.54 410.605 1216.35 434.73 1192.74 442.106C1181.8 445.524 1159.15 444.541 1147.09 444.541C1133.54 444.541 1117.57 446.405 1104.73 442.549C1075.83 433.871 1077.28 408.738 1077.28 388.751C1077.28 375.285 1081.51 367.248 1086.68 354.99C1091.59 343.323 1108.43 342.215 1114.87 333.847C1122.22 324.311 1148.07 326.984 1159.92 326.984C1184.98 326.984 1210.05 326.984 1235.11 326.984C1264.81 326.984 1293.55 322.956 1304.03 300.75C1309.76 288.597 1308.21 271.923 1308.21 259.129C1308.21 232.75 1294.82 209.721 1277.48 186.956C1268.77 175.528 1256.74 156.064 1235.71 155.63C1225.18 155.413 1210.16 153.779 1200.2 156.073C1170.78 162.847 1150.06 185.113 1135.76 203.893C1121.58 222.505 1120.24 236.596 1120.24 257.358C1120.24 269.388 1143.01 287.486 1156.64 293.001C1164.59 296.22 1171.01 300.577 1178.72 304.181C1187.55 308.307 1199.27 309.379 1208.85 313.037C1228.6 320.573 1245.27 325.555 1265.84 319.014C1271.98 317.061 1284.95 303.821 1289.26 300.086C1296.41 293.895 1323.01 293.001 1333.86 293.001C1351.04 269.866 1434.69 264.689 1434.69 277.947C1434.69 282.803 1430.89 322.621 1429.97 327.427C1428.5 335.031 1400.69 339.565 1394.28 344.917C1381.91 355.245 1344.61 366.202 1325.81 359.86C1300.14 351.204 1308.21 325.959 1308.21 309.052C1308.21 293.163 1311.67 275.334 1322.23 261.232C1331.71 248.567 1406.47 254.347 1418.15 242.347C1433.93 226.135 1436.44 208.595 1438.6 186.956C1440.21 170.88 1411.42 142.074 1406.96 126.185C1402.53 110.417 1381.3 106.375 1363.1 103.825C1340.65 100.678 1303.04 94.8718 1296.87 114.895C1293.83 124.768 1286.72 133.544 1286.72 143.786C1286.72 154.491 1284.04 164.971 1284.04 175.776C1284.04 195.406 1301.77 220.148 1328.49 227.36C1352.99 233.97 1369.3 223.092 1374.74 205.442C1379.94 188.568 1391.64 172.774 1397.41 155.63C1402.38 140.894 1444.87 96.5194 1438.6 81.9079C1442.37 52.8952 1430.76 13.289 1418.3 5.19697C1408.17 -1.38241 1356.9 -1.71571 1344.55 -5.83982C1325.66 -12.1455 1293.14 41.308 1272.7 39.6228C1253.94 38.0763 1224.24 33.5441 1207.36 42.0581C1185.6 53.0378 1176.63 75.9932 1176.63 94.527C1176.63 106.816 1181 109.803 1198.11 109.803C1218.5 109.803 1238.89 109.803 1259.28 109.803C1268.91 109.803 1286.92 112.299 1293.59 105.375C1300.97 97.7047 1303.11 86.8414 1306.12 77.9229C1311.14 63.0015 1308.21 45.5601 1308.21 30.2138C1308.21 22.4223 1307.96 16.82 1297.02 13.1669C1281.9 8.11981 1260.04 8.084 1243.61 5.19697C1197.25 -2.95113 1140.73 -11.7302 1093.99 0.658522C1071.94 6.50192 1033.81 -6.35079 1031.91 10.0711C1030.97 18.1813 1038.17 35.9275 1035.79 44.0505C1038.49 50.028 1047.74 86.3293 1047.74 94.859C1047.74 114.761 1052.48 124.537 1077.13 134.598C1094.19 141.561 1111.09 148.804 1128.3 155.187C1149.99 163.234 1165.38 154.726 1171.86 139.247C1179.12 121.872 1175.98 89.2865 1146.94 83.9003C1129.16 80.6007 1110.46 81.9079 1092.2 81.9079C1066.81 81.9079 1043.22 81.4191 1018.65 86.8891C997.409 91.6178 964.5 109.788 964.5 127.292C964.5 148.658 961.815 169.995 961.815 191.495C961.815 213.313 971.817 230.829 991.352 247.395C1003.86 258.005 1037.88 287.604 1061.02 277.947C1072.19 273.285 1076.82 260.615 1084.14 253.373C1097.02 240.626 1116.68 228.611 1119.94 211.641C1126.86 175.714 1071.31 179.54 1038.49 179.54C1026.23 179.54 1009.97 177.19 1002.09 185.96C993.959 195.013 994.53 207.686 990.755 217.84C983.997 236.018 985.981 256.372 985.981 275.179C985.981 294.873 915.701 268.573 904.978 263.003C819.672 218.694 755.798 146.555 736.257 70.9492C731.079 50.9144 723.252 5.20911 752.369 -7.75422C778.117 -19.2177 810.357 -5.69201 830.24 6.636C852.187 20.2446 864.32 29.4878 873.8 50.028C877.408 57.8455 884.769 79.5659 875.291 87.4426C857.896 101.899 839.357 107.81 812.786 107.81C796.467 107.81 782.773 110.022 772.657 98.512C765.209 90.038 749.684 70.6295 749.684 59.9905C749.684 41.8652 777.429 44.0505 797.421 44.0505C809.882 44.0505 820.717 43.427 832.925 41.6153C846.176 39.6487 858.88 35.0254 871.86 32.2063C884.308 29.5028 912.129 -1.08407 924.993 -2.17497C946.405 -3.99074 978.478 -12.5137 983.16 10.0711C986.147 24.4778 971.673 73.4475 972.705 87.996C974.393 111.801 974.411 134.744 960.621 157.069C951.667 171.566 919.703 165.592 901.845 165.592C867.858 165.592 855.338 146.991 863.059 122.643C867.795 107.707 896.947 100.56 913.481 97.405C924.913 95.2236 972.215 83.1429 977.926 95.8553" stroke="#F2FFF5" stroke-width="7" stroke-linecap="round" stroke-linejoin="round"/>
<path d="M1364.93 351.585C1386.55 357.002 1406.62 358.942 1419.43 373.195C1428.12 382.87 1432.4 391.49 1432.4 403.684C1432.4 434.554 1424.83 463.39 1397.51 487.342C1390.8 493.234 1386.53 507.561 1374.01 507.561C1362.97 507.561 1360.43 494.747 1357.72 488.732C1347.45 465.872 1333.79 439.785 1333.79 415.559C1333.79 404.215 1330.09 392.023 1350.66 392.023C1372.1 392.023 1378.55 392.85 1394.63 402.614C1409.59 411.698 1425.72 421.478 1434.42 434.387C1435.72 436.305 1435.06 449.488 1436.3 447.653C1440.39 441.572 1435.91 433.831 1436.3 426.652C1436.66 419.854 1444.68 422.815 1437.59 420.48C1429.11 417.68 1421.37 408.872 1412.94 404.54C1406.72 401.346 1399.7 399.365 1393.62 395.982C1386.32 391.918 1375.36 392.771 1366.95 389.028C1351.79 382.278 1330.14 382.395 1313.17 382.395C1294.54 382.395 1292.27 388.981 1292.27 401.652C1292.27 417.263 1289.67 431.945 1289.67 447.439C1289.67 461.52 1291.14 475.973 1287.08 489.802C1285.21 496.152 1277.66 521.04 1264.88 521.04C1245.78 521.04 1232.39 522.912 1213.84 517.617C1202.26 514.313 1200.69 503.938 1194.81 497.077C1183.04 483.351 1184.18 467.082 1176.79 451.718C1168.2 433.885 1185.33 434.387 1202.74 434.387C1210.66 434.387 1224.64 432.253 1231.43 435.457C1238.62 438.852 1243.04 442.97 1250.75 445.513C1263.38 449.678 1280.54 450.983 1290.25 458.992C1306.64 472.507 1271.51 489.401 1271.51 504.672C1271.51 511.276 1276.7 516.68 1276.7 523.394C1276.7 530.525 1280.36 542.696 1285.64 548.855C1300.57 566.269 1345.27 559.553 1370.12 559.553C1385.89 559.553 1384.78 561.171 1393.48 570.678C1402.55 580.598 1409.05 589.48 1409.05 601.916C1409.05 618.674 1406.45 625.024 1382.95 625.024C1354.78 625.024 1325.98 626.949 1297.46 626.949C1278.55 626.949 1269.14 626.196 1257.96 615.824C1246.25 604.969 1255.66 586.996 1258.39 574.851C1259.54 569.748 1261.28 565.24 1266.9 561.906C1270.18 559.954 1288.93 558.107 1289.53 556.557C1294.44 543.81 1256.88 547.999 1248.15 547.999C1239.22 547.999 1234.62 546.691 1229.99 552.706C1225.88 558.042 1217.99 558.587 1212.4 561.906C1205.02 566.286 1180.12 563.809 1170.3 563.404C1166.16 563.233 1165.73 560.388 1162.51 559.125C1160.12 558.182 1153.55 558.186 1152.28 556.771C1151.3 555.68 1154.26 559.553 1156.03 559.553C1161.84 559.553 1167.66 559.553 1173.47 559.553C1213.71 559.553 1252.43 559.081 1290.97 565.436C1304.15 567.61 1287.81 574.854 1285.78 576.027C1278.3 580.343 1273.76 581.747 1269.49 588.437C1262.71 599.054 1258.53 613.367 1258.53 625.024C1258.53 638.608 1278.57 636.279 1290.97 641.392C1300.34 645.255 1317.67 654.353 1327.3 655.941C1347.24 659.229 1362.49 684.269 1375.31 694.346C1388.52 704.72 1397.82 720.106 1403.28 733.287C1409.73 748.848 1413.81 773.288 1408.9 789.665C1407.28 795.089 1401.93 797.336 1399.24 802.181C1396.67 806.829 1411.74 798.476 1413.09 797.474C1424.97 788.653 1437.59 794.025 1437.59 779.074C1437.59 766.201 1438.26 753.882 1437.59 740.989C1436.35 716.962 1399.06 688.329 1371.56 714.565C1361.94 723.743 1356.05 737.812 1347.92 748.157C1338.1 760.647 1306.13 762.181 1289.39 763.562C1263.29 765.714 1240.05 763.575 1229.99 743.985C1224.22 732.751 1226.44 715.976 1227.39 703.974C1228.16 694.316 1250.36 694.194 1253.49 683.755C1257.29 671.064 1274.24 661.726 1285.93 653.052C1300.33 642.362 1312.25 653.908 1328.6 653.908C1337.78 653.908 1343.44 654.584 1349.36 649.094C1352.69 646.006 1362.4 642.778 1367.53 642.354C1382.21 641.144 1399.68 637.774 1398.67 625.024C1398.32 620.634 1385.69 623.179 1385.69 627.912C1385.69 636.694 1383.29 636.761 1375.31 642.354C1364.4 650.003 1351.89 656.644 1340.28 663.536C1329.5 669.933 1312.21 667.388 1298.76 667.388C1288.31 667.388 1280.58 675.225 1271.51 677.978C1261.42 681.042 1250.53 686.341 1242.1 691.458C1238.72 693.51 1239.02 697.914 1235.18 699.695C1225.28 704.284 1222.2 723.011 1222.2 730.933C1222.2 741.569 1221.9 752.182 1210.52 758.748C1205.4 761.703 1200.96 766.042 1196.83 769.873C1194.46 772.069 1186.76 781.388 1186.01 783.888C1179 807.299 1152.31 840.687 1187.17 860.806C1217.93 878.558 1202.8 914.054 1182.7 932.696C1172.63 942.035 1162.23 942.752 1145.5 942.752C1125.52 942.752 1105.3 938.305 1086.68 933.124C1072.56 929.196 1071.69 928.999 1071.69 918.574C1071.69 905.677 1069.09 892.183 1069.09 878.778C1069.09 871.885 1071.36 866.447 1062.6 862.838C1059.33 861.489 1041.25 861.708 1048.91 854.601C1059.99 844.325 1073.09 833.805 1077.02 820.688C1079.91 811.057 1107.61 811.467 1115.95 816.623C1119.16 818.612 1124.01 816.949 1127.63 818.656C1131.82 820.637 1134.29 823.17 1137.86 825.289C1143.93 828.891 1150.3 835.735 1157.32 838.34C1163.65 840.687 1169.44 840.694 1176.79 840.694C1188.82 840.694 1180.59 850.053 1183.85 856.099C1196.32 879.226 1246.6 873.429 1275.4 873.429C1289.71 873.429 1306.77 870.685 1315.05 881.132C1321.62 889.415 1331.2 902.515 1331.2 911.942C1331.2 923.76 1334.65 935.099 1333.79 946.603C1333.33 952.816 1328.04 957.633 1324.71 963.078C1319.45 971.665 1319.35 973.562 1333.21 973.562C1348.96 973.562 1364.28 971.636 1380.5 971.636C1386.29 971.636 1396.93 972.426 1400.69 975.915C1404.89 979.81 1401.2 984.329 1407.75 988.111C1412.36 990.768 1418.53 992.469 1422.02 995.706C1429.12 1002.29 1429.81 988.971 1429.81 984.687C1429.81 973.784 1431.25 954.793 1425.2 944.677C1422.17 939.626 1427.21 931.079 1427.21 925.421C1427.21 919.742 1429.81 914.276 1429.81 909.053C1429.81 896.798 1393.99 892.685 1381.8 892.685C1363.55 892.685 1350.41 879.206 1332.49 879.206C1325.39 879.206 1320.13 875.665 1313.03 875.355C1303.66 874.946 1316.5 862.908 1322.11 861.982C1336.75 859.568 1331.56 844.681 1326.58 838.768C1322.6 834.046 1317.04 829.979 1311.88 826.144C1307.15 822.636 1307.22 816.066 1304.67 811.809C1299.61 803.358 1303.27 787.878 1309.14 780.036C1316.17 770.643 1339.68 775.222 1353.4 775.222C1360.69 775.222 1378.56 772.922 1384.4 776.292C1392.2 780.798 1390 786.534 1394.05 792.553C1400.71 802.425 1403.23 817.325 1416.83 822.935C1425.9 826.672 1446.08 837.688 1445.38 846.471C1444.97 851.668 1430.75 856.14 1426.06 858.987C1421.18 861.949 1411.96 873.342 1411.64 877.28C1410.76 888.442 1388.02 898.918 1380.65 908.946C1368.09 926.028 1356.42 940.309 1349.22 959.012C1347.27 964.079 1340.25 968.686 1339.13 975.38C1338.23 980.682 1335.71 990.538 1330.62 994.316C1322.04 1000.68 1298.69 1003.07 1284.48 1002.45C1279.68 1002.24 1274.98 991.864 1271.51 988.967C1265.25 983.739 1260.73 978.104 1252.05 974.524C1241.98 970.377 1219.46 973.562 1207.93 973.562C1190.35 973.562 1184.73 983.095 1170.3 989.395C1161.07 993.422 1159.77 994.743 1148.24 994.743C1133.43 994.743 1135.67 979.446 1141.18 973.562C1147.43 966.883 1149.54 958.839 1149.54 950.882C1149.54 943.236 1152.14 938.9 1140.46 938.9C1119.25 938.9 1096.85 934.232 1075.72 937.082C1062.54 938.86 1048.6 962.094 1042.56 969.71C1039.72 973.292 1028.04 981.337 1023.39 984.26C1011.9 991.475 1005.95 990.929 992.681 993.246C983.746 994.806 970.323 996.799 962.116 992.818C951.109 987.478 956.48 976.047 951.015 968.748C946.887 963.234 934.573 963.281 934.147 954.733C933.71 945.989 934.147 937.168 934.147 928.416C934.147 924.034 936.451 914.721 932.128 911.514C927.511 908.087 914.668 910.016 908.196 910.016C892.888 910.016 879.175 913.106 874.46 923.602C870.192 933.103 864.521 946.075 875.036 953.877C885.481 961.628 884.84 974.788 884.84 985.115C884.84 997.445 836.01 1000.52 825.441 1000.52C800.46 1000.52 778.224 1002.02 763.015 984.153C750.077 968.952 748.718 950.531 759.699 935.049C765.091 927.447 772.721 904.239 755.085 904.239C733.864 904.239 713.258 905.322 692.803 906.165C685.715 906.457 677.59 911.038 670.745 909.909C665.321 909.015 660.481 902.602 653.877 902.314C631.659 901.344 624.905 927.841 611.058 936.975C601.432 943.324 581.999 972.171 599.668 976.343C607.333 978.153 614.082 978.838 621.438 981.264C625.461 982.591 627.4 984.494 631.819 985.222C638.11 986.26 638.432 992.484 646.092 992.818C656.178 993.258 634.257 1003.93 639.748 997.525C643.722 992.892 645.233 979.921 651.858 977.841C676.368 970.146 744.705 983.042 744.705 953.343C744.705 939.606 716.453 950.517 704.481 943.607C695.361 938.344 679.345 938.9 668.006 938.9C655.596 938.9 643.464 936.747 631.674 935.156C616.838 933.154 601.975 921.816 601.975 910.016C601.975 894.977 599.38 880.455 599.38 865.727C599.38 854.494 599.38 843.261 599.38 832.028C599.38 822.745 598.437 820.834 608.895 815.66C617.185 811.56 628.29 805.276 638.306 804.214C644.792 803.526 659.764 799.313 664.113 795.548C666.286 793.667 670.29 791.859 673.196 790.627C675.46 789.667 674.854 786.094 676.656 784.423C681.797 779.654 659.251 780.999 656.472 780.999C642.213 780.999 627.708 777.895 614.95 773.297C588.641 763.814 578.619 745.116 578.619 724.193C578.619 712.793 582.234 712.418 597.362 707.826C609.124 704.255 620.738 701.02 631.963 697.235C643.075 693.487 659.439 696.969 669.303 701.086C677.435 704.48 681.149 711.96 688.766 715.1C705.01 721.796 719.565 727.27 728.558 712.105C733.576 703.642 748.289 699.425 753.067 689.853C756.215 683.546 757.937 676.83 760.42 670.383C761.161 668.458 762.871 683.721 762.871 686.644C762.871 691.108 754.999 699.243 751.049 703.012C738.924 714.579 718.728 720.194 705.779 730.933C696.212 738.867 697.993 749.928 697.993 759.817C697.993 765.63 695.365 775.647 698.57 780.999C700.729 784.604 705.536 788.173 709.671 790.627C716.738 794.822 702.678 790.712 700.012 789.13C692.45 784.641 651.521 787.692 643.496 790.199C628.041 795.028 603.205 785.727 589 781.962C579.982 779.572 575.272 775.199 565.067 772.869C556.159 770.835 544.8 770.418 535.512 771.478C520.64 773.176 505.465 774.675 490.386 772.227C486.104 771.532 454.055 765.188 454.055 767.52C454.055 780.27 457.998 796.308 463.858 808.386C467.762 816.431 480.286 820.654 489.809 824.861C501.137 829.864 510.743 833.81 521.383 839.731C526.857 842.777 535.801 851.67 539.116 856.099C545.252 864.293 555.67 869.897 566.653 874.285C573.96 877.205 580.097 880.193 587.846 881.239C601.414 883.069 601.818 882.435 596.208 890.76C586.091 905.774 580.481 921.307 557.858 929.7C547.511 933.539 536.567 937.001 525.276 939.328C513.12 941.834 505.306 952.656 492.837 954.198C481.042 955.657 471.682 961.468 464.435 951.31C457.422 941.48 457.968 932.526 456.506 921.677C455.077 911.078 447.02 883.382 459.822 875.783C463.761 873.445 478.561 875.355 483.898 875.355C494.597 875.355 496.564 880.879 503.938 884.983C513.118 890.092 518.932 893.507 518.932 902.314C518.932 907.364 518.723 912.705 522.969 916.756C535.218 928.442 544.45 943.473 552.668 957.194C556.957 964.354 559.811 990.728 551.371 995.599C546.088 998.648 545.321 1002.26 537.963 1003.94C526.23 1006.62 504.864 1010.41 492.981 1007.26C460.817 998.736 430.546 997.447 404.748 979.338C396.101 973.269 383.954 971.636 372.309 971.636C359.935 971.636 361.358 974.77 352.27 980.194C335.336 990.301 323.092 997.467 302.963 1002.45C290.521 1005.52 276.635 1004.17 263.748 1005.87C258.241 1006.6 250.507 1007.09 245.294 1005.33C236.497 1002.37 241.157 986.962 238.085 981.264C233.971 973.631 233.537 964.828 229.579 957.194C224.825 948.021 224.471 943.869 214.009 937.831C207.103 933.845 188.361 933.124 179.552 933.124C150.01 933.124 122.242 929.425 103.717 950.24C95.8338 959.098 90.7418 969.293 90.7418 979.766C90.7418 990.352 87.2604 994.502 77.7663 1002.55C68.0639 1010.78 66.3153 1014 51.8155 1014C44.7476 1014 41.4351 1006.3 41.4351 1001.38C41.4351 993.032 -3.50009 971.453 5.10395 965.069C-2.59222 935.156 -0.887714 922.02 5.10395 910.016C12.1762 895.847 101.896 922.235 110.926 908.09C115.652 900.688 116.927 890.528 106.889 885.839C101.735 883.431 99.5343 882.003 95.3554 878.778C88.7451 873.677 83.5056 875.614 76.613 872.359C62.6231 865.753 47.1684 870.272 37.3983 858.88C25.9402 845.519 31.0547 825.295 31.0547 809.884C31.0547 801.53 32.0642 801.813 21.9719 800.149C13.3265 798.723 5.10395 795.422 5.10395 788.702C5.10395 784.484 8.14558 779.812 9.42895 775.65C14.109 760.473 18.7139 743.194 30.9105 730.184C38.7878 721.782 48.5701 720.959 61.6192 721.305C75.2634 721.667 86.8652 732.191 99.9689 734.784C113.525 737.467 126.094 741.746 140.049 743.985C162.618 747.606 161.717 736.638 167.153 724.3C173.81 709.191 173.785 696.007 173.785 680.118C173.785 653.46 122.39 644.28 93.4811 644.28C78.4456 644.28 56.8671 641.281 44.6069 648.559C25.7123 659.775 26.7586 686.301 25.8647 703.546C25.0814 718.657 21.2709 738.804 47.7787 742.38C70.3954 745.431 64.8354 708.065 62.1958 700.23C54.1317 676.295 52.6422 652.298 42.7327 628.768C38.1847 617.969 41.0077 604.986 38.2634 593.786C34.9435 580.237 32.1509 573.032 52.9689 573.032C74.8727 573.032 108.907 577.763 108.907 598.065C108.907 607.464 102.585 637.548 116.693 642.782C126.091 646.269 121.994 627.094 121.883 622.884C121.764 618.375 114.011 605.412 110.205 602.023C96.3893 589.721 81.7003 582.952 62.7726 574.958C54.73 571.561 42.0217 566.532 41.4351 558.697C40.7233 549.19 41.4341 540.921 36.2449 531.845C29.6313 520.277 5.10395 512.35 5.10395 499.123C5.10395 483.031 -3.54376 451.686 1.73799 436.009C4.87968 426.685 27.3212 429.127 38.8402 426.685C51.0668 424.092 54.0429 417 64.7909 412.777C74.8136 408.84 80.2255 400.846 90.7418 396.944C105.747 391.377 123.264 392.023 139.472 392.023C162.471 392.023 178.454 405.503 202.331 405.503C206.177 405.503 219.801 403.917 222.515 405.931C229.431 411.062 205.888 413.205 203.484 413.205C173.668 413.205 143.708 415.131 114.242 415.131C107.008 415.131 92.6545 417.411 86.8493 414.061C76.8739 408.304 68.6861 402.748 56.429 399.298C33.917 392.962 3.71215 380.364 1.73799 361.32C0.305846 347.506 15.2354 337.79 34.2266 332.757C44.7554 329.967 52.4546 324.817 62.1958 321.203C68.0651 319.026 80.8408 320.775 87.2818 320.775C108.331 320.775 129.38 320.775 150.429 320.775C156.167 320.775 163.179 319.11 163.404 324.627C163.541 327.961 164.647 333.442 161.963 336.287C154.947 343.724 160.368 353.126 156.917 361.32C152.746 371.224 147.924 383.414 150.429 393.949C151.395 398.012 198.403 403.604 204.349 405.075C247.483 415.744 317.046 425.615 344.052 389.991C354.864 375.728 360.631 360.378 360.631 343.883C360.631 335.71 361.149 328.559 354 321.738C350.843 318.727 344.393 317.28 339.727 316.068C324.893 312.216 314.642 304.349 300.368 299.593C280.048 292.824 261.345 296.457 241.257 301.519C228.814 304.655 221.293 312.001 211.125 317.031C191.572 326.704 160.994 345.192 155.619 363.139C154.716 366.156 145.172 383.416 138.03 378.116C126.07 369.241 124.478 357.965 124.478 345.915C124.478 330.829 142.648 329.331 153.601 321.203C163.025 314.211 172.352 307.323 180.273 299.487C189.961 289.902 195.466 278.839 202.187 268.035C206.862 260.518 212.383 253.135 212.711 244.606C213.55 222.83 255.856 228.09 272.398 234.55C292.501 242.401 306.846 246.034 325.742 234.015C344.269 222.232 329.079 201.224 315.073 192.721C304.667 186.403 310.126 184.945 317.812 179.242C332.82 168.106 347.972 153.158 368.417 147.469C391.047 141.172 412.145 145.544 433.871 145.544C452.438 145.544 490.386 147.093 490.386 164.8C490.386 178.778 490.386 192.757 490.386 206.736C490.386 215.201 492.526 225.383 487.214 233.266C481.921 241.122 470.912 243.52 464.435 249.527C455.858 257.483 416.989 258.037 406.046 252.416C392.804 245.614 394.677 227.598 398.981 217.22C402.08 209.745 401.645 208.401 411.236 205.238C423.182 201.298 439.189 203.312 452.036 203.312C467.063 203.312 481.143 200.025 495.576 199.461C505.629 199.068 509.315 194.811 518.932 193.791C542.085 191.337 554.117 207.164 574.871 207.164C610.94 207.164 614.95 187.269 614.95 164.8C614.95 150.024 608.203 133.98 589 126.715C579.818 123.242 557.595 118.707 547.478 123.399C527.061 132.867 508.552 145.759 508.552 164.372C508.552 178.368 502.814 196.841 523.546 202.884C544.595 209.02 604.164 229.94 612.5 204.168C615.554 194.726 620.141 187.578 620.141 177.53C620.141 171.733 622.673 166.8 625.331 161.377C632.084 147.596 634.802 128.343 623.889 115.482C617.749 108.247 608.145 42.9444 618.563 36.318C628.118 0.161375 655.319 0.161375 662.819 0.161375C692.381 -16.8997 699.05 59.7994 710.969 74.7234C716.908 82.1598 716.422 98.2011 716.159 106.603C715.65 122.835 668.152 118.585 655.319 118.585C634.076 118.585 616.51 122.514 605.147 107.673C599.667 100.517 600.773 88.2405 599.957 80.2863C598.462 65.7277 599.38 50.9141 599.38 36.318C599.38 27.4137 591.441 -3.37605 577.466 -3.37605C572.725 -3.37605 565.324 1.24461 561.735 4.20398C555.229 9.56798 552.221 35.0416 545.027 38.7785C531.715 45.6931 500.932 43.4856 485.196 43.4856C470.146 43.4856 478.756 28.0535 478.756 16.8371C478.756 9.37349 455.496 -3.37605 455.496 -3.37605C448.962 -2.63009 443.046 -7.15377 436.512 -6.40781C429.375 -5.59303 388.157 -7.35481 382.198 -3.37586C368.601 5.7046 391.073 47.5908 389.466 60.7092C388.04 72.3446 383.745 93.8076 399.99 101.04C417.757 108.95 448.696 117.129 469.625 111.952C492.659 106.255 504.576 86.8847 518.644 73.5467C533.409 59.5473 554.833 60.3622 577.466 60.8161C591.534 61.0983 595.583 74.116 596.929 82.105C599.305 96.2066 607.384 106.463 591.018 118.157C579.244 126.57 560.423 124.362 545.748 124.362C515.741 124.362 485.24 125.743 455.496 122.864C432.026 120.592 404.382 117.4 392.349 99.5426C383.716 86.7311 383.898 71.8468 371.156 60.8161C359.038 50.3254 348.372 41.121 330.932 34.7133C315.285 28.9644 287.557 18.6145 268.65 20.485C240.322 23.2877 233.472 54.4072 233.472 70.2303C233.472 82.3172 231.249 95.8915 242.699 105.747C252.651 114.313 273.972 123.79 289.122 124.362C311.64 125.211 319.554 104.285 327.472 92.054C336.955 77.4063 347.656 66.2245 347.656 49.2624C347.656 39.0762 343.088 -0.59481 327.472 -3.37586C308.151 -6.81657 252.982 -0.075948 233.472 1.17208C206.208 2.91606 210.055 29.4556 197.717 47.7647C190.299 58.7745 190.162 74.7551 191.95 86.9191C193.691 98.761 234.795 106.569 246.592 111.096C267.784 119.23 286.54 129.431 308.874 135.915C317.162 138.322 342.466 140.091 342.466 148.967C342.466 154.352 333.295 158.821 329.49 162.66C320.896 171.334 316.893 183.85 303.539 189.512C279.401 199.747 253.737 193.424 237.797 178.493C222.661 164.315 216.946 146.6 211.269 129.283C209.545 124.021 197.758 104.408 214.009 107.245C233.058 110.571 258.618 125.491 264.036 139.339C271.03 157.214 257.063 170.552 247.601 185.233C238.969 198.625 221.082 208.275 205.214 216.685C195.044 222.075 181.736 232.197 168.45 232.197C158.179 232.197 148.221 234.122 137.886 234.122C120.91 234.122 79.6649 240.04 66.8094 229.843C57.3308 222.325 57.9963 205.072 60.1775 195.61C63.4324 181.49 83.5395 167.019 100.401 161.163C111.802 157.203 147.061 148.974 155.619 159.558C165.214 171.424 168.431 185.217 168.595 198.819C168.803 216.122 161.385 230.636 158.214 247.602C156.23 258.217 155.926 269.331 151.871 279.695C144.948 297.389 119.886 313.64 94.4904 304.942C75.661 298.494 44.6267 292.973 30.0976 282.408C11.7475 269.064 1.93499 248.846 1.73799 229.843C1.49911 206.8 25.081 184.739 27.3063 161.804C29.4426 139.788 26.2015 120.874 46.9137 103.501C62.0273 90.8234 82.636 83.1001 99.104 71.621C108.826 64.8443 116.98 58.3314 131.975 63.2767C150.554 69.4037 152.221 89.9398 152.88 102.645C153.641 117.333 150.232 130.396 129.668 136.985C70.0304 156.094 12.217 99.0819 1.73799 68.6861C-1.94503 58.003 3.66893 -1.6963 21.7973 -4.29224C52.0302 -8.62153 87.7106 2.38213 118.289 0.573496C139.831 -0.700621 183.172 5.1791 186.616 26.9038C189.106 42.6046 153.534 52.7369 136.589 48.8345C126.653 46.5465 124.478 35.1801 124.478 29.0434C124.478 22.6896 141.662 24.2293 147.834 24.2293" stroke="#F2FFF5" stroke-width="7" stroke-linecap="round" stroke-linejoin="round"/>
</svg>
