<svg width="1441" height="1010" viewBox="0 0 1441 1010" fill="none" xmlns="http://www.w3.org/2000/svg">
<rect x="1.70398" width="1438.8" height="1010" fill="#D0FBFF" fill-opacity="0.5"/>
<path d="M1007.8 528.129C979.873 536.679 950.781 544.633 931.797 562.658C919.809 574.039 904.772 607.434 915.617 621.85C926.009 635.663 954.251 648.679 974.249 655.392C1000.84 664.319 1025.1 670.093 1054.4 674.027C1067.35 675.765 1081.74 674.42 1093.29 670.628C1097.28 669.32 1103.79 666.244 1107.99 666.244C1115.03 666.244 1115.42 661.683 1120.01 659.886C1137.53 653.036 1112.57 621.823 1107.25 612.971C1102.75 605.506 1106.28 595.362 1099.23 588.856C1094.41 584.407 1088.58 573.855 1082.61 571.098C1076.09 568.09 1066.99 552.999 1066.58 547.86C1065.89 539.184 1059.43 534.561 1051.14 529.664C1044.9 525.978 1028.03 522.21 1019.82 522.21C1009.25 522.21 1012.17 507.43 1003.79 502.479C999.196 499.766 999.298 494.656 992.952 492.175C988.244 490.335 984.383 487.612 979.741 485.708C968.237 480.988 955.109 477.808 945.007 472.006C927.464 461.93 911.408 449.868 889.047 445.15C880.729 443.395 868.86 432.255 868.86 426.516C868.86 416.822 852.355 417.637 840.657 417.637C827.765 417.637 821.14 408.116 814.829 402.291C804.647 392.892 826.854 384.641 833.532 379.71C842.963 372.746 842.247 362.786 849.563 356.033C853.05 352.814 850.549 346.606 859.508 346.606C865.747 346.606 870.779 344.868 873.61 340.687C880.59 330.378 880.541 324.903 898.25 324.903C910.034 324.903 922.703 322.93 935.656 322.93C951.516 322.93 954.739 324.945 961.781 334.768C966.604 341.496 972.459 350.439 973.062 358.445C973.268 361.183 974.948 369.862 970.39 370.283C962.706 370.993 967.163 377.072 971.874 378.066C987.365 381.334 983.749 389.976 983.749 400.866C983.749 421.786 960.297 435.043 939.664 447.233C932.081 451.713 923.575 456.343 915.617 461.045C908.057 465.511 901.661 475.609 894.094 478.802C883.876 483.114 879.877 496.759 870.196 502.479C865.435 505.292 852.829 518.326 852.829 523.196C852.829 532.677 852.075 542.344 852.829 551.806C853.153 555.875 866.383 574.305 852.829 575.483C846.31 576.049 842.828 578.628 838.134 581.402C835.481 582.969 835.336 593.061 839.469 593.24C849.409 593.672 856.625 606.948 860.251 612.971C866.101 622.692 864.136 627.536 880.141 632.263C889.567 635.048 901.07 644.217 908.937 644.54C921.173 645.042 939.753 645.972 949.015 652.432C958.86 659.298 969.258 664.531 978.999 671.725C982.924 674.623 997.108 690.505 997.108 694.853C997.108 700.419 998.967 704.424 991.765 707.24C988.064 708.686 980.597 712.561 978.405 714.584C971.519 720.941 960.907 724.766 953.171 730.478C942.624 738.267 932.679 737.399 920.961 742.207C916.784 743.921 904.088 750.948 900.922 751.086C897.394 751.239 882.172 749.65 879.696 748.126C869.634 741.935 858.87 737.498 846.149 735.411C829.206 732.631 821.569 729.975 808.743 720.503C796.34 711.344 787.256 700.263 773.861 691.784C753.865 679.127 723.277 661.525 693.854 666.353C689.625 667.047 681.224 671.846 676.487 673.698C668.962 676.64 661.404 679.61 653.925 683.125C641.762 688.841 628.392 694.651 616.222 699.786C596.333 708.179 577.005 730.78 593.66 746.153C600.093 752.092 608.185 755.615 615.035 761.938C618.389 765.034 622.812 767.504 626.316 770.378C627.29 771.178 636.249 777.802 636.261 777.832C639.533 786.288 655.451 786.585 663.722 792.082C667.896 794.857 675.754 798.857 680.495 800.413C687.759 802.797 688.134 809.054 695.19 811.813C708.574 817.045 714.756 826.297 724.58 833.955C731.276 839.174 747.386 850.3 748.627 857.632C749.244 861.276 758.057 865.037 760.65 868.484C764.144 873.128 762.287 876.708 767.924 880.87C775.962 886.806 787.702 887.745 793.454 893.585C797.947 898.147 792.948 909.239 786.181 910.905C778.749 912.734 772.643 912.878 764.658 912.878C749.517 912.878 734.377 912.878 719.237 912.878C711.645 912.878 704.503 911.193 697.862 910.905C693.607 910.72 688.859 910.626 684.651 911.014C678.228 911.607 677.211 916.824 669.956 916.824C655.706 916.824 641.456 916.824 627.206 916.824C614.17 916.824 599.582 916.838 586.98 918.906C581.545 919.798 573.157 921.833 569.02 924.278C566.191 925.949 562.025 930.635 557.59 930.635C544.029 930.635 541.38 943.704 525.676 940.391C523.522 939.937 520.079 931.998 516.177 930.197C510.841 927.734 506.351 924.716 498.81 924.716C493.216 924.716 465.882 922.684 462.74 919.783C452.019 909.887 477.294 906.82 485.45 902.135C494.496 896.94 501.418 893.006 506.083 885.255C508.202 881.734 513.505 874.04 513.505 870.457C513.505 864.188 520.768 860.658 521.52 855.659C522.785 847.251 537.294 840.323 548.239 839.874C560.983 839.351 579.078 833.274 590.988 829.57C597.881 827.427 609.185 822.116 616.371 822.116C618.328 822.116 622.106 819.147 621.863 820.582C621.46 822.961 614.877 824.799 612.363 825.624C601.859 829.071 585.911 831.532 574.957 831.982C561.69 832.526 551.578 837.901 537.551 837.901C522.468 837.901 534.253 822.086 534.879 814.224C535.255 809.512 552.732 792.52 557.59 792.52C570.949 792.52 584.309 792.52 597.668 792.52C607.808 792.52 628.394 788.368 628.394 779.695C628.394 769.584 620.799 765.409 608.504 762.815C604.298 761.927 601.445 755.254 596.332 755.032C588.769 754.703 583.282 755.749 576.293 756.895C570.185 757.898 562.312 760.602 556.254 762.486C551.218 764.052 546.421 763.036 541.707 765.884C537.891 768.19 533.179 771.863 528.2 772.68C505.222 776.451 464.482 764.401 446.857 779.586C442.38 783.443 433.841 783.406 429.342 788.574C425.074 793.477 421.47 794.496 416.725 798.001C409.576 803.28 415.962 818.045 422.068 822.555C428.058 826.978 437.703 839.581 438.693 845.793C440.724 858.539 455.35 868.043 462.146 879.335C466.935 887.293 472.273 901.936 470.755 910.905C470.129 914.607 460.409 902.03 458.732 901.039C453.081 897.701 454.142 892.079 446.709 889.639C423.48 882.015 398.725 883.282 371.897 883.282C363.964 883.282 361.035 884.471 357.944 879.335C355.742 875.676 351.471 872.13 350.374 868.484C347.442 858.742 339.835 850.824 339.835 840.861C339.835 829.779 338.623 819.445 354.53 814.224C360.065 812.408 390.6 807.171 390.6 805.345C390.6 795.732 369.93 794.493 359.874 794.493C343.828 794.493 327.265 783.58 311.929 779.805C300.69 777.038 290.537 777.064 278.976 776.736C273.586 776.583 260.455 775.738 255.672 773.776C246.94 770.194 221.524 764.037 216.93 758.101C213.853 754.124 203.375 753.43 198.227 752.072C188.966 749.63 189.519 746.135 182.196 742.755C176.983 740.349 171.861 722.228 171.509 717.544C170.643 706.029 162.24 695.155 179.524 689.482C190.37 685.922 207.602 687.395 216.336 681.59C221.774 677.976 220.715 673.725 222.422 669.313C223.331 666.965 237.979 668.217 240.977 668.217C252.231 668.217 275.119 669.921 283.726 664.271C293.017 658.172 308.988 658.352 321.132 658.352C330.886 658.352 354.684 655.154 361.803 659.886C372.001 666.664 379.054 669.271 379.913 680.055C380.43 686.548 385.256 675.943 385.256 673.15C385.256 669.686 383.032 660.704 387.928 658.79C397.086 655.21 412.288 652.432 422.662 652.432C435.88 652.432 452.052 644.928 452.052 660.325C452.052 668.547 446.459 664.502 441.365 669.203C438.153 672.168 436.021 678.013 436.021 682.028C436.021 698.523 429.173 714.977 428.006 731.355C427.645 736.416 427.156 739.963 425.482 744.29C424.383 747.131 424.417 754.399 422.068 756.567C409.695 767.988 433.167 772.889 441.959 776.736C457.372 783.481 478.721 782.655 496.138 782.655C512.76 782.655 518.975 766.702 525.528 757.992C542.384 735.586 526.996 710.928 507.122 692.99C497.052 683.901 483.256 675.695 471.943 667.34C466.368 663.223 464.92 660.581 465.412 654.405C465.706 650.706 481.292 652.432 485.45 652.432C496.929 652.432 518.147 655.57 528.2 651.446C540.479 646.408 539.73 637.51 534.879 627.659C530.498 618.762 529.536 604.361 529.536 595.213C529.536 584.779 534.879 577.369 534.879 567.59C534.879 558.572 536.241 549 534.731 540.077C533.741 534.231 529.536 530.455 529.536 524.183C529.536 508.814 530.65 496.961 545.567 484.721C558.68 473.962 573.701 469.674 593.66 468.937C605.288 468.507 629.133 467.795 638.488 473.321C651.126 480.788 653.527 486.033 659.862 496.56C661.438 499.179 661.959 506.918 664.464 508.398C667.142 509.98 670.95 515.692 671.143 518.264C672.267 533.196 686.294 574.421 656.448 579.319C641.22 581.818 625.411 585.502 611.175 590.281C606.308 591.914 596.175 593.027 590.988 593.24C583.961 593.529 575.103 597.366 568.426 599.159C557.065 602.21 542.895 611.152 542.895 619.877C542.895 632.289 543.361 635.238 554.77 643.663C564.658 650.965 566.968 662.298 584.309 662.298C594.525 662.298 616.342 670.939 625.574 665.257C636.448 658.566 651.909 662.23 663.128 654.405C675.357 645.876 673.815 638.797 673.815 626.782C673.815 622.066 676.487 617.868 676.487 613.957C676.487 607.336 682.343 609.025 689.846 609.025C706.095 609.025 715.381 607.488 727.252 599.159C733.298 594.918 748.571 592.892 751.15 586.225C752.432 582.912 756.309 580.286 759.908 577.894C773.364 568.951 783.186 562.002 788.111 547.86C793.635 531.996 799.178 518.83 809.486 504.452C815.657 495.844 828.782 492.188 828.782 480.775C828.782 473.789 831.929 457.098 816.759 457.098C806.498 457.098 803.949 443.03 792.861 445.37C780.164 448.048 762.444 446.827 751.299 454.029C745.986 457.462 732.789 458.738 725.768 461.483C720.387 463.587 710.825 466.964 704.542 466.964C691.955 466.964 681.472 472.883 669.807 472.883C654.373 472.883 652.057 463.503 637.745 461.154C623.018 458.737 620.285 436.014 640.417 444.273C650.555 448.432 666.042 447.233 677.823 447.233C705.201 447.233 729.909 441.314 756.642 441.314C760.75 441.314 772.675 442.792 775.345 440.327C778.814 437.126 781.409 432 786.033 429.914C800.024 423.6 802.064 414.826 802.064 403.825C802.064 395.297 802.024 383.171 796.126 376.202C792.33 371.717 755.368 372.256 748.627 372.256C730.365 372.256 715.279 366.337 697.862 366.337C686.286 366.337 656.867 362.211 655.112 350.553C653.979 343.021 650.155 335.675 649.769 327.972C649.398 320.585 648.917 308.22 640.417 303.199C624.712 293.92 659.839 291.852 664.315 291.251C696.438 286.938 730.229 285.441 763.47 285.441C780.912 285.441 797.596 285.65 814.087 287.524C834.169 289.805 853.883 294.82 873.016 297.389C881.996 298.595 887.95 303.199 897.656 303.199C905.424 303.199 913.193 303.199 920.961 303.199C939.989 303.199 960.32 305.009 978.405 300.239C995.316 295.779 1013.14 291.993 1013.14 276.562C1013.14 268.741 1020.62 256.516 1032.44 255.845C1035.03 255.698 1049.29 252.075 1050.55 250.912C1050.98 250.513 1066.28 265.806 1070.73 267.684C1082.68 272.727 1086.37 285.887 1097.3 290.374C1105.89 293.899 1106.13 298.252 1106.65 305.172C1106.92 308.657 1109.82 311.104 1109.18 314.928C1108.56 318.568 1103.98 320.117 1103.98 323.916C1103.98 331.806 1079.96 335.959 1073.26 339.81C1063.04 345.675 1044.02 353.135 1030.51 347.593C1012.74 340.305 1017.19 322.197 1003.64 312.187C991.039 302.883 998.745 306.564 1007.2 313.503C1014.07 319.135 1019.86 324.321 1026.35 330.712C1035.31 339.538 1036.8 349.543 1042.53 359.322C1050.28 372.55 1046.32 388.529 1029.17 395.495C1017.48 400.242 1005.66 403.026 994.585 408.649C989.812 411.072 967.345 421.88 985.233 415.664C997.717 411.326 1009.98 409.745 1023.83 409.745C1037.89 409.745 1044.7 408.967 1054.55 417.527C1060.91 423.054 1069.62 428.651 1076.67 433.86C1083.09 438.598 1103.48 449.372 1090.62 453.591C1079.36 457.286 1056.96 453.513 1055.89 466.964C1055 478.118 1046.97 487.638 1031.84 491.627C1012.14 496.824 1005.12 495.007 1005.12 511.358C1005.12 518.102 1003.17 521.253 1012.55 523.744C1019.34 525.55 1020.81 528.109 1025.16 531.965C1029.6 535.9 1035.9 537.242 1039.26 541.94C1041.83 545.513 1049.74 550.225 1054.55 551.806C1073.47 558.014 1096.44 559.698 1117.49 559.698C1121.14 559.698 1127.31 560.585 1130.7 559.26C1135.06 557.556 1131.39 554.146 1133.97 552.244C1137.33 549.763 1150.63 550.954 1151.93 546.654C1156.36 531.936 1159.78 506.282 1145.25 493.6C1136.8 486.231 1124.7 480.375 1114.08 474.856C1107.38 471.378 1094.72 465.456 1090.62 460.168C1081.14 447.913 1105.16 449.206 1117.34 449.206C1133.43 449.206 1150.71 450.11 1166.03 453.591C1175.78 455.807 1185.1 454.413 1195.12 455.235C1208.15 456.304 1218.48 459.071 1232.23 459.071C1252.21 459.071 1283.71 454.491 1301.7 461.483C1323.92 470.121 1338.6 487.858 1352.46 502.917C1359.72 510.801 1366.91 515.114 1372.5 524.292C1376.22 530.389 1381.59 541.123 1381.85 547.86C1382.1 553.997 1383.9 560.625 1376.36 564.521C1368.12 568.783 1356.29 569.36 1347.71 573.51C1333.13 580.567 1322.73 588.318 1305.71 592.144C1292.61 595.086 1275.18 593.497 1261.62 593.24C1231.81 592.676 1206.25 577.324 1179.98 569.563C1168.59 566.199 1122.68 542.373 1122.68 562.767C1122.68 572.129 1130.03 576.479 1132.78 585.348C1135.8 595.118 1133.37 606.915 1133.37 616.917C1133.37 625.345 1120.46 627.166 1112 630.29C1102.8 633.687 1103.98 640.853 1103.98 647.5C1103.98 659.795 1109.33 656.842 1109.33 646.513C1109.33 642.507 1106.58 631.005 1110.81 627.879C1116.12 623.954 1136.8 624.403 1144.06 623.275C1158.52 621.027 1174 622.39 1188.29 619.877C1208.98 616.239 1245.33 615.782 1262.96 625.906C1280.48 635.968 1283.64 663.487 1269.64 675.123C1256 686.453 1258.95 701.028 1258.95 715.571C1258.95 725.03 1242.11 731.118 1231.93 735.411C1223.71 738.881 1206.77 748.833 1196.9 749.113C1186.48 749.409 1173.37 750.629 1163.95 746.921C1151.9 742.173 1142.91 731.474 1131.29 725.436C1095.46 706.816 1050.76 707.678 1007.8 707.678C968.418 707.678 935.656 739.875 935.656 767.309C935.656 789.561 950.694 799.606 979.593 804.797C995.342 807.626 1031.21 809.521 1036.59 794.493C1041.66 780.368 1008.25 766.87 1038.52 766.87C1046.68 766.87 1094.75 771.176 1095.82 767.638C1100.42 752.344 1077.17 750.839 1065.09 743.194C1056.96 738.049 1053.27 730.12 1050.55 722.586C1046.56 711.54 1052.6 712.236 1060.64 719.955C1070.24 729.174 1074.38 741.777 1085.28 750.976C1091.98 756.633 1101.02 766.507 1109.33 770.378C1118.45 774.632 1128.51 777.539 1137.53 781.778C1155.92 790.423 1184.02 788.574 1205.51 788.574C1245.94 788.574 1357.81 761.983 1357.81 814.115C1357.81 819.59 1360.06 830.981 1349.2 831.872C1316.93 834.52 1284.86 838.341 1252.12 837.901C1237.42 837.704 1222.44 833.474 1216.2 823.103C1213.59 818.76 1209.89 810.806 1203.43 816.636C1197.22 822.243 1195.75 830.064 1185.47 832.859C1166.06 838.139 1139.21 835.928 1118.83 835.928C1109.77 835.928 1085.07 832.324 1079.94 840.861C1075.46 848.291 1068.51 854.545 1061.23 860.482C1052.83 867.341 1040.32 879.036 1027.24 881.309C1021.08 882.379 984.747 887.253 983.749 893.147C982.918 898.055 978.405 901.976 978.405 907.835C978.405 912.805 978.405 917.774 978.405 922.743C978.405 934.464 993.796 945.82 1002.16 955.079C1012.2 966.208 1026.97 975.095 1034.51 987.416C1041.65 999.066 1056.82 1001.67 1072.51 1001.67C1095.18 1001.67 1114.04 995.563 1130.7 983.908C1147.62 972.07 1162.9 952.853 1187.4 948.831C1217.21 943.939 1250.49 941.679 1250.93 913.755C1251 909.52 1254.66 874.624 1249.45 873.526C1245.47 872.687 1235.08 888.005 1232.23 890.735C1224.54 898.12 1208.93 903.7 1198.54 909.041C1171.17 923.1 1144.7 924.899 1113.18 928.224C1094.09 930.238 1124.7 928.662 1130.7 928.662C1149.68 928.662 1163.12 922.88 1179.98 916.824C1214.96 904.256 1236.43 884.233 1220.95 855.22C1216.29 846.491 1180.4 817.772 1168.11 835.928" stroke="#D9F8FB" stroke-opacity="0.6" stroke-width="7" stroke-linecap="round" stroke-linejoin="round"/>
<path d="M1042.72 500.179C1014.8 508.729 985.707 516.683 966.723 534.708C954.735 546.09 939.698 579.484 950.543 593.9C960.935 607.713 989.177 620.729 1009.18 627.442C1035.77 636.369 1060.03 642.143 1089.33 646.077C1102.28 647.815 1116.67 646.47 1128.22 642.679C1132.21 641.37 1138.71 638.294 1142.92 638.294C1149.96 638.294 1150.34 633.733 1154.94 631.936C1172.46 625.087 1147.5 593.873 1142.17 585.021C1137.68 577.556 1141.21 567.412 1134.16 560.906C1129.34 556.457 1123.51 545.905 1117.53 543.148C1111.02 540.14 1101.91 525.049 1101.5 519.91C1100.81 511.235 1094.35 506.611 1086.06 501.714C1079.83 498.028 1062.96 494.26 1054.74 494.26C1044.18 494.26 1047.09 479.481 1038.71 474.529C1034.12 471.817 1034.22 466.707 1027.88 464.225C1023.17 462.385 1019.31 459.663 1014.67 457.758C1003.16 453.038 990.035 449.859 979.933 444.056C962.39 433.98 946.334 421.919 923.973 417.201C915.655 415.446 903.786 404.305 903.786 398.566C903.786 388.872 887.281 389.687 875.583 389.687C862.691 389.687 856.066 380.166 849.755 374.341C839.573 364.942 861.78 356.692 868.458 351.76C877.889 344.796 877.173 334.837 884.489 328.084C887.976 324.865 885.475 318.657 894.434 318.657C900.673 318.657 905.705 316.919 908.536 312.737C915.516 302.428 915.467 296.953 933.176 296.953C944.96 296.953 957.629 294.98 970.582 294.98C986.442 294.98 989.665 296.996 996.707 306.818C1001.53 313.546 1007.39 322.49 1007.99 330.495C1008.19 333.233 1009.87 341.913 1005.32 342.334C997.632 343.043 1002.09 349.122 1006.8 350.116C1022.29 353.385 1018.67 362.027 1018.67 372.916C1018.67 393.836 995.223 407.093 974.59 419.283C967.007 423.763 958.501 428.393 950.543 433.095C942.983 437.561 936.587 447.659 929.02 450.852C918.802 455.164 914.803 468.81 905.122 474.529C900.361 477.342 887.755 490.376 887.755 495.247C887.755 504.727 887.001 514.394 887.755 523.856C888.079 527.925 901.309 546.355 887.755 547.533C881.236 548.099 877.754 550.679 873.06 553.452C870.407 555.019 870.262 565.111 874.395 565.291C884.335 565.722 891.551 578.998 895.176 585.021C901.027 594.742 899.062 599.586 915.067 604.313C924.493 607.098 935.996 616.268 943.863 616.59C956.099 617.092 974.679 618.023 983.941 624.483C993.786 631.349 1004.18 636.581 1013.93 643.775C1017.85 646.673 1032.03 662.555 1032.03 666.904C1032.03 672.47 1033.89 676.474 1026.69 679.29C1022.99 680.737 1015.52 684.611 1013.33 686.634C1006.44 692.991 995.833 696.816 988.097 702.529C977.55 710.317 967.605 709.45 955.887 714.257C951.71 715.971 939.014 722.999 935.848 723.136C932.32 723.289 917.098 721.7 914.622 720.177C904.56 713.985 893.796 709.549 881.075 707.461C864.132 704.681 856.495 702.025 843.669 692.554C831.266 683.394 822.181 672.313 808.787 663.834C788.79 651.177 758.203 633.575 728.78 638.404C724.551 639.098 716.15 643.896 711.413 645.748C703.888 648.69 696.33 651.66 688.851 655.175C676.687 660.891 663.318 666.701 651.148 671.836C631.258 680.229 611.931 702.83 628.586 718.204C635.019 724.142 643.111 727.665 649.961 733.988C653.315 737.084 657.738 739.554 661.242 742.428C662.216 743.228 671.175 749.852 671.187 749.882C674.459 758.338 690.377 758.636 698.648 764.132C702.822 766.907 710.68 770.907 715.421 772.463C722.685 774.847 723.06 781.104 730.116 783.863C743.5 789.095 749.682 798.347 759.506 806.005C766.202 811.225 782.312 822.35 783.553 829.682C784.17 833.327 792.983 837.087 795.576 840.534C799.07 845.178 797.213 848.758 802.849 852.92C810.888 858.857 822.628 859.795 828.38 865.636C832.873 870.197 827.874 881.289 821.107 882.955C813.675 884.784 807.569 884.928 799.584 884.928C784.443 884.928 769.303 884.928 754.163 884.928C746.571 884.928 739.429 883.243 732.788 882.955C728.533 882.77 723.785 882.676 719.577 883.065C713.154 883.657 712.137 888.874 704.882 888.874C690.632 888.874 676.382 888.874 662.132 888.874C649.096 888.874 634.508 888.889 621.906 890.957C616.471 891.849 608.083 893.884 603.946 896.328C601.117 897.999 596.951 902.686 592.516 902.686C578.955 902.686 576.306 915.755 560.602 912.441C558.448 911.987 555.005 904.048 551.103 902.247C545.767 899.785 541.277 896.766 533.736 896.766C528.142 896.766 500.808 894.734 497.666 891.834C486.945 881.937 512.22 878.87 520.376 874.186C529.422 868.99 536.344 865.057 541.009 857.305C543.128 853.785 548.431 846.09 548.431 842.507C548.431 836.239 555.694 832.708 556.446 827.709C557.711 819.301 572.22 812.373 583.165 811.924C595.909 811.401 614.004 805.324 625.914 801.621C632.807 799.477 644.111 794.167 651.297 794.167C653.254 794.167 657.032 791.198 656.789 792.632C656.386 795.011 649.803 796.849 647.289 797.674C636.785 801.122 620.837 803.583 609.883 804.032C596.616 804.576 586.504 809.951 572.477 809.951C557.394 809.951 569.179 794.137 569.805 786.274C570.181 781.563 587.658 764.571 592.516 764.571C605.875 764.571 619.234 764.571 632.594 764.571C642.734 764.571 663.32 760.418 663.32 751.746C663.32 741.635 655.725 737.459 643.43 734.865C639.224 733.978 636.371 727.304 631.258 727.082C623.695 726.754 618.208 727.799 611.219 728.946C605.111 729.948 597.238 732.653 591.18 734.536C586.144 736.102 581.346 735.087 576.633 737.934C572.817 740.24 568.105 743.913 563.126 744.73C540.148 748.501 499.408 736.451 481.783 751.636C477.306 755.493 468.767 755.456 464.268 760.625C460 765.527 456.396 766.547 451.651 770.051C444.502 775.33 450.888 790.096 456.994 794.605C462.984 799.028 472.629 811.632 473.619 817.844C475.65 830.589 490.276 840.093 497.072 851.386C501.861 859.344 507.199 873.986 505.681 882.955C505.055 886.657 495.335 874.08 493.658 873.09C488.007 869.751 489.067 864.129 481.635 861.69C458.406 854.066 433.651 855.332 406.823 855.332C398.89 855.332 395.961 856.521 392.87 851.386C390.668 847.726 386.397 844.181 385.3 840.534C382.368 830.792 374.761 822.874 374.761 812.911C374.761 801.829 373.549 791.495 389.456 786.274C394.991 784.458 425.526 779.222 425.526 777.396C425.526 767.782 404.856 766.544 394.8 766.544C378.754 766.544 362.191 755.63 346.855 751.855C335.616 749.089 325.463 749.114 313.902 748.786C308.512 748.633 295.381 747.789 290.598 745.827C281.866 742.244 256.45 736.088 251.856 730.152C248.779 726.175 238.301 725.48 233.153 724.123C223.892 721.68 224.445 718.185 217.122 714.805C211.908 712.399 206.787 694.278 206.435 689.594C205.569 678.08 197.166 667.205 214.45 661.533C225.296 657.973 242.528 659.445 251.262 653.64C256.7 650.026 255.641 645.775 257.348 641.363C258.257 639.016 272.905 640.267 275.903 640.267C287.157 640.267 310.045 641.971 318.652 636.321C327.943 630.222 343.914 630.402 356.058 630.402C365.812 630.402 389.61 627.205 396.729 631.936C406.927 638.714 413.979 641.321 414.839 652.106C415.356 658.598 420.182 647.993 420.182 645.2C420.182 641.736 417.958 632.754 422.854 630.84C432.012 627.26 447.214 624.483 457.588 624.483C470.806 624.483 486.978 616.979 486.978 632.375C486.978 640.598 481.385 636.552 476.291 641.254C473.079 644.219 470.947 650.063 470.947 654.079C470.947 670.573 464.099 687.027 462.932 703.405C462.571 708.466 462.082 712.013 460.408 716.34C459.309 719.181 459.343 726.449 456.994 728.617C444.621 740.039 468.093 744.939 476.885 748.786C492.298 755.531 513.647 754.705 531.064 754.705C547.686 754.705 553.901 738.752 560.454 730.042C577.31 707.637 561.922 682.978 542.048 665.04C531.978 655.951 518.182 647.745 506.869 639.39C501.294 635.273 499.846 632.631 500.338 626.456C500.632 622.757 516.218 624.483 520.376 624.483C531.855 624.483 553.073 627.621 563.126 623.496C575.405 618.458 574.656 609.561 569.805 599.71C565.424 590.812 564.462 576.411 564.462 567.264C564.462 556.829 569.805 549.419 569.805 539.641C569.805 530.623 571.167 521.051 569.657 512.127C568.667 506.281 564.462 502.505 564.462 496.233C564.462 480.864 565.576 469.011 580.493 456.772C593.606 446.012 608.627 441.724 628.586 440.987C640.214 440.558 664.059 439.845 673.414 445.372C686.052 452.838 688.452 458.083 694.788 468.61C696.364 471.229 696.885 478.969 699.39 480.449C702.068 482.031 705.876 487.742 706.069 490.314C707.193 505.247 721.22 546.472 691.374 551.369C676.146 553.868 660.337 557.553 646.101 562.331C641.234 563.965 631.101 565.078 625.914 565.291C618.887 565.579 610.029 569.417 603.352 571.21C591.991 574.26 577.821 583.203 577.821 591.927C577.821 604.339 578.287 607.288 589.696 615.713C599.584 623.016 601.894 634.348 619.234 634.348C629.451 634.348 651.268 642.989 660.5 637.308C671.373 630.616 686.835 634.28 698.054 626.456C710.283 617.926 708.741 610.848 708.741 598.833C708.741 594.117 711.413 589.919 711.413 586.008C711.413 579.386 717.269 581.075 724.772 581.075C741.021 581.075 750.307 579.538 762.178 571.21C768.224 566.968 783.497 564.942 786.076 558.275C787.358 554.962 791.235 552.336 794.834 549.944C808.29 541.001 818.112 534.052 823.037 519.91C828.561 504.047 834.104 490.88 844.411 476.502C850.583 467.894 863.708 464.238 863.708 452.825C863.708 445.839 866.855 429.149 851.685 429.149C841.424 429.149 838.875 415.08 827.787 417.42C815.09 420.099 797.37 418.878 786.225 426.079C780.912 429.513 767.715 430.788 760.694 433.533C755.313 435.637 745.751 439.014 739.467 439.014C726.881 439.014 716.398 444.933 704.733 444.933C689.299 444.933 686.983 435.553 672.671 433.204C657.944 430.788 655.211 408.064 675.343 416.324C685.481 420.483 700.968 419.283 712.749 419.283C740.127 419.283 764.835 413.364 791.568 413.364C795.675 413.364 807.601 414.842 810.271 412.378C813.74 409.176 816.335 404.051 820.959 401.964C834.95 395.65 836.99 386.876 836.99 375.876C836.99 367.347 836.95 355.221 831.052 348.253C827.256 343.768 790.294 344.307 783.553 344.307C765.291 344.307 750.205 338.387 732.788 338.387C721.212 338.387 691.792 334.261 690.038 322.603C688.905 315.071 685.081 307.725 684.695 300.022C684.324 292.635 683.843 280.27 675.343 275.249C659.638 265.971 694.765 263.902 699.241 263.301C731.364 258.988 765.155 257.492 798.396 257.492C815.838 257.492 832.522 257.701 849.013 259.574C869.095 261.856 888.809 266.871 907.942 269.44C916.922 270.645 922.876 275.249 932.582 275.249C940.35 275.249 948.119 275.249 955.887 275.249C974.915 275.249 995.245 277.059 1013.33 272.29C1030.24 267.829 1048.07 264.043 1048.07 248.613C1048.07 240.792 1055.54 228.567 1067.36 227.895C1069.96 227.748 1084.21 224.125 1085.47 222.963C1085.9 222.563 1101.21 237.856 1105.66 239.734C1117.61 244.778 1121.29 257.938 1132.23 262.424C1140.82 265.949 1141.06 270.303 1141.58 277.222C1141.84 280.708 1144.75 283.154 1144.1 286.978C1143.49 290.618 1138.91 292.167 1138.91 295.966C1138.91 303.856 1114.89 308.009 1108.18 311.861C1097.97 317.726 1078.94 325.186 1065.43 319.643C1047.67 312.356 1052.12 294.247 1038.57 284.238C1025.97 274.933 1033.67 278.614 1042.13 285.553C1048.99 291.185 1054.79 296.371 1061.28 302.763C1070.24 311.588 1071.73 321.594 1077.46 331.372C1085.2 344.6 1081.25 360.579 1064.1 367.545C1052.41 372.293 1040.59 375.076 1029.51 380.699C1024.74 383.122 1002.27 393.931 1020.16 387.714C1032.64 383.376 1044.91 381.795 1058.75 381.795C1072.81 381.795 1079.63 381.017 1089.48 389.578C1095.84 395.104 1104.54 400.702 1111.6 405.91C1118.01 410.648 1138.4 421.422 1125.55 425.641C1114.29 429.336 1091.89 425.563 1090.81 439.014C1089.93 450.168 1081.89 459.688 1066.77 463.677C1047.06 468.875 1040.05 467.057 1040.05 483.408C1040.05 490.152 1038.1 493.303 1047.47 495.795C1054.26 497.6 1055.74 500.159 1060.09 504.016C1064.53 507.951 1070.82 509.292 1074.19 513.991C1076.75 517.563 1084.66 522.275 1089.48 523.856C1108.39 530.064 1131.36 531.748 1152.42 531.748C1156.06 531.748 1162.24 532.636 1165.63 531.31C1169.98 529.607 1166.32 526.196 1168.89 524.295C1172.25 521.814 1185.56 523.005 1186.85 518.704C1191.28 503.986 1194.7 478.332 1180.17 465.65C1171.73 458.281 1159.62 452.425 1149 446.906C1142.31 443.429 1129.64 437.507 1125.55 432.218C1116.07 419.963 1140.09 421.256 1152.27 421.256C1168.35 421.256 1185.63 422.16 1200.95 425.641C1210.71 427.857 1220.03 426.463 1230.05 427.285C1243.07 428.354 1253.41 431.122 1267.16 431.122C1287.13 431.122 1318.63 426.541 1336.62 433.533C1358.85 442.172 1373.52 459.908 1387.39 474.968C1394.65 482.852 1401.84 487.164 1407.43 496.343C1411.14 502.44 1416.51 513.174 1416.78 519.91C1417.02 526.048 1418.82 532.676 1411.29 536.571C1403.04 540.833 1391.22 541.411 1382.64 545.56C1368.05 552.618 1357.66 560.368 1340.63 564.194C1327.54 567.137 1310.11 565.547 1296.55 565.291C1266.73 564.726 1241.18 549.374 1214.91 541.614C1203.52 538.249 1157.61 514.423 1157.61 534.818C1157.61 544.18 1164.96 548.529 1167.7 557.398C1170.73 567.168 1168.3 578.966 1168.3 588.967C1168.3 597.395 1155.38 599.217 1146.92 602.34C1137.72 605.737 1138.91 612.904 1138.91 619.55C1138.91 631.845 1144.25 628.892 1144.25 618.563C1144.25 614.558 1141.5 603.055 1145.74 599.929C1151.05 596.005 1171.73 596.454 1178.99 595.325C1193.45 593.077 1208.93 594.44 1223.22 591.927C1243.91 588.289 1280.26 587.832 1297.88 597.956C1315.4 608.018 1318.57 635.537 1304.56 647.173C1290.92 658.503 1293.87 673.078 1293.87 687.621C1293.87 697.08 1277.03 703.169 1266.86 707.461C1258.64 710.931 1241.69 720.883 1231.83 721.163C1221.41 721.459 1208.29 722.679 1198.88 718.971C1186.82 714.223 1177.84 703.524 1166.22 697.486C1130.39 678.866 1085.69 679.729 1042.72 679.729C1003.34 679.729 970.582 711.925 970.582 739.359C970.582 761.611 985.62 771.657 1014.52 776.848C1030.27 779.676 1066.13 781.571 1071.52 766.544C1076.58 752.418 1043.18 738.921 1073.45 738.921C1081.6 738.921 1129.68 743.226 1130.74 739.688C1135.35 724.394 1112.1 722.89 1100.02 715.244C1091.89 710.099 1088.19 702.171 1085.47 694.636C1081.48 683.591 1087.52 684.287 1095.56 692.006C1105.17 701.224 1109.31 713.828 1120.21 723.027C1126.91 728.683 1135.95 738.557 1144.25 742.428C1153.37 746.682 1163.43 749.59 1172.45 753.828C1190.85 762.474 1218.95 760.625 1240.44 760.625C1280.87 760.625 1392.73 734.033 1392.73 786.165C1392.73 791.64 1394.99 803.031 1384.12 803.922C1351.86 806.57 1319.79 810.391 1287.05 809.951C1272.34 809.754 1257.37 805.524 1251.13 795.153C1248.51 790.811 1244.82 782.857 1238.36 788.686C1232.15 794.294 1230.67 802.114 1220.4 804.909C1200.99 810.19 1174.13 807.978 1153.75 807.978C1144.7 807.978 1120 804.374 1114.86 812.911C1110.39 820.341 1103.43 826.596 1096.16 832.532C1087.75 839.391 1075.24 851.087 1062.17 853.359C1056.01 854.429 1019.67 859.303 1018.67 865.197C1017.84 870.106 1013.33 874.026 1013.33 879.886C1013.33 884.855 1013.33 889.824 1013.33 894.793C1013.33 906.515 1028.72 917.871 1037.08 927.13C1047.13 938.259 1061.89 947.145 1069.44 959.466C1076.58 971.116 1091.75 973.716 1107.44 973.716C1130.11 973.716 1148.97 967.614 1165.63 955.959C1182.55 944.12 1197.82 924.903 1222.33 920.882C1252.14 915.99 1285.41 913.73 1285.86 885.805C1285.93 881.57 1289.58 846.675 1284.37 845.576C1280.4 844.737 1270 860.055 1267.16 862.786C1259.46 870.17 1243.86 875.75 1233.46 881.091C1206.09 895.15 1179.63 896.949 1148.11 900.274C1129.02 902.289 1159.62 900.713 1165.63 900.713C1184.6 900.713 1198.05 894.93 1214.91 888.874C1249.89 876.307 1271.35 856.283 1255.88 827.27C1251.22 818.542 1215.33 789.822 1203.03 807.978" stroke="#EEFEFF" stroke-width="7" stroke-linecap="round" stroke-linejoin="round"/>
<path d="M112.839 322.267C91.476 327.593 71.6404 329.501 58.9858 343.519C50.3964 353.033 46.1636 361.51 46.1636 373.503C46.1636 403.862 53.6509 432.221 80.6409 455.776C87.281 461.571 91.4937 475.66 103.863 475.66C114.78 475.66 117.292 463.059 119.962 457.144C130.11 434.661 143.612 409.007 143.612 385.181C143.612 374.025 147.274 362.035 126.943 362.035C105.754 362.035 99.3832 362.848 83.4903 372.451C68.7047 381.384 52.7651 391.002 44.1691 403.698C42.8921 405.584 43.5392 418.549 42.317 416.744C38.2681 410.764 31.1595 405.498 30.7771 398.437C30.4149 391.751 34.037 392.317 41.0348 390.021C49.4235 387.267 57.0631 378.605 65.3968 374.345C71.5415 371.203 78.4791 369.256 84.4876 365.928C91.7027 361.932 102.536 362.771 110.844 359.089C125.827 352.451 147.217 352.567 163.985 352.567C182.396 352.567 184.643 359.044 184.643 371.504C184.643 386.857 187.207 401.296 187.207 416.533C187.207 430.382 185.758 444.595 189.772 458.196C191.615 464.44 199.077 488.916 211.712 488.916C230.578 488.916 243.812 490.757 262.145 485.55C273.585 482.301 275.137 472.097 280.951 465.35C292.584 451.851 291.452 435.851 298.76 420.741C307.242 403.204 290.323 403.698 273.116 403.698C265.291 403.698 251.469 401.599 244.764 404.75C237.66 408.088 233.294 412.138 225.674 414.639C213.193 418.736 196.237 420.019 186.637 427.896C170.439 441.187 205.158 457.801 205.158 472.82C205.158 479.314 200.029 484.628 200.029 491.231C200.029 498.244 196.415 510.214 191.196 516.271C176.438 533.397 132.273 526.791 107.71 526.791C92.1291 526.791 93.2219 528.383 84.6301 537.733C75.6659 547.488 69.2435 556.223 69.2435 568.454C69.2435 584.934 71.8131 591.179 95.0302 591.179C122.873 591.179 151.332 593.073 179.514 593.073C198.195 593.073 207.5 592.331 218.55 582.131C230.115 571.456 220.819 553.781 218.123 541.836C216.99 536.818 215.267 532.385 209.717 529.106C206.467 527.186 187.939 525.37 187.35 523.846C182.499 511.309 219.614 515.429 228.238 515.429C237.068 515.429 241.612 514.143 246.189 520.058C250.25 525.306 258.045 525.842 263.57 529.106C270.862 533.414 295.462 530.977 305.171 530.579C309.26 530.411 309.686 527.613 312.864 526.371C315.235 525.444 321.723 525.447 322.979 524.056C323.948 522.983 321.021 526.791 319.275 526.791C313.529 526.791 307.783 526.791 302.037 526.791C262.276 526.791 224.013 526.327 185.925 532.578C172.899 534.716 189.045 541.84 191.054 542.993C198.443 547.238 202.933 548.618 207.153 555.198C213.85 565.639 217.98 579.715 217.98 591.179C217.98 604.538 198.18 602.248 185.925 607.276C176.663 611.076 159.538 620.022 150.023 621.584C130.317 624.818 115.256 649.443 102.581 659.354C89.5338 669.556 80.343 684.688 74.9422 697.65C68.5657 712.953 64.5396 736.989 69.386 753.094C70.9913 758.429 76.2745 760.639 78.9313 765.404C81.4803 769.975 66.5885 761.76 65.2544 760.775C53.5064 752.099 41.0348 757.383 41.0348 742.679C41.0348 730.019 40.3744 717.904 41.0348 705.225C42.2654 681.595 79.1097 653.436 106.285 679.238C115.791 688.264 121.614 702.1 129.65 712.274C139.353 724.557 170.946 726.066 187.492 727.424C213.284 729.54 236.25 727.437 246.189 708.17C251.888 697.123 249.694 680.625 248.753 668.823C247.997 659.324 226.056 659.204 222.967 648.938C219.211 636.457 202.462 627.273 190.911 618.743C176.674 608.23 164.895 619.585 148.741 619.585C139.665 619.585 134.074 620.25 128.225 614.851C124.935 611.813 115.346 608.639 110.274 608.223C95.7697 607.032 78.5023 603.718 79.5012 591.179C79.8451 586.861 92.3233 589.365 92.3233 594.019C92.3233 602.655 94.6938 602.722 102.581 608.223C113.367 615.745 125.728 622.276 137.201 629.054C147.85 635.345 164.939 632.841 178.232 632.841C188.556 632.841 196.193 640.549 205.158 643.257C215.132 646.27 225.893 651.481 234.222 656.513C237.562 658.531 237.265 662.863 241.06 664.614C250.837 669.127 253.882 687.545 253.882 695.335C253.882 705.795 254.18 716.232 265.422 722.689C270.482 725.596 274.875 729.863 278.957 733.631C281.296 735.79 288.902 744.954 289.642 747.413C296.57 770.437 322.951 803.272 288.502 823.058C258.107 840.516 273.058 875.425 292.919 893.758C302.868 902.942 313.145 903.648 329.675 903.648C349.422 903.648 369.4 899.275 387.802 894.179C401.751 890.316 402.619 890.123 402.619 879.871C402.619 867.187 405.184 853.916 405.184 840.733C405.184 833.954 402.944 828.606 411.595 825.057C414.829 823.73 432.701 823.945 425.129 816.956C414.182 806.85 401.23 796.504 397.348 783.605C394.498 774.133 367.121 774.536 358.881 779.607C355.703 781.563 350.914 779.927 347.341 781.606C343.197 783.554 340.753 786.045 337.226 788.129C331.23 791.671 324.932 798.402 317.993 800.964C311.743 803.272 306.024 803.279 298.76 803.279C286.868 803.279 295 812.483 291.779 818.429C279.459 841.173 229.773 835.473 201.312 835.473C187.168 835.473 170.317 832.773 162.133 843.048C155.644 851.194 146.176 864.077 146.176 873.348C146.176 884.97 142.761 896.121 143.612 907.435C144.072 913.545 149.292 918.283 152.587 923.637C157.785 932.082 157.883 933.948 144.182 933.948C128.626 933.948 113.478 932.054 97.4522 932.054C91.737 932.054 81.2237 932.831 77.5066 936.262C73.3569 940.093 77.0005 944.537 70.5257 948.256C65.9754 950.869 59.8705 952.542 56.4213 955.726C49.4083 962.199 48.7281 949.102 48.7281 944.889C48.7281 934.166 47.2996 915.49 53.287 905.541C56.2766 900.574 51.2925 892.168 51.2925 886.604C51.2925 881.019 48.7281 875.643 48.7281 870.507C48.7281 858.455 84.1206 854.41 96.17 854.41C114.205 854.41 127.189 841.154 144.894 841.154C151.91 841.154 157.111 837.671 164.127 837.366C173.383 836.964 160.697 825.125 155.152 824.215C140.685 821.841 145.814 807.2 150.735 801.385C154.666 796.741 160.161 792.741 165.267 788.97C169.94 785.52 169.871 779.058 172.39 774.872C177.393 766.561 173.776 751.338 167.974 743.626C161.024 734.388 137.796 738.891 124.236 738.891C117.032 738.891 99.3757 736.629 93.6056 739.943C85.8899 744.375 88.0679 750.016 84.0602 755.935C77.4866 765.644 74.9981 780.297 61.5502 785.814C52.5928 789.489 32.6535 800.323 33.3415 808.96C33.7486 814.071 47.7987 818.47 52.4322 821.269C57.2526 824.182 66.3705 835.387 66.6791 839.26C67.5534 850.237 90.0254 860.54 97.3097 870.402C109.718 887.201 121.251 901.245 128.368 919.639C130.295 924.621 137.226 929.152 138.341 935.736C139.223 940.95 141.715 950.643 146.746 954.358C155.228 960.622 178.297 962.964 192.336 962.354C197.085 962.147 201.728 951.947 205.158 949.098C211.347 943.956 215.812 938.414 224.391 934.894C234.334 930.815 256.592 933.948 267.987 933.948C285.358 933.948 290.91 943.324 305.171 949.518C314.289 953.479 315.577 954.779 326.969 954.779C341.606 954.779 339.391 939.734 333.949 933.948C327.773 927.379 325.686 919.469 325.686 911.643C325.686 904.124 323.116 899.86 334.662 899.86C355.622 899.86 377.757 895.269 398.63 898.072C411.657 899.821 425.431 922.67 431.398 930.16C434.204 933.683 445.747 941.595 450.346 944.468C461.702 951.564 467.578 951.027 480.692 953.306C489.521 954.84 502.786 956.801 510.895 952.885C521.772 947.633 516.464 936.392 521.865 929.213C525.945 923.791 538.112 923.837 538.534 915.431C538.965 906.831 538.534 898.156 538.534 889.55C538.534 885.24 536.257 876.081 540.528 872.927C545.091 869.557 557.782 871.454 564.178 871.454C579.305 871.454 592.856 874.493 597.516 884.815C601.733 894.159 607.337 906.916 596.946 914.589C586.625 922.211 587.258 935.154 587.258 945.31C587.258 957.436 635.511 960.46 645.955 960.46C670.641 960.46 692.614 961.937 707.644 944.363C720.429 929.414 721.772 911.298 710.92 896.073C705.592 888.596 698.052 865.773 715.479 865.773C736.45 865.773 756.813 866.837 777.026 867.666C784.03 867.954 792.06 872.459 798.823 871.349C804.183 870.469 808.966 864.162 815.492 863.879C837.448 862.925 844.121 888.984 857.805 897.966C867.317 904.21 886.521 932.58 869.06 936.683C861.486 938.463 854.817 939.137 847.547 941.522C843.572 942.827 841.656 944.699 837.29 945.415C831.072 946.436 830.754 952.556 823.185 952.885C813.218 953.318 834.88 963.811 829.454 957.514C825.527 952.958 824.033 940.201 817.487 938.156C793.267 930.589 725.737 943.271 725.737 914.063C725.737 900.554 753.655 911.284 765.486 904.489C774.498 899.313 790.325 899.86 801.53 899.86C813.793 899.86 825.782 897.742 837.432 896.178C852.094 894.209 866.781 883.058 866.781 871.454C866.781 856.664 869.345 842.382 869.345 827.898C869.345 816.851 869.345 805.804 869.345 794.757C869.345 785.627 870.276 783.748 859.942 778.66C851.751 774.627 840.777 768.447 830.879 767.403C824.47 766.727 809.674 762.583 805.377 758.881C803.23 757.031 799.273 755.253 796.401 754.041C794.164 753.097 794.763 749.583 792.982 747.939C787.902 743.25 810.182 744.572 812.928 744.572C827.018 744.572 841.352 741.519 853.959 736.997C879.957 727.672 889.861 709.283 889.861 688.707C889.861 677.495 886.288 677.126 871.34 672.61C859.716 669.098 848.239 665.918 837.147 662.194C826.166 658.508 809.995 661.933 800.248 665.982C792.213 669.32 788.542 676.676 781.015 679.764C764.963 686.349 750.58 691.733 741.694 676.818C736.735 668.496 722.195 664.349 717.474 654.935C714.363 648.733 712.661 642.127 710.208 635.787C709.476 633.895 707.786 648.904 707.786 651.779C707.786 656.169 715.565 664.17 719.469 667.876C731.45 679.252 751.407 684.773 764.204 695.335C773.658 703.138 771.897 714.015 771.897 723.741C771.897 729.458 774.495 739.309 771.327 744.572C769.193 748.117 764.443 751.627 760.357 754.041C753.374 758.167 767.268 754.125 769.902 752.568C777.374 748.154 817.82 751.155 825.75 753.62C841.023 758.369 865.565 749.222 879.603 745.519C888.514 743.169 893.168 738.868 903.253 736.577C912.055 734.577 923.28 734.166 932.459 735.209C947.154 736.879 962.15 738.352 977.051 735.945C981.282 735.262 1012.95 729.023 1012.95 731.316C1012.95 743.855 1009.06 759.627 1003.27 771.506C999.408 779.418 987.032 783.571 977.621 787.708C966.427 792.628 956.934 796.509 946.42 802.332C941.011 805.328 932.173 814.074 928.897 818.429C922.834 826.488 912.539 831.999 901.685 836.314C894.464 839.186 888.4 842.125 880.743 843.153C867.335 844.953 866.936 844.329 872.479 852.516C882.477 867.282 888.021 882.558 910.376 890.812C920.601 894.588 931.415 897.992 942.574 900.281C954.586 902.745 962.307 913.388 974.629 914.905C986.284 916.339 995.534 922.054 1002.7 912.064C1009.63 902.397 1009.09 893.591 1010.53 882.922C1011.94 872.498 1019.9 845.261 1007.25 837.787C1003.36 835.488 988.736 837.366 983.462 837.366C972.89 837.366 970.946 842.799 963.659 846.835C954.588 851.859 948.842 855.218 948.842 863.879C948.842 868.846 949.049 874.098 944.853 878.082C932.749 889.575 923.626 904.357 915.505 917.851C911.267 924.892 908.446 950.83 916.787 955.62C922.007 958.619 922.765 962.174 930.037 963.827C941.631 966.461 962.744 970.185 974.487 967.088C1006.27 958.705 1036.18 957.437 1061.68 939.629C1070.22 933.66 1082.23 932.054 1093.73 932.054C1105.96 932.054 1104.55 935.136 1113.54 940.47C1130.27 950.41 1142.37 957.457 1162.26 962.354C1174.55 965.38 1188.28 964.049 1201.01 965.72C1206.45 966.435 1214.1 966.924 1219.25 965.194C1227.94 962.276 1223.34 947.126 1226.37 941.522C1230.44 934.016 1230.87 925.359 1234.78 917.851C1239.47 908.829 1239.82 904.746 1250.16 898.808C1256.99 894.889 1275.51 894.179 1284.21 894.179C1313.41 894.179 1340.85 890.542 1359.15 911.012C1366.94 919.724 1371.97 929.75 1371.97 940.05C1371.97 950.46 1375.41 954.541 1384.8 962.459C1394.38 970.551 1396.11 973.716 1410.44 973.716C1417.42 973.716 1420.7 966.14 1420.7 961.302C1420.7 953.095 1422.65 944.855 1414.14 938.577C1401.83 929.482 1395.27 916.926 1389.35 905.12C1382.37 891.186 1360.95 883.471 1352.03 869.56C1347.36 862.28 1346.1 852.289 1356.02 847.677C1361.11 845.309 1363.28 843.905 1367.41 840.733C1373.95 835.716 1379.12 837.621 1385.93 834.421C1399.76 827.924 1415.03 832.368 1424.69 821.164C1436.01 808.025 1430.95 788.135 1430.95 772.979C1430.95 764.763 1399.33 761.359 1409.3 759.723C1417.84 758.321 1424.69 751.846 1424.69 745.237C1424.69 741.089 1421.97 727.981 1420.7 723.888C1416.07 708.963 1436.74 706.582 1424.69 693.788C1416.9 685.524 1413.65 685.526 1400.75 685.866C1387.27 686.222 1375.8 696.573 1362.86 699.123C1349.46 701.761 1337.04 705.969 1323.25 708.17C1300.95 711.731 1301.84 700.946 1296.46 688.812C1289.89 673.953 1289.91 660.987 1289.91 645.361C1289.91 619.144 1340.7 610.116 1369.27 610.116C1384.12 610.116 1405.45 607.167 1417.56 614.325C1436.23 625.355 1427.04 648.18 1427.92 665.14C1428.7 680.001 1440.62 703.075 1414.43 706.592C1392.08 709.593 1397.57 672.845 1400.18 665.14C1408.15 641.601 1409.62 618.002 1419.41 594.861C1423.91 584.241 1421.12 571.473 1423.83 560.458C1427.11 547.134 1429.87 540.048 1409.3 540.048C1387.65 540.048 1354.02 544.701 1354.02 564.666C1354.02 573.91 1360.27 603.496 1346.33 608.643C1337.04 612.073 1341.09 593.215 1341.2 589.075C1341.32 584.64 1348.98 571.892 1352.74 568.559C1366.39 556.461 1380.91 549.804 1399.61 541.941C1407.56 538.601 1420.12 533.655 1420.7 525.95C1421.4 516.6 1420.7 508.468 1425.83 499.542C1432.36 488.166 1427.82 476.502 1427.82 463.493C1427.82 447.668 1431.05 430.176 1425.83 414.759C1423.36 407.474 1434.64 398.524 1423.26 396.123C1411.18 393.574 1408.24 386.598 1397.62 382.446C1387.71 378.574 1382.37 370.712 1371.97 366.875C1357.15 361.4 1339.84 362.035 1323.82 362.035C1301.09 362.035 1285.3 375.292 1261.7 375.292C1257.9 375.292 1244.44 373.732 1241.76 375.712C1234.92 380.759 1258.19 382.867 1260.56 382.867C1290.03 382.867 1319.63 384.76 1348.75 384.76C1355.9 384.76 1370.08 387.003 1375.82 383.708C1385.68 378.046 1393.77 372.582 1405.88 369.189C1428.13 362.958 1421.31 346.052 1423.26 327.324C1424.68 313.737 1434.48 305.995 1415.71 301.045C1405.31 298.301 1409.81 295.942 1400.18 292.387C1394.38 290.246 1381.76 291.967 1375.39 291.967C1354.59 291.967 1333.79 291.967 1312.99 291.967C1307.32 291.967 1300.39 290.329 1300.17 295.754C1300.03 299.033 1298.94 304.424 1301.59 307.222C1308.53 314.535 1303.17 323.782 1306.58 331.841C1310.7 341.58 1315.47 353.569 1312.99 363.929C1312.04 367.924 1265.58 373.424 1259.71 374.871C1217.08 385.363 1148.34 395.071 1121.66 360.036C1110.97 346.01 1105.27 330.913 1105.27 314.692C1105.27 306.654 1104.76 299.622 1111.83 292.914C1114.94 289.952 1121.32 288.529 1125.93 287.337C1140.59 283.549 1150.72 275.812 1164.82 271.135C1184.9 264.478 1203.39 268.051 1223.24 273.029C1235.53 276.113 1242.96 283.338 1253.01 288.284C1272.33 297.797 1302.55 315.979 1307.86 333.629C1308.76 336.596 1318.19 353.57 1325.24 348.358C1337.06 339.63 1338.64 328.54 1338.64 316.691C1338.64 301.854 1320.68 300.38 1309.86 292.387C1300.54 285.511 1291.33 278.737 1283.5 271.03C1273.93 261.604 1268.49 250.724 1261.85 240.099C1257.22 232.707 1251.77 225.446 1251.44 217.058C1250.62 195.643 1208.81 200.815 1192.46 207.169C1172.6 214.89 1158.42 218.462 1139.75 206.643C1121.44 195.054 1136.45 174.395 1150.29 166.032C1160.58 159.819 1155.18 158.385 1147.59 152.776C1132.76 141.824 1117.78 127.124 1097.58 121.529C1075.22 115.336 1054.37 119.635 1032.9 119.635C1014.55 119.635 977.051 121.159 977.051 138.573C977.051 152.32 977.051 166.067 977.051 179.815C977.051 188.14 974.936 198.154 980.185 205.906C985.416 213.631 996.295 215.99 1002.7 221.898C1011.17 229.722 1049.58 230.267 1060.39 224.739C1073.48 218.049 1071.63 200.332 1067.38 190.125C1064.31 182.774 1064.74 181.452 1055.27 178.342C1043.46 174.467 1027.64 176.448 1014.95 176.448C1000.1 176.448 986.185 173.215 971.922 172.66C961.988 172.274 958.345 168.087 948.842 167.084C925.963 164.671 914.073 180.235 893.565 180.235C857.922 180.235 853.959 160.67 853.959 138.573C853.959 124.042 860.626 108.263 879.603 101.119C888.676 97.7029 910.637 93.2434 920.634 97.8574C940.809 107.169 959.1 119.848 959.1 138.152C959.1 151.917 964.77 170.084 944.283 176.027C923.483 182.062 864.618 202.635 856.38 177.29C853.363 168.004 848.83 160.974 848.83 151.093C848.83 145.392 846.327 140.54 843.701 135.206C837.027 121.654 834.342 102.72 845.125 90.072C851.193 82.9558 860.55 58.0825 850.254 51.5658C836.048 42.5738 828.025 28.3589 812.928 19.6877C783.715 2.90896 770.852 35.3106 759.075 49.9876C753.206 57.3009 753.686 73.0767 753.946 81.3397C754.449 97.3025 801.386 93.123 814.067 93.123C835.059 93.123 852.417 96.9867 863.646 82.3918C869.061 75.3539 867.968 63.281 868.775 55.4585C870.252 41.1408 869.345 26.5725 869.345 12.2179C869.345 3.46103 863.798 8.32545 877.608 8.32545C882.293 8.32545 893.437 5.41479 896.984 8.32518C903.413 13.6004 915.946 10.9627 923.056 14.6377C936.211 21.4378 966.63 19.2668 982.18 19.2668C997.051 19.2668 986.667 10.1682 1002.7 8.32518C1002.7 0.985086 1009.06 9.14086 1022.25 10.6397C1028.71 11.3733 1034.56 11.4842 1041.01 12.2178C1048.07 13.0191 1043.54 10.7246 1049.43 14.6377C1062.86 23.5678 1075.19 23.3042 1076.78 36.2054C1078.19 47.6482 1082.43 68.7559 1066.38 75.8689C1048.82 83.6478 1018.25 91.6912 997.566 86.6001C974.805 80.9971 963.029 61.9476 949.127 48.8303C934.537 35.0627 913.366 35.8642 891 36.3106C877.098 36.588 873.097 49.3903 871.767 57.247C869.42 71.1152 861.435 81.2014 877.608 92.7022C889.243 100.976 907.842 98.8043 922.343 98.8043C951.995 98.8043 982.137 100.162 1011.53 97.3314C1034.72 95.0973 1062.04 91.9577 1073.93 74.3959C1082.46 61.7965 1082.28 47.1586 1094.87 36.3106C1106.85 25.9935 1117.39 16.9414 1134.62 10.6398C1150.08 4.98601 1173.78 8.32857 1192.46 10.1682C1220.46 12.9244 1230.93 30.0077 1230.93 45.5689C1230.93 57.4557 1233.13 70.8053 1221.81 80.498C1211.98 88.9222 1190.91 98.2421 1175.94 98.8043C1153.69 99.6398 1145.86 79.0596 1138.04 67.0314C1128.67 52.6261 1118.09 41.6294 1118.09 24.9481C1118.09 14.9304 1120.61 16.6291 1136.05 13.894C1155.14 10.5103 1187.37 9.41239 1206.65 10.6398C1233.59 12.3549 1254.07 5.46909 1266.26 23.4752C1273.59 34.3027 1273.73 50.0188 1271.96 61.9814C1270.24 73.6273 1229.62 81.3057 1217.96 85.7584C1197.02 93.7575 1178.49 103.789 1156.42 110.167C1148.23 112.534 1123.22 114.274 1123.22 123.002C1123.22 128.298 1132.29 132.693 1136.05 136.469C1144.54 144.999 1148.49 157.308 1161.69 162.876C1185.54 172.942 1210.9 166.723 1226.66 152.04C1241.61 138.097 1247.26 120.674 1252.87 103.644C1254.57 98.4695 1266.22 79.1807 1250.16 81.9709C1231.34 85.2418 1206.08 99.9146 1200.73 113.533C1193.81 131.113 1207.62 144.23 1216.97 158.668C1225.5 171.839 1243.17 181.328 1258.85 189.599C1268.9 194.9 1282.05 204.854 1295.18 204.854C1305.33 204.854 1315.17 206.748 1325.39 206.748C1342.16 206.748 1382.92 212.568 1395.62 202.54C1404.99 195.146 1404.33 178.179 1402.18 168.873C1398.96 154.987 1379.09 140.756 1362.43 134.996C1351.16 131.102 1316.32 123.01 1307.86 133.418C1298.38 145.087 1295.2 158.652 1295.04 172.029C1294.83 189.046 1302.16 203.319 1305.3 220.004C1307.26 230.444 1307.56 241.374 1311.57 251.567C1318.41 268.968 1343.17 284.949 1368.27 276.396C1386.88 270.054 1401.35 255.855 1415.71 245.465C1433.84 232.342 1423.07 221.228 1423.26 202.54C1423.5 179.878 1432.71 155.972 1430.51 133.418C1428.4 111.766 1435.75 95.3747 1415.28 78.2887C1400.35 65.8211 1379.98 58.2256 1363.71 46.9366C1354.1 40.2721 1346.05 33.8669 1331.23 38.7304C1312.87 44.756 1311.22 64.9521 1310.57 77.447C1309.82 91.8922 1313.19 104.739 1333.51 111.219C1392.44 130.012 1420.15 59.0759 1430.51 29.1833C1434.15 18.677 1433.2 13.1927 1415.28 10.6398C1385.41 6.38213 1373.38 12.4185 1343.16 10.6398C1321.88 9.38673 1279.28 3.58299 1275.88 24.9481C1273.42 40.389 1309.92 28.365 1326.67 24.5272C1336.49 22.2771 1338.64 11.0988 1338.64 5.06372" stroke="#D9F8FB" stroke-opacity="0.6" stroke-width="7" stroke-linecap="round" stroke-linejoin="round"/>
<path d="M377.123 579.702C383.365 573.617 400.378 551.814 391.569 543.451C381.189 533.595 368.779 530.714 351.915 530.714C338.799 530.714 329.36 542.334 329.36 551.833C329.36 559.976 324.362 580.343 332.603 587.104C335.773 589.705 337.452 595.651 341.448 597.337C347.465 599.876 353.674 601.181 359.875 603.216C370.752 606.786 381.867 611.511 393.191 612.905C400.325 613.783 429.505 615.771 434.91 612.578C446.198 605.909 443.761 598.797 449.356 589.499C453.686 582.305 457.906 569.791 456.58 561.957C455.885 557.851 455.465 549.024 452.747 545.41C448.598 539.896 454.074 534.2 454.074 528.646C454.074 516.176 467.178 509.388 478.544 501.757C492.365 492.479 536.055 488.735 550.483 495.443C570.164 504.594 581.44 524.982 581.44 541.6C581.44 555.831 586.092 574.357 577.313 587.322C569.006 599.591 527.466 597.337 512.45 597.337C493.589 597.337 474.601 593.446 463.508 580.573C456.543 572.491 459.119 560.885 454.074 552.269C447.914 541.75 451.42 526.859 451.42 515.691C451.42 493.536 440.449 451.632 464.687 432.739C472.353 426.763 489.227 419.022 500.509 419.022C517.886 419.022 534.466 407.265 553.579 407.265C569.58 407.265 585.745 397.333 600.604 393.113C609.092 390.702 616.113 384.779 621.243 379.397C629.151 371.097 627.479 366.152 629.793 356.753C633.658 341.053 631.37 328.885 606.648 328.885C593.593 328.885 580.134 328.159 567.141 328.994C554.059 329.834 547.068 336.859 537.658 342.71C512.937 358.083 499.183 377.635 499.183 400.951C499.183 417.083 526.89 423.51 542.523 430.779C570.691 443.876 610.176 442.529 641.144 435.569C673.123 428.382 713.255 406.763 731.509 386.146C739.369 377.269 713.343 367.505 706.154 362.196C686.064 347.361 665.584 340.519 660.455 318.216C655.707 297.569 654.596 277.033 655.738 255.947C656.221 247.032 688.154 230.909 699.52 230.909C713.908 230.909 728.27 221.719 744.482 225.14C754.098 227.169 741.305 251.555 749.199 247.021C753.273 244.681 764.759 245.878 769.837 244.19C778.329 241.369 786.563 239.877 794.308 235.917C809.081 228.364 821.218 209.902 822.759 197.38C823.601 190.544 826.484 174.708 821.433 168.314C816.364 161.897 798.056 164.286 789.886 164.286C773.13 164.286 756.373 164.286 739.617 164.286C715.891 164.286 704.486 162.865 687.58 176.043C678.875 182.828 676.988 192.095 673.722 200.646C666.946 218.388 655.205 234.792 651.02 253.335C644.952 280.222 639.517 300.704 606.648 314.188C594.313 319.249 559.701 316.336 546.945 313.644C537.799 311.714 531.467 299.657 528.961 293.178C526.312 286.332 528.371 277.206 528.371 270.099C528.371 252.534 556.774 233.908 574.807 225.031C594.255 215.456 632.052 202.584 648.957 222.2C657.992 232.685 655.416 257.221 652.937 269.12C647.923 293.188 619.743 307.345 591.907 317.019C563.946 326.736 538.982 342.601 507.143 342.601C493.596 342.601 481.202 346.157 467.931 346.52C457.072 346.817 446.103 347.011 435.499 348.915C414.745 352.643 390.39 352.997 390.39 372.974C390.39 385.61 386.117 409.77 399.825 419.893C421.77 436.099 472.412 426.112 495.645 418.587C517.688 411.447 525.717 397.571 525.717 380.812C525.717 365.264 526.072 358.046 508.617 347.5C492.507 337.766 468.447 339.363 449.356 334.328C430.818 329.439 418.229 324.966 398.35 324.966C360.94 324.966 306.237 342.302 291.032 367.966C282.37 382.587 284.251 399.822 284.251 415.539C284.251 430.717 279.496 454.442 302.825 461.696C313.635 465.057 336.023 464.091 347.934 464.091C361.33 464.091 377.112 465.924 389.8 462.131C418.352 453.597 416.925 428.881 416.925 409.225C416.925 395.981 412.739 388.077 407.638 376.022C402.782 364.548 386.144 363.459 379.776 355.229C372.519 345.851 346.968 348.48 335.257 348.48C310.491 348.48 285.725 348.48 260.959 348.48C231.611 348.48 203.204 344.519 192.853 322.68C187.189 310.728 188.726 294.33 188.726 281.748C188.726 255.806 201.958 233.158 219.093 210.77C227.696 199.531 239.58 180.389 260.37 179.962C270.776 179.749 285.61 178.141 295.455 180.398C324.525 187.06 345.002 208.957 359.138 227.426C373.148 245.73 374.469 259.588 374.469 280.006C374.469 291.837 351.966 309.635 338.5 315.059C330.641 318.225 324.305 322.51 316.682 326.054C307.956 330.112 296.377 331.166 286.904 334.763C267.389 342.175 250.916 347.074 230.592 340.642C224.524 338.721 211.711 333.647 207.448 329.973C200.381 323.885 174.098 323.006 163.37 323.006C152.253 323.006 79.9332 316.826 79.9332 329.865C79.9332 334.64 79.1662 339.834 80.0806 344.561C81.5273 352.039 97.3324 360.853 103.667 366.115C115.894 376.273 152.751 387.048 171.331 380.812C196.693 372.298 188.726 347.472 188.726 330.844C188.726 315.219 185.302 297.685 174.869 283.816C165.499 271.361 140.565 267.967 129.023 256.165C113.43 240.222 92.8291 225.192 90.6945 203.912C89.1086 188.101 86.7286 166.63 91.1368 151.005C95.5115 135.498 116.5 131.522 134.477 129.015C156.664 125.92 193.834 120.21 199.929 139.901C202.935 149.611 209.954 158.242 209.954 168.314C209.954 178.842 212.607 189.148 212.607 199.775C212.607 219.08 195.089 243.412 168.677 250.504C144.467 257.006 128.351 246.308 122.979 228.95C117.842 212.355 106.279 196.822 100.571 179.962C95.6651 165.47 93.7903 139.248 99.9817 124.878C104.936 113.38 115.527 95.8233 127.843 87.8652C137.857 81.3947 155.44 79.1842 167.645 75.1284C186.307 68.9271 203.612 67.5325 223.811 65.8752C242.347 64.3542 271.705 59.8971 288.379 68.2701C309.882 79.0681 318.746 101.644 318.746 119.871C318.746 131.956 314.425 134.893 297.518 134.893C277.372 134.893 257.225 134.893 237.078 134.893C227.557 134.893 209.759 137.348 203.172 130.539C195.876 122.996 193.759 112.312 190.79 103.541C185.822 88.8669 188.726 71.7142 188.726 56.6219C188.726 48.9594 188.971 43.4499 199.782 39.8572C214.718 34.8937 236.323 34.8584 252.557 32.0192C298.373 24.006 354.218 15.3722 400.414 27.5559C422.204 33.3026 436.278 52.9909 438.153 69.141C439.078 77.1169 442.435 86.7349 444.786 94.7235C447.209 102.954 446.113 111.809 446.113 120.197C446.113 139.77 441.433 149.384 417.072 159.278C400.213 166.126 383.511 173.249 366.509 179.527C345.076 187.44 329.861 179.073 323.463 163.851C316.282 146.763 319.39 114.717 348.082 109.42C365.659 106.175 384.132 107.46 402.183 107.46C427.271 107.46 450.577 106.98 474.859 112.359C495.85 117.009 528.371 134.879 528.371 152.094C528.371 173.106 531.024 194.089 531.024 215.233C531.024 236.691 521.14 253.916 501.836 270.208C489.473 280.642 455.856 309.751 432.993 300.254C421.956 295.67 417.377 283.209 410.144 276.087C397.412 263.551 377.993 251.735 374.764 235.046C367.929 199.714 422.82 203.476 455.253 203.476C467.371 203.476 483.436 201.165 491.222 209.79C499.259 218.693 498.695 231.156 502.426 241.142C509.104 259.019 507.143 279.037 507.143 297.533C507.143 316.9 576.593 291.036 587.19 285.558C671.487 241.982 734.607 171.037 753.916 96.683C759.033 76.9798 766.769 32.0311 737.996 19.2824C712.552 8.00864 680.692 21.3105 661.045 33.4344C639.356 46.8178 627.367 55.908 617.999 76.1081C614.434 83.7962 607.16 105.157 616.525 112.903C633.715 127.121 652.035 132.934 678.292 132.934C694.418 132.934 707.95 135.109 717.947 123.79C725.307 115.456 740.649 96.3686 740.649 85.9057C740.649 68.0805 713.231 70.2296 693.476 70.2296C681.162 70.2296 670.455 69.6164 658.391 67.8347C645.297 65.9007 632.743 61.3539 619.916 58.5814C607.615 55.9227 594.152 56.0618 581.44 54.989C560.282 53.2033 527.839 48.9984 523.211 71.2094C520.26 85.3775 521.283 99.14 520.263 113.448C518.595 136.858 518.577 159.422 532.204 181.377C541.052 195.634 572.638 189.76 590.285 189.76C623.871 189.76 636.243 171.466 628.613 147.521C623.933 132.833 595.126 125.804 578.787 122.701C567.49 120.556 520.747 108.675 515.104 121.177" stroke="#D9F8FB" stroke-opacity="0.6" stroke-width="7" stroke-linecap="round" stroke-linejoin="round"/>
<path d="M328.243 565.577C334.485 559.493 351.498 537.689 342.69 529.326C332.309 519.471 319.9 516.59 303.035 516.59C289.919 516.59 280.48 528.21 280.48 537.709C280.48 545.851 275.482 566.218 283.723 572.98C286.893 575.581 288.572 581.527 292.568 583.213C298.585 585.752 304.794 587.056 310.995 589.091C321.872 592.661 332.987 597.386 344.311 598.78C351.445 599.658 380.625 601.646 386.03 598.454C397.318 591.785 394.881 584.672 400.476 575.375C404.806 568.181 409.026 555.667 407.7 547.833C407.005 543.727 406.585 534.899 403.867 531.286C399.718 525.771 405.194 520.075 405.194 514.521C405.194 502.052 418.298 495.263 429.665 487.632C443.485 478.354 487.176 474.61 501.603 481.318C521.285 490.469 532.561 510.857 532.561 527.476C532.561 541.706 537.212 560.232 528.433 573.198C520.126 585.467 478.586 583.213 463.57 583.213C444.709 583.213 425.721 579.321 414.628 566.448C407.664 558.366 410.239 546.76 405.194 538.144C399.034 527.625 402.54 512.734 402.54 501.567C402.54 479.411 391.57 437.508 415.808 418.614C423.473 412.639 440.347 404.898 451.63 404.898C469.006 404.898 485.587 393.141 504.699 393.141C520.7 393.141 536.865 383.209 551.725 378.989C560.212 376.578 567.233 370.655 572.363 365.272C580.271 356.973 578.599 352.027 580.913 342.629C584.778 326.929 582.49 314.76 557.769 314.76C544.713 314.76 531.254 314.035 518.261 314.869C505.179 315.709 498.188 322.734 488.778 328.586C464.058 343.959 450.303 363.511 450.303 386.827C450.303 402.959 478.01 409.386 493.643 416.655C521.812 429.752 561.297 428.405 592.264 421.445C624.243 414.257 664.375 392.638 682.629 372.021C690.49 363.144 664.463 353.381 657.274 348.072C637.185 333.236 616.704 326.394 611.575 304.092C606.828 283.445 605.716 262.908 606.858 241.823C607.341 232.907 639.274 216.785 650.64 216.785C665.028 216.785 679.39 207.595 695.602 211.015C705.218 213.044 692.425 237.431 700.319 232.896C704.393 230.556 715.879 231.754 720.958 230.066C729.449 227.244 737.683 225.752 745.429 221.792C760.201 214.24 772.338 195.778 773.88 183.255C774.721 176.42 777.604 160.584 772.553 154.189C767.484 147.773 749.177 150.162 741.006 150.162C724.25 150.162 707.494 150.162 690.737 150.162C667.011 150.162 655.606 148.74 638.7 161.919C629.995 168.704 628.109 177.97 624.843 186.521C618.066 204.263 606.326 220.667 602.141 239.21C596.073 266.097 590.638 286.579 557.769 300.064C545.434 305.124 510.821 302.211 498.065 299.52C488.92 297.59 482.587 285.532 480.081 279.054C477.432 272.208 479.491 263.082 479.491 255.975C479.491 238.41 507.895 219.784 525.927 210.906C545.376 201.331 583.173 188.459 600.077 208.076C609.112 218.561 606.536 243.097 604.057 254.995C599.043 279.063 570.863 293.221 543.027 302.894C515.066 312.611 490.102 328.477 458.263 328.477C444.716 328.477 432.322 332.033 419.051 332.396C408.192 332.693 397.223 332.886 386.619 334.791C365.866 338.519 341.51 338.873 341.51 358.849C341.51 371.486 337.237 395.646 350.945 405.769C372.89 421.974 423.532 411.987 446.765 404.462C468.809 397.322 476.838 383.446 476.838 366.687C476.838 351.139 477.192 343.922 459.737 333.376C443.627 323.642 419.567 325.238 400.476 320.203C381.938 315.314 369.349 310.841 349.471 310.841C312.06 310.841 257.357 328.177 242.152 353.842C233.49 368.462 235.371 385.697 235.371 401.414C235.371 416.592 230.616 440.318 253.945 447.571C264.755 450.932 287.144 449.966 299.055 449.966C312.45 449.966 328.232 451.799 340.921 448.007C369.472 439.473 368.045 414.756 368.045 395.1C368.045 381.857 363.859 373.952 358.758 361.897C353.903 350.424 337.264 349.334 330.896 341.105C323.639 331.726 298.089 334.355 286.377 334.355C261.611 334.355 236.845 334.355 212.08 334.355C182.731 334.355 154.324 330.394 143.974 308.555C138.309 296.604 139.846 280.206 139.846 267.623C139.846 241.681 153.078 219.033 170.214 196.645C178.816 185.406 190.7 166.264 211.49 165.838C221.896 165.624 236.73 164.017 246.575 166.273C275.645 172.935 296.123 194.833 310.258 213.301C324.268 231.606 325.589 245.463 325.589 265.881C325.589 277.712 303.086 295.511 289.62 300.935C281.761 304.1 275.425 308.386 267.803 311.93C259.076 315.987 247.497 317.041 238.025 320.639C218.51 328.05 202.037 332.95 181.712 326.517C175.644 324.597 162.832 319.522 158.568 315.849C151.501 309.761 125.219 308.882 114.491 308.882C103.373 308.882 31.0534 302.702 31.0534 315.74C31.0534 320.516 30.2864 325.71 31.2008 330.436C32.6475 337.914 48.4526 346.728 54.7873 351.991C67.0139 362.149 103.871 372.924 122.451 366.687C147.813 358.174 139.846 333.347 139.846 316.72C139.846 301.094 136.422 283.56 125.989 269.692C116.619 257.236 91.6848 253.842 80.1427 242.041C64.5503 226.098 43.9493 211.068 41.8147 189.787C40.2288 173.976 37.8488 152.506 42.257 136.88C46.6317 121.373 67.62 117.398 85.5971 114.89C107.784 111.796 144.955 106.085 151.05 125.777C154.055 135.486 161.074 144.117 161.074 154.189C161.074 164.717 163.727 175.024 163.727 185.65C163.727 204.955 146.209 229.287 119.797 236.38C95.5874 242.881 79.4713 232.183 74.0987 214.825C68.9623 198.231 57.3994 182.698 51.6915 165.838C46.7853 151.345 44.9105 125.123 51.1019 110.754C56.056 99.2555 66.6475 81.6987 78.9634 73.7407C88.9771 67.2702 106.561 65.0597 118.766 61.0039C137.427 54.8026 154.732 53.408 174.931 51.7507C193.467 50.2297 222.825 45.7726 239.499 54.1456C261.002 64.9436 269.866 87.519 269.866 105.746C269.866 117.832 265.545 120.769 248.639 120.769C228.492 120.769 208.345 120.769 188.198 120.769C178.677 120.769 160.879 123.224 154.293 116.414C146.996 108.871 144.879 98.1877 141.91 89.4168C136.942 74.7424 139.846 57.5897 139.846 42.4974C139.846 34.8349 140.091 29.3253 150.902 25.7327C165.839 20.7692 187.443 20.7339 203.677 17.8947C249.493 9.88147 305.339 1.24773 351.535 13.4314C373.324 19.178 387.398 38.8664 389.273 55.0165C390.199 62.9924 393.555 72.6104 395.907 80.599C398.329 88.829 397.233 97.684 397.233 106.073C397.233 125.646 392.553 135.259 368.192 145.154C351.333 152.001 334.631 159.124 317.629 165.402C296.196 173.316 280.981 164.949 274.584 149.726C267.402 132.638 270.51 100.592 299.202 95.2953C316.779 92.0503 335.253 93.3358 353.303 93.3358C378.391 93.3358 401.697 92.8551 425.979 98.2346C446.971 102.885 479.491 120.754 479.491 137.969C479.491 158.981 482.145 179.964 482.145 201.109C482.145 222.566 472.26 239.792 452.956 256.084C440.593 266.518 406.976 295.627 384.113 286.13C373.076 281.545 368.498 269.085 361.264 261.962C348.532 249.427 329.113 237.61 325.884 220.922C319.049 185.589 373.94 189.352 406.373 189.352C418.492 189.352 434.556 187.041 442.342 195.666C450.379 204.568 449.815 217.031 453.546 227.018C460.224 244.894 458.263 264.912 458.263 283.408C458.263 302.776 527.713 276.911 538.31 271.433C622.607 227.858 685.727 156.912 705.037 82.5585C710.154 62.8553 717.889 17.9066 689.116 5.15789C663.672 -6.11587 631.812 7.18596 612.165 19.3099C590.477 32.6933 578.488 41.7834 569.12 61.9836C565.554 69.6717 558.28 91.0326 567.645 98.7789C584.835 112.996 603.155 118.809 629.413 118.809C645.539 118.809 659.071 120.984 669.067 109.665C676.427 101.331 691.769 82.2441 691.769 71.7812C691.769 53.9559 664.351 56.1051 644.596 56.1051C632.283 56.1051 621.575 55.4919 609.511 53.7102C596.417 51.7762 583.863 47.2294 571.036 44.4569C558.735 41.7982 545.273 41.9373 532.561 40.8645C511.402 39.0788 478.959 34.8739 474.332 57.0849C471.38 71.253 472.403 85.0155 471.383 99.3232C469.715 122.734 469.697 145.298 483.324 167.253C492.172 181.51 523.759 175.635 541.406 175.635C574.991 175.635 587.363 157.342 579.734 133.397C575.053 118.708 546.246 111.679 529.907 108.576C518.61 106.431 471.867 94.5503 466.224 107.052" stroke="#EEFEFF" stroke-width="7" stroke-linecap="round" stroke-linejoin="round"/>
<path d="M83.7905 358.55C62.4277 363.877 42.5921 365.785 29.9375 379.803C21.3481 389.317 17.1153 397.794 17.1153 409.787C17.1153 440.146 24.6026 468.505 51.5926 492.06C58.2327 497.855 62.4454 511.944 74.815 511.944C85.732 511.944 88.2439 499.343 90.9139 493.427C101.062 470.945 114.564 445.291 114.564 421.465C114.564 410.309 118.225 398.319 97.8948 398.319C76.7057 398.319 70.3349 399.132 54.442 408.735C39.6564 417.668 23.7168 427.286 15.1208 439.982C13.8438 441.868 14.4908 454.833 13.2687 453.028C9.21977 447.048 13.6511 439.435 13.2687 432.375C12.9065 425.689 4.98869 428.601 11.9865 426.305C20.3752 423.551 28.0148 414.889 36.3485 410.629C42.4932 407.487 49.4308 405.54 55.4393 402.212C62.6544 398.216 73.4876 399.055 81.7959 395.373C96.7785 388.735 118.169 388.85 134.937 388.85C153.348 388.85 155.594 395.327 155.594 407.788C155.594 423.141 158.159 437.58 158.159 452.817C158.159 466.665 156.709 480.879 160.723 494.48C162.566 500.724 170.028 525.2 182.663 525.2C201.53 525.2 214.764 527.041 233.097 521.834C244.536 518.585 246.088 508.381 251.903 501.634C263.535 488.135 262.404 472.135 269.711 457.025C278.193 439.488 261.275 439.982 244.067 439.982C236.243 439.982 222.421 437.883 215.716 441.034C208.612 444.372 204.245 448.422 196.625 450.923C184.145 455.02 167.188 456.303 157.589 464.18C141.39 477.471 176.11 494.085 176.11 509.104C176.11 515.598 170.981 520.912 170.981 527.515C170.981 534.528 167.367 546.498 162.148 552.554C147.389 569.681 103.225 563.075 78.6616 563.075C63.0808 563.075 64.1735 564.667 55.5817 574.017C46.6176 583.772 40.1952 592.507 40.1952 604.738C40.1952 621.218 42.7648 627.463 65.9819 627.463C93.8246 627.463 122.284 629.357 150.466 629.357C169.147 629.357 178.451 628.615 189.502 618.415C201.067 607.739 191.77 590.065 189.074 578.12C187.942 573.102 186.219 568.669 180.669 565.39C177.419 563.47 158.891 561.654 158.301 560.129C153.451 547.593 190.565 551.713 199.19 551.713C208.019 551.713 212.563 550.427 217.141 556.342C221.201 561.59 228.997 562.126 234.522 565.39C241.813 569.698 266.414 567.261 276.123 566.863C280.211 566.695 280.638 563.897 283.816 562.654C286.186 561.728 292.675 561.731 293.931 560.34C294.9 559.267 291.973 563.075 290.227 563.075C284.481 563.075 278.734 563.075 272.988 563.075C233.228 563.075 194.964 562.611 156.877 568.862C143.85 570.999 159.997 578.124 162.005 579.277C169.395 583.522 173.884 584.902 178.104 591.482C184.802 601.923 188.932 615.999 188.932 627.463C188.932 640.822 169.132 638.532 156.877 643.56C147.614 647.36 130.49 656.306 120.975 657.868C101.269 661.102 86.2075 685.727 73.5327 695.638C60.4855 705.839 51.2947 720.971 45.8939 733.934C39.5174 749.237 35.4913 773.273 40.3376 789.378C41.943 794.713 47.2262 796.923 49.883 801.688C52.432 806.259 37.5402 798.044 36.2061 797.058C24.4581 788.383 11.9865 793.667 11.9865 778.963C11.9865 766.303 11.3261 754.188 11.9865 741.508C13.2171 717.879 50.0614 689.72 77.2369 715.522C86.743 724.548 92.5653 738.384 100.602 748.557C110.305 760.841 141.897 762.35 158.444 763.707C184.236 765.824 207.202 763.721 217.141 744.454C222.84 733.407 220.645 716.909 219.705 705.106C218.949 695.608 197.008 695.488 193.918 685.222C190.163 672.741 173.414 663.557 161.863 655.027C147.626 644.514 135.847 655.869 119.692 655.869C110.617 655.869 105.026 656.534 99.177 651.135C95.8866 648.097 86.2975 644.923 81.226 644.507C66.7214 643.316 49.454 640.002 50.4529 627.463C50.7968 623.145 63.275 625.649 63.275 630.303C63.275 638.939 65.6455 639.006 73.5327 644.507C84.3182 652.029 96.6799 658.56 108.153 665.338C118.801 671.629 135.891 669.125 149.183 669.125C159.508 669.125 167.145 676.833 176.11 679.541C186.084 682.554 196.845 687.765 205.173 692.797C208.514 694.815 208.217 699.147 212.012 700.898C221.789 705.411 224.834 723.828 224.834 731.619C224.834 742.079 225.132 752.516 236.374 758.973C241.434 761.879 245.827 766.147 249.908 769.915C252.247 772.074 259.854 781.238 260.594 783.697C267.522 806.721 293.902 839.556 259.454 859.342C229.058 876.8 244.01 911.709 263.87 930.042C273.82 939.226 284.097 939.931 300.627 939.931C320.373 939.931 340.352 935.559 358.754 930.463C372.703 926.6 373.571 926.407 373.571 916.154C373.571 903.47 376.135 890.2 376.135 877.017C376.135 870.237 373.895 864.89 382.546 861.341C385.78 860.014 403.652 860.229 396.081 853.24C385.133 843.134 372.181 832.788 368.3 819.889C365.449 810.417 338.073 810.82 329.833 815.891C326.654 817.847 321.866 816.211 318.293 817.89C314.148 819.838 311.705 822.329 308.178 824.413C302.182 827.955 295.884 834.686 288.945 837.248C282.695 839.556 276.975 839.563 269.711 839.563C257.819 839.563 265.951 848.767 262.731 854.713C250.411 877.457 200.725 871.756 172.263 871.756C158.119 871.756 141.268 869.057 133.084 879.331C126.596 887.477 117.128 900.361 117.128 909.631C117.128 921.254 113.712 932.405 114.564 943.719C115.023 949.829 120.243 954.567 123.539 959.921C128.737 968.366 128.835 970.231 115.133 970.231C99.5781 970.231 84.4299 968.338 68.4039 968.338C62.6887 968.338 52.1754 969.115 48.4583 972.546C44.3086 976.376 47.9522 980.821 41.4774 984.54C36.9271 987.153 30.8222 988.825 27.373 992.009C20.36 998.483 19.6797 985.386 19.6797 981.173C19.6797 970.45 18.2513 951.773 24.2387 941.825C27.2283 936.858 22.2442 928.452 22.2442 922.888C22.2442 917.303 19.6797 911.927 19.6797 906.791C19.6797 894.739 55.0723 890.694 67.1217 890.694C85.1569 890.694 98.1402 877.438 115.846 877.438C122.862 877.438 128.063 873.955 135.079 873.65C144.334 873.248 131.649 861.409 126.104 860.499C111.636 858.125 116.766 843.484 121.687 837.669C125.617 833.025 131.113 829.025 136.219 825.254C140.891 821.804 140.823 815.342 143.342 811.156C148.344 802.845 144.728 787.622 138.926 779.91C131.976 770.671 108.748 775.175 95.1879 775.175C87.9835 775.175 70.3274 772.913 64.5572 776.227C56.8416 780.659 59.0196 786.3 55.0119 792.219C48.4383 801.928 45.9498 816.581 32.5019 822.098C23.5445 825.773 3.60517 836.607 4.29318 845.244C4.70033 850.355 18.7503 854.754 23.3839 857.553C28.2043 860.466 37.3222 871.671 37.6307 875.544C38.5051 886.52 60.9771 896.824 68.2614 906.685C80.6697 923.485 92.2029 937.529 99.3195 955.923C101.247 960.905 108.178 965.436 109.292 972.02C110.175 977.234 112.667 986.927 117.698 990.642C126.18 996.905 149.248 999.247 163.288 998.637C168.037 998.431 172.68 988.231 176.11 985.381C182.298 980.24 186.763 974.698 195.343 971.178C205.286 967.099 227.543 970.231 238.938 970.231C256.309 970.231 261.862 979.607 276.123 985.802C285.241 989.763 286.528 991.062 297.92 991.062C312.557 991.062 310.343 976.018 304.901 970.231C298.725 963.663 296.638 955.753 296.638 947.927C296.638 940.407 294.068 936.144 305.613 936.144C326.573 936.144 348.708 931.553 369.582 934.355C382.608 936.104 396.383 958.953 402.349 966.444C405.156 969.966 416.699 977.878 421.298 980.752C432.654 987.848 438.529 987.311 451.643 989.59C460.473 991.124 473.737 993.084 481.847 989.169C492.723 983.917 487.416 972.676 492.817 965.497C496.896 960.074 509.064 960.121 509.486 951.715C509.917 943.115 509.486 934.44 509.486 925.833C509.486 921.523 507.209 912.365 511.48 909.21C516.043 905.841 528.734 907.738 535.13 907.738C550.256 907.738 563.808 910.777 568.467 921.099C572.685 930.442 578.288 943.2 567.898 950.873C557.576 958.495 558.21 971.438 558.21 981.594C558.21 993.72 606.463 996.744 616.907 996.744C641.592 996.744 663.565 998.22 678.595 980.647C691.38 965.698 692.723 947.581 681.872 932.356C676.543 924.88 669.004 902.056 686.431 902.056C707.401 902.056 727.764 903.121 747.977 903.95C754.982 904.237 763.011 908.742 769.775 907.632C775.135 906.753 779.918 900.446 786.444 900.163C808.399 899.209 815.073 925.268 828.757 934.25C838.269 940.494 857.473 968.864 840.012 972.967C832.438 974.746 825.768 975.42 818.499 977.806C814.523 979.111 812.608 980.982 808.241 981.699C802.024 982.719 801.706 988.84 794.137 989.169C784.17 989.602 805.832 1000.09 800.406 993.798C796.479 989.241 794.985 976.485 788.438 974.44C764.218 966.873 696.689 979.555 696.689 950.347C696.689 936.838 724.607 947.568 736.437 940.773C745.45 935.597 761.277 936.144 772.482 936.144C784.745 936.144 796.734 934.026 808.384 932.461C823.045 930.493 837.732 919.342 837.732 907.738C837.732 892.948 840.297 878.666 840.297 864.181C840.297 853.134 840.297 842.088 840.297 831.041C840.297 821.911 841.228 820.031 830.894 814.944C822.702 810.911 811.729 804.731 801.83 803.687C795.421 803.01 780.626 798.867 776.329 795.165C774.181 793.315 770.224 791.537 767.353 790.325C765.116 789.381 765.715 785.867 763.934 784.223C758.854 779.534 781.133 780.856 783.879 780.856C797.969 780.856 812.304 777.803 824.91 773.281C850.909 763.956 860.812 745.567 860.812 724.991C860.812 713.779 857.24 713.41 842.291 708.894C830.667 705.382 819.191 702.202 808.099 698.478C797.118 694.792 780.947 698.217 771.2 702.266C763.164 705.604 759.493 712.96 751.966 716.048C735.915 722.633 721.532 728.016 712.645 713.102C707.686 704.78 693.147 700.633 688.426 691.219C685.315 685.017 683.613 678.411 681.16 672.071C680.428 670.178 678.738 685.188 678.738 688.063C678.738 692.453 686.517 700.454 690.42 704.16C702.402 715.536 722.359 721.057 735.155 731.619C744.609 739.422 742.848 750.299 742.848 760.025C742.848 765.742 745.446 775.593 742.279 780.856C740.145 784.401 735.395 787.911 731.309 790.325C724.326 794.451 738.22 790.408 740.854 788.852C748.326 784.438 788.772 787.439 796.702 789.904C811.975 794.653 836.517 785.506 850.555 781.803C859.465 779.453 864.12 775.152 874.204 772.861C883.007 770.86 894.232 770.45 903.41 771.493C918.106 773.162 933.102 774.636 948.003 772.229C952.234 771.546 983.905 765.307 983.905 767.6C983.905 780.139 980.008 795.911 974.217 807.79C970.36 815.702 957.984 819.855 948.573 823.992C937.379 828.912 927.886 832.793 917.372 838.616C911.963 841.612 903.125 850.358 899.849 854.713C893.785 862.772 883.49 868.282 872.637 872.598C865.416 875.469 859.352 878.408 851.694 879.436C838.287 881.237 837.888 880.613 843.431 888.8C853.429 903.566 858.973 918.842 881.328 927.096C891.553 930.871 902.367 934.276 913.525 936.565C925.538 939.029 933.259 949.672 945.581 951.189C957.236 952.623 966.485 958.338 973.647 948.348C980.577 938.681 980.038 929.875 981.483 919.205C982.894 908.782 990.856 881.544 978.206 874.071C974.314 871.771 959.688 873.65 954.414 873.65C943.842 873.65 941.898 879.083 934.611 883.119C925.539 888.143 919.794 891.502 919.794 900.163C919.794 905.13 920.001 910.382 915.805 914.366C903.7 925.858 894.578 940.64 886.457 954.134C882.219 961.176 879.398 987.113 887.739 991.904C892.959 994.902 893.717 998.458 900.988 1000.11C912.583 1002.74 933.696 1006.47 945.438 1003.37C977.222 994.989 1007.14 993.721 1032.63 975.912C1041.17 969.944 1053.18 968.338 1064.68 968.338C1076.91 968.338 1075.51 971.42 1084.49 976.754C1101.22 986.693 1113.32 993.741 1133.21 998.637C1145.51 1001.66 1159.23 1000.33 1171.96 1002C1177.4 1002.72 1185.05 1003.21 1190.2 1001.48C1198.89 998.56 1194.29 983.41 1197.32 977.806C1201.39 970.299 1201.82 961.643 1205.73 954.134C1210.43 945.113 1210.78 941.03 1221.11 935.092C1227.94 931.172 1246.46 930.463 1255.16 930.463C1284.36 930.463 1311.8 926.825 1330.1 947.296C1337.89 956.007 1342.92 966.034 1342.92 976.333C1342.92 986.743 1346.36 990.825 1355.75 998.743C1365.33 1006.83 1367.06 1010 1381.39 1010C1388.38 1010 1391.65 1002.42 1391.65 997.585C1391.65 989.379 1393.6 981.139 1385.1 974.86C1372.78 965.765 1366.23 953.21 1360.31 941.404C1353.32 927.47 1331.9 919.755 1322.98 905.844C1318.31 898.563 1317.05 888.572 1326.97 883.96C1332.06 881.592 1334.24 880.188 1338.37 877.017C1344.9 872 1350.08 873.905 1356.89 870.704C1370.71 864.208 1385.98 868.652 1395.64 857.448C1406.96 844.309 1401.91 824.419 1401.91 809.263C1401.91 801.047 1400.91 801.325 1410.88 799.689C1419.43 798.287 1427.55 795.04 1427.55 788.431C1427.55 784.283 1424.55 779.689 1423.28 775.596C1418.65 760.67 1414.1 743.677 1402.05 730.882C1394.26 722.619 1384.6 721.81 1371.7 722.15C1358.22 722.506 1346.76 732.856 1333.81 735.406C1320.41 738.044 1307.99 742.253 1294.2 744.454C1271.9 748.015 1272.79 737.23 1267.42 725.096C1260.84 710.237 1260.86 697.271 1260.86 681.645C1260.86 655.428 1311.65 646.4 1340.22 646.4C1355.08 646.4 1376.4 643.451 1388.51 650.609C1407.19 661.639 1406.15 687.726 1407.04 704.686C1407.81 719.546 1411.57 739.359 1385.38 742.876C1363.03 745.877 1368.53 709.129 1371.13 701.424C1379.1 677.885 1380.57 654.286 1390.37 631.145C1394.86 620.525 1392.07 607.756 1394.78 596.742C1398.06 583.417 1400.82 576.332 1380.25 576.332C1358.61 576.332 1324.97 580.984 1324.97 600.95C1324.97 610.193 1331.22 639.78 1317.28 644.927C1307.99 648.357 1312.04 629.499 1312.15 625.359C1312.27 620.924 1319.93 608.176 1323.69 604.843C1337.34 592.745 1351.86 586.088 1370.56 578.225C1378.51 574.885 1391.07 569.939 1391.65 562.234C1392.35 552.884 1391.65 544.752 1396.78 535.826C1403.31 524.45 1412.16 516.221 1412.16 503.212C1412.16 487.386 1415.39 469.497 1410.17 454.08C1407.7 446.795 1405.6 434.808 1394.21 432.407C1382.13 429.857 1379.19 422.882 1368.57 418.73C1358.66 414.857 1353.32 406.996 1342.92 403.159C1328.1 397.684 1310.79 398.319 1294.77 398.319C1272.04 398.319 1256.25 411.575 1232.65 411.575C1228.85 411.575 1215.39 410.016 1212.71 411.996C1205.87 417.043 1229.14 419.15 1231.51 419.15C1260.98 419.15 1290.58 421.044 1319.7 421.044C1326.85 421.044 1341.03 423.287 1346.77 419.992C1356.63 414.33 1364.72 408.866 1376.83 405.473C1399.08 399.242 1417.76 388.641 1419.72 369.913C1421.13 356.327 1417.54 344.983 1398.77 340.034C1388.37 337.29 1380.76 332.226 1371.13 328.671C1365.33 326.53 1352.71 328.251 1346.34 328.251C1325.54 328.251 1304.74 328.251 1283.94 328.251C1278.27 328.251 1271.34 326.613 1271.12 332.038C1270.99 335.317 1269.89 340.708 1272.55 343.506C1279.48 350.819 1274.12 360.066 1277.53 368.124C1281.65 377.864 1286.42 389.853 1283.94 400.213C1282.99 404.208 1236.54 409.708 1230.66 411.155C1188.04 421.647 1119.29 431.355 1092.61 396.32C1081.92 382.294 1076.22 367.197 1076.22 350.976C1076.22 342.938 1075.71 335.906 1082.78 329.197C1085.9 326.236 1092.27 324.813 1096.88 323.621C1111.54 319.833 1121.67 312.096 1135.78 307.419C1155.86 300.762 1174.34 304.334 1194.19 309.313C1206.48 312.397 1213.92 319.621 1223.96 324.568C1243.29 334.081 1273.5 352.263 1278.81 369.913C1279.71 372.88 1289.14 389.854 1296.2 384.642C1308.01 375.914 1309.59 364.824 1309.59 352.974C1309.59 338.137 1291.63 336.664 1280.81 328.671C1271.5 321.794 1262.28 315.021 1254.45 307.314C1244.88 297.888 1239.44 287.008 1232.8 276.383C1228.18 268.991 1222.72 261.73 1222.4 253.342C1221.57 231.927 1179.76 237.099 1163.41 243.453C1143.55 251.174 1129.37 254.746 1110.7 242.927C1092.39 231.338 1107.4 210.679 1121.24 202.316C1131.53 196.103 1126.13 194.669 1118.54 189.06C1103.71 178.108 1088.73 163.408 1068.53 157.813C1046.17 151.62 1025.32 155.919 1003.85 155.919C985.502 155.919 948.003 157.443 948.003 174.857C948.003 188.604 948.003 202.351 948.003 216.099C948.003 224.424 945.888 234.437 951.137 242.19C956.368 249.915 967.247 252.274 973.647 258.182C982.123 266.006 1020.53 266.551 1031.35 261.022C1044.43 254.333 1042.58 236.616 1038.33 226.409C1035.26 219.058 1035.7 217.736 1026.22 214.626C1014.41 210.751 998.595 212.732 985.899 212.732C971.051 212.732 957.136 209.499 942.874 208.944C932.94 208.558 929.297 204.371 919.794 203.368C896.914 200.955 885.025 216.519 864.516 216.519C828.873 216.519 824.91 196.954 824.91 174.857C824.91 160.326 831.578 144.547 850.555 137.403C859.628 133.987 881.588 129.527 891.585 134.141C911.761 143.453 930.052 156.131 930.052 174.436C930.052 188.201 935.722 206.367 915.235 212.311C894.435 218.346 835.569 238.918 827.332 213.574C824.314 204.288 819.781 197.258 819.781 187.377C819.781 181.676 817.279 176.824 814.652 171.49C807.979 157.938 805.294 139.004 816.077 126.356C822.144 119.24 831.501 94.3664 821.206 87.8497C807 78.8577 798.977 64.6428 783.879 55.9716C754.667 39.1929 741.804 71.5946 730.026 86.2716C724.158 93.5848 724.637 109.361 724.898 117.624C725.4 133.586 772.338 129.407 785.019 129.407C806.011 129.407 823.369 133.271 834.598 118.676C840.013 111.638 838.92 99.5649 839.727 91.7424C841.204 77.4247 840.297 62.8564 840.297 48.5018C840.297 39.7449 843.013 32.8258 856.823 32.8258C861.508 32.8258 864.389 41.6987 867.936 44.6091C874.365 49.8843 886.898 47.2466 894.007 50.9216C907.162 57.7217 937.582 55.5507 953.132 55.5507C968.003 55.5507 976.211 49.9586 976.211 38.9278C976.211 31.5877 974.559 23.8572 987.751 25.356C994.209 26.0896 999.245 30.0932 1005.7 30.8268C1012.76 31.6281 1019.05 30.8064 1024.94 34.7195C1038.37 43.6497 1046.14 59.5881 1047.73 72.4893C1049.14 83.9321 1053.38 105.04 1037.33 112.153C1019.77 119.932 989.2 127.975 968.518 122.884C945.756 117.281 933.98 98.2315 920.079 85.1143C905.488 71.3466 884.317 72.1481 861.952 72.5945C848.05 72.8719 844.049 85.6742 842.719 93.5309C840.371 107.399 832.387 117.485 848.56 128.986C860.195 137.26 878.793 135.088 893.295 135.088C922.947 135.088 953.088 136.446 982.48 133.615C1005.67 131.381 1032.99 128.242 1044.88 110.68C1053.41 98.0804 1053.23 83.4425 1065.82 72.5945C1077.8 62.2774 1088.34 53.2253 1105.57 46.9237C1121.03 41.2699 1148.44 31.0914 1167.12 32.931C1195.11 35.6872 1201.88 66.2916 1201.88 81.8528C1201.88 93.7396 1204.08 107.089 1192.76 116.782C1182.93 125.206 1161.86 134.526 1146.89 135.088C1124.64 135.924 1116.82 115.344 1108.99 103.315C1099.62 88.91 1089.05 77.9133 1089.05 61.232C1089.05 51.2143 1095.27 32.0889 1110.7 29.3539C1129.79 25.9701 1156.67 28.2317 1175.95 29.4591C1202.89 31.1742 1225.02 41.753 1237.21 59.7591C1244.54 70.5866 1244.68 86.3027 1242.91 98.2653C1241.19 109.911 1200.57 117.59 1188.92 122.042C1167.97 130.041 1149.44 140.073 1127.37 146.451C1119.18 148.818 1094.18 150.557 1094.18 159.286C1094.18 164.582 1103.24 168.977 1107 172.753C1115.49 181.282 1119.45 193.592 1132.64 199.16C1156.49 209.225 1181.86 203.007 1197.61 188.324C1212.56 174.381 1218.21 156.958 1223.82 139.928C1225.53 134.753 1237.17 115.465 1221.11 118.255C1202.29 121.526 1177.03 136.198 1171.68 149.817C1164.77 167.397 1178.57 180.514 1187.92 194.952C1196.45 208.122 1214.12 217.612 1229.8 225.883C1239.85 231.184 1253.01 241.138 1266.13 241.138C1276.28 241.138 1286.12 243.032 1296.34 243.032C1313.11 243.032 1353.87 248.852 1366.57 238.824C1375.94 231.43 1375.28 214.463 1373.13 205.157C1369.91 191.271 1350.04 177.04 1333.38 171.28C1322.11 167.386 1287.27 159.293 1278.81 169.702C1269.33 181.371 1266.15 194.936 1265.99 208.313C1265.79 225.33 1273.12 239.603 1276.25 256.288C1278.21 266.727 1278.51 277.658 1282.52 287.851C1289.36 305.252 1314.13 321.233 1339.22 312.68C1357.83 306.338 1372.3 292.139 1386.66 281.748C1404.8 268.625 1411.97 257.512 1412.16 238.824C1412.4 216.162 1407.81 194.466 1405.61 171.911C1403.5 150.259 1406.7 131.659 1386.24 114.573C1371.3 102.105 1350.93 94.5095 1334.66 83.2205C1325.05 76.556 1317 70.1509 1302.18 75.0143C1283.82 81.0399 1282.17 101.236 1281.52 113.731C1280.77 128.176 1284.14 141.023 1304.46 147.503C1363.39 166.296 1402.95 92.3871 1413.3 62.4945C1416.94 51.9882 1422.39 41.9016 1404.47 39.3487C1374.6 35.091 1343.51 27.4503 1313.29 25.6716C1292 24.4186 1251.59 17.8784 1248.18 39.2435C1245.72 54.6844 1280.87 64.6489 1297.62 60.8112C1307.44 58.561 1309.59 47.3827 1309.59 41.3476C1309.59 35.099 1292.61 36.6133 1286.51 36.6133" stroke="#EEFEFF" stroke-width="7" stroke-linecap="round" stroke-linejoin="round"/>
</svg>
