<svg width="1439" height="1010" viewBox="0 0 1439 1010" fill="none" xmlns="http://www.w3.org/2000/svg">
<rect width="1438.8" height="1010" fill="#D7FFD0" fill-opacity="0.5"/>
<path d="M1006.09 528.129C978.169 536.679 949.077 544.633 930.093 562.658C918.105 574.039 903.068 607.434 913.913 621.85C924.305 635.663 952.547 648.679 972.545 655.392C999.139 664.319 1023.4 670.093 1052.7 674.027C1065.65 675.765 1080.04 674.42 1091.59 670.628C1095.58 669.32 1102.08 666.244 1106.29 666.244C1113.33 666.244 1113.71 661.683 1118.31 659.886C1135.83 653.036 1110.87 621.823 1105.54 612.971C1101.05 605.506 1104.58 595.362 1097.53 588.856C1092.71 584.407 1086.88 573.855 1080.9 571.098C1074.39 568.09 1065.28 552.999 1064.87 547.86C1064.18 539.184 1057.72 534.561 1049.43 529.664C1043.2 525.978 1026.33 522.21 1018.11 522.21C1007.55 522.21 1010.46 507.43 1002.08 502.479C997.492 499.766 997.594 494.656 991.248 492.175C986.54 490.335 982.679 487.612 978.037 485.708C966.533 480.988 953.405 477.808 943.303 472.006C925.76 461.93 909.704 449.868 887.343 445.15C879.025 443.395 867.156 432.255 867.156 426.516C867.156 416.822 850.651 417.637 838.953 417.637C826.062 417.637 819.436 408.116 813.125 402.291C802.943 392.892 825.15 384.641 831.828 379.71C841.259 372.746 840.543 362.786 847.859 356.033C851.346 352.814 848.845 346.606 857.804 346.606C864.043 346.606 869.075 344.868 871.906 340.687C878.886 330.378 878.837 324.903 896.546 324.903C908.33 324.903 920.999 322.93 933.952 322.93C949.812 322.93 953.035 324.945 960.077 334.768C964.9 341.496 970.755 350.439 971.358 358.445C971.564 361.183 973.244 369.862 968.686 370.283C961.002 370.993 965.459 377.072 970.17 378.066C985.661 381.334 982.045 389.976 982.045 400.866C982.045 421.786 958.593 435.043 937.96 447.233C930.377 451.713 921.871 456.343 913.913 461.045C906.353 465.511 899.957 475.609 892.39 478.802C882.172 483.114 878.173 496.759 868.492 502.479C863.731 505.292 851.125 518.326 851.125 523.196C851.125 532.677 850.371 542.344 851.125 551.806C851.449 555.875 864.679 574.305 851.125 575.483C844.606 576.049 841.124 578.628 836.43 581.402C833.777 582.969 833.632 593.061 837.766 593.24C847.705 593.672 854.921 606.948 858.547 612.971C864.397 622.692 862.432 627.536 878.437 632.263C887.863 635.048 899.366 644.217 907.233 644.54C919.469 645.042 938.049 645.972 947.311 652.432C957.156 659.298 967.554 664.531 977.295 671.725C981.22 674.623 995.404 690.505 995.404 694.853C995.404 700.419 997.263 704.424 990.061 707.24C986.36 708.686 978.893 712.561 976.701 714.584C969.815 720.941 959.203 724.766 951.467 730.478C940.92 738.267 930.976 737.399 919.257 742.207C915.08 743.921 902.384 750.948 899.218 751.086C895.69 751.239 880.468 749.65 877.992 748.126C867.93 741.935 857.166 737.498 844.445 735.411C827.503 732.631 819.865 729.975 807.039 720.503C794.636 711.344 785.552 700.263 772.157 691.784C752.161 679.127 721.573 661.525 692.15 666.353C687.921 667.047 679.52 671.846 674.783 673.698C667.258 676.64 659.7 679.61 652.221 683.125C640.058 688.841 626.688 694.651 614.518 699.786C594.629 708.179 575.301 730.78 591.956 746.153C598.389 752.092 606.481 755.615 613.331 761.938C616.685 765.034 621.108 767.504 624.612 770.378C625.586 771.178 634.545 777.802 634.557 777.832C637.829 786.288 653.747 786.585 662.018 792.082C666.193 794.857 674.05 798.857 678.791 800.413C686.055 802.797 686.43 809.054 693.486 811.813C706.87 817.045 713.052 826.297 722.876 833.955C729.572 839.174 745.682 850.3 746.923 857.632C747.54 861.276 756.353 865.037 758.946 868.484C762.44 873.128 760.583 876.708 766.22 880.87C774.258 886.806 785.998 887.745 791.75 893.585C796.243 898.147 791.244 909.239 784.477 910.905C777.045 912.734 770.939 912.878 762.954 912.878C747.813 912.878 732.673 912.878 717.533 912.878C709.941 912.878 702.799 911.193 696.158 910.905C691.903 910.72 687.155 910.626 682.947 911.014C676.524 911.607 675.507 916.824 668.252 916.824C654.002 916.824 639.752 916.824 625.503 916.824C612.466 916.824 597.878 916.838 585.276 918.906C579.841 919.798 571.453 921.833 567.316 924.278C564.487 925.949 560.321 930.635 555.886 930.635C542.325 930.635 539.676 943.704 523.972 940.391C521.818 939.937 518.375 931.998 514.473 930.197C509.137 927.734 504.647 924.716 497.106 924.716C491.512 924.716 464.178 922.684 461.036 919.783C450.315 909.887 475.59 906.82 483.746 902.135C492.792 896.94 499.714 893.006 504.379 885.255C506.498 881.734 511.801 874.04 511.801 870.457C511.801 864.188 519.064 860.658 519.816 855.659C521.081 847.251 535.59 840.323 546.535 839.874C559.279 839.351 577.374 833.274 589.284 829.57C596.177 827.427 607.481 822.116 614.667 822.116C616.624 822.116 620.402 819.147 620.159 820.582C619.756 822.961 613.173 824.799 610.659 825.624C600.155 829.071 584.207 831.532 573.253 831.982C559.986 832.526 549.874 837.901 535.847 837.901C520.764 837.901 532.549 822.086 533.175 814.224C533.551 809.512 551.028 792.52 555.886 792.52C569.245 792.52 582.605 792.52 595.964 792.52C606.104 792.52 626.69 788.368 626.69 779.695C626.69 769.584 619.095 765.409 606.8 762.815C602.594 761.927 599.741 755.254 594.628 755.032C587.065 754.703 581.578 755.749 574.589 756.895C568.481 757.898 560.608 760.602 554.55 762.486C549.514 764.052 544.717 763.036 540.004 765.884C536.187 768.19 531.475 771.863 526.496 772.68C503.518 776.451 462.778 764.401 445.153 779.586C440.676 783.443 432.137 783.406 427.638 788.574C423.37 793.477 419.766 794.496 415.021 798.001C407.873 803.28 414.258 818.045 420.364 822.555C426.354 826.978 436 839.581 436.989 845.793C439.02 858.539 453.646 868.043 460.442 879.335C465.231 887.293 470.569 901.936 469.051 910.905C468.425 914.607 458.705 902.03 457.028 901.039C451.377 897.701 452.438 892.079 445.005 889.639C421.776 882.015 397.021 883.282 370.193 883.282C362.26 883.282 359.331 884.471 356.24 879.335C354.038 875.676 349.767 872.13 348.67 868.484C345.738 858.742 338.131 850.824 338.131 840.861C338.131 829.779 336.919 819.445 352.826 814.224C358.361 812.408 388.896 807.171 388.896 805.345C388.896 795.732 368.226 794.493 358.17 794.493C342.124 794.493 325.561 783.58 310.225 779.805C298.986 777.038 288.833 777.064 277.272 776.736C271.882 776.583 258.751 775.738 253.968 773.776C245.236 770.194 219.82 764.037 215.226 758.101C212.149 754.124 201.671 753.43 196.523 752.072C187.262 749.63 187.815 746.135 180.492 742.755C175.279 740.349 170.157 722.228 169.805 717.544C168.939 706.029 160.536 695.155 177.82 689.482C188.666 685.922 205.898 687.395 214.632 681.59C220.07 677.976 219.011 673.725 220.718 669.313C221.627 666.965 236.275 668.217 239.273 668.217C250.527 668.217 273.415 669.921 282.022 664.271C291.313 658.172 307.284 658.352 319.428 658.352C329.182 658.352 352.98 655.154 360.099 659.886C370.297 666.664 377.35 669.271 378.209 680.055C378.726 686.548 383.552 675.943 383.552 673.15C383.552 669.686 381.328 660.704 386.224 658.79C395.382 655.21 410.584 652.432 420.958 652.432C434.176 652.432 450.348 644.928 450.348 660.325C450.348 668.547 444.755 664.502 439.661 669.203C436.449 672.168 434.317 678.013 434.317 682.028C434.317 698.523 427.469 714.977 426.302 731.355C425.941 736.416 425.452 739.963 423.778 744.29C422.679 747.131 422.713 754.399 420.364 756.567C407.991 767.988 431.463 772.889 440.255 776.736C455.668 783.481 477.017 782.655 494.434 782.655C511.057 782.655 517.271 766.702 523.824 757.992C540.68 735.586 525.292 710.928 505.418 692.99C495.348 683.901 481.552 675.695 470.239 667.34C464.664 663.223 463.216 660.581 463.708 654.405C464.002 650.706 479.588 652.432 483.746 652.432C495.225 652.432 516.443 655.57 526.496 651.446C538.775 646.408 538.026 637.51 533.175 627.659C528.794 618.762 527.832 604.361 527.832 595.213C527.832 584.779 533.175 577.369 533.175 567.59C533.175 558.572 534.537 549 533.027 540.077C532.037 534.231 527.832 530.455 527.832 524.183C527.832 508.814 528.946 496.961 543.863 484.721C556.976 473.962 571.997 469.674 591.956 468.937C603.584 468.507 627.429 467.795 636.784 473.321C649.422 480.788 651.823 486.033 658.158 496.56C659.734 499.179 660.255 506.918 662.76 508.398C665.438 509.98 669.246 515.692 669.439 518.264C670.563 533.196 684.59 574.421 654.744 579.319C639.516 581.818 623.707 585.502 609.471 590.281C604.604 591.914 594.471 593.027 589.284 593.24C582.257 593.529 573.399 597.366 566.722 599.159C555.361 602.21 541.191 611.152 541.191 619.877C541.191 632.289 541.657 635.238 553.066 643.663C562.954 650.965 565.264 662.298 582.605 662.298C592.821 662.298 614.638 670.939 623.87 665.257C634.744 658.566 650.205 662.23 661.424 654.405C673.653 645.876 672.111 638.797 672.111 626.782C672.111 622.066 674.783 617.868 674.783 613.957C674.783 607.336 680.639 609.025 688.142 609.025C704.391 609.025 713.677 607.488 725.548 599.159C731.594 594.918 746.867 592.892 749.446 586.225C750.728 582.912 754.605 580.286 758.204 577.894C771.66 568.951 781.482 562.002 786.407 547.86C791.931 531.996 797.474 518.83 807.782 504.452C813.953 495.844 827.078 492.188 827.078 480.775C827.078 473.789 830.225 457.098 815.055 457.098C804.794 457.098 802.245 443.03 791.157 445.37C778.46 448.048 760.74 446.827 749.595 454.029C744.282 457.462 731.085 458.738 724.064 461.483C718.683 463.587 709.121 466.964 702.838 466.964C690.251 466.964 679.768 472.883 668.104 472.883C652.669 472.883 650.353 463.503 636.041 461.154C621.314 458.737 618.581 436.014 638.713 444.273C648.851 448.432 664.338 447.233 676.119 447.233C703.497 447.233 728.205 441.314 754.938 441.314C759.046 441.314 770.971 442.792 773.641 440.327C777.11 437.126 779.705 432 784.329 429.914C798.32 423.6 800.36 414.826 800.36 403.825C800.36 395.297 800.32 383.171 794.422 376.202C790.626 371.717 753.664 372.256 746.923 372.256C728.661 372.256 713.575 366.337 696.158 366.337C684.582 366.337 655.163 362.211 653.408 350.553C652.275 343.021 648.451 335.675 648.065 327.972C647.694 320.585 647.213 308.22 638.713 303.199C623.008 293.92 658.135 291.852 662.611 291.251C694.734 286.938 728.525 285.441 761.766 285.441C779.208 285.441 795.892 285.65 812.383 287.524C832.465 289.805 852.179 294.82 871.312 297.389C880.292 298.595 886.246 303.199 895.952 303.199C903.72 303.199 911.489 303.199 919.257 303.199C938.285 303.199 958.616 305.009 976.701 300.239C993.612 295.779 1011.44 291.993 1011.44 276.562C1011.44 268.741 1018.91 256.516 1030.73 255.845C1033.33 255.698 1047.58 252.075 1048.84 250.912C1049.27 250.513 1064.58 265.806 1069.03 267.684C1080.98 272.727 1084.66 285.887 1095.6 290.374C1104.19 293.899 1104.43 298.252 1104.95 305.172C1105.21 308.657 1108.12 311.104 1107.47 314.928C1106.86 318.568 1102.28 320.117 1102.28 323.916C1102.28 331.806 1078.26 335.959 1071.55 339.81C1061.34 345.675 1042.31 353.135 1028.8 347.593C1011.04 340.305 1015.49 322.197 1001.94 312.187C989.335 302.883 997.041 306.564 1005.5 313.503C1012.36 319.135 1018.16 324.321 1024.65 330.712C1033.61 339.538 1035.1 349.543 1040.83 359.322C1048.57 372.55 1044.62 388.529 1027.47 395.495C1015.78 400.242 1003.96 403.026 992.881 408.649C988.108 411.072 965.641 421.88 983.529 415.664C996.013 411.326 1008.28 409.745 1022.12 409.745C1036.18 409.745 1043 408.967 1052.85 417.527C1059.21 423.054 1067.91 428.651 1074.97 433.86C1081.38 438.598 1101.77 449.372 1088.92 453.591C1077.66 457.286 1055.26 453.513 1054.18 466.964C1053.3 478.118 1045.26 487.638 1030.14 491.627C1010.43 496.824 1003.42 495.007 1003.42 511.358C1003.42 518.102 1001.47 521.253 1010.84 523.744C1017.63 525.55 1019.11 528.109 1023.46 531.965C1027.9 535.9 1034.19 537.242 1037.56 541.94C1040.12 545.513 1048.03 550.225 1052.85 551.806C1071.76 558.014 1094.73 559.698 1115.79 559.698C1119.43 559.698 1125.61 560.585 1129 559.26C1133.35 557.556 1129.69 554.146 1132.26 552.244C1135.62 549.763 1148.93 550.954 1150.22 546.654C1154.65 531.936 1158.07 506.282 1143.54 493.6C1135.1 486.231 1122.99 480.375 1112.37 474.856C1105.68 471.378 1093.01 465.456 1088.92 460.168C1079.44 447.913 1103.46 449.206 1115.64 449.206C1131.72 449.206 1149 450.11 1164.32 453.591C1174.08 455.807 1183.4 454.413 1193.42 455.235C1206.44 456.304 1216.78 459.071 1230.53 459.071C1250.5 459.071 1282 454.491 1299.99 461.483C1322.22 470.121 1336.89 487.858 1350.76 502.917C1358.02 510.801 1365.21 515.114 1370.8 524.292C1374.51 530.389 1379.88 541.123 1380.15 547.86C1380.39 553.997 1382.19 560.625 1374.66 564.521C1366.41 568.783 1354.59 569.36 1346.01 573.51C1331.42 580.567 1321.03 588.318 1304 592.144C1290.91 595.086 1273.48 593.497 1259.92 593.24C1230.1 592.676 1204.55 577.324 1178.28 569.563C1166.89 566.199 1120.98 542.373 1120.98 562.767C1120.98 572.129 1128.33 576.479 1131.07 585.348C1134.1 595.118 1131.67 606.915 1131.67 616.917C1131.67 625.345 1118.75 627.166 1110.29 630.29C1101.09 633.687 1102.28 640.853 1102.28 647.5C1102.28 659.795 1107.62 656.842 1107.62 646.513C1107.62 642.507 1104.87 631.005 1109.11 627.879C1114.42 623.954 1135.1 624.403 1142.36 623.275C1156.82 621.027 1172.3 622.39 1186.59 619.877C1207.28 616.239 1243.63 615.782 1261.25 625.906C1278.77 635.968 1281.94 663.487 1267.93 675.123C1254.29 686.453 1257.24 701.028 1257.24 715.571C1257.24 725.03 1240.4 731.118 1230.23 735.411C1222.01 738.881 1205.06 748.833 1195.2 749.113C1184.78 749.409 1171.66 750.629 1162.25 746.921C1150.19 742.173 1141.21 731.474 1129.59 725.436C1093.76 706.816 1049.06 707.678 1006.09 707.678C966.714 707.678 933.952 739.875 933.952 767.309C933.952 789.561 948.99 799.606 977.889 804.797C993.638 807.626 1029.5 809.521 1034.89 794.493C1039.95 780.368 1006.55 766.87 1036.82 766.87C1044.97 766.87 1093.05 771.176 1094.11 767.638C1098.72 752.344 1075.47 750.839 1063.39 743.194C1055.26 738.049 1051.56 730.12 1048.84 722.586C1044.85 711.54 1050.89 712.236 1058.93 719.955C1068.54 729.174 1072.68 741.777 1083.58 750.976C1090.28 756.633 1099.32 766.507 1107.62 770.378C1116.74 774.632 1126.8 777.539 1135.82 781.778C1154.22 790.423 1182.32 788.574 1203.81 788.574C1244.24 788.574 1356.1 761.983 1356.1 814.115C1356.1 819.59 1358.36 830.981 1347.49 831.872C1315.23 834.52 1283.16 838.341 1250.42 837.901C1235.71 837.704 1220.74 833.474 1214.5 823.103C1211.88 818.76 1208.19 810.806 1201.73 816.636C1195.52 822.243 1194.04 830.064 1183.77 832.859C1164.36 838.139 1137.5 835.928 1117.12 835.928C1108.07 835.928 1083.37 832.324 1078.23 840.861C1073.76 848.291 1066.8 854.545 1059.53 860.482C1051.13 867.341 1038.61 879.036 1025.54 881.309C1019.38 882.379 983.043 887.253 982.045 893.147C981.214 898.055 976.701 901.976 976.701 907.835C976.701 912.805 976.701 917.774 976.701 922.743C976.701 934.464 992.092 945.82 1000.45 955.079C1010.5 966.208 1025.26 975.095 1032.81 987.416C1039.95 999.066 1055.12 1001.67 1070.81 1001.67C1093.48 1001.67 1112.34 995.563 1129 983.908C1145.92 972.07 1161.19 952.853 1185.7 948.831C1215.51 943.939 1248.78 941.679 1249.23 913.755C1249.3 909.52 1252.95 874.624 1247.74 873.526C1243.77 872.687 1233.37 888.005 1230.53 890.735C1222.83 898.12 1207.23 903.7 1196.83 909.041C1169.47 923.1 1143 924.899 1111.48 928.224C1092.39 930.238 1122.99 928.662 1129 928.662C1147.97 928.662 1161.42 922.88 1178.28 916.824C1213.26 904.256 1234.72 884.233 1219.25 855.22C1214.59 846.491 1178.7 817.772 1166.4 835.928" stroke="#D3FDD4" stroke-opacity="0.6" stroke-width="7" stroke-linecap="round" stroke-linejoin="round"/>
<path d="M1041.02 500.179C1013.1 508.729 984.003 516.683 965.019 534.708C953.031 546.09 937.994 579.484 948.839 593.9C959.231 607.713 987.473 620.729 1007.47 627.442C1034.06 636.369 1058.33 642.143 1087.63 646.077C1100.58 647.815 1114.96 646.47 1126.52 642.679C1130.5 641.37 1137.01 638.294 1141.21 638.294C1148.25 638.294 1148.64 633.733 1153.23 631.936C1170.76 625.087 1145.8 593.873 1140.47 585.021C1135.98 577.556 1139.5 567.412 1132.45 560.906C1127.63 556.457 1121.8 545.905 1115.83 543.148C1109.31 540.14 1100.21 525.049 1099.8 519.91C1099.11 511.235 1092.65 506.611 1084.36 501.714C1078.12 498.028 1061.25 494.26 1053.04 494.26C1042.47 494.26 1045.39 479.481 1037.01 474.529C1032.42 471.817 1032.52 466.707 1026.17 464.225C1021.47 462.385 1017.61 459.663 1012.96 457.758C1001.46 453.038 988.331 449.859 978.229 444.056C960.686 433.98 944.63 421.919 922.269 417.201C913.951 415.446 902.082 404.305 902.082 398.566C902.082 388.872 885.577 389.687 873.879 389.687C860.987 389.687 854.362 380.166 848.051 374.341C837.869 364.942 860.076 356.692 866.754 351.76C876.185 344.796 875.469 334.837 882.785 328.084C886.272 324.865 883.771 318.657 892.73 318.657C898.969 318.657 904.001 316.919 906.832 312.737C913.812 302.428 913.763 296.953 931.472 296.953C943.256 296.953 955.925 294.98 968.878 294.98C984.738 294.98 987.961 296.996 995.003 306.818C999.826 313.546 1005.68 322.49 1006.28 330.495C1006.49 333.233 1008.17 341.913 1003.61 342.334C995.928 343.043 1000.39 349.122 1005.1 350.116C1020.59 353.385 1016.97 362.027 1016.97 372.916C1016.97 393.836 993.519 407.093 972.886 419.283C965.303 423.763 956.797 428.393 948.839 433.095C941.279 437.561 934.883 447.659 927.316 450.852C917.098 455.164 913.099 468.81 903.418 474.529C898.657 477.342 886.051 490.376 886.051 495.247C886.051 504.727 885.297 514.394 886.051 523.856C886.375 527.925 899.605 546.355 886.051 547.533C879.532 548.099 876.05 550.679 871.356 553.452C868.703 555.019 868.558 565.111 872.691 565.291C882.631 565.722 889.847 578.998 893.473 585.021C899.323 594.742 897.358 599.586 913.363 604.313C922.789 607.098 934.292 616.268 942.159 616.59C954.395 617.092 972.975 618.023 982.237 624.483C992.082 631.349 1002.48 636.581 1012.22 643.775C1016.15 646.673 1030.33 662.555 1030.33 666.904C1030.33 672.47 1032.19 676.474 1024.99 679.29C1021.29 680.737 1013.82 684.611 1011.63 686.634C1004.74 692.991 994.129 696.816 986.393 702.529C975.846 710.317 965.901 709.45 954.183 714.257C950.006 715.971 937.31 722.999 934.144 723.136C930.616 723.289 915.394 721.7 912.918 720.177C902.856 713.985 892.092 709.549 879.371 707.461C862.428 704.681 854.791 702.025 841.965 692.554C829.562 683.394 820.477 672.313 807.083 663.834C787.087 651.177 756.499 633.575 727.076 638.404C722.847 639.098 714.446 643.896 709.709 645.748C702.184 648.69 694.626 651.66 687.147 655.175C674.984 660.891 661.614 666.701 649.444 671.836C629.555 680.229 610.227 702.83 626.882 718.204C633.315 724.142 641.407 727.665 648.257 733.988C651.611 737.084 656.034 739.554 659.538 742.428C660.512 743.228 669.471 749.852 669.483 749.882C672.755 758.338 688.673 758.636 696.944 764.132C701.118 766.907 708.976 770.907 713.717 772.463C720.981 774.847 721.356 781.104 728.412 783.863C741.796 789.095 747.978 798.347 757.802 806.005C764.498 811.225 780.608 822.35 781.849 829.682C782.466 833.327 791.279 837.087 793.872 840.534C797.366 845.178 795.509 848.758 801.146 852.92C809.184 858.857 820.924 859.795 826.676 865.636C831.169 870.197 826.17 881.289 819.403 882.955C811.971 884.784 805.865 884.928 797.88 884.928C782.739 884.928 767.599 884.928 752.459 884.928C744.867 884.928 737.725 883.243 731.084 882.955C726.829 882.77 722.081 882.676 717.873 883.065C711.45 883.657 710.433 888.874 703.178 888.874C688.928 888.874 674.678 888.874 660.428 888.874C647.392 888.874 632.804 888.889 620.202 890.957C614.767 891.849 606.379 893.884 602.242 896.328C599.413 897.999 595.247 902.686 590.812 902.686C577.251 902.686 574.602 915.755 558.898 912.441C556.744 911.987 553.301 904.048 549.399 902.247C544.063 899.785 539.573 896.766 532.032 896.766C526.438 896.766 499.104 894.734 495.962 891.834C485.241 881.937 510.516 878.87 518.672 874.186C527.718 868.99 534.64 865.057 539.305 857.305C541.424 853.785 546.727 846.09 546.727 842.507C546.727 836.239 553.99 832.708 554.742 827.709C556.007 819.301 570.516 812.373 581.461 811.924C594.205 811.401 612.3 805.324 624.21 801.621C631.103 799.477 642.407 794.167 649.593 794.167C651.55 794.167 655.328 791.198 655.085 792.632C654.682 795.011 648.099 796.849 645.585 797.674C635.081 801.122 619.133 803.583 608.179 804.032C594.912 804.576 584.8 809.951 570.773 809.951C555.69 809.951 567.475 794.137 568.101 786.274C568.477 781.563 585.954 764.571 590.812 764.571C604.171 764.571 617.531 764.571 630.89 764.571C641.03 764.571 661.616 760.418 661.616 751.746C661.616 741.635 654.021 737.459 641.726 734.865C637.52 733.978 634.667 727.304 629.554 727.082C621.991 726.754 616.504 727.799 609.515 728.946C603.407 729.948 595.534 732.653 589.476 734.536C584.44 736.102 579.642 735.087 574.929 737.934C571.113 740.24 566.401 743.913 561.422 744.73C538.444 748.501 497.704 736.451 480.079 751.636C475.602 755.493 467.063 755.456 462.564 760.625C458.296 765.527 454.692 766.547 449.947 770.051C442.798 775.33 449.184 790.096 455.29 794.605C461.28 799.028 470.925 811.632 471.915 817.844C473.946 830.589 488.572 840.093 495.368 851.386C500.157 859.344 505.495 873.986 503.977 882.955C503.351 886.657 493.631 874.08 491.954 873.09C486.303 869.751 487.363 864.129 479.931 861.69C456.702 854.066 431.947 855.332 405.119 855.332C397.186 855.332 394.257 856.521 391.166 851.386C388.964 847.726 384.693 844.181 383.596 840.534C380.664 830.792 373.057 822.874 373.057 812.911C373.057 801.829 371.845 791.495 387.752 786.274C393.287 784.458 423.822 779.222 423.822 777.396C423.822 767.782 403.152 766.544 393.096 766.544C377.05 766.544 360.487 755.63 345.151 751.855C333.912 749.089 323.759 749.114 312.198 748.786C306.808 748.633 293.677 747.789 288.894 745.827C280.162 742.244 254.746 736.088 250.152 730.152C247.075 726.175 236.597 725.48 231.449 724.123C222.188 721.68 222.741 718.185 215.418 714.805C210.205 712.399 205.083 694.278 204.731 689.594C203.865 678.08 195.462 667.205 212.746 661.533C223.592 657.973 240.824 659.445 249.558 653.64C254.996 650.026 253.937 645.775 255.644 641.363C256.553 639.016 271.201 640.267 274.199 640.267C285.453 640.267 308.341 641.971 316.948 636.321C326.239 630.222 342.21 630.402 354.354 630.402C364.108 630.402 387.906 627.205 395.025 631.936C405.223 638.714 412.275 641.321 413.135 652.106C413.652 658.598 418.478 647.993 418.478 645.2C418.478 641.736 416.254 632.754 421.15 630.84C430.308 627.26 445.51 624.483 455.884 624.483C469.102 624.483 485.274 616.979 485.274 632.375C485.274 640.598 479.681 636.552 474.587 641.254C471.375 644.219 469.243 650.063 469.243 654.079C469.243 670.573 462.395 687.027 461.228 703.405C460.867 708.466 460.378 712.013 458.704 716.34C457.605 719.181 457.639 726.449 455.29 728.617C442.917 740.039 466.389 744.939 475.181 748.786C490.594 755.531 511.943 754.705 529.36 754.705C545.982 754.705 552.197 738.752 558.75 730.042C575.606 707.637 560.218 682.978 540.344 665.04C530.274 655.951 516.478 647.745 505.165 639.39C499.59 635.273 498.142 632.631 498.634 626.456C498.928 622.757 514.514 624.483 518.672 624.483C530.151 624.483 551.369 627.621 561.422 623.496C573.701 618.458 572.952 609.561 568.101 599.71C563.72 590.812 562.758 576.411 562.758 567.264C562.758 556.829 568.101 549.419 568.101 539.641C568.101 530.623 569.463 521.051 567.953 512.127C566.963 506.281 562.758 502.505 562.758 496.233C562.758 480.864 563.872 469.011 578.789 456.772C591.902 446.012 606.923 441.724 626.882 440.987C638.51 440.558 662.355 439.845 671.71 445.372C684.348 452.838 686.749 458.083 693.084 468.61C694.66 471.229 695.181 478.969 697.686 480.449C700.364 482.031 704.172 487.742 704.365 490.314C705.489 505.247 719.516 546.472 689.67 551.369C674.442 553.868 658.633 557.553 644.397 562.331C639.53 563.965 629.397 565.078 624.21 565.291C617.183 565.579 608.325 569.417 601.648 571.21C590.287 574.26 576.117 583.203 576.117 591.927C576.117 604.339 576.583 607.288 587.992 615.713C597.88 623.016 600.19 634.348 617.531 634.348C627.747 634.348 649.564 642.989 658.796 637.308C669.67 630.616 685.131 634.28 696.35 626.456C708.579 617.926 707.037 610.848 707.037 598.833C707.037 594.117 709.709 589.919 709.709 586.008C709.709 579.386 715.565 581.075 723.068 581.075C739.317 581.075 748.603 579.538 760.474 571.21C766.52 566.968 781.793 564.942 784.372 558.275C785.654 554.962 789.531 552.336 793.13 549.944C806.586 541.001 816.408 534.052 821.333 519.91C826.857 504.047 832.4 490.88 842.708 476.502C848.879 467.894 862.004 464.238 862.004 452.825C862.004 445.839 865.151 429.149 849.981 429.149C839.72 429.149 837.171 415.08 826.083 417.42C813.386 420.099 795.666 418.878 784.521 426.079C779.208 429.513 766.011 430.788 758.99 433.533C753.609 435.637 744.047 439.014 737.763 439.014C725.177 439.014 714.694 444.933 703.029 444.933C687.595 444.933 685.279 435.553 670.967 433.204C656.24 430.788 653.507 408.064 673.639 416.324C683.777 420.483 699.264 419.283 711.045 419.283C738.423 419.283 763.131 413.364 789.864 413.364C793.972 413.364 805.897 414.842 808.567 412.378C812.036 409.176 814.631 404.051 819.255 401.964C833.246 395.65 835.286 386.876 835.286 375.876C835.286 367.347 835.246 355.221 829.348 348.253C825.552 343.768 788.59 344.307 781.849 344.307C763.587 344.307 748.501 338.387 731.084 338.387C719.508 338.387 690.088 334.261 688.334 322.603C687.201 315.071 683.377 307.725 682.991 300.022C682.62 292.635 682.139 280.27 673.639 275.249C657.934 265.971 693.061 263.902 697.537 263.301C729.66 258.988 763.451 257.492 796.692 257.492C814.134 257.492 830.818 257.701 847.309 259.574C867.391 261.856 887.105 266.871 906.238 269.44C915.218 270.645 921.172 275.249 930.878 275.249C938.646 275.249 946.415 275.249 954.183 275.249C973.211 275.249 993.541 277.059 1011.63 272.29C1028.54 267.829 1046.36 264.043 1046.36 248.613C1046.36 240.792 1053.84 228.567 1065.66 227.895C1068.25 227.748 1082.51 224.125 1083.77 222.963C1084.2 222.563 1099.5 237.856 1103.95 239.734C1115.91 244.778 1119.59 257.938 1130.52 262.424C1139.12 265.949 1139.36 270.303 1139.88 277.222C1140.14 280.708 1143.05 283.154 1142.4 286.978C1141.78 290.618 1137.2 292.167 1137.2 295.966C1137.2 303.856 1113.18 308.009 1106.48 311.861C1096.27 317.726 1077.24 325.186 1063.73 319.643C1045.97 312.356 1050.42 294.247 1036.86 284.238C1024.26 274.933 1031.97 278.614 1040.42 285.553C1047.29 291.185 1053.08 296.371 1059.57 302.763C1068.54 311.588 1070.03 321.594 1075.75 331.372C1083.5 344.6 1079.54 360.579 1062.39 367.545C1050.7 372.293 1038.88 375.076 1027.81 380.699C1023.03 383.122 1000.57 393.931 1018.46 387.714C1030.94 383.376 1043.2 381.795 1057.05 381.795C1071.11 381.795 1077.92 381.017 1087.77 389.578C1094.14 395.104 1102.84 400.702 1109.89 405.91C1116.31 410.648 1136.7 421.422 1123.84 425.641C1112.59 429.336 1090.18 425.563 1089.11 439.014C1088.22 450.168 1080.19 459.688 1065.06 463.677C1045.36 468.875 1038.35 467.057 1038.35 483.408C1038.35 490.152 1036.4 493.303 1045.77 495.795C1052.56 497.6 1054.03 500.159 1058.38 504.016C1062.82 507.951 1069.12 509.292 1072.49 513.991C1075.05 517.563 1082.96 522.275 1087.77 523.856C1106.69 530.064 1129.66 531.748 1150.71 531.748C1154.36 531.748 1160.53 532.636 1163.92 531.31C1168.28 529.607 1164.61 526.196 1167.19 524.295C1170.55 521.814 1183.85 523.005 1185.15 518.704C1189.58 503.986 1193 478.332 1178.47 465.65C1170.02 458.281 1157.92 452.425 1147.3 446.906C1140.61 443.429 1127.94 437.507 1123.84 432.218C1114.36 419.963 1138.38 421.256 1150.56 421.256C1166.65 421.256 1183.93 422.16 1199.25 425.641C1209 427.857 1218.32 426.463 1228.34 427.285C1241.37 428.354 1251.7 431.122 1265.45 431.122C1285.43 431.122 1316.93 426.541 1334.92 433.533C1357.15 442.172 1371.82 459.908 1385.69 474.968C1392.95 482.852 1400.13 487.164 1405.72 496.343C1409.44 502.44 1414.81 513.174 1415.08 519.91C1415.32 526.048 1417.12 532.676 1409.58 536.571C1401.34 540.833 1389.51 541.411 1380.94 545.56C1366.35 552.618 1355.95 560.368 1338.93 564.194C1325.84 567.137 1308.4 565.547 1294.84 565.291C1265.03 564.726 1239.48 549.374 1213.2 541.614C1201.81 538.249 1155.91 514.423 1155.91 534.818C1155.91 544.18 1163.26 548.529 1166 557.398C1169.02 567.168 1166.59 578.966 1166.59 588.967C1166.59 597.395 1153.68 599.217 1145.22 602.34C1136.02 605.737 1137.2 612.904 1137.2 619.55C1137.2 631.845 1142.55 628.892 1142.55 618.563C1142.55 614.558 1139.8 603.055 1144.03 599.929C1149.35 596.005 1170.02 596.454 1177.28 595.325C1191.74 593.077 1207.22 594.44 1221.52 591.927C1242.21 588.289 1278.55 587.832 1296.18 597.956C1313.7 608.018 1316.86 635.537 1302.86 647.173C1289.22 658.503 1292.17 673.078 1292.17 687.621C1292.17 697.08 1275.33 703.169 1265.16 707.461C1256.93 710.931 1239.99 720.883 1230.12 721.163C1219.7 721.459 1206.59 722.679 1197.17 718.971C1185.12 714.223 1176.14 703.524 1164.52 697.486C1128.68 678.866 1083.98 679.729 1041.02 679.729C1001.64 679.729 968.878 711.925 968.878 739.359C968.878 761.611 983.916 771.657 1012.81 776.848C1028.56 779.676 1064.43 781.571 1069.81 766.544C1074.88 752.418 1041.48 738.921 1071.74 738.921C1079.9 738.921 1127.98 743.226 1129.04 739.688C1133.64 724.394 1110.39 722.89 1098.31 715.244C1090.19 710.099 1086.49 702.171 1083.77 694.636C1079.78 683.591 1085.82 684.287 1093.86 692.006C1103.46 701.224 1107.6 713.828 1118.5 723.027C1125.2 728.683 1134.25 738.557 1142.55 742.428C1151.67 746.682 1161.73 749.59 1170.75 753.828C1189.15 762.474 1217.24 760.625 1238.73 760.625C1279.16 760.625 1391.03 734.033 1391.03 786.165C1391.03 791.64 1393.29 803.031 1382.42 803.922C1350.15 806.57 1318.09 810.391 1285.34 809.951C1270.64 809.754 1255.66 805.524 1249.42 795.153C1246.81 790.811 1243.11 782.857 1236.66 788.686C1230.44 794.294 1228.97 802.114 1218.7 804.909C1199.29 810.19 1172.43 807.978 1152.05 807.978C1142.99 807.978 1118.3 804.374 1113.16 812.911C1108.69 820.341 1101.73 826.596 1094.45 832.532C1086.05 839.391 1073.54 851.087 1060.46 853.359C1054.3 854.429 1017.97 859.303 1016.97 865.197C1016.14 870.106 1011.63 874.026 1011.63 879.886C1011.63 884.855 1011.63 889.824 1011.63 894.793C1011.63 906.515 1027.02 917.871 1035.38 927.13C1045.42 938.259 1060.19 947.145 1067.74 959.466C1074.87 971.116 1090.05 973.716 1105.74 973.716C1128.4 973.716 1147.26 967.614 1163.92 955.959C1180.84 944.12 1196.12 924.903 1220.62 920.882C1250.44 915.99 1283.71 913.73 1284.16 885.805C1284.22 881.57 1287.88 846.675 1282.67 845.576C1278.69 844.737 1268.3 860.055 1265.45 862.786C1257.76 870.17 1242.15 875.75 1231.76 881.091C1204.39 895.15 1177.92 896.949 1146.41 900.274C1127.31 902.289 1157.92 900.713 1163.92 900.713C1182.9 900.713 1196.35 894.93 1213.2 888.874C1248.18 876.307 1269.65 856.283 1254.17 827.27C1249.51 818.542 1213.62 789.822 1201.33 807.978" stroke="#F8FFF9" stroke-width="7" stroke-linecap="round" stroke-linejoin="round"/>
<path d="M111.135 322.267C89.7721 327.593 69.9364 329.501 57.2818 343.519C48.6924 353.033 44.4597 361.51 44.4597 373.503C44.4597 403.862 51.947 432.221 78.937 455.776C85.5771 461.571 89.7897 475.66 102.159 475.66C113.076 475.66 115.588 463.059 118.258 457.144C128.406 434.661 141.908 409.007 141.908 385.181C141.908 374.025 145.57 362.035 125.239 362.035C104.05 362.035 97.6792 362.848 81.7863 372.451C67.0007 381.384 51.0611 391.002 42.4651 403.698C41.1881 405.584 41.8352 418.549 40.613 416.744C36.5641 410.764 29.4555 405.498 29.0731 398.437C28.7109 391.751 32.333 392.317 39.3308 390.021C47.7195 387.267 55.3591 378.605 63.6929 374.345C69.8375 371.203 76.7752 369.256 82.7836 365.928C89.9987 361.932 100.832 362.771 109.14 359.089C124.123 352.451 145.513 352.567 162.281 352.567C180.692 352.567 182.939 359.044 182.939 371.504C182.939 386.857 185.503 401.296 185.503 416.533C185.503 430.382 184.054 444.595 188.068 458.196C189.911 464.44 197.373 488.916 210.008 488.916C228.874 488.916 242.108 490.757 260.441 485.55C271.881 482.301 273.433 472.097 279.247 465.35C290.88 451.851 289.748 435.851 297.056 420.741C305.538 403.204 288.619 403.698 271.412 403.698C263.587 403.698 249.765 401.599 243.06 404.75C235.956 408.088 231.59 412.138 223.97 414.639C211.489 418.736 194.533 420.019 184.933 427.896C168.735 441.187 203.454 457.801 203.454 472.82C203.454 479.314 198.325 484.628 198.325 491.231C198.325 498.244 194.711 510.214 189.492 516.271C174.734 533.397 130.569 526.791 106.006 526.791C90.4251 526.791 91.5179 528.383 82.9261 537.733C73.962 547.488 67.5395 556.223 67.5395 568.454C67.5395 584.934 70.1091 591.179 93.3263 591.179C121.169 591.179 149.628 593.073 177.81 593.073C196.491 593.073 205.796 592.331 216.846 582.131C228.411 571.456 219.115 553.781 216.419 541.836C215.286 536.818 213.563 532.385 208.013 529.106C204.763 527.186 186.235 525.37 185.646 523.846C180.795 511.309 217.91 515.429 226.534 515.429C235.364 515.429 239.908 514.143 244.485 520.058C248.546 525.306 256.341 525.842 261.866 529.106C269.158 533.414 293.758 530.977 303.467 530.579C307.556 530.411 307.982 527.613 311.16 526.371C313.531 525.444 320.019 525.447 321.275 524.056C322.244 522.983 319.317 526.791 317.571 526.791C311.825 526.791 306.079 526.791 300.333 526.791C260.572 526.791 222.309 526.327 184.221 532.578C171.195 534.716 187.341 541.84 189.35 542.993C196.739 547.238 201.229 548.618 205.449 555.198C212.146 565.639 216.276 579.715 216.276 591.179C216.276 604.538 196.476 602.248 184.221 607.276C174.959 611.076 157.834 620.022 148.319 621.584C128.613 624.818 113.552 649.443 100.877 659.354C87.8298 669.556 78.639 684.688 73.2382 697.65C66.8617 712.953 62.8356 736.989 67.682 753.094C69.2873 758.429 74.5705 760.639 77.2274 765.404C79.7763 769.975 64.8846 761.76 63.5504 760.775C51.8024 752.099 39.3308 757.383 39.3308 742.679C39.3308 730.019 38.6704 717.904 39.3308 705.225C40.5615 681.595 77.4058 653.436 104.581 679.238C114.087 688.264 119.91 702.1 127.946 712.274C137.649 724.557 169.242 726.066 185.788 727.424C211.58 729.54 234.546 727.437 244.485 708.17C250.184 697.123 247.99 680.625 247.049 668.823C246.293 659.324 224.352 659.204 221.263 648.938C217.507 636.457 200.758 627.273 189.207 618.743C174.97 608.23 163.191 619.585 147.037 619.585C137.961 619.585 132.37 620.25 126.521 614.851C123.231 611.813 113.642 608.639 108.57 608.223C94.0657 607.032 76.7984 603.718 77.7972 591.179C78.1411 586.861 90.6194 589.365 90.6194 594.019C90.6194 602.655 92.9899 602.722 100.877 608.223C111.663 615.745 124.024 622.276 135.497 629.054C146.146 635.345 163.235 632.841 176.528 632.841C186.852 632.841 194.489 640.549 203.454 643.257C213.428 646.27 224.189 651.481 232.518 656.513C235.858 658.531 235.561 662.863 239.356 664.614C249.133 669.127 252.178 687.545 252.178 695.335C252.178 705.795 252.476 716.232 263.718 722.689C268.778 725.596 273.171 729.863 277.253 733.631C279.592 735.79 287.198 744.954 287.938 747.413C294.866 770.437 321.247 803.272 286.798 823.058C256.403 840.516 271.354 875.425 291.215 893.758C301.164 902.942 311.441 903.648 327.971 903.648C347.718 903.648 367.696 899.275 386.098 894.179C400.047 890.316 400.915 890.123 400.915 879.871C400.915 867.187 403.48 853.916 403.48 840.733C403.48 833.954 401.24 828.606 409.891 825.057C413.125 823.73 430.997 823.945 423.425 816.956C412.478 806.85 399.526 796.504 395.644 783.605C392.794 774.133 365.417 774.536 357.177 779.607C353.999 781.563 349.21 779.927 345.638 781.606C341.493 783.554 339.049 786.045 335.522 788.129C329.526 791.671 323.228 798.402 316.289 800.964C310.039 803.272 304.32 803.279 297.056 803.279C285.164 803.279 293.296 812.483 290.075 818.429C277.755 841.173 228.069 835.473 199.608 835.473C185.464 835.473 168.613 832.773 160.429 843.048C153.94 851.194 144.472 864.077 144.472 873.348C144.472 884.97 141.057 896.121 141.908 907.435C142.368 913.545 147.588 918.283 150.883 923.637C156.081 932.082 156.179 933.948 142.478 933.948C126.922 933.948 111.774 932.054 95.7482 932.054C90.033 932.054 79.5197 932.831 75.8027 936.262C71.6529 940.093 75.2966 944.537 68.8217 948.256C64.2714 950.869 58.1665 952.542 54.7174 955.726C47.7043 962.199 47.0241 949.102 47.0241 944.889C47.0241 934.166 45.5957 915.49 51.5831 905.541C54.5726 900.574 49.5885 892.168 49.5885 886.604C49.5885 881.019 47.0241 875.643 47.0241 870.507C47.0241 858.455 82.4166 854.41 94.466 854.41C112.501 854.41 125.485 841.154 143.19 841.154C150.206 841.154 155.407 837.671 162.423 837.366C171.679 836.964 158.993 825.125 153.448 824.215C138.981 821.841 144.11 807.2 149.031 801.385C152.962 796.741 158.457 792.741 163.563 788.97C168.236 785.52 168.167 779.058 170.687 774.872C175.689 766.561 172.072 751.338 166.27 743.626C159.32 734.388 136.092 738.891 122.532 738.891C115.328 738.891 97.6717 736.629 91.9016 739.943C84.1859 744.375 86.3639 750.016 82.3562 755.935C75.7827 765.644 73.2941 780.297 59.8462 785.814C50.8888 789.489 30.9495 800.323 31.6375 808.96C32.0447 814.071 46.0947 818.47 50.7283 821.269C55.5486 824.182 64.6666 835.387 64.9751 839.26C65.8494 850.237 88.3215 860.54 95.6058 870.402C108.014 887.201 119.547 901.245 126.664 919.639C128.591 924.621 135.522 929.152 136.637 935.736C137.519 940.95 140.011 950.643 145.042 954.358C153.524 960.622 176.593 962.964 190.632 962.354C195.381 962.147 200.024 951.947 203.454 949.098C209.643 943.956 214.108 938.414 222.687 934.894C232.63 930.815 254.888 933.948 266.283 933.948C283.654 933.948 289.206 943.324 303.467 949.518C312.585 953.479 313.873 954.779 325.265 954.779C339.902 954.779 337.687 939.734 332.245 933.948C326.069 927.379 323.982 919.469 323.982 911.643C323.982 904.124 321.412 899.86 332.958 899.86C353.918 899.86 376.053 895.269 396.926 898.072C409.953 899.821 423.727 922.67 429.694 930.16C432.5 933.683 444.043 941.595 448.642 944.468C459.998 951.564 465.874 951.027 478.988 953.306C487.817 954.84 501.082 956.801 509.191 952.885C520.068 947.633 514.76 936.392 520.161 929.213C524.241 923.791 536.408 923.837 536.83 915.431C537.261 906.831 536.83 898.156 536.83 889.55C536.83 885.24 534.553 876.081 538.824 872.927C543.387 869.557 556.078 871.454 562.474 871.454C577.601 871.454 591.152 874.493 595.812 884.815C600.029 894.159 605.633 906.916 595.242 914.589C584.921 922.211 585.554 935.154 585.554 945.31C585.554 957.436 633.807 960.46 644.251 960.46C668.937 960.46 690.91 961.937 705.94 944.363C718.725 929.414 720.068 911.298 709.216 896.073C703.888 888.596 696.348 865.773 713.775 865.773C734.746 865.773 755.109 866.837 775.322 867.666C782.326 867.954 790.356 872.459 797.119 871.349C802.479 870.469 807.262 864.162 813.788 863.879C835.744 862.925 842.417 888.984 856.101 897.966C865.613 904.21 884.817 932.58 867.356 936.683C859.782 938.463 853.113 939.137 845.843 941.522C841.868 942.827 839.952 944.699 835.586 945.415C829.368 946.436 829.05 952.556 821.481 952.885C811.514 953.318 833.176 963.811 827.75 957.514C823.823 952.958 822.329 940.201 815.783 938.156C791.563 930.589 724.033 943.271 724.033 914.063C724.033 900.554 751.951 911.284 763.782 904.489C772.794 899.313 788.621 899.86 799.826 899.86C812.089 899.86 824.078 897.742 835.728 896.178C850.39 894.209 865.077 883.058 865.077 871.454C865.077 856.664 867.641 842.382 867.641 827.898C867.641 816.851 867.641 805.804 867.641 794.757C867.641 785.627 868.572 783.748 858.238 778.66C850.047 774.627 839.073 768.447 829.175 767.403C822.766 766.727 807.97 762.583 803.673 758.881C801.526 757.031 797.569 755.253 794.697 754.041C792.46 753.097 793.059 749.583 791.278 747.939C786.198 743.25 808.478 744.572 811.224 744.572C825.314 744.572 839.648 741.519 852.255 736.997C878.253 727.672 888.157 709.283 888.157 688.707C888.157 677.495 884.584 677.126 869.636 672.61C858.012 669.098 846.535 665.918 835.443 662.194C824.462 658.508 808.291 661.933 798.544 665.982C790.509 669.32 786.838 676.676 779.311 679.764C763.259 686.349 748.876 691.733 739.99 676.818C735.031 668.496 720.491 664.349 715.77 654.935C712.659 648.733 710.957 642.127 708.504 635.787C707.772 633.895 706.082 648.904 706.082 651.779C706.082 656.169 713.861 664.17 717.765 667.876C729.746 679.252 749.703 684.773 762.5 695.335C771.954 703.138 770.193 714.015 770.193 723.741C770.193 729.458 772.791 739.309 769.623 744.572C767.489 748.117 762.739 751.627 758.653 754.041C751.67 758.167 765.564 754.125 768.198 752.568C775.67 748.154 816.117 751.155 824.046 753.62C839.319 758.369 863.861 749.222 877.899 745.519C886.81 743.169 891.464 738.868 901.549 736.577C910.351 734.577 921.576 734.166 930.755 735.209C945.45 736.879 960.446 738.352 975.347 735.945C979.578 735.262 1011.25 729.023 1011.25 731.316C1011.25 743.855 1007.35 759.627 1001.56 771.506C997.704 779.418 985.328 783.571 975.917 787.708C964.723 792.628 955.23 796.509 944.716 802.332C939.307 805.328 930.469 814.074 927.193 818.429C921.13 826.488 910.835 831.999 899.981 836.314C892.76 839.186 886.696 842.125 879.039 843.153C865.631 844.953 865.232 844.329 870.775 852.516C880.773 867.282 886.317 882.558 908.672 890.812C918.897 894.588 929.711 897.992 940.87 900.281C952.882 902.745 960.603 913.388 972.925 914.905C984.58 916.339 993.83 922.054 1000.99 912.064C1007.92 902.397 1007.38 893.591 1008.83 882.922C1010.24 872.498 1018.2 845.261 1005.55 837.787C1001.66 835.488 987.032 837.366 981.758 837.366C971.186 837.366 969.242 842.799 961.955 846.835C952.884 851.859 947.138 855.218 947.138 863.879C947.138 868.846 947.345 874.098 943.149 878.082C931.045 889.575 921.922 904.357 913.801 917.851C909.563 924.892 906.742 950.83 915.083 955.62C920.303 958.619 921.061 962.174 928.333 963.827C939.927 966.461 961.04 970.185 972.783 967.088C1004.57 958.705 1034.48 957.437 1059.97 939.629C1068.52 933.66 1080.52 932.054 1092.03 932.054C1104.26 932.054 1102.85 935.136 1111.83 940.47C1128.56 950.41 1140.66 957.457 1160.56 962.354C1172.85 965.38 1186.57 964.049 1199.31 965.72C1204.75 966.435 1212.39 966.924 1217.54 965.194C1226.24 962.276 1221.63 947.126 1224.67 941.522C1228.73 934.016 1229.16 925.359 1233.07 917.851C1237.77 908.829 1238.12 904.746 1248.46 898.808C1255.28 894.889 1273.8 894.179 1282.51 894.179C1311.7 894.179 1339.14 890.542 1357.45 911.012C1365.24 919.724 1370.27 929.75 1370.27 940.05C1370.27 950.46 1373.71 954.541 1383.09 962.459C1392.68 970.551 1394.41 973.716 1408.74 973.716C1415.72 973.716 1418.99 966.14 1418.99 961.302C1418.99 953.095 1420.94 944.855 1412.44 938.577C1400.12 929.482 1393.57 916.926 1387.65 905.12C1380.66 891.186 1359.25 883.471 1350.32 869.56C1345.65 862.28 1344.39 852.289 1354.31 847.677C1359.41 845.309 1361.58 843.905 1365.71 840.733C1372.24 835.716 1377.42 837.621 1384.23 834.421C1398.06 827.924 1413.33 832.368 1422.98 821.164C1434.31 808.025 1429.25 788.135 1429.25 772.979C1429.25 764.763 1397.62 761.359 1407.6 759.723C1416.14 758.321 1422.98 751.846 1422.98 745.237C1422.98 741.089 1420.26 727.981 1418.99 723.888C1414.37 708.963 1435.03 706.582 1422.98 693.788C1415.2 685.524 1411.94 685.526 1399.05 685.866C1385.56 686.222 1374.1 696.573 1361.15 699.123C1347.75 701.761 1335.33 705.969 1321.54 708.17C1299.24 711.731 1300.13 700.946 1294.76 688.812C1288.18 673.953 1288.21 660.987 1288.21 645.361C1288.21 619.144 1339 610.116 1367.56 610.116C1382.42 610.116 1403.74 607.167 1415.86 614.325C1434.53 625.355 1425.33 648.18 1426.22 665.14C1426.99 680.001 1438.92 703.075 1412.72 706.592C1390.38 709.593 1395.87 672.845 1398.48 665.14C1406.45 641.601 1407.92 618.002 1417.71 594.861C1422.21 584.241 1419.42 571.473 1422.13 560.458C1425.41 547.134 1428.17 540.048 1407.6 540.048C1385.95 540.048 1352.32 544.701 1352.32 564.666C1352.32 573.91 1358.57 603.496 1344.62 608.643C1335.34 612.073 1339.39 593.215 1339.5 589.075C1339.61 584.64 1347.27 571.892 1351.04 568.559C1364.69 556.461 1379.2 549.804 1397.91 541.941C1405.86 538.601 1418.41 533.655 1418.99 525.95C1419.7 516.6 1418.99 508.468 1424.12 499.542C1430.66 488.166 1426.12 476.502 1426.12 463.493C1426.12 447.668 1429.34 430.176 1424.12 414.759C1421.66 407.474 1432.94 398.524 1421.56 396.123C1409.48 393.574 1406.53 386.598 1395.91 382.446C1386.01 378.574 1380.66 370.712 1370.27 366.875C1355.44 361.4 1338.13 362.035 1322.11 362.035C1299.39 362.035 1283.59 375.292 1260 375.292C1256.2 375.292 1242.73 373.732 1240.05 375.712C1233.22 380.759 1256.48 382.867 1258.86 382.867C1288.32 382.867 1317.93 384.76 1347.05 384.76C1354.19 384.76 1368.38 387.003 1374.12 383.708C1383.97 378.046 1392.06 372.582 1404.18 369.189C1426.42 362.958 1419.61 346.052 1421.56 327.324C1422.97 313.737 1432.77 305.995 1414.01 301.045C1403.6 298.301 1408.1 295.942 1398.48 292.387C1392.68 290.246 1380.05 291.967 1373.69 291.967C1352.89 291.967 1332.09 291.967 1311.29 291.967C1305.62 291.967 1298.69 290.329 1298.47 295.754C1298.33 299.033 1297.24 304.424 1299.89 307.222C1306.82 314.535 1301.47 323.782 1304.88 331.841C1309 341.58 1313.76 353.569 1311.29 363.929C1310.33 367.924 1263.88 373.424 1258 374.871C1215.38 385.363 1146.64 395.071 1119.95 360.036C1109.27 346.01 1103.57 330.913 1103.57 314.692C1103.57 306.654 1103.06 299.622 1110.12 292.914C1113.24 289.952 1119.62 288.529 1124.23 287.337C1138.89 283.549 1149.01 275.812 1163.12 271.135C1183.2 264.478 1201.68 268.051 1221.53 273.029C1233.83 276.113 1241.26 283.338 1251.31 288.284C1270.63 297.797 1300.85 315.979 1306.16 333.629C1307.05 336.596 1316.48 353.57 1323.54 348.358C1335.36 339.63 1336.93 328.54 1336.93 316.691C1336.93 301.854 1318.98 300.38 1308.15 292.387C1298.84 285.511 1289.62 278.737 1281.8 271.03C1272.22 261.604 1266.78 250.724 1260.14 240.099C1255.52 232.707 1250.07 225.446 1249.74 217.058C1248.91 195.643 1207.11 200.815 1190.76 207.169C1170.89 214.89 1156.72 218.462 1138.05 206.643C1119.74 195.054 1134.75 174.395 1148.59 166.032C1158.87 159.819 1153.48 158.385 1145.88 152.776C1131.05 141.824 1116.08 127.124 1095.88 121.529C1073.51 115.336 1052.66 119.635 1031.19 119.635C1012.85 119.635 975.347 121.159 975.347 138.573C975.347 152.32 975.347 166.067 975.347 179.815C975.347 188.14 973.232 198.154 978.481 205.906C983.712 213.631 994.591 215.99 1000.99 221.898C1009.47 229.722 1047.88 230.267 1058.69 224.739C1071.78 218.049 1069.92 200.332 1065.67 190.125C1062.61 182.774 1063.04 181.452 1053.56 178.342C1041.76 174.467 1025.94 176.448 1013.24 176.448C998.395 176.448 984.481 173.215 970.218 172.66C960.284 172.274 956.641 168.087 947.138 167.084C924.259 164.671 912.369 180.235 891.861 180.235C856.218 180.235 852.255 160.67 852.255 138.573C852.255 124.042 858.922 108.263 877.899 101.119C886.972 97.7029 908.933 93.2434 918.93 97.8574C939.105 107.169 957.396 119.848 957.396 138.152C957.396 151.917 963.066 170.084 942.579 176.027C921.779 182.062 862.914 202.635 854.677 177.29C851.659 168.004 847.126 160.974 847.126 151.093C847.126 145.392 844.623 140.54 841.997 135.206C835.324 121.654 832.638 102.72 843.421 90.072C849.489 82.9558 858.846 58.0825 848.55 51.5658C834.344 42.5738 826.321 28.3589 811.224 19.6877C782.011 2.90896 769.148 35.3106 757.371 49.9876C751.502 57.3009 751.982 73.0767 752.242 81.3397C752.745 97.3025 799.682 93.123 812.363 93.123C833.355 93.123 850.713 96.9867 861.942 82.3918C867.357 75.3539 866.264 63.281 867.071 55.4585C868.548 41.1408 867.641 26.5725 867.641 12.2179C867.641 3.46103 862.094 8.32545 875.904 8.32545C880.589 8.32545 891.733 5.41479 895.28 8.32518C901.709 13.6004 914.242 10.9627 921.352 14.6377C934.507 21.4378 964.926 19.2668 980.476 19.2668C995.348 19.2668 984.963 10.1682 1000.99 8.32518C1000.99 0.985086 1007.36 9.14086 1020.55 10.6397C1027.01 11.3733 1032.85 11.4842 1039.31 12.2178C1046.36 13.0191 1041.83 10.7246 1047.72 14.6377C1061.16 23.5678 1073.49 23.3042 1075.07 36.2054C1076.48 47.6482 1080.73 68.7559 1064.67 75.8689C1047.12 83.6478 1016.54 91.6912 995.862 86.6001C973.101 80.9971 961.325 61.9476 947.423 48.8303C932.833 35.0627 911.662 35.8642 889.296 36.3106C875.394 36.588 871.393 49.3903 870.063 57.247C867.716 71.1152 859.731 81.2014 875.904 92.7022C887.54 100.976 906.138 98.8043 920.639 98.8043C950.292 98.8043 980.433 100.162 1009.82 97.3314C1033.02 95.0973 1060.33 91.9577 1072.23 74.3959C1080.76 61.7965 1080.58 47.1586 1093.17 36.3106C1105.14 25.9935 1115.68 16.9414 1132.92 10.6398C1148.38 4.98601 1172.08 8.32857 1190.76 10.1682C1218.75 12.9244 1229.23 30.0077 1229.23 45.5689C1229.23 57.4557 1231.42 70.8053 1220.11 80.498C1210.27 88.9222 1189.2 98.2421 1174.23 98.8043C1151.98 99.6398 1144.16 79.0596 1136.34 67.0314C1126.97 52.6261 1116.39 41.6294 1116.39 24.9481C1116.39 14.9304 1118.91 16.6291 1134.34 13.894C1153.43 10.5103 1185.66 9.41239 1204.94 10.6398C1231.88 12.3549 1252.37 5.46909 1264.56 23.4752C1271.89 34.3027 1272.02 50.0188 1270.26 61.9814C1268.54 73.6273 1227.92 81.3057 1216.26 85.7584C1195.32 93.7575 1176.78 103.789 1154.71 110.167C1146.52 112.534 1121.52 114.274 1121.52 123.002C1121.52 128.298 1130.58 132.693 1134.34 136.469C1142.83 144.999 1146.79 157.308 1159.99 162.876C1183.84 172.942 1209.2 166.723 1224.95 152.04C1239.91 138.097 1245.56 120.674 1251.17 103.644C1252.87 98.4695 1264.52 79.1807 1248.46 81.9709C1229.63 85.2418 1204.38 99.9146 1199.02 113.533C1192.11 131.113 1205.91 144.23 1215.26 158.668C1223.79 171.839 1241.47 181.328 1257.15 189.599C1267.2 194.9 1280.35 204.854 1293.48 204.854C1303.63 204.854 1313.47 206.748 1323.68 206.748C1340.46 206.748 1381.22 212.568 1393.92 202.54C1403.29 195.146 1402.63 178.179 1400.47 168.873C1397.26 154.987 1377.39 140.756 1360.72 134.996C1349.46 131.102 1314.61 123.01 1306.16 133.418C1296.68 145.087 1293.5 158.652 1293.34 172.029C1293.13 189.046 1300.46 203.319 1303.59 220.004C1305.55 230.444 1305.86 241.374 1309.86 251.567C1316.7 268.968 1341.47 284.949 1366.56 276.396C1385.17 270.054 1399.65 255.855 1414.01 245.465C1432.14 232.342 1421.36 221.228 1421.56 202.54C1421.79 179.878 1431 155.972 1428.81 133.418C1426.69 111.766 1434.05 95.3747 1413.58 78.2887C1398.64 65.8211 1378.28 58.2256 1362.01 46.9366C1352.4 40.2721 1344.34 33.8669 1329.52 38.7304C1311.16 44.756 1309.52 64.9521 1308.87 77.447C1308.11 91.8922 1311.48 104.739 1331.8 111.219C1390.74 130.012 1418.45 59.0759 1428.81 29.1833C1432.44 18.677 1431.49 13.1927 1413.58 10.6398C1383.7 6.38213 1371.68 12.4185 1341.46 10.6398C1320.17 9.38673 1277.58 3.58299 1274.17 24.9481C1271.71 40.389 1308.22 28.365 1324.96 24.5272C1334.78 22.2771 1336.93 11.0988 1336.93 5.06372" stroke="#D3FDD4" stroke-opacity="0.6" stroke-width="7" stroke-linecap="round" stroke-linejoin="round"/>
<path d="M375.419 579.702C381.661 573.617 398.674 551.814 389.865 543.451C379.485 533.595 367.075 530.714 350.211 530.714C337.095 530.714 327.656 542.334 327.656 551.833C327.656 559.976 322.658 580.343 330.899 587.104C334.069 589.705 335.748 595.651 339.744 597.337C345.761 599.876 351.97 601.181 358.171 603.216C369.048 606.786 380.163 611.511 391.487 612.905C398.621 613.783 427.801 615.771 433.206 612.578C444.494 605.909 442.057 598.797 447.652 589.499C451.982 582.305 456.202 569.791 454.876 561.957C454.181 557.851 453.761 549.024 451.043 545.41C446.894 539.896 452.37 534.2 452.37 528.646C452.37 516.176 465.474 509.388 476.84 501.757C490.661 492.479 534.351 488.735 548.779 495.443C568.46 504.594 579.736 524.982 579.736 541.6C579.736 555.831 584.388 574.357 575.609 587.322C567.302 599.591 525.762 597.337 510.746 597.337C491.885 597.337 472.897 593.446 461.804 580.573C454.839 572.491 457.415 560.885 452.37 552.269C446.21 541.75 449.716 526.859 449.716 515.691C449.716 493.536 438.745 451.632 462.983 432.739C470.649 426.763 487.523 419.022 498.805 419.022C516.182 419.022 532.762 407.265 551.875 407.265C567.876 407.265 584.041 397.333 598.9 393.113C607.388 390.702 614.409 384.779 619.539 379.397C627.447 371.097 625.775 366.152 628.089 356.753C631.954 341.053 629.666 328.885 604.944 328.885C591.889 328.885 578.43 328.159 565.437 328.994C552.355 329.834 545.364 336.859 535.954 342.71C511.233 358.083 497.479 377.635 497.479 400.951C497.479 417.083 525.186 423.51 540.819 430.779C568.987 443.876 608.472 442.529 639.44 435.569C671.419 428.382 711.551 406.763 729.805 386.146C737.665 377.269 711.639 367.505 704.45 362.196C684.36 347.361 663.88 340.519 658.751 318.216C654.003 297.569 652.892 277.033 654.034 255.947C654.517 247.032 686.45 230.909 697.816 230.909C712.204 230.909 726.566 221.719 742.778 225.14C752.394 227.169 739.601 251.555 747.495 247.021C751.569 244.681 763.055 245.878 768.133 244.19C776.625 241.369 784.859 239.877 792.604 235.917C807.377 228.364 819.514 209.902 821.055 197.38C821.897 190.544 824.78 174.708 819.729 168.314C814.66 161.897 796.352 164.286 788.182 164.286C771.426 164.286 754.669 164.286 737.913 164.286C714.187 164.286 702.782 162.865 685.876 176.043C677.171 182.828 675.284 192.095 672.018 200.646C665.242 218.388 653.502 234.792 649.317 253.335C643.248 280.222 637.814 300.704 604.944 314.188C592.609 319.249 557.997 316.336 545.241 313.644C536.096 311.714 529.763 299.657 527.257 293.178C524.608 286.332 526.667 277.206 526.667 270.099C526.667 252.534 555.071 233.908 573.103 225.031C592.551 215.456 630.348 202.584 647.253 222.2C656.288 232.685 653.712 257.221 651.233 269.12C646.219 293.188 618.039 307.345 590.203 317.019C562.242 326.736 537.278 342.601 505.439 342.601C491.892 342.601 479.498 346.157 466.227 346.52C455.368 346.817 444.399 347.011 433.795 348.915C413.041 352.643 388.686 352.997 388.686 372.974C388.686 385.61 384.413 409.77 398.121 419.893C420.066 436.099 470.708 426.112 493.941 418.587C515.984 411.447 524.013 397.571 524.013 380.812C524.013 365.264 524.368 358.046 506.913 347.5C490.803 337.766 466.743 339.363 447.652 334.328C429.114 329.439 416.525 324.966 396.647 324.966C359.236 324.966 304.533 342.302 289.328 367.966C280.666 382.587 282.547 399.822 282.547 415.539C282.547 430.717 277.792 454.442 301.121 461.696C311.931 465.057 334.319 464.091 346.23 464.091C359.626 464.091 375.408 465.924 388.096 462.131C416.648 453.597 415.221 428.881 415.221 409.225C415.221 395.981 411.035 388.077 405.934 376.022C401.078 364.548 384.44 363.459 378.072 355.229C370.815 345.851 345.264 348.48 333.553 348.48C308.787 348.48 284.021 348.48 259.255 348.48C229.907 348.48 201.5 344.519 191.149 322.68C185.485 310.728 187.022 294.33 187.022 281.748C187.022 255.806 200.254 233.158 217.389 210.77C225.992 199.531 237.876 180.389 258.666 179.962C269.072 179.749 283.906 178.141 293.751 180.398C322.821 187.06 343.299 208.957 357.434 227.426C371.444 245.73 372.765 259.588 372.765 280.006C372.765 291.837 350.262 309.635 336.796 315.059C328.937 318.225 322.601 322.51 314.978 326.054C306.252 330.112 294.673 331.166 285.2 334.763C265.685 342.175 249.212 347.074 228.888 340.642C222.82 338.721 210.007 333.647 205.744 329.973C198.677 323.885 172.394 323.006 161.666 323.006C150.549 323.006 78.2292 316.826 78.2292 329.865C78.2292 334.64 77.4622 339.834 78.3766 344.561C79.8233 352.039 95.6284 360.853 101.963 366.115C114.19 376.273 151.047 387.048 169.627 380.812C194.989 372.298 187.022 347.472 187.022 330.844C187.022 315.219 183.598 297.685 173.165 283.816C163.795 271.361 138.861 267.967 127.319 256.165C111.726 240.222 91.1252 225.192 88.9906 203.912C87.4046 188.101 85.0246 166.63 89.4328 151.005C93.8076 135.498 114.796 131.522 132.773 129.015C154.96 125.92 192.13 120.21 198.225 139.901C201.231 149.611 208.25 158.242 208.25 168.314C208.25 178.842 210.903 189.148 210.903 199.775C210.903 219.08 193.385 243.412 166.973 250.504C142.763 257.006 126.647 246.308 121.275 228.95C116.138 212.355 104.575 196.822 98.8674 179.962C93.9611 165.47 92.0863 139.248 98.2777 124.878C103.232 113.38 113.823 95.8233 126.139 87.8652C136.153 81.3947 153.736 79.1842 165.941 75.1284C184.603 68.9271 201.908 67.5325 222.107 65.8752C240.643 64.3542 270.001 59.8971 286.675 68.2701C308.178 79.0681 317.042 101.644 317.042 119.871C317.042 131.956 312.721 134.893 295.814 134.893C275.668 134.893 255.521 134.893 235.374 134.893C225.853 134.893 208.055 137.348 201.469 130.539C194.172 122.996 192.055 112.312 189.086 103.541C184.118 88.8669 187.022 71.7142 187.022 56.6219C187.022 48.9594 187.267 43.4499 198.078 39.8572C213.015 34.8937 234.619 34.8584 250.853 32.0192C296.669 24.006 352.514 15.3722 398.71 27.5559C420.5 33.3026 434.574 52.9909 436.449 69.141C437.374 77.1169 440.731 86.7349 443.082 94.7235C445.505 102.954 444.409 111.809 444.409 120.197C444.409 139.77 439.729 149.384 415.368 159.278C398.509 166.126 381.807 173.249 364.805 179.527C343.372 187.44 328.157 179.073 321.759 163.851C314.578 146.763 317.686 114.717 346.378 109.42C363.955 106.175 382.428 107.46 400.479 107.46C425.567 107.46 448.873 106.98 473.155 112.359C494.146 117.009 526.667 134.879 526.667 152.094C526.667 173.106 529.32 194.089 529.32 215.233C529.32 236.691 519.436 253.916 500.132 270.208C487.769 280.642 454.152 309.751 431.289 300.254C420.252 295.67 415.673 283.209 408.44 276.087C395.708 263.551 376.289 251.735 373.06 235.046C366.225 199.714 421.116 203.476 453.549 203.476C465.667 203.476 481.732 201.165 489.518 209.79C497.555 218.693 496.991 231.156 500.722 241.142C507.4 259.019 505.439 279.037 505.439 297.533C505.439 316.9 574.889 291.036 585.486 285.558C669.783 241.982 732.903 171.037 752.212 96.683C757.329 76.9798 765.065 32.0311 736.292 19.2824C710.848 8.00864 678.988 21.3105 659.341 33.4344C637.652 46.8178 625.663 55.908 616.295 76.1081C612.73 83.7962 605.456 105.157 614.821 112.903C632.011 127.121 650.331 132.934 676.588 132.934C692.714 132.934 706.246 135.109 716.243 123.79C723.603 115.456 738.945 96.3686 738.945 85.9057C738.945 68.0805 711.527 70.2296 691.772 70.2296C679.458 70.2296 668.751 69.6164 656.687 67.8347C643.593 65.9007 631.039 61.3539 618.212 58.5814C605.911 55.9227 592.448 56.0618 579.736 54.989C558.578 53.2033 526.135 48.9984 521.507 71.2094C518.556 85.3775 519.579 99.14 518.559 113.448C516.891 136.858 516.873 159.422 530.5 181.377C539.348 195.634 570.934 189.76 588.581 189.76C622.167 189.76 634.539 171.466 626.909 147.521C622.229 132.833 593.422 125.804 577.083 122.701C565.786 120.556 519.043 108.675 513.4 121.177" stroke="#D3FDD4" stroke-opacity="0.6" stroke-width="7" stroke-linecap="round" stroke-linejoin="round"/>
<path d="M326.539 565.577C332.781 559.493 349.794 537.689 340.986 529.326C330.605 519.471 318.196 516.59 301.331 516.59C288.215 516.59 278.776 528.21 278.776 537.709C278.776 545.851 273.778 566.218 282.019 572.98C285.189 575.581 286.868 581.527 290.864 583.213C296.881 585.752 303.09 587.056 309.291 589.091C320.168 592.661 331.283 597.386 342.607 598.78C349.741 599.658 378.921 601.646 384.326 598.454C395.614 591.785 393.177 584.672 398.772 575.375C403.102 568.181 407.322 555.667 405.996 547.833C405.301 543.727 404.881 534.899 402.163 531.286C398.014 525.771 403.49 520.075 403.49 514.521C403.49 502.052 416.594 495.263 427.961 487.632C441.781 478.354 485.472 474.61 499.899 481.318C519.581 490.469 530.857 510.857 530.857 527.476C530.857 541.706 535.508 560.232 526.729 573.198C518.422 585.467 476.882 583.213 461.866 583.213C443.006 583.213 424.018 579.321 412.924 566.448C405.96 558.366 408.535 546.76 403.49 538.144C397.33 527.625 400.836 512.734 400.836 501.567C400.836 479.411 389.866 437.508 414.104 418.614C421.769 412.639 438.643 404.898 449.926 404.898C467.302 404.898 483.883 393.141 502.995 393.141C518.996 393.141 535.161 383.209 550.021 378.989C558.508 376.578 565.529 370.655 570.659 365.272C578.567 356.973 576.895 352.027 579.209 342.629C583.074 326.929 580.786 314.76 556.065 314.76C543.009 314.76 529.55 314.035 516.557 314.869C503.475 315.709 496.484 322.734 487.074 328.586C462.354 343.959 448.599 363.511 448.599 386.827C448.599 402.959 476.306 409.386 491.939 416.655C520.108 429.752 559.593 428.405 590.56 421.445C622.539 414.257 662.671 392.638 680.926 372.021C688.786 363.144 662.759 353.381 655.57 348.072C635.481 333.236 615 326.394 609.871 304.092C605.124 283.445 604.012 262.908 605.154 241.823C605.637 232.907 637.57 216.785 648.936 216.785C663.324 216.785 677.686 207.595 693.898 211.015C703.515 213.044 690.721 237.431 698.615 232.896C702.69 230.556 714.175 231.754 719.254 230.066C727.745 227.244 735.979 225.752 743.725 221.792C758.497 214.24 770.634 195.778 772.176 183.255C773.017 176.42 775.9 160.584 770.849 154.189C765.78 147.773 747.473 150.162 739.302 150.162C722.546 150.162 705.79 150.162 689.033 150.162C665.307 150.162 653.902 148.74 636.996 161.919C628.291 168.704 626.405 177.97 623.139 186.521C616.362 204.263 604.622 220.667 600.437 239.21C594.369 266.097 588.934 286.579 556.065 300.064C543.73 305.124 509.117 302.211 496.361 299.52C487.216 297.59 480.883 285.532 478.377 279.054C475.728 272.208 477.787 263.082 477.787 255.975C477.787 238.41 506.191 219.784 524.223 210.906C543.672 201.331 581.469 188.459 598.373 208.076C607.408 218.561 604.832 243.097 602.353 254.995C597.339 279.063 569.16 293.221 541.323 302.894C513.362 312.611 488.398 328.477 456.559 328.477C443.012 328.477 430.618 332.033 417.347 332.396C406.488 332.693 395.519 332.886 384.915 334.791C364.162 338.519 339.806 338.873 339.806 358.849C339.806 371.486 335.533 395.646 349.241 405.769C371.186 421.974 421.828 411.987 445.061 404.462C467.105 397.322 475.134 383.446 475.134 366.687C475.134 351.139 475.488 343.922 458.033 333.376C441.923 323.642 417.863 325.238 398.772 320.203C380.234 315.314 367.645 310.841 347.767 310.841C310.356 310.841 255.653 328.177 240.448 353.842C231.786 368.462 233.667 385.697 233.667 401.414C233.667 416.592 228.912 440.318 252.242 447.571C263.051 450.932 285.44 449.966 297.351 449.966C310.746 449.966 326.528 451.799 339.217 448.007C367.768 439.473 366.341 414.756 366.341 395.1C366.341 381.857 362.155 373.952 357.054 361.897C352.199 350.424 335.561 349.334 329.192 341.105C321.935 331.726 296.385 334.355 284.673 334.355C259.907 334.355 235.141 334.355 210.376 334.355C181.027 334.355 152.62 330.394 142.27 308.555C136.605 296.604 138.142 280.206 138.142 267.623C138.142 241.681 151.374 219.033 168.51 196.645C177.112 185.406 188.997 166.264 209.786 165.838C220.192 165.624 235.026 164.017 244.871 166.273C273.941 172.935 294.419 194.833 308.554 213.301C322.564 231.606 323.885 245.463 323.885 265.881C323.885 277.712 301.382 295.511 287.916 300.935C280.057 304.1 273.721 308.386 266.099 311.93C257.372 315.987 245.793 317.041 236.321 320.639C216.806 328.05 200.333 332.95 180.008 326.517C173.94 324.597 161.128 319.522 156.864 315.849C149.797 309.761 123.515 308.882 112.787 308.882C101.669 308.882 29.3494 302.702 29.3494 315.74C29.3494 320.516 28.5824 325.71 29.4968 330.436C30.9435 337.914 46.7486 346.728 53.0833 351.991C65.3099 362.149 102.167 372.924 120.747 366.687C146.109 358.174 138.142 333.347 138.142 316.72C138.142 301.094 134.718 283.56 124.285 269.692C114.915 257.236 89.9809 253.842 78.4387 242.041C62.8463 226.098 42.2453 211.068 40.1107 189.787C38.5248 173.976 36.1448 152.506 40.553 136.88C44.9277 121.373 65.916 117.398 83.8931 114.89C106.08 111.796 143.251 106.085 149.346 125.777C152.351 135.486 159.37 144.117 159.37 154.189C159.37 164.717 162.023 175.024 162.023 185.65C162.023 204.955 144.505 229.287 118.093 236.38C93.8834 242.881 77.7673 232.183 72.3947 214.825C67.2583 198.231 55.6954 182.698 49.9876 165.838C45.0813 151.345 43.2065 125.123 49.3979 110.754C54.3521 99.2555 64.9435 81.6987 77.2594 73.7407C87.2732 67.2702 104.857 65.0597 117.062 61.0039C135.723 54.8026 153.028 53.408 173.227 51.7507C191.763 50.2297 221.121 45.7726 237.795 54.1456C259.298 64.9436 268.162 87.519 268.162 105.746C268.162 117.832 263.841 120.769 246.935 120.769C226.788 120.769 206.641 120.769 186.494 120.769C176.973 120.769 159.175 123.224 152.589 116.414C145.292 108.871 143.175 98.1877 140.206 89.4168C135.238 74.7424 138.142 57.5897 138.142 42.4974C138.142 34.8349 138.387 29.3253 149.198 25.7327C164.135 20.7692 185.739 20.7339 201.973 17.8947C247.789 9.88147 303.635 1.24773 349.831 13.4314C371.62 19.178 385.694 38.8664 387.569 55.0165C388.495 62.9924 391.851 72.6104 394.203 80.599C396.625 88.829 395.529 97.684 395.529 106.073C395.529 125.646 390.849 135.259 366.488 145.154C349.629 152.001 332.927 159.124 315.925 165.402C294.492 173.316 279.277 164.949 272.88 149.726C265.698 132.638 268.806 100.592 297.498 95.2953C315.075 92.0503 333.549 93.3358 351.599 93.3358C376.687 93.3358 399.993 92.8551 424.275 98.2346C445.267 102.885 477.787 120.754 477.787 137.969C477.787 158.981 480.441 179.964 480.441 201.109C480.441 222.566 470.556 239.792 451.252 256.084C438.889 266.518 405.272 295.627 382.409 286.13C371.372 281.545 366.794 269.085 359.56 261.962C346.828 249.427 327.409 237.61 324.18 220.922C317.345 185.589 372.236 189.352 404.669 189.352C416.788 189.352 432.852 187.041 440.638 195.666C448.675 204.568 448.111 217.031 451.842 227.018C458.52 244.894 456.559 264.912 456.559 283.408C456.559 302.776 526.009 276.911 536.606 271.433C620.903 227.858 684.023 156.912 703.333 82.5585C708.45 62.8553 716.185 17.9066 687.412 5.15789C661.968 -6.11587 630.108 7.18596 610.461 19.3099C588.773 32.6933 576.784 41.7834 567.416 61.9836C563.85 69.6717 556.576 91.0326 565.942 98.7789C583.131 112.996 601.451 118.809 627.709 118.809C643.835 118.809 657.367 120.984 667.363 109.665C674.723 101.331 690.065 82.2441 690.065 71.7812C690.065 53.9559 662.647 56.1051 642.892 56.1051C630.579 56.1051 619.871 55.4919 607.808 53.7102C594.713 51.7762 582.159 47.2294 569.332 44.4569C557.031 41.7982 543.569 41.9373 530.857 40.8645C509.698 39.0788 477.255 34.8739 472.628 57.0849C469.676 71.253 470.699 85.0155 469.679 99.3232C468.011 122.734 467.993 145.298 481.62 167.253C490.468 181.51 522.055 175.635 539.702 175.635C573.287 175.635 585.659 157.342 578.03 133.397C573.349 118.708 544.542 111.679 528.203 108.576C516.906 106.431 470.163 94.5503 464.52 107.052" stroke="#F8FFF9" stroke-width="7" stroke-linecap="round" stroke-linejoin="round"/>
<path d="M82.0865 358.55C60.7238 363.877 40.8881 365.785 28.2335 379.803C19.6441 389.317 15.4113 397.794 15.4113 409.787C15.4113 440.146 22.8986 468.505 49.8887 492.06C56.5287 497.855 60.7414 511.944 73.111 511.944C84.028 511.944 86.5399 499.343 89.2099 493.427C99.358 470.945 112.86 445.291 112.86 421.465C112.86 410.309 116.521 398.319 96.1908 398.319C75.0017 398.319 68.6309 399.132 52.738 408.735C37.9524 417.668 22.0128 427.286 13.4168 439.982C12.1398 441.868 12.7869 454.833 11.5647 453.028C7.51579 447.048 11.9471 439.435 11.5647 432.375C11.2025 425.689 3.28471 428.601 10.2825 426.305C18.6712 423.551 26.3108 414.889 34.6446 410.629C40.7892 407.487 47.7268 405.54 53.7353 402.212C60.9504 398.216 71.7836 399.055 80.0919 395.373C95.0745 388.735 116.465 388.85 133.233 388.85C151.644 388.85 153.89 395.327 153.89 407.788C153.89 423.141 156.455 437.58 156.455 452.817C156.455 466.665 155.005 480.879 159.019 494.48C160.862 500.724 168.325 525.2 180.959 525.2C199.826 525.2 213.06 527.041 231.393 521.834C242.832 518.585 244.384 508.381 250.199 501.634C261.831 488.135 260.7 472.135 268.007 457.025C276.489 439.488 259.571 439.982 242.363 439.982C234.539 439.982 220.717 437.883 214.012 441.034C206.908 444.372 202.541 448.422 194.921 450.923C182.441 455.02 165.484 456.303 155.885 464.18C139.686 477.471 174.406 494.085 174.406 509.104C174.406 515.598 169.277 520.912 169.277 527.515C169.277 534.528 165.663 546.498 160.444 552.554C145.685 569.681 101.521 563.075 76.9576 563.075C61.3768 563.075 62.4696 564.667 53.8778 574.017C44.9137 583.772 38.4912 592.507 38.4912 604.738C38.4912 621.218 41.0608 627.463 64.2779 627.463C92.1206 627.463 120.58 629.357 148.762 629.357C167.443 629.357 176.747 628.615 187.798 618.415C199.363 607.739 190.066 590.065 187.37 578.12C186.238 573.102 184.515 568.669 178.965 565.39C175.715 563.47 157.187 561.654 156.597 560.129C151.747 547.593 188.862 551.713 197.486 551.713C206.315 551.713 210.86 550.427 215.437 556.342C219.497 561.59 227.293 562.126 232.818 565.39C240.109 569.698 264.71 567.261 274.419 566.863C278.507 566.695 278.934 563.897 282.112 562.654C284.482 561.728 290.971 561.731 292.227 560.34C293.196 559.267 290.269 563.075 288.523 563.075C282.777 563.075 277.03 563.075 271.284 563.075C231.524 563.075 193.26 562.611 155.173 568.862C142.146 570.999 158.293 578.124 160.302 579.277C167.691 583.522 172.18 584.902 176.4 591.482C183.098 601.923 187.228 615.999 187.228 627.463C187.228 640.822 167.428 638.532 155.173 643.56C145.91 647.36 128.786 656.306 119.271 657.868C99.5648 661.102 84.5035 685.727 71.8288 695.638C58.7815 705.839 49.5907 720.971 44.1899 733.934C37.8134 749.237 33.7873 773.273 38.6337 789.378C40.239 794.713 45.5222 796.923 48.179 801.688C50.728 806.259 35.8363 798.044 34.5021 797.058C22.7541 788.383 10.2825 793.667 10.2825 778.963C10.2825 766.303 9.62209 754.188 10.2825 741.508C11.5132 717.879 48.3574 689.72 75.5329 715.522C85.039 724.548 90.8613 738.384 98.8977 748.557C108.601 760.841 140.193 762.35 156.74 763.707C182.532 765.824 205.498 763.721 215.437 744.454C221.136 733.407 218.941 716.909 218.001 705.106C217.245 695.608 195.304 695.488 192.214 685.222C188.459 672.741 171.71 663.557 160.159 655.027C145.922 644.514 134.143 655.869 117.988 655.869C108.913 655.869 103.322 656.534 97.473 651.135C94.1826 648.097 84.5935 644.923 79.522 644.507C65.0174 643.316 47.75 640.002 48.7489 627.463C49.0928 623.145 61.571 625.649 61.571 630.303C61.571 638.939 63.9415 639.006 71.8288 644.507C82.6143 652.029 94.976 658.56 106.449 665.338C117.097 671.629 134.187 669.125 147.479 669.125C157.804 669.125 165.441 676.833 174.406 679.541C184.38 682.554 195.141 687.765 203.469 692.797C206.81 694.815 206.513 699.147 210.308 700.898C220.085 705.411 223.13 723.828 223.13 731.619C223.13 742.079 223.428 752.516 234.67 758.973C239.73 761.879 244.123 766.147 248.204 769.915C250.544 772.074 258.15 781.238 258.89 783.697C265.818 806.721 292.198 839.556 257.75 859.342C227.354 876.8 242.306 911.709 262.166 930.042C272.116 939.226 282.393 939.931 298.923 939.931C318.669 939.931 338.648 935.559 357.05 930.463C370.999 926.6 371.867 926.407 371.867 916.154C371.867 903.47 374.431 890.2 374.431 877.017C374.431 870.237 372.191 864.89 380.842 861.341C384.076 860.014 401.948 860.229 394.377 853.24C383.429 843.134 370.477 832.788 366.596 819.889C363.745 810.417 336.369 810.82 328.129 815.891C324.95 817.847 320.162 816.211 316.589 817.89C312.444 819.838 310.001 822.329 306.474 824.413C300.478 827.955 294.18 834.686 287.241 837.248C280.991 839.556 275.271 839.563 268.007 839.563C256.115 839.563 264.247 848.767 261.027 854.713C248.707 877.457 199.021 871.756 170.559 871.756C156.415 871.756 139.564 869.057 131.38 879.331C124.892 887.477 115.424 900.361 115.424 909.631C115.424 921.254 112.008 932.405 112.86 943.719C113.319 949.829 118.539 954.567 121.835 959.921C127.033 968.366 127.131 970.231 113.429 970.231C97.8741 970.231 82.7259 968.338 66.6999 968.338C60.9847 968.338 50.4714 969.115 46.7544 972.546C42.6046 976.376 46.2482 980.821 39.7734 984.54C35.2231 987.153 29.1182 988.825 25.6691 992.009C18.656 998.483 17.9758 985.386 17.9758 981.173C17.9758 970.45 16.5474 951.773 22.5348 941.825C25.5243 936.858 20.5402 928.452 20.5402 922.888C20.5402 917.303 17.9758 911.927 17.9758 906.791C17.9758 894.739 53.3683 890.694 65.4177 890.694C83.4529 890.694 96.4362 877.438 114.142 877.438C121.158 877.438 126.359 873.955 133.375 873.65C142.63 873.248 129.945 861.409 124.4 860.499C109.933 858.125 115.062 843.484 119.983 837.669C123.914 833.025 129.409 829.025 134.515 825.254C139.187 821.804 139.119 815.342 141.638 811.156C146.64 802.845 143.024 787.622 137.222 779.91C130.272 770.671 107.044 775.175 93.4839 775.175C86.2795 775.175 68.6234 772.913 62.8533 776.227C55.1376 780.659 57.3156 786.3 53.3079 792.219C46.7343 801.928 44.2458 816.581 30.7979 822.098C21.8405 825.773 1.90119 836.607 2.5892 845.244C2.99635 850.355 17.0464 854.754 21.6799 857.553C26.5003 860.466 35.6182 871.671 35.9268 875.544C36.8011 886.52 59.2732 896.824 66.5574 906.685C78.9658 923.485 90.499 937.529 97.6155 955.923C99.5431 960.905 106.474 965.436 107.588 972.02C108.471 977.234 110.963 986.927 115.994 990.642C124.476 996.905 147.544 999.247 161.584 998.637C166.333 998.431 170.976 988.231 174.406 985.381C180.594 980.24 185.06 974.698 193.639 971.178C203.582 967.099 225.839 970.231 237.234 970.231C254.605 970.231 260.158 979.607 274.419 985.802C283.537 989.763 284.824 991.062 296.216 991.062C310.853 991.062 308.639 976.018 303.197 970.231C297.021 963.663 294.934 955.753 294.934 947.927C294.934 940.407 292.364 936.144 303.91 936.144C324.869 936.144 347.004 931.553 367.878 934.355C380.904 936.104 394.679 958.953 400.645 966.444C403.452 969.966 414.995 977.878 419.594 980.752C430.95 987.848 436.825 987.311 449.939 989.59C458.769 991.124 472.033 993.084 480.143 989.169C491.019 983.917 485.712 972.676 491.113 965.497C495.192 960.074 507.36 960.121 507.782 951.715C508.213 943.115 507.782 934.44 507.782 925.833C507.782 921.523 505.505 912.365 509.776 909.21C514.339 905.841 527.03 907.738 533.426 907.738C548.552 907.738 562.104 910.777 566.763 921.099C570.981 930.442 576.584 943.2 566.194 950.873C555.872 958.495 556.506 971.438 556.506 981.594C556.506 993.72 604.759 996.744 615.203 996.744C639.888 996.744 661.861 998.22 676.891 980.647C689.677 965.698 691.019 947.581 680.168 932.356C674.839 924.88 667.3 902.056 684.727 902.056C705.697 902.056 726.06 903.121 746.273 903.95C753.278 904.237 761.307 908.742 768.071 907.632C773.431 906.753 778.214 900.446 784.74 900.163C806.695 899.209 813.369 925.268 827.053 934.25C836.565 940.494 855.769 968.864 838.308 972.967C830.734 974.746 824.064 975.42 816.795 977.806C812.819 979.111 810.904 980.982 806.537 981.699C800.32 982.719 800.002 988.84 792.433 989.169C782.466 989.602 804.128 1000.09 798.702 993.798C794.775 989.241 793.281 976.485 786.734 974.44C762.514 966.873 694.985 979.555 694.985 950.347C694.985 936.838 722.903 947.568 734.733 940.773C743.746 935.597 759.573 936.144 770.778 936.144C783.041 936.144 795.03 934.026 806.68 932.461C821.341 930.493 836.028 919.342 836.028 907.738C836.028 892.948 838.593 878.666 838.593 864.181C838.593 853.134 838.593 842.088 838.593 831.041C838.593 821.911 839.524 820.031 829.19 814.944C820.998 810.911 810.025 804.731 800.126 803.687C793.717 803.01 778.922 798.867 774.625 795.165C772.477 793.315 768.52 791.537 765.649 790.325C763.412 789.381 764.011 785.867 762.23 784.223C757.15 779.534 779.429 780.856 782.175 780.856C796.265 780.856 810.6 777.803 823.206 773.281C849.205 763.956 859.108 745.567 859.108 724.991C859.108 713.779 855.536 713.41 840.587 708.894C828.963 705.382 817.487 702.202 806.395 698.478C795.414 694.792 779.243 698.217 769.496 702.266C761.46 705.604 757.789 712.96 750.262 716.048C734.211 722.633 719.828 728.016 710.941 713.102C705.982 704.78 691.443 700.633 686.722 691.219C683.611 685.017 681.909 678.411 679.456 672.071C678.724 670.178 677.034 685.188 677.034 688.063C677.034 692.453 684.813 700.454 688.716 704.16C700.698 715.536 720.655 721.057 733.451 731.619C742.905 739.422 741.145 750.299 741.145 760.025C741.145 765.742 743.742 775.593 740.575 780.856C738.441 784.401 733.691 787.911 729.605 790.325C722.622 794.451 736.516 790.408 739.15 788.852C746.622 784.438 787.068 787.439 794.998 789.904C810.271 794.653 834.813 785.506 848.851 781.803C857.761 779.453 862.416 775.152 872.5 772.861C881.303 770.86 892.528 770.45 901.706 771.493C916.402 773.162 931.398 774.636 946.299 772.229C950.53 771.546 982.201 765.307 982.201 767.6C982.201 780.139 978.304 795.911 972.513 807.79C968.656 815.702 956.28 819.855 946.869 823.992C935.675 828.912 926.182 832.793 915.668 838.616C910.259 841.612 901.421 850.358 898.145 854.713C892.082 862.772 881.786 868.282 870.933 872.598C863.712 875.469 857.648 878.408 849.99 879.436C836.583 881.237 836.184 880.613 841.727 888.8C851.725 903.566 857.269 918.842 879.624 927.096C889.849 930.871 900.663 934.276 911.821 936.565C923.834 939.029 931.555 949.672 943.877 951.189C955.532 952.623 964.781 958.338 971.943 948.348C978.873 938.681 978.334 929.875 979.779 919.205C981.19 908.782 989.152 881.544 976.502 874.071C972.61 871.771 957.984 873.65 952.71 873.65C942.138 873.65 940.194 879.083 932.907 883.119C923.835 888.143 918.09 891.502 918.09 900.163C918.09 905.13 918.297 910.382 914.101 914.366C901.996 925.858 892.874 940.64 884.753 954.134C880.515 961.176 877.694 987.113 886.035 991.904C891.255 994.902 892.013 998.458 899.284 1000.11C910.879 1002.74 931.992 1006.47 943.734 1003.37C975.519 994.989 1005.43 993.721 1030.92 975.912C1039.47 969.944 1051.47 968.338 1062.98 968.338C1075.21 968.338 1073.8 971.42 1082.78 976.754C1099.52 986.693 1111.62 993.741 1131.51 998.637C1143.8 1001.66 1157.52 1000.33 1170.26 1002C1175.7 1002.72 1183.34 1003.21 1188.49 1001.48C1197.19 998.56 1192.58 983.41 1195.62 977.806C1199.68 970.299 1200.11 961.643 1204.02 954.134C1208.72 945.113 1209.07 941.03 1219.41 935.092C1226.23 931.172 1244.75 930.463 1253.46 930.463C1282.65 930.463 1310.09 926.825 1328.4 947.296C1336.19 956.007 1341.22 966.034 1341.22 976.333C1341.22 986.743 1344.66 990.825 1354.04 998.743C1363.63 1006.83 1365.36 1010 1379.69 1010C1386.67 1010 1389.94 1002.42 1389.94 997.585C1389.94 989.379 1391.89 981.139 1383.39 974.86C1371.08 965.765 1364.52 953.21 1358.6 941.404C1351.61 927.47 1330.2 919.755 1321.28 905.844C1316.61 898.563 1315.35 888.572 1325.26 883.96C1330.36 881.592 1332.53 880.188 1336.66 877.017C1343.19 872 1348.37 873.905 1355.18 870.704C1369.01 864.208 1384.28 868.652 1393.93 857.448C1405.26 844.309 1400.2 824.419 1400.2 809.263C1400.2 801.047 1399.21 801.325 1409.18 799.689C1417.72 798.287 1425.85 795.04 1425.85 788.431C1425.85 784.283 1422.84 779.689 1421.57 775.596C1416.95 760.67 1412.4 743.677 1400.35 730.882C1392.56 722.619 1382.89 721.81 1370 722.15C1356.52 722.506 1345.05 732.856 1332.1 735.406C1318.71 738.044 1306.29 742.253 1292.5 744.454C1270.19 748.015 1271.08 737.23 1265.71 725.096C1259.13 710.237 1259.16 697.271 1259.16 681.645C1259.16 655.428 1309.95 646.4 1338.51 646.4C1353.37 646.4 1374.7 643.451 1386.81 650.609C1405.48 661.639 1404.45 687.726 1405.33 704.686C1406.11 719.546 1409.87 739.359 1383.68 742.876C1361.33 745.877 1366.82 709.129 1369.43 701.424C1377.4 677.885 1378.87 654.286 1388.66 631.145C1393.16 620.525 1390.37 607.756 1393.08 596.742C1396.36 583.417 1399.12 576.332 1378.55 576.332C1356.9 576.332 1323.27 580.984 1323.27 600.95C1323.27 610.193 1329.52 639.78 1315.58 644.927C1306.29 648.357 1310.34 629.499 1310.45 625.359C1310.57 620.924 1318.23 608.176 1321.99 604.843C1335.64 592.745 1350.16 586.088 1368.86 578.225C1376.81 574.885 1389.37 569.939 1389.94 562.234C1390.65 552.884 1389.95 544.752 1395.07 535.826C1401.61 524.45 1410.46 516.221 1410.46 503.212C1410.46 487.386 1413.69 469.497 1408.47 454.08C1406 446.795 1403.89 434.808 1392.51 432.407C1380.43 429.857 1377.49 422.882 1366.87 418.73C1356.96 414.857 1351.61 406.996 1341.22 403.159C1326.39 397.684 1309.08 398.319 1293.07 398.319C1270.34 398.319 1254.55 411.575 1230.95 411.575C1227.15 411.575 1213.69 410.016 1211 411.996C1204.17 417.043 1227.44 419.15 1229.81 419.15C1259.27 419.15 1288.88 421.044 1318 421.044C1325.15 421.044 1339.33 423.287 1345.07 419.992C1354.92 414.33 1363.02 408.866 1375.13 405.473C1397.37 399.242 1416.06 388.641 1418.01 369.913C1419.43 356.327 1415.84 344.983 1397.07 340.034C1386.66 337.29 1379.06 332.226 1369.43 328.671C1363.63 326.53 1351 328.251 1344.64 328.251C1323.84 328.251 1303.04 328.251 1282.24 328.251C1276.57 328.251 1269.64 326.613 1269.42 332.038C1269.28 335.317 1268.19 340.708 1270.84 343.506C1277.77 350.819 1272.42 360.066 1275.83 368.124C1279.95 377.864 1284.71 389.853 1282.24 400.213C1281.28 404.208 1234.83 409.708 1228.96 411.155C1186.33 421.647 1117.59 431.355 1090.9 396.32C1080.22 382.294 1074.52 367.197 1074.52 350.976C1074.52 342.938 1074.01 335.906 1081.07 329.197C1084.19 326.236 1090.57 324.813 1095.18 323.621C1109.84 319.833 1119.97 312.096 1134.07 307.419C1154.15 300.762 1172.63 304.334 1192.48 309.313C1204.78 312.397 1212.21 319.621 1222.26 324.568C1241.58 334.081 1271.8 352.263 1277.11 369.913C1278 372.88 1287.43 389.854 1294.49 384.642C1306.31 375.914 1307.88 364.824 1307.88 352.974C1307.88 338.137 1289.93 336.664 1279.1 328.671C1269.79 321.794 1260.58 315.021 1252.75 307.314C1243.17 297.888 1237.73 287.008 1231.09 276.383C1226.47 268.991 1221.02 261.73 1220.69 253.342C1219.86 231.927 1178.06 237.099 1161.71 243.453C1141.85 251.174 1127.67 254.746 1109 242.927C1090.69 231.338 1105.7 210.679 1119.54 202.316C1129.82 196.103 1124.43 194.669 1116.83 189.06C1102 178.108 1087.03 163.408 1066.83 157.813C1044.46 151.62 1023.62 155.919 1002.15 155.919C983.798 155.919 946.299 157.443 946.299 174.857C946.299 188.604 946.299 202.351 946.299 216.099C946.299 224.424 944.184 234.437 949.433 242.19C954.664 249.915 965.543 252.274 971.943 258.182C980.419 266.006 1018.83 266.551 1029.64 261.022C1042.73 254.333 1040.88 236.616 1036.62 226.409C1033.56 219.058 1033.99 217.736 1024.51 214.626C1012.71 210.751 996.891 212.732 984.195 212.732C969.347 212.732 955.432 209.499 941.17 208.944C931.236 208.558 927.593 204.371 918.09 203.368C895.21 200.955 883.321 216.519 862.812 216.519C827.169 216.519 823.206 196.954 823.206 174.857C823.206 160.326 829.874 144.547 848.851 137.403C857.924 133.987 879.884 129.527 889.881 134.141C910.057 143.453 928.348 156.131 928.348 174.436C928.348 188.201 934.018 206.367 913.531 212.311C892.731 218.346 833.865 238.918 825.628 213.574C822.61 204.288 818.077 197.258 818.077 187.377C818.077 181.676 815.575 176.824 812.949 171.49C806.275 157.938 803.59 139.004 814.373 126.356C820.441 119.24 829.798 94.3664 819.502 87.8497C805.296 78.8577 797.273 64.6428 782.175 55.9716C752.963 39.1929 740.1 71.5946 728.322 86.2716C722.454 93.5848 722.933 109.361 723.194 117.624C723.696 133.586 770.634 129.407 783.315 129.407C804.307 129.407 821.665 133.271 832.894 118.676C838.309 111.638 837.216 99.5649 838.023 91.7424C839.5 77.4247 838.593 62.8564 838.593 48.5018C838.593 39.7449 841.309 32.8258 855.119 32.8258C859.804 32.8258 862.685 41.6987 866.232 44.6091C872.661 49.8843 885.194 47.2466 892.303 50.9216C905.458 57.7217 935.878 55.5507 951.428 55.5507C966.299 55.5507 974.508 49.9586 974.508 38.9278C974.508 31.5877 972.855 23.8572 986.047 25.356C992.505 26.0896 997.541 30.0932 1004 30.8268C1011.05 31.6281 1017.34 30.8064 1023.23 34.7195C1036.67 43.6497 1044.44 59.5881 1046.03 72.4893C1047.44 83.9321 1051.68 105.04 1035.63 112.153C1018.07 119.932 987.496 127.975 966.814 122.884C944.052 117.281 932.276 98.2315 918.375 85.1143C903.784 71.3466 882.613 72.1481 860.248 72.5945C846.346 72.8719 842.345 85.6742 841.015 93.5309C838.667 107.399 830.683 117.485 846.856 128.986C858.491 137.26 877.089 135.088 891.591 135.088C921.243 135.088 951.385 136.446 980.776 133.615C1003.97 131.381 1031.29 128.242 1043.18 110.68C1051.71 98.0804 1051.53 83.4425 1064.12 72.5945C1076.1 62.2774 1086.63 53.2253 1103.87 46.9237C1119.33 41.2699 1146.73 31.0914 1165.41 32.931C1193.41 35.6872 1200.18 66.2916 1200.18 81.8528C1200.18 93.7396 1202.37 107.089 1191.06 116.782C1181.22 125.206 1160.16 134.526 1145.18 135.088C1122.93 135.924 1115.11 115.344 1107.29 103.315C1097.92 88.91 1087.34 77.9133 1087.34 61.232C1087.34 51.2143 1093.57 32.0889 1109 29.3539C1128.09 25.9701 1154.97 28.2317 1174.25 29.4591C1201.19 31.1742 1223.32 41.753 1235.51 59.7591C1242.84 70.5866 1242.98 86.3027 1241.21 98.2653C1239.49 109.911 1198.87 117.59 1187.21 122.042C1166.27 130.041 1147.74 140.073 1125.67 146.451C1117.48 148.818 1092.47 150.557 1092.47 159.286C1092.47 164.582 1101.53 168.977 1105.29 172.753C1113.79 181.282 1117.74 193.592 1130.94 199.16C1154.79 209.225 1180.15 203.007 1195.9 188.324C1210.86 174.381 1216.51 156.958 1222.12 139.928C1223.82 134.753 1235.47 115.465 1219.41 118.255C1200.59 121.526 1175.33 136.198 1169.97 149.817C1163.06 167.397 1176.86 180.514 1186.22 194.952C1194.75 208.122 1212.42 217.612 1228.1 225.883C1238.15 231.184 1251.3 241.138 1264.43 241.138C1274.58 241.138 1284.42 243.032 1294.63 243.032C1311.41 243.032 1352.17 248.852 1364.87 238.824C1374.24 231.43 1373.58 214.463 1371.42 205.157C1368.21 191.271 1348.34 177.04 1331.68 171.28C1320.41 167.386 1285.57 159.293 1277.11 169.702C1267.63 181.371 1264.45 194.936 1264.29 208.313C1264.08 225.33 1271.41 239.603 1274.55 256.288C1276.51 266.727 1276.81 277.658 1280.81 287.851C1287.66 305.252 1312.42 321.233 1337.52 312.68C1356.12 306.338 1370.6 292.139 1384.96 281.748C1403.09 268.625 1410.27 257.512 1410.46 238.824C1410.7 216.162 1406.11 194.466 1403.91 171.911C1401.8 150.259 1405 131.659 1384.53 114.573C1369.6 102.105 1349.23 94.5095 1332.96 83.2205C1323.35 76.556 1315.29 70.1509 1300.47 75.0143C1282.12 81.0399 1280.47 101.236 1279.82 113.731C1279.06 128.176 1282.43 141.023 1302.75 147.503C1361.69 166.296 1401.24 92.3871 1411.6 62.4945C1415.24 51.9882 1420.68 41.9016 1402.77 39.3487C1372.89 35.091 1341.8 27.4503 1311.59 25.6716C1290.3 24.4186 1249.88 17.8784 1246.48 39.2435C1244.02 54.6844 1279.17 64.6489 1295.92 60.8112C1305.73 58.561 1307.88 47.3827 1307.88 41.3476C1307.88 35.099 1290.9 36.6133 1284.8 36.6133" stroke="#F8FFF9" stroke-width="7" stroke-linecap="round" stroke-linejoin="round"/>
</svg>
