<svg width="1441" height="1012" viewBox="0 0 1441 1012" fill="none" xmlns="http://www.w3.org/2000/svg">
<rect x="0.211914" y="0.435547" width="1440" height="1007.62" fill="#F1FEFF"/>
<path d="M1007.15 527.318C979.201 535.847 950.084 543.783 931.084 561.765C919.086 573.12 904.036 606.436 914.891 620.818C925.291 634.598 953.556 647.584 973.572 654.281C1000.19 663.186 1024.47 668.947 1053.79 672.871C1066.75 674.606 1081.16 673.264 1092.72 669.481C1096.71 668.175 1103.22 665.107 1107.42 665.107C1114.47 665.107 1114.86 660.557 1119.46 658.764C1136.99 651.931 1112.01 620.79 1106.68 611.96C1102.18 604.512 1105.71 594.392 1098.66 587.901C1093.84 583.463 1088 572.936 1082.02 570.186C1075.5 567.185 1066.39 552.129 1065.98 547.002C1065.28 538.347 1058.82 533.735 1050.53 528.849C1044.28 525.172 1027.4 521.413 1019.18 521.413C1008.6 521.413 1011.52 506.668 1003.14 501.729C998.54 499.022 998.642 493.924 992.29 491.449C987.579 489.613 983.714 486.897 979.068 484.997C967.554 480.288 954.416 477.116 944.305 471.327C926.747 461.275 910.678 449.242 888.298 444.535C879.973 442.784 868.094 431.67 868.094 425.945C868.094 416.274 851.575 417.087 839.868 417.087C826.965 417.087 820.334 407.588 814.018 401.777C803.828 392.4 826.053 384.169 832.737 379.249C842.175 372.302 841.46 362.366 848.781 355.628C852.271 352.417 849.768 346.224 858.735 346.224C864.979 346.224 870.015 344.49 872.848 340.319C879.834 330.033 879.785 324.571 897.509 324.571C909.303 324.571 921.982 322.603 934.946 322.603C950.819 322.603 954.045 324.614 961.093 334.413C965.92 341.126 971.78 350.048 972.383 358.034C972.589 360.766 974.271 369.425 969.709 369.845C962.019 370.552 966.48 376.617 971.195 377.609C986.699 380.87 983.08 389.491 983.08 400.355C983.08 421.226 959.608 434.452 938.957 446.613C931.368 451.082 922.855 455.702 914.891 460.392C907.324 464.847 900.923 474.922 893.349 478.108C883.123 482.409 879.121 496.022 869.431 501.729C864.666 504.535 852.05 517.538 852.05 522.397C852.05 531.855 851.295 541.5 852.05 550.939C852.374 554.998 865.616 573.385 852.05 574.56C845.526 575.125 842.041 577.698 837.342 580.465C834.687 582.029 834.542 592.096 838.679 592.276C848.627 592.706 855.849 605.951 859.478 611.96C865.333 621.658 863.367 626.49 879.385 631.206C888.819 633.984 900.332 643.132 908.205 643.454C920.451 643.955 939.046 644.883 948.317 651.328C958.169 658.178 968.576 663.398 978.326 670.575C982.254 673.466 996.45 689.31 996.45 693.649C996.45 699.202 998.31 703.197 991.102 706.006C987.398 707.449 979.925 711.314 977.731 713.333C970.839 719.675 960.218 723.491 952.476 729.19C941.92 736.96 931.967 736.094 920.239 740.891C916.058 742.6 903.351 749.612 900.183 749.749C896.652 749.902 881.417 748.316 878.939 746.796C868.869 740.619 858.096 736.193 845.364 734.111C828.408 731.337 820.764 728.687 807.927 719.238C795.513 710.1 786.422 699.045 773.016 690.587C753.003 677.96 722.39 660.399 692.942 665.216C688.709 665.909 680.301 670.696 675.56 672.543C668.029 675.478 660.465 678.441 652.979 681.948C640.806 687.65 627.425 693.447 615.245 698.57C595.339 706.943 575.995 729.49 592.664 744.828C599.103 750.752 607.201 754.267 614.057 760.575C617.414 763.664 621.841 766.128 625.347 768.995C626.322 769.793 635.289 776.402 635.301 776.432C638.575 784.868 654.507 785.164 662.784 790.648C666.963 793.416 674.827 797.407 679.572 798.959C686.842 801.338 687.217 807.58 694.279 810.332C707.674 815.552 713.862 824.782 723.694 832.422C730.396 837.629 746.518 848.729 747.761 856.043C748.378 859.679 757.199 863.431 759.794 866.869C763.291 871.503 761.432 875.074 767.073 879.227C775.119 885.149 786.869 886.085 792.626 891.912C797.122 896.463 792.119 907.529 785.346 909.19C777.908 911.015 771.797 911.159 763.805 911.159C748.652 911.159 733.499 911.159 718.346 911.159C710.748 911.159 703.599 909.478 696.953 909.19C692.695 909.006 687.943 908.912 683.731 909.3C677.303 909.891 676.285 915.095 669.024 915.095C654.762 915.095 640.5 915.095 626.239 915.095C613.191 915.095 598.591 915.11 585.979 917.173C580.539 918.063 572.144 920.093 568.003 922.532C565.172 924.199 561.003 928.874 556.564 928.874C542.992 928.874 540.34 941.913 524.624 938.607C522.468 938.154 519.021 930.234 515.116 928.437C509.776 925.98 505.282 922.969 497.734 922.969C492.136 922.969 464.779 920.941 461.634 918.048C450.904 908.175 476.201 905.115 484.364 900.442C493.417 895.258 500.344 891.334 505.014 883.601C507.134 880.089 512.442 872.413 512.442 868.838C512.442 862.584 519.711 859.062 520.464 854.075C521.73 845.687 536.251 838.775 547.205 838.327C559.96 837.806 578.07 831.742 589.99 828.048C596.888 825.91 608.202 820.612 615.394 820.612C617.353 820.612 621.133 817.65 620.89 819.081C620.487 821.454 613.899 823.288 611.383 824.111C600.87 827.55 584.909 830.005 573.945 830.454C560.667 830.997 550.547 836.359 536.508 836.359C521.413 836.359 533.208 820.581 533.834 812.738C534.21 808.037 551.702 791.085 556.564 791.085C569.934 791.085 583.305 791.085 596.675 791.085C606.824 791.085 627.427 786.942 627.427 778.291C627.427 768.203 619.826 764.038 607.52 761.45C603.311 760.565 600.455 753.907 595.338 753.686C587.769 753.358 582.278 754.4 575.283 755.545C569.17 756.545 561.29 759.243 555.227 761.122C550.187 762.684 545.385 761.671 540.668 764.512C536.848 766.812 532.132 770.477 527.149 771.292C504.152 775.054 463.378 763.032 445.738 778.181C441.258 782.029 432.711 781.993 428.208 787.149C423.937 792.04 420.33 793.057 415.581 796.553C408.426 801.819 414.817 816.55 420.929 821.049C426.923 825.461 436.577 838.035 437.567 844.233C439.6 856.948 454.238 866.43 461.04 877.696C465.833 885.635 471.176 900.242 469.656 909.19C469.029 912.883 459.301 900.336 457.623 899.348C451.968 896.018 453.029 890.409 445.59 887.975C422.341 880.369 397.566 881.632 370.716 881.632C362.776 881.632 359.844 882.819 356.751 877.696C354.547 874.045 350.273 870.507 349.174 866.869C346.24 857.151 338.627 849.251 338.627 839.312C338.627 828.256 337.414 817.946 353.334 812.738C358.873 810.926 389.434 805.702 389.434 803.88C389.434 794.289 368.747 793.054 358.682 793.054C342.623 793.054 326.046 782.166 310.697 778.4C299.448 775.64 289.288 775.666 277.717 775.338C272.322 775.185 259.18 774.343 254.393 772.385C245.654 768.812 220.216 762.67 215.619 756.747C212.539 752.78 202.052 752.087 196.9 750.733C187.632 748.296 188.185 744.81 180.856 741.438C175.638 739.037 170.512 720.959 170.16 716.286C169.293 704.799 160.883 693.95 178.182 688.29C189.037 684.739 206.283 686.208 215.025 680.417C220.467 676.811 219.407 672.57 221.116 668.169C222.025 665.827 236.686 667.075 239.686 667.075C250.949 667.075 273.857 668.775 282.471 663.138C291.77 657.054 307.754 657.233 319.908 657.233C329.67 657.233 353.488 654.044 360.613 658.764C370.82 665.526 377.878 668.127 378.738 678.886C379.255 685.363 384.086 674.783 384.086 671.996C384.086 668.541 381.86 659.58 386.76 657.671C395.926 654.099 411.141 651.328 421.523 651.328C434.752 651.328 450.938 643.842 450.938 659.202C450.938 667.405 445.34 663.369 440.242 668.06C437.027 671.017 434.893 676.848 434.893 680.854C434.893 697.31 428.039 713.725 426.871 730.065C426.51 735.113 426.021 738.652 424.346 742.969C423.245 745.803 423.279 753.054 420.929 755.216C408.545 766.611 432.037 771.5 440.836 775.338C456.262 782.067 477.629 781.243 495.06 781.243C511.697 781.243 517.917 765.328 524.475 756.638C541.345 734.286 525.944 709.685 506.054 691.79C495.975 682.722 482.168 674.535 470.845 666.2C465.265 662.093 463.816 659.457 464.308 653.296C464.603 649.606 480.202 651.328 484.364 651.328C495.852 651.328 517.088 654.458 527.149 650.344C539.439 645.318 538.689 636.441 533.834 626.613C529.449 617.737 528.486 603.37 528.486 594.244C528.486 583.834 533.834 576.442 533.834 566.686C533.834 557.69 535.197 548.14 533.686 539.238C532.695 533.406 528.486 529.639 528.486 523.381C528.486 508.049 529.602 496.223 544.531 484.013C557.655 473.278 572.688 469.001 592.664 468.265C604.301 467.837 628.167 467.127 637.529 472.64C650.178 480.088 652.581 485.321 658.922 495.823C660.499 498.436 661.02 506.157 663.527 507.634C666.207 509.212 670.019 514.91 670.212 517.476C671.337 532.373 685.376 573.501 655.505 578.387C640.264 580.88 624.441 584.556 610.194 589.323C605.323 590.953 595.181 592.063 589.99 592.276C582.957 592.563 574.092 596.392 567.409 598.181C556.039 601.224 541.857 610.146 541.857 618.849C541.857 631.232 542.323 634.174 553.741 642.579C563.638 649.864 565.95 661.17 583.305 661.17C593.529 661.17 615.365 669.791 624.604 664.123C635.487 657.447 650.962 661.102 662.19 653.296C674.43 644.787 672.886 637.725 672.886 625.739C672.886 621.034 675.56 616.845 675.56 612.944C675.56 606.338 681.422 608.023 688.931 608.023C705.193 608.023 714.487 606.49 726.368 598.181C732.419 593.949 747.705 591.928 750.286 585.277C751.569 581.971 755.449 579.352 759.051 576.966C772.519 568.044 782.349 561.111 787.278 547.002C792.806 531.176 798.354 518.041 808.67 503.697C814.846 495.109 827.983 491.462 827.983 480.076C827.983 473.106 831.133 456.455 815.95 456.455C805.68 456.455 803.129 442.42 792.031 444.754C779.324 447.426 761.59 446.208 750.435 453.393C745.117 456.818 731.91 458.091 724.882 460.829C719.497 462.928 709.928 466.297 703.638 466.297C691.042 466.297 680.549 472.202 668.875 472.202C653.428 472.202 651.11 462.844 636.786 460.501C622.046 458.09 619.311 435.42 639.46 443.66C649.606 447.809 665.107 446.613 676.898 446.613C704.298 446.613 729.027 440.708 755.783 440.708C759.893 440.708 771.829 442.182 774.501 439.723C777.973 436.529 780.57 431.416 785.198 429.335C799.2 423.036 801.242 414.283 801.242 403.308C801.242 394.799 801.202 382.702 795.3 375.75C791.501 371.275 754.507 371.813 747.761 371.813C729.483 371.813 714.385 365.908 696.953 365.908C685.367 365.908 655.923 361.792 654.168 350.161C653.034 342.647 649.206 335.318 648.82 327.633C648.449 320.264 647.967 307.928 639.46 302.919C623.742 293.662 658.899 291.598 663.379 290.999C695.528 286.696 729.347 285.203 762.617 285.203C780.073 285.203 796.771 285.412 813.276 287.281C833.374 289.557 853.104 294.56 872.254 297.123C881.241 298.326 887.2 302.919 896.915 302.919C904.689 302.919 912.464 302.919 920.239 302.919C939.283 302.919 959.63 304.725 977.731 299.966C994.657 295.517 1012.49 291.739 1012.49 276.345C1012.49 268.542 1019.98 256.346 1031.81 255.677C1034.4 255.53 1048.67 251.915 1049.93 250.756C1050.36 250.357 1065.68 265.614 1070.14 267.487C1082.1 272.519 1085.78 285.648 1096.73 290.124C1105.33 293.64 1105.57 297.984 1106.09 304.887C1106.35 308.364 1109.26 310.805 1108.61 314.62C1108 318.252 1103.41 319.797 1103.41 323.587C1103.41 331.458 1079.37 335.601 1072.66 339.444C1062.44 345.295 1043.4 352.737 1029.88 347.208C1012.1 339.938 1016.55 321.872 1002.99 311.886C990.376 302.603 998.088 306.276 1006.55 313.198C1013.42 318.817 1019.22 323.991 1025.72 330.367C1034.69 339.172 1036.18 349.154 1041.91 358.909C1049.66 372.106 1045.7 388.048 1028.54 394.997C1016.84 399.733 1005.01 402.51 993.924 408.12C989.147 410.537 966.662 421.32 984.565 415.118C997.059 410.79 1009.33 409.213 1023.19 409.213C1037.26 409.213 1044.08 408.437 1053.94 416.977C1060.31 422.491 1069.02 428.075 1076.08 433.271C1082.5 437.998 1102.91 448.747 1090.04 452.956C1078.77 456.642 1056.35 452.878 1055.28 466.297C1054.39 477.425 1046.35 486.922 1031.21 490.902C1011.49 496.087 1004.47 494.274 1004.47 510.586C1004.47 517.315 1002.52 520.458 1011.9 522.944C1018.7 524.745 1020.17 527.298 1024.53 531.145C1028.97 535.071 1035.27 536.409 1038.64 541.097C1041.2 544.661 1049.12 549.362 1053.94 550.939C1072.87 557.132 1095.86 558.813 1116.93 558.813C1120.58 558.813 1126.76 559.698 1130.15 558.375C1134.51 556.676 1130.84 553.273 1133.42 551.376C1136.78 548.901 1150.1 550.09 1151.4 545.799C1155.83 531.116 1159.26 505.522 1144.71 492.871C1136.26 485.519 1124.14 479.677 1113.52 474.171C1106.82 470.701 1094.14 464.793 1090.04 459.517C1080.55 447.291 1104.59 448.581 1116.78 448.581C1132.88 448.581 1150.18 449.483 1165.51 452.956C1175.27 455.166 1184.6 453.776 1194.63 454.596C1207.66 455.662 1218.01 458.423 1231.77 458.423C1251.76 458.423 1283.29 453.854 1301.29 460.829C1323.54 469.447 1338.22 487.142 1352.1 502.166C1359.37 510.031 1366.56 514.334 1372.16 523.49C1375.88 529.573 1381.25 540.282 1381.52 547.002C1381.76 553.125 1383.56 559.738 1376.02 563.624C1367.77 567.876 1355.93 568.452 1347.35 572.591C1332.75 579.633 1322.34 587.365 1305.31 591.182C1292.2 594.117 1274.76 592.532 1261.18 592.276C1231.35 591.712 1205.77 576.397 1179.48 568.655C1168.08 565.298 1122.13 541.528 1122.13 561.875C1122.13 571.214 1129.49 575.553 1132.23 584.402C1135.26 594.149 1132.83 605.918 1132.83 615.897C1132.83 624.304 1119.9 626.122 1111.44 629.238C1102.23 632.627 1103.41 639.776 1103.41 646.407C1103.41 658.673 1108.76 655.727 1108.76 645.423C1108.76 641.426 1106.01 629.951 1110.25 626.832C1115.57 622.917 1136.26 623.365 1143.52 622.239C1158 619.996 1173.49 621.357 1187.8 618.849C1208.5 615.22 1244.88 614.764 1262.52 624.864C1280.05 634.902 1283.22 662.356 1269.21 673.965C1255.56 685.268 1258.51 699.809 1258.51 714.317C1258.51 723.754 1241.65 729.828 1231.47 734.111C1223.24 737.572 1206.28 747.501 1196.41 747.78C1185.98 748.076 1172.85 749.293 1163.43 745.593C1151.37 740.857 1142.38 730.183 1130.75 724.159C1094.89 705.583 1050.15 706.444 1007.15 706.444C967.736 706.444 934.946 738.564 934.946 765.933C934.946 788.133 949.997 798.155 978.92 803.333C994.682 806.156 1030.58 808.046 1035.97 793.054C1041.03 778.962 1007.6 765.496 1037.9 765.496C1046.06 765.496 1094.18 769.791 1095.24 766.262C1099.85 751.004 1076.58 749.503 1064.49 741.875C1056.36 736.742 1052.65 728.833 1049.93 721.316C1045.94 710.296 1051.99 710.991 1060.03 718.692C1069.64 727.888 1073.79 740.462 1084.69 749.639C1091.4 755.282 1100.45 765.133 1108.76 768.995C1117.89 773.239 1127.96 776.14 1136.99 780.368C1155.4 788.993 1183.52 787.149 1205.03 787.149C1245.49 787.149 1357.45 760.62 1357.45 812.629C1357.45 818.091 1359.71 829.455 1348.83 830.344C1316.54 832.986 1284.45 836.798 1251.68 836.359C1236.96 836.162 1221.97 831.942 1215.72 821.596C1213.11 817.263 1209.41 809.328 1202.95 815.144C1196.73 820.738 1195.25 828.54 1184.97 831.329C1165.55 836.597 1138.67 834.39 1118.27 834.39C1109.21 834.39 1084.49 830.795 1079.35 839.312C1074.87 846.724 1067.91 852.964 1060.63 858.886C1052.22 865.729 1039.7 877.397 1026.61 879.664C1020.44 880.732 984.078 885.594 983.08 891.475C982.248 896.371 977.731 900.282 977.731 906.128C977.731 911.086 977.731 916.043 977.731 921.001C977.731 932.694 993.135 944.024 1001.5 953.261C1011.56 964.363 1026.33 973.229 1033.89 985.521C1041.03 997.143 1056.22 999.737 1071.92 999.737C1094.61 999.737 1113.48 993.649 1130.15 982.022C1147.09 970.211 1162.38 951.04 1186.9 947.028C1216.74 942.147 1250.04 939.892 1250.49 912.033C1250.55 907.808 1254.21 872.996 1249 871.9C1245.02 871.063 1234.62 886.344 1231.77 889.069C1224.07 896.436 1208.45 902.003 1198.05 907.331C1170.66 921.357 1144.17 923.152 1112.62 926.469C1093.51 928.478 1124.15 926.906 1130.15 926.906C1149.15 926.906 1162.6 921.137 1179.48 915.095C1214.49 902.558 1235.97 882.581 1220.48 853.637C1215.82 844.929 1179.89 816.277 1167.59 834.39" stroke="#F0FEFF" stroke-width="7" stroke-linecap="round" stroke-linejoin="round"/>
<path d="M1042.1 499.435C1014.15 507.965 985.038 515.9 966.038 533.882C954.04 545.237 938.991 578.553 949.845 592.935C960.245 606.716 988.511 619.701 1008.53 626.398C1035.14 635.303 1059.42 641.064 1088.75 644.988C1101.71 646.723 1116.11 645.381 1127.67 641.598C1131.66 640.293 1138.17 637.224 1142.38 637.224C1149.43 637.224 1149.81 632.674 1154.41 630.881C1171.95 624.048 1146.97 592.908 1141.64 584.077C1137.14 576.629 1140.67 566.509 1133.61 560.018C1128.79 555.58 1122.95 545.053 1116.97 542.303C1110.45 539.302 1101.34 524.246 1100.93 519.119C1100.24 510.464 1093.78 505.852 1085.48 500.966C1079.24 497.289 1062.35 493.53 1054.13 493.53C1043.56 493.53 1046.48 478.785 1038.09 473.846C1033.49 471.14 1033.6 466.041 1027.24 463.566C1022.53 461.73 1018.67 459.014 1014.02 457.114C1002.51 452.405 989.37 449.233 979.26 443.445C961.701 433.392 945.632 421.359 923.252 416.652C914.928 414.901 903.048 403.787 903.048 398.062C903.048 388.391 886.529 389.204 874.822 389.204C861.92 389.204 855.288 379.705 848.972 373.894C838.782 364.517 861.008 356.286 867.691 351.367C877.13 344.419 876.414 334.483 883.736 327.746C887.226 324.534 884.722 318.341 893.689 318.341C899.933 318.341 904.969 316.607 907.802 312.436C914.788 302.151 914.739 296.688 932.463 296.688C944.257 296.688 956.936 294.72 969.9 294.72C985.773 294.72 988.999 296.731 996.047 306.531C1000.87 313.243 1006.73 322.165 1007.34 330.151C1007.54 332.883 1009.23 341.542 1004.66 341.962C996.973 342.67 1001.43 348.735 1006.15 349.726C1021.65 352.987 1018.03 361.609 1018.03 372.472C1018.03 393.343 994.562 406.569 973.911 418.73C966.322 423.199 957.809 427.819 949.845 432.509C942.279 436.965 935.877 447.039 928.304 450.225C918.077 454.526 914.075 468.14 904.385 473.846C899.62 476.652 887.004 489.655 887.004 494.514C887.004 503.972 886.25 513.617 887.004 523.056C887.328 527.116 900.57 545.502 887.004 546.677C880.48 547.242 876.995 549.815 872.296 552.582C869.641 554.146 869.497 564.214 873.633 564.393C883.582 564.824 890.804 578.068 894.432 584.077C900.287 593.775 898.321 598.607 914.339 603.324C923.773 606.101 935.286 615.25 943.16 615.572C955.405 616.072 974 617 983.271 623.445C993.124 630.295 1003.53 635.515 1013.28 642.692C1017.21 645.584 1031.4 661.427 1031.4 665.766C1031.4 671.319 1033.26 675.314 1026.06 678.123C1022.35 679.567 1014.88 683.432 1012.69 685.45C1005.79 691.792 995.173 695.608 987.43 701.307C976.874 709.077 966.921 708.212 955.193 713.008C951.013 714.718 938.306 721.729 935.137 721.866C931.607 722.019 916.371 720.433 913.893 718.913C903.824 712.736 893.05 708.311 880.319 706.228C863.362 703.454 855.718 700.804 842.882 691.355C830.468 682.217 821.376 671.162 807.97 662.704C787.957 650.077 757.344 632.516 727.896 637.333C723.664 638.026 715.255 642.813 710.515 644.66C702.983 647.595 695.419 650.558 687.934 654.065C675.76 659.767 662.379 665.564 650.199 670.687C630.293 679.06 610.95 701.607 627.618 716.945C634.057 722.869 642.155 726.384 649.011 732.692C652.368 735.781 656.795 738.245 660.301 741.113C661.277 741.91 670.243 748.519 670.255 748.549C673.529 756.985 689.461 757.281 697.739 762.765C701.917 765.533 709.781 769.524 714.526 771.076C721.796 773.455 722.171 779.697 729.233 782.449C742.628 787.669 748.816 796.9 758.648 804.539C765.35 809.746 781.473 820.846 782.715 828.16C783.332 831.796 792.153 835.548 794.748 838.987C798.245 843.62 796.386 847.191 802.028 851.344C810.073 857.266 821.823 858.202 827.58 864.029C832.076 868.58 827.073 879.646 820.3 881.307C812.862 883.133 806.751 883.276 798.759 883.276C783.606 883.276 768.453 883.276 753.3 883.276C745.702 883.276 738.554 881.595 731.907 881.307C727.649 881.123 722.897 881.029 718.685 881.417C712.257 882.008 711.239 887.213 703.978 887.213C689.716 887.213 675.455 887.213 661.193 887.213C648.145 887.213 633.545 887.227 620.933 889.29C615.493 890.18 607.098 892.21 602.957 894.649C600.126 896.316 595.957 900.992 591.518 900.992C577.946 900.992 575.294 914.03 559.578 910.724C557.422 910.271 553.975 902.351 550.07 900.554C544.73 898.097 540.236 895.086 532.688 895.086C527.09 895.086 499.733 893.059 496.588 890.165C485.859 880.292 511.155 877.233 519.318 872.559C528.371 867.376 535.299 863.451 539.968 855.718C542.088 852.206 547.396 844.53 547.396 840.955C547.396 834.701 554.665 831.179 555.418 826.192C556.684 817.804 571.205 810.892 582.159 810.444C594.914 809.923 613.024 803.86 624.944 800.165C631.842 798.027 643.156 792.729 650.348 792.729C652.307 792.729 656.088 789.767 655.845 791.198C655.442 793.571 648.853 795.405 646.337 796.228C635.825 799.667 619.863 802.122 608.9 802.571C595.621 803.114 585.501 808.476 571.463 808.476C556.367 808.476 568.162 792.699 568.789 784.855C569.164 780.155 586.656 763.203 591.518 763.203C604.889 763.203 618.259 763.203 631.629 763.203C641.778 763.203 662.381 759.06 662.381 750.408C662.381 740.321 654.78 736.155 642.474 733.567C638.265 732.682 635.409 726.024 630.292 725.803C622.723 725.475 617.232 726.517 610.237 727.662C604.124 728.662 596.244 731.36 590.181 733.239C585.141 734.801 580.339 733.788 575.622 736.629C571.802 738.93 567.086 742.594 562.103 743.409C539.106 747.171 498.332 735.149 480.692 750.298C476.212 754.146 467.665 754.11 463.162 759.266C458.891 764.157 455.285 765.174 450.535 768.67C443.381 773.937 449.771 788.667 455.883 793.166C461.877 797.579 471.531 810.153 472.522 816.35C474.554 829.065 489.192 838.547 495.994 849.813C500.788 857.752 506.13 872.36 504.611 881.307C503.983 885.001 494.256 872.454 492.577 871.465C486.922 868.135 487.983 862.526 480.544 860.092C457.296 852.486 432.52 853.75 405.67 853.75C397.73 853.75 394.799 854.936 391.705 849.813C389.501 846.162 385.227 842.625 384.129 838.987C381.195 829.268 373.581 821.368 373.581 811.429C373.581 800.373 372.368 790.064 388.288 784.855C393.827 783.043 424.388 777.819 424.388 775.997C424.388 766.406 403.701 765.171 393.636 765.171C377.577 765.171 361 754.283 345.652 750.517C334.403 747.757 324.242 747.783 312.671 747.455C307.276 747.303 294.134 746.46 289.347 744.503C280.608 740.929 255.17 734.787 250.573 728.865C247.493 724.897 237.007 724.204 231.855 722.85C222.586 720.413 223.139 716.927 215.81 713.555C210.592 711.154 205.467 693.076 205.114 688.403C204.247 676.916 195.837 666.067 213.136 660.408C223.991 656.856 241.237 658.325 249.979 652.534C255.421 648.929 254.362 644.687 256.07 640.286C256.979 637.944 271.64 639.192 274.64 639.192C285.903 639.192 308.811 640.892 317.425 635.256C326.724 629.171 342.708 629.35 354.862 629.35C364.625 629.35 388.442 626.161 395.568 630.881C405.774 637.643 412.832 640.244 413.692 651.003C414.21 657.48 419.04 646.9 419.04 644.113C419.04 640.658 416.814 631.697 421.714 629.788C430.88 626.216 446.095 623.445 456.477 623.445C469.706 623.445 485.892 615.959 485.892 631.319C485.892 639.522 480.294 635.486 475.196 640.177C471.981 643.135 469.848 648.966 469.848 652.971C469.848 669.427 462.994 685.842 461.825 702.182C461.464 707.231 460.975 710.769 459.3 715.086C458.2 717.92 458.234 725.171 455.883 727.334C443.499 738.728 466.991 743.617 475.79 747.455C491.216 754.184 512.583 753.36 530.014 753.36C546.651 753.36 552.871 737.445 559.429 728.755C576.299 706.403 560.898 681.802 541.008 663.907C530.93 654.84 517.122 646.653 505.799 638.318C500.22 634.21 498.77 631.574 499.262 625.414C499.557 621.723 515.156 623.445 519.318 623.445C530.806 623.445 552.042 626.576 562.103 622.461C574.393 617.435 573.643 608.558 568.789 598.731C564.403 589.854 563.44 575.487 563.44 566.361C563.44 555.951 568.789 548.559 568.789 538.803C568.789 529.807 570.152 520.257 568.64 511.355C567.65 505.523 563.44 501.756 563.44 495.498C563.44 480.166 564.556 468.34 579.485 456.13C592.609 445.396 607.642 441.118 627.618 440.383C639.256 439.954 663.121 439.244 672.483 444.757C685.132 452.206 687.535 457.438 693.876 467.94C695.453 470.553 695.974 478.275 698.481 479.751C701.162 481.329 704.973 487.027 705.167 489.593C706.291 504.491 720.33 545.618 690.459 550.504C675.218 552.998 659.396 556.673 645.148 561.44C640.277 563.07 630.135 564.18 624.944 564.393C617.911 564.68 609.046 568.509 602.363 570.298C590.993 573.342 576.811 582.263 576.811 590.966C576.811 603.349 577.277 606.291 588.696 614.697C598.592 621.982 600.904 633.287 618.259 633.287C628.484 633.287 650.319 641.908 659.559 636.24C670.442 629.564 685.916 633.219 697.144 625.414C709.384 616.904 707.841 609.842 707.841 597.856C707.841 593.151 710.515 588.963 710.515 585.061C710.515 578.455 716.376 580.14 723.885 580.14C740.148 580.14 749.441 578.607 761.322 570.298C767.373 566.067 782.659 564.045 785.24 557.394C786.523 554.089 790.403 551.469 794.005 549.083C807.473 540.161 817.303 533.228 822.232 519.119C827.76 503.293 833.308 490.158 843.624 475.814C849.801 467.226 862.937 463.579 862.937 452.193C862.937 445.223 866.087 428.572 850.904 428.572C840.634 428.572 838.083 414.537 826.986 416.871C814.278 419.544 796.544 418.325 785.389 425.51C780.071 428.935 766.864 430.208 759.837 432.946C754.451 435.045 744.882 438.414 738.593 438.414C725.996 438.414 715.503 444.319 703.829 444.319C688.382 444.319 686.064 434.961 671.741 432.618C657.001 430.207 654.265 407.537 674.415 415.777C684.56 419.927 700.061 418.73 711.852 418.73C739.252 418.73 763.981 412.825 790.737 412.825C794.848 412.825 806.783 414.3 809.456 411.841C812.927 408.647 815.525 403.533 820.152 401.452C834.155 395.153 836.196 386.4 836.196 375.425C836.196 366.916 836.156 354.819 830.254 347.867C826.455 343.393 789.461 343.93 782.715 343.93C764.438 343.93 749.339 338.025 731.907 338.025C720.322 338.025 690.878 333.909 689.122 322.278C687.988 314.764 684.161 307.435 683.774 299.75C683.403 292.381 682.921 280.045 674.415 275.036C658.696 265.779 693.853 263.716 698.333 263.116C730.482 258.813 764.302 257.32 797.571 257.32C815.027 257.32 831.725 257.529 848.23 259.398C868.328 261.674 888.059 266.677 907.208 269.24C916.196 270.443 922.155 275.036 931.869 275.036C939.644 275.036 947.418 275.036 955.193 275.036C974.237 275.036 994.585 276.842 1012.69 272.083C1029.61 267.634 1047.45 263.856 1047.45 248.462C1047.45 240.66 1054.93 228.464 1066.76 227.794C1069.36 227.647 1083.63 224.033 1084.89 222.873C1085.32 222.474 1100.64 237.731 1105.09 239.604C1117.05 244.636 1120.74 257.765 1131.68 262.241C1140.28 265.758 1140.52 270.101 1141.04 277.004C1141.3 280.482 1144.21 282.922 1143.57 286.737C1142.95 290.369 1138.37 291.914 1138.37 295.704C1138.37 303.575 1114.33 307.718 1107.62 311.561C1097.4 317.412 1078.35 324.854 1064.83 319.325C1047.05 312.055 1051.51 293.989 1037.94 284.003C1025.33 274.72 1033.04 278.393 1041.51 285.315C1048.38 290.934 1054.17 296.108 1060.67 302.484C1069.64 311.289 1071.13 321.271 1076.86 331.026C1084.62 344.223 1080.66 360.165 1063.49 367.114C1051.79 371.85 1039.96 374.627 1028.88 380.237C1024.1 382.654 1001.62 393.437 1019.52 387.235C1032.01 382.908 1044.29 381.33 1058.14 381.33C1072.22 381.33 1079.04 380.554 1088.9 389.095C1095.26 394.608 1103.97 400.192 1111.03 405.389C1117.45 410.115 1137.86 420.864 1125 425.073C1113.73 428.759 1091.31 424.995 1090.23 438.414C1089.34 449.542 1081.31 459.039 1066.17 463.019C1046.44 468.205 1039.43 466.391 1039.43 482.704C1039.43 489.432 1037.47 492.575 1046.85 495.061C1053.65 496.862 1055.13 499.415 1059.48 503.263C1063.93 507.188 1070.22 508.526 1073.6 513.214C1076.16 516.778 1084.08 521.479 1088.9 523.056C1107.83 529.249 1130.82 530.93 1151.89 530.93C1155.54 530.93 1161.71 531.815 1165.11 530.492C1169.47 528.793 1165.8 525.391 1168.38 523.493C1171.74 521.018 1185.06 522.207 1186.35 517.916C1190.78 503.233 1194.21 477.64 1179.67 464.988C1171.22 457.636 1159.1 451.794 1148.47 446.288C1141.77 442.819 1129.09 436.91 1125 431.634C1115.51 419.408 1139.55 420.699 1151.74 420.699C1167.84 420.699 1185.13 421.6 1200.47 425.073C1210.23 427.283 1219.55 425.893 1229.58 426.713C1242.62 427.779 1252.96 430.541 1266.72 430.541C1286.72 430.541 1318.24 425.971 1336.25 432.946C1358.49 441.565 1373.18 459.259 1387.06 474.283C1394.32 482.149 1401.51 486.451 1407.11 495.608C1410.83 501.69 1416.2 512.399 1416.47 519.119C1416.72 525.242 1418.52 531.855 1410.97 535.741C1402.72 539.993 1390.89 540.569 1382.3 544.709C1367.7 551.75 1357.3 559.482 1340.26 563.299C1327.16 566.235 1309.71 564.649 1296.14 564.393C1266.3 563.83 1240.72 548.514 1214.43 540.772C1203.03 537.415 1157.09 513.645 1157.09 533.992C1157.09 543.332 1164.44 547.671 1167.19 556.519C1170.21 566.266 1167.78 578.036 1167.78 588.014C1167.78 596.422 1154.86 598.239 1146.39 601.355C1137.18 604.744 1138.37 611.893 1138.37 618.524C1138.37 630.791 1143.72 627.844 1143.72 617.54C1143.72 613.544 1140.96 602.068 1145.2 598.949C1150.52 595.034 1171.21 595.482 1178.48 594.356C1192.95 592.114 1208.44 593.474 1222.75 590.966C1243.46 587.337 1279.83 586.881 1297.47 596.981C1315.01 607.02 1318.18 634.474 1304.16 646.082C1290.51 657.385 1293.46 671.926 1293.46 686.434C1293.46 695.871 1276.61 701.945 1266.43 706.228C1258.2 709.689 1241.24 719.618 1231.37 719.897C1220.94 720.193 1207.81 721.41 1198.39 717.71C1186.32 712.974 1177.33 702.3 1165.7 696.276C1129.84 677.7 1085.1 678.561 1042.1 678.561C1002.69 678.561 969.9 710.681 969.9 738.051C969.9 760.25 984.951 770.272 1013.87 775.45C1029.64 778.273 1065.53 780.163 1070.92 765.171C1075.99 751.079 1042.56 737.613 1072.85 737.613C1081.02 737.613 1129.13 741.908 1130.2 738.379C1134.8 723.121 1111.53 721.62 1099.44 713.992C1091.31 708.859 1087.61 700.95 1084.89 693.433C1080.89 682.414 1086.94 683.108 1094.99 690.809C1104.6 700.006 1108.74 712.579 1119.65 721.757C1126.36 727.399 1135.41 737.25 1143.72 741.113C1152.84 745.356 1162.91 748.257 1171.94 752.486C1190.35 761.11 1218.47 759.266 1239.98 759.266C1280.45 759.266 1392.4 732.737 1392.4 784.746C1392.4 790.208 1394.66 801.572 1383.79 802.461C1351.49 805.103 1319.4 808.915 1286.63 808.476C1271.91 808.279 1256.93 804.059 1250.68 793.713C1248.06 789.38 1244.37 781.445 1237.9 787.261C1231.68 792.855 1230.21 800.657 1219.93 803.446C1200.5 808.714 1173.62 806.508 1153.22 806.508C1144.16 806.508 1119.44 802.912 1114.3 811.429C1109.82 818.842 1102.86 825.081 1095.58 831.003C1087.17 837.846 1074.65 849.514 1061.56 851.781C1055.4 852.849 1019.03 857.711 1018.03 863.592C1017.2 868.488 1012.69 872.4 1012.69 878.245C1012.69 883.203 1012.69 888.16 1012.69 893.118C1012.69 904.811 1028.09 916.141 1036.46 925.378C1046.51 936.48 1061.29 945.346 1068.84 957.638C1075.98 969.26 1091.17 971.854 1106.87 971.854C1129.56 971.854 1148.43 965.766 1165.11 954.139C1182.04 942.329 1197.33 923.157 1221.86 919.145C1251.69 914.264 1285 912.009 1285.44 884.151C1285.51 879.926 1289.17 845.113 1283.96 844.017C1279.98 843.18 1269.57 858.461 1266.72 861.186C1259.02 868.553 1243.41 874.12 1233 879.448C1205.61 893.474 1179.12 895.269 1147.58 898.586C1128.47 900.595 1159.1 899.023 1165.11 899.023C1184.1 899.023 1197.56 893.255 1214.43 887.213C1249.44 874.675 1270.92 854.698 1255.43 825.754C1250.77 817.046 1214.85 788.394 1202.55 806.508" stroke="#F8FEFF" stroke-width="7" stroke-linecap="round" stroke-linejoin="round"/>
<path d="M111.44 321.942C90.0595 327.256 70.2072 329.159 57.542 343.143C48.9454 352.635 44.7091 361.093 44.7091 373.057C44.7091 403.344 52.2027 431.636 79.2153 455.136C85.8609 460.917 90.0771 474.973 102.457 474.973C113.383 474.973 115.897 462.401 118.569 456.5C128.726 434.071 142.239 408.477 142.239 384.708C142.239 373.578 145.904 361.616 125.556 361.616C104.349 361.616 97.9732 362.428 82.067 372.007C67.2691 380.92 51.3161 390.515 42.7129 403.18C41.4348 405.062 42.0825 417.996 40.8593 416.196C36.807 410.23 29.6924 404.976 29.3097 397.933C28.9472 391.262 32.5724 391.827 39.576 389.536C47.9717 386.789 55.6177 378.147 63.9584 373.897C70.1082 370.763 77.0517 368.82 83.0652 365.5C90.2863 361.513 101.129 362.35 109.444 358.678C124.439 352.055 145.847 352.17 162.629 352.17C181.056 352.17 183.304 358.632 183.304 371.063C183.304 386.38 185.871 400.785 185.871 415.986C185.871 429.801 184.42 443.981 188.437 457.55C190.282 463.78 197.75 488.198 210.396 488.198C229.278 488.198 242.523 490.034 260.872 484.839C272.32 481.598 273.874 471.418 279.693 464.687C291.335 451.22 290.203 435.258 297.517 420.184C306.006 402.687 289.073 403.18 271.851 403.18C264.02 403.18 250.187 401.087 243.476 404.23C236.366 407.561 231.996 411.601 224.369 414.096C211.878 418.183 194.908 419.463 185.3 427.321C169.088 440.581 203.837 457.156 203.837 472.139C203.837 478.618 198.704 483.92 198.704 490.507C198.704 497.504 195.087 509.445 189.863 515.488C175.092 532.574 130.891 525.984 106.307 525.984C90.7131 525.984 91.8067 527.571 83.2077 536.899C74.2361 546.632 67.8083 555.346 67.8083 567.548C67.8083 583.989 70.3801 590.219 93.6166 590.219C121.483 590.219 149.966 592.108 178.171 592.108C196.868 592.108 206.18 591.369 217.24 581.193C228.815 570.542 219.51 552.909 216.812 540.993C215.679 535.987 213.954 531.564 208.4 528.293C205.147 526.377 186.604 524.566 186.013 523.045C181.159 510.538 218.304 514.648 226.936 514.648C235.773 514.648 240.321 513.365 244.902 519.266C248.966 524.502 256.768 525.037 262.298 528.293C269.595 532.59 294.216 530.16 303.933 529.762C308.025 529.595 308.452 526.803 311.633 525.564C314.005 524.639 320.5 524.643 321.757 523.255C322.726 522.184 319.797 525.984 318.049 525.984C312.298 525.984 306.547 525.984 300.796 525.984C261.003 525.984 222.707 525.521 184.587 531.756C171.55 533.889 187.71 540.996 189.721 542.147C197.116 546.382 201.609 547.759 205.833 554.323C212.536 564.739 216.67 578.782 216.67 590.219C216.67 603.547 196.853 601.262 184.587 606.278C175.317 610.069 158.179 618.995 148.655 620.552C128.933 623.779 113.859 648.346 101.174 658.233C88.1156 668.411 78.9171 683.507 73.5118 696.439C67.1299 711.706 63.1004 735.685 67.9509 751.752C69.5576 757.075 74.8452 759.279 77.5042 764.033C80.0553 768.593 65.1511 760.397 63.8158 759.414C52.058 750.759 39.576 756.031 39.576 741.361C39.576 728.732 38.915 716.645 39.576 703.996C40.8077 680.422 77.6828 652.329 104.881 678.071C114.395 687.075 120.222 700.878 128.265 711.028C137.977 723.283 169.596 724.788 186.156 726.142C211.97 728.254 234.955 726.156 244.902 706.935C250.606 695.913 248.409 679.455 247.469 667.68C246.711 658.204 224.752 658.084 221.66 647.842C217.901 635.39 201.138 626.228 189.578 617.719C175.329 607.23 163.54 618.558 147.372 618.558C138.289 618.558 132.693 619.221 126.84 613.835C123.546 610.805 113.949 607.638 108.873 607.223C94.3567 606.035 77.0749 602.729 78.0746 590.219C78.4188 585.912 90.9075 588.409 90.9075 593.053C90.9075 601.669 93.28 601.735 101.174 607.223C111.968 614.727 124.34 621.243 135.823 628.005C146.48 634.281 163.584 631.783 176.888 631.783C187.221 631.783 194.865 639.472 203.837 642.174C213.819 645.18 224.589 650.379 232.925 655.399C236.268 657.413 235.971 661.734 239.769 663.481C249.554 667.983 252.602 686.357 252.602 694.129C252.602 704.565 252.899 714.977 264.151 721.419C269.216 724.319 273.612 728.576 277.697 732.335C280.038 734.489 287.651 743.632 288.391 746.085C295.325 769.054 321.728 801.811 287.25 821.551C256.829 838.968 271.794 873.795 291.671 892.084C301.629 901.247 311.914 901.95 328.458 901.95C348.221 901.95 368.216 897.588 386.634 892.504C400.594 888.65 401.463 888.458 401.463 878.229C401.463 865.576 404.03 852.336 404.03 839.184C404.03 832.421 401.788 827.086 410.446 823.545C413.683 822.222 431.57 822.436 423.992 815.463C413.035 805.382 400.072 795.06 396.187 782.191C393.335 772.741 365.935 773.144 357.689 778.202C354.507 780.154 349.715 778.522 346.139 780.197C341.991 782.14 339.545 784.626 336.015 786.704C330.014 790.238 323.711 796.953 316.766 799.509C310.511 801.811 304.787 801.818 297.517 801.818C285.615 801.818 293.753 811.001 290.53 816.933C278.2 839.623 228.472 833.936 199.987 833.936C185.831 833.936 168.966 831.243 160.775 841.493C154.281 849.62 144.806 862.473 144.806 871.722C144.806 883.317 141.387 894.442 142.239 905.729C142.699 911.824 147.924 916.551 151.222 921.893C156.424 930.318 156.522 932.179 142.809 932.179C127.241 932.179 112.08 930.29 96.0406 930.29C90.3206 930.29 79.7985 931.065 76.0784 934.488C71.9252 938.309 75.5718 942.743 69.0916 946.453C64.5375 949.061 58.4275 950.729 54.9754 953.905C47.9565 960.364 47.2757 947.297 47.2757 943.095C47.2757 932.397 45.8461 913.765 51.8385 903.84C54.8305 898.884 49.8423 890.498 49.8423 884.947C49.8423 879.375 47.2757 874.012 47.2757 868.888C47.2757 856.864 82.6979 852.829 94.7573 852.829C112.808 852.829 125.802 839.604 143.522 839.604C150.544 839.604 155.749 836.13 162.772 835.826C172.035 835.424 159.338 823.613 153.789 822.706C139.309 820.337 144.443 805.73 149.368 799.929C153.302 795.296 158.802 791.306 163.912 787.544C168.589 784.101 168.52 777.655 171.042 773.479C176.048 765.187 172.428 750 166.621 742.306C159.666 733.09 136.418 737.583 122.847 737.583C115.637 737.583 97.9658 735.326 92.1908 738.632C84.4687 743.054 86.6485 748.681 82.6374 754.586C76.0583 764.272 73.5677 778.891 60.1086 784.395C51.1437 788.061 31.1877 798.869 31.8763 807.486C32.2837 812.585 46.3455 816.974 50.983 819.767C55.8074 822.672 64.9329 833.851 65.2417 837.715C66.1168 848.665 88.6076 858.944 95.898 868.783C108.317 885.542 119.86 899.554 126.982 917.904C128.911 922.875 135.848 927.395 136.963 933.963C137.847 939.165 140.341 948.835 145.376 952.541C153.865 958.79 176.953 961.126 191.004 960.518C195.757 960.312 200.404 950.136 203.837 947.293C210.03 942.164 214.499 936.635 223.086 933.123C233.037 929.054 255.313 932.179 266.718 932.179C284.103 932.179 289.66 941.533 303.933 947.713C313.059 951.664 314.348 952.961 325.749 952.961C340.398 952.961 338.182 937.952 332.736 932.179C326.554 925.626 324.466 917.734 324.466 909.927C324.466 902.425 321.893 898.172 333.449 898.172C354.426 898.172 376.58 893.592 397.471 896.388C410.508 898.132 424.294 920.928 430.266 928.4C433.074 931.915 444.627 939.808 449.23 942.675C460.595 949.754 466.476 949.218 479.601 951.491C488.437 953.022 501.713 954.978 509.829 951.072C520.715 945.832 515.404 934.617 520.809 927.456C524.892 922.046 537.069 922.092 537.491 913.706C537.923 905.126 537.491 896.472 537.491 887.886C537.491 883.586 535.213 874.449 539.488 871.302C544.054 867.94 556.756 869.833 563.157 869.833C578.296 869.833 591.859 872.865 596.523 883.163C600.744 892.484 606.352 905.211 595.952 912.866C585.622 920.47 586.256 933.382 586.256 943.514C586.256 955.612 634.55 958.629 645.002 958.629C669.709 958.629 691.7 960.102 706.743 942.57C719.539 927.656 720.883 909.582 710.022 894.393C704.689 886.934 697.143 864.165 714.585 864.165C735.573 864.165 755.953 865.227 776.183 866.054C783.193 866.341 791.229 870.835 797.999 869.728C803.363 868.85 808.15 862.558 814.681 862.276C836.655 861.324 843.335 887.321 857.03 896.283C866.55 902.512 885.77 930.815 868.294 934.908C860.714 936.683 854.039 937.356 846.764 939.736C842.785 941.038 840.868 942.905 836.497 943.619C830.275 944.637 829.956 950.744 822.381 951.072C812.406 951.504 834.086 961.972 828.655 955.69C824.725 951.144 823.23 938.418 816.678 936.377C792.437 928.828 724.851 941.48 724.851 912.341C724.851 898.864 752.792 909.569 764.633 902.79C773.653 897.626 789.494 898.172 800.708 898.172C812.981 898.172 824.98 896.059 836.64 894.498C851.314 892.534 866.013 881.409 866.013 869.833C866.013 855.078 868.58 840.829 868.58 826.379C868.58 815.358 868.58 804.337 868.58 793.317C868.58 784.208 869.512 782.333 859.169 777.258C850.97 773.234 839.988 767.069 830.081 766.027C823.666 765.352 808.859 761.219 804.558 757.525C802.409 755.68 798.448 753.906 795.575 752.697C793.336 751.755 793.935 748.249 792.153 746.609C787.068 741.931 809.366 743.251 812.115 743.251C826.217 743.251 840.563 740.205 853.18 735.694C879.201 726.39 889.112 708.045 889.112 687.517C889.112 676.331 885.537 675.963 870.576 671.458C858.942 667.955 847.456 664.781 836.355 661.067C825.364 657.39 809.18 660.806 799.425 664.846C791.383 668.175 787.709 675.515 780.175 678.595C764.11 685.165 749.715 690.535 740.821 675.656C735.858 667.353 721.307 663.216 716.581 653.825C713.468 647.637 711.764 641.047 709.309 634.722C708.576 632.834 706.885 647.808 706.885 650.676C706.885 655.056 714.671 663.038 718.578 666.735C730.569 678.084 750.543 683.593 763.35 694.129C772.812 701.914 771.05 712.766 771.05 722.469C771.05 728.172 773.65 738 770.479 743.251C768.344 746.787 763.59 750.289 759.5 752.697C752.511 756.813 766.417 752.78 769.053 751.228C776.532 746.824 817.012 749.818 824.948 752.277C840.234 757.015 864.796 747.889 878.846 744.195C887.764 741.851 892.422 737.56 902.515 735.274C911.325 733.278 922.56 732.869 931.746 733.909C946.454 735.575 961.462 737.045 976.376 734.644C980.61 733.962 1012.31 727.738 1012.31 730.026C1012.31 742.535 1008.41 758.27 1002.61 770.12C998.751 778.014 986.365 782.157 976.946 786.284C965.742 791.193 956.242 795.064 945.719 800.874C940.305 803.863 931.46 812.588 928.181 816.933C922.113 824.973 911.809 830.471 900.947 834.776C893.72 837.64 887.65 840.573 879.986 841.598C866.568 843.394 866.168 842.772 871.716 850.94C881.722 865.671 887.271 880.911 909.645 889.145C919.878 892.912 930.702 896.308 941.869 898.592C953.892 901.05 961.62 911.668 973.952 913.181C985.617 914.612 994.874 920.313 1002.04 910.347C1008.98 900.703 1008.44 891.918 1009.88 881.273C1011.3 870.875 1019.26 843.701 1006.6 836.245C1002.71 833.951 988.07 835.826 982.792 835.826C972.211 835.826 970.265 841.246 962.972 845.272C953.894 850.284 948.143 853.635 948.143 862.276C948.143 867.231 948.35 872.471 944.151 876.445C932.036 887.911 922.906 902.658 914.778 916.12C910.536 923.145 907.713 949.021 916.061 953.801C921.286 956.792 922.044 960.339 929.322 961.987C940.926 964.616 962.057 968.331 973.809 965.241C1005.62 956.878 1035.56 955.613 1061.07 937.847C1069.62 931.892 1081.64 930.29 1093.15 930.29C1105.39 930.29 1103.99 933.364 1112.97 938.686C1129.72 948.602 1141.83 955.633 1161.74 960.518C1174.04 963.537 1187.78 962.209 1200.52 963.877C1205.97 964.589 1213.62 965.077 1218.77 963.352C1227.47 960.441 1222.87 945.326 1225.9 939.736C1229.97 932.247 1230.4 923.61 1234.32 916.12C1239.02 907.12 1239.37 903.046 1249.72 897.122C1256.55 893.212 1275.08 892.504 1283.79 892.504C1313.01 892.504 1340.47 888.875 1358.8 909.298C1366.59 917.988 1371.63 927.991 1371.63 938.266C1371.63 948.652 1375.07 952.724 1384.46 960.623C1394.06 968.696 1395.79 971.854 1410.13 971.854C1417.12 971.854 1420.39 964.296 1420.39 959.468C1420.39 951.281 1422.34 943.061 1413.83 936.797C1401.51 927.723 1394.95 915.197 1389.02 903.42C1382.03 889.518 1360.6 881.821 1351.67 867.943C1346.99 860.68 1345.73 850.713 1355.66 846.112C1360.76 843.749 1362.93 842.348 1367.07 839.184C1373.6 834.179 1378.78 836.08 1385.6 832.887C1399.44 826.405 1414.72 830.839 1424.39 819.662C1435.72 806.553 1430.66 786.71 1430.66 771.59C1430.66 763.394 1399 759.998 1408.99 758.365C1417.54 756.966 1424.39 750.507 1424.39 743.914C1424.39 739.775 1421.66 726.699 1420.39 722.616C1415.76 707.725 1436.45 705.35 1424.39 692.586C1416.59 684.342 1413.34 684.344 1400.43 684.683C1386.94 685.038 1375.46 695.364 1362.5 697.908C1349.1 700.54 1336.66 704.738 1322.86 706.935C1300.54 710.487 1301.43 699.727 1296.06 687.622C1289.47 672.798 1289.5 659.863 1289.5 644.273C1289.5 618.118 1340.33 609.112 1368.92 609.112C1383.79 609.112 1405.13 606.17 1417.26 613.31C1435.94 624.315 1426.74 647.086 1427.62 664.006C1428.4 678.832 1440.34 701.851 1414.12 705.36C1391.75 708.354 1397.25 671.693 1399.86 664.006C1407.84 640.523 1409.31 616.979 1419.11 593.893C1423.61 583.297 1420.82 570.559 1423.53 559.571C1426.81 546.278 1429.58 539.209 1408.99 539.209C1387.32 539.209 1353.66 543.85 1353.66 563.769C1353.66 572.991 1359.92 602.507 1345.96 607.642C1336.67 611.064 1340.72 592.25 1340.83 588.12C1340.95 583.696 1348.61 570.978 1352.38 567.653C1366.04 555.583 1380.57 548.942 1399.29 541.098C1407.24 537.765 1419.81 532.831 1420.39 525.144C1421.1 515.816 1420.39 507.704 1425.53 498.799C1432.07 487.45 1427.52 475.813 1427.52 462.835C1427.52 447.047 1430.75 429.597 1425.53 414.216C1423.06 406.948 1434.35 398.019 1422.96 395.623C1410.87 393.08 1407.92 386.121 1397.29 381.979C1387.38 378.116 1382.03 370.273 1371.63 366.445C1356.79 360.983 1339.46 361.616 1323.43 361.616C1300.69 361.616 1284.88 374.841 1261.27 374.841C1257.46 374.841 1243.99 373.285 1241.3 375.261C1234.46 380.296 1257.75 382.398 1260.12 382.398C1289.61 382.398 1319.24 384.288 1348.39 384.288C1355.54 384.288 1369.74 386.525 1375.48 383.238C1385.34 377.59 1393.44 372.138 1405.56 368.754C1427.83 362.537 1421.01 345.671 1422.96 326.987C1424.38 313.433 1434.18 305.708 1415.4 300.77C1404.99 298.033 1409.49 295.679 1399.86 292.133C1394.06 289.996 1381.42 291.713 1375.05 291.713C1354.23 291.713 1333.41 291.713 1312.6 291.713C1306.92 291.713 1299.99 290.08 1299.76 295.492C1299.63 298.763 1298.54 304.141 1301.19 306.932C1308.13 314.228 1302.77 323.453 1306.18 331.493C1310.31 341.209 1315.07 353.17 1312.6 363.506C1311.64 367.492 1265.15 372.979 1259.27 374.422C1216.61 384.889 1147.81 394.574 1121.1 359.622C1110.41 345.629 1104.7 330.568 1104.7 314.384C1104.7 306.365 1104.19 299.35 1111.26 292.658C1114.38 289.704 1120.76 288.284 1125.38 287.095C1140.05 283.315 1150.19 275.597 1164.31 270.931C1184.4 264.289 1202.9 267.853 1222.77 272.82C1235.07 275.897 1242.51 283.104 1252.57 288.039C1271.91 297.529 1302.15 315.669 1307.46 333.277C1308.36 336.237 1317.8 353.171 1324.86 347.972C1336.69 339.264 1338.26 328.201 1338.26 316.379C1338.26 301.577 1320.29 300.107 1309.46 292.133C1300.14 285.272 1290.92 278.515 1283.08 270.826C1273.5 261.422 1268.05 250.568 1261.41 239.968C1256.78 232.593 1251.32 225.35 1251 216.982C1250.17 195.617 1208.33 200.777 1191.97 207.115C1172.09 214.818 1157.9 218.382 1139.21 206.591C1120.89 195.029 1135.91 174.419 1149.76 166.076C1160.05 159.877 1154.65 158.447 1147.05 152.851C1132.21 141.925 1117.22 127.26 1097 121.678C1074.62 115.5 1053.76 119.789 1032.27 119.789C1013.91 119.789 976.376 121.309 976.376 138.681C976.376 152.396 976.376 166.111 976.376 179.826C976.376 188.131 974.259 198.121 979.513 205.856C984.747 213.563 995.636 215.916 1002.04 221.81C1010.52 229.615 1048.97 230.159 1059.79 224.644C1072.88 217.97 1071.03 200.295 1066.78 190.112C1063.71 182.779 1064.14 181.46 1054.66 178.356C1042.84 174.491 1027.01 176.467 1014.3 176.467C999.443 176.467 985.517 173.242 971.243 172.688C961.3 172.303 957.654 168.126 948.143 167.126C925.245 164.718 913.345 180.246 892.819 180.246C857.146 180.246 853.18 160.726 853.18 138.681C853.18 124.185 859.854 108.443 878.846 101.316C887.927 97.9079 909.906 93.4588 919.911 98.062C940.103 107.352 958.41 120 958.41 138.262C958.41 151.994 964.085 170.118 943.58 176.047C922.763 182.067 863.848 202.592 855.604 177.307C852.584 168.043 848.047 161.03 848.047 151.172C848.047 145.484 845.542 140.644 842.914 135.323C836.235 121.803 833.547 102.913 844.34 90.2949C850.412 83.1956 859.777 58.3809 849.473 51.8796C835.255 42.9088 827.225 28.7275 812.115 20.0767C782.878 3.33763 770.004 35.6628 758.217 50.3052C752.343 57.6012 752.823 73.3397 753.084 81.5833C753.587 97.5084 800.563 93.3388 813.256 93.3388C834.265 93.3388 851.637 97.1934 862.876 82.6328C868.296 75.6116 867.201 63.5671 868.009 55.7631C869.488 41.4792 868.58 26.9453 868.58 12.6246C868.58 3.8884 863.028 8.74133 876.85 8.74133C881.538 8.74133 892.691 5.83754 896.241 8.74106C902.676 14.0038 915.22 11.3723 922.335 15.0387C935.501 21.8227 965.946 19.6569 981.509 19.6569C996.393 19.6569 985.999 10.5797 1002.04 8.74106C1002.04 1.4183 1008.41 9.55482 1021.61 11.0501C1028.08 11.782 1033.93 11.8927 1040.39 12.6245C1047.45 13.4239 1042.92 11.1348 1048.81 15.0387C1062.26 23.9477 1074.6 23.6847 1076.19 36.5554C1077.6 47.9713 1081.84 69.0291 1065.78 76.1253C1048.21 83.8859 1017.61 91.9103 996.908 86.8312C974.127 81.2415 962.341 62.237 948.429 49.1506C933.826 35.4155 912.637 36.2151 890.253 36.6604C876.339 36.9372 872.334 49.7093 871.003 57.5474C868.654 71.3829 860.663 81.4453 876.85 92.9189C888.495 101.173 907.108 99.0066 921.622 99.0066C951.299 99.0066 981.466 100.362 1010.88 97.5372C1034.09 95.3084 1061.43 92.1762 1073.34 74.6559C1081.87 62.0862 1081.69 47.4828 1094.3 36.6604C1106.28 26.3677 1116.83 17.3369 1134.08 11.0502C1149.55 5.40978 1173.27 8.74445 1191.97 10.5797C1219.98 13.3295 1230.47 30.3724 1230.47 45.8969C1230.47 57.7556 1232.67 71.0737 1221.34 80.7436C1211.5 89.1479 1190.41 98.4458 1175.43 99.0066C1153.16 99.8402 1145.33 79.3086 1137.5 67.3087C1128.12 52.9374 1117.54 41.9667 1117.54 25.3247C1117.54 15.3307 1120.06 17.0254 1135.5 14.2968C1154.61 10.921 1186.87 9.82571 1206.16 11.0502C1233.13 12.7612 1253.63 5.89172 1265.83 23.8553C1273.17 34.6573 1273.3 50.3363 1271.53 62.2706C1269.81 73.8891 1229.16 81.5493 1217.49 85.9916C1196.53 93.9718 1177.98 103.98 1155.89 110.342C1147.7 112.704 1122.67 114.439 1122.67 123.147C1122.67 128.431 1131.74 132.816 1135.5 136.582C1144 145.092 1147.96 157.372 1161.17 162.927C1185.04 172.969 1210.42 166.765 1226.19 152.116C1241.16 138.206 1246.81 120.825 1252.43 103.835C1254.13 98.6726 1265.79 79.4293 1249.72 82.213C1230.88 85.4761 1205.6 100.114 1200.24 113.701C1193.32 131.239 1207.13 144.325 1216.49 158.729C1225.03 171.868 1242.72 181.336 1258.41 189.587C1268.47 194.876 1281.63 204.806 1294.77 204.806C1304.93 204.806 1314.78 206.696 1325 206.696C1341.79 206.696 1382.58 212.502 1395.3 202.497C1404.67 195.121 1404.01 178.194 1401.86 168.91C1398.64 155.057 1378.75 140.859 1362.07 135.113C1350.8 131.228 1315.93 123.155 1307.46 133.538C1297.97 145.181 1294.79 158.713 1294.63 172.059C1294.42 189.035 1301.76 203.275 1304.9 219.92C1306.86 230.335 1307.16 241.24 1311.17 251.408C1318.02 268.769 1342.8 284.712 1367.92 276.179C1386.54 269.852 1401.03 255.687 1415.4 245.321C1433.55 232.229 1422.76 221.142 1422.96 202.497C1423.2 179.889 1432.41 156.04 1430.21 133.538C1428.1 111.938 1435.46 95.5851 1414.97 78.5394C1400.03 66.1013 1379.64 58.5237 1363.36 47.2614C1353.74 40.6126 1345.68 34.2226 1330.85 39.0745C1312.47 45.0859 1310.82 65.2343 1310.17 77.6997C1309.42 92.1109 1312.79 104.927 1333.13 111.392C1392.11 130.14 1419.85 59.372 1430.21 29.55C1433.86 19.0685 1432.9 13.5971 1414.97 11.0502C1385.07 6.8026 1373.04 12.8247 1342.79 11.0502C1321.49 9.80011 1278.86 4.01007 1275.45 25.3247C1272.99 40.7292 1309.53 28.7336 1326.29 24.9049C1336.11 22.6601 1338.26 11.5082 1338.26 5.4873" stroke="#F0FEFF" stroke-width="7" stroke-linecap="round" stroke-linejoin="round"/>
<path d="M375.945 578.769C382.192 572.699 399.219 550.947 390.404 542.604C380.015 532.771 367.595 529.897 350.716 529.897C337.589 529.897 328.142 541.49 328.142 550.966C328.142 559.09 323.14 579.408 331.388 586.154C334.56 588.749 336.241 594.681 340.24 596.363C346.262 598.896 352.477 600.197 358.683 602.228C369.569 605.789 380.693 610.503 392.027 611.894C399.166 612.77 428.371 614.753 433.78 611.568C445.078 604.915 442.639 597.819 448.239 588.544C452.572 581.367 456.795 568.882 455.468 561.067C454.773 556.97 454.353 548.163 451.632 544.559C447.48 539.057 452.96 533.374 452.96 527.834C452.96 515.394 466.076 508.621 477.452 501.008C491.283 491.752 535.011 488.017 549.45 494.709C569.148 503.839 580.434 524.178 580.434 540.758C580.434 554.954 585.089 573.437 576.303 586.372C567.988 598.612 526.414 596.363 511.385 596.363C492.509 596.363 473.505 592.481 462.403 579.638C455.432 571.575 458.01 559.997 452.96 551.401C446.795 540.907 450.304 526.051 450.304 514.91C450.304 492.807 439.325 451.002 463.583 432.153C471.255 426.192 488.143 418.469 499.435 418.469C516.826 418.469 533.42 406.739 552.549 406.739C568.563 406.739 584.742 396.831 599.614 392.621C608.108 390.216 615.135 384.307 620.269 378.937C628.184 370.657 626.51 365.723 628.826 356.347C632.695 340.684 630.405 328.544 605.663 328.544C592.596 328.544 579.126 327.82 566.122 328.653C553.029 329.491 546.032 336.499 536.615 342.337C511.873 357.674 498.107 377.179 498.107 400.44C498.107 416.534 525.837 422.946 541.483 430.198C569.675 443.264 609.194 441.92 640.187 434.977C672.193 427.806 712.358 406.238 730.628 385.67C738.495 376.814 712.446 367.073 705.251 361.777C685.145 346.977 664.647 340.15 659.514 317.901C654.763 297.303 653.65 276.814 654.793 255.779C655.276 246.884 687.236 230.8 698.612 230.8C713.012 230.8 727.386 221.631 743.611 225.044C753.236 227.068 740.432 251.397 748.333 246.873C752.41 244.539 763.905 245.733 768.988 244.05C777.487 241.234 785.728 239.746 793.48 235.796C808.265 228.261 820.412 209.842 821.955 197.35C822.797 190.53 825.682 174.732 820.627 168.352C815.554 161.951 797.231 164.334 789.053 164.334C772.283 164.334 755.513 164.334 738.743 164.334C714.997 164.334 703.582 162.916 686.661 176.063C677.95 182.832 676.062 192.077 672.793 200.608C666.011 218.308 654.26 234.673 650.072 253.172C643.999 279.996 638.559 300.429 605.663 313.882C593.317 318.931 558.676 316.024 545.91 313.339C536.756 311.414 530.418 299.385 527.91 292.922C525.259 286.092 527.32 276.987 527.32 269.898C527.32 252.374 555.747 233.792 573.794 224.935C593.259 215.383 631.088 202.541 648.006 222.112C657.049 232.572 654.471 257.05 651.99 268.92C646.972 292.931 618.769 307.055 590.909 316.706C562.924 326.4 537.939 342.228 506.074 342.228C492.515 342.228 480.111 345.776 466.829 346.138C455.961 346.434 444.983 346.627 434.37 348.527C413.599 352.247 389.223 352.6 389.223 372.529C389.223 385.136 384.946 409.238 398.666 419.338C420.63 435.505 471.314 425.541 494.566 418.034C516.628 410.911 524.664 397.068 524.664 380.349C524.664 364.837 525.019 357.637 507.549 347.115C491.425 337.404 467.346 338.997 448.239 333.974C429.685 329.097 417.086 324.634 397.19 324.634C359.748 324.634 304.999 341.93 289.782 367.533C281.113 382.119 282.995 399.314 282.995 414.993C282.995 430.136 278.236 453.805 301.585 461.042C312.404 464.395 334.811 463.431 346.732 463.431C360.139 463.431 375.934 465.26 388.633 461.476C417.208 452.962 415.78 428.304 415.78 408.694C415.78 395.482 411.591 387.596 406.485 375.57C401.626 364.123 384.974 363.037 378.601 354.826C371.337 345.47 345.765 348.093 334.044 348.093C309.257 348.093 284.471 348.093 259.684 348.093C230.311 348.093 201.881 344.141 191.521 322.354C185.852 310.431 187.39 294.071 187.39 281.518C187.39 255.637 200.633 233.043 217.783 210.708C226.393 199.495 238.287 180.398 259.094 179.973C269.509 179.76 284.356 178.157 294.208 180.407C323.303 187.054 343.798 208.9 357.945 227.325C371.967 245.586 373.289 259.411 373.289 279.781C373.289 291.583 350.767 309.34 337.29 314.751C329.424 317.909 323.083 322.185 315.454 325.72C306.72 329.768 295.132 330.82 285.651 334.409C266.12 341.803 249.633 346.691 229.291 340.273C223.218 338.358 210.395 333.295 206.128 329.63C199.055 323.556 172.751 322.679 162.014 322.679C150.887 322.679 78.5066 316.514 78.5066 329.522C78.5066 334.286 77.739 339.468 78.6542 344.183C80.102 351.644 95.9204 360.437 102.26 365.687C114.497 375.821 151.385 386.57 169.981 380.349C195.364 371.855 187.39 347.087 187.39 330.499C187.39 314.91 183.964 297.418 173.522 283.582C164.144 271.156 139.189 267.77 127.637 255.996C112.032 240.091 91.4134 225.096 89.277 203.866C87.6897 188.093 85.3077 166.673 89.7196 151.084C94.098 135.614 115.104 131.648 133.096 129.146C155.301 126.058 192.503 120.362 198.603 140.006C201.611 149.693 208.636 158.304 208.636 168.352C208.636 178.855 211.292 189.138 211.292 199.739C211.292 218.998 193.759 243.273 167.325 250.349C143.095 256.835 126.965 246.162 121.588 228.845C116.447 212.29 104.875 196.793 99.1621 179.973C94.2517 165.515 92.3753 139.355 98.5719 125.019C103.53 113.548 114.131 96.0327 126.457 88.0934C136.479 81.6382 154.077 79.4329 166.292 75.3867C184.969 69.2 202.289 67.8087 222.505 66.1553C241.056 64.6379 270.438 60.1913 287.126 68.5446C308.648 79.3171 317.519 101.839 317.519 120.023C317.519 132.081 313.194 135.011 296.274 135.011C276.11 135.011 255.947 135.011 235.783 135.011C226.254 135.011 208.441 137.459 201.849 130.666C194.547 123.141 192.428 112.483 189.456 103.732C184.484 89.0928 187.39 71.9805 187.39 56.9239C187.39 49.2794 187.636 43.7829 198.456 40.1988C213.405 35.2469 235.028 35.2118 251.275 32.3792C297.129 24.3849 353.021 15.7716 399.256 27.9264C421.063 33.6595 435.15 53.3014 437.026 69.4134C437.952 77.3705 441.311 86.9657 443.665 94.9355C446.09 103.146 444.993 111.98 444.993 120.349C444.993 139.876 440.309 149.467 415.928 159.338C399.055 166.169 382.339 173.275 365.322 179.539C343.871 187.434 328.643 179.086 322.241 163.899C315.054 146.852 318.164 114.882 346.88 109.597C364.471 106.36 382.96 107.642 401.026 107.642C426.135 107.642 449.461 107.163 473.763 112.529C494.772 117.169 527.32 134.996 527.32 152.17C527.32 173.133 529.975 194.066 529.975 215.161C529.975 236.568 520.083 253.753 500.763 270.006C488.389 280.416 454.744 309.456 431.862 299.981C420.816 295.407 416.233 282.976 408.994 275.871C396.251 263.365 376.815 251.576 373.584 234.927C366.743 199.678 421.68 203.432 454.14 203.432C466.269 203.432 482.347 201.126 490.14 209.731C498.184 218.612 497.619 231.046 501.353 241.009C508.036 258.843 506.074 278.814 506.074 297.266C506.074 316.588 575.582 290.784 586.188 285.319C670.556 241.847 733.728 171.069 753.054 96.8904C758.175 77.2337 765.917 32.3911 737.12 19.6725C711.654 8.42533 679.768 21.6958 660.105 33.7911C638.398 47.1429 626.399 56.2116 617.023 76.3641C613.455 84.034 606.174 105.344 615.548 113.072C632.752 127.256 651.087 133.056 677.367 133.056C693.506 133.056 707.049 135.226 717.054 123.933C724.421 115.619 739.775 96.5768 739.775 86.1385C739.775 68.3554 712.335 70.4995 692.563 70.4995C680.239 70.4995 669.523 69.8877 657.449 68.1102C644.343 66.1807 631.779 61.6447 618.941 58.8788C606.63 56.2263 593.156 56.3651 580.434 55.2948C559.257 53.5133 526.787 49.3183 522.156 71.4769C519.202 85.6116 520.226 99.3416 519.205 113.616C517.535 136.971 517.518 159.481 531.156 181.385C540.012 195.608 571.624 189.747 589.286 189.747C622.9 189.747 635.282 171.497 627.646 147.609C622.962 132.955 594.13 125.942 577.778 122.847C566.471 120.707 519.689 108.854 514.041 121.326" stroke="#F8FEFF" stroke-width="7" stroke-linecap="round" stroke-linejoin="round"/>
<path d="M327.024 564.678C333.272 558.608 350.299 536.856 341.483 528.513C331.094 518.681 318.674 515.806 301.795 515.806C288.669 515.806 279.222 527.399 279.222 536.876C279.222 544.999 274.22 565.318 282.468 572.064C285.64 574.658 287.321 580.59 291.32 582.272C297.342 584.805 303.556 586.107 309.762 588.137C320.648 591.698 331.773 596.412 343.106 597.803C350.246 598.679 379.45 600.662 384.86 597.477C396.157 590.824 393.718 583.728 399.318 574.453C403.652 567.276 407.875 554.791 406.548 546.976C405.852 542.88 405.432 534.073 402.712 530.468C398.559 524.966 404.04 519.284 404.04 513.743C404.04 501.303 417.155 494.53 428.531 486.917C442.363 477.661 486.09 473.926 500.53 480.618C520.228 489.748 531.513 510.088 531.513 526.667C531.513 540.864 536.168 559.346 527.382 572.281C519.068 584.521 477.494 582.272 462.465 582.272C443.589 582.272 424.585 578.39 413.482 565.547C406.512 557.484 409.089 545.906 404.04 537.31C397.875 526.816 401.384 511.96 401.384 500.819C401.384 478.716 390.404 436.911 414.662 418.062C422.335 412.101 439.223 404.378 450.514 404.378C467.906 404.378 484.5 392.649 503.628 392.649C519.643 392.649 535.822 382.74 550.693 378.53C559.188 376.125 566.215 370.216 571.349 364.846C579.264 356.566 577.59 351.632 579.906 342.256C583.775 326.593 581.485 314.453 556.742 314.453C543.676 314.453 530.205 313.73 517.202 314.562C504.109 315.4 497.112 322.408 487.694 328.246C462.953 343.583 449.187 363.089 449.187 386.35C449.187 402.444 476.917 408.856 492.563 416.107C520.755 429.174 560.273 427.829 591.266 420.886C623.273 413.715 663.438 392.148 681.708 371.579C689.574 362.723 663.526 352.982 656.331 347.686C636.225 332.886 615.727 326.06 610.594 303.81C605.842 283.212 604.73 262.723 605.873 241.688C606.356 232.793 638.316 216.709 649.692 216.709C664.092 216.709 678.465 207.541 694.691 210.953C704.316 212.977 691.511 237.306 699.412 232.783C703.49 230.448 714.985 231.643 720.068 229.959C728.567 227.144 736.807 225.655 744.559 221.705C759.344 214.17 771.491 195.751 773.034 183.259C773.876 176.439 776.762 160.641 771.706 154.261C766.633 147.86 748.31 150.243 740.133 150.243C723.363 150.243 706.593 150.243 689.822 150.243C666.076 150.243 654.661 148.825 637.741 161.972C629.029 168.741 627.141 177.986 623.872 186.517C617.09 204.217 605.34 220.582 601.151 239.082C595.078 265.905 589.639 286.339 556.742 299.792C544.397 304.84 509.756 301.934 496.989 299.249C487.836 297.324 481.498 285.294 478.989 278.831C476.338 272.001 478.399 262.897 478.399 255.807C478.399 238.283 506.827 219.701 524.874 210.844C544.339 201.292 582.168 188.45 599.086 208.021C608.129 218.481 605.55 242.959 603.07 254.829C598.051 278.84 569.848 292.965 541.988 302.615C514.004 312.309 489.019 328.137 457.154 328.137C443.595 328.137 431.191 331.685 417.908 332.047C407.04 332.344 396.063 332.536 385.45 334.437C364.679 338.156 340.303 338.509 340.303 358.438C340.303 371.045 336.026 395.148 349.745 405.247C371.709 421.414 422.393 411.451 445.646 403.944C467.708 396.821 475.744 382.977 475.744 366.258C475.744 350.747 476.099 343.546 458.629 333.025C442.505 323.314 418.425 324.907 399.318 319.884C380.765 315.006 368.165 310.544 348.27 310.544C310.828 310.544 256.079 327.839 240.862 353.442C232.193 368.028 234.075 385.223 234.075 400.903C234.075 416.045 229.316 439.714 252.665 446.951C263.484 450.304 285.891 449.34 297.812 449.34C311.219 449.34 327.014 451.169 339.713 447.385C368.288 438.871 366.86 414.213 366.86 394.604C366.86 381.391 362.671 373.506 357.565 361.479C352.706 350.033 336.054 348.946 329.68 340.736C322.417 331.379 296.845 334.002 285.123 334.002C260.337 334.002 235.55 334.002 210.764 334.002C181.391 334.002 152.96 330.05 142.601 308.263C136.932 296.34 138.47 279.98 138.47 267.427C138.47 241.547 151.713 218.952 168.863 196.617C177.472 185.405 189.367 166.308 210.174 165.882C220.588 165.669 235.435 164.066 245.288 166.317C274.382 172.963 294.877 194.809 309.025 213.234C323.047 231.495 324.369 245.32 324.369 265.69C324.369 277.493 301.846 295.249 288.369 300.66C280.504 303.818 274.162 308.094 266.534 311.63C257.8 315.677 246.211 316.729 236.731 320.318C217.199 327.712 200.713 332.6 180.371 326.183C174.298 324.267 161.475 319.204 157.207 315.539C150.135 309.466 123.83 308.589 113.093 308.589C101.967 308.589 29.5862 302.423 29.5862 315.431C29.5862 320.195 28.8186 325.377 29.7338 330.092C31.1816 337.553 47 346.346 53.34 351.596C65.5769 361.73 102.465 372.48 121.06 366.258C146.444 357.765 138.47 332.996 138.47 316.408C138.47 300.819 135.043 283.327 124.601 269.491C115.223 257.065 90.2684 253.679 78.7166 241.905C63.1111 226 42.4929 211.005 40.3566 189.775C38.7693 174.002 36.3873 152.582 40.7992 136.993C45.1776 121.523 66.1834 117.557 84.1756 115.055C106.381 111.968 143.583 106.271 149.683 125.916C152.691 135.602 159.715 144.213 159.715 154.261C159.715 164.764 162.371 175.047 162.371 185.648C162.371 204.907 144.839 229.182 118.405 236.258C94.1743 242.744 78.0446 232.071 72.6676 214.754C67.5269 198.199 55.9543 182.702 50.2417 165.882C45.3313 151.424 43.4549 125.264 49.6515 110.928C54.6098 99.4572 65.2101 81.9419 77.5363 74.0026C87.5585 67.5474 105.157 65.3421 117.372 61.2958C136.049 55.1092 153.369 53.7179 173.584 52.0645C192.136 50.5471 221.518 46.1005 238.206 54.4538C259.727 65.2262 268.599 87.7484 268.599 105.932C268.599 117.99 264.274 120.92 247.353 120.92C227.19 120.92 207.026 120.92 186.863 120.92C177.334 120.92 159.52 123.369 152.929 116.576C145.626 109.05 143.507 98.3919 140.535 89.6417C135.563 75.002 138.47 57.8897 138.47 42.8331C138.47 35.1886 138.715 29.6921 149.535 26.1079C164.484 21.1561 186.107 21.1209 202.354 18.2884C248.208 10.2941 304.101 1.68073 350.336 13.8356C372.143 19.5687 386.229 39.2106 388.105 55.3226C389.032 63.2797 392.391 72.8749 394.745 80.8447C397.17 89.0553 396.073 97.8894 396.073 106.258C396.073 125.785 391.389 135.376 367.007 145.247C350.134 152.079 333.418 159.185 316.402 165.448C294.951 173.343 279.723 164.995 273.32 149.809C266.133 132.761 269.244 100.791 297.959 95.5063C315.551 92.269 334.04 93.5514 352.106 93.5514C377.214 93.5514 400.54 93.0719 424.843 98.4386C445.852 103.078 478.399 120.905 478.399 138.079C478.399 159.042 481.055 179.976 481.055 201.07C481.055 222.477 471.163 239.662 451.842 255.915C439.469 266.325 405.824 295.365 382.942 285.89C371.895 281.316 367.313 268.886 360.073 261.78C347.331 249.274 327.895 237.486 324.664 220.836C317.823 185.587 372.76 189.341 405.22 189.341C417.349 189.341 433.427 187.035 441.219 195.64C449.263 204.521 448.699 216.955 452.432 226.918C459.116 244.752 457.154 264.723 457.154 283.175C457.154 302.497 526.662 276.694 537.267 271.229C621.635 227.756 684.808 156.978 704.134 82.7996C709.255 63.1429 716.996 18.3003 688.199 5.58166C662.734 -5.66549 630.848 7.60495 611.184 19.7003C589.478 33.052 577.478 42.1208 568.103 62.2733C564.534 69.9432 557.254 91.2536 566.627 98.9817C583.832 113.166 602.167 118.965 628.446 118.965C644.586 118.965 658.129 121.135 668.134 109.842C675.5 101.528 690.855 82.486 690.855 72.0477C690.855 54.2645 663.414 56.4086 643.643 56.4086C631.319 56.4086 620.602 55.7968 608.528 54.0193C595.423 52.0899 582.859 47.5539 570.021 44.7879C557.71 42.1355 544.236 42.2743 531.513 41.204C510.337 39.4225 477.866 35.2275 473.235 57.3861C470.281 71.5208 471.305 85.2508 470.285 99.5247C468.615 122.88 468.597 145.391 482.235 167.294C491.091 181.517 522.704 175.657 540.365 175.657C573.979 175.657 586.361 157.406 578.726 133.518C574.041 118.864 545.21 111.851 528.857 108.756C517.551 106.616 470.769 94.7631 465.121 107.236" stroke="#F8FEFF" stroke-width="7" stroke-linecap="round" stroke-linejoin="round"/>
<path d="M82.3674 358.139C60.9868 363.454 41.1346 365.357 28.4694 379.341C19.8728 388.833 15.6365 397.291 15.6365 409.255C15.6365 439.542 23.1301 467.834 50.1427 491.334C56.7883 497.115 61.0045 511.171 73.3844 511.171C84.3106 511.171 86.8246 498.599 89.4968 492.698C99.6534 470.269 113.166 444.675 113.166 420.906C113.166 409.775 116.831 397.814 96.4836 397.814C75.2768 397.814 68.9006 398.626 52.9944 408.205C38.1964 417.118 22.2435 426.713 13.6403 439.378C12.3622 441.26 13.0098 454.194 11.7866 452.394C7.73435 446.428 12.1694 438.833 11.7866 431.79C11.4242 425.119 3.49973 428.025 10.5034 425.734C18.8991 422.987 26.5451 414.345 34.8858 410.095C41.0356 406.961 47.979 405.018 53.9925 401.698C61.2137 397.711 72.056 398.548 80.3712 394.875C95.3664 388.253 116.774 388.368 133.556 388.368C151.983 388.368 154.232 394.83 154.232 407.261C154.232 422.578 156.798 436.983 156.798 452.184C156.798 465.999 155.347 480.179 159.365 493.748C161.209 499.978 168.678 524.396 181.323 524.396C200.206 524.396 213.45 526.232 231.799 521.037C243.248 517.796 244.801 507.616 250.621 500.885C262.263 487.418 261.13 471.456 268.444 456.382C276.933 438.885 260 439.378 242.778 439.378C234.947 439.378 221.114 437.285 214.403 440.428C207.293 443.759 202.923 447.799 195.297 450.294C182.806 454.381 165.835 455.661 156.228 463.519C140.015 476.779 174.764 493.354 174.764 508.337C174.764 514.816 169.631 520.118 169.631 526.705C169.631 533.702 166.014 545.643 160.791 551.686C146.02 568.772 101.818 562.182 77.2343 562.182C61.6404 562.182 62.7341 563.769 54.1351 573.097C45.1635 582.83 38.7357 591.544 38.7357 603.746C38.7357 620.187 41.3075 626.417 64.544 626.417C92.41 626.417 120.893 628.306 149.098 628.306C167.795 628.306 177.108 627.567 188.167 617.391C199.742 606.74 190.438 589.107 187.74 577.191C186.606 572.185 184.882 567.762 179.327 564.491C176.074 562.575 157.531 560.764 156.941 559.243C152.086 546.736 189.232 550.846 197.863 550.846C206.7 550.846 211.248 549.563 215.829 555.464C219.893 560.7 227.696 561.235 233.225 564.491C240.523 568.788 265.144 566.358 274.861 565.96C278.953 565.793 279.379 563.001 282.56 561.762C284.933 560.837 291.427 560.841 292.684 559.453C293.653 558.382 290.724 562.182 288.977 562.182C283.226 562.182 277.475 562.182 271.724 562.182C231.93 562.182 193.634 561.719 155.515 567.954C142.478 570.087 158.638 577.194 160.648 578.345C168.044 582.58 172.537 583.957 176.76 590.521C183.463 600.937 187.597 614.98 187.597 626.417C187.597 639.745 167.78 637.46 155.515 642.476C146.245 646.267 129.106 655.193 119.583 656.751C99.8604 659.977 84.7865 684.544 72.1011 694.431C59.043 704.609 49.8445 719.705 44.4392 732.637C38.0573 747.904 34.0278 771.883 38.8783 787.95C40.4849 793.273 45.7726 795.477 48.4316 800.231C50.9827 804.791 36.0785 796.595 34.7432 795.613C22.9854 786.958 10.5034 792.229 10.5034 777.559C10.5034 764.93 9.84241 752.843 10.5034 740.194C11.7351 716.62 48.6102 688.527 75.8084 714.269C85.3225 723.273 91.1496 737.076 99.1928 747.226C108.904 759.481 140.523 760.986 157.083 762.34C182.897 764.452 205.882 762.354 215.829 743.133C221.533 732.111 219.337 715.653 218.396 703.878C217.639 694.402 195.679 694.282 192.588 684.04C188.829 671.588 172.066 662.426 160.505 653.917C146.256 643.428 134.467 654.756 118.299 654.756C109.216 654.756 103.621 655.419 97.7669 650.033C94.4737 647.003 84.8766 643.836 79.8009 643.421C65.2841 642.233 48.0023 638.927 49.002 626.417C49.3462 622.11 61.8348 624.607 61.8348 629.251C61.8348 637.867 64.2073 637.933 72.1011 643.421C82.8957 650.925 95.2677 657.441 106.75 664.203C117.408 670.479 134.511 667.981 147.815 667.981C158.148 667.981 165.792 675.67 174.764 678.372C184.747 681.378 195.516 686.577 203.852 691.597C207.195 693.611 206.898 697.932 210.696 699.679C220.481 704.181 223.529 722.555 223.529 730.327C223.529 740.763 223.827 751.175 235.079 757.617C240.143 760.517 244.539 764.774 248.624 768.533C250.965 770.687 258.578 779.83 259.318 782.283C266.253 805.252 292.655 838.009 258.178 857.749C227.757 875.166 242.721 909.992 262.598 928.282C272.556 937.445 282.841 938.148 299.386 938.148C319.148 938.148 339.144 933.786 357.561 928.702C371.522 924.848 372.39 924.655 372.39 914.427C372.39 901.773 374.957 888.534 374.957 875.382C374.957 868.619 372.715 863.284 381.373 859.743C384.61 858.419 402.497 858.634 394.919 851.661C383.963 841.58 371 831.258 367.115 818.389C364.262 808.94 336.863 809.342 328.616 814.4C325.435 816.352 320.642 814.72 317.066 816.395C312.918 818.338 310.472 820.824 306.943 822.902C300.942 826.436 294.638 833.151 287.693 835.707C281.438 838.009 275.714 838.016 268.444 838.016C256.542 838.016 264.681 847.199 261.457 853.131C249.127 875.821 199.399 870.134 170.914 870.134C156.758 870.134 139.894 867.441 131.703 877.691C125.208 885.818 115.733 898.671 115.733 907.92C115.733 919.515 112.314 930.639 113.166 941.927C113.626 948.022 118.851 952.749 122.149 958.091C127.352 966.515 127.449 968.377 113.737 968.377C98.1683 968.377 83.0074 966.487 66.968 966.487C61.248 966.487 50.7259 967.263 47.0057 970.686C42.8525 974.507 46.4992 978.941 40.019 982.651C35.4649 985.259 29.3549 986.927 25.9028 990.103C18.8839 996.562 18.2031 983.495 18.2031 979.292C18.2031 968.595 16.7735 949.962 22.7659 940.037C25.7579 935.082 20.7697 926.696 20.7697 921.145C20.7697 915.573 18.2031 910.21 18.2031 905.086C18.2031 893.062 53.6253 889.027 65.6847 889.027C83.7351 889.027 96.7292 875.802 114.45 875.802C121.471 875.802 126.677 872.327 133.699 872.023C142.962 871.622 130.266 859.811 124.716 858.903C110.237 856.535 115.37 841.928 120.296 836.127C124.229 831.494 129.729 827.504 134.84 823.742C139.516 820.299 139.448 813.853 141.969 809.677C146.975 801.385 143.356 786.198 137.549 778.504C130.593 769.288 107.346 773.781 93.7744 773.781C86.564 773.781 68.8931 771.524 63.1181 774.83C55.396 779.252 57.5758 784.879 53.5648 790.784C46.9857 800.47 44.4951 815.089 31.036 820.593C22.0711 824.259 2.11504 835.067 2.80363 843.684C3.21112 848.783 17.2729 853.172 21.9104 855.965C26.7347 858.87 35.8603 870.049 36.1691 873.913C37.0442 884.863 59.535 895.142 66.8254 904.981C79.2441 921.74 90.787 935.752 97.9095 954.102C99.8387 959.073 106.775 963.593 107.891 970.161C108.774 975.363 111.268 985.033 116.303 988.739C124.793 994.988 147.88 997.324 161.931 996.716C166.685 996.51 171.331 986.334 174.764 983.491C180.958 978.362 185.427 972.833 194.013 969.321C203.964 965.252 226.24 968.377 237.645 968.377C255.031 968.377 260.588 977.731 274.861 983.911C283.986 987.862 285.275 989.159 296.676 989.159C311.326 989.159 309.11 974.15 303.663 968.377C297.481 961.824 295.393 953.932 295.393 946.125C295.393 938.623 292.821 934.37 304.376 934.37C325.353 934.37 347.507 929.789 368.398 932.585C381.435 934.33 395.222 957.125 401.193 964.598C404.001 968.112 415.554 976.006 420.157 978.873C431.523 985.952 437.403 985.416 450.528 987.689C459.365 989.22 472.641 991.176 480.757 987.269C491.643 982.03 486.331 970.815 491.736 963.653C495.819 958.244 507.997 958.29 508.419 949.904C508.851 941.324 508.419 932.67 508.419 924.084C508.419 919.784 506.14 910.647 510.415 907.5C514.982 904.138 527.683 906.03 534.085 906.03C549.224 906.03 562.787 909.062 567.45 919.36C571.671 928.682 577.279 941.409 566.88 949.064C556.55 956.668 557.184 969.58 557.184 979.712C557.184 991.81 605.477 994.826 615.93 994.826C640.636 994.826 662.628 996.3 677.67 978.768C690.466 963.854 691.81 945.78 680.95 930.591C675.617 923.132 668.071 900.363 685.512 900.363C706.5 900.363 726.88 901.424 747.11 902.252C754.121 902.539 762.157 907.033 768.926 905.925C774.29 905.048 779.078 898.756 785.609 898.473C807.583 897.522 814.262 923.519 827.957 932.48C837.478 938.71 856.697 967.013 839.222 971.106C831.642 972.881 824.966 973.553 817.691 975.934C813.712 977.235 811.795 979.102 807.425 979.817C801.202 980.835 800.884 986.941 793.309 987.269C783.333 987.701 805.013 998.17 799.583 991.888C795.653 987.342 794.157 974.616 787.605 972.575C763.365 965.026 695.779 977.678 695.779 948.539C695.779 935.062 723.72 945.767 735.561 938.988C744.58 933.824 760.421 934.37 771.635 934.37C783.909 934.37 795.908 932.256 807.567 930.696C822.241 928.732 836.94 917.607 836.94 906.03C836.94 891.276 839.507 877.027 839.507 862.577C839.507 851.556 839.507 840.535 839.507 829.515C839.507 820.406 840.439 818.531 830.096 813.456C821.898 809.432 810.915 803.267 801.008 802.225C794.594 801.55 779.786 797.417 775.485 793.723C773.336 791.878 769.376 790.104 766.502 788.895C764.263 787.953 764.862 784.447 763.08 782.807C757.996 778.129 780.294 779.449 783.042 779.449C797.144 779.449 811.49 776.403 824.108 771.892C850.128 762.588 860.04 744.243 860.04 723.715C860.04 712.529 856.464 712.161 841.503 707.656C829.87 704.153 818.383 700.979 807.282 697.265C796.292 693.588 780.107 697.004 770.352 701.044C762.31 704.374 758.636 711.713 751.103 714.793C735.038 721.363 720.642 726.733 711.749 711.855C706.786 703.551 692.234 699.414 687.509 690.023C684.395 683.835 682.692 677.245 680.237 670.92C679.504 669.032 677.813 684.006 677.813 686.874C677.813 691.254 685.598 699.236 689.505 702.933C701.497 714.282 721.47 719.791 734.277 730.327C743.739 738.112 741.977 748.964 741.977 758.667C741.977 764.37 744.577 774.198 741.407 779.449C739.272 782.985 734.517 786.487 730.428 788.895C723.439 793.011 737.344 788.978 739.981 787.426C747.459 783.022 787.939 786.016 795.875 788.475C811.161 793.213 835.724 784.087 849.773 780.393C858.691 778.049 863.35 773.758 873.443 771.472C882.252 769.476 893.487 769.067 902.673 770.107C917.381 771.773 932.39 773.243 947.303 770.842C951.538 770.16 983.235 763.936 983.235 766.224C983.235 778.733 979.335 794.468 973.539 806.318C969.679 814.212 957.292 818.355 947.873 822.482C936.67 827.391 927.17 831.262 916.647 837.072C911.233 840.061 902.387 848.786 899.109 853.131C893.04 861.171 882.737 866.668 871.874 870.974C864.647 873.838 858.578 876.77 850.914 877.796C837.495 879.592 837.096 878.969 842.644 887.138C852.65 901.868 858.199 917.108 880.572 925.343C890.806 929.109 901.629 932.506 912.797 934.789C924.819 937.248 932.547 947.866 944.879 949.379C956.544 950.81 965.801 956.511 972.969 946.545C979.905 936.901 979.365 928.116 980.811 917.471C982.224 907.072 990.192 879.899 977.532 872.443C973.636 870.149 958.998 872.023 953.72 872.023C943.139 872.023 941.193 877.443 933.9 881.47C924.821 886.482 919.071 889.833 919.071 898.473C919.071 903.429 919.278 908.669 915.078 912.643C902.964 924.108 893.834 938.855 885.705 952.318C881.464 959.343 878.641 985.219 886.989 989.998C892.213 992.989 892.971 996.537 900.249 998.185C911.854 1000.81 932.984 1004.53 944.737 1001.44C976.547 993.076 1006.49 991.811 1032 974.044C1040.55 968.09 1052.57 966.487 1064.08 966.487C1076.32 966.487 1074.91 969.562 1083.9 974.884C1100.65 984.8 1112.76 991.831 1132.67 996.716C1144.97 999.735 1158.7 998.407 1171.45 1000.07C1176.9 1000.79 1184.55 1001.27 1189.7 999.55C1198.4 996.639 1193.79 981.524 1196.83 975.934C1200.9 968.445 1201.33 959.808 1205.24 952.318C1209.95 943.318 1210.3 939.244 1220.64 933.32C1227.47 929.41 1246.01 928.702 1254.72 928.702C1283.94 928.702 1311.4 925.073 1329.72 945.495C1337.52 954.186 1342.56 964.189 1342.56 974.464C1342.56 984.85 1346 988.921 1355.39 996.821C1364.98 1004.89 1366.71 1008.05 1381.05 1008.05C1388.04 1008.05 1391.32 1000.49 1391.32 995.666C1391.32 987.479 1393.27 979.259 1384.76 972.995C1372.43 963.921 1365.88 951.395 1359.95 939.618C1352.96 925.716 1331.52 918.019 1322.59 904.141C1317.92 896.878 1316.66 886.91 1326.59 882.309C1331.68 879.947 1333.86 878.546 1337.99 875.382C1344.53 870.377 1349.71 872.278 1356.53 869.085C1370.37 862.603 1385.65 867.037 1395.31 855.86C1406.65 842.751 1401.59 822.908 1401.59 807.788C1401.59 799.592 1400.59 799.869 1410.57 798.237C1419.12 796.838 1427.25 793.599 1427.25 787.006C1427.25 782.868 1424.24 778.284 1422.97 774.201C1418.35 759.31 1413.79 742.357 1401.73 729.593C1393.94 721.349 1384.26 720.542 1371.36 720.881C1357.86 721.236 1346.39 731.562 1333.43 734.106C1320.02 736.738 1307.59 740.936 1293.79 743.133C1271.47 746.685 1272.36 735.925 1266.98 723.82C1260.4 708.996 1260.43 696.061 1260.43 680.471C1260.43 654.316 1311.26 645.31 1339.85 645.31C1354.72 645.31 1376.06 642.368 1388.18 649.508C1406.87 660.513 1405.84 686.538 1406.72 703.458C1407.49 718.283 1411.26 738.049 1385.05 741.558C1362.68 744.552 1368.18 707.891 1370.79 700.204C1378.76 676.721 1380.24 653.177 1390.04 630.091C1394.54 619.495 1391.74 606.757 1394.46 595.769C1397.74 582.476 1400.5 575.407 1379.91 575.407C1358.25 575.407 1324.59 580.049 1324.59 599.967C1324.59 609.189 1330.84 638.705 1316.89 643.84C1307.59 647.262 1311.65 628.448 1311.76 624.318C1311.87 619.894 1319.54 607.176 1323.31 603.851C1336.97 591.781 1351.5 585.14 1370.22 577.296C1378.17 573.963 1390.74 569.029 1391.32 561.342C1392.02 552.014 1391.32 543.902 1396.45 534.997C1402.99 523.648 1411.85 515.438 1411.85 502.459C1411.85 486.671 1415.08 468.824 1409.86 453.443C1407.39 446.175 1405.28 434.217 1393.89 431.821C1381.79 429.278 1378.85 422.319 1368.22 418.177C1358.31 414.314 1352.96 406.471 1342.56 402.643C1327.72 397.18 1310.39 397.814 1294.36 397.814C1271.62 397.814 1255.81 411.039 1232.19 411.039C1228.39 411.039 1214.91 409.483 1212.23 411.459C1205.39 416.494 1228.67 418.596 1231.05 418.596C1260.54 418.596 1290.17 420.486 1319.31 420.486C1326.47 420.486 1340.66 422.723 1346.41 419.436C1356.27 413.788 1364.37 408.336 1376.49 404.952C1398.76 398.735 1417.46 388.159 1419.41 369.475C1420.83 355.921 1417.23 344.604 1398.45 339.667C1388.04 336.929 1380.42 331.877 1370.79 328.331C1364.98 326.194 1352.35 327.911 1345.98 327.911C1325.16 327.911 1304.34 327.911 1283.52 327.911C1277.85 327.911 1270.91 326.277 1270.69 331.69C1270.56 334.961 1269.46 340.339 1272.12 343.13C1279.06 350.426 1273.69 359.651 1277.11 367.691C1281.23 377.407 1286 389.368 1283.52 399.704C1282.57 403.69 1236.08 409.177 1230.2 410.619C1187.54 421.087 1118.74 430.772 1092.03 395.82C1081.34 381.826 1075.63 366.766 1075.63 350.582C1075.63 342.563 1075.12 335.548 1082.19 328.856C1085.31 325.902 1091.69 324.482 1096.31 323.293C1110.98 319.513 1121.12 311.795 1135.23 307.129C1155.33 300.487 1173.83 304.051 1193.69 309.018C1206 312.095 1213.44 319.302 1223.5 324.237C1242.83 333.727 1273.08 351.867 1278.39 369.475C1279.28 372.435 1288.72 389.369 1295.79 384.17C1307.62 375.462 1309.19 364.398 1309.19 352.577C1309.19 337.775 1291.22 336.305 1280.39 328.331C1271.07 321.47 1261.84 314.713 1254.01 307.024C1244.43 297.62 1238.98 286.766 1232.34 276.166C1227.71 268.791 1222.25 261.548 1221.93 253.18C1221.1 231.815 1179.26 236.975 1162.9 243.313C1143.01 251.016 1128.83 254.58 1110.14 242.789C1091.81 231.227 1106.84 210.617 1120.69 202.274C1130.98 196.075 1125.58 194.645 1117.98 189.049C1103.14 178.123 1088.15 163.458 1067.93 157.876C1045.55 151.698 1024.68 155.987 1003.2 155.987C984.834 155.987 947.303 157.507 947.303 174.879C947.303 188.594 947.303 202.309 947.303 216.024C947.303 224.329 945.186 234.319 950.44 242.054C955.675 249.761 966.563 252.114 972.969 258.008C981.452 265.813 1019.89 266.357 1030.72 260.842C1043.81 254.168 1041.96 236.492 1037.7 226.31C1034.64 218.976 1035.07 217.657 1025.58 214.554C1013.77 210.689 997.937 212.665 985.231 212.665C970.37 212.665 956.444 209.439 942.17 208.886C932.228 208.501 928.582 204.324 919.071 203.324C896.172 200.916 884.273 216.444 863.747 216.444C828.074 216.444 824.108 196.924 824.108 174.879C824.108 160.383 830.781 144.641 849.773 137.514C858.854 134.106 880.833 129.657 890.838 134.26C911.031 143.55 929.337 156.198 929.337 174.46C929.337 188.192 935.012 206.316 914.508 212.245C893.69 218.265 834.775 238.79 826.532 213.505C823.511 204.241 818.974 197.228 818.974 187.37C818.974 181.682 816.47 176.842 813.841 171.521C807.162 158.001 804.474 139.111 815.267 126.493C821.34 119.394 830.704 94.5789 820.4 88.0776C806.182 79.1068 798.152 64.9255 783.042 56.2747C753.805 39.5356 740.932 71.8608 729.144 86.5032C723.271 93.7991 723.751 109.538 724.011 117.781C724.514 133.706 771.491 129.537 784.183 129.537C805.192 129.537 822.565 133.391 833.803 118.831C839.223 111.81 838.129 99.7651 838.937 91.9611C840.415 77.6772 839.507 63.1432 839.507 48.8225C839.507 40.0863 842.226 33.1835 856.047 33.1835C860.736 33.1835 863.619 42.0355 867.169 44.939C873.603 50.2018 886.147 47.5703 893.262 51.2366C906.428 58.0207 936.873 55.8548 952.436 55.8548C967.32 55.8548 975.535 50.2759 975.535 39.2712C975.535 31.9484 973.882 24.2361 987.085 25.7313C993.548 26.4632 998.588 30.4574 1005.05 31.1893C1012.11 31.9887 1018.41 31.1689 1024.3 35.0728C1037.75 43.9819 1045.52 59.8826 1047.11 72.7534C1048.52 84.1693 1052.77 105.227 1036.71 112.323C1019.13 120.084 988.535 128.108 967.836 123.029C945.055 117.439 933.269 98.4349 919.356 85.3486C904.753 71.6134 883.564 72.413 861.18 72.8584C847.267 73.1352 843.262 85.9072 841.931 93.7454C839.582 107.581 831.591 117.643 847.777 129.117C859.422 137.371 878.036 135.205 892.55 135.205C922.227 135.205 952.393 136.56 981.809 133.735C1005.02 131.506 1032.36 128.374 1044.26 110.854C1052.8 98.2841 1052.62 83.6808 1065.22 72.8584C1077.21 62.5656 1087.76 53.5349 1105 47.2481C1120.48 41.6077 1147.9 31.4532 1166.6 33.2885C1194.62 36.0382 1201.39 66.5704 1201.39 82.0948C1201.39 93.9536 1203.59 107.272 1192.27 116.942C1182.43 125.346 1161.34 134.644 1146.36 135.205C1124.09 136.038 1116.26 115.507 1108.43 103.507C1099.05 89.1354 1088.46 78.1647 1088.46 61.5227C1088.46 51.5287 1094.69 32.4484 1110.14 29.7198C1129.25 26.344 1156.15 28.6003 1175.44 29.8248C1202.41 31.5358 1224.55 42.0897 1236.76 60.0532C1244.09 70.8552 1244.23 86.5342 1242.46 98.4686C1240.74 110.087 1200.09 117.747 1188.42 122.19C1167.46 130.17 1148.91 140.178 1126.82 146.54C1118.62 148.901 1093.6 150.637 1093.6 159.345C1093.6 164.629 1102.67 169.014 1106.43 172.78C1114.93 181.29 1118.89 193.57 1132.1 199.125C1155.97 209.167 1181.35 202.963 1197.12 188.314C1212.09 174.404 1217.74 157.023 1223.35 140.033C1225.06 134.871 1236.72 115.627 1220.64 118.411C1201.8 121.674 1176.52 136.312 1171.17 149.899C1164.25 167.437 1178.06 180.523 1187.42 194.927C1195.96 208.066 1213.65 217.534 1229.34 225.785C1239.4 231.074 1252.56 241.004 1265.7 241.004C1275.86 241.004 1285.71 242.893 1295.93 242.893C1312.72 242.893 1353.51 248.7 1366.23 238.695C1375.6 231.319 1374.94 214.392 1372.78 205.108C1369.57 191.255 1349.68 177.057 1333 171.311C1321.73 167.426 1286.85 159.353 1278.39 169.736C1268.9 181.379 1265.72 194.911 1265.56 208.257C1265.35 225.233 1272.69 239.473 1275.82 256.118C1277.79 266.533 1278.09 277.438 1282.1 287.606C1288.95 304.966 1313.73 320.91 1338.85 312.377C1357.47 306.05 1371.96 291.885 1386.33 281.519C1404.48 268.427 1411.66 257.34 1411.85 238.695C1412.09 216.087 1407.49 194.442 1405.29 171.941C1403.18 150.34 1406.39 131.783 1385.9 114.737C1370.95 102.299 1350.57 94.7217 1334.29 83.4593C1324.67 76.8105 1316.61 70.4205 1301.78 75.2724C1283.4 81.2839 1281.75 101.432 1281.1 113.898C1280.35 128.309 1283.72 141.125 1304.06 147.59C1363.04 166.338 1402.63 92.6043 1412.99 62.7822C1416.64 52.3007 1422.08 42.238 1404.15 39.691C1374.25 35.4434 1343.14 27.8207 1312.9 26.0462C1291.59 24.7962 1251.14 18.2714 1247.73 39.5861C1245.27 54.9906 1280.45 64.9316 1297.21 61.1028C1307.04 58.858 1309.19 47.7061 1309.19 41.6853C1309.19 35.4514 1292.19 36.9621 1286.09 36.9621" stroke="#F8FEFF" stroke-width="7" stroke-linecap="round" stroke-linejoin="round"/>
</svg>
