<svg width="1165" height="815" viewBox="0 0 1165 815" fill="none" xmlns="http://www.w3.org/2000/svg">
<rect x="1.62573" y="2.87988" width="1162.82" height="808.451" fill="#E8FEFF"/>
<path d="M814.739 425.619C792.173 432.462 768.66 438.829 753.318 453.257C743.629 462.368 731.477 489.098 740.241 500.637C748.64 511.694 771.465 522.113 787.627 527.486C809.12 534.631 828.728 539.253 852.408 542.402C862.873 543.794 874.502 542.717 883.839 539.682C887.061 538.634 892.317 536.173 895.715 536.173C901.405 536.173 901.717 532.522 905.432 531.084C919.592 525.601 899.421 500.616 895.115 493.53C891.484 487.555 894.333 479.435 888.637 474.227C884.742 470.667 880.028 462.22 875.201 460.013C869.934 457.606 862.576 445.526 862.245 441.412C861.687 434.468 856.468 430.767 849.769 426.847C844.726 423.897 831.092 420.881 824.456 420.881C815.915 420.881 818.274 409.051 811.5 405.087C807.789 402.916 807.872 398.826 802.743 396.84C798.938 395.367 795.817 393.187 792.066 391.663C782.768 387.885 772.159 385.34 763.994 380.696C749.816 372.63 736.84 362.976 718.768 359.199C712.045 357.794 702.453 348.877 702.453 344.283C702.453 336.524 689.113 337.176 679.66 337.176C669.241 337.176 663.886 329.555 658.786 324.892C650.557 317.369 668.504 310.765 673.901 306.818C681.523 301.243 680.945 293.271 686.857 287.866C689.676 285.289 687.654 280.32 694.895 280.32C699.937 280.32 704.004 278.929 706.292 275.582C711.933 267.33 711.893 262.947 726.206 262.947C735.729 262.947 745.968 261.368 756.437 261.368C769.254 261.368 771.859 262.981 777.55 270.844C781.449 276.229 786.181 283.388 786.668 289.796C786.834 291.987 788.192 298.935 784.508 299.272C778.298 299.84 781.901 304.706 785.708 305.502C798.227 308.118 795.305 315.035 795.305 323.752C795.305 340.497 776.352 351.109 759.676 360.866C753.547 364.452 746.673 368.158 740.241 371.921C734.132 375.496 728.962 383.579 722.847 386.135C714.588 389.587 711.357 400.509 703.532 405.087C699.685 407.339 689.497 417.772 689.497 421.671C689.497 429.259 688.887 436.997 689.497 444.571C689.759 447.828 700.451 462.58 689.497 463.523C684.229 463.976 681.414 466.041 677.62 468.261C675.476 469.516 675.359 477.593 678.7 477.737C686.733 478.083 692.565 488.709 695.495 493.53C700.223 501.312 698.635 505.189 711.57 508.973C719.188 511.202 728.485 518.541 734.843 518.8C744.732 519.202 759.747 519.946 767.233 525.117C775.19 530.613 783.593 534.801 791.466 540.56C794.638 542.88 806.102 555.592 806.102 559.073C806.102 563.528 807.604 566.734 801.783 568.988C798.793 570.146 792.758 573.247 790.986 574.866C785.421 579.955 776.844 583.016 770.592 587.589C762.068 593.823 754.031 593.129 744.56 596.977C741.184 598.349 730.923 603.974 728.365 604.084C725.514 604.207 713.211 602.935 711.21 601.715C703.079 596.759 694.379 593.208 684.098 591.537C670.405 589.312 664.233 587.185 653.867 579.604C643.843 572.273 636.501 563.403 625.676 556.616C609.515 546.485 584.795 532.395 561.015 536.26C557.597 536.816 550.807 540.657 546.979 542.139C540.897 544.494 534.789 546.871 528.745 549.685C518.914 554.26 508.109 558.911 498.274 563.021C482.199 569.739 466.579 587.83 480.039 600.136C485.238 604.889 491.778 607.709 497.314 612.77C500.025 615.249 503.6 617.225 506.431 619.526C507.219 620.166 514.459 625.469 514.469 625.493C517.113 632.261 529.978 632.499 536.662 636.899C540.036 639.12 546.387 642.322 550.218 643.567C556.089 645.476 556.392 650.484 562.095 652.693C572.911 656.881 577.908 664.287 585.847 670.416C591.259 674.594 604.279 683.5 605.282 689.368C605.78 692.286 612.903 695.296 614.999 698.055C617.822 701.772 616.322 704.638 620.877 707.969C627.374 712.721 636.862 713.472 641.511 718.147C645.142 721.799 641.101 730.677 635.633 732.01C629.626 733.475 624.691 733.59 618.238 733.59C606.001 733.59 593.765 733.59 581.529 733.59C575.393 733.59 569.621 732.241 564.254 732.01C560.815 731.862 556.978 731.787 553.577 732.098C548.386 732.573 547.564 736.748 541.701 736.748C530.184 736.748 518.668 736.748 507.151 736.748C496.615 736.748 484.825 736.76 474.641 738.415C470.248 739.129 463.469 740.758 460.125 742.715C457.839 744.052 454.472 747.804 450.888 747.804C439.928 747.804 437.787 758.265 425.095 755.613C423.355 755.249 420.571 748.894 417.418 747.453C413.106 745.482 409.477 743.066 403.382 743.066C398.861 743.066 376.77 741.439 374.231 739.117C365.566 731.196 385.993 728.741 392.585 724.991C399.896 720.832 405.49 717.684 409.26 711.479C410.972 708.661 415.258 702.502 415.258 699.634C415.258 694.616 421.129 691.79 421.736 687.789C422.759 681.059 434.485 675.514 443.33 675.154C453.63 674.736 468.254 669.871 477.88 666.907C483.45 665.191 492.586 660.94 498.394 660.94C499.976 660.94 503.028 658.564 502.832 659.712C502.507 661.616 497.186 663.087 495.155 663.748C486.666 666.507 473.777 668.477 464.924 668.837C454.201 669.272 446.029 673.575 434.693 673.575C422.502 673.575 432.027 660.916 432.533 654.623C432.837 650.851 446.961 637.25 450.888 637.25C461.685 637.25 472.481 637.25 483.278 637.25C491.473 637.25 508.111 633.926 508.111 626.984C508.111 618.891 501.972 615.549 492.035 613.472C488.637 612.762 486.33 607.42 482.198 607.243C476.086 606.98 471.652 607.816 466.003 608.734C461.067 609.537 454.704 611.701 449.808 613.209C445.738 614.463 441.861 613.65 438.052 615.929C434.967 617.775 431.159 620.715 427.135 621.369C408.564 624.387 375.639 614.742 361.394 626.897C357.776 629.984 350.875 629.955 347.239 634.091C343.789 638.016 340.877 638.832 337.042 641.637C331.265 645.862 336.425 657.681 341.36 661.291C346.201 664.831 353.997 674.92 354.796 679.892C356.437 690.094 368.258 697.702 373.751 706.741C377.621 713.111 381.936 724.831 380.709 732.01C380.202 734.974 372.347 724.907 370.992 724.114C366.425 721.441 367.282 716.941 361.275 714.989C342.501 708.886 322.495 709.9 300.813 709.9C294.401 709.9 292.034 710.852 289.536 706.741C287.756 703.812 284.305 700.974 283.418 698.055C281.049 690.257 274.9 683.919 274.9 675.944C274.9 667.074 273.921 658.802 286.777 654.623C291.25 653.169 315.928 648.977 315.928 647.516C315.928 639.821 299.223 638.829 291.095 638.829C278.128 638.829 264.741 630.094 252.347 627.072C243.263 624.858 235.058 624.878 225.715 624.615C221.358 624.493 210.746 623.817 206.881 622.246C199.824 619.379 179.282 614.451 175.57 609.699C173.083 606.516 164.615 605.96 160.454 604.874C152.97 602.919 153.417 600.121 147.498 597.416C143.285 595.49 139.146 580.985 138.861 577.235C138.161 568.019 131.37 559.314 145.339 554.774C154.105 551.924 168.031 553.103 175.09 548.456C179.485 545.563 178.629 542.161 180.009 538.629C180.743 536.75 192.581 537.752 195.004 537.752C204.099 537.752 222.598 539.115 229.554 534.593C237.063 529.711 249.97 529.855 259.785 529.855C267.668 529.855 286.901 527.296 292.655 531.084C300.897 536.509 306.596 538.595 307.291 547.228C307.709 552.424 311.609 543.936 311.609 541.7C311.609 538.927 309.812 531.738 313.769 530.206C321.17 527.34 333.456 525.117 341.84 525.117C352.523 525.117 365.593 519.111 365.593 531.434C365.593 538.016 361.072 534.778 356.956 538.542C354.36 540.915 352.637 545.593 352.637 548.807C352.637 562.01 347.102 575.181 346.159 588.291C345.868 592.342 345.473 595.181 344.12 598.644C343.231 600.918 343.259 606.736 341.36 608.471C331.36 617.614 350.33 621.536 357.436 624.615C369.892 630.014 387.147 629.353 401.223 629.353C414.657 629.353 419.68 616.584 424.975 609.612C438.598 591.677 426.162 571.939 410.1 557.581C401.962 550.306 390.812 543.737 381.668 537.05C377.163 533.755 375.992 531.639 376.39 526.696C376.628 523.736 389.224 525.117 392.585 525.117C401.862 525.117 419.01 527.629 427.135 524.327C437.059 520.295 436.454 513.173 432.533 505.288C428.992 498.166 428.215 486.639 428.215 479.316C428.215 470.964 432.533 465.033 432.533 457.206C432.533 449.987 433.634 442.325 432.413 435.183C431.614 430.503 428.215 427.481 428.215 422.46C428.215 410.158 429.115 400.67 441.171 390.873C451.769 382.261 463.908 378.829 480.039 378.239C489.436 377.895 508.708 377.325 516.268 381.748C526.482 387.725 528.423 391.923 533.543 400.349C534.817 402.446 535.237 408.641 537.262 409.826C539.426 411.092 542.504 415.664 542.66 417.722C543.568 429.675 554.905 462.673 530.784 466.594C518.477 468.594 505.7 471.543 494.195 475.368C490.261 476.676 482.071 477.567 477.88 477.737C472.2 477.968 465.042 481.04 459.645 482.475C450.463 484.917 439.011 492.075 439.011 499.058C439.011 508.993 439.388 511.354 448.608 518.098C456.6 523.943 458.467 533.014 472.481 533.014C480.738 533.014 498.37 539.93 505.831 535.383C514.62 530.026 527.116 532.959 536.182 526.696C546.066 519.869 544.82 514.203 544.82 504.586C544.82 500.811 546.979 497.45 546.979 494.32C546.979 489.02 551.712 490.372 557.776 490.372C570.908 490.372 578.412 489.141 588.007 482.475C592.893 479.08 605.236 477.458 607.321 472.122C608.357 469.47 611.49 467.368 614.399 465.453C625.274 458.295 633.212 452.732 637.192 441.412C641.656 428.714 646.136 418.176 654.467 406.667C659.454 399.777 670.062 396.85 670.062 387.715C670.062 382.123 672.606 368.763 660.345 368.763C652.052 368.763 649.993 357.502 641.031 359.374C630.77 361.519 616.449 360.541 607.441 366.306C603.147 369.054 592.482 370.075 586.807 372.272C582.458 373.956 574.731 376.659 569.652 376.659C559.48 376.659 551.008 381.397 541.581 381.397C529.107 381.397 527.235 373.889 515.668 372.009C503.766 370.075 501.557 351.886 517.828 358.497C526.021 361.826 538.538 360.866 548.059 360.866C570.185 360.866 590.154 356.128 611.76 356.128C615.079 356.128 624.717 357.311 626.875 355.338C629.678 352.776 631.776 348.673 635.513 347.003C646.82 341.949 648.469 334.926 648.469 326.121C648.469 319.294 648.436 309.588 643.67 304.01C640.602 300.42 610.729 300.851 605.282 300.851C590.523 300.851 578.33 296.113 564.254 296.113C554.898 296.113 531.122 292.81 529.704 283.479C528.788 277.45 525.698 271.57 525.386 265.404C525.086 259.491 524.697 249.594 517.828 245.574C505.135 238.148 533.524 236.492 537.142 236.011C563.103 232.558 590.413 231.36 617.278 231.36C631.374 231.36 644.858 231.528 658.186 233.027C674.416 234.854 690.348 238.868 705.812 240.924C713.069 241.889 717.881 245.574 725.726 245.574C732.004 245.574 738.282 245.574 744.56 245.574C759.939 245.574 776.37 247.023 790.986 243.205C804.654 239.635 819.058 236.604 819.058 224.253C819.058 217.993 825.102 208.208 834.653 207.67C836.751 207.552 848.271 204.652 849.289 203.722C849.639 203.402 862.007 215.643 865.604 217.146C875.264 221.184 878.24 231.718 887.078 235.309C894.021 238.13 894.215 241.615 894.635 247.154C894.847 249.944 897.198 251.902 896.675 254.963C896.177 257.877 892.476 259.116 892.476 262.157C892.476 268.473 873.063 271.797 867.643 274.88C859.391 279.575 844.012 285.546 833.094 281.11C818.738 275.276 822.335 260.781 811.38 252.769C801.197 245.321 807.425 248.268 814.259 253.822C819.807 258.33 824.489 262.482 829.735 267.597C836.979 274.662 838.183 282.671 842.811 290.498C849.071 301.086 845.874 313.877 832.014 319.452C822.567 323.253 813.013 325.48 804.062 329.981C800.205 331.921 782.048 340.573 796.505 335.597C806.593 332.124 816.506 330.859 827.695 330.859C839.06 330.859 844.564 330.236 852.528 337.088C857.669 341.512 864.702 345.992 870.403 350.162C875.588 353.954 892.067 362.578 881.679 365.955C872.58 368.913 854.473 365.893 853.608 376.659C852.889 385.588 846.398 393.208 834.173 396.401C818.247 400.561 812.58 399.106 812.58 412.195C812.58 417.593 811.003 420.115 818.578 422.109C824.066 423.554 825.258 425.603 828.775 428.69C832.364 431.839 837.449 432.913 840.172 436.674C842.242 439.534 848.635 443.305 852.528 444.571C867.814 449.54 886.38 450.888 903.393 450.888C906.339 450.888 911.329 451.598 914.07 450.537C917.591 449.174 914.628 446.444 916.709 444.922C919.424 442.936 930.179 443.89 931.224 440.447C934.804 428.666 937.57 408.131 925.826 397.98C919.002 392.082 909.217 387.394 900.634 382.977C895.225 380.193 884.987 375.453 881.679 371.219C874.015 361.41 893.43 362.445 903.273 362.445C916.273 362.445 930.24 363.169 942.621 365.955C950.502 367.729 958.036 366.613 966.134 367.271C976.66 368.127 985.012 370.342 996.125 370.342C1012.27 370.342 1037.73 366.676 1052.27 372.272C1070.23 379.187 1082.09 393.384 1093.3 405.438C1099.16 411.749 1104.97 415.201 1109.49 422.548C1112.49 427.428 1116.83 436.02 1117.05 441.412C1117.25 446.325 1118.7 451.631 1112.61 454.749C1105.95 458.16 1096.39 458.623 1089.46 461.944C1077.67 467.593 1069.27 473.797 1055.51 476.86C1044.93 479.215 1030.84 477.943 1019.88 477.737C995.784 477.285 975.13 464.997 953.898 458.785C944.691 456.092 907.591 437.02 907.591 453.345C907.591 460.839 913.53 464.32 915.749 471.42C918.193 479.24 916.229 488.683 916.229 496.689C916.229 503.435 905.791 504.893 898.954 507.393C891.519 510.112 892.476 515.849 892.476 521.169C892.476 531.011 896.795 528.647 896.795 520.379C896.795 517.173 894.573 507.966 897.994 505.463C902.289 502.322 918.999 502.681 924.866 501.778C936.553 499.979 949.063 501.07 960.616 499.058C977.338 496.146 1006.71 495.78 1020.96 503.884C1035.12 511.938 1037.68 533.966 1026.36 543.28C1015.33 552.349 1017.72 564.015 1017.72 575.656C1017.72 583.227 1004.11 588.101 995.885 591.537C989.24 594.314 975.545 602.28 967.574 602.505C959.151 602.742 948.551 603.718 940.942 600.75C931.2 596.95 923.94 588.386 914.549 583.553C885.591 568.648 849.465 569.339 814.739 569.339C782.915 569.339 756.437 595.11 756.437 617.07C756.437 634.881 768.59 642.922 791.946 647.077C804.674 649.341 833.659 650.858 838.012 638.829C842.104 627.523 815.109 616.719 839.572 616.719C846.163 616.719 885.018 620.165 885.878 617.333C889.597 605.091 870.808 603.887 861.045 597.767C854.476 593.648 851.488 587.302 849.289 581.271C846.065 572.43 850.948 572.987 857.446 579.166C865.207 586.545 868.552 596.633 877.36 603.996C882.777 608.524 890.086 616.427 896.795 619.526C904.165 622.931 912.298 625.258 919.588 628.651C934.456 635.571 957.163 634.091 974.531 634.091C1007.21 634.091 1097.61 612.806 1097.61 654.535C1097.61 658.918 1099.44 668.035 1090.66 668.749C1064.58 670.868 1038.66 673.927 1012.2 673.575C1000.32 673.417 988.213 670.031 983.169 661.73C981.057 658.254 978.072 651.887 972.852 656.553C967.831 661.042 966.639 667.301 958.336 669.539C942.65 673.766 920.943 671.996 904.472 671.996C897.155 671.996 877.194 669.111 873.042 675.944C869.428 681.891 863.804 686.898 857.926 691.649C851.135 697.14 841.023 706.501 830.454 708.32C825.476 709.177 796.111 713.078 795.305 717.796C794.634 721.725 790.986 724.863 790.986 729.554C790.986 733.531 790.986 737.509 790.986 741.486C790.986 750.869 803.425 759.959 810.181 767.37C818.3 776.278 830.233 783.391 836.333 793.254C842.1 802.578 854.364 804.66 867.044 804.66C885.364 804.66 900.605 799.775 914.07 790.446C927.745 780.97 940.091 765.588 959.896 762.369C983.989 758.453 1010.88 756.644 1011.24 734.292C1011.3 730.902 1014.25 702.97 1010.04 702.091C1006.83 701.419 998.424 713.68 996.125 715.866C989.908 721.777 977.296 726.243 968.893 730.519C946.776 741.772 925.384 743.212 899.914 745.873C884.481 747.486 909.218 746.224 914.07 746.224C929.406 746.224 940.273 741.596 953.898 736.748C982.169 726.689 999.516 710.661 987.008 687.438C983.245 680.451 954.236 657.462 944.301 671.996" stroke="#D9F8FB" stroke-opacity="0.6" stroke-width="7" stroke-linecap="round" stroke-linejoin="round"/>
<path d="M842.965 403.247C820.399 410.09 796.886 416.457 781.544 430.885C771.855 439.996 759.703 466.726 768.467 478.265C776.866 489.322 799.691 499.741 815.853 505.114C837.346 512.259 856.954 516.881 880.634 520.03C891.099 521.422 902.728 520.345 912.065 517.31C915.287 516.262 920.543 513.8 923.941 513.8C929.631 513.8 929.943 510.15 933.658 508.711C947.818 503.229 927.647 478.244 923.341 471.158C919.71 465.183 922.559 457.063 916.863 451.855C912.968 448.294 908.254 439.848 903.427 437.641C898.16 435.234 890.802 423.154 890.471 419.04C889.912 412.096 884.694 408.395 877.995 404.475C872.952 401.525 859.318 398.509 852.682 398.509C844.141 398.509 846.5 386.679 839.726 382.715C836.015 380.544 836.098 376.454 830.969 374.468C827.164 372.995 824.043 370.815 820.292 369.291C810.994 365.513 800.385 362.968 792.22 358.323C778.042 350.258 765.066 340.603 746.994 336.827C740.271 335.422 730.679 326.505 730.679 321.911C730.679 314.151 717.339 314.804 707.885 314.804C697.467 314.804 692.112 307.183 687.012 302.52C678.783 294.997 696.73 288.393 702.127 284.446C709.749 278.871 709.171 270.899 715.083 265.493C717.902 262.917 715.88 257.948 723.121 257.948C728.163 257.948 732.23 256.556 734.518 253.21C740.159 244.958 740.119 240.575 754.432 240.575C763.955 240.575 774.194 238.996 784.663 238.996C797.48 238.996 800.085 240.609 805.776 248.472C809.675 253.857 814.407 261.016 814.894 267.424C815.06 269.615 816.418 276.563 812.734 276.9C806.524 277.468 810.127 282.334 813.934 283.129C826.453 285.746 823.531 292.663 823.531 301.38C823.531 318.125 804.578 328.737 787.902 338.494C781.773 342.08 774.899 345.786 768.467 349.549C762.358 353.124 757.188 361.207 751.073 363.763C742.814 367.215 739.583 378.137 731.758 382.715C727.911 384.967 717.723 395.4 717.723 399.298C717.723 406.887 717.113 414.625 717.723 422.199C717.984 425.456 728.677 440.208 717.723 441.151C712.455 441.604 709.64 443.669 705.846 445.889C703.702 447.143 703.585 455.221 706.926 455.365C714.959 455.711 720.791 466.337 723.721 471.158C728.449 478.939 726.861 482.817 739.796 486.601C747.414 488.829 756.711 496.169 763.069 496.428C772.958 496.83 787.973 497.574 795.459 502.745C803.416 508.241 811.819 512.429 819.692 518.187C822.864 520.508 834.328 533.22 834.328 536.701C834.328 541.156 835.83 544.362 830.009 546.616C827.019 547.773 820.984 550.875 819.212 552.494C813.647 557.583 805.07 560.644 798.818 565.217C790.294 571.451 782.257 570.757 772.786 574.605C769.41 575.977 759.149 581.602 756.591 581.712C753.74 581.835 741.437 580.563 739.436 579.343C731.305 574.387 722.605 570.836 712.324 569.165C698.631 566.939 692.459 564.813 682.093 557.232C672.069 549.9 664.727 541.031 653.902 534.244C637.741 524.113 613.021 510.023 589.241 513.888C585.823 514.444 579.033 518.285 575.205 519.767C569.123 522.122 563.015 524.499 556.97 527.313C547.14 531.888 536.335 536.539 526.5 540.649C510.425 547.367 494.805 565.458 508.265 577.764C513.464 582.517 520.004 585.337 525.54 590.398C528.251 592.877 531.826 594.853 534.657 597.154C535.445 597.794 542.685 603.097 542.695 603.121C545.339 609.889 558.204 610.127 564.888 614.527C568.262 616.748 574.612 619.95 578.444 621.195C584.315 623.104 584.618 628.112 590.321 630.32C601.137 634.509 606.134 641.914 614.073 648.044C619.485 652.222 632.505 661.127 633.508 666.996C634.006 669.914 641.129 672.924 643.225 675.683C646.048 679.4 644.548 682.265 649.103 685.597C655.6 690.349 665.088 691.1 669.737 695.775C673.368 699.427 669.327 708.305 663.859 709.638C657.852 711.103 652.917 711.218 646.464 711.218C634.227 711.218 621.991 711.218 609.755 711.218C603.619 711.218 597.847 709.869 592.48 709.638C589.041 709.49 585.204 709.415 581.803 709.726C576.612 710.201 575.79 714.376 569.927 714.376C558.41 714.376 546.894 714.376 535.377 714.376C524.841 714.376 513.051 714.388 502.867 716.043C498.474 716.757 491.695 718.386 488.351 720.343C486.065 721.68 482.698 725.432 479.114 725.432C468.154 725.432 466.013 735.893 453.321 733.241C451.581 732.877 448.797 726.522 445.644 725.081C441.332 723.11 437.703 720.694 431.608 720.694C427.087 720.694 404.996 719.067 402.457 716.745C393.792 708.824 414.219 706.369 420.811 702.619C428.122 698.46 433.716 695.312 437.486 689.107C439.198 686.289 443.484 680.13 443.484 677.262C443.484 672.244 449.355 669.418 449.962 665.417C450.985 658.687 462.711 653.142 471.556 652.782C481.856 652.364 496.48 647.499 506.106 644.534C511.676 642.819 520.812 638.568 526.62 638.568C528.201 638.568 531.254 636.192 531.058 637.34C530.733 639.244 525.412 640.715 523.381 641.376C514.892 644.135 502.003 646.105 493.15 646.465C482.427 646.9 474.255 651.203 462.919 651.203C450.728 651.203 460.253 638.544 460.759 632.251C461.063 628.479 475.187 614.878 479.114 614.878C489.91 614.878 500.707 614.878 511.504 614.878C519.699 614.878 536.337 611.554 536.337 604.612C536.337 596.519 530.198 593.177 520.261 591.1C516.863 590.39 514.556 585.048 510.424 584.871C504.312 584.608 499.878 585.444 494.229 586.362C489.293 587.164 482.93 589.329 478.034 590.837C473.964 592.09 470.087 591.278 466.278 593.557C463.193 595.403 459.385 598.343 455.361 598.997C436.79 602.015 403.865 592.37 389.62 604.525C386.002 607.612 379.101 607.582 375.465 611.719C372.015 615.644 369.103 616.46 365.268 619.265C359.491 623.49 364.651 635.309 369.586 638.919C374.427 642.459 382.223 652.548 383.022 657.52C384.663 667.722 396.484 675.33 401.977 684.369C405.847 690.739 410.162 702.459 408.935 709.638C408.428 712.602 400.573 702.535 399.218 701.742C394.651 699.069 395.508 694.569 389.5 692.617C370.727 686.514 350.721 687.528 329.039 687.528C322.627 687.528 320.26 688.48 317.762 684.369C315.982 681.44 312.531 678.601 311.644 675.683C309.274 667.885 303.126 661.547 303.126 653.572C303.126 644.702 302.147 636.43 315.003 632.251C319.476 630.797 344.154 626.605 344.154 625.144C344.154 617.449 327.449 616.457 319.321 616.457C306.353 616.457 292.967 607.722 280.573 604.7C271.489 602.486 263.284 602.506 253.941 602.243C249.584 602.121 238.972 601.445 235.107 599.874C228.05 597.007 207.508 592.079 203.796 587.327C201.309 584.144 192.841 583.588 188.68 582.502C181.196 580.547 181.643 577.749 175.724 575.044C171.511 573.117 167.372 558.612 167.087 554.863C166.387 545.647 159.596 536.942 173.565 532.402C182.331 529.552 196.257 530.731 203.316 526.084C207.711 523.191 206.855 519.788 208.235 516.257C208.969 514.378 220.807 515.38 223.23 515.38C232.325 515.38 250.824 516.743 257.78 512.221C265.289 507.339 278.196 507.483 288.011 507.483C295.894 507.483 315.127 504.924 320.881 508.711C329.123 514.137 334.822 516.223 335.517 524.856C335.935 530.052 339.835 521.564 339.835 519.328C339.835 516.555 338.038 509.366 341.995 507.834C349.396 504.968 361.682 502.745 370.066 502.745C380.749 502.745 393.819 496.738 393.819 509.062C393.819 515.644 389.298 512.406 385.182 516.169C382.586 518.543 380.863 523.221 380.863 526.435C380.863 539.638 375.328 552.809 374.385 565.919C374.093 569.969 373.699 572.809 372.346 576.272C371.457 578.546 371.485 584.364 369.586 586.099C359.586 595.241 378.556 599.164 385.662 602.243C398.118 607.642 415.373 606.981 429.449 606.981C442.883 606.981 447.906 594.212 453.201 587.24C466.824 569.305 454.388 549.567 438.326 535.209C430.188 527.934 419.038 521.365 409.894 514.678C405.389 511.383 404.218 509.267 404.616 504.324C404.854 501.364 417.45 502.745 420.811 502.745C430.088 502.745 447.236 505.257 455.361 501.955C465.285 497.923 464.68 490.801 460.759 482.916C457.218 475.793 456.44 464.266 456.44 456.944C456.44 448.592 460.759 442.661 460.759 434.834C460.759 427.615 461.86 419.953 460.639 412.811C459.839 408.131 456.44 405.109 456.44 400.088C456.44 387.786 457.341 378.298 469.397 368.501C479.995 359.889 492.134 356.457 508.265 355.867C517.662 355.523 536.934 354.953 544.494 359.376C554.708 365.353 556.649 369.551 561.769 377.977C563.043 380.074 563.463 386.269 565.488 387.453C567.652 388.72 570.73 393.291 570.886 395.35C571.794 407.303 583.131 440.301 559.01 444.222C546.703 446.222 533.926 449.171 522.421 452.996C518.487 454.304 510.297 455.195 506.106 455.365C500.426 455.596 493.268 458.668 487.871 460.103C478.689 462.545 467.237 469.703 467.237 476.686C467.237 486.621 467.614 488.982 476.834 495.726C484.826 501.571 486.693 510.642 500.707 510.642C508.964 510.642 526.596 517.558 534.057 513.011C542.845 507.654 555.342 510.587 564.408 504.324C574.292 497.497 573.046 491.831 573.046 482.214C573.046 478.439 575.205 475.078 575.205 471.948C575.205 466.648 579.938 468 586.002 468C599.134 468 606.638 466.769 616.233 460.103C621.119 456.708 633.462 455.086 635.547 449.75C636.583 447.098 639.716 444.996 642.625 443.081C653.5 435.923 661.438 430.36 665.418 419.04C669.882 406.342 674.362 395.804 682.693 384.295C687.68 377.405 698.288 374.478 698.288 365.343C698.288 359.751 700.832 346.391 688.571 346.391C680.278 346.391 678.219 335.13 669.257 337.002C658.996 339.147 644.675 338.169 635.667 343.934C631.373 346.682 620.708 347.703 615.033 349.9C610.684 351.584 602.957 354.287 597.878 354.287C587.706 354.287 579.234 359.025 569.807 359.025C557.333 359.025 555.461 351.517 543.894 349.637C531.992 347.703 529.783 329.514 546.054 336.125C554.247 339.454 566.764 338.494 576.285 338.494C598.411 338.494 618.38 333.756 639.986 333.756C643.305 333.756 652.943 334.939 655.101 332.966C657.904 330.404 660.002 326.301 663.739 324.631C675.046 319.577 676.695 312.554 676.695 303.749C676.695 296.922 676.662 287.215 671.896 281.638C668.828 278.048 638.955 278.479 633.508 278.479C618.749 278.479 606.556 273.741 592.48 273.741C583.124 273.741 559.348 270.438 557.93 261.106C557.014 255.078 553.924 249.198 553.611 243.032C553.312 237.119 552.923 227.222 546.054 223.202C533.361 215.776 561.75 214.12 565.368 213.639C591.329 210.186 618.639 208.988 645.504 208.988C659.6 208.988 673.084 209.156 686.412 210.655C702.642 212.482 718.574 216.496 734.038 218.552C741.295 219.517 746.107 223.202 753.952 223.202C760.23 223.202 766.508 223.202 772.786 223.202C788.165 223.202 804.595 224.651 819.212 220.833C832.88 217.263 847.284 214.232 847.284 201.881C847.284 195.621 853.328 185.836 862.879 185.298C864.977 185.18 876.497 182.28 877.515 181.35C877.865 181.03 890.233 193.271 893.83 194.774C903.49 198.811 906.466 209.346 915.304 212.937C922.247 215.758 922.441 219.243 922.861 224.782C923.073 227.572 925.424 229.53 924.901 232.591C924.403 235.505 920.702 236.744 920.702 239.785C920.702 246.101 901.289 249.425 895.869 252.508C887.617 257.203 872.238 263.174 861.32 258.737C846.964 252.904 850.561 238.409 839.606 230.397C829.423 222.949 835.651 225.896 842.485 231.45C848.033 235.958 852.715 240.11 857.961 245.225C865.205 252.29 866.409 260.299 871.037 268.126C877.297 278.714 874.1 291.505 860.24 297.08C850.793 300.88 841.239 303.108 832.288 307.609C828.431 309.549 810.274 318.2 824.731 313.225C834.819 309.752 844.732 308.487 855.921 308.487C867.286 308.487 872.79 307.864 880.754 314.716C885.895 319.14 892.928 323.62 898.629 327.79C903.814 331.582 920.293 340.206 909.905 343.583C900.806 346.541 882.699 343.521 881.834 354.287C881.115 363.216 874.624 370.836 862.399 374.029C846.473 378.189 840.806 376.734 840.806 389.822C840.806 395.221 839.229 397.743 846.804 399.737C852.292 401.182 853.484 403.231 857.001 406.318C860.59 409.467 865.675 410.541 868.398 414.302C870.468 417.162 876.861 420.933 880.754 422.199C896.04 427.168 914.606 428.516 931.619 428.516C934.565 428.516 939.555 429.226 942.296 428.165C945.817 426.802 942.854 424.072 944.935 422.55C947.65 420.564 958.404 421.517 959.45 418.075C963.03 406.294 965.796 385.759 954.052 375.608C947.227 369.709 937.443 365.022 928.86 360.605C923.451 357.821 913.213 353.081 909.905 348.847C902.241 339.038 921.656 340.073 931.499 340.073C944.499 340.073 958.466 340.797 970.847 343.583C978.728 345.357 986.262 344.241 994.36 344.899C1004.89 345.754 1013.24 347.97 1024.35 347.97C1040.5 347.97 1065.96 344.304 1080.49 349.9C1098.46 356.815 1110.31 371.012 1121.52 383.066C1127.39 389.377 1133.2 392.829 1137.72 400.176C1140.72 405.056 1145.06 413.648 1145.27 419.04C1145.47 423.953 1146.93 429.258 1140.84 432.377C1134.17 435.788 1124.61 436.25 1117.68 439.572C1105.89 445.221 1097.49 451.425 1083.73 454.488C1073.15 456.843 1059.06 455.57 1048.1 455.365C1024.01 454.913 1003.36 442.625 982.124 436.413C972.917 433.72 935.817 414.648 935.817 430.973C935.817 438.467 941.756 441.948 943.975 449.048C946.419 456.868 944.455 466.311 944.455 474.317C944.455 481.063 934.017 482.521 927.18 485.021C919.745 487.74 920.702 493.477 920.702 498.797C920.702 508.639 925.021 506.275 925.021 498.007C925.021 494.801 922.799 485.594 926.22 483.091C930.515 479.95 947.225 480.309 953.092 479.406C964.779 477.607 977.289 478.698 988.842 476.686C1005.56 473.774 1034.94 473.408 1049.18 481.512C1063.34 489.566 1065.9 511.594 1054.58 520.907C1043.56 529.977 1045.94 541.643 1045.94 553.284C1045.94 560.855 1032.33 565.729 1024.11 569.165C1017.47 571.942 1003.77 579.908 995.8 580.133C987.377 580.37 976.777 581.346 969.168 578.378C959.426 574.578 952.166 566.014 942.775 561.181C913.817 546.276 877.691 546.967 842.965 546.967C811.141 546.967 784.663 572.738 784.663 594.698C784.663 612.509 796.816 620.55 820.172 624.705C832.9 626.969 861.885 628.486 866.238 616.457C870.33 605.151 843.335 594.347 867.798 594.347C874.389 594.347 913.243 597.793 914.104 594.961C917.823 582.719 899.034 581.515 889.271 575.395C882.702 571.276 879.714 564.93 877.515 558.899C874.291 550.058 879.174 550.615 885.672 556.794C893.433 564.173 896.778 574.261 905.586 581.624C911.003 586.152 918.312 594.055 925.021 597.154C932.391 600.559 940.524 602.886 947.814 606.279C962.682 613.199 985.389 611.719 1002.76 611.719C1035.43 611.719 1125.84 590.434 1125.84 632.163C1125.84 636.546 1127.66 645.663 1118.88 646.377C1092.8 648.496 1066.89 651.555 1040.43 651.203C1028.54 651.045 1016.44 647.659 1011.39 639.358C1009.28 635.882 1006.3 629.515 1001.08 634.181C996.057 638.67 994.865 644.929 986.562 647.167C970.876 651.393 949.169 649.623 932.698 649.623C925.381 649.623 905.42 646.739 901.268 653.572C897.654 659.519 892.03 664.526 886.152 669.277C879.361 674.768 869.249 684.129 858.68 685.948C853.702 686.805 824.337 690.706 823.531 695.424C822.859 699.353 819.212 702.491 819.212 707.182C819.212 711.159 819.212 715.137 819.212 719.114C819.212 728.496 831.651 737.586 838.407 744.998C846.526 753.906 858.458 761.019 864.559 770.881C870.326 780.206 882.59 782.288 895.27 782.288C913.59 782.288 928.831 777.403 942.296 768.074C955.971 758.598 968.317 743.216 988.122 739.997C1012.21 736.081 1039.11 734.272 1039.47 711.92C1039.52 708.53 1042.47 680.598 1038.27 679.719C1035.05 679.047 1026.65 691.308 1024.35 693.494C1018.13 699.405 1005.52 703.871 997.119 708.147C975.002 719.4 953.61 720.84 928.14 723.501C912.707 725.114 937.444 723.852 942.296 723.852C957.632 723.852 968.499 719.224 982.124 714.376C1010.4 704.317 1027.74 688.289 1015.23 665.066C1011.47 658.079 982.462 635.09 972.527 649.623" stroke="#EEFEFF" stroke-width="7" stroke-linecap="round" stroke-linejoin="round"/>
<path d="M91.444 260.837C74.1788 265.101 58.1479 266.628 47.9205 277.849C40.9787 285.464 37.5578 292.25 37.5578 301.849C37.5578 326.15 43.609 348.85 65.422 367.704C70.7885 372.343 74.1931 383.621 84.1901 383.621C93.0131 383.621 95.0432 373.534 97.201 368.799C105.403 350.804 116.314 330.268 116.314 311.197C116.314 302.267 119.274 292.67 102.843 292.67C85.7181 292.67 80.5693 293.321 67.7248 301.007C55.7753 308.158 42.8931 315.856 35.9458 326.019C34.9138 327.528 35.4367 337.906 34.449 336.461C31.1767 331.675 25.4316 327.459 25.1225 321.808C24.8298 316.456 27.7572 316.909 33.4127 315.071C40.1924 312.867 46.3667 305.934 53.1019 302.523C58.0679 300.009 63.6749 298.45 68.5308 295.786C74.362 292.587 83.1173 293.259 89.832 290.312C101.941 284.998 119.228 285.091 132.78 285.091C147.66 285.091 149.475 290.275 149.475 300.249C149.475 312.539 151.548 324.096 151.548 336.293C151.548 347.378 150.376 358.755 153.62 369.641C155.11 374.64 161.141 394.232 171.352 394.232C186.6 394.232 197.295 395.705 212.112 391.537C221.357 388.936 222.612 380.769 227.311 375.368C236.712 364.563 235.798 351.756 241.703 339.661C248.558 325.623 234.885 326.019 220.978 326.019C214.654 326.019 203.484 324.339 198.065 326.861C192.323 329.533 188.794 332.775 182.636 334.777C172.549 338.056 158.845 339.083 151.087 345.388C137.995 356.027 166.056 369.325 166.056 381.347C166.056 386.546 161.91 390.799 161.91 396.084C161.91 401.698 158.99 411.279 154.772 416.127C142.844 429.836 107.151 424.549 87.2989 424.549C74.7066 424.549 75.5898 425.822 68.646 433.307C61.4013 441.115 56.2107 448.107 56.2107 457.897C56.2107 471.089 58.2875 476.087 77.0513 476.087C99.5535 476.087 122.554 477.603 145.33 477.603C160.428 477.603 167.948 477.01 176.879 468.845C186.225 460.3 178.712 446.152 176.533 436.591C175.618 432.575 174.226 429.026 169.74 426.401C167.114 424.865 152.14 423.411 151.663 422.191C147.743 412.156 177.738 415.454 184.708 415.454C191.844 415.454 195.517 414.424 199.216 419.159C202.498 423.359 208.798 423.789 213.264 426.401C219.157 429.849 239.038 427.899 246.885 427.58C250.189 427.446 250.534 425.206 253.102 424.212C255.018 423.47 260.262 423.473 261.277 422.359C262.06 421.5 259.695 424.549 258.284 424.549C253.64 424.549 248.996 424.549 244.352 424.549C212.218 424.549 181.294 424.177 150.511 429.18C139.984 430.891 153.033 436.594 154.657 437.517C160.629 440.915 164.257 442.02 167.668 447.286C173.08 455.644 176.418 466.911 176.418 476.087C176.418 486.781 160.416 484.947 150.511 488.972C143.026 492.014 129.186 499.175 121.496 500.425C105.57 503.014 93.3974 522.725 83.1538 530.658C72.6091 538.824 65.1812 550.936 60.8164 561.311C55.6629 573.561 52.409 592.801 56.3258 605.692C57.6233 609.962 61.8931 611.731 64.0403 615.545C66.1004 619.204 54.065 612.628 52.9867 611.84C43.4922 604.895 33.4127 609.125 33.4127 597.355C33.4127 587.222 32.879 577.524 33.4127 567.375C34.4073 548.461 64.1845 525.921 86.1475 546.574C93.8302 553.799 98.5357 564.874 105.031 573.017C112.873 582.85 138.405 584.057 151.778 585.144C172.623 586.838 191.184 585.155 199.216 569.733C203.822 560.89 202.049 547.685 201.289 538.237C200.677 530.634 182.945 530.538 180.448 522.321C177.413 512.33 163.877 504.979 154.541 498.151C143.035 489.736 133.515 498.825 120.46 498.825C113.125 498.825 108.606 499.357 103.879 495.035C101.22 492.604 93.4701 490.063 89.3714 489.73C77.6489 488.777 63.6936 486.125 64.5009 476.087C64.7788 472.631 74.8636 474.635 74.8636 478.361C74.8636 485.274 76.7794 485.327 83.1538 489.73C91.8705 495.751 101.861 500.979 111.133 506.404C119.739 511.44 133.551 509.436 144.294 509.436C152.638 509.436 158.81 515.605 166.056 517.773C174.117 520.185 182.813 524.356 189.544 528.384C192.244 529.999 192.004 533.466 195.071 534.868C202.973 538.48 205.434 553.223 205.434 559.459C205.434 567.831 205.674 576.186 214.76 581.354C218.85 583.681 222.4 587.097 225.699 590.112C227.589 591.841 233.736 599.176 234.334 601.144C239.934 619.574 261.254 645.856 233.413 661.694C208.848 675.668 220.932 703.611 236.983 718.286C245.024 725.637 253.329 726.202 266.689 726.202C282.648 726.202 298.794 722.702 313.667 718.623C324.94 715.531 325.641 715.376 325.641 707.17C325.641 697.017 327.714 686.395 327.714 675.842C327.714 670.415 325.904 666.135 332.895 663.294C335.509 662.232 349.953 662.404 343.834 656.81C334.986 648.721 324.518 640.439 321.381 630.114C319.078 622.532 296.952 622.855 290.293 626.914C287.724 628.48 283.854 627.17 280.967 628.514C277.617 630.073 275.642 632.067 272.792 633.735C267.946 636.571 262.856 641.958 257.248 644.009C252.196 645.856 247.574 645.862 241.703 645.862C232.092 645.862 238.664 653.229 236.062 657.989C226.105 676.194 185.949 671.631 162.947 671.631C151.516 671.631 137.897 669.471 131.283 677.695C126.039 684.215 118.387 694.528 118.387 701.948C118.387 711.252 115.627 720.177 116.314 729.234C116.686 734.124 120.905 737.917 123.568 742.202C127.769 748.962 127.848 750.455 116.775 750.455C104.203 750.455 91.9608 748.939 79.0087 748.939C74.3897 748.939 65.893 749.562 62.8889 752.308C59.5351 755.374 62.4799 758.932 57.247 761.908C53.5695 764 48.6356 765.339 45.848 767.887C40.1801 773.069 39.6304 762.586 39.6304 759.213C39.6304 750.63 38.4759 735.681 43.3149 727.718C45.731 723.742 41.7029 717.013 41.7029 712.559C41.7029 708.089 39.6304 703.785 39.6304 699.675C39.6304 690.028 68.2343 686.79 77.9724 686.79C92.5483 686.79 103.041 676.179 117.351 676.179C123.021 676.179 127.224 673.391 132.895 673.147C140.375 672.825 130.123 663.349 125.641 662.621C113.949 660.72 118.094 649 122.072 644.346C125.248 640.629 129.689 637.427 133.816 634.409C137.592 631.647 137.537 626.475 139.573 623.124C143.616 616.471 140.693 604.286 136.004 598.113C130.387 590.718 111.614 594.323 100.655 594.323C94.8328 594.323 80.5633 592.512 75.8999 595.165C69.6642 598.713 71.4244 603.228 68.1854 607.966C62.8727 615.737 60.8615 627.466 49.9931 631.882C42.7538 634.824 26.639 643.496 27.1951 650.409C27.5241 654.501 38.8792 658.022 42.624 660.262C46.5198 662.594 53.8888 671.563 54.1382 674.663C54.8448 683.449 73.0065 691.696 78.8936 699.59C88.9218 713.037 98.2428 724.279 103.994 739.002C105.552 742.99 111.154 746.617 112.054 751.887C112.768 756.06 114.782 763.819 118.848 766.793C125.703 771.807 144.346 773.681 155.693 773.193C159.531 773.028 163.284 764.863 166.056 762.582C171.057 758.467 174.666 754.031 181.6 751.213C189.635 747.948 207.623 750.455 216.833 750.455C230.872 750.455 235.359 757.96 246.885 762.919C254.254 766.089 255.295 767.13 264.501 767.13C276.331 767.13 274.541 755.087 270.143 750.455C265.151 745.198 263.465 738.866 263.465 732.602C263.465 726.583 261.388 723.17 270.719 723.17C287.659 723.17 305.548 719.495 322.418 721.738C332.945 723.139 344.078 741.428 348.9 747.424C351.168 750.243 360.497 756.576 364.214 758.877C373.391 764.556 378.14 764.127 388.739 765.951C395.875 767.179 406.595 768.748 413.149 765.614C421.939 761.41 417.65 752.412 422.015 746.666C425.312 742.325 435.146 742.362 435.486 735.634C435.835 728.75 435.486 721.806 435.486 714.917C435.486 711.467 433.646 704.136 437.098 701.611C440.786 698.914 451.042 700.432 456.212 700.432C468.437 700.432 479.389 702.865 483.155 711.128C486.563 718.606 491.092 728.818 482.694 734.96C474.353 741.061 474.865 751.421 474.865 759.55C474.865 769.257 513.862 771.677 522.303 771.677C542.254 771.677 560.012 772.859 572.159 758.792C582.492 746.827 583.577 732.325 574.807 720.138C570.501 714.154 564.407 695.885 578.492 695.885C595.44 695.885 611.897 696.737 628.233 697.401C633.894 697.631 640.383 701.237 645.85 700.348C650.181 699.644 654.047 694.596 659.321 694.369C677.066 693.606 682.459 714.464 693.518 721.654C701.206 726.652 716.726 749.361 702.614 752.645C696.493 754.069 691.103 754.609 685.228 756.519C682.015 757.563 680.467 759.061 676.938 759.635C671.913 760.451 671.656 765.351 665.539 765.614C657.483 765.96 674.99 774.36 670.605 769.319C667.432 765.672 666.224 755.461 660.933 753.824C641.359 747.767 586.782 757.918 586.782 734.539C586.782 723.726 609.345 732.315 618.907 726.875C626.19 722.732 638.982 723.17 648.037 723.17C657.948 723.17 667.638 721.475 677.053 720.223C688.902 718.647 700.772 709.721 700.772 700.432C700.772 688.594 702.845 677.162 702.845 665.568C702.845 656.726 702.845 647.883 702.845 639.041C702.845 631.733 703.597 630.228 695.245 626.156C688.625 622.928 679.756 617.981 671.756 617.145C666.577 616.604 654.619 613.287 651.146 610.324C649.411 608.843 646.213 607.42 643.892 606.45C642.084 605.694 642.568 602.881 641.129 601.566C637.023 597.812 655.029 598.871 657.249 598.871C668.636 598.871 680.221 596.427 690.409 592.807C711.421 585.343 719.425 570.623 719.425 554.153C719.425 545.179 716.538 544.883 704.457 541.269C695.062 538.458 685.787 535.912 676.823 532.931C667.948 529.981 654.879 532.722 647.001 535.963C640.507 538.635 637.54 544.523 631.457 546.995C618.484 552.266 606.86 556.575 599.678 544.637C595.67 537.975 583.92 534.656 580.104 527.121C577.59 522.156 576.214 516.869 574.232 511.794C573.64 510.279 572.274 522.293 572.274 524.594C572.274 528.109 578.561 534.513 581.716 537.479C591.399 546.585 607.528 551.005 617.87 559.459C625.511 565.704 624.088 574.411 624.088 582.196C624.088 586.772 626.187 594.658 623.627 598.871C621.903 601.708 618.064 604.517 614.761 606.45C609.118 609.752 620.347 606.517 622.476 605.271C628.515 601.737 661.203 604.14 667.611 606.113C679.955 609.914 699.79 602.592 711.135 599.629C718.336 597.747 722.098 594.305 730.248 592.47C737.362 590.869 746.434 590.541 753.852 591.376C765.729 592.712 777.849 593.892 789.891 591.965C793.311 591.418 818.907 586.424 818.907 588.26C818.907 598.297 815.757 610.921 811.077 620.429C807.96 626.763 797.958 630.087 790.352 633.398C781.305 637.337 773.633 640.443 765.136 645.104C760.764 647.502 753.621 654.503 750.974 657.989C746.074 664.44 737.753 668.851 728.982 672.305C723.146 674.603 718.244 676.956 712.056 677.779C701.22 679.22 700.897 678.72 705.378 685.274C713.458 697.093 717.938 709.321 736.005 715.928C744.269 718.95 753.009 721.675 762.027 723.507C771.735 725.479 777.976 733.999 787.934 735.213C797.354 736.361 804.829 740.935 810.617 732.939C816.218 725.201 815.782 718.152 816.95 709.612C818.09 701.268 824.525 679.466 814.301 673.484C811.156 671.643 799.335 673.147 795.073 673.147C786.529 673.147 784.957 677.496 779.068 680.726C771.737 684.748 767.093 687.437 767.093 694.369C767.093 698.345 767.26 702.549 763.869 705.738C754.087 714.937 746.714 726.769 740.15 737.571C736.725 743.207 734.446 763.969 741.187 767.803C745.405 770.203 746.018 773.049 751.895 774.372C761.265 776.481 778.329 779.462 787.819 776.983C813.507 770.273 837.682 769.258 858.285 755.003C865.191 750.225 874.892 748.939 884.192 748.939C894.075 748.939 892.939 751.407 900.197 755.677C913.72 763.632 923.499 769.274 939.575 773.193C949.512 775.616 960.601 774.549 970.894 775.888C975.292 776.46 981.468 776.851 985.632 775.467C992.657 773.131 988.936 761.004 991.389 756.519C994.675 750.51 995.022 743.581 998.182 737.571C1001.98 730.35 1002.26 727.081 1010.62 722.328C1016.13 719.191 1031.1 718.623 1038.14 718.623C1061.73 718.623 1083.91 715.711 1098.7 732.097C1105 739.07 1109.06 747.095 1109.06 755.34C1109.06 763.672 1111.84 766.939 1119.43 773.277C1127.17 779.754 1128.57 782.288 1140.15 782.288C1145.8 782.288 1148.44 776.224 1148.44 772.351C1148.44 765.782 1150.02 759.186 1143.15 754.161C1133.19 746.88 1127.9 736.83 1123.11 727.381C1117.46 716.227 1100.16 710.052 1092.94 698.917C1089.17 693.089 1088.15 685.092 1096.17 681.4C1100.28 679.505 1102.04 678.381 1105.38 675.842C1110.66 671.826 1114.84 673.351 1120.35 670.789C1131.52 665.589 1143.86 669.146 1151.67 660.178C1160.82 649.661 1156.73 633.74 1156.73 621.608C1156.73 615.032 1131.17 612.308 1139.23 610.998C1146.13 609.875 1151.67 604.693 1151.67 599.403C1151.67 596.082 1149.47 585.59 1148.44 582.314C1144.7 570.367 1161.41 568.461 1151.67 558.22C1145.37 551.606 1142.74 551.607 1132.32 551.88C1121.43 552.164 1112.16 560.449 1101.69 562.49C1090.87 564.602 1080.83 567.97 1069.68 569.733C1051.66 572.583 1052.38 563.95 1048.04 554.238C1042.72 542.344 1042.74 531.965 1042.74 519.457C1042.74 498.472 1083.79 491.246 1106.88 491.246C1118.88 491.246 1136.12 488.885 1145.91 494.614C1161 503.444 1153.57 521.714 1154.28 535.289C1154.91 547.185 1164.55 565.654 1143.38 568.47C1125.31 570.872 1129.75 541.457 1131.86 535.289C1138.3 516.448 1139.49 497.558 1147.41 479.035C1151.04 470.534 1148.78 460.313 1150.97 451.497C1153.63 440.831 1155.86 435.16 1139.23 435.16C1121.74 435.16 1094.56 438.884 1094.56 454.865C1094.56 462.264 1099.61 485.946 1088.34 490.067C1080.83 492.812 1084.1 477.717 1084.19 474.403C1084.29 470.853 1090.48 460.649 1093.52 457.981C1104.55 448.297 1116.28 442.969 1131.4 436.675C1137.82 434.001 1147.97 430.043 1148.44 423.875C1149.01 416.391 1148.44 409.882 1152.59 402.737C1157.87 393.631 1154.2 384.295 1154.2 373.882C1154.2 361.215 1156.8 347.213 1152.59 334.873C1150.59 329.042 1159.71 321.878 1150.51 319.955C1140.75 317.915 1138.37 312.331 1129.79 309.008C1121.78 305.908 1117.46 299.615 1109.06 296.544C1097.08 292.162 1083.09 292.67 1070.15 292.67C1051.78 292.67 1039.01 303.281 1019.94 303.281C1016.87 303.281 1005.99 302.033 1003.82 303.618C998.301 307.658 1017.1 309.345 1019.02 309.345C1042.84 309.345 1066.76 310.86 1090.3 310.86C1096.07 310.86 1107.54 312.656 1112.17 310.018C1120.14 305.486 1126.68 301.112 1136.47 298.397C1154.45 293.409 1148.94 279.876 1150.51 264.885C1151.66 254.01 1159.58 247.813 1144.41 243.851C1136 241.654 1139.64 239.766 1131.86 236.921C1127.17 235.207 1116.97 236.584 1111.83 236.584C1095.02 236.584 1078.21 236.584 1061.39 236.584C1056.81 236.584 1051.21 235.273 1051.03 239.616C1050.92 242.24 1050.04 246.555 1052.18 248.795C1057.79 254.649 1053.46 262.05 1056.21 268.501C1059.54 276.297 1063.4 285.893 1061.39 294.186C1060.62 297.384 1023.08 301.787 1018.33 302.944C983.884 311.343 928.328 319.114 906.76 291.07C898.125 279.843 893.519 267.759 893.519 254.774C893.519 248.34 893.105 242.712 898.815 237.342C901.336 234.972 906.488 233.833 910.214 232.879C922.061 229.846 930.247 223.653 941.648 219.91C957.876 214.581 972.813 217.44 988.856 221.426C998.793 223.894 1004.8 229.677 1012.92 233.637C1028.54 241.251 1052.96 255.805 1057.25 269.933C1057.97 272.308 1065.59 285.894 1071.3 281.722C1080.85 274.736 1082.12 265.859 1082.12 256.374C1082.12 244.498 1067.61 243.319 1058.86 236.921C1051.34 231.416 1043.89 225.995 1037.56 219.825C1029.82 212.28 1025.43 203.572 1020.06 195.067C1016.33 189.15 1011.92 183.338 1011.65 176.624C1010.98 159.482 977.197 163.622 963.985 168.708C947.931 174.888 936.474 177.748 921.383 168.287C906.586 159.011 918.718 142.474 929.903 135.78C938.214 130.807 933.854 129.659 927.716 125.169C915.73 116.403 903.629 104.636 887.301 100.158C869.227 95.2008 852.378 98.6422 835.027 98.6422C820.198 98.6422 789.891 99.8619 789.891 113.801C789.891 124.805 789.891 135.808 789.891 146.812C789.891 153.476 788.182 161.492 792.425 167.697C796.652 173.881 805.444 175.769 810.617 180.498C817.467 186.76 848.509 187.197 857.249 182.772C867.824 177.417 866.328 163.235 862.891 155.065C860.416 149.181 860.764 148.123 853.104 145.633C843.563 142.532 830.779 144.117 820.519 144.117C808.518 144.117 797.273 141.53 785.746 141.086C777.718 140.777 774.774 137.425 767.093 136.622C748.602 134.69 738.993 147.149 722.419 147.149C693.612 147.149 690.409 131.488 690.409 113.801C690.409 102.169 695.798 89.539 711.135 83.8206C718.468 81.0863 736.216 77.5167 744.295 81.2099C760.601 88.6635 775.384 98.8119 775.384 113.464C775.384 124.482 779.966 139.023 763.409 143.781C746.598 148.611 699.024 165.078 692.367 144.791C689.928 137.358 686.264 131.732 686.264 123.822C686.264 119.259 684.242 115.375 682.119 111.106C676.726 100.258 674.555 85.1019 683.271 74.9782C688.174 69.2821 695.736 49.3723 687.416 44.156C675.935 36.9584 669.45 25.5801 657.249 18.6393C633.639 5.20882 623.244 31.1446 613.725 42.8928C608.982 48.7466 609.37 61.3743 609.58 67.9884C609.986 80.7658 647.921 77.4204 658.17 77.4204C675.135 77.4204 689.163 80.513 698.239 68.8306C702.615 63.1971 701.732 53.5334 702.384 47.2719C703.578 35.8114 702.845 24.1502 702.845 12.6601C702.845 5.65073 698.362 9.54443 709.523 9.54443C713.309 9.54443 722.315 7.2146 725.182 9.54421C730.378 13.7667 740.507 11.6554 746.253 14.597C756.885 20.0402 781.469 18.3024 794.037 18.3024C806.056 18.3024 797.663 11.0194 810.617 9.54421C810.617 3.66887 815.76 10.1971 826.422 11.3968C831.641 11.984 836.368 12.0729 841.586 12.6601C847.287 13.3015 843.626 11.4648 848.384 14.597C859.243 21.7451 869.207 21.5341 870.49 31.8608C871.629 41.0202 875.059 57.9157 862.085 63.6093C847.896 69.836 823.187 76.2742 806.472 72.1991C788.076 67.7142 778.559 52.4661 767.324 41.9664C755.532 30.9462 738.421 31.5877 720.346 31.945C709.111 32.1671 705.877 42.4146 704.802 48.7035C702.905 59.8043 696.452 67.8777 709.523 77.0835C718.926 83.7064 733.957 81.9679 745.677 81.9679C769.642 81.9679 794.002 83.055 817.756 80.7889C836.501 79.0006 858.578 76.4876 868.188 62.4303C875.082 52.3451 874.937 40.6283 885.113 31.945C894.791 23.6868 903.309 16.441 917.238 11.3969C929.734 6.87139 948.886 9.54693 963.985 11.0194C986.609 13.2257 995.073 26.8999 995.073 39.3558C995.073 48.8706 996.849 59.5562 987.704 67.3147C979.756 74.0578 962.728 81.5179 950.629 81.9679C932.645 82.6367 926.325 66.1633 920.001 56.5354C912.428 45.0047 903.881 36.2025 903.881 22.85C903.881 14.8314 905.917 16.191 918.389 14.0018C933.819 11.2933 959.867 10.4145 975.448 11.3969C997.222 12.7698 1013.78 7.25807 1023.63 21.671C1029.55 30.3378 1029.66 42.9177 1028.23 52.4931C1026.84 61.8151 994.017 67.9612 984.595 71.5254C967.67 77.9282 952.691 85.9581 934.854 91.0629C928.235 92.9575 908.026 94.3502 908.026 101.337C908.026 105.576 915.351 109.094 918.389 112.116C925.253 118.944 928.45 128.797 939.115 133.254C958.392 141.311 978.889 136.333 991.619 124.58C1003.71 113.419 1008.27 99.4734 1012.81 85.8417C1014.18 81.6999 1023.6 66.2602 1010.62 68.4937C995.404 71.1118 974.991 82.8566 970.663 93.7578C965.078 107.829 976.233 118.329 983.789 129.885C990.683 140.428 1004.97 148.024 1017.64 154.644C1025.76 158.887 1036.39 166.855 1047 166.855C1055.21 166.855 1063.16 168.371 1071.41 168.371C1084.97 168.371 1117.91 173.029 1128.18 165.002C1135.75 159.084 1135.22 145.503 1133.47 138.054C1130.87 126.939 1114.82 115.548 1101.35 110.937C1092.24 107.82 1064.08 101.343 1057.25 109.674C1049.59 119.015 1047.02 129.873 1046.89 140.581C1046.72 154.202 1052.64 165.626 1055.18 178.982C1056.76 187.338 1057 196.088 1060.24 204.246C1065.77 218.175 1085.79 230.967 1106.07 224.12C1121.11 219.044 1132.81 207.679 1144.41 199.362C1159.07 188.857 1150.36 179.962 1150.51 165.002C1150.7 146.863 1158.15 127.728 1156.37 109.674C1154.67 92.3431 1160.61 79.2227 1144.07 65.5462C1132 55.5666 1115.54 49.4869 1102.39 40.4506C1094.62 35.116 1088.11 29.989 1076.13 33.8819C1061.3 38.7051 1059.96 54.871 1059.44 64.8725C1058.83 76.4352 1061.55 86.7183 1077.98 91.9051C1125.6 106.948 1148 50.1675 1156.37 26.24C1159.31 17.8303 1158.54 13.4404 1144.07 11.3969C1119.92 7.98891 1110.2 12.8207 1085.78 11.3969C1068.58 10.3939 1034.15 5.74835 1031.4 22.85C1029.41 35.2096 1058.91 25.585 1072.45 22.5131C1080.38 20.712 1082.12 11.7644 1082.12 6.93359" stroke="#DFFBFC" stroke-width="7" stroke-linecap="round" stroke-linejoin="round"/>
<path d="M305.035 466.901C310.08 462.03 323.83 444.578 316.711 437.884C308.322 429.995 298.292 427.689 284.662 427.689C274.062 427.689 266.434 436.99 266.434 444.593C266.434 451.111 262.395 467.414 269.055 472.826C271.617 474.908 272.974 479.667 276.203 481.017C281.066 483.049 286.084 484.093 291.096 485.722C299.886 488.58 308.87 492.362 318.021 493.478C323.787 494.181 347.37 495.772 351.738 493.216C360.861 487.878 358.891 482.185 363.414 474.743C366.913 468.985 370.323 458.968 369.251 452.697C368.69 449.411 368.351 442.344 366.154 439.452C362.801 435.038 367.226 430.479 367.226 426.033C367.226 416.052 377.817 410.618 387.003 404.51C398.173 397.083 433.483 394.086 445.143 399.456C461.049 406.781 470.163 423.1 470.163 436.402C470.163 447.793 473.922 462.622 466.827 473C460.113 482.821 426.541 481.017 414.405 481.017C399.162 481.017 383.816 477.902 374.851 467.598C369.222 461.128 371.304 451.839 367.226 444.942C362.248 436.522 365.082 424.603 365.082 415.664C365.082 397.929 356.215 364.388 375.804 349.265C382 344.482 395.637 338.285 404.755 338.285C418.799 338.285 432.199 328.874 447.645 328.874C460.577 328.874 473.642 320.925 485.651 317.546C492.51 315.617 498.185 310.876 502.33 306.567C508.722 299.924 507.37 295.965 509.24 288.442C512.365 275.875 510.515 266.135 490.536 266.135C479.984 266.135 469.107 265.554 458.606 266.222C448.033 266.895 442.383 272.518 434.778 277.202C414.799 289.507 403.683 305.157 403.683 323.82C403.683 336.733 426.075 341.878 438.71 347.696C461.475 358.18 493.387 357.101 518.414 351.53C544.26 345.777 576.694 328.472 591.447 311.97C597.799 304.864 576.765 297.049 570.955 292.799C554.719 280.924 538.166 275.447 534.022 257.596C530.184 241.069 529.286 224.63 530.209 207.753C530.599 200.616 556.407 187.711 565.594 187.711C577.222 187.711 588.829 180.355 601.931 183.093C609.703 184.717 599.363 204.237 605.744 200.607C609.036 198.734 618.319 199.693 622.423 198.342C629.286 196.083 635.941 194.889 642.2 191.719C654.14 185.674 663.948 170.896 665.194 160.872C665.874 155.401 668.204 142.725 664.122 137.607C660.025 132.47 645.229 134.383 638.626 134.383C625.084 134.383 611.542 134.383 597.999 134.383C578.824 134.383 569.606 133.245 555.943 143.793C548.908 149.225 547.384 156.642 544.744 163.487C539.267 177.688 529.779 190.819 526.397 205.661C521.492 227.183 517.1 243.578 490.536 254.371C480.567 258.422 452.593 256.09 442.284 253.936C434.893 252.391 429.775 242.74 427.749 237.554C425.608 232.074 427.272 224.769 427.272 219.081C427.272 205.021 450.228 190.111 464.801 183.006C480.52 175.341 511.067 165.038 524.729 180.74C532.031 189.133 529.949 208.772 527.945 218.296C523.893 237.561 501.119 248.894 478.622 256.637C456.024 264.415 435.848 277.114 410.116 277.114C399.168 277.114 389.151 279.961 378.425 280.251C369.649 280.489 360.784 280.644 352.214 282.168C335.441 285.152 315.758 285.436 315.758 301.426C315.758 311.541 312.304 330.879 323.383 338.982C341.119 351.954 382.047 343.96 400.823 337.937C418.639 332.222 425.128 321.115 425.128 307.7C425.128 295.255 425.415 289.477 411.308 281.036C398.287 273.244 378.843 274.522 363.414 270.492C348.431 266.578 338.257 262.998 322.191 262.998C291.956 262.998 247.746 276.875 235.458 297.418C228.457 309.121 229.977 322.916 229.977 335.497C229.977 347.646 226.134 366.637 244.989 372.443C253.725 375.134 271.819 374.36 281.446 374.36C292.272 374.36 305.027 375.828 315.281 372.792C338.356 365.961 337.203 346.176 337.203 330.443C337.203 319.842 333.82 313.515 329.697 303.866C325.773 294.682 312.326 293.81 307.18 287.222C301.315 279.715 280.665 281.82 271.2 281.82C251.184 281.82 231.169 281.82 211.153 281.82C187.434 281.82 164.476 278.649 156.111 261.168C151.533 251.602 152.775 238.476 152.775 228.404C152.775 207.639 163.469 189.511 177.318 171.59C184.27 162.594 193.875 147.272 210.677 146.93C219.087 146.76 231.076 145.473 239.032 147.279C262.526 152.612 279.076 170.14 290.5 184.923C301.823 199.574 302.891 210.667 302.891 227.01C302.891 236.48 284.704 250.727 273.821 255.069C267.469 257.602 262.348 261.033 256.188 263.869C249.135 267.117 239.777 267.961 232.122 270.84C216.35 276.773 203.037 280.695 186.61 275.546C181.706 274.009 171.352 269.947 167.906 267.006C162.194 262.133 140.953 261.43 132.283 261.43C123.298 261.43 64.8498 256.483 64.8498 266.919C64.8498 270.742 64.2299 274.899 64.9689 278.683C66.1381 284.669 78.9116 291.724 84.0312 295.936C93.9127 304.067 123.7 312.692 138.716 307.7C159.214 300.885 152.775 281.013 152.775 267.704C152.775 255.196 150.008 241.161 141.576 230.06C134.003 220.09 113.851 217.374 104.523 207.927C91.9216 195.165 75.2721 183.135 73.547 166.101C72.2652 153.445 70.3417 136.259 73.9044 123.752C77.44 111.339 94.4025 108.157 108.931 106.15C126.863 103.673 156.904 99.1018 161.829 114.864C164.258 122.636 169.931 129.545 169.931 137.607C169.931 146.034 172.075 154.284 172.075 162.79C172.075 178.242 157.918 197.719 136.572 203.396C117.005 208.6 103.981 200.036 99.6385 186.142C95.4873 172.859 86.1423 160.426 81.5293 146.93C77.5641 135.33 76.0489 114.341 81.0528 102.839C85.0567 93.635 93.6165 79.5818 103.57 73.2118C111.663 68.0325 125.874 66.2631 135.738 63.0167C150.82 58.0529 164.806 56.9366 181.13 55.6099C196.111 54.3925 219.837 50.8248 233.313 57.527C250.692 66.1702 257.856 84.2406 257.856 98.8303C257.856 108.504 254.363 110.855 240.7 110.855C224.417 110.855 208.135 110.855 191.853 110.855C184.158 110.855 169.773 112.82 164.45 107.37C158.554 101.332 156.842 92.7803 154.443 85.7596C150.428 74.0136 152.775 60.2838 152.775 48.2032C152.775 42.0698 152.973 37.6597 161.71 34.784C173.782 30.8109 191.243 30.7827 204.362 28.5101C241.39 22.0959 286.524 15.1851 323.859 24.9374C341.469 29.5373 352.844 45.2968 354.359 58.2241C355.107 64.6084 357.82 72.307 359.72 78.7015C361.678 85.2892 360.793 92.3771 360.793 99.0917C360.793 114.759 357.01 122.454 337.322 130.374C323.697 135.855 310.198 141.557 296.457 146.582C279.135 152.916 266.839 146.219 261.668 134.034C255.865 120.356 258.376 94.705 281.565 90.4651C295.77 87.8676 310.7 88.8966 325.289 88.8966C345.564 88.8966 364.4 88.5118 384.025 92.8178C400.99 96.5402 427.272 110.844 427.272 124.623C427.272 141.442 429.417 158.238 429.417 175.163C429.417 192.339 421.429 206.127 405.827 219.168C395.836 227.52 368.667 250.82 350.189 243.218C341.269 239.548 337.569 229.574 331.722 223.873C321.433 213.839 305.738 204.381 303.129 191.022C297.605 162.74 341.967 165.752 368.179 165.752C377.973 165.752 390.956 163.902 397.249 170.806C403.745 177.932 403.289 187.908 406.304 195.902C411.701 210.211 410.116 226.234 410.116 241.039C410.116 256.542 466.245 235.839 474.809 231.454C542.937 196.574 593.95 139.786 609.556 80.27C613.691 64.4986 619.943 28.5196 596.689 18.3149C576.125 9.29089 550.377 19.9383 534.498 29.6429C516.97 40.3555 507.28 47.6317 499.709 63.8009C496.828 69.9548 490.949 87.053 498.518 93.2535C512.411 104.634 527.216 109.287 548.437 109.287C561.47 109.287 572.407 111.028 580.486 101.967C586.434 95.2966 598.833 80.0183 598.833 71.6433C598.833 57.3752 576.675 59.0955 560.709 59.0955C550.757 59.0955 542.103 58.6046 532.354 57.1784C521.771 55.6304 511.625 51.9909 501.258 49.7717C491.317 47.6436 480.436 47.7549 470.163 46.8962C453.062 45.4668 426.842 42.101 423.103 59.8797C420.717 71.2205 421.544 82.2366 420.72 93.6892C419.371 112.428 419.357 130.489 430.37 148.063C437.521 159.475 463.049 154.773 477.311 154.773C504.455 154.773 514.453 140.13 508.287 120.963C504.505 109.206 481.223 103.579 468.018 101.096C458.888 99.3787 421.111 89.8688 416.55 99.876" stroke="#D9F8FB" stroke-opacity="0.6" stroke-width="7" stroke-linecap="round" stroke-linejoin="round"/>
<path d="M265.531 455.595C270.576 450.724 284.326 433.272 277.207 426.578C268.818 418.689 258.788 416.383 245.158 416.383C234.558 416.383 226.93 425.684 226.93 433.288C226.93 439.805 222.891 456.108 229.551 461.52C232.113 463.602 233.47 468.362 236.7 469.711C241.562 471.744 246.58 472.788 251.592 474.417C260.382 477.274 269.366 481.056 278.518 482.172C284.283 482.875 307.866 484.466 312.234 481.911C321.357 476.573 319.388 470.879 323.91 463.437C327.409 457.679 330.819 447.662 329.748 441.392C329.186 438.105 328.847 431.039 326.65 428.147C323.297 423.732 327.722 419.173 327.722 414.727C327.722 404.746 338.313 399.312 347.499 393.204C358.669 385.778 393.979 382.781 405.639 388.15C421.546 395.475 430.659 411.795 430.659 425.097C430.659 436.487 434.418 451.316 427.323 461.695C420.609 471.515 387.037 469.711 374.901 469.711C359.658 469.711 344.313 466.596 335.347 456.292C329.718 449.823 331.8 440.533 327.722 433.636C322.744 425.217 325.578 413.297 325.578 404.358C325.578 386.624 316.711 353.082 336.3 337.959C342.496 333.176 356.133 326.98 365.251 326.98C379.295 326.98 392.695 317.569 408.141 317.569C421.073 317.569 434.138 309.619 446.147 306.241C453.007 304.311 458.681 299.57 462.826 295.261C469.218 288.618 467.866 284.66 469.737 277.137C472.861 264.57 471.011 254.829 451.032 254.829C440.48 254.829 429.603 254.249 419.102 254.917C408.529 255.589 402.879 261.212 395.274 265.896C375.295 278.201 364.179 293.851 364.179 312.515C364.179 325.428 386.571 330.572 399.206 336.39C421.971 346.874 453.883 345.796 478.91 340.224C504.756 334.471 537.19 317.167 551.943 300.664C558.295 293.558 537.261 285.743 531.451 281.494C515.215 269.619 498.662 264.142 494.518 246.29C490.681 229.763 489.782 213.324 490.705 196.447C491.095 189.31 516.903 176.405 526.09 176.405C537.718 176.405 549.325 169.049 562.427 171.787C570.199 173.411 559.859 192.931 566.24 189.302C569.532 187.429 578.815 188.387 582.919 187.036C589.782 184.777 596.437 183.583 602.696 180.414C614.636 174.368 624.444 159.59 625.69 149.567C626.37 144.095 628.7 131.419 624.618 126.301C620.521 121.165 605.725 123.077 599.122 123.077C585.58 123.077 572.038 123.077 558.496 123.077C539.32 123.077 530.103 121.939 516.439 132.488C509.404 137.919 507.88 145.336 505.24 152.181C499.764 166.382 490.275 179.513 486.893 194.356C481.988 215.877 477.596 232.272 451.032 243.066C441.063 247.116 413.089 244.784 402.78 242.63C395.389 241.085 390.271 231.434 388.245 226.248C386.104 220.768 387.769 213.463 387.769 207.775C387.769 193.715 410.724 178.806 425.298 171.7C441.016 164.036 471.563 153.732 485.225 169.434C492.527 177.827 490.445 197.466 488.442 206.991C484.389 226.256 461.615 237.588 439.118 245.331C416.52 253.109 396.344 265.809 370.612 265.809C359.664 265.809 349.647 268.655 338.921 268.946C330.145 269.183 321.281 269.338 312.711 270.863C295.938 273.847 276.254 274.13 276.254 290.12C276.254 300.235 272.8 319.574 283.879 327.677C301.615 340.649 342.543 332.654 361.32 326.631C379.135 320.916 385.624 309.809 385.624 296.394C385.624 283.949 385.911 278.172 371.804 269.73C358.783 261.938 339.339 263.216 323.91 259.186C308.927 255.273 298.753 251.692 282.687 251.692C252.452 251.692 208.242 265.569 195.954 286.112C188.953 297.815 190.473 311.611 190.473 324.191C190.473 336.34 186.63 355.331 205.485 361.138C214.221 363.828 232.315 363.055 241.942 363.055C252.768 363.055 265.523 364.522 275.777 361.486C298.852 354.655 297.699 334.871 297.699 319.137C297.699 308.536 294.316 302.209 290.193 292.56C286.269 283.376 272.822 282.504 267.676 275.917C261.811 268.41 241.161 270.514 231.696 270.514C211.68 270.514 191.665 270.514 171.649 270.514C147.93 270.514 124.972 267.343 116.607 249.862C112.029 240.296 113.271 227.17 113.271 217.099C113.271 196.333 123.965 178.205 137.814 160.285C144.766 151.288 154.371 135.966 171.173 135.625C179.583 135.454 191.572 134.167 199.528 135.973C223.022 141.306 239.572 158.834 250.996 173.617C262.319 188.269 263.387 199.361 263.387 215.704C263.387 225.174 245.2 239.421 234.317 243.763C227.965 246.297 222.844 249.727 216.684 252.564C209.631 255.812 200.274 256.655 192.618 259.535C176.846 265.467 163.533 269.389 147.107 264.24C142.202 262.703 131.848 258.641 128.402 255.701C122.69 250.827 101.449 250.124 92.7789 250.124C83.7941 250.124 25.3459 245.177 25.3459 255.614C25.3459 259.436 24.726 263.594 25.465 267.377C26.6342 273.363 39.4077 280.418 44.5273 284.631C54.4088 292.761 84.1963 301.386 99.2124 296.394C119.71 289.58 113.271 269.707 113.271 256.398C113.271 243.89 110.504 229.855 102.072 218.754C94.499 208.785 74.3476 206.068 65.0193 196.621C52.4177 183.86 35.7682 171.829 34.043 154.795C32.7613 142.139 30.8378 124.953 34.4005 112.446C37.9361 100.034 54.8986 96.8514 69.4275 94.8442C87.3586 92.367 117.4 87.7961 122.325 103.558C124.754 111.33 130.427 118.239 130.427 126.301C130.427 134.728 132.571 142.978 132.571 151.484C132.571 166.936 118.414 186.413 97.0679 192.09C77.5016 197.294 64.4767 188.731 60.1346 174.837C55.9834 161.554 46.6384 149.12 42.0254 135.625C38.0602 124.024 36.545 103.035 41.5488 91.533C45.5527 82.3294 54.1126 68.2761 64.0662 61.9061C72.1592 56.7269 86.37 54.9575 96.2339 51.711C111.316 46.7472 125.302 45.6309 141.626 44.3043C156.607 43.0869 180.333 39.5192 193.809 46.2213C211.188 54.8645 218.352 72.9349 218.352 87.5247C218.352 97.1988 214.86 99.5497 201.196 99.5497C184.913 99.5497 168.631 99.5497 152.349 99.5497C144.654 99.5497 130.269 101.514 124.947 96.0642C119.05 90.0262 117.339 81.4746 114.939 74.454C110.924 62.708 113.271 48.9781 113.271 36.8976C113.271 30.7641 113.469 26.354 122.206 23.4783C134.278 19.5053 151.739 19.4771 164.858 17.2044C201.886 10.7902 247.02 3.8794 284.355 13.6317C301.965 18.2317 313.34 33.9911 314.855 46.9184C315.603 53.3027 318.316 61.0014 320.216 67.3958C322.174 73.9835 321.289 81.0715 321.289 87.7861C321.289 103.453 317.506 111.149 297.818 119.069C284.193 124.55 270.694 130.251 256.953 135.276C239.631 141.611 227.335 134.913 222.164 122.728C216.361 109.051 218.872 83.3994 242.061 79.1594C256.266 76.562 271.196 77.5909 285.785 77.5909C306.06 77.5909 324.896 77.2062 344.521 81.5121C361.486 85.2346 387.769 99.538 387.769 113.317C387.769 130.137 389.913 146.932 389.913 163.857C389.913 181.033 381.925 194.821 366.323 207.862C356.332 216.214 329.163 239.514 310.685 231.912C301.765 228.242 298.065 218.269 292.219 212.567C281.929 202.533 266.234 193.075 263.625 179.717C258.101 151.435 302.463 154.447 328.675 154.447C338.469 154.447 351.453 152.597 357.745 159.501C364.241 166.627 363.785 176.603 366.8 184.596C372.197 198.906 370.612 214.929 370.612 229.734C370.612 245.236 426.741 224.533 435.305 220.148C503.434 185.268 554.446 128.481 570.052 68.9643C574.188 53.193 580.439 17.214 557.185 7.00927C536.621 -2.01477 510.873 8.63263 494.994 18.3372C477.466 29.0499 467.776 36.3261 460.205 52.4952C457.324 58.6491 451.445 75.7473 459.014 81.9478C472.907 93.3281 487.712 97.9812 508.934 97.9812C521.966 97.9812 532.903 99.7222 540.982 90.6616C546.93 83.9909 559.33 68.7127 559.33 60.3376C559.33 46.0695 537.171 47.7898 521.205 47.7898C511.253 47.7898 502.599 47.2989 492.85 45.8728C482.267 44.3247 472.121 40.6852 461.754 38.466C451.813 36.3379 440.932 36.4492 430.659 35.5905C413.559 34.1611 387.338 30.7953 383.599 48.574C381.213 59.9149 382.04 70.931 381.216 82.3835C379.867 101.123 379.853 119.184 390.866 136.758C398.018 148.169 423.545 143.467 437.807 143.467C464.951 143.467 474.949 128.824 468.783 109.658C465.001 97.9001 441.719 92.2737 428.514 89.7902C419.384 88.0731 381.607 78.5631 377.046 88.5703" stroke="#EEFEFF" stroke-width="7" stroke-linecap="round" stroke-linejoin="round"/>
<path d="M67.9674 289.88C50.7022 294.144 34.6713 295.671 24.4439 306.891C17.5021 314.507 14.0812 321.293 14.0812 330.892C14.0812 355.193 20.1324 377.893 41.9454 396.747C47.3119 401.386 50.7165 412.663 60.7135 412.663C69.5365 412.663 71.5666 402.577 73.7244 397.842C81.926 379.846 92.8379 359.311 92.8379 340.24C92.8379 331.31 95.7972 321.713 79.3664 321.713C62.2416 321.713 57.0927 322.364 44.2483 330.05C32.2987 337.201 19.4165 344.899 12.4692 355.061C11.4372 356.571 11.9601 366.949 10.9724 365.504C7.70012 360.717 11.2815 354.624 10.9724 348.973C10.6797 343.621 4.28061 345.952 9.93613 344.114C16.7158 341.91 22.8901 334.976 29.6253 331.566C34.5913 329.051 40.1983 327.492 45.0542 324.829C50.8854 321.63 59.6407 322.301 66.3554 319.355C78.4642 314.041 95.7514 314.134 109.303 314.134C124.183 314.134 125.999 319.318 125.999 329.292C125.999 341.581 128.071 353.139 128.071 365.335C128.071 376.42 126.9 387.797 130.144 398.684C131.633 403.683 137.664 423.274 147.875 423.274C163.123 423.274 173.819 424.748 188.635 420.58C197.88 417.979 199.135 409.811 203.834 404.411C213.235 393.605 212.321 380.799 218.227 368.704C225.082 354.666 211.408 355.061 197.501 355.061C191.178 355.061 180.007 353.381 174.588 355.904C168.847 358.576 165.318 361.818 159.159 363.82C149.073 367.098 135.369 368.126 127.611 374.431C114.519 385.07 142.579 398.368 142.579 410.39C142.579 415.588 138.434 419.842 138.434 425.127C138.434 430.741 135.513 440.322 131.295 445.17C119.367 458.879 83.674 453.591 63.8223 453.591C51.23 453.591 52.1132 454.865 45.1694 462.349C37.9247 470.158 32.7341 477.15 32.7341 486.94C32.7341 500.131 34.8109 505.13 53.5747 505.13C76.0769 505.13 99.0773 506.646 121.854 506.646C136.952 506.646 144.471 506.053 153.402 497.888C162.749 489.343 155.236 475.195 153.057 465.634C152.142 461.617 150.749 458.068 146.263 455.444C143.637 453.907 128.663 452.453 128.186 451.233C124.266 441.199 154.262 444.496 161.232 444.496C168.368 444.496 172.04 443.467 175.74 448.202C179.021 452.402 185.322 452.831 189.787 455.444C195.68 458.892 215.562 456.942 223.408 456.623C226.713 456.489 227.057 454.249 229.626 453.254C231.542 452.513 236.786 452.515 237.801 451.402C238.584 450.543 236.218 453.591 234.807 453.591C230.163 453.591 225.519 453.591 220.875 453.591C188.741 453.591 157.817 453.22 127.035 458.223C116.507 459.934 129.557 465.637 131.18 466.56C137.152 469.957 140.78 471.063 144.191 476.329C149.604 484.687 152.942 495.954 152.942 505.13C152.942 515.823 136.939 513.99 127.035 518.015C119.549 521.056 105.71 528.218 98.0193 529.468C82.0932 532.056 69.9208 551.768 59.6772 559.7C49.1325 567.866 41.7046 579.979 37.3398 590.354C32.1863 602.604 28.9325 621.843 32.8493 634.735C34.1467 639.005 38.4165 640.774 40.5637 644.588C42.6238 648.247 30.5884 641.671 29.5102 640.882C20.0156 633.938 9.93613 638.167 9.93613 626.398C9.93613 616.264 9.40241 606.567 9.93613 596.417C10.9307 577.504 40.7079 554.964 62.6709 575.617C70.3536 582.841 75.0591 593.916 81.5541 602.06C89.3962 611.892 114.929 613.1 128.301 614.187C149.146 615.881 167.707 614.197 175.74 598.775C180.346 589.933 178.572 576.727 177.812 567.28C177.201 559.677 159.468 559.581 156.972 551.363C153.936 541.373 140.4 534.022 131.065 527.194C119.559 518.778 110.039 527.868 96.983 527.868C89.6481 527.868 85.1295 528.4 80.4026 524.078C77.7433 521.647 69.9935 519.106 65.8948 518.773C54.1723 517.82 40.217 515.167 41.0243 505.13C41.3022 501.674 51.387 503.678 51.387 507.404C51.387 514.316 53.3028 514.369 59.6772 518.773C68.3939 524.794 78.3845 530.022 87.6565 535.447C96.2629 540.483 110.074 538.479 120.817 538.479C129.161 538.479 135.334 544.648 142.579 546.816C150.64 549.228 159.337 553.399 166.068 557.427C168.767 559.042 168.528 562.509 171.595 563.911C179.496 567.523 181.957 582.266 181.957 588.501C181.957 596.874 182.198 605.228 191.284 610.397C195.373 612.723 198.924 616.139 202.222 619.155C204.113 620.883 210.26 628.219 210.858 630.187C216.457 648.617 237.778 674.899 209.937 690.737C185.371 704.711 197.455 732.654 213.506 747.328C221.547 754.68 229.853 755.244 243.213 755.244C259.171 755.244 275.318 751.744 290.19 747.665C301.463 744.573 302.165 744.418 302.165 736.212C302.165 726.059 304.237 715.437 304.237 704.885C304.237 699.458 302.427 695.178 309.419 692.337C312.033 691.275 326.476 691.447 320.357 685.852C311.51 677.763 301.042 669.482 297.905 659.157C295.601 651.575 273.476 651.898 266.816 655.956C264.248 657.522 260.378 656.213 257.49 657.557C254.14 659.116 252.165 661.11 249.315 662.778C244.469 665.613 239.379 671.001 233.771 673.052C228.72 674.899 224.097 674.905 218.227 674.905C208.616 674.905 215.188 682.272 212.585 687.031C202.628 705.237 162.472 700.674 139.47 700.674C128.039 700.674 114.42 698.513 107.806 706.737C102.562 713.258 94.9105 723.57 94.9105 730.991C94.9105 740.294 92.15 749.22 92.8379 758.276C93.2094 763.167 97.4283 766.959 100.092 771.245C104.293 778.005 104.372 779.498 93.2985 779.498C80.7268 779.498 68.4842 777.982 55.5321 777.982C50.9131 777.982 42.4164 778.604 39.4123 781.35C36.0585 784.417 39.0033 787.974 33.7704 790.951C30.0929 793.043 25.159 794.381 22.3714 796.93C16.7035 802.112 16.1538 791.628 16.1538 788.256C16.1538 779.673 14.9993 764.723 19.8383 756.76C22.2544 752.784 18.2263 746.055 18.2263 741.602C18.2263 737.131 16.1538 732.828 16.1538 728.717C16.1538 719.07 44.7577 715.832 54.4958 715.832C69.0717 715.832 79.5647 705.221 93.8742 705.221C99.5443 705.221 103.748 702.434 109.418 702.19C116.898 701.868 106.646 692.391 102.164 691.663C90.4722 689.763 94.6177 678.043 98.595 673.389C101.772 669.671 106.213 666.47 110.339 663.451C114.116 660.69 114.06 655.517 116.096 652.167C120.139 645.514 117.216 633.329 112.527 627.155C106.91 619.761 88.1375 623.366 77.1787 623.366C71.3562 623.366 57.0867 621.555 52.4233 624.208C46.1876 627.755 47.9478 632.27 44.7088 637.008C39.3962 644.78 37.385 656.509 26.5165 660.925C19.2772 663.867 3.16245 672.538 3.7185 679.452C4.04755 683.543 15.4026 687.064 19.1474 689.305C23.0432 691.636 30.4122 700.605 30.6616 703.706C31.3682 712.492 49.5299 720.739 55.417 728.633C65.4453 742.08 74.7663 753.322 80.5178 768.045C82.0757 772.033 87.677 775.659 88.5777 780.929C89.291 785.103 91.3052 792.862 95.371 795.835C102.226 800.849 120.87 802.724 132.216 802.235C136.055 802.07 139.807 793.905 142.579 791.625C147.58 787.509 151.189 783.073 158.123 780.256C166.158 776.991 184.147 779.498 193.356 779.498C207.395 779.498 211.883 787.003 223.408 791.961C230.777 795.132 231.818 796.172 241.025 796.172C252.854 796.172 251.065 784.13 246.667 779.498C241.675 774.24 239.989 767.909 239.989 761.644C239.989 755.625 237.911 752.213 247.242 752.213C264.182 752.213 282.071 748.538 298.941 750.781C309.469 752.181 320.601 770.471 325.423 776.466C327.691 779.286 337.02 785.619 340.737 787.919C349.915 793.599 354.664 793.169 365.262 794.993C372.398 796.221 383.118 797.79 389.672 794.656C398.463 790.452 394.173 781.454 398.538 775.708C401.835 771.368 411.669 771.405 412.01 764.676C412.358 757.792 412.01 750.849 412.01 743.96C412.01 740.51 410.17 733.179 413.622 730.654C417.309 727.957 427.566 729.475 432.735 729.475C444.96 729.475 455.913 731.908 459.678 740.17C463.087 747.649 467.615 757.86 459.218 764.002C450.876 770.103 451.388 780.463 451.388 788.593C451.388 798.299 490.386 800.72 498.826 800.72C518.777 800.72 536.536 801.902 548.683 787.835C559.015 775.869 560.101 761.368 551.331 749.181C547.024 743.196 540.931 724.927 555.015 724.927C571.963 724.927 588.42 725.779 604.756 726.443C610.418 726.673 616.907 730.279 622.373 729.391C626.704 728.687 630.571 723.638 635.844 723.412C653.589 722.648 658.982 743.507 670.041 750.697C677.729 755.695 693.249 778.403 679.138 781.687C673.017 783.112 667.626 783.651 661.751 785.561C658.538 786.606 656.99 788.103 653.461 788.677C648.436 789.494 648.179 794.393 642.062 794.656C634.007 795.003 651.514 803.402 647.128 798.362C643.955 794.714 642.748 784.504 637.456 782.866C617.882 776.809 563.305 786.961 563.305 763.581C563.305 752.768 585.868 761.357 595.43 755.918C602.713 751.775 615.505 752.213 624.561 752.213C634.472 752.213 644.161 750.517 653.576 749.265C665.426 747.689 677.295 738.764 677.295 729.475C677.295 717.637 679.368 706.204 679.368 694.61C679.368 685.768 679.368 676.926 679.368 668.083C679.368 660.775 680.121 659.271 671.769 655.199C665.148 651.97 656.28 647.024 648.28 646.188C643.1 645.647 631.143 642.33 627.669 639.366C625.934 637.886 622.736 636.462 620.416 635.493C618.608 634.737 619.091 631.924 617.652 630.608C613.546 626.855 631.553 627.913 633.772 627.913C645.159 627.913 656.744 625.469 666.933 621.85C687.945 614.386 695.948 599.666 695.948 583.196C695.948 574.221 693.061 573.926 680.98 570.311C671.586 567.5 662.31 564.954 653.346 561.974C644.471 559.024 631.402 561.765 623.524 565.006C617.03 567.678 614.064 573.566 607.98 576.038C595.008 581.309 583.383 585.618 576.201 573.68C572.194 567.018 560.443 563.699 556.627 556.163C554.113 551.199 552.738 545.911 550.755 540.837C550.163 539.322 548.798 551.336 548.798 553.637C548.798 557.151 555.085 563.555 558.239 566.522C567.923 575.628 584.052 580.047 594.394 588.501C602.034 594.747 600.611 603.454 600.611 611.239C600.611 615.815 602.711 623.7 600.151 627.913C598.426 630.751 594.587 633.56 591.285 635.493C585.641 638.795 596.87 635.559 598.999 634.314C605.038 630.78 637.726 633.182 644.135 635.156C656.478 638.957 676.313 631.635 687.658 628.671C694.86 626.79 698.621 623.347 706.772 621.513C713.886 619.912 722.958 619.584 730.376 620.418C742.252 621.755 754.372 622.935 766.415 621.008C769.834 620.461 795.43 615.467 795.43 617.302C795.43 627.339 792.281 639.964 787.601 649.472C784.484 655.805 774.481 659.13 766.875 662.441C757.828 666.38 750.157 669.485 741.659 674.147C737.288 676.545 730.145 683.545 727.497 687.031C722.597 693.482 714.277 697.893 705.505 701.348C699.669 703.646 694.768 705.998 688.579 706.821C677.744 708.262 677.421 707.763 681.901 714.316C689.981 726.136 694.462 738.363 712.529 744.97C720.792 747.992 729.532 750.717 738.551 752.549C748.259 754.522 754.499 763.041 764.457 764.255C773.877 765.403 781.352 769.978 787.14 761.981C792.741 754.243 792.305 747.195 793.473 738.654C794.614 730.311 801.049 708.509 790.825 702.527C787.679 700.686 775.858 702.19 771.596 702.19C763.052 702.19 761.481 706.538 755.592 709.769C748.26 713.79 743.617 716.479 743.617 723.412C743.617 727.387 743.784 731.592 740.393 734.78C730.61 743.98 723.237 755.812 716.674 766.613C713.249 772.249 710.969 793.011 717.71 796.846C721.929 799.246 722.541 802.092 728.418 803.414C737.789 805.523 754.852 808.504 764.342 806.025C790.03 799.315 814.205 798.3 834.809 784.045C841.715 779.267 851.415 777.982 860.716 777.982C870.598 777.982 869.462 780.449 876.72 784.719C890.244 792.675 900.022 798.316 916.099 802.235C926.035 804.658 937.125 803.592 947.417 804.93C951.815 805.502 957.991 805.893 962.155 804.509C969.181 802.173 965.459 790.047 967.912 785.561C971.198 779.552 971.545 772.623 974.706 766.613C978.503 759.392 978.785 756.124 987.141 751.37C992.656 748.233 1007.62 747.665 1014.66 747.665C1038.25 747.665 1060.43 744.754 1075.22 761.139C1081.52 768.112 1085.59 776.138 1085.59 784.382C1085.59 792.715 1088.37 795.982 1095.95 802.32C1103.7 808.797 1105.09 811.331 1116.67 811.331C1122.32 811.331 1124.96 805.266 1124.96 801.393C1124.96 794.824 1126.54 788.229 1119.67 783.203C1109.71 775.923 1104.42 765.873 1099.63 756.423C1093.99 745.27 1076.68 739.094 1069.47 727.959C1065.69 722.132 1064.67 714.134 1072.69 710.443C1076.81 708.547 1078.56 707.423 1081.9 704.885C1087.18 700.869 1091.37 702.394 1096.87 699.832C1108.04 694.632 1120.39 698.189 1128.19 689.221C1137.34 678.703 1133.26 662.783 1133.26 650.651C1133.26 644.075 1132.45 644.298 1140.51 642.988C1147.41 641.865 1153.98 639.267 1153.98 633.977C1153.98 630.656 1151.55 626.979 1150.53 623.703C1146.79 611.755 1143.11 598.153 1133.37 587.912C1127.08 581.298 1119.27 580.65 1108.85 580.922C1097.95 581.207 1088.68 589.492 1078.22 591.533C1067.39 593.645 1057.35 597.013 1046.21 598.775C1028.18 601.626 1028.9 592.992 1024.56 583.28C1019.25 571.386 1019.27 561.008 1019.27 548.5C1019.27 527.515 1060.31 520.288 1083.4 520.288C1095.41 520.288 1112.64 517.928 1122.43 523.657C1137.52 532.486 1136.69 553.367 1137.4 566.943C1138.03 578.838 1141.07 594.697 1119.9 597.512C1101.84 599.914 1106.28 570.499 1108.38 564.332C1114.82 545.49 1116.01 526.6 1123.93 508.077C1127.56 499.576 1125.31 489.356 1127.5 480.54C1130.15 469.874 1132.38 464.202 1115.75 464.202C1098.26 464.202 1071.08 467.927 1071.08 483.908C1071.08 491.307 1076.13 514.989 1064.86 519.109C1057.36 521.854 1060.63 506.76 1060.72 503.446C1060.81 499.896 1067 489.692 1070.04 487.024C1081.08 477.34 1092.81 472.011 1107.92 465.718C1114.35 463.044 1124.5 459.085 1124.96 452.918C1125.53 445.434 1124.97 438.925 1129.11 431.78C1134.39 422.674 1141.55 416.087 1141.55 405.674C1141.55 393.006 1144.15 378.687 1139.93 366.346C1137.94 360.515 1136.24 350.92 1127.04 348.998C1117.27 346.957 1114.9 341.374 1106.31 338.05C1098.31 334.951 1093.99 328.658 1085.59 325.587C1073.6 321.204 1059.61 321.713 1046.67 321.713C1028.3 321.713 1015.54 332.324 996.467 332.324C993.396 332.324 982.515 331.075 980.347 332.661C974.824 336.7 993.626 338.387 995.546 338.387C1019.36 338.387 1043.29 339.903 1066.82 339.903C1072.6 339.903 1084.06 341.698 1088.7 339.061C1096.66 334.529 1103.2 330.155 1112.99 327.439C1130.97 322.452 1146.07 313.966 1147.65 298.975C1148.79 288.1 1145.89 279.02 1130.72 275.059C1122.31 272.862 1116.16 268.808 1108.38 265.963C1103.7 264.249 1093.49 265.627 1088.35 265.627C1071.54 265.627 1054.73 265.627 1037.92 265.627C1033.34 265.627 1027.74 264.316 1027.56 268.658C1027.45 271.283 1026.56 275.598 1028.71 277.838C1034.31 283.691 1029.98 291.093 1032.74 297.544C1036.07 305.34 1039.92 314.936 1037.92 323.229C1037.15 326.427 999.604 330.829 994.855 331.987C960.407 340.385 904.851 348.156 883.283 320.113C874.648 308.885 870.042 296.801 870.042 283.817C870.042 277.383 869.628 271.754 875.339 266.385C877.859 264.014 883.011 262.875 886.738 261.921C898.584 258.889 906.771 252.696 918.171 248.952C934.399 243.623 949.336 246.483 965.379 250.468C975.317 252.937 981.323 258.72 989.444 262.679C1005.06 270.293 1029.48 284.847 1033.77 298.975C1034.49 301.35 1042.12 314.937 1047.82 310.765C1057.37 303.779 1058.64 294.902 1058.64 285.417C1058.64 273.541 1044.13 272.361 1035.38 265.963C1027.86 260.459 1020.41 255.037 1014.08 248.868C1006.35 241.323 1001.95 232.614 996.582 224.109C992.848 218.192 988.439 212.381 988.177 205.667C987.507 188.525 953.72 192.665 940.509 197.75C924.454 203.931 912.997 206.79 897.906 197.329C883.11 188.053 895.241 171.517 906.427 164.823C914.738 159.85 910.377 158.702 904.239 154.212C892.253 145.446 880.153 133.679 863.824 129.201C845.751 124.243 828.901 127.685 811.55 127.685C796.721 127.685 766.415 128.905 766.415 142.843C766.415 153.847 766.415 164.851 766.415 175.855C766.415 182.519 764.706 190.534 768.948 196.74C773.175 202.923 781.968 204.811 787.14 209.54C793.99 215.803 825.033 216.239 833.772 211.814C844.347 206.46 842.851 192.278 839.414 184.108C836.939 178.224 837.287 177.166 829.627 174.676C820.087 171.575 807.303 173.16 797.042 173.16C785.042 173.16 773.796 170.572 762.27 170.128C754.241 169.819 751.297 166.468 743.617 165.665C725.126 163.733 715.517 176.192 698.942 176.192C670.136 176.192 666.933 160.531 666.933 142.843C666.933 131.212 672.322 118.582 687.658 112.863C694.991 110.129 712.739 106.559 720.819 110.253C737.124 117.706 751.907 127.854 751.907 142.506C751.907 153.524 756.49 168.066 739.932 172.823C723.122 177.654 675.547 194.121 668.89 173.834C666.451 166.401 662.788 160.774 662.788 152.865C662.788 148.301 660.765 144.418 658.643 140.148C653.249 129.301 651.079 114.145 659.794 104.021C664.697 98.3247 672.26 78.4149 663.939 73.1986C652.458 66.001 645.973 54.6227 633.772 47.6819C610.163 34.2514 599.767 60.1872 590.249 71.9354C585.506 77.7892 585.893 90.4169 586.103 97.031C586.51 109.808 624.444 106.463 634.693 106.463C651.658 106.463 665.687 109.556 674.762 97.8732C679.139 92.2397 678.255 82.576 678.907 76.3145C680.101 64.854 679.368 53.1928 679.368 41.7027C679.368 34.6933 681.563 29.1549 692.724 29.1549C696.511 29.1549 698.839 36.2572 701.705 38.5868C706.901 42.8093 717.031 40.698 722.776 43.6396C733.408 49.0828 757.993 47.345 770.56 47.345C782.579 47.345 789.213 42.8688 789.213 34.0393C789.213 28.1639 787.877 21.976 798.539 23.1757C803.758 23.7629 807.828 26.9676 813.047 27.5548C818.747 28.1962 823.833 27.5385 828.591 30.6707C839.45 37.8188 845.73 50.5767 847.014 60.9034C848.152 70.0628 851.583 86.9584 838.608 92.6519C824.419 98.8786 799.71 105.317 782.995 101.242C764.599 96.7568 755.082 81.5087 743.847 71.009C732.055 59.9888 714.945 60.6303 696.869 60.9876C685.634 61.2097 682.4 71.4573 681.325 77.7461C679.428 88.8469 672.975 96.9203 686.046 106.126C695.45 112.749 710.481 111.01 722.201 111.01C746.165 111.01 770.525 112.098 794.279 109.831C813.024 108.043 835.101 105.53 844.711 91.4729C851.605 81.3878 851.461 69.6709 861.637 60.9876C871.315 52.7294 879.833 45.4836 893.761 40.4395C906.258 35.914 928.402 27.7666 943.502 29.2391C966.126 31.4454 971.597 55.9425 971.597 68.3984C971.597 77.9132 973.372 88.5988 964.228 96.3573C956.28 103.1 939.252 110.561 927.152 111.01C909.169 111.679 902.848 95.206 896.525 85.578C888.951 74.0473 880.405 65.2451 880.405 51.8926C880.405 43.874 885.434 28.5651 897.906 26.3758C913.336 23.6673 935.059 25.4776 950.641 26.4601C972.415 27.8329 990.299 36.3007 1000.15 50.7136C1006.08 59.3804 1006.19 71.9603 1004.76 81.5357C1003.37 90.8577 970.54 97.0038 961.119 100.568C944.194 106.971 929.214 115.001 911.378 120.106C904.758 122 884.55 123.393 884.55 130.38C884.55 134.619 891.874 138.137 894.913 141.159C901.777 147.987 904.974 157.839 915.638 162.297C934.916 170.353 955.412 165.376 968.142 153.623C980.231 142.462 984.795 128.516 989.329 114.884C990.706 110.743 1000.12 95.3029 987.141 97.5363C971.927 100.154 951.514 111.899 947.187 122.8C941.601 136.872 952.756 147.371 960.313 158.928C967.207 169.471 981.492 177.066 994.164 183.687C1002.29 187.93 1012.91 195.898 1023.53 195.898C1031.73 195.898 1039.68 197.414 1047.94 197.414C1061.49 197.414 1094.43 202.072 1104.7 194.045C1112.27 188.127 1111.74 174.546 1110 167.097C1107.4 155.982 1091.34 144.59 1077.87 139.98C1068.77 136.863 1040.61 130.386 1033.77 138.717C1026.11 148.058 1023.54 158.915 1023.41 169.623C1023.24 183.244 1029.17 194.669 1031.7 208.025C1033.29 216.381 1033.53 225.13 1036.77 233.289C1042.3 247.217 1062.31 260.009 1082.59 253.163C1097.63 248.087 1109.33 236.721 1120.94 228.404C1135.59 217.9 1141.39 209.004 1141.55 194.045C1141.74 175.906 1138.03 158.539 1136.25 140.485C1134.54 123.154 1137.13 108.265 1120.59 94.5888C1108.52 84.6092 1092.06 78.5295 1078.91 69.4932C1071.14 64.1586 1064.63 59.0316 1052.66 62.9245C1037.82 67.7477 1036.49 83.9136 1035.96 93.9151C1035.35 105.478 1038.08 115.761 1054.5 120.948C1102.13 135.99 1134.1 76.8306 1142.47 52.9031C1145.41 44.4934 1149.81 36.4197 1135.33 34.3761C1111.18 30.9681 1086.06 24.8521 1061.64 23.4284C1044.43 22.4254 1011.77 17.1903 1009.02 34.2919C1007.03 46.6516 1035.44 54.6276 1048.97 51.5557C1056.91 49.7546 1058.64 40.807 1058.64 35.9762C1058.64 30.9745 1044.92 32.1866 1039.99 32.1866" stroke="#EEFEFF" stroke-width="7" stroke-linecap="round" stroke-linejoin="round"/>
</svg>
