<?xml version="1.0" encoding="UTF-8"?>
<!DOCTYPE svg PUBLIC "-//W3C//DTD SVG 1.1//EN" "http://www.w3.org/Graphics/SVG/1.1/DTD/svg11.dtd">
<svg version="1.1" xmlns="http://www.w3.org/2000/svg" xmlns:xlink="http://www.w3.org/1999/xlink" x="0" y="0" width="765.845" height="533.035" viewBox="0, 0, 765.845, 533.035">
  <g id="arch" transform="translate(0, -490.965)">
    <path d="M757.524,515.16 C433.322,584.632 21.604,528.109 6.717,508.26 L-0,490.965 C14.887,510.814 441.643,567.053 765.845,497.581 L756.248,515.477" fill="#AECB9D"/>
    <path d="M57.966,558.199 C57.966,560.602 359.723,599.545 712.256,562.551 L718.059,542.966 C361.899,571.255 47.811,539.069 47.811,534.261 L59.549,558.199" fill="#C92D15"/>
    <path d="M712.256,562.551 L712.256,562.551" fill="#C92D15"/>
    <path d="M82.43,562.551 L92.027,592.751 C92.027,595.155 326.356,605.348 679.614,592.291 L691.288,564.997" fill="#C92D15"/>
    <path d="M92.027,646.268 L679.614,646.268 L679.614,676.032 L92.027,676.032 L92.027,646.268 z" fill="#C92D15"/>
    <path d="M86.176,639.757 L684.242,639.757 L684.242,646.268 L86.176,646.268 L86.176,639.757 z" fill="#C92D15"/>
    <path d="M212.75,610.888 L248.555,610.888 L248.555,1012.635 L212.75,1012.635 L212.75,610.888 z" fill="#C92D15"/>
    <path d="M530.454,610.888 L566.259,610.888 L566.259,1012.635 L530.454,1012.635 L530.454,610.888 z" fill="#C92D15"/>
    <path d="M581.278,723.803 L617.083,723.803 L617.083,1024 L581.278,1024 L581.278,723.803 z" fill="#C92D15"/>
    <path d="M575.527,709.085 L623.153,709.085 L623.153,723.803 L575.527,723.803 L575.527,709.085 z" fill="#C92D15"/>
    <path d="M201.629,691.351 C193.742,702.817 156.534,701.563 147.577,690.993" fill-opacity="0" stroke="#AECB9D" stroke-width="8"/>
    <path d="M159.254,723.803 L195.059,723.803 L195.059,1024 L159.254,1024 L159.254,723.803 z" fill="#C92D15"/>
    <path d="M153.503,709.085 L201.129,709.085 L201.129,723.803 L153.503,723.803 L153.503,709.085 z" fill="#C92D15"/>
    <path d="M626.866,691.351 C618.979,702.817 581.771,701.563 572.814,690.993" fill-opacity="0" stroke="#AECB9D" stroke-width="8"/>
  </g>
</svg>
