<?xml version="1.0" encoding="UTF-8"?>
<!DOCTYPE svg PUBLIC "-//W3C//DTD SVG 1.1//EN" "http://www.w3.org/Graphics/SVG/1.1/DTD/svg11.dtd">
<svg version="1.1" xmlns="http://www.w3.org/2000/svg" xmlns:xlink="http://www.w3.org/1999/xlink" x="0" y="0" width="508.088" height="1024" viewBox="0, 0, 508.088, 1024">
  <g id="eiffel" transform="translate(-129.956, 0)">
    <path d="M357.545,188.115 L364.342,188.251 L359.951,407.824 L353.154,407.688 L357.545,188.115 z" fill="#2C2B2B"/>
    <path d="M403.865,188.069 L411.184,407.643 L404.389,407.869 L397.07,188.296 L403.865,188.069 z" fill="#2C2B2B"/>
    <path d="M353.188,427.767 L359.917,428.732 L332.926,617.075 L326.196,616.111 L353.188,427.767 z" fill="#2C2B2B"/>
    <path d="M417.01,427.791 L442.567,615.564 L435.83,616.481 L410.273,428.708 L417.01,427.791 z" fill="#2C2B2B"/>
    <path d="M315.31,671.514 L321.676,673.901 L278.451,789.225 L272.085,786.839 L315.31,671.514 z" fill="#2C2B2B"/>
    <path d="M453.422,671.518 L496.294,786.292 L489.925,788.671 L447.053,673.897 L453.422,671.518 z" fill="#2C2B2B"/>
    <path d="M357.595,672.125 L364.293,673.291 L344.225,788.614 L337.527,787.449 L357.595,672.125 z" fill="#2C2B2B"/>
    <path d="M403.771,671.909 L431.507,786.684 L424.899,788.281 L397.163,673.506 L403.771,671.909 z" fill="#2C2B2B"/>
    <path d="M252.724,845.011 L258.373,848.794 L154.442,1003.96 L148.793,1000.176 L252.724,845.011 z" fill="#2C2B2B"/>
    <path d="M518.958,845.048 L619.962,1000.213 L614.264,1003.922 L513.26,848.757 L518.958,845.048 z" fill="#2C2B2B"/>
    <g>
      <path d="M341.915,405.284 L424.626,405.284 L424.626,428.249 L341.915,428.249 L341.915,405.284 z" fill="#2C2B2B"/>
      <path d="M428.025,401.884 L428.025,431.649 L338.515,431.649 L338.515,401.884 L428.025,401.884 z M421.226,408.683 L345.314,408.683 L345.314,424.85 L421.226,424.85 L421.226,408.683 z" fill="#2C2B2B"/>
    </g>
    <g>
      <path d="M351.357,134.226 L411.214,134.226 L411.214,188.183 L351.357,188.183 L351.357,134.226 z" fill="#2C2B2B"/>
      <path d="M414.613,130.826 L414.613,191.582 L347.957,191.582 L347.957,130.826 L414.613,130.826 z M407.815,137.625 L354.756,137.625 L354.756,184.784 L407.815,184.784 L407.815,137.625 z" fill="#2C2B2B"/>
    </g>
    <g>
      <path d="M380.553,89.511 L411.297,115.145 L385.987,145.499 L355.244,119.865 L380.553,89.511 z" fill="#2C2B2B"/>
      <path d="M380.119,84.723 L382.73,86.9 L413.474,112.534 L416.085,114.711 L413.908,117.321 L388.598,147.676 L386.421,150.287 L383.81,148.11 L353.066,122.476 L350.456,120.299 L352.633,117.688 L377.942,87.334 L380.119,84.723 z M380.987,94.299 L360.031,119.431 L385.553,140.711 L406.509,115.579 L380.987,94.299 z" fill="#2C2B2B"/>
    </g>
    <path d="M379.866,0 C381.744,-0.021 383.283,1.483 383.305,3.361 L384.318,91.813 C384.339,93.69 382.835,95.229 380.958,95.251 C379.08,95.272 377.541,93.768 377.52,91.891 L376.506,3.438 C376.485,1.561 377.989,0.022 379.866,0 z" fill="#2C2B2B"/>
    <g>
      <path d="M311.115,616.593 L456.531,616.593 L456.531,672.708 L311.115,672.708 L311.115,616.593 z" fill="#2C2B2B"/>
      <path d="M459.93,613.194 L459.93,676.107 L307.715,676.107 L307.715,613.194 L459.93,613.194 z M453.131,619.992 L314.514,619.992 L314.514,669.308 L453.131,669.308 L453.131,619.992 z" fill="#2C2B2B"/>
    </g>
    <g>
      <path d="M242.353,814.818 L522.124,814.818 L522.124,846.902 L242.353,846.902 L242.353,814.818 z" fill="#2C2B2B"/>
      <path d="M525.523,811.419 L525.523,850.302 L238.953,850.302 L238.953,811.419 L525.523,811.419 z M518.724,818.217 L245.752,818.217 L245.752,843.503 L518.724,843.503 L518.724,818.217 z" fill="#2C2B2B"/>
    </g>
    <g>
      <path d="M266.163,814.818 L244.734,788.031 L528.076,788.032 L509.623,814.818" fill="#2C2B2B"/>
      <path d="M534.546,784.632 L530.876,789.96 L512.423,816.747 L506.824,812.89 L521.606,791.431 L251.806,791.431 L268.817,812.694 L263.508,816.941 L242.079,790.155 L237.661,784.632 L534.546,784.632 z" fill="#2C2B2B"/>
    </g>
    <g>
      <path d="M133.355,1002.067 L244.734,1002.067 L244.734,1020.601 L133.355,1020.601 L133.355,1002.067 z" fill="#2C2B2B"/>
      <path d="M248.133,998.668 L248.133,1024 L129.956,1024 L129.956,998.668 L248.133,998.668 z M241.335,1005.467 L136.755,1005.467 L136.755,1017.201 L241.335,1017.201 L241.335,1005.467 z" fill="#2C2B2B"/>
    </g>
    <g>
      <path d="M526.976,1002.068 L634.645,1002.068 L634.645,1020.601 L526.976,1020.601 L526.976,1002.068 z" fill="#2C2B2B"/>
      <path d="M638.044,998.668 L638.044,1024 L523.577,1024 L523.577,998.668 L638.044,998.668 z M631.245,1005.467 L530.376,1005.467 L530.376,1017.201 L631.245,1017.201 L631.245,1005.467 z" fill="#2C2B2B"/>
    </g>
    <path d="M390.187,879.579 L390.187,886.378 C301.122,886.378 229.268,938.453 229.268,1002.068 L222.469,1002.068 C222.469,934.14 297.752,879.579 390.187,879.579 z" fill="#2C2B2B"/>
    <path d="M390.187,879.579 C473.349,879.579 541.019,934.24 541.019,1002.068 L534.22,1002.068 C534.22,938.353 469.875,886.378 390.187,886.378 L390.187,879.579 z" fill="#2C2B2B"/>
    <path d="M379.786,446.871 L386.559,447.469 L371.617,616.892 L364.844,616.294 L379.786,446.871 z" fill="#2C2B2B"/>
    <path d="M386.554,446.825 L403.849,616.248 L397.085,616.938 L379.79,447.515 L386.554,446.825 z" fill="#2C2B2B"/>
    <path d="M384.978,188.18 L385.198,456.721 L378.399,456.726 L378.179,188.185 L384.978,188.18 z" fill="#2C2B2B"/>
    <path d="M183.005,958.741 L205.547,1000.451 L199.566,1003.684 L177.024,961.974 L183.005,958.741 z" fill="#2C2B2B"/>
    <path d="M229.141,968.651 L232.637,974.482 L181.762,1004.983 L178.266,999.152 L229.141,968.651 z" fill="#2C2B2B"/>
    <path d="M260.729,923.761 L263.297,930.056 L181.298,963.505 L178.73,957.21 L260.729,923.761 z" fill="#2C2B2B"/>
    <path d="M211.659,916.616 L234.026,970.258 L227.751,972.875 L205.384,919.233 L211.659,916.616 z" fill="#2C2B2B"/>
    <path d="M284.132,872.503 L287.371,878.481 L210.141,920.332 L206.902,914.354 L284.132,872.503 z" fill="#2C2B2B"/>
    <path d="M242.58,870.032 L265.157,924.963 L258.869,927.547 L236.292,872.616 L242.58,870.032 z" fill="#2C2B2B"/>
    <path d="M534.854,967.924 L597.213,999.026 L594.179,1005.11 L531.82,974.008 L534.854,967.924 z" fill="#2C2B2B"/>
    <path d="M586.813,958.674 L592.72,962.041 L568.947,1003.751 L563.041,1000.384 L586.813,958.674 z" fill="#2C2B2B"/>
    <path d="M507.635,924.225 L589.793,957.202 L587.261,963.512 L505.102,930.535 L507.635,924.225 z" fill="#2C2B2B"/>
    <path d="M558.11,915.204 L564.159,918.306 L536.362,972.517 L530.312,969.415 L558.11,915.204 z" fill="#2C2B2B"/>
    <path d="M485.678,875.998 L562.63,913.702 L559.639,919.808 L482.687,882.104 L485.678,875.998 z" fill="#2C2B2B"/>
    <path d="M531.466,873.829 L537.396,877.155 L508.561,928.571 L502.631,925.245 L531.466,873.829 z" fill="#2C2B2B"/>
    <path d="M351.119,713.679 L354.698,719.46 L289.134,760.044 L285.555,754.263 L351.119,713.679 z" fill="#2C2B2B"/>
    <path d="M308.73,705.684 L346.17,769.342 L340.309,772.789 L302.87,709.13 L308.73,705.684 z" fill="#2C2B2B"/>
    <path d="M461.962,710.968 L467.587,714.788 L427.438,773.916 L421.813,770.097 L461.962,710.968 z" fill="#2C2B2B"/>
    <path d="M413.021,713.64 L483.546,755.149 L480.097,761.008 L409.572,719.499 L413.021,713.64 z" fill="#2C2B2B"/>
    <path d="M321.182,670.627 L355.123,714.489 L349.746,718.65 L315.805,674.788 L321.182,670.627 z" fill="#2C2B2B"/>
    <path d="M358.528,670.351 L362.186,676.082 L308.61,710.273 L304.952,704.541 L358.528,670.351 z" fill="#2C2B2B"/>
    <path d="M402.532,669.828 L466.58,709.998 L462.968,715.758 L398.92,675.588 L402.532,669.828 z" fill="#2C2B2B"/>
    <path d="M447.706,670.439 L452.769,674.976 L413.828,718.435 L408.765,713.898 L447.706,670.439 z" fill="#2C2B2B"/>
    <path d="M337.797,576.984 L370.779,614.343 L365.682,618.843 L332.7,581.484 L337.797,576.984 z" fill="#2C2B2B"/>
    <path d="M368.899,576.704 L373.441,581.763 L331.832,619.122 L327.29,614.064 L368.899,576.704 z" fill="#2C2B2B"/>
    <path d="M398.882,576.663 L441.423,613.451 L436.975,618.593 L394.435,581.805 L398.882,576.663 z" fill="#2C2B2B"/>
    <path d="M431.712,576.955 L436.756,581.513 L402.989,618.872 L397.945,614.313 L431.712,576.955 z" fill="#2C2B2B"/>
    <path d="M395.449,548.302 L436.166,576.437 L432.301,582.03 L391.585,553.895 L395.449,548.302 z" fill="#2C2B2B"/>
    <path d="M428.01,548.494 L432.38,553.703 L398.844,581.837 L394.474,576.629 L428.01,548.494 z" fill="#2C2B2B"/>
    <path d="M341.807,548.559 L373.43,576.694 L368.91,581.774 L337.288,553.638 L341.807,548.559 z" fill="#2C2B2B"/>
    <path d="M371.997,548.348 L375.991,553.849 L337.246,581.985 L333.251,576.483 L371.997,548.348 z" fill="#2C2B2B"/>
    <path d="M345.997,517.954 L376.411,548.708 L371.577,553.489 L341.163,522.735 L345.997,517.954 z" fill="#2C2B2B"/>
    <path d="M374.384,517.73 L378.73,522.959 L341.72,553.713 L337.375,548.484 L374.384,517.73 z" fill="#2C2B2B"/>
    <path d="M351.062,485.573 L379.131,518.124 L373.983,522.564 L345.913,490.013 L351.062,485.573 z" fill="#2C2B2B"/>
    <path d="M379.891,454.78 L384.427,459.844 L350.755,490.008 L346.219,484.943 L379.891,454.78 z" fill="#2C2B2B"/>
    <path d="M359.096,425.994 L384.342,454.468 L379.255,458.979 L354.009,430.505 L359.096,425.994 z" fill="#2C2B2B"/>
    <path d="M377.173,485.275 L381.742,490.311 L345.864,522.862 L341.295,517.827 L377.173,485.275 z" fill="#2C2B2B"/>
    <path d="M355.46,455.067 L382.01,485.229 L376.906,489.722 L350.357,459.559 L355.46,455.067 z" fill="#2C2B2B"/>
    <path d="M379.158,425.862 L383.998,430.637 L355.329,459.7 L350.489,454.926 L379.158,425.862 z" fill="#2C2B2B"/>
    <path d="M392.772,517.662 L432.283,548.416 L428.107,553.781 L388.596,523.027 L392.772,517.662 z" fill="#2C2B2B"/>
    <path d="M419.077,485.731 L423.97,490.451 L393.13,522.421 L388.237,517.7 L419.077,485.731 z" fill="#2C2B2B"/>
    <path d="M386.75,455.136 L423.654,484.827 L419.393,490.124 L382.488,460.433 L386.75,455.136 z" fill="#2C2B2B"/>
    <path d="M411.236,425.847 L416.047,430.652 L387.024,459.714 L382.213,454.91 L411.236,425.847 z" fill="#2C2B2B"/>
    <path d="M423.627,517.89 L428.331,522.799 L396.239,553.553 L391.535,548.644 L423.627,517.89 z" fill="#2C2B2B"/>
    <path d="M389.409,485.181 L428.155,517.449 L423.804,522.673 L385.059,490.405 L389.409,485.181 z" fill="#2C2B2B"/>
    <path d="M414.546,454.939 L419.412,459.687 L389.667,490.167 L384.801,485.419 L414.546,454.939 z" fill="#2C2B2B"/>
    <path d="M386.865,425.697 L419.224,454.171 L414.733,459.276 L382.373,430.802 L386.865,425.697 z" fill="#2C2B2B"/>
    <path d="M359.419,381.791 L385.304,402.636 L381.04,407.932 L355.155,387.086 L359.419,381.791 z" fill="#2C2B2B"/>
    <path d="M404.437,381.894 L408.947,386.982 L385.427,407.828 L380.917,402.74 L404.437,381.894 z" fill="#2C2B2B"/>
    <path d="M360.963,331.112 L409.146,381.388 L404.238,386.092 L356.055,335.816 L360.963,331.112 z" fill="#2C2B2B"/>
    <path d="M401.285,285.753 L406.1,290.553 L360.916,335.864 L356.102,331.063 L401.285,285.753 z" fill="#2C2B2B"/>
    <path d="M362.691,244.775 L406.026,285.681 L401.359,290.625 L358.024,249.719 L362.691,244.775 z" fill="#2C2B2B"/>
    <path d="M398.022,203.351 L402.912,208.074 L362.802,249.609 L357.912,244.886 L398.022,203.351 z" fill="#2C2B2B"/>
    <path d="M385.592,185.795 L402.887,203.325 L398.047,208.1 L380.752,190.57 L385.592,185.795 z" fill="#2C2B2B"/>
    <path d="M381.091,185.495 L385.253,190.871 L363.025,208.084 L358.863,202.708 L381.091,185.495 z" fill="#2C2B2B"/>
    <path d="M363.364,203.009 L404.633,244.861 L399.792,249.634 L358.523,207.783 L363.364,203.009 z" fill="#2C2B2B"/>
    <path d="M399.882,244.773 L404.544,249.722 L361.518,290.256 L356.856,285.308 L399.882,244.773 z" fill="#2C2B2B"/>
    <path d="M361.589,285.377 L407.33,331.059 L402.525,335.869 L356.785,290.187 L361.589,285.377 z" fill="#2C2B2B"/>
    <path d="M402.443,331.143 L407.411,335.785 L359.771,386.76 L354.804,382.117 L402.443,331.143 z" fill="#2C2B2B"/>
    <path d="M407.786,381.039 L407.786,387.838 L356.553,387.838 L356.553,381.039 L407.786,381.039 z" fill="#2C2B2B"/>
    <path d="M405.606,330.064 L405.606,336.863 L358.509,336.863 L358.509,330.064 L405.606,330.064 z" fill="#2C2B2B"/>
    <path d="M358.537,284.383 L403.72,284.754 L403.665,291.552 L358.481,291.181 L358.537,284.383 z" fill="#2C2B2B"/>
    <path d="M360.357,243.848 L402.213,243.848 L402.213,250.647 L360.357,250.647 L360.357,243.848 z" fill="#2C2B2B"/>
    <path d="M360.384,201.996 L400.494,202.313 L400.44,209.112 L360.33,208.795 L360.384,201.996 z" fill="#2C2B2B"/>
    <path d="M417.666,453.913 L417.666,460.712 L352.909,460.712 L352.909,453.913 L417.666,453.913 z" fill="#2C2B2B"/>
    <path d="M348.487,484.394 L421.523,484.394 L421.523,491.193 L348.487,491.193 L348.487,484.394 z" fill="#2C2B2B"/>
    <path d="M343.583,516.945 L425.639,517.034 L425.632,523.833 L343.576,523.744 L343.583,516.945 z" fill="#2C2B2B"/>
    <path d="M339.548,547.699 L430.195,547.699 L430.195,554.498 L339.547,554.498 L339.548,547.699 z" fill="#2C2B2B"/>
    <path d="M434.234,575.834 L434.234,582.633 L335.248,582.633 L335.248,575.835 L434.234,575.834 z" fill="#2C2B2B"/>
    <path d="M287.715,754.338 L344.385,768.165 L342.774,774.77 L286.103,760.943 L287.715,754.338 z" fill="#2C2B2B"/>
    <path d="M306.449,704.07 L353.558,713.233 L352.26,719.906 L305.151,710.744 L306.449,704.07 z" fill="#2C2B2B"/>
    <path d="M464.541,709.487 L465.009,716.269 L411.53,719.961 L411.062,713.178 L464.541,709.487 z" fill="#2C2B2B"/>
    <path d="M481.017,754.776 L482.626,761.381 L425.43,775.309 L423.821,768.703 L481.017,754.776 z" fill="#2C2B2B"/>
    <path d="M244.741,859.319 L526.984,860.025 L526.967,866.824 L244.724,866.117 L244.741,859.319 z" fill="#2C2B2B"/>
    <path d="M209.084,914.572 L262.576,923.556 L261.45,930.261 L207.958,921.277 L209.084,914.572 z" fill="#2C2B2B"/>
    <path d="M180.746,957.038 L231.62,968.247 L230.157,974.886 L179.283,963.677 L180.746,957.038 z" fill="#2C2B2B"/>
    <path d="M589.116,956.625 L590.417,963.298 L533.988,974.302 L532.686,967.629 L589.116,956.625 z" fill="#2C2B2B"/>
    <path d="M560.496,913.416 L561.773,920.094 L506.235,930.719 L504.957,924.041 L560.496,913.416 z" fill="#2C2B2B"/>
    <path d="M479.834,862.026 L508.694,925.982 L502.497,928.778 L473.637,864.823 L479.834,862.026 z" fill="#2C2B2B"/>
    <path d="M289.305,861.265 L295.451,864.172 L265.086,928.362 L258.94,925.455 L289.305,861.265 z" fill="#2C2B2B"/>
    <path d="M534.191,872.101 L534.671,878.883 L484.423,882.442 L483.942,875.66 L534.191,872.101 z" fill="#2C2B2B"/>
    <path d="M239.737,867.938 L286.62,872.106 L286.018,878.878 L239.135,874.71 L239.737,867.938 z" fill="#2C2B2B"/>
    <path d="M289.568,755.523 L313.773,785.914 L308.455,790.15 L284.25,759.759 L289.568,755.523 z" fill="#2C2B2B"/>
    <path d="M342.77,768.166 L344.389,774.769 L276.842,791.333 L275.223,784.73 L342.77,768.166 z" fill="#2C2B2B"/>
    <path d="M425.763,768.803 L470.887,784.828 L468.612,791.235 L423.488,775.21 L425.763,768.803 z" fill="#2C2B2B"/>
    <path d="M478.668,756.808 L484.974,759.349 L472.903,789.302 L466.596,786.761 L478.668,756.808 z" fill="#2C2B2B"/>
    <path d="M387.189,405.282 L387.221,455.807 L380.423,455.811 L380.39,405.286 L387.189,405.282 z" fill="#2C2B2B"/>
    <path d="M390.84,869.002 C424.805,868.957 458.058,875.697 489.781,887.559 L487.284,893.883 C442.337,876.131 393.796,872.293 345.438,878.686 C328.275,880.956 312.281,884.401 298.402,888.436 C293.292,889.922 288.785,891.403 285.296,892.699 C283.901,893.218 282.753,893.677 281.97,894.024 C284.658,892.834 282.786,893.852 282.786,891.568 L275.988,891.568 C275.988,889.134 274.976,889.685 279.218,887.807 C280.141,887.399 281.412,886.89 282.927,886.327 C286.575,884.971 291.239,883.438 296.504,881.907 C310.702,877.779 327.032,874.262 344.547,871.946 C355.532,870.641 359.549,870.036 372.349,869.399 C378.507,869.093 384.677,869.135 390.84,869.002 z" fill="#2C2B2B"/>
  </g>
</svg>
