<?xml version="1.0" encoding="UTF-8"?>
<!DOCTYPE svg PUBLIC "-//W3C//DTD SVG 1.1//EN" "http://www.w3.org/Graphics/SVG/1.1/DTD/svg11.dtd">
<svg version="1.1" xmlns="http://www.w3.org/2000/svg" xmlns:xlink="http://www.w3.org/1999/xlink" x="0" y="0" width="757.978" height="861.985" viewBox="0, 0, 757.978, 861.985">
  <g id="jesus" transform="translate(-5.011, -164.015)">
    <g>
      <path d="M393.002,166.996 C368.95,168.112 368.94,175.514 363.375,183.244 C349.691,202.248 361.144,230.039 351.96,248.408 C348.722,254.883 353.481,267.522 348.785,272.217 C335.638,285.365 305.2,268.431 290.054,272.217 C285.539,273.346 284.852,275.833 282.118,278.567 C280.454,280.23 263.184,284.094 259.895,284.916 C246.948,288.153 231.573,281.679 218.625,284.916 C201.343,289.236 154.629,300.267 137.672,296.027 C111.625,281.182 104.437,290.496 101.163,289.678 C99.088,289.159 87.355,277.892 77.353,275.392 C68.163,273.094 52.81,274.782 44.02,276.979 C29.563,280.593 49.5,286.503 42.432,286.503 C32.502,286.503 21.113,285.258 12.273,289.678 C10.777,290.426 11.869,293.257 10.686,294.44 C9.849,295.276 7.511,294.844 7.511,296.027 C7.511,298.839 13.189,296.943 13.861,297.615 C14.609,298.363 13.112,300.041 13.861,300.789 C20.237,307.165 70.831,313.488 82.115,313.488 C86.613,313.488 115.814,312.266 118.624,315.075 C122.904,319.355 107.365,323.584 112.274,330.948 C116.125,336.725 152.461,377.316 156.719,380.155 C164.362,385.25 188.53,379.605 196.402,376.981 C222.333,368.337 256.096,377.943 274.181,396.028 C275.636,397.483 280.74,397.136 282.118,399.203 C282.658,400.013 282.051,491.468 280.53,496.03 C279.095,500.336 274.735,506.662 277.356,511.903 C278.066,513.323 280.995,510.78 282.118,511.903 C284.026,513.811 282.209,517.595 283.705,519.839 C285.665,522.779 290.069,524.631 291.642,527.776 C299.253,542.998 282.893,576.945 290.054,591.269 C292.332,595.824 296.504,599.609 297.991,605.555 C301.815,620.849 305.229,696.731 294.816,707.143 C293.593,708.367 293.719,720.45 293.229,721.429 C289.297,729.292 293.229,769.167 293.229,780.16 C293.229,793.082 294.856,873.694 293.229,878.574 C292.626,880.384 290.054,881.428 290.054,883.336 C290.054,886.273 311.037,881.749 312.277,881.749 C373.926,893.525 462.592,884.923 474.184,884.923 C479.008,884.923 496.758,887.393 497.993,884.923 C498.856,883.199 495.629,873.877 494.819,870.637 C489.795,850.542 488.971,784.337 485.295,776.985 C480.313,767.021 487.053,736.398 483.708,723.017 C481.354,713.601 490.137,713.333 494.819,703.969 C504.473,684.661 479.389,642.764 486.882,627.777 C489.807,621.927 505.278,612.472 499.581,589.682 C497.816,582.623 493.435,576.208 491.644,569.046 C484.545,540.649 497.257,491.495 490.057,462.696 C487.705,453.288 481.25,408.88 485.295,400.79 C486.271,398.839 489.463,402.378 491.644,402.378 C493.459,402.378 502.738,398.418 504.343,397.616 C509.681,394.947 517.734,386.728 524.978,384.917 C558.707,376.485 600.918,382.202 628.154,375.393 C658.948,367.695 645.621,328.564 672.599,315.075 C683.75,309.499 738.532,312.635 747.203,303.964 C748.199,302.968 751.425,289.948 751.965,289.678 C755.197,288.062 761.489,285.759 761.489,281.741 C761.489,275.784 733,281.741 729.742,281.741 C693.671,281.741 730.858,282.385 724.98,270.63 C724.461,269.591 712.777,275.268 712.282,275.392 C702.593,277.814 695.685,283.329 685.297,283.329 C680.191,283.329 675.093,289.376 669.424,291.265 C667.469,291.917 660.074,291.852 658.313,291.265 C652.943,289.475 663.874,286.503 658.313,286.503 C646.416,286.503 631.725,294.738 620.217,297.615 C601.309,302.342 509.974,289.895 490.057,284.916 C479.097,282.176 469.271,274.957 458.31,272.217 C451.835,270.598 440.301,271.943 434.501,269.043 C433.806,268.695 426.559,266.923 424.977,265.868 C411.189,256.676 438.875,175.757 401.922,166.519 C401.654,166.451 394.078,167.315 387.905,167.315" fill="#97978F"/>
      <path d="M393.002,166.996 C368.95,168.112 368.94,175.514 363.375,183.244 C349.691,202.248 361.144,230.039 351.96,248.408 C348.722,254.883 353.481,267.522 348.785,272.217 C335.638,285.365 305.2,268.431 290.054,272.217 C285.539,273.346 284.852,275.833 282.118,278.567 C280.454,280.23 263.184,284.094 259.895,284.916 C246.948,288.153 231.573,281.679 218.625,284.916 C201.343,289.236 154.629,300.267 137.672,296.027 C111.625,281.182 104.437,290.496 101.163,289.678 C99.088,289.159 87.355,277.892 77.353,275.392 C68.163,273.094 52.81,274.782 44.02,276.979 C29.563,280.593 49.5,286.503 42.432,286.503 C32.502,286.503 21.113,285.258 12.273,289.678 C10.777,290.426 11.869,293.257 10.686,294.44 C9.849,295.276 7.511,294.844 7.511,296.027 C7.511,298.839 13.189,296.943 13.861,297.615 C14.609,298.363 13.112,300.041 13.861,300.789 C20.237,307.165 70.831,313.488 82.115,313.488 C86.613,313.488 115.814,312.266 118.624,315.075 C122.904,319.355 107.365,323.584 112.274,330.948 C116.125,336.725 152.461,377.316 156.719,380.155 C164.362,385.25 188.53,379.605 196.402,376.981 C222.333,368.337 256.096,377.943 274.181,396.028 C275.636,397.483 280.74,397.136 282.118,399.203 C282.658,400.013 282.051,491.468 280.53,496.03 C279.095,500.336 274.735,506.662 277.356,511.903 C278.066,513.323 280.995,510.78 282.118,511.903 C284.026,513.811 282.209,517.595 283.705,519.839 C285.665,522.779 290.069,524.631 291.642,527.776 C299.253,542.998 282.893,576.945 290.054,591.269 C292.332,595.824 296.504,599.609 297.991,605.555 C301.815,620.849 305.229,696.731 294.816,707.143 C293.593,708.367 293.719,720.45 293.229,721.429 C289.297,729.292 293.229,769.167 293.229,780.16 C293.229,793.082 294.856,873.694 293.229,878.574 C292.626,880.384 290.054,881.428 290.054,883.336 C290.054,886.273 311.037,881.749 312.277,881.749 C373.926,893.525 462.592,884.923 474.184,884.923 C479.008,884.923 496.758,887.393 497.993,884.923 C498.856,883.199 495.629,873.877 494.819,870.637 C489.795,850.542 488.971,784.337 485.295,776.985 C480.313,767.021 487.053,736.398 483.708,723.017 C481.354,713.601 490.137,713.333 494.819,703.969 C504.473,684.661 479.389,642.764 486.882,627.777 C489.807,621.927 505.278,612.472 499.581,589.682 C497.816,582.623 493.435,576.208 491.644,569.046 C484.545,540.649 497.257,491.495 490.057,462.696 C487.705,453.288 481.25,408.88 485.295,400.79 C486.271,398.839 489.463,402.378 491.644,402.378 C493.459,402.378 502.738,398.418 504.343,397.616 C509.681,394.947 517.734,386.728 524.978,384.917 C558.707,376.485 600.918,382.202 628.154,375.393 C658.948,367.695 645.621,328.564 672.599,315.075 C683.75,309.499 738.532,312.635 747.203,303.964 C748.199,302.968 751.425,289.948 751.965,289.678 C755.197,288.062 761.489,285.759 761.489,281.741 C761.489,275.784 733,281.741 729.742,281.741 C693.671,281.741 730.858,282.385 724.98,270.63 C724.461,269.591 712.777,275.268 712.282,275.392 C702.593,277.814 695.685,283.329 685.297,283.329 C680.191,283.329 675.093,289.376 669.424,291.265 C667.469,291.917 660.074,291.852 658.313,291.265 C652.943,289.475 663.874,286.503 658.313,286.503 C646.416,286.503 631.725,294.738 620.217,297.615 C601.309,302.342 509.974,289.895 490.057,284.916 C479.097,282.176 469.271,274.957 458.31,272.217 C451.835,270.598 440.301,271.943 434.501,269.043 C433.806,268.695 426.559,266.923 424.977,265.868 C411.189,256.676 438.875,175.757 401.922,166.519 C401.654,166.451 394.078,167.315 387.905,167.315" fill-opacity="0" stroke="#FFFFFF" stroke-width="3" stroke-linecap="round" stroke-linejoin="round"/>
    </g>
    <path d="M363.545,219.804 C358.791,232.019 368.596,244.316 364.859,255.529 C364.187,257.545 361.181,265.293 361.181,265.774 C361.181,266.436 367.218,266.301 368.011,266.036 C374.018,264.034 381.721,266.299 387.449,266.299 C388.735,266.299 409.515,269.034 409.515,266.824 C409.515,265.47 406.887,267.084 406.625,266.299 C406.144,264.856 406.144,260.124 406.625,258.681 C409.742,249.331 410.824,227.689 415.294,223.219" fill-opacity="0" stroke="#FFFFFF" stroke-width="3" stroke-linecap="round" stroke-linejoin="round"/>
    <path d="M660.744,292.277 C665.574,311.236 607.419,362.392 631.101,374.233" fill-opacity="0" stroke="#FFFFFF" stroke-width="3" stroke-linecap="round" stroke-linejoin="round"/>
    <path d="M653.188,314.946 C659.062,317.542 666.936,314.883 673.531,313.783" fill-opacity="0" stroke="#FFFFFF" stroke-width="3" stroke-linecap="round" stroke-linejoin="round"/>
    <path d="M103.212,289.383 C108.83,298.304 114.047,313.733 122.772,322.457 C131.93,331.616 149.753,345.835 155.49,357.309 C157.435,361.198 152.879,365.245 154.068,367.623 C154.631,368.748 163.565,372.601 150.867,372.601" fill-opacity="0" stroke="#FFFFFF" stroke-width="3" stroke-linecap="round" stroke-linejoin="round"/>
    <path d="M430.598,268.362 C433.827,293.294 438.391,431.914 443.493,442.118 C447.842,450.815 441.018,465.913 444.172,475.376 C450.431,494.152 440.752,518.709 445.53,537.82 C446.986,543.645 446.37,597.709 447.566,598.906 C449.677,601.017 455.226,600.302 458.426,600.942 C460.108,601.278 461.105,605.003 463.177,605.693 C494.496,616.133 470.817,619.198 507.973,604.336" fill-opacity="0" stroke="#FFFFFF" stroke-width="3" stroke-linecap="round" stroke-linejoin="round"/>
    <path d="M492.806,285.448 C476.262,304.875 477.824,346.27 486.126,371.175 C488.94,379.617 481.828,389.656 485.569,399.009" fill-opacity="0" stroke="#FFFFFF" stroke-width="3" stroke-linecap="round" stroke-linejoin="round"/>
    <path d="M443.177,606.286 C443.548,614.147 443.737,621.921 443.737,629.838 C443.737,638.901 441.016,655.716 447.102,661.801 C458.011,672.711 487.477,674.627 487.477,694.886 C487.477,705.581 499.027,713.885 484.673,716.756" fill-opacity="0" stroke="#FFFFFF" stroke-width="3" stroke-linecap="round" stroke-linejoin="round"/>
    <path d="M444.653,662.816 C412.896,660.468 318.168,601.992 295.668,601.992" fill-opacity="0" stroke="#FFFFFF" stroke-width="3" stroke-linecap="round" stroke-linejoin="round"/>
    <path d="M426.201,632.746 C419.062,623.16 413.6,612.027 409.799,600.625 C409.507,599.749 394.776,583.552 392.03,580.806 C388.934,577.71 389.711,569.333 387.929,565.771 C386.144,562.2 380.388,560.94 379.045,558.253 C372.111,544.384 365.673,530.735 361.96,515.881 C360.086,508.388 352.851,503.132 348.975,495.379 C339.434,476.297 341.241,454.841 327.105,440.705" fill-opacity="0" stroke="#FFFFFF" stroke-width="3" stroke-linecap="round" stroke-linejoin="round"/>
    <path d="M324.187,353.071 C333.14,389.377 319.463,487.806 328.017,517.745" fill-opacity="0" stroke="#FFFFFF" stroke-width="3" stroke-linecap="round" stroke-linejoin="round"/>
    <path d="M328.023,516.476 C328.948,533.503 305.087,530.254 299.06,542.309 C295.545,549.339 294.175,558.341 290.841,565.01" fill-opacity="0" stroke="#FFFFFF" stroke-width="3" stroke-linecap="round" stroke-linejoin="round"/>
    <path d="M291.623,527.044 C285.437,495.815 329.903,505.28 323.327,518.433 C321.863,521.36 300.458,532.815 295.929,536.438" fill-opacity="0" stroke="#FFFFFF" stroke-width="3" stroke-linecap="round" stroke-linejoin="round"/>
    <path d="M299.296,431.306 C300.055,460.901 291.772,492.013 287.234,519.235" fill-opacity="0" stroke="#FFFFFF" stroke-width="3" stroke-linecap="round" stroke-linejoin="round"/>
    <path d="M349.607,271.045 C356.178,278.139 356.534,292.307 363.206,298.979 C365.318,301.091 399.523,301.771 402.902,300.082 C414.963,294.051 411.13,270.678 425.69,270.678 C428.524,270.678 428.249,270.578 428.631,273.251" fill-opacity="0" stroke="#FFFFFF" stroke-width="3" stroke-linecap="round" stroke-linejoin="round"/>
    <path d="M431.571,293.466 C404.776,307.629 376.05,330.946 343.726,314.784 C335.218,310.53 323.938,304.725 313.587,302.655 C298.812,299.7 274.493,297.251 264.703,285.012" fill-opacity="0" stroke="#FFFFFF" stroke-width="3" stroke-linecap="round" stroke-linejoin="round"/>
    <path d="M434.971,344.432 C391.619,349.03 346.477,363.588 305.358,343.029 C302.089,341.394 296.156,343.808 292.725,342.093 C280.338,335.899 264.336,328.209 254.823,318.697" fill-opacity="0" stroke="#FFFFFF" stroke-width="3" stroke-linecap="round" stroke-linejoin="round"/>
    <path d="M135.037,308.871 C142.197,315.213 151.497,318.759 158.9,324.312 C169.148,331.998 175.488,340.007 186.508,346.304 C211.155,360.388 252.839,361.084 280.091,370.168" fill-opacity="0" stroke="#FFFFFF" stroke-width="3" stroke-linecap="round" stroke-linejoin="round"/>
    <path d="M282.43,337.882 C286.254,358.268 281.963,378.443 281.963,398.243" fill-opacity="0" stroke="#FFFFFF" stroke-width="3" stroke-linecap="round" stroke-linejoin="round"/>
    <path d="M338.909,353.448 C357.059,382.613 414.781,377.168 434.284,391.795" fill-opacity="0" stroke="#FFFFFF" stroke-width="3" stroke-linecap="round" stroke-linejoin="round"/>
    <path d="M331.663,394.036 C341.076,427.809 357.888,456.951 378.268,482.425 C384.537,490.262 398.274,494.582 402.91,503.853 C406.901,511.835 419.469,526.329 427.016,530.102" fill-opacity="0" stroke="#FFFFFF" stroke-width="3" stroke-linecap="round" stroke-linejoin="round"/>
    <path d="M463.435,682.896 C473.504,837.375 467.89,858.273 472.833,868.159" fill-opacity="0" stroke="#FFFFFF" stroke-width="3" stroke-linecap="round" stroke-linejoin="round"/>
    <path d="M444.64,678.197 C456.839,857.497 447.801,870.975 454.038,866.817" fill-opacity="0" stroke="#FFFFFF" stroke-width="3" stroke-linecap="round" stroke-linejoin="round"/>
    <path d="M428.531,665.443 C432.981,715.233 430.91,766.431 435.914,816.474 C437.542,832.754 434.07,850.212 437.257,866.146" fill-opacity="0" stroke="#FFFFFF" stroke-width="3" stroke-linecap="round" stroke-linejoin="round"/>
    <path d="M412.421,665.443 C423.455,859.516 419.077,863.014 417.791,868.16" fill-opacity="0" stroke="#FFFFFF" stroke-width="3" stroke-linecap="round" stroke-linejoin="round"/>
    <path d="M395.639,656.046 C405.037,858.928 399.056,868.585 403.694,875.543" fill-opacity="0" stroke="#FFFFFF" stroke-width="3" stroke-linecap="round" stroke-linejoin="round"/>
    <path d="M372.639,648.269 C367.255,725.132 372.639,802.432 372.639,878.505" fill-opacity="0" stroke="#FFFFFF" stroke-width="3" stroke-linecap="round" stroke-linejoin="round"/>
    <path d="M354.011,635.602 C347.611,843.908 359.46,857.84 348.796,865.839" fill-opacity="0" stroke="#FFFFFF" stroke-width="3" stroke-linecap="round" stroke-linejoin="round"/>
    <path d="M334.671,625.267 C336.941,649.374 332.435,671.94 332.435,696.052 C336.161,853.743 325.921,872.619 327.22,867.426" fill-opacity="0" stroke="#FFFFFF" stroke-width="3" stroke-linecap="round" stroke-linejoin="round"/>
    <path d="M313.031,613.994 C317.698,806.272 305.58,845.333 305.58,874.035" fill-opacity="0" stroke="#FFFFFF" stroke-width="3" stroke-linecap="round" stroke-linejoin="round"/>
    <g>
      <path d="M537.911,917.595 C543.02,917.595 535.071,920.2 555.588,921.586 C554.805,920.804 556.915,924.3 562.43,1023.669 C560.007,1026.092 564.44,1020.44 510.542,1023.669 C493.052,1023.669 507.973,1023.669 270.489,1023.669 C263.646,1023.669 224.586,1026.052 221.28,1022.746 C219.01,1020.476 215.958,1000.146 228.862,922.727 C229.432,919.306 256.666,922.841 275.028,921.571 C289.996,920.535 323.992,923.123 503.817,917.43 C508.243,917.289 518.828,916.912 536.771,917.025 C547.11,917.09 534.009,925.205 537.341,896.497 C534.838,893.994 538.147,899.126 492.806,884.523 C483.368,887.22 468.448,884.228 290.841,886.804 C274.084,886.804 262.401,894.403 244.347,895.88 C243.533,905.5 236.388,917.128 229.356,922.402" fill="#374F60"/>
      <path d="M537.911,917.595 C543.02,917.595 535.071,920.2 555.588,921.586 C554.805,920.804 556.915,924.3 562.43,1023.669 C560.007,1026.092 564.44,1020.44 510.542,1023.669 C493.052,1023.669 507.973,1023.669 270.489,1023.669 C263.646,1023.669 224.586,1026.052 221.28,1022.746 C219.01,1020.476 215.958,1000.146 228.862,922.727 C229.432,919.306 256.666,922.841 275.028,921.571 C289.996,920.535 323.992,923.123 503.817,917.43 C508.243,917.289 518.828,916.912 536.771,917.025 C547.11,917.09 534.009,925.205 537.341,896.497 C534.838,893.994 538.147,899.126 492.806,884.523 C483.368,887.22 468.448,884.228 290.841,886.804 C274.084,886.804 262.401,894.403 244.347,895.88 C243.533,905.5 236.388,917.128 229.356,922.402" fill-opacity="0" stroke="#FFFFFF" stroke-width="3" stroke-linecap="round" stroke-linejoin="round"/>
    </g>
  </g>
</svg>
