<svg width="1440" height="893" viewBox="0 0 1440 893" fill="none" xmlns="http://www.w3.org/2000/svg">
<rect x="1.2041" y="0.178711" width="1438.8" height="888.368" fill="#F1F7FF" fill-opacity="0.5"/>
<path d="M1007.3 464.707C979.374 472.227 950.281 479.223 931.297 495.077C919.309 505.088 904.272 534.461 915.117 547.141C925.509 559.291 953.751 570.739 973.749 576.644C1000.34 584.495 1024.61 589.574 1053.9 593.034C1066.85 594.563 1081.24 593.38 1092.79 590.045C1096.78 588.894 1103.29 586.189 1107.49 586.189C1114.53 586.189 1114.92 582.177 1119.51 580.597C1137.03 574.572 1112.08 547.117 1106.75 539.331C1102.25 532.765 1105.78 523.843 1098.73 518.12C1093.91 514.207 1088.08 504.926 1082.11 502.501C1075.59 499.855 1066.49 486.581 1066.08 482.061C1065.39 474.43 1058.93 470.364 1050.64 466.056C1044.4 462.814 1027.53 459.5 1019.32 459.5C1008.75 459.5 1011.67 446.501 1003.29 442.146C998.697 439.76 998.799 435.265 992.452 433.083C987.745 431.464 983.883 429.069 979.242 427.394C967.737 423.243 954.61 420.446 944.508 415.342C926.964 406.479 910.909 395.871 888.547 391.721C880.229 390.177 868.36 380.378 868.36 375.33C868.36 366.804 851.855 367.521 840.157 367.521C827.266 367.521 820.64 359.146 814.329 354.023C804.148 345.756 826.355 338.499 833.032 334.161C842.463 328.036 841.748 319.276 849.063 313.336C852.551 310.505 850.049 305.044 859.009 305.044C865.247 305.044 870.279 303.515 873.11 299.838C880.09 290.77 880.041 285.954 897.75 285.954C909.534 285.954 922.203 284.219 935.156 284.219C951.016 284.219 954.239 285.992 961.281 294.632C966.104 300.549 971.96 308.416 972.562 315.457C972.768 317.865 974.448 325.5 969.89 325.87C962.207 326.494 966.664 331.841 971.374 332.715C986.865 335.59 983.249 343.191 983.249 352.769C983.249 371.17 959.798 382.831 939.164 393.553C931.581 397.493 923.075 401.566 915.117 405.701C907.557 409.629 901.161 418.511 893.594 421.32C883.376 425.113 879.378 437.115 869.696 442.146C864.935 444.62 852.329 456.084 852.329 460.368C852.329 468.707 851.575 477.21 852.329 485.532C852.653 489.111 865.884 505.322 852.329 506.358C845.811 506.856 842.329 509.124 837.634 511.564C834.981 512.942 834.836 521.819 838.97 521.977C848.91 522.356 856.126 534.033 859.751 539.331C865.601 547.882 863.637 552.142 879.641 556.3C889.067 558.749 900.571 566.815 908.438 567.099C920.673 567.54 939.253 568.358 948.515 574.04C958.36 580.08 968.758 584.682 978.499 591.009C982.424 593.559 996.608 607.528 996.608 611.353C996.608 616.248 998.467 619.771 991.265 622.248C987.565 623.52 980.097 626.928 977.906 628.707C971.019 634.299 960.407 637.663 952.672 642.687C942.124 649.538 932.18 648.775 920.461 653.004C916.284 654.511 903.588 660.692 900.422 660.813C896.895 660.948 881.672 659.55 879.196 658.21C869.135 652.764 858.37 648.862 845.649 647.026C828.707 644.581 821.069 642.244 808.244 633.914C795.84 625.857 786.756 616.111 773.361 608.653C753.365 597.52 722.778 582.038 693.354 586.285C689.125 586.896 680.724 591.116 675.987 592.745C668.462 595.333 660.905 597.945 653.425 601.036C641.262 606.064 627.892 611.175 615.722 615.691C595.833 623.074 576.506 642.952 593.16 656.475C599.594 661.698 607.685 664.797 614.535 670.358C617.889 673.082 622.313 675.254 625.816 677.782C626.79 678.486 635.75 684.312 635.761 684.338C639.033 691.776 654.951 692.038 663.222 696.872C667.397 699.313 675.254 702.831 679.995 704.2C687.26 706.297 687.634 711.8 694.69 714.227C708.074 718.829 714.256 726.967 724.081 733.703C730.777 738.294 746.886 748.079 748.127 754.528C748.744 757.734 757.557 761.041 760.15 764.073C763.644 768.158 761.787 771.307 767.424 774.968C775.462 780.189 787.203 781.015 792.955 786.152C797.447 790.164 792.448 799.92 785.681 801.386C778.249 802.995 772.143 803.121 764.158 803.121C749.018 803.121 733.877 803.121 718.737 803.121C711.145 803.121 704.003 801.639 697.362 801.386C693.107 801.223 688.36 801.14 684.151 801.482C677.728 802.003 676.711 806.592 669.456 806.592C655.206 806.592 640.957 806.592 626.707 806.592C613.67 806.592 599.082 806.605 586.481 808.424C581.045 809.208 572.657 810.998 568.52 813.148C565.691 814.618 561.525 818.74 557.09 818.74C543.529 818.74 540.88 830.235 525.177 827.321C523.023 826.921 519.579 819.939 515.677 818.354C510.341 816.188 505.851 813.534 498.31 813.534C492.716 813.534 465.382 811.746 462.24 809.195C451.519 800.491 476.794 797.793 484.951 793.672C493.996 789.102 500.918 785.643 505.583 778.825C507.702 775.728 513.005 768.96 513.005 765.809C513.005 760.295 520.268 757.19 521.02 752.793C522.285 745.398 536.795 739.304 547.739 738.909C560.484 738.449 578.578 733.103 590.488 729.846C597.381 727.961 608.685 723.29 615.871 723.29C617.828 723.29 621.606 720.678 621.363 721.94C620.96 724.033 614.377 725.649 611.863 726.375C601.36 729.407 585.412 731.572 574.457 731.967C561.19 732.446 551.078 737.174 537.052 737.174C521.968 737.174 533.753 723.263 534.38 716.348C534.755 712.204 552.232 697.258 557.09 697.258C570.45 697.258 583.809 697.258 597.168 697.258C607.308 697.258 627.894 693.605 627.894 685.978C627.894 677.084 620.299 673.412 608.004 671.13C603.798 670.349 600.945 664.48 595.832 664.284C588.269 663.995 582.783 664.914 575.793 665.923C569.686 666.805 561.812 669.184 555.754 670.84C550.718 672.218 545.921 671.325 541.208 673.829C537.391 675.858 532.679 679.088 527.7 679.807C504.722 683.124 463.982 672.525 446.357 685.881C441.88 689.274 433.341 689.241 428.842 693.787C424.574 698.099 420.971 698.996 416.225 702.079C409.077 706.722 415.462 719.709 421.569 723.676C427.558 727.566 437.204 738.652 438.193 744.115C440.224 755.326 454.85 763.686 461.646 773.618C466.436 780.618 471.774 793.497 470.255 801.386C469.629 804.642 459.909 793.58 458.232 792.708C452.581 789.772 453.642 784.827 446.209 782.681C422.98 775.975 398.225 777.089 371.397 777.089C363.464 777.089 360.535 778.135 357.444 773.618C355.242 770.4 350.971 767.281 349.874 764.073C346.943 755.505 339.335 748.54 339.335 739.777C339.335 730.03 338.123 720.94 354.03 716.348C359.565 714.75 390.1 710.145 390.1 708.538C390.1 700.083 369.43 698.993 359.374 698.993C343.328 698.993 326.765 689.394 311.429 686.074C300.19 683.64 290.038 683.663 278.477 683.374C273.086 683.24 259.955 682.497 255.172 680.771C246.44 677.62 221.024 672.205 216.43 666.984C213.353 663.486 202.875 662.875 197.728 661.681C188.466 659.533 189.02 656.459 181.696 653.486C176.483 651.369 171.361 635.43 171.009 631.311C170.143 621.183 161.74 611.618 179.025 606.628C189.871 603.497 207.102 604.793 215.837 599.687C221.274 596.508 220.216 592.769 221.923 588.888C222.831 586.823 237.479 587.924 240.477 587.924C251.731 587.924 274.62 589.423 283.226 584.453C292.517 579.089 308.488 579.247 320.632 579.247C330.386 579.247 354.184 576.435 361.304 580.597C371.501 586.558 378.554 588.851 379.413 598.337C379.93 604.047 384.757 594.72 384.757 592.263C384.757 589.216 382.532 581.316 387.428 579.632C396.586 576.483 411.788 574.04 422.162 574.04C435.38 574.04 451.553 567.44 451.553 580.982C451.553 588.215 445.959 584.656 440.865 588.792C437.653 591.4 435.522 596.541 435.522 600.072C435.522 614.581 428.673 629.053 427.506 643.459C427.145 647.91 426.657 651.03 424.983 654.836C423.883 657.335 423.917 663.727 421.569 665.634C409.195 675.68 432.667 679.99 441.459 683.374C456.872 689.307 478.222 688.581 495.638 688.581C512.261 688.581 518.475 674.549 525.028 666.887C541.884 647.18 526.496 625.491 506.622 609.714C496.552 601.719 482.757 594.501 471.443 587.153C465.868 583.532 464.42 581.207 464.912 575.776C465.206 572.522 480.792 574.04 484.951 574.04C496.429 574.04 517.647 576.8 527.7 573.173C539.979 568.742 539.23 560.915 534.38 552.251C529.998 544.425 529.036 531.758 529.036 523.712C529.036 514.534 534.38 508.017 534.38 499.416C534.38 491.484 535.742 483.064 534.231 475.216C533.242 470.074 529.036 466.753 529.036 461.236C529.036 447.718 530.151 437.292 545.067 426.526C558.18 417.062 573.201 413.291 593.16 412.643C604.788 412.265 628.634 411.639 637.988 416.499C650.626 423.067 653.027 427.68 659.363 436.939C660.939 439.243 661.459 446.05 663.964 447.352C666.642 448.744 670.45 453.767 670.644 456.029C671.767 469.164 685.794 505.424 655.949 509.732C640.721 511.93 624.911 515.171 610.676 519.373C605.809 520.81 595.675 521.79 590.488 521.977C583.461 522.23 574.604 525.606 567.926 527.183C556.565 529.866 542.395 537.732 542.395 545.405C542.395 556.323 542.861 558.917 554.27 566.327C564.158 572.75 566.469 582.718 583.809 582.718C594.025 582.718 615.842 590.318 625.074 585.321C635.948 579.435 651.41 582.658 662.628 575.776C674.858 568.274 673.315 562.047 673.315 551.479C673.315 547.331 675.987 543.639 675.987 540.199C675.987 534.375 681.843 535.86 689.347 535.86C705.596 535.86 714.881 534.509 726.752 527.183C732.798 523.452 748.071 521.67 750.651 515.806C751.932 512.892 755.809 510.582 759.408 508.479C772.864 500.612 782.686 494.5 787.611 482.061C793.135 468.108 798.678 456.528 808.986 443.881C815.157 436.31 828.282 433.094 828.282 423.056C828.282 416.911 831.43 402.23 816.259 402.23C805.998 402.23 803.449 389.856 792.361 391.914C779.664 394.27 761.945 393.196 750.799 399.53C745.486 402.55 732.29 403.672 725.268 406.087C719.887 407.937 710.326 410.907 704.042 410.907C691.456 410.907 680.972 416.114 669.308 416.114C653.873 416.114 651.557 407.863 637.246 405.797C622.518 403.672 619.785 383.685 639.917 390.95C650.055 394.608 665.542 393.553 677.323 393.553C704.701 393.553 729.409 388.346 756.143 388.346C760.25 388.346 772.175 389.646 774.846 387.479C778.314 384.663 780.909 380.154 785.533 378.319C799.524 372.766 801.564 365.049 801.564 355.373C801.564 347.871 801.524 337.205 795.627 331.076C791.83 327.131 754.868 327.605 748.127 327.605C729.865 327.605 714.779 322.399 697.362 322.399C685.786 322.399 656.367 318.77 654.613 308.515C653.479 301.891 649.655 295.429 649.269 288.654C648.898 282.156 648.417 271.281 639.917 266.864C624.212 258.703 659.34 256.884 663.816 256.355C695.938 252.562 729.729 251.245 762.971 251.245C780.412 251.245 797.097 251.429 813.587 253.077C833.669 255.084 853.383 259.495 872.516 261.754C881.496 262.815 887.45 266.864 897.157 266.864C904.925 266.864 912.693 266.864 920.461 266.864C939.489 266.864 959.82 268.457 977.906 264.261C994.817 260.338 1012.64 257.007 1012.64 243.436C1012.64 236.556 1020.12 225.804 1031.94 225.213C1034.53 225.084 1048.79 221.897 1050.05 220.875C1050.48 220.523 1065.78 233.974 1070.23 235.626C1082.18 240.062 1085.87 251.638 1096.8 255.584C1105.39 258.684 1105.63 262.513 1106.15 268.6C1106.42 271.665 1109.32 273.817 1108.68 277.181C1108.06 280.382 1103.48 281.745 1103.48 285.087C1103.48 292.026 1079.46 295.679 1072.76 299.067C1062.54 304.225 1043.52 310.787 1030.01 305.912C1012.24 299.502 1016.69 283.574 1003.14 274.77C990.54 266.586 998.245 269.824 1006.7 275.927C1013.57 280.881 1019.36 285.443 1025.85 291.064C1034.81 298.827 1036.3 307.627 1042.03 316.228C1049.78 327.863 1045.82 341.918 1028.67 348.045C1016.98 352.221 1005.16 354.669 994.085 359.615C989.312 361.746 966.846 371.253 984.734 365.785C997.217 361.97 1009.48 360.579 1023.33 360.579C1037.39 360.579 1044.2 359.895 1054.05 367.424C1060.41 372.285 1069.12 377.209 1076.17 381.79C1082.59 385.957 1102.98 395.434 1090.12 399.145C1078.86 402.395 1056.46 399.076 1055.39 410.907C1054.5 420.718 1046.47 429.092 1031.34 432.601C1011.64 437.172 1004.62 435.573 1004.62 449.955C1004.62 455.887 1002.67 458.658 1012.05 460.85C1018.84 462.438 1020.31 464.689 1024.66 468.081C1029.1 471.542 1035.4 472.722 1038.76 476.855C1041.33 479.997 1049.24 484.141 1054.05 485.532C1072.97 490.992 1095.94 492.474 1116.99 492.474C1120.64 492.474 1126.81 493.254 1130.2 492.088C1134.56 490.59 1130.89 487.59 1133.47 485.918C1136.83 483.736 1150.13 484.783 1151.43 481.001C1155.86 468.055 1159.28 445.49 1144.75 434.336C1136.3 427.854 1124.2 422.704 1113.58 417.849C1106.88 414.79 1094.22 409.581 1090.12 404.93C1080.64 394.151 1104.66 395.288 1116.84 395.288C1132.93 395.288 1150.21 396.083 1165.53 399.145C1175.28 401.094 1184.6 399.868 1194.62 400.591C1207.65 401.531 1217.98 403.965 1231.73 403.965C1251.71 403.965 1283.21 399.937 1301.2 406.087C1323.42 413.685 1338.1 429.285 1351.96 442.531C1359.22 449.466 1366.41 453.259 1372 461.332C1375.72 466.695 1381.09 476.136 1381.35 482.061C1381.6 487.46 1383.4 493.29 1375.86 496.716C1367.62 500.464 1355.79 500.973 1347.21 504.622C1332.63 510.83 1322.23 517.647 1305.21 521.013C1292.11 523.6 1274.68 522.203 1261.12 521.977C1231.31 521.48 1205.75 507.977 1179.48 501.151C1168.09 498.192 1122.19 477.235 1122.19 495.173C1122.19 503.408 1129.53 507.234 1132.28 515.035C1135.3 523.628 1132.87 534.005 1132.87 542.802C1132.87 550.215 1119.96 551.817 1111.5 554.565C1102.3 557.552 1103.48 563.856 1103.48 569.702C1103.48 580.517 1108.83 577.919 1108.83 568.834C1108.83 565.311 1106.08 555.194 1110.31 552.444C1115.62 548.992 1136.3 549.387 1143.56 548.394C1158.02 546.417 1173.5 547.616 1187.79 545.405C1208.48 542.206 1244.83 541.803 1262.46 550.708C1279.98 559.559 1283.14 583.764 1269.14 593.998C1255.5 603.964 1258.45 616.784 1258.45 629.575C1258.45 637.895 1241.61 643.25 1231.43 647.026C1223.21 650.078 1206.27 658.832 1196.4 659.078C1185.98 659.338 1172.87 660.411 1163.45 657.15C1151.4 652.974 1142.41 643.563 1130.79 638.252C1094.96 621.875 1050.26 622.633 1007.3 622.633C967.918 622.633 935.156 650.952 935.156 675.083C935.156 694.655 950.194 703.491 979.093 708.056C994.842 710.545 1030.71 712.211 1036.09 698.993C1041.16 686.569 1007.75 674.697 1038.02 674.697C1046.18 674.697 1094.25 678.484 1095.32 675.372C1099.92 661.92 1076.67 660.597 1064.59 653.872C1056.46 649.346 1052.77 642.373 1050.05 635.746C1046.06 626.03 1052.1 626.642 1060.14 633.432C1069.74 641.54 1073.88 652.626 1084.78 660.717C1091.48 665.692 1100.52 674.377 1108.83 677.782C1117.95 681.524 1128.01 684.081 1137.03 687.809C1155.43 695.413 1183.52 693.787 1205.01 693.787C1245.44 693.787 1357.31 670.398 1357.31 716.252C1357.31 721.067 1359.56 731.087 1348.7 731.871C1316.43 734.199 1284.36 737.56 1251.62 737.174C1236.92 737 1221.94 733.279 1215.7 724.158C1213.09 720.338 1209.39 713.342 1202.93 718.469C1196.72 723.401 1195.25 730.28 1184.97 732.739C1165.56 737.383 1138.71 735.438 1118.33 735.438C1109.27 735.438 1084.57 732.268 1079.44 739.777C1074.96 746.312 1068.01 751.813 1060.73 757.035C1052.33 763.068 1039.82 773.355 1026.74 775.354C1020.58 776.295 984.247 780.582 983.249 785.766C982.418 790.084 977.906 793.532 977.906 798.686C977.906 803.057 977.906 807.428 977.906 811.798C977.906 822.108 993.297 832.097 1001.66 840.241C1011.7 850.029 1026.47 857.845 1034.01 868.683C1041.15 878.929 1056.32 881.217 1072.01 881.217C1094.68 881.217 1113.54 875.849 1130.2 865.597C1147.12 855.185 1162.4 838.282 1186.9 834.745C1216.71 830.442 1249.99 828.454 1250.43 803.892C1250.5 800.167 1254.16 769.474 1248.95 768.508C1244.97 767.77 1234.58 781.243 1231.73 783.645C1224.04 790.14 1208.43 795.049 1198.04 799.746C1170.67 812.112 1144.2 813.695 1112.69 816.619C1093.59 818.391 1124.2 817.005 1130.2 817.005C1149.18 817.005 1162.62 811.919 1179.48 806.592C1214.46 795.538 1235.93 777.926 1220.45 752.407C1215.79 744.729 1179.9 719.468 1167.61 735.438" stroke="#F8F9FE" stroke-width="7" stroke-linecap="round" stroke-linejoin="round"/>
<path d="M1042.22 440.122C1014.3 447.642 985.207 454.639 966.223 470.493C954.235 480.504 939.198 509.877 950.043 522.557C960.435 534.707 988.677 546.155 1008.68 552.06C1035.27 559.911 1059.53 564.99 1088.83 568.45C1101.78 569.979 1116.17 568.796 1127.72 565.461C1131.71 564.31 1138.21 561.605 1142.42 561.605C1149.46 561.605 1149.84 557.593 1154.44 556.013C1171.96 549.988 1147 522.533 1141.67 514.747C1137.18 508.181 1140.71 499.259 1133.66 493.536C1128.84 489.623 1123.01 480.342 1117.03 477.917C1110.52 475.271 1101.41 461.997 1101 457.477C1100.31 449.846 1093.85 445.78 1085.56 441.472C1079.33 438.23 1062.46 434.916 1054.24 434.916C1043.68 434.916 1046.59 421.917 1038.21 417.562C1033.62 415.176 1033.72 410.681 1027.38 408.499C1022.67 406.88 1018.81 404.485 1014.17 402.81C1002.66 398.659 989.535 395.862 979.433 390.758C961.89 381.895 945.834 371.287 923.473 367.137C915.155 365.593 903.286 355.794 903.286 350.746C903.286 342.22 886.781 342.937 875.083 342.937C862.191 342.937 855.566 334.562 849.255 329.439C839.073 321.172 861.28 313.915 867.958 309.577C877.389 303.452 876.673 294.692 883.989 288.752C887.476 285.921 884.975 280.46 893.934 280.46C900.173 280.46 905.205 278.931 908.036 275.254C915.016 266.186 914.967 261.37 932.676 261.37C944.46 261.37 957.129 259.635 970.082 259.635C985.942 259.635 989.165 261.408 996.207 270.048C1001.03 275.965 1006.89 283.832 1007.49 290.873C1007.69 293.281 1009.37 300.916 1004.82 301.286C997.132 301.91 1001.59 307.257 1006.3 308.131C1021.79 311.006 1018.18 318.607 1018.18 328.185C1018.18 346.586 994.723 358.247 974.09 368.969C966.507 372.909 958.001 376.982 950.043 381.117C942.483 385.045 936.087 393.927 928.52 396.736C918.302 400.529 914.303 412.531 904.622 417.562C899.861 420.036 887.255 431.5 887.255 435.784C887.255 444.123 886.501 452.626 887.255 460.948C887.579 464.527 900.809 480.738 887.255 481.773C880.736 482.272 877.254 484.54 872.56 486.98C869.907 488.358 869.762 497.235 873.896 497.393C883.835 497.772 891.051 509.449 894.677 514.747C900.527 523.298 898.562 527.558 914.567 531.716C923.993 534.165 935.496 542.231 943.363 542.515C955.599 542.956 974.179 543.774 983.441 549.456C993.286 555.496 1003.68 560.098 1013.43 566.425C1017.35 568.975 1031.53 582.944 1031.53 586.769C1031.53 591.664 1033.39 595.187 1026.19 597.664C1022.49 598.936 1015.02 602.344 1012.83 604.123C1005.94 609.715 995.333 613.079 987.597 618.103C977.05 624.954 967.106 624.191 955.387 628.42C951.21 629.927 938.514 636.108 935.348 636.229C931.82 636.364 916.598 634.966 914.122 633.626C904.06 628.18 893.296 624.278 880.575 622.442C863.633 619.997 855.995 617.66 843.169 609.33C830.766 601.273 821.682 591.526 808.287 584.069C788.291 572.936 757.703 557.454 728.28 561.701C724.051 562.311 715.65 566.532 710.913 568.161C703.388 570.749 695.83 573.361 688.351 576.452C676.188 581.48 662.818 586.591 650.648 591.107C630.759 598.49 611.431 618.368 628.086 631.891C634.519 637.114 642.611 640.213 649.461 645.774C652.815 648.498 657.238 650.67 660.742 653.198C661.716 653.901 670.675 659.728 670.687 659.754C673.959 667.192 689.877 667.454 698.148 672.288C702.323 674.729 710.18 678.247 714.921 679.616C722.185 681.713 722.56 687.216 729.616 689.643C743 694.245 749.182 702.383 759.006 709.119C765.702 713.709 781.812 723.495 783.053 729.944C783.67 733.15 792.483 736.457 795.076 739.489C798.57 743.574 796.713 746.723 802.35 750.384C810.388 755.605 822.128 756.431 827.88 761.568C832.373 765.58 827.374 775.336 820.607 776.801C813.175 778.411 807.069 778.537 799.084 778.537C783.943 778.537 768.803 778.537 753.663 778.537C746.071 778.537 738.929 777.055 732.288 776.801C728.033 776.639 723.285 776.556 719.077 776.898C712.654 777.419 711.637 782.008 704.382 782.008C690.132 782.008 675.882 782.008 661.632 782.008C648.596 782.008 634.008 782.021 621.406 783.84C615.971 784.624 607.583 786.414 603.446 788.564C600.617 790.034 596.451 794.156 592.016 794.156C578.455 794.156 575.806 805.651 560.102 802.737C557.948 802.337 554.505 795.354 550.603 793.77C545.267 791.604 540.777 788.95 533.236 788.95C527.642 788.95 500.308 787.162 497.166 784.611C486.445 775.907 511.72 773.209 519.876 769.088C528.922 764.518 535.844 761.059 540.509 754.24C542.628 751.144 547.931 744.376 547.931 741.225C547.931 735.711 555.194 732.606 555.946 728.209C557.211 720.814 571.72 714.72 582.665 714.325C595.409 713.865 613.504 708.519 625.414 705.262C632.307 703.377 643.611 698.706 650.797 698.706C652.754 698.706 656.532 696.094 656.289 697.356C655.886 699.449 649.303 701.065 646.789 701.791C636.285 704.823 620.337 706.988 609.383 707.383C596.116 707.862 586.004 712.589 571.977 712.589C556.894 712.589 568.679 698.679 569.305 691.764C569.681 687.62 587.158 672.674 592.016 672.674C605.375 672.674 618.735 672.674 632.094 672.674C642.234 672.674 662.82 669.021 662.82 661.393C662.82 652.5 655.225 648.827 642.93 646.546C638.724 645.765 635.871 639.896 630.758 639.7C623.195 639.411 617.708 640.33 610.719 641.339C604.611 642.221 596.738 644.6 590.68 646.256C585.644 647.634 580.847 646.741 576.134 649.245C572.317 651.274 567.605 654.504 562.626 655.223C539.648 658.54 498.908 647.941 481.283 661.297C476.806 664.69 468.267 664.657 463.768 669.203C459.5 673.515 455.896 674.412 451.151 677.495C444.003 682.138 450.388 695.125 456.494 699.091C462.484 702.982 472.13 714.068 473.119 719.531C475.15 730.742 489.776 739.101 496.572 749.034C501.361 756.034 506.699 768.913 505.181 776.801C504.555 780.058 494.835 768.995 493.158 768.124C487.507 765.188 488.568 760.243 481.135 758.097C457.906 751.391 433.151 752.505 406.323 752.505C398.39 752.505 395.461 753.551 392.37 749.034C390.168 745.815 385.897 742.697 384.8 739.489C381.868 730.921 374.261 723.956 374.261 715.193C374.261 705.446 373.049 696.356 388.956 691.764C394.491 690.166 425.026 685.56 425.026 683.954C425.026 675.499 404.356 674.409 394.3 674.409C378.254 674.409 361.691 664.81 346.355 661.49C335.116 659.056 324.963 659.079 313.402 658.79C308.012 658.656 294.881 657.913 290.098 656.187C281.366 653.036 255.95 647.621 251.356 642.4C248.279 638.902 237.801 638.291 232.653 637.097C223.392 634.949 223.945 631.875 216.622 628.902C211.409 626.785 206.287 610.846 205.935 606.726C205.069 596.599 196.666 587.034 213.95 582.044C224.796 578.913 242.028 580.209 250.762 575.103C256.2 571.924 255.141 568.185 256.848 564.304C257.757 562.239 272.405 563.34 275.403 563.34C286.657 563.34 309.545 564.838 318.152 559.869C327.443 554.505 343.414 554.663 355.558 554.663C365.312 554.663 389.11 551.851 396.229 556.013C406.427 561.974 413.48 564.267 414.339 573.753C414.856 579.463 419.682 570.136 419.682 567.679C419.682 564.632 417.458 556.732 422.354 555.048C431.512 551.899 446.714 549.456 457.088 549.456C470.306 549.456 486.478 542.856 486.478 556.398C486.478 563.631 480.885 560.072 475.791 564.208C472.579 566.816 470.447 571.956 470.447 575.488C470.447 589.997 463.599 604.469 462.432 618.875C462.071 623.326 461.582 626.446 459.908 630.252C458.809 632.751 458.843 639.143 456.494 641.05C444.121 651.096 467.593 655.406 476.385 658.79C491.798 664.723 513.147 663.997 530.564 663.997C547.187 663.997 553.401 649.965 559.954 642.303C576.81 622.596 561.422 600.907 541.548 585.13C531.478 577.135 517.682 569.917 506.369 562.569C500.794 558.948 499.346 556.623 499.838 551.192C500.132 547.938 515.718 549.456 519.876 549.456C531.355 549.456 552.573 552.216 562.626 548.589C574.905 544.158 574.156 536.331 569.305 527.667C564.924 519.841 563.962 507.174 563.962 499.128C563.962 489.95 569.305 483.433 569.305 474.832C569.305 466.9 570.667 458.48 569.157 450.632C568.167 445.49 563.962 442.169 563.962 436.652C563.962 423.134 565.076 412.708 579.993 401.942C593.106 392.478 608.127 388.707 628.086 388.059C639.714 387.681 663.559 387.055 672.914 391.915C685.552 398.483 687.953 403.096 694.288 412.355C695.864 414.659 696.385 421.466 698.89 422.768C701.568 424.159 705.376 429.183 705.569 431.445C706.693 444.58 720.72 480.84 690.874 485.148C675.646 487.346 659.837 490.587 645.601 494.789C640.734 496.226 630.601 497.205 625.414 497.393C618.387 497.646 609.529 501.022 602.852 502.599C591.491 505.282 577.321 513.148 577.321 520.821C577.321 531.739 577.787 534.333 589.196 541.743C599.084 548.166 601.394 558.134 618.735 558.134C628.951 558.134 650.768 565.734 660 560.737C670.874 554.851 686.335 558.074 697.554 551.192C709.783 543.69 708.241 537.463 708.241 526.895C708.241 522.747 710.913 519.055 710.913 515.615C710.913 509.791 716.769 511.276 724.272 511.276C740.521 511.276 749.807 509.924 761.678 502.599C767.724 498.868 782.997 497.086 785.576 491.222C786.858 488.308 790.735 485.998 794.334 483.895C807.79 476.028 817.612 469.916 822.537 457.477C828.061 443.524 833.604 431.944 843.912 419.297C850.083 411.726 863.208 408.51 863.208 398.471C863.208 392.327 866.355 377.646 851.185 377.646C840.924 377.646 838.375 365.272 827.287 367.33C814.59 369.686 796.87 368.612 785.725 374.946C780.412 377.966 767.215 379.088 760.194 381.503C754.813 383.353 745.251 386.323 738.968 386.323C726.381 386.323 715.898 391.53 704.234 391.53C688.799 391.53 686.483 383.279 672.171 381.213C657.444 379.088 654.711 359.101 674.843 366.366C684.981 370.024 700.468 368.969 712.249 368.969C739.627 368.969 764.335 363.762 791.068 363.762C795.176 363.762 807.101 365.062 809.771 362.895C813.24 360.079 815.835 355.57 820.459 353.735C834.45 348.182 836.49 340.465 836.49 330.789C836.49 323.287 836.45 312.621 830.552 306.492C826.756 302.547 789.794 303.021 783.053 303.021C764.791 303.021 749.705 297.815 732.288 297.815C720.712 297.815 691.293 294.186 689.538 283.931C688.405 277.307 684.581 270.845 684.195 264.07C683.824 257.572 683.343 246.697 674.843 242.28C659.138 234.119 694.265 232.3 698.741 231.771C730.864 227.978 764.655 226.661 797.896 226.661C815.338 226.661 832.022 226.845 848.513 228.493C868.595 230.5 888.309 234.911 907.442 237.17C916.422 238.231 922.376 242.28 932.082 242.28C939.85 242.28 947.619 242.28 955.387 242.28C974.415 242.28 994.746 243.873 1012.83 239.677C1029.74 235.754 1047.57 232.423 1047.57 218.852C1047.57 211.972 1055.04 201.22 1066.86 200.629C1069.46 200.5 1083.71 197.313 1084.97 196.291C1085.4 195.939 1100.71 209.39 1105.16 211.042C1117.11 215.478 1120.79 227.054 1131.73 231C1140.32 234.1 1140.56 237.929 1141.08 244.016C1141.34 247.081 1144.25 249.233 1143.6 252.597C1142.99 255.798 1138.41 257.161 1138.41 260.503C1138.41 267.442 1114.39 271.095 1107.68 274.483C1097.47 279.641 1078.44 286.203 1064.93 281.328C1047.17 274.918 1051.62 258.99 1038.07 250.186C1025.47 242.002 1033.17 245.24 1041.63 251.343C1048.49 256.297 1054.29 260.859 1060.78 266.48C1069.74 274.243 1071.23 283.043 1076.96 291.644C1084.7 303.279 1080.75 317.334 1063.6 323.461C1051.91 327.637 1040.09 330.085 1029.01 335.031C1024.24 337.162 1001.77 346.669 1019.66 341.201C1032.14 337.386 1044.41 335.995 1058.25 335.995C1072.31 335.995 1079.13 335.311 1088.98 342.84C1095.34 347.701 1104.04 352.625 1111.1 357.206C1117.51 361.373 1137.9 370.85 1125.05 374.561C1113.79 377.811 1091.39 374.492 1090.31 386.323C1089.43 396.134 1081.39 404.508 1066.27 408.017C1046.56 412.588 1039.55 410.989 1039.55 425.371C1039.55 431.303 1037.6 434.074 1046.97 436.266C1053.76 437.854 1055.24 440.105 1059.59 443.497C1064.03 446.958 1070.32 448.138 1073.69 452.271C1076.25 455.413 1084.16 459.557 1088.98 460.948C1107.89 466.408 1130.86 467.89 1151.92 467.89C1155.56 467.89 1161.74 468.67 1165.13 467.504C1169.48 466.006 1165.82 463.006 1168.39 461.334C1171.75 459.152 1185.06 460.199 1186.35 456.417C1190.78 443.471 1194.2 420.906 1179.67 409.752C1171.23 403.27 1159.12 398.119 1148.5 393.265C1141.81 390.206 1129.14 384.997 1125.05 380.346C1115.57 369.567 1139.59 370.704 1151.77 370.704C1167.85 370.704 1185.13 371.499 1200.45 374.561C1210.21 376.51 1219.53 375.284 1229.55 376.007C1242.57 376.947 1252.91 379.381 1266.66 379.381C1286.63 379.381 1318.14 375.353 1336.12 381.503C1358.35 389.101 1373.02 404.701 1386.89 417.947C1394.15 424.882 1401.34 428.675 1406.93 436.748C1410.64 442.111 1416.01 451.552 1416.28 457.477C1416.52 462.876 1418.32 468.705 1410.79 472.132C1402.54 475.88 1390.72 476.389 1382.14 480.038C1367.55 486.246 1357.16 493.063 1340.13 496.428C1327.04 499.016 1309.61 497.618 1296.05 497.393C1266.23 496.896 1240.68 483.393 1214.41 476.567C1203.02 473.608 1157.11 452.651 1157.11 470.589C1157.11 478.824 1164.46 482.649 1167.2 490.451C1170.23 499.044 1167.8 509.421 1167.8 518.218C1167.8 525.631 1154.88 527.233 1146.42 529.981C1137.22 532.968 1138.41 539.272 1138.41 545.118C1138.41 555.933 1143.75 553.335 1143.75 544.25C1143.75 540.727 1141 530.609 1145.24 527.86C1150.55 524.408 1171.23 524.803 1178.49 523.81C1192.95 521.833 1208.43 523.032 1222.72 520.821C1243.41 517.621 1279.76 517.219 1297.38 526.124C1314.9 534.975 1318.07 559.18 1304.06 569.414C1290.42 579.38 1293.37 592.2 1293.37 604.991C1293.37 613.311 1276.53 618.666 1266.36 622.442C1258.14 625.494 1241.19 634.247 1231.33 634.494C1220.91 634.754 1207.79 635.827 1198.38 632.566C1186.32 628.39 1177.34 618.979 1165.72 613.668C1129.89 597.29 1085.19 598.049 1042.22 598.049C1002.84 598.049 970.082 626.368 970.082 650.499C970.082 670.071 985.12 678.906 1014.02 683.472C1029.77 685.961 1065.63 687.627 1071.02 674.409C1076.08 661.985 1042.68 650.113 1072.95 650.113C1081.1 650.113 1129.18 653.9 1130.24 650.788C1134.85 637.336 1111.6 636.012 1099.52 629.287C1091.39 624.762 1087.69 617.789 1084.97 611.162C1080.98 601.446 1087.02 602.058 1095.06 608.848C1104.67 616.956 1108.81 628.042 1119.71 636.133C1126.41 641.108 1135.45 649.793 1143.75 653.198C1152.87 656.94 1162.93 659.497 1171.95 663.225C1190.35 670.829 1218.45 669.203 1239.94 669.203C1280.37 669.203 1392.23 645.814 1392.23 691.668C1392.23 696.483 1394.49 706.502 1383.62 707.287C1351.36 709.615 1319.29 712.976 1286.55 712.589C1271.84 712.416 1256.87 708.695 1250.63 699.574C1248.01 695.754 1244.32 688.758 1237.86 693.885C1231.65 698.817 1230.17 705.696 1219.9 708.154C1200.49 712.799 1173.63 710.854 1153.25 710.854C1144.2 710.854 1119.5 707.684 1114.36 715.193C1109.89 721.728 1102.93 727.229 1095.66 732.451C1087.25 738.484 1074.74 748.771 1061.67 750.77C1055.51 751.711 1019.17 755.998 1018.18 761.182C1017.34 765.5 1012.83 768.948 1012.83 774.102C1012.83 778.473 1012.83 782.843 1012.83 787.214C1012.83 797.524 1028.22 807.512 1036.58 815.656C1046.63 825.445 1061.39 833.261 1068.94 844.099C1076.08 854.345 1091.25 856.633 1106.94 856.633C1129.61 856.633 1148.47 851.265 1165.13 841.013C1182.05 830.601 1197.32 813.698 1221.83 810.161C1251.64 805.858 1284.91 803.87 1285.36 779.308C1285.43 775.583 1289.08 744.89 1283.87 743.924C1279.9 743.186 1269.5 756.659 1266.66 759.061C1258.96 765.556 1243.36 770.465 1232.96 775.162C1205.59 787.528 1179.13 789.111 1147.61 792.035C1128.52 793.807 1159.12 792.421 1165.13 792.421C1184.1 792.421 1197.55 787.335 1214.41 782.008C1249.39 770.954 1270.85 753.342 1255.38 727.823C1250.72 720.145 1214.83 694.884 1202.53 710.854" stroke="#F8F8FF" stroke-width="7" stroke-linecap="round" stroke-linejoin="round"/>
<path d="M112.339 283.635C90.9762 288.321 71.1405 289.999 58.4859 302.328C49.8965 310.697 45.6638 318.153 45.6638 328.702C45.6638 355.404 53.1511 380.348 80.1411 401.067C86.7812 406.164 90.9938 418.556 103.363 418.556C114.28 418.556 116.792 407.472 119.462 402.27C129.61 382.495 143.112 359.93 143.112 338.973C143.112 329.161 146.774 318.615 126.443 318.615C105.254 318.615 98.8833 319.33 82.9904 327.776C68.2048 335.634 52.2652 344.093 43.6692 355.26C42.3922 356.919 43.0393 368.323 41.8171 366.735C37.7682 361.475 30.6596 356.843 30.2772 350.633C29.915 344.752 33.5371 345.25 40.5349 343.23C48.9236 340.808 56.5632 333.189 64.897 329.442C71.0416 326.679 77.9793 324.966 83.9877 322.039C91.2028 318.524 102.036 319.262 110.344 316.024C125.327 310.185 146.717 310.287 163.485 310.287C181.896 310.287 184.143 315.983 184.143 326.943C184.143 340.448 186.707 353.148 186.707 366.55C186.707 378.73 185.258 391.232 189.272 403.195C191.115 408.688 198.577 430.216 211.212 430.216C230.078 430.216 243.312 431.835 261.646 427.255C273.085 424.397 274.637 415.422 280.451 409.487C292.084 397.614 290.952 383.541 298.26 370.251C306.742 354.825 289.823 355.26 272.616 355.26C264.791 355.26 250.969 353.414 244.264 356.185C237.16 359.122 232.794 362.684 225.174 364.884C212.693 368.487 195.737 369.616 186.137 376.544C169.939 388.235 204.658 402.847 204.658 416.058C204.658 421.77 199.529 426.444 199.529 432.252C199.529 438.421 195.916 448.949 190.696 454.276C175.938 469.34 131.773 463.53 107.21 463.53C91.6292 463.53 92.722 464.93 84.1302 473.154C75.1661 481.734 68.7436 489.417 68.7436 500.175C68.7436 514.671 71.3132 520.163 94.5304 520.163C122.373 520.163 150.832 521.829 179.014 521.829C197.695 521.829 207 521.177 218.05 512.205C229.615 502.815 220.319 487.269 217.623 476.763C216.49 472.349 214.767 468.45 209.217 465.566C205.967 463.877 187.44 462.28 186.85 460.939C181.999 449.912 219.114 453.536 227.738 453.536C236.568 453.536 241.112 452.405 245.689 457.607C249.75 462.223 257.545 462.695 263.07 465.566C270.362 469.355 294.962 467.212 304.671 466.861C308.76 466.714 309.186 464.253 312.364 463.16C314.735 462.345 321.224 462.348 322.48 461.124C323.448 460.18 320.522 463.53 318.775 463.53C313.029 463.53 307.283 463.53 301.537 463.53C261.776 463.53 223.513 463.122 185.425 468.619C172.399 470.5 188.545 476.766 190.554 477.781C197.943 481.514 202.433 482.728 206.653 488.515C213.35 497.699 217.48 510.08 217.48 520.163C217.48 531.914 197.68 529.899 185.425 534.322C176.163 537.664 159.039 545.533 149.523 546.907C129.817 549.751 114.756 571.411 102.081 580.128C89.0339 589.101 79.8431 602.411 74.4423 613.812C68.0658 627.273 64.0397 648.414 68.8861 662.58C70.4914 667.272 75.7746 669.216 78.4315 673.407C80.9804 677.428 66.0887 670.202 64.7545 669.335C53.0065 661.704 40.5349 666.352 40.5349 653.418C40.5349 642.283 39.8745 631.627 40.5349 620.475C41.7656 599.691 78.6099 574.923 105.785 597.618C115.291 605.557 121.114 617.726 129.15 626.675C138.853 637.479 170.446 638.806 186.992 640C212.784 641.862 235.75 640.012 245.689 623.066C251.388 613.349 249.194 598.838 248.254 588.457C247.497 580.102 225.556 579.997 222.467 570.967C218.711 559.989 201.962 551.911 190.411 544.408C176.174 535.161 164.395 545.149 148.241 545.149C139.165 545.149 133.574 545.733 127.725 540.984C124.435 538.313 114.846 535.521 109.774 535.154C95.2698 534.108 78.0025 531.193 79.0013 520.163C79.3452 516.366 91.8235 518.568 91.8235 522.662C91.8235 530.258 94.194 530.316 102.081 535.154C112.867 541.771 125.228 547.516 136.701 553.477C147.35 559.011 164.439 556.808 177.732 556.808C188.056 556.808 195.694 563.588 204.658 565.97C214.633 568.62 225.393 573.203 233.722 577.63C237.062 579.405 236.765 583.214 240.56 584.755C250.337 588.724 253.382 604.924 253.382 611.776C253.382 620.976 253.68 630.157 264.922 635.836C269.983 638.393 274.375 642.146 278.457 645.46C280.796 647.359 288.402 655.42 289.142 657.583C296.07 677.834 322.451 706.714 288.002 724.118C257.607 739.473 272.558 770.179 292.419 786.304C302.368 794.382 312.645 795.002 329.176 795.002C348.922 795.002 368.9 791.156 387.303 786.674C401.251 783.276 402.119 783.106 402.119 774.089C402.119 762.932 404.684 751.26 404.684 739.664C404.684 733.701 402.444 728.998 411.095 725.876C414.329 724.709 432.201 724.898 424.629 718.75C413.682 709.862 400.73 700.762 396.848 689.416C393.998 681.085 366.621 681.439 358.382 685.899C355.203 687.62 350.414 686.181 346.842 687.658C342.697 689.371 340.253 691.562 336.726 693.395C330.73 696.511 324.432 702.431 317.493 704.685C311.243 706.714 305.524 706.72 298.26 706.72C286.368 706.72 294.5 714.816 291.279 720.046C278.959 740.051 229.273 735.037 200.812 735.037C186.668 735.037 169.817 732.663 161.633 741.7C155.144 748.865 145.676 760.197 145.676 768.351C145.676 778.574 142.261 788.382 143.112 798.334C143.572 803.708 148.792 807.875 152.088 812.584C157.286 820.012 157.383 821.653 143.682 821.653C128.127 821.653 112.978 819.988 96.9523 819.988C91.2371 819.988 80.7238 820.671 77.0068 823.689C72.857 827.058 76.5007 830.967 70.0258 834.238C65.4755 836.537 59.3706 838.008 55.9215 840.809C48.9084 846.503 48.2282 834.983 48.2282 831.277C48.2282 821.846 46.7998 805.418 52.7872 796.668C55.7767 792.299 50.7926 784.905 50.7926 780.011C50.7926 775.099 48.2282 770.37 48.2282 765.853C48.2282 755.252 83.6208 751.694 95.6701 751.694C113.705 751.694 126.689 740.034 144.394 740.034C151.41 740.034 156.611 736.971 163.627 736.703C172.883 736.349 160.197 725.936 154.652 725.136C140.185 723.048 145.314 710.169 150.235 705.055C154.166 700.97 159.661 697.452 164.767 694.135C169.44 691.1 169.371 685.417 171.891 681.735C176.893 674.425 173.276 661.035 167.474 654.251C160.524 646.126 137.296 650.087 123.736 650.087C116.532 650.087 98.8758 648.097 93.1057 651.012C85.39 654.91 87.568 659.872 83.5603 665.078C76.9868 673.618 74.4982 686.506 61.0503 691.359C52.0929 694.591 32.1536 704.12 32.8416 711.717C33.2488 716.213 47.2988 720.082 51.9324 722.545C56.7527 725.106 65.8707 734.962 66.1792 738.369C67.0535 748.023 89.5256 757.086 96.8099 765.76C109.218 780.536 120.751 792.889 127.868 809.068C129.796 813.45 136.726 817.435 137.841 823.226C138.723 827.812 141.216 836.338 146.246 839.606C154.729 845.115 177.797 847.175 191.836 846.639C196.586 846.457 201.228 837.485 204.658 834.979C210.847 830.457 215.312 825.582 223.892 822.486C233.834 818.898 256.092 821.653 267.487 821.653C284.858 821.653 290.41 829.9 304.671 835.349C313.789 838.833 315.077 839.976 326.469 839.976C341.106 839.976 338.891 826.743 333.45 821.653C327.273 815.876 325.186 808.918 325.186 802.035C325.186 795.421 322.616 791.671 334.162 791.671C355.122 791.671 377.257 787.633 398.13 790.098C411.157 791.636 424.931 811.734 430.898 818.322C433.704 821.42 445.247 828.379 449.846 830.907C461.202 837.148 467.078 836.676 480.192 838.68C489.021 840.03 502.286 841.754 510.395 838.31C521.272 833.691 515.965 823.803 521.365 817.489C525.445 812.719 537.612 812.76 538.034 805.366C538.465 797.802 538.034 790.172 538.034 782.602C538.034 778.811 535.757 770.755 540.029 767.981C544.592 765.017 557.282 766.685 563.678 766.685C578.805 766.685 592.356 769.359 597.016 778.438C601.233 786.656 606.837 797.877 596.446 804.626C586.125 811.33 586.758 822.714 586.758 831.647C586.758 842.313 635.011 844.973 645.455 844.973C670.141 844.973 692.114 846.272 707.144 830.814C719.929 817.666 721.272 801.731 710.421 788.339C705.092 781.763 697.552 761.688 714.979 761.688C735.95 761.688 756.313 762.625 776.526 763.354C783.531 763.607 791.56 767.569 798.323 766.593C803.683 765.819 808.467 760.272 814.992 760.023C836.948 759.184 843.621 782.105 857.305 790.005C866.818 795.497 886.021 820.451 868.56 824.059C860.987 825.625 854.317 826.217 847.048 828.316C843.072 829.464 841.157 831.11 836.79 831.74C830.572 832.637 830.254 838.021 822.686 838.31C812.718 838.691 834.38 847.92 828.954 842.382C825.028 838.374 823.534 827.154 816.987 825.355C792.767 818.699 725.237 829.854 725.237 804.163C725.237 792.281 753.155 801.719 764.986 795.742C773.998 791.19 789.825 791.671 801.03 791.671C813.294 791.671 825.282 789.808 836.932 788.432C851.594 786.7 866.281 776.892 866.281 766.685C866.281 753.677 868.845 741.115 868.845 728.375C868.845 718.658 868.845 708.941 868.845 699.225C868.845 691.194 869.777 689.541 859.442 685.066C851.251 681.519 840.277 676.083 830.379 675.165C823.97 674.57 809.175 670.926 804.877 667.669C802.73 666.042 798.773 664.478 795.901 663.413C793.664 662.582 794.263 659.491 792.482 658.045C787.402 653.921 809.682 655.084 812.428 655.084C826.518 655.084 840.852 652.399 853.459 648.421C879.457 640.219 889.361 624.045 889.361 605.946C889.361 596.084 885.788 595.76 870.84 591.788C859.216 588.699 847.739 585.901 836.647 582.627C825.666 579.384 809.495 582.397 799.748 585.958C791.713 588.894 788.042 595.364 780.515 598.081C764.463 603.873 750.08 608.608 741.194 595.489C736.235 588.169 721.695 584.522 716.974 576.241C713.863 570.786 712.161 564.976 709.708 559.4C708.976 557.735 707.286 570.937 707.286 573.465C707.286 577.327 715.065 584.364 718.969 587.624C730.95 597.63 750.907 602.486 763.704 611.776C773.158 618.639 771.397 628.207 771.397 636.762C771.397 641.789 773.995 650.455 770.827 655.084C768.694 658.202 763.943 661.289 759.857 663.413C752.874 667.041 766.768 663.486 769.402 662.117C776.875 658.234 817.321 660.874 825.25 663.042C840.523 667.219 865.065 659.173 879.103 655.917C888.014 653.85 892.668 650.067 902.753 648.051C911.555 646.292 922.78 645.931 931.959 646.848C946.654 648.317 961.65 649.613 976.551 647.496C980.782 646.895 1012.45 641.407 1012.45 643.424C1012.45 654.453 1008.56 668.326 1002.77 678.774C998.908 685.733 986.532 689.386 977.121 693.025C965.927 697.353 956.434 700.766 945.921 705.888C940.511 708.523 931.673 716.216 928.397 720.046C922.334 727.135 912.039 731.982 901.185 735.778C893.965 738.303 887.9 740.888 880.243 741.793C866.835 743.376 866.436 742.827 871.98 750.029C881.977 763.016 887.521 776.452 909.876 783.712C920.101 787.033 930.915 790.028 942.074 792.041C954.086 794.208 961.808 803.57 974.129 804.904C985.784 806.166 995.034 811.192 1002.2 802.405C1009.13 793.902 1008.59 786.157 1010.03 776.772C1011.44 767.604 1019.4 743.647 1006.75 737.073C1002.86 735.051 988.236 736.703 982.962 736.703C972.39 736.703 970.446 741.482 963.159 745.031C954.088 749.451 948.343 752.405 948.343 760.023C948.343 764.392 948.549 769.011 944.353 772.515C932.249 782.624 923.126 795.626 915.005 807.495C910.767 813.688 907.946 836.502 916.287 840.716C921.507 843.353 922.265 846.481 929.537 847.934C941.131 850.251 962.244 853.527 973.987 850.803C1005.77 843.43 1035.68 842.314 1061.18 826.65C1069.72 821.4 1081.73 819.988 1093.23 819.988C1105.46 819.988 1104.05 822.698 1113.04 827.391C1129.77 836.133 1141.87 842.332 1161.76 846.639C1174.05 849.301 1187.78 848.129 1200.51 849.6C1205.95 850.228 1213.6 850.658 1218.75 849.137C1227.44 846.57 1222.84 833.245 1225.87 828.316C1229.94 821.713 1230.37 814.099 1234.28 807.495C1238.97 799.56 1239.32 795.968 1249.66 790.745C1256.49 787.298 1275.01 786.674 1283.71 786.674C1312.91 786.674 1340.35 783.474 1358.65 801.48C1366.44 809.142 1371.47 817.961 1371.47 827.02C1371.47 836.177 1374.91 839.767 1384.3 846.731C1393.88 853.848 1395.61 856.633 1409.94 856.633C1416.92 856.633 1420.2 849.969 1420.2 845.713C1420.2 838.495 1422.15 831.247 1413.64 825.725C1401.33 817.725 1394.78 806.681 1388.85 796.298C1381.87 784.041 1360.45 777.255 1351.53 765.02C1346.86 758.616 1345.6 749.828 1355.52 745.772C1360.61 743.689 1362.78 742.454 1366.91 739.664C1373.45 735.252 1378.62 736.927 1385.44 734.112C1399.26 728.398 1414.53 732.307 1424.19 722.452C1435.51 710.895 1430.46 693.4 1430.46 680.069C1430.46 672.843 1398.83 669.849 1408.8 668.41C1417.34 667.177 1424.19 661.482 1424.19 655.669C1424.19 652.02 1421.47 640.491 1420.2 636.891C1415.57 623.763 1436.24 621.669 1424.19 610.415C1416.4 603.147 1413.15 603.149 1400.25 603.448C1386.77 603.761 1375.3 612.865 1362.36 615.108C1348.96 617.428 1336.54 621.129 1322.75 623.066C1300.45 626.198 1301.34 616.711 1295.96 606.039C1289.39 592.969 1289.41 581.565 1289.41 567.82C1289.41 544.761 1340.2 536.82 1368.77 536.82C1383.62 536.82 1404.95 534.226 1417.06 540.522C1435.73 550.224 1426.54 570.3 1427.42 585.218C1428.2 598.289 1440.12 618.584 1413.93 621.678C1391.58 624.317 1397.07 591.995 1399.68 585.218C1407.65 564.514 1409.12 543.756 1418.92 523.402C1423.41 514.061 1420.62 502.83 1423.33 493.142C1426.61 481.422 1429.37 475.19 1408.8 475.19C1387.15 475.19 1353.52 479.282 1353.52 496.844C1353.52 504.974 1359.77 530.997 1345.83 535.525C1336.54 538.541 1340.59 521.954 1340.7 518.313C1340.82 514.412 1348.48 503.199 1352.24 500.268C1365.89 489.626 1380.41 483.771 1399.11 476.855C1407.06 473.917 1419.62 469.567 1420.2 462.79C1420.9 454.566 1420.2 447.413 1425.33 439.562C1431.86 429.556 1427.32 419.297 1427.32 407.855C1427.32 393.935 1430.55 378.55 1425.33 364.989C1422.86 358.582 1434.14 350.71 1422.76 348.597C1410.68 346.355 1407.74 340.22 1397.12 336.567C1387.21 333.162 1381.87 326.247 1371.47 322.872C1356.65 318.056 1339.34 318.615 1323.32 318.615C1300.59 318.615 1284.8 330.275 1261.2 330.275C1257.4 330.275 1243.94 328.903 1241.26 330.645C1234.42 335.084 1257.69 336.938 1260.06 336.938C1289.53 336.938 1319.13 338.603 1348.25 338.603C1355.4 338.603 1369.58 340.576 1375.32 337.678C1385.18 332.698 1393.27 327.892 1405.38 324.908C1427.63 319.427 1420.81 304.556 1422.76 288.084C1424.18 276.133 1433.98 269.323 1415.21 264.97C1404.81 262.556 1409.31 260.481 1399.68 257.355C1393.88 255.471 1381.26 256.984 1374.89 256.984C1354.09 256.984 1333.29 256.984 1312.49 256.984C1306.82 256.984 1299.89 255.544 1299.67 260.316C1299.53 263.2 1298.44 267.941 1301.09 270.403C1308.03 276.835 1302.67 284.968 1306.08 292.056C1310.2 300.623 1314.97 311.168 1312.49 320.281C1311.54 323.795 1265.08 328.632 1259.21 329.905C1216.58 339.133 1147.84 347.672 1121.16 316.857C1110.47 304.519 1104.77 291.241 1104.77 276.973C1104.77 269.903 1104.26 263.718 1111.33 257.817C1114.44 255.213 1120.82 253.961 1125.43 252.913C1140.09 249.58 1150.22 242.776 1164.32 238.662C1184.4 232.806 1202.89 235.949 1222.74 240.328C1235.03 243.04 1242.46 249.395 1252.51 253.746C1271.83 262.113 1302.05 278.105 1307.36 293.63C1308.26 296.24 1317.69 311.169 1324.74 306.585C1336.56 298.908 1338.14 289.154 1338.14 278.731C1338.14 265.681 1320.18 264.385 1309.36 257.355C1300.04 251.306 1290.83 245.348 1283 238.569C1273.43 230.278 1267.99 220.709 1261.35 211.363C1256.73 204.861 1251.27 198.475 1250.94 191.097C1250.12 172.261 1208.31 176.81 1191.96 182.399C1172.1 189.19 1157.92 192.332 1139.25 181.936C1120.94 171.743 1135.95 153.571 1149.79 146.216C1160.08 140.751 1154.68 139.49 1147.09 134.556C1132.26 124.924 1117.28 111.993 1097.08 107.072C1074.72 101.625 1053.87 105.407 1032.4 105.407C1014.05 105.407 976.551 106.747 976.551 122.064C976.551 134.155 976.551 146.247 976.551 158.339C976.551 165.661 974.436 174.469 979.685 181.288C984.916 188.083 995.795 190.157 1002.2 195.354C1010.67 202.236 1049.08 202.715 1059.9 197.853C1072.98 191.969 1071.13 176.385 1066.88 167.407C1063.81 160.942 1064.24 159.779 1054.77 157.043C1042.96 153.635 1027.14 155.377 1014.45 155.377C999.599 155.377 985.685 152.534 971.422 152.046C961.488 151.706 957.845 148.023 948.343 147.142C925.463 145.018 913.573 158.709 893.065 158.709C857.422 158.709 853.459 141.499 853.459 122.064C853.459 109.283 860.127 95.4038 879.103 89.12C888.176 86.1155 910.137 82.193 920.134 86.2513C940.309 94.4417 958.6 105.593 958.6 121.693C958.6 133.801 964.271 149.779 943.783 155.007C922.983 160.315 864.118 178.41 855.881 156.118C852.863 147.95 848.33 141.767 848.33 133.076C848.33 128.061 845.827 123.794 843.201 119.102C836.528 107.182 833.842 90.528 844.626 79.4035C850.693 73.1443 860.05 51.2664 849.754 45.5345C835.549 37.6254 827.525 25.1224 812.428 17.4954C783.215 2.7373 770.353 31.2369 758.575 44.1464C752.706 50.5789 753.186 64.4549 753.446 71.7228C753.949 85.7633 800.886 82.0871 813.568 82.0871C834.559 82.0871 851.917 85.4855 863.146 72.6482C868.561 66.4579 867.468 55.8389 868.275 48.9584C869.753 36.365 868.845 23.5511 868.845 10.9252C868.845 3.22289 863.298 7.50149 877.108 7.50149C881.793 7.50149 892.937 4.94136 896.484 7.50126C902.913 12.1412 915.446 9.82112 922.556 13.0536C935.711 19.0348 966.13 17.1252 981.68 17.1252C996.552 17.1252 986.167 9.12231 1002.2 7.50126C1002.2 1.04511 1008.56 8.21871 1021.75 9.53701C1028.21 10.1823 1034.06 10.2799 1040.52 10.9251C1047.57 11.6299 1043.04 9.61171 1048.93 13.0536C1062.36 20.9083 1074.69 20.6764 1076.28 32.0239C1077.69 42.0887 1081.93 60.6544 1065.88 66.9108C1048.32 73.753 1017.75 80.8277 997.067 76.3497C974.305 71.4215 962.529 54.6661 948.627 43.1285C934.037 31.0189 912.866 31.7238 890.5 32.1164C876.598 32.3605 872.597 43.621 871.267 50.5315C868.92 62.7296 860.936 71.6012 877.108 81.717C888.744 88.9946 907.342 87.0842 921.843 87.0842C951.496 87.0842 981.637 88.2788 1011.03 85.7886C1034.22 83.8236 1061.54 81.0621 1073.43 65.6153C1081.96 54.5332 1081.78 41.6581 1094.37 32.1164C1106.35 23.0418 1116.89 15.0798 1134.12 9.5371C1149.58 4.56422 1173.28 7.50424 1191.96 9.12231C1219.96 11.5466 1230.43 26.5726 1230.43 40.2598C1230.43 50.7151 1232.63 62.4571 1221.31 70.9825C1211.48 78.3922 1190.41 86.5897 1175.44 87.0842C1153.19 87.8191 1145.37 69.7173 1137.54 59.1376C1128.17 46.4671 1117.59 36.7947 1117.59 22.1223C1117.59 13.311 1120.11 14.8051 1135.55 12.3995C1154.64 9.42322 1186.87 8.45754 1206.15 9.5371C1233.09 11.0457 1253.57 4.98912 1265.76 20.8268C1273.09 30.3504 1273.23 44.1738 1271.46 54.6958C1269.74 64.9392 1229.12 71.6929 1217.46 75.6094C1196.52 82.6452 1177.99 91.4689 1155.92 97.0783C1147.73 99.1601 1122.72 100.691 1122.72 108.368C1122.72 113.026 1131.79 116.892 1135.55 120.213C1144.04 127.715 1147.99 138.542 1161.19 143.44C1185.04 152.293 1210.4 146.824 1226.16 133.909C1241.11 121.645 1246.76 106.32 1252.37 91.3409C1254.07 86.7897 1265.72 69.8238 1249.66 72.278C1230.84 75.155 1205.58 88.0608 1200.23 100.04C1193.32 115.502 1207.12 127.039 1216.47 139.738C1225 151.323 1242.67 159.67 1258.35 166.945C1268.4 171.607 1281.55 180.363 1294.68 180.363C1304.83 180.363 1314.67 182.028 1324.89 182.028C1341.66 182.028 1382.42 187.147 1395.12 178.327C1404.49 171.823 1403.83 156.9 1401.68 148.715C1398.46 136.501 1378.59 123.983 1361.93 118.917C1350.66 115.492 1315.82 108.374 1307.36 117.529C1297.88 127.794 1294.7 139.724 1294.54 151.491C1294.33 166.458 1301.66 179.013 1304.8 193.688C1306.76 202.87 1307.06 212.485 1311.07 221.45C1317.91 236.755 1342.67 250.812 1367.77 243.289C1386.38 237.711 1400.85 225.222 1415.21 216.083C1433.34 204.54 1422.57 194.765 1422.76 178.327C1423 158.395 1432.21 137.368 1430.01 117.529C1427.9 98.485 1435.25 84.0676 1414.78 69.0392C1399.85 58.0731 1379.48 51.3923 1363.21 41.4628C1353.6 35.6009 1345.55 29.9671 1330.73 34.2448C1312.37 39.5448 1310.72 57.3087 1310.07 68.2989C1309.32 81.0045 1312.69 92.3042 1333.01 98.0037C1391.94 114.533 1419.65 52.1402 1430.01 25.8475C1433.65 16.6064 1432.7 11.7826 1414.78 9.5371C1384.91 5.7922 1372.88 11.1016 1342.66 9.5371C1321.38 8.43497 1278.78 3.33016 1275.38 22.1223C1272.92 35.7037 1309.42 25.1278 1326.17 21.7522C1335.99 19.773 1338.14 9.94088 1338.14 4.63257" stroke="#FDFDFF" stroke-width="7" stroke-linecap="round" stroke-linejoin="round"/>
<path d="M376.623 510.069C382.865 504.717 399.878 485.539 391.07 478.183C380.689 469.515 368.28 466.98 351.415 466.98C338.299 466.98 328.86 477.201 328.86 485.556C328.86 492.718 323.862 510.632 332.103 516.58C335.273 518.867 336.952 524.097 340.948 525.58C346.965 527.814 353.174 528.961 359.375 530.751C370.252 533.891 381.367 538.047 392.691 539.273C399.825 540.045 429.005 541.794 434.41 538.986C445.698 533.12 443.261 526.864 448.856 518.686C453.186 512.359 457.406 501.351 456.08 494.461C455.385 490.85 454.965 483.085 452.247 479.907C448.098 475.056 453.574 470.046 453.574 465.161C453.574 454.193 466.678 448.222 478.045 441.51C491.865 433.35 535.556 430.056 549.983 435.957C569.665 444.006 580.941 461.939 580.941 476.555C580.941 489.072 585.592 505.367 576.813 516.771C568.506 527.563 526.966 525.58 511.95 525.58C493.09 525.58 474.101 522.157 463.008 510.835C456.044 503.726 458.619 493.518 453.574 485.939C447.414 476.687 450.92 463.589 450.92 453.767C450.92 434.279 439.95 397.422 464.188 380.804C471.853 375.548 488.727 368.739 500.01 368.739C517.386 368.739 533.967 358.398 553.079 358.398C569.08 358.398 585.245 349.662 600.105 345.95C608.592 343.83 615.613 338.62 620.743 333.886C628.651 326.586 626.979 322.236 629.293 313.969C633.158 300.16 630.87 289.457 606.149 289.457C593.093 289.457 579.634 288.819 566.641 289.553C553.559 290.291 546.568 296.47 537.158 301.617C512.438 315.139 498.683 332.336 498.683 352.844C498.683 367.034 526.39 372.687 542.023 379.08C570.192 390.6 609.677 389.415 640.644 383.293C672.623 376.972 712.755 357.956 731.009 339.822C738.87 332.014 712.843 323.426 705.654 318.757C685.565 305.708 665.084 299.69 659.955 280.073C655.208 261.913 654.096 243.849 655.238 225.303C655.721 217.461 687.654 203.28 699.02 203.28C713.408 203.28 727.77 195.197 743.982 198.205C753.598 199.99 740.805 221.44 748.699 217.452C752.773 215.393 764.259 216.446 769.338 214.962C777.829 212.48 786.063 211.168 793.809 207.685C808.581 201.042 820.718 184.803 822.26 173.789C823.101 167.776 825.984 153.847 820.933 148.223C815.864 142.579 797.557 144.68 789.386 144.68C772.63 144.68 755.874 144.68 739.117 144.68C715.391 144.68 703.986 143.43 687.08 155.021C678.375 160.989 676.489 169.14 673.223 176.661C666.446 192.267 654.706 206.695 650.521 223.005C644.453 246.654 639.018 264.669 606.149 276.53C593.814 280.981 559.201 278.419 546.445 276.052C537.3 274.354 530.967 263.749 528.461 258.05C525.812 252.029 527.871 244.002 527.871 237.751C527.871 222.301 556.275 205.918 574.307 198.11C593.756 189.688 631.553 178.366 648.457 195.62C657.492 204.842 654.916 226.423 652.437 236.889C647.423 258.059 619.244 270.511 591.407 279.02C563.446 287.567 538.482 301.521 506.643 301.521C493.096 301.521 480.702 304.649 467.431 304.969C456.572 305.23 445.603 305.4 434.999 307.075C414.246 310.354 389.89 310.665 389.89 328.236C389.89 339.351 385.617 360.601 399.325 369.505C421.27 383.759 471.912 374.975 495.145 368.356C517.189 362.076 525.218 349.871 525.218 335.13C525.218 321.455 525.572 315.107 508.117 305.83C492.007 297.268 467.947 298.673 448.856 294.244C430.318 289.944 417.729 286.01 397.851 286.01C360.44 286.01 305.737 301.258 290.532 323.832C281.87 336.692 283.751 351.851 283.751 365.675C283.751 379.025 278.996 399.893 302.325 406.274C313.135 409.23 335.524 408.38 347.435 408.38C360.83 408.38 376.612 409.993 389.301 406.657C417.852 399.15 416.425 377.41 416.425 360.122C416.425 348.473 412.239 341.52 407.138 330.917C402.283 320.825 385.644 319.867 379.276 312.629C372.019 304.38 346.469 306.692 334.757 306.692C309.991 306.692 285.225 306.692 260.46 306.692C231.111 306.692 202.704 303.208 192.354 283.999C186.689 273.487 188.226 259.063 188.226 247.996C188.226 225.178 201.458 205.258 218.594 185.566C227.196 175.681 239.08 158.844 259.87 158.469C270.276 158.281 285.11 156.867 294.955 158.852C324.025 164.711 344.503 183.972 358.638 200.216C372.648 216.316 373.969 228.505 373.969 246.464C373.969 256.87 351.466 272.525 338 277.296C330.141 280.081 323.805 283.85 316.183 286.967C307.456 290.536 295.877 291.463 286.405 294.627C266.89 301.146 250.417 305.456 230.092 299.798C224.024 298.109 211.212 293.645 206.948 290.414C199.881 285.059 173.599 284.286 162.871 284.286C151.753 284.286 79.4334 278.85 79.4334 290.319C79.4334 294.519 78.6664 299.087 79.5808 303.245C81.0275 309.823 96.8326 317.575 103.167 322.204C115.394 331.138 152.251 340.616 170.831 335.13C196.193 327.642 188.226 305.805 188.226 291.18C188.226 277.436 184.802 262.014 174.369 249.816C164.999 238.86 140.065 235.875 128.523 225.495C112.93 211.471 92.3293 198.252 90.1947 179.534C88.6088 165.627 86.2288 146.742 90.637 132.999C95.0117 119.359 116 115.862 133.977 113.657C156.164 110.935 193.335 105.912 199.43 123.232C202.435 131.772 209.454 139.364 209.454 148.223C209.454 157.483 212.107 166.549 212.107 175.895C212.107 192.875 194.589 214.277 168.177 220.516C143.967 226.234 127.851 216.824 122.479 201.557C117.342 186.961 105.779 173.298 100.072 158.469C95.1653 145.721 93.2905 122.657 99.4819 110.018C104.436 99.9047 115.027 84.4623 127.343 77.4626C137.357 71.7714 154.941 69.8271 167.146 66.2597C185.807 60.8052 203.112 59.5785 223.311 58.1208C241.847 56.783 271.205 52.8626 287.879 60.2273C309.382 69.7249 318.246 89.5816 318.246 105.614C318.246 116.244 313.925 118.827 297.019 118.827C276.872 118.827 256.725 118.827 236.578 118.827C227.057 118.827 209.259 120.986 202.673 114.997C195.376 108.362 193.259 98.9655 190.29 91.2508C185.322 78.3437 188.226 63.2566 188.226 49.9819C188.226 43.2421 188.471 38.3961 199.282 35.2361C214.219 30.8703 235.823 30.8393 252.057 28.342C297.873 21.2938 353.719 13.6998 399.915 24.4162C421.704 29.4708 435.778 46.7881 437.653 60.9933C438.579 68.0087 441.935 76.4684 444.287 83.495C446.709 90.7339 445.613 98.5225 445.613 105.901C445.613 123.117 440.933 131.573 416.572 140.276C399.713 146.299 383.011 152.564 366.009 158.086C344.576 165.046 329.361 157.686 322.964 144.297C315.782 129.267 318.89 101.081 347.582 96.4214C365.159 93.5672 383.633 94.6979 401.683 94.6979C426.771 94.6979 450.077 94.2751 474.359 99.0067C495.351 103.097 527.871 118.814 527.871 133.956C527.871 152.438 530.525 170.894 530.525 189.492C530.525 208.365 520.64 223.517 501.336 237.847C488.973 247.024 455.356 272.627 432.493 264.274C421.456 260.242 416.878 249.282 409.644 243.017C396.912 231.991 377.493 221.598 374.264 206.919C367.429 175.841 422.32 179.151 454.753 179.151C466.872 179.151 482.936 177.118 490.722 184.704C498.759 192.535 498.195 203.497 501.926 212.281C508.604 228.005 506.643 245.612 506.643 261.88C506.643 278.915 576.093 256.166 586.69 251.348C670.987 213.02 734.107 150.618 753.417 85.2185C758.534 67.8881 766.269 28.3525 737.496 17.1391C712.052 7.22298 680.192 18.9229 660.545 29.5868C638.857 41.3584 626.868 49.3539 617.5 67.1214C613.934 73.8837 606.66 92.6721 616.025 99.4855C633.215 111.991 651.535 117.104 677.793 117.104C693.919 117.104 707.451 119.017 717.447 109.061C724.807 101.731 740.149 84.942 740.149 75.7391C740.149 60.0605 712.731 61.9508 692.976 61.9508C680.663 61.9508 669.955 61.4115 657.891 59.8443C644.797 58.1432 632.243 54.144 619.416 51.7054C607.115 49.3669 593.653 49.4893 580.941 48.5456C559.782 46.9749 527.339 43.2764 522.712 62.8126C519.76 75.2745 520.783 87.3796 519.763 99.9643C518.095 120.556 518.077 140.402 531.704 159.713C540.552 172.253 572.139 167.086 589.786 167.086C623.371 167.086 635.743 150.996 628.114 129.935C623.433 117.015 594.626 110.832 578.287 108.103C566.99 106.216 520.247 95.7662 514.604 106.763" stroke="#F4F9FC" stroke-opacity="0.6" stroke-width="7" stroke-linecap="round" stroke-linejoin="round"/>
<path d="M327.743 497.645C333.985 492.293 350.998 473.116 342.19 465.76C331.809 457.091 319.4 454.557 302.535 454.557C289.419 454.557 279.98 464.777 279.98 473.133C279.98 480.294 274.983 498.209 283.224 504.156C286.393 506.444 288.073 511.674 292.068 513.157C298.085 515.39 304.294 516.537 310.495 518.327C321.372 521.467 332.488 525.623 343.811 526.849C350.945 527.622 380.125 529.37 385.53 526.562C396.818 520.696 394.381 514.44 399.977 506.263C404.306 499.935 408.526 488.928 407.2 482.037C406.505 478.426 406.085 470.661 403.367 467.483C399.218 462.632 404.694 457.622 404.694 452.737C404.694 441.77 417.798 435.798 429.165 429.087C442.985 420.926 486.676 417.633 501.104 423.533C520.785 431.582 532.061 449.515 532.061 464.132C532.061 476.649 536.712 492.943 527.933 504.348C519.626 515.139 478.086 513.157 463.07 513.157C444.21 513.157 425.222 509.734 414.128 498.411C407.164 491.302 409.739 481.094 404.694 473.516C398.534 464.264 402.04 451.166 402.04 441.343C402.04 421.856 391.07 384.998 415.308 368.38C422.974 363.124 439.848 356.316 451.13 356.316C468.507 356.316 485.087 345.974 504.199 345.974C520.201 345.974 536.366 337.239 551.225 333.527C559.712 331.406 566.734 326.197 571.863 321.462C579.771 314.162 578.099 309.812 580.413 301.546C584.278 287.736 581.99 277.033 557.269 277.033C544.213 277.033 530.754 276.395 517.761 277.129C504.679 277.868 497.688 284.047 488.278 289.194C463.558 302.715 449.803 319.913 449.803 340.421C449.803 354.61 477.51 360.263 493.143 366.657C521.312 378.177 560.797 376.992 591.764 370.87C623.743 364.548 663.875 345.533 682.13 327.399C689.99 319.59 663.963 311.003 656.774 306.333C636.685 293.284 616.204 287.266 611.075 267.65C606.328 249.489 605.216 231.425 606.358 212.88C606.841 205.038 638.774 190.857 650.14 190.857C664.528 190.857 678.89 182.773 695.102 185.782C704.719 187.567 691.925 209.016 699.819 205.028C703.894 202.97 715.379 204.023 720.458 202.538C728.949 200.056 737.183 198.744 744.929 195.261C759.701 188.618 771.838 172.379 773.38 161.365C774.221 155.353 777.104 141.424 772.053 135.8C766.984 130.155 748.677 132.257 740.506 132.257C723.75 132.257 706.994 132.257 690.237 132.257C666.511 132.257 655.106 131.007 638.2 142.598C629.495 148.566 627.609 156.716 624.343 164.238C617.566 179.843 605.826 194.272 601.641 210.582C595.573 234.231 590.138 252.246 557.269 264.107C544.934 268.558 510.321 265.995 497.566 263.628C488.42 261.931 482.087 251.325 479.581 245.627C476.932 239.605 478.991 231.578 478.991 225.327C478.991 209.877 507.395 193.495 525.427 185.686C544.876 177.264 582.673 165.942 599.577 183.197C608.612 192.419 606.036 214 603.557 224.466C598.543 245.635 570.364 258.088 542.527 266.596C514.566 275.143 489.602 289.098 457.763 289.098C444.216 289.098 431.822 292.226 418.551 292.545C407.692 292.806 396.723 292.976 386.119 294.652C365.366 297.931 341.01 298.242 341.01 315.813C341.01 326.927 336.737 348.178 350.445 357.082C372.39 371.336 423.032 362.551 446.265 355.933C468.309 349.653 476.338 337.448 476.338 322.707C476.338 309.031 476.692 302.683 459.238 293.407C443.127 284.845 419.067 286.249 399.977 281.821C381.438 277.52 368.849 273.586 348.971 273.586C311.56 273.586 256.857 288.835 241.652 311.408C232.99 324.268 234.871 339.427 234.871 353.252C234.871 366.602 230.116 387.47 253.446 393.85C264.255 396.807 286.644 395.957 298.555 395.957C311.95 395.957 327.732 397.569 340.421 394.233C368.972 386.727 367.545 364.987 367.545 347.698C367.545 336.049 363.359 329.097 358.258 318.494C353.403 308.402 336.765 307.444 330.396 300.205C323.139 291.956 297.589 294.268 285.877 294.268C261.111 294.268 236.345 294.268 211.58 294.268C182.231 294.268 153.824 290.784 143.474 271.575C137.809 261.063 139.346 246.64 139.346 235.573C139.346 212.755 152.578 192.834 169.714 173.143C178.316 163.257 190.201 146.42 210.99 146.045C221.396 145.857 236.23 144.443 246.075 146.428C275.145 152.288 295.623 171.548 309.758 187.793C323.769 203.893 325.089 216.082 325.089 234.041C325.089 244.447 302.586 260.102 289.12 264.873C281.262 267.657 274.925 271.426 267.303 274.544C258.576 278.112 246.997 279.039 237.525 282.204C218.01 288.723 201.537 293.032 181.212 287.374C175.144 285.685 162.332 281.222 158.068 277.991C151.001 272.636 124.719 271.863 113.991 271.863C102.873 271.863 30.5535 266.427 30.5535 277.895C30.5535 282.095 29.7865 286.664 30.7009 290.821C32.1476 297.399 47.9527 305.151 54.2874 309.78C66.514 318.715 103.371 328.192 121.951 322.707C147.313 315.219 139.346 293.382 139.346 278.757C139.346 265.013 135.922 249.59 125.489 237.392C116.119 226.437 91.185 223.452 79.6428 213.071C64.0504 199.048 43.4494 185.828 41.3148 167.11C39.7289 153.204 37.3489 134.319 41.7571 120.575C46.1318 106.935 67.1201 103.439 85.0972 101.233C107.284 98.5111 144.455 93.4883 150.55 110.808C153.555 119.349 160.574 126.94 160.574 135.8C160.574 145.059 163.227 154.125 163.227 163.472C163.227 180.452 145.71 201.854 119.298 208.092C95.0875 213.81 78.9714 204.401 73.5988 189.133C68.4624 174.537 56.8995 160.875 51.1917 146.045C46.2854 133.298 44.4106 110.234 50.602 97.5946C55.5562 87.4812 66.1476 72.0387 78.4635 65.039C88.4773 59.3478 106.061 57.4035 118.266 53.8361C136.927 48.3816 154.232 47.1549 174.431 45.6972C192.967 44.3594 222.325 40.4391 238.999 47.8037C260.502 57.3013 269.366 77.158 269.366 93.19C269.366 103.82 265.045 106.404 248.139 106.404C227.992 106.404 207.845 106.404 187.698 106.404C178.177 106.404 160.379 108.563 153.793 102.574C146.497 95.9388 144.379 86.5419 141.41 78.8273C136.442 65.9201 139.346 50.8331 139.346 37.5583C139.346 30.8185 139.591 25.9725 150.402 22.8125C165.339 18.4467 186.944 18.4157 203.177 15.9184C248.993 8.87022 304.839 1.27621 351.035 11.9926C372.824 17.0472 386.898 34.3646 388.773 48.5697C389.699 55.5851 393.055 64.0448 395.407 71.0714C397.829 78.3103 396.733 86.0989 396.733 93.4773C396.733 110.693 392.054 119.149 367.693 127.852C350.833 133.875 334.132 140.14 317.129 145.662C295.696 152.623 280.481 145.263 274.084 131.874C266.903 116.844 270.01 88.6569 298.702 83.9979C316.279 81.1436 334.753 82.2743 352.804 82.2743C377.891 82.2743 401.197 81.8515 425.479 86.5832C446.471 90.6735 478.991 106.391 478.991 121.533C478.991 140.014 481.645 158.47 481.645 177.068C481.645 195.942 471.761 211.093 452.456 225.423C440.093 234.601 406.477 260.204 383.613 251.851C372.576 247.818 367.998 236.858 360.764 230.594C348.032 219.567 328.613 209.174 325.384 194.495C318.549 163.418 373.44 166.727 405.873 166.727C417.992 166.727 434.056 164.695 441.842 172.281C449.88 180.111 449.316 191.074 453.046 199.857C459.724 215.581 457.763 233.188 457.763 249.457C457.763 266.492 527.213 243.742 537.81 238.924C622.107 200.596 685.227 138.195 704.537 72.7949C709.654 55.4645 717.389 15.9289 688.616 4.71548C663.172 -5.20061 631.312 6.49932 611.665 17.1632C589.977 28.9348 577.988 36.9303 568.62 54.6978C565.054 61.4601 557.78 80.2485 567.146 87.0619C584.335 99.5672 602.655 104.68 628.913 104.68C645.039 104.68 658.571 106.593 668.567 96.6371C675.927 89.307 691.269 72.5184 691.269 63.3155C691.269 47.6369 663.851 49.5273 644.096 49.5273C631.783 49.5273 621.075 48.9879 609.012 47.4207C595.917 45.7196 583.363 41.7204 570.536 39.2818C558.235 36.9433 544.773 37.0657 532.061 36.122C510.902 34.5514 478.459 30.8529 473.832 50.389C470.88 62.8509 471.903 74.956 470.883 87.5407C469.215 108.132 469.197 127.979 482.824 147.29C491.673 159.83 523.259 154.663 540.906 154.663C574.491 154.663 586.863 138.572 579.234 117.511C574.553 104.591 545.746 98.4085 529.407 95.6796C518.11 93.7926 471.367 83.3426 465.724 94.339" stroke="url(#paint0_linear)" stroke-width="7" stroke-linecap="round" stroke-linejoin="round"/>
<path d="M83.2905 315.55C61.9278 320.235 42.0922 321.913 29.4375 334.243C20.8481 342.611 16.6154 350.068 16.6154 360.616C16.6154 387.319 24.1027 412.262 51.0927 432.981C57.7328 438.078 61.9454 450.471 74.315 450.471C85.232 450.471 87.7439 439.387 90.4139 434.184C100.562 414.409 114.064 391.844 114.064 370.888C114.064 361.075 117.725 350.529 97.3949 350.529C76.2058 350.529 69.8349 351.244 53.9421 359.691C39.1565 367.548 23.2169 376.008 14.6208 387.174C13.3438 388.833 13.9909 400.237 12.7687 398.649C8.71983 393.389 13.1512 386.694 12.7687 380.484C12.4066 374.603 4.48876 377.165 11.4865 375.144C19.8752 372.723 27.5149 365.104 35.8486 361.356C41.9932 358.593 48.9309 356.88 54.9393 353.953C62.1544 350.438 72.9877 351.176 81.296 347.938C96.2786 342.099 117.669 342.201 134.437 342.201C152.848 342.201 155.094 347.898 155.094 358.858C155.094 372.362 157.659 385.062 157.659 398.464C157.659 410.645 156.209 423.147 160.223 435.109C162.066 440.602 169.529 462.13 182.163 462.13C201.03 462.13 214.264 463.749 232.597 459.169C244.036 456.312 245.589 447.337 251.403 441.402C263.035 429.529 261.904 415.456 269.212 402.166C277.693 386.74 260.775 387.174 243.567 387.174C235.743 387.174 221.921 385.328 215.216 388.1C208.112 391.036 203.745 394.599 196.125 396.798C183.645 400.401 166.688 401.53 157.089 408.458C140.89 420.149 175.61 434.762 175.61 447.972C175.61 453.685 170.481 458.359 170.481 464.166C170.481 470.335 166.867 480.863 161.648 486.19C146.889 501.254 102.725 495.444 78.1617 495.444C62.5808 495.444 63.6736 496.844 55.0818 505.068C46.1177 513.649 39.6952 521.332 39.6952 532.089C39.6952 546.585 42.2649 552.078 65.482 552.078C93.3247 552.078 121.784 553.743 149.966 553.743C168.647 553.743 177.951 553.091 189.002 544.119C200.567 534.73 191.27 519.183 188.575 508.677C187.442 504.263 185.719 500.364 180.169 497.48C176.919 495.791 158.391 494.194 157.801 492.853C152.951 481.827 190.066 485.45 198.69 485.45C207.519 485.45 212.064 484.319 216.641 489.522C220.701 494.138 228.497 494.609 234.022 497.48C241.314 501.269 265.914 499.126 275.623 498.776C279.711 498.628 280.138 496.167 283.316 495.074C285.686 494.259 292.175 494.262 293.431 493.038C294.4 492.095 291.473 495.444 289.727 495.444C283.981 495.444 278.235 495.444 272.488 495.444C232.728 495.444 194.465 495.036 156.377 500.534C143.35 502.414 159.497 508.68 161.506 509.695C168.895 513.428 173.384 514.643 177.604 520.43C184.302 529.613 188.432 541.994 188.432 552.078C188.432 563.828 168.632 561.814 156.377 566.236C147.114 569.578 129.99 577.448 120.475 578.821C100.769 581.666 85.7075 603.325 73.0328 612.042C59.9856 621.016 50.7948 634.325 45.394 645.726C39.0174 659.187 34.9913 680.328 39.8377 694.494C41.443 699.186 46.7262 701.13 49.3831 705.321C51.932 709.342 37.0403 702.116 35.7061 701.249C23.9582 693.619 11.4865 698.266 11.4865 685.333C11.4865 674.198 10.8261 663.542 11.4865 652.389C12.7172 631.606 49.5615 606.837 76.737 629.532C86.2431 637.471 92.0654 649.641 100.102 658.589C109.805 669.394 141.398 670.721 157.944 671.915C183.736 673.776 206.702 671.926 216.641 654.98C222.34 645.263 220.145 630.752 219.205 620.371C218.449 612.017 196.508 611.911 193.418 602.881C189.663 591.903 172.914 583.825 161.363 576.323C147.126 567.075 135.347 577.063 119.193 577.063C110.117 577.063 104.526 577.647 98.6771 572.899C95.3866 570.227 85.7976 567.435 80.7261 567.069C66.2214 566.022 48.9541 563.107 49.9529 552.078C50.2969 548.28 62.7751 550.482 62.7751 554.576C62.7751 562.172 65.1456 562.23 73.0328 567.069C83.8183 573.685 96.18 579.43 107.653 585.391C118.302 590.925 135.391 588.723 148.683 588.723C159.008 588.723 166.645 595.502 175.61 597.884C185.584 600.534 196.345 605.118 204.673 609.544C208.014 611.319 207.717 615.129 211.512 616.669C221.289 620.638 224.334 636.838 224.334 643.691C224.334 652.891 224.632 662.071 235.874 667.75C240.934 670.307 245.327 674.061 249.408 677.374C251.748 679.274 259.354 687.334 260.094 689.497C267.022 709.748 293.402 738.629 258.954 756.032C228.558 771.388 243.51 802.093 263.37 818.218C273.32 826.296 283.597 826.916 300.127 826.916C319.873 826.916 339.852 823.07 358.254 818.588C372.203 815.19 373.071 815.02 373.071 806.003C373.071 794.846 375.635 783.174 375.635 771.578C375.635 765.615 373.395 760.912 382.046 757.79C385.28 756.623 403.152 756.812 395.581 750.665C384.633 741.776 371.681 732.676 367.8 721.33C364.949 712.999 337.573 713.354 329.333 717.814C326.154 719.534 321.366 718.095 317.793 719.572C313.648 721.285 311.205 723.477 307.678 725.309C301.682 728.425 295.384 734.345 288.445 736.599C282.195 738.629 276.475 738.635 269.212 738.635C257.319 738.635 265.451 746.73 262.231 751.96C249.911 771.965 200.225 766.952 171.763 766.952C157.619 766.952 140.769 764.577 132.585 773.614C126.096 780.779 116.628 792.111 116.628 800.265C116.628 810.488 113.212 820.296 114.064 830.248C114.523 835.622 119.743 839.789 123.039 844.499C128.237 851.926 128.335 853.567 114.634 853.567C99.0782 853.567 83.93 851.902 67.9039 851.902C62.1887 851.902 51.6754 852.585 47.9584 855.603C43.8086 858.972 47.4523 862.881 40.9774 866.153C36.4272 868.451 30.3223 869.922 26.8731 872.723C19.86 878.417 19.1798 866.897 19.1798 863.191C19.1798 853.76 17.7514 837.332 23.7388 828.582C26.7283 824.213 21.7442 816.819 21.7442 811.925C21.7442 807.013 19.1798 802.284 19.1798 797.767C19.1798 787.166 54.5724 783.608 66.6217 783.608C84.657 783.608 97.6403 771.949 115.346 771.949C122.362 771.949 127.563 768.885 134.579 768.617C143.834 768.264 131.149 757.85 125.604 757.05C111.137 754.962 116.266 742.084 121.187 736.969C125.118 732.884 130.613 729.366 135.719 726.05C140.391 723.015 140.323 717.331 142.842 713.649C147.844 706.339 144.228 692.949 138.426 686.166C131.476 678.04 108.248 682.001 94.688 682.001C87.4836 682.001 69.8275 680.012 64.0573 682.927C56.3417 686.825 58.5196 691.786 54.5119 696.993C47.9384 705.532 45.4499 718.421 32.002 723.273C23.0446 726.506 3.10523 736.035 3.79324 743.632C4.20039 748.128 18.2504 751.996 22.884 754.459C27.7043 757.021 36.8223 766.876 37.1308 770.283C38.0051 779.937 60.4772 789 67.7615 797.674C80.1698 812.45 91.703 824.803 98.8196 840.982C100.747 845.364 107.678 849.349 108.792 855.14C109.675 859.726 112.167 868.252 117.198 871.52C125.68 877.029 148.749 879.089 162.788 878.553C167.537 878.371 172.18 869.399 175.61 866.893C181.798 862.371 186.264 857.496 194.843 854.4C204.786 850.812 227.043 853.567 238.438 853.567C255.81 853.567 261.362 861.814 275.623 867.263C284.741 870.747 286.028 871.89 297.42 871.89C312.057 871.89 309.843 858.657 304.401 853.567C298.225 847.79 296.138 840.832 296.138 833.949C296.138 827.335 293.568 823.585 305.114 823.585C326.073 823.585 348.208 819.547 369.082 822.012C382.108 823.55 395.883 843.648 401.849 850.236C404.656 853.334 416.199 860.293 420.798 862.821C432.154 869.062 438.03 868.59 451.143 870.594C459.973 871.944 473.237 873.668 481.347 870.224C492.223 865.605 486.916 855.717 492.317 849.403C496.396 844.634 508.564 844.674 508.986 837.281C509.417 829.716 508.986 822.086 508.986 814.516C508.986 810.725 506.709 802.67 510.98 799.895C515.543 796.931 528.234 798.6 534.63 798.6C549.756 798.6 563.308 801.273 567.967 810.352C572.185 818.57 577.788 829.791 567.398 836.54C557.076 843.244 557.71 854.628 557.71 863.561C557.71 874.227 605.963 876.887 616.407 876.887C641.092 876.887 663.066 878.186 678.095 862.729C690.881 849.58 692.223 833.645 681.372 820.254C676.043 813.677 668.504 793.603 685.931 793.603C706.901 793.603 727.264 794.539 747.477 795.268C754.482 795.521 762.511 799.483 769.275 798.507C774.635 797.733 779.418 792.186 785.944 791.937C807.9 791.098 814.573 814.019 828.257 821.919C837.769 827.411 856.973 852.365 839.512 855.973C831.938 857.539 825.268 858.132 817.999 860.23C814.023 861.378 812.108 863.024 807.741 863.654C801.524 864.551 801.206 869.935 793.637 870.224C783.67 870.605 805.332 879.835 799.906 874.296C795.979 870.288 794.485 859.068 787.938 857.269C763.718 850.613 696.189 861.768 696.189 836.078C696.189 824.195 724.107 833.634 735.937 827.657C744.95 823.104 760.777 823.585 771.982 823.585C784.245 823.585 796.234 821.722 807.884 820.346C822.546 818.615 837.232 808.806 837.232 798.6C837.232 785.591 839.797 773.029 839.797 760.289C839.797 750.572 839.797 740.856 839.797 731.139C839.797 723.109 840.728 721.456 830.394 716.981C822.202 713.434 811.229 707.998 801.33 707.079C794.921 706.485 780.126 702.84 775.829 699.584C773.681 697.957 769.724 696.393 766.853 695.327C764.616 694.497 765.215 691.405 763.434 689.96C758.354 685.835 780.633 686.998 783.379 686.998C797.469 686.998 811.804 684.313 824.41 680.336C850.409 672.133 860.312 655.959 860.312 637.861C860.312 627.999 856.74 627.674 841.791 623.702C830.168 620.614 818.691 617.816 807.599 614.541C796.618 611.299 780.447 614.311 770.7 617.872C762.664 620.808 758.994 627.279 751.467 629.995C735.415 635.787 721.032 640.522 712.145 627.404C707.186 620.083 692.647 616.436 687.926 608.156C684.815 602.7 683.113 596.89 680.66 591.314C679.928 589.649 678.238 602.851 678.238 605.38C678.238 609.241 686.017 616.278 689.92 619.538C701.902 629.544 721.859 634.401 734.655 643.691C744.109 650.554 742.349 660.121 742.349 668.676C742.349 673.704 744.946 682.369 741.779 686.998C739.645 690.116 734.895 693.203 730.809 695.327C723.826 698.955 737.72 695.4 740.354 694.031C747.826 690.149 788.272 692.788 796.202 694.957C811.475 699.134 836.017 691.088 850.055 687.831C858.965 685.764 863.62 681.981 873.704 679.966C882.507 678.206 893.732 677.845 902.91 678.763C917.606 680.231 932.602 681.527 947.503 679.41C951.734 678.809 983.405 673.322 983.405 675.339C983.405 686.368 979.508 700.24 973.717 710.688C969.86 717.647 957.484 721.301 948.073 724.939C936.879 729.267 927.386 732.68 916.872 737.802C911.463 740.437 902.625 748.13 899.349 751.96C893.286 759.049 882.99 763.896 872.137 767.692C864.916 770.217 858.852 772.802 851.194 773.707C837.787 775.29 837.388 774.741 842.931 781.943C852.929 794.93 858.473 808.366 880.828 815.627C891.053 818.947 901.867 821.942 913.026 823.955C925.038 826.122 932.759 835.484 945.081 836.818C956.736 838.08 965.985 843.106 973.147 834.319C980.077 825.816 979.538 818.071 980.983 808.686C982.394 799.518 990.356 775.561 977.706 768.987C973.814 766.965 959.188 768.617 953.914 768.617C943.342 768.617 941.398 773.396 934.111 776.946C925.04 781.365 919.294 784.319 919.294 791.937C919.294 796.306 919.501 800.926 915.305 804.43C903.201 814.538 894.078 827.54 885.957 839.409C881.719 845.602 878.898 868.416 887.239 872.63C892.459 875.267 893.217 878.395 900.488 879.848C912.083 882.165 933.196 885.441 944.938 882.717C976.723 875.344 1006.64 874.228 1032.13 858.564C1040.67 853.314 1052.68 851.902 1064.18 851.902C1076.41 851.902 1075.01 854.613 1083.99 859.305C1100.72 868.047 1112.82 874.246 1132.71 878.553C1145.01 881.215 1158.73 880.043 1171.46 881.514C1176.9 882.142 1184.55 882.572 1189.7 881.051C1198.39 878.485 1193.79 865.159 1196.82 860.23C1200.89 853.627 1201.32 846.013 1205.23 839.409C1209.93 831.474 1210.28 827.882 1220.61 822.66C1227.44 819.212 1245.96 818.588 1254.66 818.588C1283.86 818.588 1311.3 815.389 1329.6 833.394C1337.39 841.056 1342.42 849.875 1342.42 858.935C1342.42 868.091 1345.87 871.681 1355.25 878.645C1364.83 885.762 1366.56 888.547 1380.89 888.547C1387.88 888.547 1391.15 881.883 1391.15 877.627C1391.15 870.409 1393.1 863.162 1384.6 857.639C1372.28 849.639 1365.73 838.596 1359.81 828.212C1352.82 815.956 1331.4 809.17 1322.48 796.934C1317.81 790.53 1316.55 781.742 1326.47 777.686C1331.56 775.603 1333.74 774.368 1337.87 771.578C1344.4 767.166 1349.58 768.841 1356.39 766.026C1370.21 760.312 1385.48 764.221 1395.14 754.366C1406.46 742.809 1401.41 725.315 1401.41 711.984C1401.41 704.757 1400.41 705.002 1410.38 703.563C1418.93 702.33 1427.05 699.474 1427.05 693.661C1427.05 690.013 1424.05 685.972 1422.78 682.372C1418.15 669.243 1413.6 654.296 1401.55 643.043C1393.76 635.775 1384.1 635.063 1371.2 635.362C1357.72 635.675 1346.26 644.779 1333.31 647.022C1319.91 649.342 1307.49 653.044 1293.7 654.98C1271.4 658.112 1272.29 648.625 1266.92 637.953C1260.34 624.884 1260.36 613.479 1260.36 599.735C1260.36 576.675 1311.15 568.735 1339.72 568.735C1354.58 568.735 1375.9 566.141 1388.01 572.436C1406.69 582.138 1405.65 605.083 1406.54 620.001C1407.31 633.072 1411.07 650.499 1384.88 653.592C1362.53 656.232 1368.03 623.909 1370.63 617.132C1378.6 596.428 1380.07 575.67 1389.87 555.316C1394.36 545.975 1391.57 534.745 1394.28 525.056C1397.56 513.337 1400.32 507.104 1379.75 507.104C1358.11 507.104 1324.47 511.197 1324.47 528.758C1324.47 536.888 1330.72 562.911 1316.78 567.439C1307.49 570.455 1311.54 553.868 1311.65 550.227C1311.77 546.326 1319.43 535.114 1323.19 532.182C1336.84 521.541 1351.36 515.685 1370.06 508.77C1378.01 505.831 1390.57 501.481 1391.15 494.704C1391.85 486.48 1391.15 479.328 1396.28 471.477C1402.81 461.471 1411.66 454.232 1411.66 442.79C1411.66 428.87 1414.89 413.135 1409.67 399.575C1407.2 393.167 1405.1 382.624 1393.71 380.512C1381.63 378.269 1378.69 372.134 1368.07 368.482C1358.16 365.076 1352.82 358.161 1342.42 354.786C1327.6 349.97 1310.29 350.529 1294.27 350.529C1271.54 350.529 1255.75 362.189 1232.15 362.189C1228.35 362.189 1214.89 360.817 1212.21 362.559C1205.37 366.998 1228.64 368.852 1231.01 368.852C1260.48 368.852 1290.08 370.518 1319.2 370.518C1326.35 370.518 1340.53 372.49 1346.27 369.592C1356.13 364.612 1364.22 359.806 1376.33 356.822C1398.58 351.341 1417.26 342.017 1419.22 325.544C1420.63 313.594 1417.04 303.617 1398.27 299.263C1387.87 296.85 1380.26 292.395 1370.63 289.269C1364.83 287.385 1352.21 288.899 1345.84 288.899C1325.04 288.899 1304.24 288.899 1283.44 288.899C1277.77 288.899 1270.84 287.459 1270.62 292.23C1270.49 295.114 1269.39 299.856 1272.05 302.317C1278.98 308.749 1273.62 316.883 1277.03 323.971C1281.15 332.537 1285.92 343.082 1283.44 352.195C1282.49 355.709 1236.04 360.547 1230.16 361.819C1187.54 371.048 1118.79 379.587 1092.11 348.771C1081.42 336.434 1075.72 323.155 1075.72 308.887C1075.72 301.817 1075.21 295.632 1082.28 289.732C1085.4 287.127 1091.77 285.875 1096.38 284.827C1111.04 281.495 1121.17 274.69 1135.28 270.576C1155.36 264.72 1173.84 267.863 1193.69 272.242C1205.98 274.954 1213.42 281.309 1223.46 285.66C1242.79 294.027 1273 310.019 1278.31 325.544C1279.21 328.154 1288.64 343.084 1295.7 338.499C1307.51 330.822 1309.09 321.068 1309.09 310.645C1309.09 297.595 1291.13 296.299 1280.31 289.269C1271 283.22 1261.78 277.263 1253.95 270.484C1244.38 262.193 1238.94 252.623 1232.3 243.277C1227.68 236.775 1222.22 230.389 1221.9 223.012C1221.07 204.175 1179.26 208.724 1162.91 214.313C1143.05 221.104 1128.87 224.246 1110.2 213.85C1091.89 203.657 1106.9 185.486 1120.74 178.131C1131.03 172.665 1125.63 171.404 1118.04 166.471C1103.21 156.838 1088.23 143.908 1068.03 138.987C1045.67 133.54 1024.82 137.321 1003.35 137.321C985.002 137.321 947.503 138.661 947.503 153.978C947.503 166.07 947.503 178.161 947.503 190.253C947.503 197.575 945.388 206.383 950.637 213.203C955.868 219.997 966.747 222.072 973.147 227.268C981.623 234.15 1020.03 234.63 1030.85 229.767C1043.93 223.883 1042.08 208.299 1037.83 199.322C1034.76 192.856 1035.2 191.693 1025.72 188.957C1013.91 185.55 998.095 187.292 985.399 187.292C970.551 187.292 956.636 184.448 942.374 183.96C932.44 183.621 928.797 179.938 919.294 179.056C896.414 176.933 884.525 190.623 864.016 190.623C828.373 190.623 824.41 173.414 824.41 153.978C824.41 141.197 831.078 127.318 850.055 121.034C859.128 118.03 881.088 114.107 891.085 118.166C911.261 126.356 929.552 137.508 929.552 153.608C929.552 165.715 935.222 181.694 914.735 186.922C893.935 192.229 835.069 210.325 826.832 188.032C823.814 179.864 819.281 173.682 819.281 164.99C819.281 159.976 816.779 155.708 814.153 151.017C807.479 139.097 804.794 122.442 815.577 111.318C821.645 105.059 831.002 83.1808 820.706 77.4489C806.5 69.5398 798.477 57.0368 783.379 49.4098C754.167 34.6517 741.304 63.1513 729.526 76.0608C723.658 82.4933 724.137 96.3693 724.398 103.637C724.9 117.678 771.838 114.001 784.519 114.001C805.511 114.001 822.869 117.4 834.098 104.563C839.513 98.3723 838.42 87.7532 839.227 80.8728C840.704 68.2794 839.797 55.4654 839.797 42.8396C839.797 35.1373 842.513 29.0514 856.323 29.0514C861.008 29.0514 863.889 36.8557 867.436 39.4156C873.865 44.0556 886.398 41.7355 893.507 44.9679C906.662 50.9491 937.082 49.0396 952.632 49.0396C967.503 49.0396 975.712 44.1209 975.712 34.4186C975.712 27.9624 974.059 21.1628 987.251 22.4811C993.709 23.1264 998.745 26.6479 1005.2 27.2931C1012.26 27.9979 1018.55 27.2752 1024.44 30.717C1037.87 38.5718 1045.64 52.5907 1047.23 63.9383C1048.64 74.0031 1052.88 92.5688 1036.83 98.8252C1019.27 105.667 988.7 112.742 968.018 108.264C945.256 103.336 933.48 86.5805 919.579 75.0429C904.988 62.9332 883.817 63.6382 861.452 64.0308C847.55 64.2749 843.549 75.5354 842.219 82.4459C839.871 94.644 831.887 103.516 848.06 113.631C859.695 120.909 878.293 118.999 892.795 118.999C922.447 118.999 952.589 120.193 981.98 117.703C1005.17 115.738 1032.49 112.977 1044.38 97.5297C1052.91 86.4475 1052.73 73.5725 1065.32 64.0308C1077.3 54.9562 1087.84 46.9942 1105.07 41.4515C1120.53 36.4786 1147.94 27.5258 1166.62 29.1439C1194.61 31.5682 1201.38 58.487 1201.38 72.1742C1201.38 82.6295 1203.58 94.3715 1192.26 102.897C1182.43 110.307 1161.36 118.504 1146.39 118.999C1124.14 119.733 1116.32 101.632 1108.49 91.052C1099.12 78.3815 1088.55 68.7091 1088.55 54.0367C1088.55 45.2254 1094.77 28.4032 1110.2 25.9976C1129.29 23.0213 1156.17 25.0106 1175.45 26.0901C1202.39 27.5987 1224.52 36.9035 1236.71 52.7412C1244.04 62.2647 1244.18 76.0882 1242.41 86.6102C1240.69 96.8536 1200.07 103.607 1188.42 107.524C1167.47 114.56 1148.94 123.383 1126.87 128.993C1118.68 131.074 1093.68 132.605 1093.68 140.282C1093.68 144.941 1102.74 148.806 1106.5 152.127C1114.99 159.63 1118.95 170.457 1132.14 175.354C1155.99 184.208 1181.36 178.738 1197.11 165.823C1212.06 153.559 1217.71 138.235 1223.32 123.255C1225.03 118.704 1236.67 101.738 1220.61 104.192C1201.79 107.069 1176.53 119.975 1171.18 131.954C1164.27 147.416 1178.07 158.954 1187.42 171.653C1195.95 183.237 1213.62 191.584 1229.31 198.859C1239.35 203.522 1252.51 212.277 1265.63 212.277C1275.78 212.277 1285.62 213.943 1295.84 213.943C1312.61 213.943 1353.37 219.062 1366.07 210.241C1375.44 203.738 1374.78 188.814 1372.63 180.629C1369.41 168.416 1349.54 155.898 1332.88 150.832C1321.61 147.407 1286.77 140.289 1278.31 149.444C1268.83 159.708 1265.65 171.639 1265.49 183.405C1265.29 198.373 1272.62 210.927 1275.75 225.603C1277.71 234.785 1278.01 244.399 1282.02 253.364C1288.86 268.67 1313.63 282.726 1338.72 275.203C1357.33 269.625 1371.81 257.136 1386.16 247.997C1404.3 236.454 1411.47 226.679 1411.66 210.241C1411.9 190.309 1407.31 171.225 1405.11 151.387C1403 132.343 1406.2 115.982 1385.74 100.954C1370.8 89.9875 1350.43 83.3067 1334.16 73.3772C1324.55 67.5152 1316.5 61.8815 1301.68 66.1592C1283.32 71.4592 1281.67 89.2231 1281.02 100.213C1280.27 112.919 1283.64 124.219 1303.96 129.918C1362.89 146.448 1402.45 81.4399 1412.8 55.1471C1416.44 45.9061 1421.89 37.0343 1403.97 34.7887C1374.1 31.0438 1343.01 24.3232 1312.79 22.7588C1291.5 21.6566 1251.09 15.904 1247.68 34.6962C1245.22 48.2776 1280.37 57.0421 1297.12 53.6665C1306.94 51.6874 1309.09 41.8553 1309.09 36.547C1309.09 31.0509 1292.11 32.3827 1286.01 32.3827" stroke="#FBFBFF" stroke-width="7" stroke-linecap="round" stroke-linejoin="round"/>
<defs>
<linearGradient id="paint0_linear" x1="402.607" y1="0.964478" x2="402.607" y2="528.099" gradientUnits="userSpaceOnUse">
<stop stop-color="#FCFCFF"/>
<stop offset="1" stop-color="#FAFAFF"/>
</linearGradient>
</defs>
</svg>
