<svg width="1358" height="835" viewBox="0 0 1358 835" fill="none" xmlns="http://www.w3.org/2000/svg">
<path d="M3.99957 154.974C10.4122 155.822 13.9273 151.099 19.9996 143.973C24.6864 138.474 33.0001 149.424 37.5001 150.699C49.5001 150.699 43.5678 136.83 55.9995 138.474C62.3629 139.315 64.8456 156.835 68.9995 150.699" stroke="white" stroke-width="7" stroke-linecap="round" stroke-linejoin="round"/>
<path d="M1237 58.1365C1246.59 58.1365 1260.69 47.0631 1269.88 44C1276.18 41.9006 1281.88 50.2724 1288.12 51.2916C1293.88 51.2916 1310.95 43 1314.88 43C1323.13 43 1337.93 54.7274 1345.88 57" stroke="white" stroke-width="7" stroke-linecap="round" stroke-linejoin="round"/>
<path d="M465 21.6149C471.413 22.4627 477.153 20.7406 483.225 13.615C485 11.5322 490.5 17.6234 495 18.898C507 18.898 507.068 9.25423 519.5 10.8979C525.863 11.7393 533.846 25.0339 538 18.898" stroke="white" stroke-width="7" stroke-linecap="round" stroke-linejoin="round"/>
<path d="M113.571 548.559C126.746 550.462 129.058 543.387 140.026 535.231C165.526 531.731 152.027 564.731 190.026 537.231" stroke="white" stroke-width="7" stroke-linecap="round" stroke-linejoin="round"/>
<path d="M1044.5 819.501C1052.33 811.832 1062.39 830.198 1069.93 822.652C1074.43 818.148 1082 803.2 1087 809C1099.5 823.5 1118 829 1120.5 809" stroke="white" stroke-width="7" stroke-linecap="round" stroke-linejoin="round"/>
<path d="M1272.62 408.884C1303.54 427.168 1316 400.706 1321.52 400.706C1326.5 400.706 1347.11 414.4 1352.86 416.692" stroke="white" stroke-width="7" stroke-linecap="round" stroke-linejoin="round"/>
</svg>
