<svg width="35" height="35" viewBox="0 0 35 35" fill="none" xmlns="http://www.w3.org/2000/svg">
<path d="M26.25 17.5C26.25 14.0583 24.2667 11.1028 21.3889 9.66389V13.9611L26.1528 18.725C26.2111 18.3361 26.25 17.9278 26.25 17.5V17.5ZM31.1111 17.5C31.1111 19.3278 30.7222 21.0389 30.0611 22.6333L32.9972 25.5694C34.2806 23.1583 35 20.4167 35 17.5C35 9.17778 29.1861 2.21667 21.3889 0.447222V4.45278C27.0083 6.125 31.1111 11.3361 31.1111 17.5ZM2.46944 0L0 2.46944L9.19722 11.6667H0V23.3333H7.77778L17.5 33.0556V19.9694L25.7639 28.2333C24.4611 29.2444 23.0028 30.0417 21.3889 30.5278V34.5333C24.0722 33.9306 26.5028 32.6861 28.5639 31.0139L32.5306 35L35 32.5306L17.5 15.0306L2.46944 0ZM17.5 1.94444L13.4361 6.00833L17.5 10.0722V1.94444Z" fill="#ADADAD"/>
</svg>
