<svg width="34" height="33" viewBox="0 0 34 33" fill="none" xmlns="http://www.w3.org/2000/svg">
<path d="M26.3924 23.7394C27.3843 22.4713 28.0928 21.1089 28.5179 19.6524C28.943 18.1958 29.0791 16.6662 28.9248 15.0637C28.7712 13.4611 28.3037 11.9477 27.5227 10.5228C26.7867 9.18017 25.8212 8.01976 24.6255 7.04152C23.4309 6.06316 22.103 5.33848 20.6447 4.8672L21.436 2.11679C21.569 1.68743 21.4602 1.33742 21.1096 1.06617C20.7539 0.785933 20.3842 0.751089 20.0006 0.961379L13.862 4.32639C13.6245 4.45656 13.4665 4.656 13.3881 4.92469C13.3098 5.19354 13.3356 5.44661 13.4658 5.68406L16.8305 11.8221C17.0408 12.2059 17.3712 12.3751 17.8217 12.33C18.263 12.29 18.5431 12.0533 18.662 11.6198L19.524 8.70627C20.4775 9.01529 21.3415 9.49189 22.1169 10.1367C22.8918 10.7811 23.5247 11.5507 24.0154 12.4458C24.5362 13.3958 24.848 14.4039 24.951 15.4693C25.0542 16.5353 24.9632 17.556 24.6784 18.5318C24.3937 19.5075 23.9211 20.417 23.2607 21.2602C22.6001 22.1032 21.795 22.7851 20.8453 23.3057C19.895 23.8266 18.8871 24.1385 17.8217 24.2416C16.7556 24.3449 15.7347 24.2541 14.7589 23.9694C13.783 23.6846 12.8735 23.2121 12.0306 22.5518C11.1874 21.8915 10.5054 21.0861 9.98502 20.1368C9.38915 19.0498 9.06338 17.8921 9.00754 16.6635C8.95178 15.435 9.17506 14.2495 9.67754 13.1069C9.73383 12.993 9.73168 12.8586 9.66944 12.7016C9.59431 12.5645 9.49068 12.4728 9.35839 12.4266L6.4384 11.5861C6.32506 11.5533 6.21043 11.5656 6.09374 11.6237C5.97689 11.6819 5.89062 11.7679 5.83432 11.8818C5.17428 13.5385 4.90106 15.2562 5.01502 17.0349C5.12898 18.8137 5.61634 20.4888 6.47751 22.0598C7.25858 23.4846 8.2833 24.6928 9.55149 25.6845C10.8197 26.6761 12.1821 27.384 13.6386 27.8094C15.0955 28.2342 16.625 28.3703 18.2274 28.2161C19.83 28.0621 21.3439 27.5944 22.7687 26.8133C24.1939 26.0321 25.4017 25.0076 26.3935 23.7394" fill="#555555"/>
</svg>
