<?xml version="1.0" encoding="UTF-8" standalone="no"?><!DOCTYPE svg PUBLIC "-//W3C//DTD SVG 1.1//EN" "http://www.w3.org/Graphics/SVG/1.1/DTD/svg11.dtd"><svg width="100%" height="100%" viewBox="0 0 400 460" version="1.1" xmlns="http://www.w3.org/2000/svg" xmlns:xlink="http://www.w3.org/1999/xlink" xml:space="preserve" xmlns:serif="http://www.serif.com/" style="fill-rule:evenodd;clip-rule:evenodd;stroke-linejoin:round;stroke-miterlimit:2;"><g id="ico-africa"><path d="M216.306,47.517c3.635,-3.414 -0.433,-12.396 4.897,-16.048c7.904,-5.415 25.287,2.642 31.24,4.682c3.932,1.347 30.983,5.756 32.541,7.357c9.515,9.778 22.682,44.711 24.08,46.149c5.182,5.325 10.42,15.393 14.319,21.403c7.377,11.373 7.464,25.728 15.619,34.109c7.512,7.72 16.834,15.962 24.731,24.078c2.088,2.146 8.717,1.338 11.715,1.338c12.396,0 22.94,-9.369 23.429,-7.357c6.54,26.884 -39.251,70.654 -54.018,89.623c-10.702,13.748 -3.483,62.79 -7.159,72.233c-6.903,17.736 -26.147,19.081 -29.937,30.766c-2.764,8.519 5.142,18.19 1.301,26.084c-4.545,9.343 -12.638,11.261 -14.969,16.052c-3.047,6.263 -4.429,15.188 -8.46,21.402c-10.204,15.73 -27.527,26.283 -39.049,38.124c-1.525,1.566 -10.454,1.992 -12.366,1.337c-20.297,-6.953 -21.407,4.973 -27.986,-22.071c-1.152,-4.735 -5.306,-9.104 -6.508,-14.045c-0.892,-3.667 -4.953,-6.967 -6.508,-9.364c-4.472,-6.894 -2.627,-18.429 -7.159,-25.415c-3.907,-6.023 -11.317,-23.522 -13.667,-30.766c-4.204,-12.958 2.47,-33.236 9.112,-43.475c3.172,-4.89 -2.474,-14.312 -3.906,-18.726c-1.194,-3.682 -0.318,-17.048 -2.603,-19.396c-8.081,-8.305 -14.926,-19.353 -22.779,-27.422c-5.34,-5.488 11.353,-23.56 9.112,-32.772c-2.13,-8.755 -16.493,-0.893 -23.43,-2.676c-7.99,-2.053 -10.783,-9.84 -16.921,-14.045c-13.46,-9.222 -39.259,18.432 -63.781,10.032c-9.559,-3.275 -23.132,-20.428 -29.937,-27.422c-0.788,-0.809 -24.072,-11.342 -26.684,-19.396c-1.665,-5.133 0.622,-15.326 2.603,-19.396c5.079,-10.44 -6.266,-47.068 10.413,-64.207c4.582,-4.709 20.897,-18.624 24.08,-24.078c2.606,-4.461 -1.072,-9.835 1.302,-14.714c4.565,-9.383 19.816,-26.903 28.636,-31.435c1.063,-0.547 3.921,2.904 5.207,3.344c2.163,0.741 13.884,1.227 16.27,0c9.055,-4.653 22.654,-5.319 33.193,-8.026c3.599,-0.925 28.969,-5.676 32.541,-2.006c5.137,5.28 2.068,16.839 7.158,22.07c12.969,13.329 33.577,23.795 54.328,24.075c-0.274,0.257 -0.591,0.483 -0.96,0.672l1.302,-0.668c-0.114,-0.001 -0.228,-0.002 -0.342,-0.004Zm167.603,260.847c1.597,18.979 -20.357,14.604 -24.731,28.09c-2.049,6.318 -2.604,12.026 -2.604,18.727c0,6.25 -1.301,12.277 -1.301,18.058c0,5.267 -0.959,12.234 1.953,16.721c0.918,1.417 14.873,3.441 16.27,2.007c4.693,-4.822 19.861,-67.183 17.572,-74.24c-1.288,-3.969 -3.052,-5.658 -6.508,-8.027l-0.651,-1.336Z" style="fill:#3e7d53;fill-rule:nonzero;"/><path d="M215.346,48.189c5.262,-2.703 0.125,-12.793 5.857,-16.72c7.904,-5.415 25.287,2.642 31.24,4.682c3.932,1.347 30.983,5.756 32.541,7.357c9.515,9.778 22.682,44.711 24.08,46.149c5.182,5.325 10.42,15.393 14.318,21.403c7.378,11.373 7.465,25.728 15.62,34.109c7.512,7.72 16.834,15.962 24.731,24.078c2.088,2.146 8.717,1.338 11.715,1.338c12.397,0 22.94,-9.369 23.429,-7.357c6.54,26.884 -39.251,70.654 -54.018,89.623c-10.702,13.748 -3.483,62.79 -7.159,72.233c-6.903,17.736 -26.147,19.081 -29.937,30.766c-2.764,8.519 5.142,18.19 1.301,26.085c-4.545,9.342 -12.638,11.26 -14.969,16.051c-3.046,6.263 -4.429,15.188 -8.46,21.402c-10.204,15.73 -27.527,26.283 -39.049,38.124c-1.525,1.566 -10.454,1.992 -12.366,1.337c-4.904,-2.825 -17.661,-1.83 -21.022,-4.527c-3.627,-2.91 -4.703,-8.92 -5.841,-13.176l7.989,-392.957Zm168.563,260.175c1.597,18.979 -20.357,14.604 -24.731,28.09c-2.049,6.318 -2.604,12.026 -2.604,18.727c0,6.25 -1.301,12.277 -1.301,18.058c0,5.267 -0.959,12.234 1.953,16.721c0.918,1.417 14.873,3.441 16.27,2.007c4.693,-4.822 19.861,-67.183 17.572,-74.24c-1.287,-3.969 -3.052,-5.658 -6.508,-8.027l-0.651,-1.336Z" style="fill:#fff;fill-opacity:0.07;fill-rule:nonzero;"/><g transform="matrix(0.999243,0.0388923,-0.0388923,0.999243,0.261008,-0.0689956)"><text x="157.545px" y="176.212px" style="font-family:'BerlinSansFBDemi-Bold', 'Berlin Sans FB Demi', sans-serif;font-weight:700;font-size:48px;fill:#fff;">AFRICA</text></g></g></svg>