<?xml version="1.0" encoding="UTF-8" standalone="no"?><!DOCTYPE svg PUBLIC "-//W3C//DTD SVG 1.1//EN" "http://www.w3.org/Graphics/SVG/1.1/DTD/svg11.dtd"><svg width="100%" height="100%" viewBox="0 0 378 300" version="1.1" xmlns="http://www.w3.org/2000/svg" xmlns:xlink="http://www.w3.org/1999/xlink" xml:space="preserve" xmlns:serif="http://www.serif.com/" style="fill-rule:evenodd;clip-rule:evenodd;stroke-linejoin:round;stroke-miterlimit:2;"><g id="ico-asia"><path d="M228.543,248.302c-0.132,4.041 1.499,7.897 3.226,11.483c1.444,2.996 5.748,5.487 7.836,7.655c5.393,5.598 7.547,13.574 12.906,19.137c1.904,1.975 7.599,5.417 10.141,7.177c2.978,2.059 8.063,1.4 11.524,1.912c1.833,0.273 20.28,4.154 20.28,3.35c0,-2.189 -23.182,-7.726 -26.733,-9.568c-8.021,-4.163 -10.184,-13.942 -14.751,-21.051c-4.929,-7.674 -16.754,-13.986 -23.507,-18.659l-0.922,-1.436Zm70.523,-1.434c-8.348,-3.081 -10.402,3.911 -15.211,7.654c-5.895,4.59 -12.326,6.964 -13.828,8.134c-3.489,2.716 4.471,11.338 5.993,12.917c2.313,2.402 10.984,9.171 14.749,5.263c4.873,-5.059 10.095,-25.548 8.297,-33.012l0,-0.956Zm-288.523,-214.423c5.316,13.277 18.813,1.795 26.711,-2.303c1.797,-0.933 5.567,0.785 7.836,0c5.311,-1.838 12.034,-4.2 17.976,-5.742c4.476,-1.162 26.816,3.685 25.813,-0.478c-0.884,-3.672 -5.075,-2.875 -6.914,-4.785c-1.588,-1.649 7.226,-8.766 11.984,-3.826c4.77,4.95 3.541,20.131 11.063,18.179c10.21,-2.65 1.32,-14.636 1.382,-14.831c0.686,-2.132 22.143,-15.791 24.43,-16.266c11.71,-2.431 26.172,-2.393 38.258,-2.393c14.813,0 -8.713,9.616 -6.915,11.483c3.226,3.347 31.357,-3.664 37.798,-1.436c4.382,1.517 10.014,1.643 14.75,2.872c11.901,3.087 18.412,11.02 32.265,1.434c4.02,-2.781 43.25,6.512 49.32,8.612c11.466,3.967 26.263,-2.873 37.797,-0.478c8.419,1.747 16.504,3.683 24.43,5.741c6.118,1.587 13.936,-0.366 18.437,4.306c4.98,5.168 -15.682,1.18 -12.446,6.219c1.33,2.07 4.392,3.198 5.993,4.306c4.61,3.19 -17.841,9.905 -18.438,10.525c-3.815,3.96 12.484,23.589 8.759,24.878c-8.277,2.864 -19.095,-6.754 -20.742,-15.309c-0.722,-3.742 2.437,-11.277 0.46,-14.353c-3.547,-5.522 -24.007,6.229 -27.656,7.177c-5.377,1.395 -18.471,-1.299 -20.281,6.218c-4.096,17.006 20.871,13.795 25.812,29.184c1.324,4.122 -1.083,18.611 -4.609,21.051c-5.558,3.846 -9.3,-4.561 -10.601,14.353c-0.236,3.43 14.367,8.728 11.984,12.439c-5.879,9.152 -18.097,-12.043 -20.743,-13.874c-1.473,-1.02 -4.477,-0.387 -5.991,-1.436c-3.869,-2.676 -3.272,-8.565 -11.063,-0.478c-0.717,0.743 -0.461,1.95 -0.461,2.87c0,10.675 11.356,2.35 12.445,5.742c0.839,2.611 -0.996,7.424 0,10.525c3.966,12.348 12.945,17.581 8.297,32.055c-1.956,6.088 -22.695,16.767 -27.195,17.701c-3.98,0.826 -9.361,-3.201 -12.906,0.478c-4.451,4.62 20.122,24.086 6.453,38.274c-8.093,8.4 -21.633,-16.364 -23.969,-9.09c-4.535,14.123 8.545,18.734 11.524,31.099c0.49,2.038 6.183,6.246 2.765,8.611c-2.265,1.567 -12.7,-14.882 -13.828,-17.223c-1.063,-2.207 -5.374,-4.295 -5.993,-6.22c-2.139,-6.661 2.202,-27.022 -3.686,-31.098c-2.698,-1.866 -8.759,2.153 -11.063,-1.435c-1.598,-2.487 0.66,-6.627 -0.922,-9.09c-1.493,-2.325 -9.422,-7.176 -12.445,-7.176c-3.094,0 -7.065,-0.056 -9.219,1.435c-3.803,2.631 -18.555,22.015 -19.82,27.27c-0.713,2.958 0.923,17.701 -1.844,19.137c-0.932,0.483 -5.311,0.229 -5.992,-0.478c-3.435,-3.566 -2.684,-10.272 -4.149,-14.832c-1.976,-6.153 -7.313,-10.27 -8.757,-16.266c-1.009,-4.188 -2.427,-11.432 -4.61,-14.831c-0.85,-1.324 -7.873,-0.346 -10.14,-1.913c-4.203,-2.909 -5.639,-11.201 -10.602,-12.918c-6.472,-2.24 -15.512,2.236 -21.664,-0.957c-1.653,-0.858 -5.023,-4.768 -6.453,-5.262c-3.556,-1.232 -13.92,-2.058 -18.898,-3.35c-3.959,-1.027 -3.05,-5.361 -5.532,-6.22c-9.022,-3.121 4.084,17.157 5.071,18.181c2.992,3.106 26.132,-1.329 24.429,5.741c-5.318,22.079 -11.636,17.78 -26.734,28.227c-2.903,2.009 -7.145,8.672 -10.602,9.568c-2.878,0.747 -8.303,-3.119 -9.679,-5.262c-2.132,-3.318 0.12,-9.922 -3.227,-13.396c-11.993,-12.449 -25.813,-31.186 -25.813,-50.713c0,-1.968 -0.399,-17.191 -0.46,-17.223c-7.367,-3.823 -12.424,15.353 -24.891,-10.525c-0.24,-0.5 0.385,-5.077 0.923,-5.264c1.804,-0.624 5.614,1.056 7.835,0.48c6.431,-1.669 11.649,-3.35 18.899,-3.35c1.743,0 11.578,0.706 11.062,-1.435c-1.265,-5.252 -7.06,-7.782 -8.297,-12.918c-1.333,-5.535 4.146,-10.529 -0.46,-15.309c-4.82,-5.002 -30.49,-10.808 -33.649,-23.921c-2.172,-9.017 6.307,-15.437 4.61,-22.487c-1.122,-4.655 -10.582,-11.991 -6.915,-17.701c0.341,-0.53 26.207,2.254 27.195,4.306c2.439,5.062 -13.726,4.659 -17.492,5.174Zm293.593,168.494c-6.954,11.029 5.185,16.684 10.141,24.4c0.659,1.025 3.616,23.516 10.14,16.744c1.447,-1.502 1.305,-6.627 0.922,-8.612c-0.905,-4.7 -5.748,-7.754 -7.835,-11.003c-3.29,-5.121 -4.824,-13.618 -9.22,-18.18c-0.977,-1.015 -3.937,-1.739 -4.609,-1.914l0.461,-1.435Zm31.98,-78.593c2.108,-1.723 0.627,-5.787 3.051,-7.045c6.361,-3.301 7.778,23.533 5.071,27.748c-2.422,3.77 -22.132,4.329 -20.281,-1.434c2.953,-9.196 19.052,-3.834 12.159,-19.269Zm0,0c-0.055,0.045 -0.114,0.089 -0.175,0.132l-0.922,-2.392c0.416,0.799 0.781,1.551 1.097,2.26Zm-325.573,-89.901c-0.17,-0.423 -0.331,-0.872 -0.484,-1.347l0,1.436c0.125,-0.033 0.287,-0.062 0.484,-0.089Z" style="fill:#dc4747;fill-rule:nonzero;"/><path d="M228.543,248.302c-0.132,4.041 1.499,7.897 3.226,11.483c1.444,2.996 5.748,5.487 7.836,7.655c5.393,5.598 7.548,13.574 12.906,19.137c1.904,1.975 7.599,5.417 10.141,7.177c2.978,2.059 8.063,1.4 11.524,1.912c1.834,0.273 20.281,4.154 20.281,3.35c0,-2.189 -23.183,-7.726 -26.734,-9.568c-8.021,-4.163 -10.184,-13.942 -14.751,-21.051c-4.929,-7.674 -16.754,-13.986 -23.507,-18.659l-0.922,-1.436Zm70.523,-1.434c-8.348,-3.081 -10.402,3.911 -15.211,7.654c-5.895,4.59 -12.326,6.964 -13.828,8.134c-3.489,2.716 4.471,11.338 5.993,12.917c2.313,2.402 10.984,9.171 14.749,5.263c4.874,-5.059 10.095,-25.548 8.297,-33.012l0,-0.956Zm-119.321,-235.673c4.449,-0.563 8.894,-1.172 13.368,-1.489c2.266,-0.16 4.635,-0.266 6.852,0.341c4.382,1.517 10.014,1.643 14.75,2.87c11.901,3.089 18.412,11.022 32.266,1.436c4.019,-2.781 43.249,6.512 49.319,8.612c11.466,3.967 26.263,-2.873 37.797,-0.478c8.419,1.747 16.504,3.683 24.43,5.741c6.118,1.587 13.936,-0.366 18.437,4.306c4.98,5.168 -15.682,1.18 -12.446,6.219c1.33,2.07 4.392,3.198 5.993,4.305c4.61,3.191 -17.841,9.906 -18.438,10.526c-3.815,3.96 12.484,23.589 8.759,24.878c-8.277,2.864 -19.095,-6.754 -20.742,-15.309c-0.722,-3.742 2.437,-11.277 0.46,-14.353c-3.547,-5.522 -24.007,6.229 -27.656,7.177c-5.377,1.395 -18.471,-1.299 -20.281,6.218c-4.096,17.006 20.871,13.795 25.812,29.184c1.324,4.122 -1.083,18.611 -4.609,21.051c-5.558,3.846 -9.3,-4.561 -10.601,14.353c-0.236,3.43 14.368,8.728 11.984,12.439c-5.879,9.152 -18.097,-12.043 -20.743,-13.874c-1.473,-1.02 -4.477,-0.387 -5.991,-1.436c-3.869,-2.676 -3.271,-8.565 -11.063,-0.478c-0.717,0.743 -0.461,1.95 -0.461,2.87c0,10.675 11.356,2.35 12.445,5.742c0.839,2.611 -0.995,7.424 0,10.525c3.966,12.348 12.945,17.581 8.297,32.055c-1.956,6.088 -22.695,16.767 -27.195,17.701c-3.979,0.826 -9.361,-3.201 -12.906,0.478c-4.451,4.62 20.122,24.086 6.453,38.274c-8.093,8.4 -21.633,-16.364 -23.969,-9.09c-4.535,14.123 8.545,18.734 11.524,31.099c0.49,2.038 6.183,6.246 2.765,8.611c-2.265,1.567 -12.7,-14.882 -13.828,-17.223c-1.062,-2.207 -5.374,-4.295 -5.992,-6.22c-2.139,-6.661 2.201,-27.022 -3.687,-31.098c-2.698,-1.866 -8.759,2.153 -11.063,-1.435c-1.598,-2.487 0.66,-6.627 -0.922,-9.09c-1.493,-2.325 -9.422,-7.176 -12.445,-7.176c-3.094,0 -7.065,-0.056 -9.219,1.434c-6.572,6.236 -12.902,14.479 -17.454,22.369l0,-202.065Zm124.391,189.744c-6.954,11.029 5.185,16.684 10.141,24.4c0.659,1.025 3.616,23.516 10.14,16.744c1.447,-1.502 1.305,-6.627 0.923,-8.612c-0.906,-4.7 -5.749,-7.754 -7.836,-11.003c-3.29,-5.121 -4.824,-13.618 -9.22,-18.18c-0.977,-1.015 -3.937,-1.739 -4.609,-1.914l0.461,-1.435Zm31.98,-78.593c2.108,-1.723 0.628,-5.787 3.051,-7.045c6.361,-3.301 7.778,23.533 5.071,27.748c-2.422,3.77 -22.132,4.329 -20.281,-1.434c2.953,-9.196 19.052,-3.834 12.159,-19.269Zm0,0c-0.055,0.045 -0.114,0.089 -0.175,0.132l-0.922,-2.392c0.416,0.799 0.781,1.551 1.097,2.26Z" style="fill:#fff;fill-opacity:0.07;fill-rule:nonzero;"/><g transform="matrix(0.999243,0.0388923,-0.0388923,0.999243,-1.94922,0.746778)"><text x="135.472px" y="119.812px" style="font-family:'BerlinSansFBDemi-Bold', 'Berlin Sans FB Demi', sans-serif;font-weight:700;font-size:48px;fill:#fff;">ASIA</text></g></g></svg>