<?xml version="1.0" encoding="UTF-8" standalone="no"?><!DOCTYPE svg PUBLIC "-//W3C//DTD SVG 1.1//EN" "http://www.w3.org/Graphics/SVG/1.1/DTD/svg11.dtd"><svg width="100%" height="100%" viewBox="0 0 340 299" version="1.1" xmlns="http://www.w3.org/2000/svg" xmlns:xlink="http://www.w3.org/1999/xlink" xml:space="preserve" xmlns:serif="http://www.serif.com/" style="fill-rule:evenodd;clip-rule:evenodd;stroke-linejoin:round;stroke-miterlimit:2;"><g id="ico-europe"><path d="M236.035,0c3.744,0.02 7.694,1.668 10.717,2.449c3.629,0.938 7.549,0.497 11.252,1.453c4.593,1.187 8.462,5.579 13.128,6.785c10.095,2.608 21.272,9.533 33.289,13.082c3.905,1.154 5.947,5.117 9.377,6.299c5.573,1.92 12.822,3.342 17.816,6.784c1.997,1.376 2.879,4.637 5.158,5.814c0.114,0.059 2.695,1.573 2.813,1.938c0.322,0.998 -7.117,19.865 -7.971,20.837c-2.25,2.559 -4.636,4.128 -6.563,6.783c-1.809,2.492 -2.683,5.68 -4.689,7.753c-0.812,0.839 -6.408,9.852 -4.688,11.628c1.952,2.019 2.839,-2.744 4.22,5.815c0.218,1.355 0.017,8.974 1.406,9.692c1.1,0.567 4.688,-2.283 4.688,0.969c0,0.543 0.318,5.66 0,5.814c-1.816,0.884 -11.627,3.166 -14.065,4.845c-3.379,2.328 -4.301,6.199 -8.439,7.269c-5.922,1.53 -12.08,-0.785 -17.348,1.938c-3.04,1.57 -7.872,10.103 -7.033,13.567c0.414,1.715 2.672,4.821 1.406,6.783c-0.921,1.43 -4.114,0.321 -5.157,1.939c-0.61,0.945 0.468,3.233 0.468,4.361c0,6.392 4.832,8.795 9.378,11.145c1.204,0.622 5.507,-0.854 6.095,0.969c1.27,3.939 -2.491,6.418 -3.282,9.69c-0.93,3.848 3.777,7.375 4.689,11.145c0.223,0.924 -0.247,2.652 0.468,3.391c1.257,1.3 4.356,2.009 6.096,2.908c0.973,0.504 1.785,2.595 2.813,3.392c1.37,1.063 2.92,1.043 4.22,1.938c2.727,1.879 2.382,5.834 5.157,7.269c2.466,1.274 5.091,0.761 7.502,2.422c0.581,0.4 0.444,1.427 0.938,1.938c0.613,0.634 2.517,1.024 2.813,1.939c0.849,2.633 5.153,12.762 1.875,15.02c-4.596,3.167 -10.193,-6.382 -14.534,-3.391c-2.846,1.959 -2.57,7.907 -3.751,8.721c-2.957,2.037 -13.542,-1.368 -7.033,8.722c2.036,3.158 5.157,2.169 5.157,6.783c0,0.486 0.331,1.112 0,1.455c-2.542,2.627 -6.208,2.985 -8.908,4.845c-3.656,2.519 -5.583,6.265 -9.377,9.207c-2.994,2.32 -10.482,3.477 -14.067,5.33c-3.06,1.581 -3.624,7.547 -7.032,8.722c-3.25,1.119 -5.794,-2.38 -9.378,-1.455c-5.217,1.349 -8.271,6.984 -13.127,8.238c-3.685,0.952 -8.913,-2.259 -12.19,0c-2.095,1.444 -3.375,5.863 -5.158,6.784c-2.407,1.243 -10.018,-4.385 -11.252,-6.3c-1.284,-1.989 -3.912,-3.074 -5.627,-4.845c-1.025,-1.059 -0.322,-3.724 -1.407,-4.846c-2.956,-3.054 -0.715,-0.381 -2.344,-2.907c-0.222,-0.343 -5.043,-1.82 -6.095,-2.907c-1.237,-1.279 2.018,-7.921 0.468,-8.722c-1.616,-0.836 -0.623,5.652 -0.937,5.815c-3.254,1.682 1.035,-6.204 -4.219,-4.846c-5.013,1.295 -5.699,2.795 -9.378,5.33c-1.293,0.891 -2.436,0.032 -3.751,0.485c-2.883,0.994 2.565,8.465 3.282,9.207c1.208,1.247 5.471,-0.646 7.034,0.969c0.444,0.459 -0.262,4.9 -0.47,5.329c-1.158,2.394 -6.14,2.721 -5.158,6.784c0.531,2.19 2.226,3.759 1.407,6.299c-0.315,0.976 -7.919,-0.916 -8.439,-1.453c-1.185,-1.225 -6.711,-8.846 -7.033,-10.176c-0.311,-1.286 -0.056,-4.903 -0.938,-5.814c-1.017,-1.052 -2.138,-0.756 -3.282,-1.938c-0.592,-0.614 -0.618,-1.763 -0.938,-2.424c-0.932,-1.928 -3.184,-2.504 -3.751,-4.845c-1.083,-4.481 -2.162,-8.831 -4.219,-13.083c-1.595,-3.295 -13.332,-6.994 -16.41,-10.176c-0.864,-0.893 -1.938,-2.487 -2.813,-3.391c-1.32,-1.364 -4.096,-0.883 -5.627,-1.938c-0.429,-0.296 -1.299,-1.74 -1.875,-1.938c-0.822,-0.283 -3.745,0.497 -4.22,-0.485c-0.843,-1.744 0.114,-6.378 -4.22,-3.391c-2.077,1.43 -0.458,10.181 1.407,11.143c5.072,2.621 8.948,9.601 14.066,13.568c1.99,1.543 7.723,4.176 10.314,4.846c0.607,0.157 1.318,-0.289 1.876,0c3,1.55 4.568,5.205 6.565,7.268c4.695,4.853 -5.397,2.669 -6.565,3.876c-0.591,0.611 1.648,8.394 -2.344,11.145c-0.486,0.335 -4.077,4.508 -4.22,4.361c-2.062,-2.131 3.951,-11.958 0,-15.022c-3.194,-2.475 -5.841,-5.067 -8.909,-8.236c-4.952,-5.119 -22.504,-12.571 -22.504,-20.837c0,-1.868 -1.02,-3.333 -2.345,-4.36c-2.891,-2.241 -6.145,-1.657 -8.908,0.484c-0.864,0.67 -2.458,0.603 -3.282,1.454c-0.867,0.897 -0.954,2.193 -1.875,2.907c-1.622,1.258 -11.142,4.961 -13.128,2.908c-0.471,-0.488 -2.086,-2.406 -2.814,-2.908c-2.604,-1.794 -6.079,6.409 -6.564,6.784c-0.395,0.307 -1.057,0.124 -1.406,0.485c-0.65,0.671 -0.83,6.094 -4.22,8.722c-4.068,3.153 -11.637,4.67 -14.066,9.69c-0.837,1.73 -1.721,11.685 -2.344,12.114c-1.722,1.186 -3.645,1.307 -5.158,3.392c-1.247,1.718 -0.315,4.687 -1.875,6.299c-2.453,2.534 -7.455,1.223 -10.315,0.485c-4.765,-1.231 -10.685,3.509 -15.941,2.422c-6.058,-1.251 -4.396,-5.027 -7.502,-8.237c-1.294,-1.337 -4.288,-0.047 -5.627,-0.969c-1.354,-0.933 -1.468,-4.278 -1.875,-5.33c-1.311,-3.387 -1.368,-7.713 -3.281,-9.691c-0.726,-0.75 1.758,-8.602 2.343,-9.206c1.789,-1.849 5.471,-6.143 6.096,-8.722c1.819,-7.522 -3.021,-11.832 4.22,-17.444c0.451,-0.35 0.433,-1.194 0.938,-1.453c5.177,-2.677 17.886,1.489 22.504,3.876c3.94,2.035 8.474,3.812 12.66,5.329l-1.406,0.485c3.393,0 3.042,-1.81 4.688,-4.361c0.503,-0.78 2.068,-2.051 2.344,-2.907c1.707,-5.291 -1.773,-14.619 -4.219,-18.412c-0.873,-1.352 0.308,-4.693 -0.47,-6.3c-0.604,-1.25 -4.491,-4.985 -6.095,-5.814c-1.737,-0.898 -5.354,-1.25 -2.344,-4.362c2.078,-2.147 12.258,0.277 14.066,-0.969c1.476,-1.017 -0.638,-4.515 0.937,-5.329c0.505,-0.261 0.54,1.042 0.938,1.453c0.387,0.4 4.553,0.157 5.158,0c0.965,-0.249 1.372,-1.418 1.875,-1.938c2.481,-2.564 7.493,0.025 8.909,-4.361c0.388,-1.205 -0.51,-3.35 0.468,-4.361c1.951,-2.016 5.995,-0.866 7.971,-2.907c1.839,-1.902 2.159,-5.138 4.22,-7.268c0.916,-0.948 2.587,-1.219 3.281,-1.939c1.221,-1.261 0.532,-4.081 2.345,-5.33c1.426,-0.982 11.382,-0.133 12.19,-0.969c0.557,-0.576 -0.938,-4.491 -0.938,-5.329c0,-2.226 1.494,-5.634 0.47,-7.753c-0.71,-1.467 -1.69,-6.389 -0.938,-8.722c0.494,-1.533 5.65,-11.592 8.439,-7.268c0.755,1.17 1.284,8.426 0.469,9.691c-1.157,1.793 -3.302,4.254 -2.813,6.783c0.547,2.823 1.457,7.142 3.75,8.722c1.624,1.118 18.185,-0.432 20.161,-1.453c1.499,-0.775 5.853,-5.809 7.971,-7.269c2.359,-1.625 2.381,2.946 3.283,3.876c4.077,4.215 6.431,-4.298 6.563,-4.36c5.209,-2.447 3.953,1.064 7.034,-3.392c1.426,-2.065 -2.386,-4.006 -2.814,-5.33c-0.863,-2.675 -2.27,-11.298 -0.938,-14.052c1.054,-2.178 2.994,3.094 3.282,3.392c1.523,1.574 6.899,-0.206 7.502,-1.454c0.327,-0.676 0.471,-7.266 0,-7.753c-1.699,-1.755 -4.065,8.224 -5.157,1.454c-0.31,-1.919 2.74,-2.72 3.751,-4.361c0.93,-1.511 -5.158,-1.171 -5.158,-2.422c0,-8.75 20.064,-3.793 18.285,-11.145c-2.609,-10.789 -12.193,1.239 -15.94,3.391c-3.998,2.296 -10.784,-6.781 -11.722,-9.69c-1.223,-3.792 0.761,-16.594 2.344,-19.867c2.421,-5.002 9.303,-6.86 1.875,-14.536c-1.094,-1.13 -1.755,-3.129 -3.281,-3.392c-1.091,-0.188 -1.621,1.56 -2.345,2.423c-5.216,6.22 -3.397,8.137 -4.688,16.474c-1.454,9.387 -4.004,18.624 -4.689,28.104c-0.12,1.658 1.902,2.762 2.345,4.362c0.431,1.559 -0.088,3.27 -0.47,4.845c-0.733,3.03 -5.626,6.114 -5.626,7.752c0,3.667 1.527,10.895 0,14.052c-0.811,1.677 -3.317,1.508 -4.22,2.908c-1.355,2.101 0.592,5.864 -4.219,3.876c-1.308,-0.541 -2.43,-1.249 -3.282,-2.423c-1.371,-1.889 -0.865,-5.028 -1.406,-7.268c-0.88,-3.634 -4.777,-7.539 -5.628,-10.176c-0.223,-0.694 -0.094,-2.811 -0.468,-3.392c-0.492,-0.762 -1.718,-0.321 -2.345,-0.969c-0.908,-0.94 0.232,-3.936 -1.875,-3.391c-2.191,0.566 -8.761,12.699 -13.128,9.691c-1.108,-0.763 -1.429,-2.931 -2.344,-3.877c-0.658,-0.679 -1.544,-1.053 -1.876,-2.423c-1.393,-5.761 2.146,-8.872 3.283,-13.567c1.328,-5.49 -5.569,-4.482 -3.283,-9.206c0.828,-1.71 8.032,-8.301 9.846,-10.176c0.891,-0.92 4.267,-1.987 4.689,-2.422c1.457,-1.506 2.292,-8.613 3.282,-10.66c1.791,-3.702 8.353,-10.392 9.377,-13.568c2.111,-6.545 2.112,-14.904 5.626,-20.35c1.287,-1.995 6.93,-6.867 7.502,-7.754c1.129,-1.749 -0.275,-4.655 2.813,-6.784c2.793,-1.924 9.981,-0.899 11.253,-4.845c0.332,-1.031 -0.112,-2.49 0.469,-3.392c1.856,-2.877 14.546,1.002 15.004,2.423c0.42,1.301 -2.848,4.594 0,5.33c4.153,1.073 9.759,0.484 14.065,0.484c4.145,0 6.51,1.925 10.315,2.908c0.621,0.16 1.296,0.095 1.974,0.016l0.272,-0.032c0.678,-0.079 1.353,-0.145 1.974,0.016c2.544,0.657 5.116,6.426 4.22,9.206c-3.287,10.19 -19.073,5.582 -20.161,7.269c-1.104,1.71 1.5,3.618 1.876,3.876c3.719,2.563 4.327,10.231 8.907,12.598c1.505,0.778 5.259,-0.484 7.033,-0.484c1.287,0 4.659,0.515 5.626,-0.485c2.303,-2.379 -2.811,-7.028 -2.343,-7.753c0.9,-1.397 3.529,0.115 4.688,-0.485c0.941,-0.486 -0.775,-3.857 -0.937,-4.36c-0.429,-1.327 1.015,-3.148 1.406,-4.361c1.635,-5.071 8.147,-0.421 5.626,-8.238c-1.026,-3.178 -1.868,-7.258 -3.751,-10.175c-0.728,-1.128 -2.877,-2.072 -3.281,-2.907c-0.242,-0.501 -0.206,-3.452 0,-3.876c1.073,-2.218 0.778,-2.586 3.281,-1.939c0.715,0.185 1.344,0.145 1.875,0.969c0.836,1.295 -1.358,14.512 6.096,10.661c2.582,-1.335 1.635,-4.588 2.345,-6.784c0.241,-0.752 3.639,-6.674 4.219,-7.753c0.871,-1.62 0.914,-3.056 1.875,-4.846c0.683,-1.271 2.492,-2.062 2.813,-3.391c0.253,-1.048 -0.329,-2.371 0,-3.392c0.643,-1.993 3.824,-3.951 5.158,-5.331c1.236,-1.276 0.851,-2.817 1.875,-3.876c0.47,-0.485 2.713,-1.419 2.813,-1.453c1.04,-0.358 2.128,-0.507 3.235,-0.511l0.115,0Zm-179.868,126.978c0.075,-0.002 0.151,-0.002 0.227,0l-0.227,0c-0.216,0.005 -0.426,0.024 -0.631,0.056c6.189,0.702 6.411,7.926 4.609,13.511c-0.456,1.416 -1.464,2.728 -0.938,4.361c1.584,4.911 4.622,20.246 6.564,23.258c1.861,2.884 6.529,0.821 7.503,4.845c1.806,7.47 -3.634,3.937 -6.096,7.754c-1.391,2.157 1.217,5.427 -1.407,6.783c-1.344,0.695 -22.523,4.355 -23.912,3.876c-1.69,-0.582 1.14,-2.63 1.408,-2.907c1.106,-1.144 0.133,-3.598 0.937,-4.845c0.86,-1.333 2.356,-2.442 3.282,-3.876c0.254,-0.395 0,-1.905 0,-2.424c0,-3.011 -0.506,-5.213 0.469,-8.237c0.559,-1.735 3.778,-3.904 4.688,-4.845c3.977,-4.11 -0.665,-14.46 -2.343,-17.929c-2.362,-4.882 -1.054,-18.343 5.236,-19.325c-0.323,-0.037 -0.661,-0.056 -1.017,-0.056l1.648,0Zm-24.622,29.072c-12.215,-6.352 -4.098,6.893 -4.689,8.723c-0.555,1.719 -6.614,8.184 -4.22,10.659c0.195,0.201 3.358,0.485 3.751,0.485c10.419,0 6.363,-4.154 9.378,-7.268c0.22,-0.229 0.677,0.179 0.938,0c1.044,-0.72 2.056,-3.319 2.813,-4.361c1.39,-1.917 5.054,-1.028 5.626,-3.392c0.266,-1.1 0.601,-5.891 0.468,-6.299c-0.793,-2.46 -7.871,-5.559 -10.314,-3.876c-0.968,0.666 -6.096,11.196 -6.096,4.845l2.345,0.484Z" style="fill:#1c1a80;fill-rule:nonzero;"/><path d="M178.538,60.185c2.942,3.547 3.51,9.095 7.73,11.489c1.505,0.777 5.259,-0.485 7.033,-0.485c1.287,0 4.659,0.516 5.626,-0.484c2.303,-2.38 -2.811,-7.028 -2.343,-7.753c0.9,-1.397 3.529,0.115 4.688,-0.485c0.941,-0.486 -0.775,-3.858 -0.937,-4.361c-0.429,-1.327 1.015,-3.147 1.406,-4.36c1.635,-5.071 8.147,-0.422 5.626,-8.238c-1.026,-3.18 -1.868,-7.258 -3.751,-10.176c-0.728,-1.127 -2.877,-2.071 -3.281,-2.907c-0.242,-0.5 -0.206,-3.451 0,-3.876c1.073,-2.218 0.778,-2.585 3.281,-1.938c0.715,0.185 1.344,0.145 1.875,0.969c0.836,1.295 -1.358,14.512 6.096,10.659c2.582,-1.334 1.635,-4.586 2.345,-6.783c0.241,-0.752 3.639,-6.673 4.219,-7.752c0.871,-1.62 0.914,-3.057 1.875,-4.846c0.683,-1.271 2.492,-2.063 2.813,-3.392c0.253,-1.047 -0.329,-2.371 0,-3.391c0.643,-1.994 3.824,-3.952 5.158,-5.331c1.236,-1.278 0.851,-2.817 1.875,-3.876c0.47,-0.485 2.713,-1.419 2.813,-1.454c4.59,-1.58 10.119,0.919 14.067,1.938c3.629,0.938 7.549,0.497 11.252,1.454c4.593,1.187 8.462,5.578 13.128,6.784c10.095,2.608 21.272,9.534 33.289,13.083c3.905,1.152 5.947,5.117 9.377,6.299c5.573,1.919 12.822,3.342 17.816,6.783c1.997,1.376 2.879,4.636 5.158,5.815c0.114,0.059 2.695,1.572 2.813,1.938c0.322,0.997 -7.117,19.865 -7.971,20.835c-2.25,2.559 -4.636,4.129 -6.563,6.784c-1.809,2.492 -2.683,5.681 -4.689,7.754c-0.812,0.839 -6.409,9.85 -4.688,11.628c1.952,2.018 2.839,-2.744 4.22,5.815c0.218,1.355 0.017,8.973 1.406,9.69c1.1,0.569 4.688,-2.281 4.688,0.969c0,0.545 0.318,5.661 0,5.815c-1.816,0.885 -11.627,3.167 -14.065,4.846c-3.379,2.327 -4.301,6.198 -8.439,7.268c-5.922,1.53 -12.08,-0.784 -17.348,1.938c-3.04,1.57 -7.872,10.104 -7.033,13.568c0.414,1.715 2.672,4.821 1.406,6.783c-0.921,1.429 -4.114,0.321 -5.157,1.938c-0.61,0.945 0.468,3.234 0.468,4.362c0,6.392 4.832,8.795 9.378,11.144c1.204,0.622 5.507,-0.854 6.095,0.969c1.27,3.94 -2.491,6.419 -3.282,9.691c-0.93,3.847 3.777,7.375 4.689,11.144c0.223,0.924 -0.247,2.652 0.468,3.392c1.257,1.298 4.356,2.009 6.096,2.908c0.973,0.503 1.785,2.595 2.813,3.392c1.37,1.062 2.92,1.043 4.22,1.938c2.727,1.879 2.382,5.834 5.157,7.267c2.466,1.275 5.091,0.763 7.502,2.424c0.581,0.4 0.444,1.427 0.938,1.938c0.613,0.633 2.517,1.023 2.813,1.938c0.849,2.634 5.153,12.762 1.875,15.021c-4.596,3.167 -10.193,-6.383 -14.534,-3.392c-2.846,1.96 -2.57,7.908 -3.751,8.722c-2.957,2.037 -13.542,-1.369 -7.033,8.722c2.036,3.157 5.157,2.169 5.157,6.783c0,0.485 0.331,1.112 0,1.454c-2.542,2.627 -6.208,2.985 -8.908,4.846c-3.656,2.518 -5.583,6.265 -9.377,9.206c-2.994,2.32 -10.482,3.478 -14.067,5.33c-3.06,1.581 -3.624,7.548 -7.032,8.721c-3.25,1.12 -5.794,-2.378 -9.378,-1.453c-5.217,1.349 -8.271,6.983 -13.127,8.238c-3.685,0.952 -8.913,-2.259 -12.19,0c-2.095,1.442 -3.375,5.861 -5.158,6.783c-2.407,1.244 -10.018,-4.384 -11.252,-6.299c-1.284,-1.989 -3.912,-3.074 -5.628,-4.845c-1.024,-1.06 -0.321,-3.725 -1.406,-4.846c-2.956,-3.055 -0.715,-0.382 -2.344,-2.907c-0.222,-0.344 -5.043,-1.821 -6.095,-2.907c-1.237,-1.279 2.018,-7.921 0.468,-8.723c-1.616,-0.835 -0.623,5.653 -0.937,5.816c-3.254,1.68 1.035,-6.204 -4.219,-4.847c-5.013,1.296 -5.699,2.796 -9.378,5.331c-1.293,0.891 -2.436,0.032 -3.751,0.485c-2.883,0.992 2.565,8.464 3.282,9.205c1.208,1.248 5.471,-0.644 7.033,0.969c0.445,0.461 -0.261,4.902 -0.469,5.331c-1.158,2.393 -6.14,2.721 -5.158,6.783c0.531,2.189 2.226,3.76 1.407,6.3c-0.437,0.629 -2.963,0.066 -3.395,-0.012c-1.381,-0.252 -2.727,-0.612 -4.072,-1.016l-0.732,-236.26Z" style="fill:#fff;fill-opacity:0.07;fill-rule:nonzero;"/><g transform="matrix(0.999243,0.0388923,-0.0388923,0.999243,1.22422,1.24196)"><text x="124.332px" y="201.624px" style="font-family:'BerlinSansFBDemi-Bold', 'Berlin Sans FB Demi', sans-serif;font-weight:700;font-size:30px;fill:#fff;">EUROPE</text></g></g></svg>