<?xml version="1.0" encoding="UTF-8" standalone="no"?><!DOCTYPE svg PUBLIC "-//W3C//DTD SVG 1.1//EN" "http://www.w3.org/Graphics/SVG/1.1/DTD/svg11.dtd"><svg width="100%" height="100%" viewBox="0 0 544 403" version="1.1" xmlns="http://www.w3.org/2000/svg" xmlns:xlink="http://www.w3.org/1999/xlink" xml:space="preserve" xmlns:serif="http://www.serif.com/" style="fill-rule:evenodd;clip-rule:evenodd;stroke-linejoin:round;stroke-miterlimit:2;"><g id="ico-na"><path d="M104.815,111.108c5.2,-0.36 15.721,-4.736 18.447,-7.545c1.754,-1.808 7.541,0.86 8.812,1.514c14.731,7.59 33.439,0.96 47.733,8.324c2.967,1.529 -0.002,7.188 2.204,8.324c9.325,4.806 23.516,-8.318 32.311,-5.297c10.691,3.673 23.629,12.064 36.719,7.567c13.929,-4.783 -6.19,-25.728 4.407,-25.728c1.562,0 9.293,-1.018 10.28,0c4.632,4.773 9.406,19.374 16.891,21.945c5.661,1.945 9.352,-16.093 15.422,-9.838c11.402,11.751 -19.684,19.453 -22.765,24.216c-2.43,3.755 -2.26,9.196 -4.407,13.622c-3.18,6.555 -14.462,7.627 -16.891,15.134c-1.803,5.579 18.521,23.341 22.766,24.216c6.034,1.244 13.547,0.366 19.094,2.27c3.58,1.23 7.544,25.523 13.953,18.919c4,-4.122 0.52,-14.158 4.406,-18.162c1.379,-1.421 4.35,-5.122 5.14,-7.567c2.11,-6.522 -6.696,-22.391 -0.734,-26.487c5.367,-3.686 18.014,-0.355 22.031,3.785c3.995,4.115 4.068,10.245 7.344,13.621c1.572,1.62 12.35,-5.744 16.156,-3.784c3.198,1.648 28.533,33.628 27.171,37.838c-1.793,5.545 -40.516,8.454 -47.733,15.891c-6.056,6.24 13.291,-1.098 15.421,0c3.181,1.639 3.445,8.793 2.204,11.351c-1.097,2.261 -26.143,18.615 -27.172,19.676c-2.767,2.85 -4.633,9.915 -8.813,11.35c-2.556,0.879 -7.469,-1.255 -8.812,1.514c-1.293,2.665 0.983,10.338 -1.468,12.865c-3.127,3.222 -13.204,11.383 -9.548,18.918c2.184,4.501 7.431,11.84 5.141,18.919c-1.7,5.253 -15.623,-15.616 -16.156,-15.891c-1.92,-0.99 -17.363,-2.541 -19.093,-0.757c-0.974,1.003 -0.616,2.986 -2.938,3.783c-6.029,2.072 -21.798,-7.291 -25.703,0.757c-3.658,7.54 2.203,23.008 2.203,31.027c0,6.244 13.356,7.993 19.094,6.81c0.893,-0.184 7.928,-15.366 12.484,-8.324c3.037,4.696 1.721,16.909 6.609,21.946c5.175,5.333 12.946,-4.346 19.093,8.324c3.689,7.602 -4.41,17.4 2.938,24.973c6.13,6.316 26.438,-2.154 26.438,8.324c0,1.097 0.469,2.406 -0.735,3.026c-2.673,1.378 -5.418,-2.127 -8.078,-0.757c-6.615,3.409 -29.056,-7.668 -32.312,-14.378c-2.49,-5.129 -3.267,-10.763 -8.813,-13.621c-4.818,-2.482 -11.135,-1.953 -16.155,-4.54c-4.245,-2.187 -1.494,-9.472 -5.141,-11.351c-4.167,-2.147 -11.13,0.698 -15.422,-1.513c-6.934,-3.573 -13.596,-5.493 -20.562,-9.082c-6.986,-3.599 -23.136,-32.922 -35.25,-45.404c-9.231,-9.513 -2.232,11.321 1.468,15.135c1.248,1.284 8.582,7.287 7.345,9.837c-3.324,6.85 -15.082,-15.366 -15.422,-15.891c-3.216,-4.972 -5.048,-13.526 -8.812,-17.406c-3.656,-3.766 -13.069,-7.708 -14.688,-14.378c-3.77,-15.537 -8.678,-28.96 -12.484,-44.647c-2.717,-11.201 9.581,-9.045 5.875,-12.865c-6.132,-6.319 -14.399,-11.811 -21.297,-18.919c-2.547,-2.625 -3.046,-7.68 -5.874,-10.594c-16.901,-17.416 -36.798,-21.986 -55.813,-31.783c-5.239,-2.699 -8.771,4.54 -12.484,4.54c-3.874,0 -4.934,-5.116 -11.016,-3.027c-6.677,2.293 -27.463,35.265 -33.047,29.513c-1.926,-1.986 12.016,-9.805 8.079,-15.892c-4.182,-6.463 -13.488,-7.366 -16.891,-14.378c-4.081,-8.412 11.23,-17.184 7.344,-21.188c-2.066,-2.13 -13.586,2.645 -14.687,-0.757c-3.587,-11.088 9.212,-12.865 16.155,-12.865c5.326,0 -9.051,-13.639 -8.812,-14.378c1.458,-4.505 14.933,-8.766 19.094,-9.838c26.132,-6.732 52.592,2.22 77.756,9.058c-0.226,0.015 -0.442,0.024 -0.647,0.024l0.734,0l-0.087,-0.024Zm195.429,220.236c-3.286,0.782 -9.795,-3.27 -11.75,0.756c-0.239,0.492 10.794,2.913 19.828,7.568c8.945,4.609 23.743,16.523 36.718,9.838c7.746,-3.991 -24.798,-13.622 -29.374,-13.622c-4.55,0 -9.346,-1.696 -13.219,-3.027l-2.203,-1.513Zm202.232,-252.171c-0.432,1.018 -0.889,2.002 -1.75,2.445c-2.852,1.47 -6.546,14.443 -2.937,18.162c1.678,1.728 7.455,-1.399 9.547,0.757c2.123,2.188 -2.951,9.106 -3.673,10.595c-4.582,9.445 -41.911,12.161 -47.733,18.161c-6.039,6.224 -16.864,35.202 -27.906,29.513c-2.746,-1.414 -9.567,-0.02 -12.484,-3.027c-9.637,-9.931 0.408,-31.278 -3.672,-43.891c-2.303,-7.12 -6.843,-14.861 -10.281,-21.946c-10.119,-20.854 -62.382,-36.283 -62.422,-36.324c-5.617,-5.788 6.13,-13.961 9.547,-15.134c12.079,-4.15 24.311,-13.661 35.984,-19.676c10.855,-5.592 25.002,-3.036 36.719,-6.054c5.73,-1.476 11.848,-1.761 17.625,-3.026l1.468,1.513c-1.547,-4.782 -2.49,-1.809 -5.14,-4.541c-0.746,-0.768 21.016,-4.028 23.5,-4.54c8.025,-1.654 21.382,-3.501 29.374,-0.757c13.836,4.753 -1.739,9.559 2.938,14.379c4.576,4.715 34.23,-1.777 41.124,0c3.372,0.868 6.825,3.108 9.485,1.412c0.631,-0.578 0.989,-0.855 0.796,-0.656c-0.256,0.264 -0.522,0.481 -0.796,0.656c-1.356,1.241 -3.971,3.871 -5.079,6.155c-2.184,4.501 -7.228,6.452 -8.812,11.351c-1.228,3.796 -4.802,7.277 -5.875,10.594c-4.507,13.931 -3.279,23.635 -17.624,31.026c-0.861,0.444 -1.318,1.428 -1.75,2.445l-0.173,0.408Zm-216.185,1.688c-11.63,-7.753 -11.407,19.541 -6.61,21.189c12.996,4.464 45.889,-2.29 52.14,10.595c14.347,29.567 -17.542,14.547 -11.014,27.999c0.297,0.614 6.303,0.978 7.343,1.513c3.268,1.685 21.031,17.679 25.703,12.865c1.588,-1.636 -0.091,-3.597 0.734,-5.297c0.49,-1.009 2.163,-0.716 2.937,-1.513c5.995,-6.177 -8.181,-11.896 -5.14,-18.163c0.877,-1.807 19.499,6.889 12.484,-7.567c-1.026,-2.114 -10.47,-5.016 -12.484,-6.054c-3.881,-1.999 -4.495,-9.505 -6.61,-10.594c-7.359,-3.792 -19.249,-13.928 -20.562,-14.378c-0.915,-0.315 -6.995,0.718 -7.343,0c-1.571,-3.236 -2.301,-4.826 -5.876,-6.054c-2.166,-0.744 -11.626,-2.397 -13.218,-0.757c-0.586,0.604 -8.949,11.071 -9.546,9.838c-1.936,-3.989 0.541,-8.523 -2.203,-11.352l-0.735,-2.27Zm-57.28,24.216c-8.368,-4.033 -10.728,-14.531 -19.094,-17.405c-8.106,-2.784 -33.16,-5.064 -36.719,2.27c-2.066,4.258 2.081,4.855 4.407,6.054c6.432,3.314 9.225,13.764 15.421,15.892c8.071,2.772 17.95,-3.784 26.437,-3.784c1.981,0 5.877,3.783 8.079,2.27c2.526,-1.735 -0.37,-3.976 -0.735,-4.54l2.204,-0.757Zm8.812,-43.891c-20.777,8.945 14.033,40.362 22.03,27.999c3.921,-6.059 4.655,-13.035 11.016,-17.404c3.681,-2.528 22.327,-0.302 9.547,-9.082c-0.735,-0.504 -1.366,-1.226 -2.203,-1.513c-3.085,-1.059 -7.197,1.06 -10.281,0c-8.362,-2.872 -17.354,-0.757 -25.703,-0.757l-4.406,0.757Zm-19.094,-16.648c-7.129,-0.825 -14.025,0.415 -19.094,3.026c-7.507,3.869 -17.937,7.393 -25.703,10.595c-11.444,4.717 -19.023,23.939 -2.202,18.161c14.26,-4.897 27.13,-9.822 40.39,-14.378c3.359,-1.153 8.343,1.675 11.015,0.757c0.041,-0.014 3.901,-9.316 5.141,-10.594c2.706,-2.789 11.568,-2.076 10.281,-6.054c-2.775,-8.579 -20.815,0.757 -24.969,0.757l5.141,-2.27Zm63.89,15.891c5.664,-1.094 17.335,2.57 21.297,-1.513c2.269,-2.338 9.809,-6.109 11.016,-9.838c1.202,-3.718 0.512,-5.826 2.937,-8.324c8.36,-8.615 47.578,-14.262 43.328,-31.783c-2.344,-9.658 -76.438,-1.449 -82.984,5.297c-14.288,14.724 39.457,7.016 30.843,15.892c-5.267,5.426 -17.168,-1.084 -21.296,5.296c-1.45,2.242 0.597,6.339 -0.735,9.082c-2.134,4.399 -17.08,14.378 -2.937,14.378l-1.469,1.513Zm-26.437,-35.567c-8.598,3.404 2.776,11.942 5.875,15.135c1.313,1.353 0.148,5.754 0.734,7.567c0.374,1.155 3.607,1.032 4.407,0.757c16.697,-5.735 2.989,-21.945 -8.079,-21.945l-2.937,-1.514Z" style="fill:#dc4747;fill-rule:nonzero;"/><path d="M254.883,342.833c4.343,1.723 9.299,2.114 13.885,1.375c0.893,-0.184 7.928,-15.366 12.485,-8.324c3.037,4.696 1.721,16.909 6.609,21.946c5.175,5.333 12.946,-4.346 19.094,8.324c3.688,7.602 -4.412,17.4 2.937,24.973c6.129,6.316 26.437,-2.154 26.437,8.324c0,1.097 0.47,2.406 -0.734,3.026c-2.674,1.378 -5.418,-2.127 -8.078,-0.757c-6.616,3.409 -29.057,-7.668 -32.313,-14.378c-2.488,-5.129 -3.267,-10.763 -8.812,-13.621c-4.818,-2.482 -11.135,-1.953 -16.156,-4.54c-4.245,-2.187 -1.493,-9.472 -5.141,-11.351c-3.214,-1.521 -6.842,-0.525 -10.213,-0.646l0,-14.351Zm46.197,-11.489c-3.286,0.782 -9.795,-3.27 -11.75,0.756c-0.238,0.492 10.795,2.913 19.828,7.568c8.945,4.609 23.744,16.523 36.719,9.838c7.745,-3.991 -24.798,-13.622 -29.375,-13.622c-4.55,0 -9.345,-1.696 -13.219,-3.027l-2.203,-1.513Zm-46.196,-166.07c3.038,7.164 9.372,12.61 15.172,17.408c2.139,1.769 4.795,4.078 7.524,4.88c6.035,1.244 13.547,0.366 19.094,2.27c3.582,1.23 7.545,25.523 13.953,18.919c4,-4.122 0.521,-14.158 4.406,-18.162c1.379,-1.421 4.35,-5.122 5.141,-7.567c2.11,-6.522 -6.696,-22.391 -0.734,-26.487c5.367,-3.686 18.014,-0.355 22.031,3.785c3.994,4.115 4.067,10.245 7.343,13.621c1.573,1.62 12.351,-5.744 16.157,-3.784c3.199,1.648 28.533,33.628 27.171,37.838c-1.793,5.545 -40.516,8.454 -47.734,15.891c-6.055,6.24 13.292,-1.098 15.422,0c3.181,1.639 3.444,8.793 2.203,11.351c-1.097,2.261 -26.142,18.615 -27.172,19.676c-2.767,2.85 -4.632,9.915 -8.812,11.35c-2.556,0.879 -7.469,-1.255 -8.813,1.514c-1.292,2.665 0.984,10.338 -1.468,12.864c-3.127,3.223 -13.204,11.384 -9.547,18.919c2.184,4.501 7.43,11.84 5.14,18.919c-1.699,5.253 -15.622,-15.616 -16.156,-15.891c-1.919,-0.99 -17.362,-2.541 -19.093,-0.757c-0.974,1.003 -0.616,2.986 -2.937,3.783c-0.414,0.087 -0.818,0.247 -1.24,0.261c-3.595,0.126 -6.982,-0.929 -10.457,-1.692c-4.196,-0.922 -2.962,-0.707 -6.594,-1.049l0,-137.86Zm-0.001,-2.09c3.102,-7.618 12.797,-8.129 16.822,-14.972c2.148,-4.426 1.978,-9.867 4.407,-13.622c3.081,-4.763 34.169,-12.465 22.766,-24.215c-6.071,-6.256 -9.761,11.782 -15.423,9.837c-7.484,-2.571 -12.258,-17.172 -16.89,-21.945c-0.987,-1.018 -8.718,0 -10.281,0c-1.08,0.071 -0.619,-0.04 -1.401,0.234l0,64.683Zm248.494,-84.164c-0.452,1.071 -0.911,2.132 -1.815,2.598c-2.851,1.47 -6.546,14.443 -2.937,18.162c1.678,1.728 7.455,-1.399 9.547,0.757c2.124,2.188 -2.949,9.106 -3.672,10.595c-4.583,9.445 -41.911,12.161 -47.733,18.161c-6.04,6.224 -16.864,35.202 -27.907,29.513c-2.744,-1.414 -9.566,-0.02 -12.484,-3.027c-9.637,-9.931 0.408,-31.278 -3.672,-43.891c-2.303,-7.12 -6.843,-14.861 -10.281,-21.946c-10.119,-20.854 -62.381,-36.283 -62.421,-36.324c-5.617,-5.788 6.13,-13.961 9.546,-15.134c12.079,-4.15 24.311,-13.661 35.985,-19.676c10.855,-5.592 25.001,-3.036 36.718,-6.054c5.731,-1.476 11.849,-1.761 17.625,-3.026l1.468,1.513c-1.546,-4.782 -2.489,-1.809 -5.139,-4.541c-0.747,-0.768 21.015,-4.028 23.499,-4.54c8.026,-1.654 21.383,-3.501 29.375,-0.757c13.836,4.753 -1.74,9.559 2.937,14.379c4.577,4.715 34.23,-1.777 41.124,0c3.373,0.868 6.825,3.108 9.486,1.412c0.631,-0.578 0.989,-0.855 0.796,-0.656c-0.256,0.265 -0.522,0.481 -0.796,0.656c-1.356,1.241 -3.971,3.872 -5.079,6.155c-2.184,4.501 -7.227,6.452 -8.812,11.351c-1.228,3.796 -4.803,7.277 -5.875,10.594c-4.507,13.931 -3.279,23.635 -17.625,31.026c-0.903,0.466 -1.363,1.527 -1.815,2.598l-0.043,0.102Zm-249.513,19.998c-0.181,0.214 -0.433,0.381 -0.545,0.641c-0.715,1.663 0.048,3.595 0.545,5.195l0,-5.836Zm29.591,-38.589c5.666,-1.094 17.335,2.57 21.297,-1.513c2.27,-2.338 9.81,-6.109 11.016,-9.838c1.202,-3.718 0.513,-5.826 2.938,-8.324c8.36,-8.615 47.577,-14.262 43.327,-31.783c-2.343,-9.658 -76.438,-1.448 -82.983,5.297c-14.289,14.724 39.456,7.016 30.843,15.892c-5.267,5.426 -17.168,-1.084 -21.297,5.296c-1.45,2.242 0.597,6.339 -0.734,9.082c-2.135,4.399 -17.08,14.378 -2.937,14.378l-1.47,1.513Zm-26.437,-35.567c-8.598,3.404 2.777,11.942 5.875,15.135c1.313,1.353 0.148,5.754 0.734,7.567c0.374,1.155 3.608,1.032 4.407,0.757c16.698,-5.735 2.99,-21.945 -8.078,-21.945l-2.938,-1.514Z" style="fill:#fff;fill-opacity:0.07;fill-rule:nonzero;"/><g transform="matrix(0.999243,0.0388923,-0.0388923,0.999243,37.6489,61.2233)"><text x="155.641px" y="169.538px" style="font-family:'BerlinSansFBDemi-Bold', 'Berlin Sans FB Demi', sans-serif;font-weight:700;font-size:24px;fill:#fff;">NORTH</text><text x="155.641px" y="193.538px" style="font-family:'BerlinSansFBDemi-Bold', 'Berlin Sans FB Demi', sans-serif;font-weight:700;font-size:24px;fill:#fff;">AMERICA</text></g></g></svg>