<?xml version="1.0" encoding="UTF-8" standalone="no"?><!DOCTYPE svg PUBLIC "-//W3C//DTD SVG 1.1//EN" "http://www.w3.org/Graphics/SVG/1.1/DTD/svg11.dtd"><svg width="100%" height="100%" viewBox="0 0 801 651" version="1.1" xmlns="http://www.w3.org/2000/svg" xmlns:xlink="http://www.w3.org/1999/xlink" xml:space="preserve" xmlns:serif="http://www.serif.com/" style="fill-rule:evenodd;clip-rule:evenodd;stroke-linejoin:round;stroke-miterlimit:2;"><g id="ico-oceania"><path d="M432.734,608.319c1.009,3.899 2.583,10.53 6.271,14.257c4.678,4.728 16.204,26.406 17.242,26.932c18.255,9.224 21.626,-46.265 17.243,-50.695c-3.388,-3.423 -27.566,0.465 -29.783,1.585c-4.344,2.197 -4.491,7.495 -6.268,11.089l-4.705,-3.168Zm289.194,-199.159c6.254,-19.144 48.512,30.441 50.958,32.913c5.939,6.004 23.722,6.762 26.647,12.673c2.62,5.298 -15.878,43.184 -18.811,49.11c-2.07,4.182 -46.101,46.591 -51.727,52.277c-4.19,4.235 -4.045,13.592 -7.838,17.426c-17.498,17.683 -31.903,37.555 -40.756,55.446c-1.213,2.451 -7.053,18.217 -14.106,11.089c-44.84,-45.316 13.218,-47.912 23.513,-61.783c12.05,-16.24 13.63,-47.044 25.078,-58.614c5.234,-5.29 5.944,-13.926 10.975,-19.01c34.744,-35.114 18.247,-54.15 -3.933,-91.527Zm-346.634,-192.231c2.51,-7.588 6.067,-18.039 10.415,-26.829c4.591,-9.279 1.843,-49.386 12.54,-60.197c6.344,-6.413 14.262,10.529 15.677,12.672c13.752,20.848 26.364,56.745 43.889,74.456c16.473,16.649 20.108,40.915 36.053,57.029c19.115,19.319 54.995,43.041 67.402,68.12c9.745,19.695 -50.43,149.46 -64.268,177.426c-3.281,6.633 -12.305,9.348 -17.242,12.674c-7.382,4.974 -8.628,16.375 -17.243,22.178c-15.365,10.354 -33.763,6.153 -53.295,11.089c-2.925,0.739 -16.147,4.274 -18.809,1.584c-15.292,-15.454 -28.788,-41.768 -42.323,-55.446c-5.053,-5.107 -7.187,-28.184 -14.108,-31.682c-9.315,-4.708 -14.599,8.644 -29.783,-1.585c-11.913,-8.026 -15.071,-37.076 -31.349,-41.188c-8.641,-2.183 -20.829,0 -29.783,0c-8.129,0 -124.142,22.333 -126.97,23.763c-27.782,14.038 -40.189,51.769 -76.808,33.266c-5.535,-2.797 -13.295,-2.348 -17.242,-6.336c-2.011,-2.034 0.958,-11.355 0,-14.257c-8.763,-26.569 -18.809,-47.627 -18.809,-77.624c0,-20.688 -6.089,-90.849 -1.568,-104.556c9.136,-27.697 57.02,-30.605 81.511,-44.355c26.692,-14.988 62.771,-69.739 81.51,-79.209c16.264,-8.218 34.184,-0.32 51.727,-4.752c20.271,-5.121 41.395,-41.658 64.268,-30.099c23.503,11.876 12.608,62.355 37.621,79.208c9.222,6.213 42.048,3.273 56.987,4.65c-0.192,0.579 -0.378,1.143 -0.557,1.687l1.568,-1.585c-0.327,-0.036 -0.664,-0.071 -1.011,-0.102Zm346.634,192.231c-0.502,1.534 -0.771,3.508 -0.771,5.983l-3.135,-12.673c1.315,2.296 2.62,4.524 3.906,6.69Zm-336.879,-405.97c-0.308,-0.014 -0.611,-0.021 -0.906,-0.021l0,-3.169c0.419,0.479 0.714,1.578 0.906,3.19c28.128,1.233 110.674,58.174 116.657,82.356c1.01,4.091 17.46,20.373 12.539,25.347c-6.354,6.423 -53.643,-19.361 -57.998,-23.763c-5.878,-5.942 -7.575,-18.305 -15.674,-23.762c-4.318,-2.91 -25.219,6.753 -26.647,11.089c-5.055,15.325 4.899,23.762 -20.379,23.762c-2.751,0 -9.159,1.166 -10.972,-1.585c-4.355,-6.601 4.446,-76.923 2.474,-93.444Z" style="fill:#1c1a80;fill-rule:nonzero;"/><path d="M433.454,608.319c1.006,3.899 2.58,10.53 6.268,14.257c4.678,4.728 16.204,26.406 17.244,26.932c18.253,9.224 21.624,-46.265 17.243,-50.695c-3.389,-3.423 -27.565,0.465 -29.783,1.585c-4.346,2.197 -4.491,7.495 -6.27,11.089l-4.702,-3.168Zm289.192,-199.157c6.252,-19.15 48.511,30.439 50.957,32.911c5.942,6.004 23.722,6.762 26.647,12.673c2.622,5.298 -15.878,43.184 -18.811,49.11c-2.068,4.182 -46.1,46.591 -51.727,52.277c-4.19,4.235 -4.043,13.592 -7.836,17.426c-17.5,17.683 -31.905,37.555 -40.755,55.446c-1.214,2.451 -7.056,18.217 -14.109,11.089c-44.837,-45.316 13.218,-47.912 23.513,-61.783c12.05,-16.24 13.63,-47.044 25.081,-58.614c5.232,-5.29 5.941,-13.926 10.972,-19.01c34.744,-35.113 18.248,-54.149 -3.932,-91.525Zm-386.214,-192.402c12.774,0 40.59,1.852 40.59,-2.636c0,5.422 5.447,-15.698 11.09,-28.245c1.02,-2.263 1.544,-29.825 4.278,-41.311c1.647,-6.921 5.202,-12.15 6.577,-16.221c2.899,-8.58 14.261,10.531 15.676,12.673c13.752,20.849 26.364,56.743 43.889,74.455c16.474,16.648 20.108,40.916 36.053,57.031c19.116,19.318 54.995,43.041 67.404,68.118c9.743,19.697 -50.432,149.459 -64.268,177.426c-3.281,6.633 -12.307,9.349 -17.242,12.673c-7.384,4.976 -8.629,16.375 -17.243,22.18c-15.367,10.352 -33.765,6.154 -53.295,11.089c-2.927,0.739 -16.149,4.273 -18.811,1.583c-15.291,-15.453 -28.788,-41.766 -42.323,-55.445c-4.871,-6.989 -5.672,-15.988 -8.786,-23.814c-0.803,-2.02 -2.345,-5.773 -4.306,-7.153l0.717,-262.403Zm386.214,192.402c-0.5,1.533 -0.77,3.507 -0.77,5.981l-3.136,-12.673c1.315,2.297 2.62,4.525 3.906,6.692Zm-336.88,-405.972c-0.308,-0.014 -0.61,-0.021 -0.906,-0.021l0,-3.167c0.42,0.478 0.714,1.577 0.906,3.188c28.128,1.233 110.674,58.174 116.658,82.356c1.012,4.091 17.461,20.373 12.54,25.347c-6.356,6.423 -53.644,-19.361 -57.998,-23.763c-5.879,-5.942 -7.575,-18.305 -15.676,-23.762c-4.318,-2.91 -25.218,6.753 -26.647,11.089c-5.055,15.325 4.9,23.762 -20.378,23.762c-2.752,0 -9.158,1.166 -10.973,-1.585c-4.355,-6.601 4.447,-76.927 2.474,-93.444Z" style="fill:#fff;fill-opacity:0.07;fill-rule:nonzero;"/><g transform="matrix(0.999243,0.0388923,-0.0388923,0.999243,7.35796,-1.8959)"><text x="208.049px" y="357.706px" style="font-family:'BerlinSansFBDemi-Bold', 'Berlin Sans FB Demi', sans-serif;font-weight:700;font-size:48px;fill:#fff;">OCEANIA</text></g></g></svg>