<?xml version="1.0" encoding="UTF-8" standalone="no"?><!DOCTYPE svg PUBLIC "-//W3C//DTD SVG 1.1//EN" "http://www.w3.org/Graphics/SVG/1.1/DTD/svg11.dtd"><svg width="100%" height="100%" viewBox="0 0 301 421" version="1.1" xmlns="http://www.w3.org/2000/svg" xmlns:xlink="http://www.w3.org/1999/xlink" xml:space="preserve" xmlns:serif="http://www.serif.com/" style="fill-rule:evenodd;clip-rule:evenodd;stroke-linejoin:round;stroke-miterlimit:2;"><g id="ico-sa"><path d="M131.535,17.548c-10.072,-5.604 -16.489,-13.838 -27.717,-16.107c-11.794,-2.384 -27.827,-2.046 -37.419,2.801c-0.215,0.109 -38.495,-7.474 -49.893,9.804c-7.373,11.177 -1.131,43.863 -2.772,45.52c-10.675,10.789 -10.72,24.389 -13.165,39.217c-4.977,30.178 23.833,64.704 42.269,83.335c6.392,6.46 16.403,7.474 22.174,13.307c21.795,22.025 -14.048,101.415 -21.481,123.953c-4.784,14.504 1.089,38.164 0,42.018c-1.857,6.568 -5.583,8.815 -9.008,14.006c-6.652,10.084 3.255,31.302 9.701,37.817c2.79,2.819 21.265,11.859 23.56,4.902c0.827,-2.507 -11.668,-9.442 -9.008,-17.508c1.698,-5.149 14.289,-6.47 17.324,-12.605c3.614,-7.305 -6.687,-11.938 -4.851,-17.508c1.462,-4.434 12.614,-12.047 15.937,-15.407c2.832,-2.862 1.35,-10.467 4.159,-13.305c1.861,-1.882 13.138,-11.663 15.937,-12.606c5.41,-1.823 26.334,-7.706 29.104,-13.306c1.868,-3.776 -0.353,-12.834 3.465,-15.407c6.668,-4.492 18.176,0.756 25.638,-4.902c4.686,-3.551 4.889,-12.644 9.009,-16.807c6.873,-6.946 15.152,-9.009 22.174,-16.106c3.845,-3.885 4.901,-14.434 8.315,-19.609c8.024,-12.162 24.463,-12.711 35.341,-18.208c2.807,-1.418 24.132,-37.983 27.717,-43.418c4.769,-7.229 3.444,-19.565 7.623,-28.013c9.829,-19.866 29.643,-25.989 24.253,-53.222c-3.532,-17.848 -61.006,-16.472 -61.673,-16.808c-1.132,-0.572 -4.555,-15.506 -17.322,-11.205c-3.282,1.106 -13.45,16.383 -18.017,13.307c-3.084,-2.078 1.466,-10.423 -0.694,-12.606c-2.648,-2.677 -8.576,1.836 -10.394,0c-0.188,-0.191 6.117,-22.242 0,-31.514c-12.888,-19.538 -26.491,-6.734 -39.497,-13.305c-7.22,-3.648 -16.76,-10.713 -24.253,-12.606" style="fill:#3e7d53;fill-rule:nonzero;"/><path d="M134.956,18.582c5.958,2.958 11.51,6.669 17.368,9.823c13.006,6.572 26.609,-6.233 39.497,13.305c6.117,9.272 -0.188,31.324 0,31.515c1.818,1.835 7.746,-2.678 10.394,0c2.16,2.182 -2.39,10.527 0.694,12.604c4.567,3.078 14.735,-12.199 18.017,-13.305c12.767,-4.302 16.19,10.632 17.322,11.204c0.667,0.337 58.141,-1.039 61.673,16.809c5.39,27.233 -14.424,33.355 -24.253,53.222c-4.179,8.447 -2.854,20.783 -7.623,28.012c-3.585,5.436 -24.91,42 -27.717,43.419c-10.878,5.497 -27.317,6.046 -35.341,18.208c-3.414,5.175 -4.47,15.723 -8.314,19.608c-7.023,7.098 -15.302,9.161 -22.175,16.107c-4.119,4.163 -4.323,13.256 -9.009,16.807c-7.462,5.657 -18.97,0.409 -25.638,4.902c-3.818,2.573 -1.596,11.631 -3.465,15.407c-0.927,1.69 -2.579,2.773 -4.211,3.692" style="fill:#fff;fill-opacity:0.07;fill-rule:nonzero;"/><g transform="matrix(0.999243,0.0388923,-0.0388923,0.999243,-68.4297,-28.4665)"><text x="155.641px" y="169.538px" style="font-family:'BerlinSansFBDemi-Bold', 'Berlin Sans FB Demi', sans-serif;font-weight:700;font-size:30px;fill:#fff;">SOUTH</text><text x="155.641px" y="199.538px" style="font-family:'BerlinSansFBDemi-Bold', 'Berlin Sans FB Demi', sans-serif;font-weight:700;font-size:30px;fill:#fff;">AMERICA</text></g></g></svg>