<?xml version="1.0" encoding="UTF-8" standalone="no"?><!DOCTYPE svg PUBLIC "-//W3C//DTD SVG 1.1//EN" "http://www.w3.org/Graphics/SVG/1.1/DTD/svg11.dtd"><svg width="100%" height="100%" viewBox="0 0 411 251" version="1.1" xmlns="http://www.w3.org/2000/svg" xmlns:xlink="http://www.w3.org/1999/xlink" xml:space="preserve" xmlns:serif="http://www.serif.com/" style="fill-rule:evenodd;clip-rule:evenodd;stroke-linejoin:round;stroke-miterlimit:2;"><g id="ico-usa"><path d="M35.152,0.944c13.417,6.365 40.357,2.771 53.383,6.605c5.892,1.734 3.979,5.255 7.695,7.077c5.629,2.762 13.313,3.699 18.275,6.134c2.671,1.31 121.196,-4.716 137.064,10.852c0.885,0.867 -16.67,10.539 -12.023,15.098c2.134,2.093 18.713,-6.821 20.199,-7.549c8.173,-4.01 9.394,1.415 18.275,1.415c1.037,0 6.271,-1.397 7.214,-0.472c4.165,4.086 -24.238,26.046 -15.39,43.406c1.765,3.462 2.823,3.979 5.29,5.19c10.34,5.072 -1.981,-30.667 16.833,-30.667c4.466,0 2.585,7.254 4.809,9.435c6.032,5.917 6.771,-2.284 12.505,8.965c1.343,2.635 -2.205,9.633 -0.962,10.852c0.751,0.738 6.127,-0.822 6.733,-1.416c5.107,-5.01 12.301,-12.067 17.313,-16.985c3.217,-3.156 11.639,-2.455 18.275,-8.965c1.04,-1.02 1.274,-6.745 1.923,-8.019c3.165,-6.209 20.279,-7.602 25.971,-11.324c7.73,-5.056 14.668,-29.842 19.718,-27.365c5.46,2.678 4.469,7.687 8.176,11.323c9.115,8.944 2.94,14.822 -5.771,21.232c-3.822,2.812 -6.905,9.605 -9.138,11.795c-5.684,5.575 4.475,14.011 -0.481,18.872c-8.94,8.771 -16.077,11.73 -21.161,21.703c-5.221,10.244 0.597,33.156 -2.405,41.992c-7.009,20.631 -35.588,32.292 -35.588,56.616c0,7.453 24.205,40.42 19.237,45.294c-1.123,1.102 -5.166,1.119 -6.733,1.887c-8.53,4.184 -24.504,-33.476 -29.336,-38.216c-4.09,-4.012 -31.209,-4.073 -38.956,-6.605c-12.031,-3.935 -8.451,9.571 -17.794,14.154c-16.102,7.899 -31.535,-12.469 -55.787,11.323c-8.251,8.095 -6.231,24.76 -7.695,25.477c-5.431,2.665 -17.141,-12.4 -19.238,-16.512c-1.292,-2.538 -6.329,-5.418 -7.694,-9.436c-1.092,-3.213 -1.637,-12.599 -4.81,-14.155c-9.844,-4.83 -18.371,10.285 -21.16,7.549c-4.573,-4.486 -10.035,-26.995 -32.703,-32.555c-13.203,-3.238 -29.405,3.873 -41.36,-4.246c-12.921,-8.775 -8.213,-7.684 -20.198,-11.324c-10.007,-3.038 -20.773,-4.899 -25.971,-15.098c-14.775,-28.991 -30.035,-68.834 -16.351,-101.438c3.643,-8.68 8.145,-14.093 12.504,-22.647c2.408,-4.723 -2.219,-17.168 1.443,-20.76c0.707,-0.693 2.403,-3.46 4.328,-2.831c2.493,0.816 17.844,18.125 11.542,-6.605" style="fill:#dc4747;fill-rule:nonzero;"/><path d="M190.071,21.242c15.16,0.56 30.407,1.304 45.328,4.169c5.534,1.063 11.84,2.482 16.17,6.261c0.885,0.867 -16.67,10.538 -12.023,15.097c2.134,2.094 18.713,-6.819 20.199,-7.548c8.173,-4.009 9.394,1.416 18.275,1.416c1.037,0 6.271,-1.398 7.214,-0.472c4.165,4.086 -24.238,26.045 -15.39,43.406c1.765,3.462 2.823,3.979 5.29,5.19c10.34,5.072 -1.981,-30.668 16.833,-30.668c4.466,0 2.585,7.253 4.809,9.436c6.032,5.917 6.771,-2.285 12.505,8.964c1.343,2.636 -2.205,9.633 -0.962,10.852c0.751,0.738 6.127,-0.823 6.733,-1.415c5.107,-5.011 12.301,-12.068 17.313,-16.986c3.217,-3.155 11.639,-2.455 18.275,-8.964c1.04,-1.02 1.274,-6.746 1.923,-8.021c3.165,-6.208 20.279,-7.6 25.971,-11.322c7.73,-5.056 14.668,-29.843 19.718,-27.366c5.46,2.679 4.469,7.687 8.176,11.324c9.115,8.942 2.94,14.822 -5.771,21.23c-3.822,2.813 -6.905,9.605 -9.138,11.796c-5.684,5.576 4.475,14.01 -0.481,18.872c-8.94,8.771 -16.077,11.73 -21.161,21.704c-5.221,10.244 0.597,33.156 -2.405,41.99c-7.009,20.632 -35.588,32.293 -35.588,56.618c0,7.452 24.205,40.42 19.237,45.293c-1.123,1.102 -5.166,1.119 -6.733,1.887c-8.53,4.184 -24.504,-33.476 -29.336,-38.216c-4.09,-4.012 -31.209,-4.073 -38.956,-6.605c-12.031,-3.935 -8.451,9.571 -17.794,14.154c-16.102,7.898 -31.535,-12.468 -55.787,11.323c-8.251,8.094 -6.231,24.76 -7.695,25.478c-4.169,1.413 -8.567,-3.43 -11.122,-6.033" style="fill:#fff;fill-opacity:0.07;fill-rule:nonzero;"/><g transform="matrix(0.999243,0.0388923,-0.0388923,0.999243,-1.52234,0.309342)"><text x="146.929px" y="130.565px" style="font-family:'BerlinSansFBDemi-Bold', 'Berlin Sans FB Demi', sans-serif;font-weight:700;font-size:48px;fill:#fff;">USA</text></g></g></svg>