<svg width="951" height="974" viewBox="0 0 951 974" fill="none" xmlns="http://www.w3.org/2000/svg">
<path d="M629.751 56.669C641.037 56.669 648.66 54.4969 659.784 56.669C673.286 56.669 684.94 65.4311 693.727 74.223C704.563 85.0657 714.931 96.6407 721.948 109.903C725.67 116.937 733.927 124.905 738.729 131.846C743.721 139.062 746.342 146.061 750.742 153.216C756.795 163.059 762.483 172.785 768.667 182.409C775.09 192.407 777.659 202.904 782.968 212.938C791.05 228.213 796.703 243.002 803.562 259.303C806.564 266.437 809.363 271.812 812.906 278.193C814.464 280.999 821.527 293.272 824.538 293.648C828.815 294.183 835.662 300.694 839.984 302.616C846.667 305.588 854.891 310.821 862.294 310.821C876.315 310.821 891.257 309.724 904.34 312.633C911.98 314.332 919.318 322.34 926.746 324.463C929.739 325.319 932.47 329.772 932.657 333.145C932.98 338.966 934.642 336.915 937.806 340.872C946.378 351.594 954.132 364.834 949.724 380.274C945.018 396.754 938.069 415.177 931.799 432.745C928.374 442.342 922.902 450.414 918.928 459.362C913.526 471.524 910.376 483.688 906.533 496.664C903.725 506.149 903.482 513.546 903.482 523.759C903.482 530.159 899.256 536.847 904.817 543.03C914.453 553.743 924.918 563.496 932.276 575.276C934.208 578.369 942.76 585.706 942.954 589.014C943.334 595.479 944.671 602.379 944.671 609.621C944.671 627.127 941.238 643.505 941.238 661.138C941.238 676.683 936.09 695.432 936.09 710.938C936.09 719.43 932.657 727.343 932.657 735.838C932.657 744.947 925.792 754.216 925.792 763.314C925.792 773.576 921.977 783.421 916.258 791.744C910.311 800.4 909.424 808.751 905.198 818.266C896.876 837.002 881.947 846.29 864.01 853.469C842.95 861.898 821.581 864.989 798.89 862.151C781.631 859.992 768.81 872.668 762.755 887.814C760.733 892.874 752.165 899.608 747.31 901.552C739.661 904.613 738.953 915.19 731.006 918.724C721.799 922.819 714.619 929.572 706.121 935.038C701.452 938.041 691.332 943.509 688.578 947.917C685.862 952.265 674.651 955.673 670.082 957.839C660.81 962.234 651.001 965.915 641.288 968.906C634.183 971.093 627.095 975.052 620.312 978.446C610.887 983.162 600.791 984.926 590.756 987.795C580.352 990.77 569.418 996 558.53 996C550.421 996 542.225 994.283 534.503 994.283C515.528 994.283 501.997 990.04 484.925 981.499C480.207 979.139 466.75 977.293 464.14 972.722C461.98 968.94 459.157 967.487 456.417 964.136C453.333 960.365 450.471 956.146 447.359 952.687C445.394 950.502 442.798 945.945 440.971 944.483C435.246 939.9 434.583 930.096 428.958 925.593C426.889 923.937 426.51 919.391 424.286 917.389C421.782 915.133 416.31 915.322 413.608 912.618C407.57 906.577 407.302 894.372 403.311 886.955C398.533 878.076 399.55 864.771 392.918 856.808C388.323 851.29 381.664 837.138 380.142 830.286C377.195 817.013 364.357 804.907 362.885 791.648C361.853 782.355 356.02 773.985 356.02 764.172C356.02 757.335 355.726 746.338 352.969 740.131C351.65 737.161 351.909 730.02 353.446 727.252C356.012 722.631 353.209 716.307 354.686 711.32C357.222 702.754 362.885 692.256 362.885 683.462C362.885 674.553 364.601 665.223 364.601 655.986L364.602 655.456C364.604 649.58 364.609 635.731 362.504 630.991C359.301 623.779 359.459 615.547 355.639 607.904C353.601 603.824 346.219 596.418 345.723 592.448C345.419 590.011 341.001 586.051 339.717 583.767C337.061 579.042 334.249 573.089 332.375 568.025C330.361 562.585 324.066 556.46 323.413 551.234C322.825 546.524 316.816 538.795 314.451 534.062C311.323 527.803 303.14 520.724 295.954 520.324C264.433 518.572 234.999 528.907 203.28 525.38C192.065 524.133 182.247 521.085 171.531 518.702C167.388 517.781 154.272 515.695 151.795 512.597C147.687 507.459 138.411 505.406 133.68 500.671C127.869 494.857 121.927 488.962 115.755 483.403C108.312 476.701 102.746 466.673 98.0023 458.126L97.7352 457.645C93.7244 450.421 82.7771 442.113 76.1876 436.179C69.5422 430.195 62.9185 425.942 57.0236 419.389C54.6281 416.725 52.8447 412.174 49.7775 410.421C47.8728 409.332 47.0812 404.578 45.3917 402.789C42.112 399.314 39.3184 394.069 37.1922 389.814C33.6183 382.662 25.156 375.023 19.649 369.207C13.6244 362.844 1.32636 352.895 0.771024 343.448L0.722067 342.617C-0.0223133 329.986 -0.903036 315.041 2.10583 302.998C3.25817 298.386 4.82357 293.861 5.82422 289.355C6.20172 287.655 7.07733 281.467 8.01712 280.292C15.3821 271.08 25.6517 260.265 31.2809 249C34.3804 242.797 37.5191 233.599 42.3407 228.775C45.1081 226.006 48.8241 217.639 48.8241 213.797C48.8241 207.177 55.6158 198.168 57.5003 191.568C59.1769 185.696 64.7808 177.568 68.6555 172.583C73.0885 166.88 78.4883 160.319 81.4315 153.693C82.4323 151.44 84.7229 147.43 86.1987 145.584C88.569 142.619 84.8639 139.151 84.8639 136.521C84.8639 130.048 83.6852 126.108 87.4382 119.348C89.8871 114.938 98.5933 108.849 98.5933 103.893C98.5933 99.4785 101.839 90.3949 104.695 86.7207C110.811 78.8532 117.422 66.325 125.194 60.1034C136.117 51.3594 145.103 41.551 157.706 34.3448C168.441 28.2069 179.813 21.532 192.125 18.7943C199.446 17.1665 203.668 13.7379 211.861 13.7379H237.604C255.354 13.7379 271.398 5.15172 288.708 5.15172C305.713 5.15172 321.469 0 338.859 0C350.857 0 363.06 2.81104 374.898 3.43448C383.794 3.90295 391.583 6.86897 400.26 6.86897C407.741 6.86897 417.597 13.2557 425.049 15.8368C433.912 18.9065 442.44 19.672 450.41 23.6598C455.684 26.2984 464.921 29.0204 468.907 33.0092C472.455 36.5594 477.229 41.8835 482.064 44.6483C488.158 48.1326 490.751 55.3379 497.605 58.3862C505.173 61.7516 511.648 61.8207 519.916 61.8207C534.351 61.8207 547.83 58.3862 562.82 58.3862C576.631 58.3862 593.116 60.3965 605.82 56.7644C612.686 54.8016 622.62 56.669 629.751 56.669Z" fill="#C2E9FF"/>
</svg>
