<?xml version="1.0" encoding="UTF-8"?>
<!DOCTYPE svg PUBLIC "-//W3C//DTD SVG 1.1//EN" "http://www.w3.org/Graphics/SVG/1.1/DTD/svg11.dtd">
<svg version="1.1" xmlns="http://www.w3.org/2000/svg" xmlns:xlink="http://www.w3.org/1999/xlink" x="0" y="0" width="2155" height="2048" viewBox="0, 0, 2155, 2048">
  <g id="africafresh" transform="translate(0, 0)">
    <path d="M201.914,694.148 C202.375,693.687 210.992,694.08 214.041,693.699 C217.67,693.246 235.383,696.746 240.652,697.405 C247.626,698.276 265.773,701.684 267.151,701.559 C271.493,701.164 280.27,702.98 281.748,697.068 C282.09,695.7 280.998,694.296 280.176,693.475 C276.903,690.201 256.058,690.372 243.382,685.467 C239.452,683.947 224.239,680.981 222.687,680.787 C221.158,680.595 198.909,675.712 199.265,675.804 L199.42,675.46 C199.193,682.133 197.328,679.776 201.677,693.524" fill="#6EB191" id="The-Gambia"/>
    <path d="M2142.391,1578.117 C2142.031,1578.187 2141.661,1578.307 2141.291,1578.457 C2139.361,1579.237 2136.951,1581.617 2135.391,1584.747 C2133.931,1587.667 2133.211,1591.127 2133.781,1593.917 C2134.291,1596.457 2135.701,1598.577 2138.281,1599.877 C2141.431,1601.447 2144.201,1601.477 2146.501,1600.707 C2151.301,1599.097 2154.461,1593.177 2154.611,1587.507 C2154.781,1581.207 2151.401,1576.117 2145.851,1576.117 C2144.371,1576.117 2143.081,1576.917 2142.391,1578.117 z M2146.611,1586.597 C2145.621,1587.047 2144.531,1587.047 2143.571,1586.687 C2143.501,1586.767 2143.441,1586.837 2143.391,1586.907 C2142.781,1587.767 2142.241,1588.827 2141.901,1589.917 C2141.681,1590.627 2141.531,1591.357 2141.581,1592.037 C2141.601,1592.297 2141.601,1592.587 2141.861,1592.717 C2142.681,1593.127 2143.371,1593.317 2143.961,1593.117 C2144.571,1592.917 2144.991,1592.397 2145.361,1591.817 C2146.171,1590.537 2146.571,1588.867 2146.621,1587.287 C2146.621,1587.057 2146.621,1586.827 2146.611,1586.597 z" fill="#6EB191" id="Mauritius"/>
    <path d="M2018.611,1189.307 C2018.261,1188.427 2017.621,1187.847 2017.031,1187.447 C2016.241,1186.917 2015.081,1186.497 2013.581,1186.877 C2012.781,1187.087 2011.181,1187.977 2009.891,1189.407 C2008.521,1190.927 2007.581,1192.947 2007.541,1194.517 C2007.511,1195.967 2007.991,1197.257 2009.061,1198.327 C2010.311,1199.587 2011.651,1200.037 2012.911,1200.087 C2014.151,1200.147 2015.381,1199.787 2016.491,1199.037 C2018.621,1197.587 2020.111,1194.277 2020.111,1192.417 C2020.111,1191.157 2019.531,1190.037 2018.611,1189.307 z M2010.891,1190.497 L2010.931,1190.297 C2010.911,1190.367 2010.901,1190.437 2010.891,1190.497 z" fill="#6EB191" id="Seychelles"/>
    <path d="M1771.521,1344.117 C1771.111,1344.257 1770.711,1344.467 1770.341,1344.757 C1767.961,1346.617 1767.691,1347.367 1766.471,1350.207 C1765.781,1351.807 1765.281,1353.337 1765.101,1355.117 C1764.721,1358.927 1765.871,1361.357 1767.281,1362.807 C1769.081,1364.657 1771.621,1365.297 1774.221,1364.677 C1778.101,1363.737 1782.181,1359.617 1781.591,1353.787 C1781.441,1352.237 1780.871,1350.707 1780.181,1349.227 C1779.691,1348.177 1778.951,1347.207 1778.951,1346.177 C1778.951,1343.977 1777.161,1342.177 1774.951,1342.177 C1773.491,1342.177 1772.221,1342.957 1771.521,1344.117 z M1773.541,1354.047 C1773.311,1354.647 1773.131,1355.247 1773.061,1355.907 C1773.051,1355.997 1773.051,1356.087 1773.051,1356.177 C1773.381,1355.747 1773.701,1355.177 1773.631,1354.577 C1773.621,1354.397 1773.591,1354.227 1773.541,1354.047 z" fill="#6EB191" id="Comoros"/>
    <path d="M22.267,641.524 C21.069,642.076 19.943,642.407 19.016,642.856 C17.661,643.512 16.573,644.355 15.757,645.534 C14.665,647.111 13.895,649.531 14.622,653.891 C14.613,653.837 14.589,653.638 14.589,653.638 C14.589,653.638 14.97,656.829 15.724,657.983 C16.374,658.981 17.249,659.605 18.211,659.916 C19.2,660.236 20.384,660.304 21.759,659.617 C22.443,659.275 23.625,658.343 24.845,656.916 C26.947,654.459 29.508,650.389 30.209,647.691 C30.821,645.333 30.283,643.457 29.353,642.287 C28.503,641.217 27.203,640.35 25.114,640.35 C24.145,640.35 23.209,640.701 22.48,641.339 L22.269,641.523 L22.267,641.524 z M42.124,611.372 C41.624,611.418 41.262,611.591 41.009,611.857 L40.956,611.885 L40.956,611.885 L40.953,611.886 C40.897,611.917 40.841,611.948 40.787,611.981 C37.707,613.752 34.072,619.142 33.266,623.001 C32.585,626.259 33.713,628.704 35.52,629.909 C39.367,632.474 45.489,631.402 49.928,628.278 C52.255,626.641 54.052,624.536 54.899,622.545 C55.778,620.48 55.785,618.441 54.975,616.64 C54.056,614.596 51.709,612.356 46.625,611.624 C45.28,610.903 43.751,610.801 42.124,611.372 z M43.927,619.573 C43.372,620.14 42.841,620.93 42.36,621.729 C42.083,622.191 41.815,622.805 41.597,623.373 L41.758,623.342 C42.99,623.1 44.249,622.492 45.325,621.735 C45.954,621.293 46.637,620.509 47.083,619.952 L46.913,619.899 C46.757,619.855 46.602,619.811 46.446,619.768 L46.046,619.671 C45.682,619.732 45.305,619.741 44.927,619.695 L43.927,619.573 z M44.316,617.104 C43.952,617.774 43.572,618.367 43.289,618.784 L43.918,619.065 C44.185,618.957 44.438,618.821 44.673,618.66 L44.316,617.104 z" fill="#6EB191" id="Cabo-Verde"/>
    <path d="M802.771,1035.937 C802.061,1036.557 801.101,1037.857 801.031,1040.437 C800.971,1042.517 802.511,1044.267 804.531,1044.517 C805.371,1045.787 806.371,1047.177 807.501,1048.217 C809.101,1049.707 810.941,1050.617 812.891,1050.717 C814.851,1050.827 817.091,1050.217 819.381,1047.927 C821.701,1045.607 822.501,1043.207 822.501,1041.017 C822.501,1036.397 818.221,1032.097 813.651,1030.587 C810.611,1029.597 807.641,1029.887 805.731,1031.107 C804.191,1032.097 803.031,1033.627 802.771,1035.937 z M810.521,1038.167 C810.461,1038.357 810.381,1038.537 810.291,1038.707 C810.711,1039.387 811.191,1040.157 811.721,1040.897 C812.131,1041.477 812.971,1042.287 813.321,1042.607 C813.451,1042.517 813.611,1042.387 813.731,1042.277 C814.151,1041.847 814.461,1041.487 814.501,1041.077 C814.551,1040.507 814.091,1040.087 813.651,1039.667 C812.911,1038.957 811.421,1038.437 810.521,1038.167 z" fill="#6EB191" id="Sao-Tome"/>
    <path d="M251.362,760.756 C258.212,748.63 266.554,740.459 281.812,734.444 L311.545,723.659 C308.393,713.61 285.876,712.186 269.137,714.171 C251.01,716.32 224.886,728.438 209.937,725.649 L209.241,725.024 C222.81,765.732 240.071,757.884 251.108,759.526" fill="#6EB191" id="Guinea-Bissau"/>
    <path d="M213.059,727.548 C229.31,727.013 232.439,723.184 250.148,718.757 C269.487,713.922 261.373,714.4 279.206,714.4 L290.956,713.403 C290.956,714.791 310.13,724.11 311.545,723.659 C322.33,720.228 339.707,722.293 339.476,722.281 L339.66,722.111 C335.61,709.962 332.317,696.53 330.427,682.938 C329.308,674.884 328.681,666.775 328.681,658.844 L328.233,658.473 C314.632,653.939 301.949,634.91 289.695,628.783 C275.37,621.62 260.878,614.983 247.052,608.07 C234.424,601.756 225.004,617.817 216.592,617.817 L217.088,617.257 C211.542,620.046 212.047,630.592 210.223,634.853 C205.939,644.865 192.021,649.853 189.04,660.224 C188.178,663.222 201.37,677.029 205.297,678.452 C213.866,681.557 223.199,681.885 232.146,683.624 C243.907,685.912 255.199,690.015 267.152,690.857 C268.511,690.953 284.35,690.16 281.574,697.411 C279.239,703.511 263.988,701.092 260.965,700.621 C240.791,697.471 241.194,695.838 220.96,694.268 C217.005,693.962 204.512,692.941 203.326,694.463 C201.182,697.213 204.436,711.097 204.766,712.201 C207.792,722.324 205.409,725.351 214.246,727.079 C215.478,727.319 217.013,727.098 217.901,727.985" fill="#6EB191" id="Senegal"/>
    <path d="M318.399,722.56 C295.504,723.84 266.953,740.14 250.148,756.945 C250.148,756.945 250.707,756.713 250.148,756.945 C267.412,796.121 279.365,772.357 295.584,818.976 L295.359,818.752 C294.424,803.818 327.145,771.782 343.304,779.862 C356.861,786.64 355.925,801.448 361.58,812.758 C365.164,819.927 371.416,830.591 378.637,832.971 L382.47,832.422 C397.329,832.905 397.758,851.373 403.005,856.62 C406.142,859.757 418.088,855.963 422.74,854.044 L422.018,854.681 C428.842,850.219 433.424,844.643 438.338,834.689 C440.683,829.938 442.094,827.274 441.345,821.432 L441.315,822.82 C440.028,818.796 437.105,815.165 435.901,812.758 C422.562,786.081 431.256,754.504 410.315,733.563 C386.264,709.512 363.497,752.491 339.476,722.281 L339.476,722.281 C331.4,721.891 325.231,721.361 315.183,722.818" fill="#6EB191" id="Guinea"/>
    <path d="M377.878,834.165 C377.878,826.589 365.164,819.927 361.58,812.758 C355.925,801.448 356.861,786.64 343.304,779.862 C327.145,771.782 294.247,804.808 295.183,819.743 L295.105,819.093 C302.364,833.611 301.206,843.581 315.281,852.965 C329.262,862.285 326.674,855.822 340.424,863.435 L340.867,862.712 C349.071,854.508 367.599,838.153 378.637,833.599" fill="#6EB191" id="Sierra-Leone"/>
    <path d="M422.873,855.738 C416.024,852.953 406.142,859.757 403.005,856.62 C397.758,851.373 396.769,839.466 389.603,834.689 C376.701,826.088 350.137,852.004 340.306,863.119 L340.144,863.208 C354.124,872.528 345.831,866.021 359.143,874.895 C371.784,883.323 380.363,901.274 393.875,910.189 C405.97,918.169 424.982,931.258 450.098,933.861 L449.729,933.39 C450.56,898.175 429.293,903.104 416.407,877.332 C415.634,875.786 416.407,871.906 416.407,870.022 C416.407,859.169 419.021,865.311 423.985,855.382" fill="#6EB191" id="Liberia"/>
    <path d="M498.394,774.693 C486.684,776.284 455.429,772.518 446.866,781.08 C446.365,781.582 443.882,783.394 443.211,784.735 C434.966,801.226 445.821,819.722 438.338,834.689 C433.373,844.618 416.407,859.169 416.407,870.022 C416.407,871.906 415.634,875.786 416.407,877.332 C429.293,903.104 449.702,895.291 449.702,932.872 L449.243,933.195 C457.517,937.333 519.3,917.356 533.372,912.665 C556.369,905 552.735,919.038 571.589,913.689 L571.64,913.077 C549.925,891.362 571.141,859.113 571.141,834.689 C571.141,824.803 569.426,798.768 568.966,792.522 L569.14,794.004 C562.092,783.498 511.613,804.497 497.077,774.577" fill="#6EB191" id="Cote-d-Ivoire"/>
    <path d="M570.916,914.631 C581.416,920.747 582.897,927.428 608.911,918.757 C638.353,908.943 659.533,897.897 673.821,886.132 L673.485,887.079 C668.012,881.606 662.691,876.456 658.865,868.804 C653.309,857.692 665.555,840.759 660.083,829.815 C652.949,815.546 636.361,778.316 644.133,762.772 L644.173,763.041 C633.622,764.603 580.301,758.834 569.923,764.023 C565.023,766.473 571.141,824.803 571.141,834.689 C571.141,859.113 548.208,892.168 569.923,913.884" fill="#6EB191" id="Ghana"/>
    <path d="M698.231,730.328 C700.571,734.098 698.081,745.517 695.421,748.184 C688.553,755.047 679.624,757.713 672.26,762.967 L672.368,763.093 C668.377,763.282 645.151,759.158 643.535,762.39 L644.065,761.371 C638.791,768.578 580.301,758.834 569.923,764.023 C565.023,766.473 568.966,782.637 568.966,792.522 L568.966,792.522 C557.536,788.401 517.951,798.556 504.13,784.735 C486.18,766.785 500.168,736.763 518.751,727.471 C529.64,722.027 530.749,700.76 540.682,695.793 C568.113,682.078 606.792,670.658 636.934,655.587 C643.284,652.412 652.592,658.758 657.223,657.871 L656.657,657.571 C657.146,661.169 650.238,663.641 648.92,670.191 C647.849,675.511 650.467,683.522 663.738,697.012 C669.302,702.667 678.075,706.008 684.451,709.196 C694.266,714.103 700.041,724.135 698.501,733.054" fill="#6EB191" id="Burkina-Faso"/>
    <path d="M672.366,762.786 C668.375,762.974 645.861,758.353 644.244,761.586 C636.472,777.13 649.57,814.449 656.705,828.718 C662.177,839.662 651.649,859.063 657.205,870.174 C661.031,877.826 668.012,881.606 673.485,887.079 L673.969,887.388 C676.098,887.58 681.723,887.523 684.907,885.193 L684.451,885.861 C684.451,856.69 687.636,828.405 678.359,800.574 C676.001,793.501 662.182,771.05 671.61,763.164" fill="#6EB191" id="Togo"/>
    <path d="M736.701,748.487 C731.291,746.911 714.891,726.347 702.331,732.627 C695.111,736.235 700.291,743.312 695.421,748.184 C688.553,755.047 675.427,755.266 668.612,768.896 C664.933,776.254 676.001,793.501 678.359,800.574 C687.636,828.405 684.451,856.69 684.451,885.861 L684.626,886.589 C694.471,887.086 706.271,885.502 712.191,883.096 L710.861,882.71 C710.861,862.662 709.491,838.223 718.561,820.068 C728.861,799.477 738.061,787.944 738.061,760.368 C738.061,748.551 739.021,747.397 733.091,745.329" fill="#6EB191" id="Benin"/>
    <path d="M892.737,1019.904 C892.047,1037.364 860.951,1075.767 883.051,1097.857 C905.921,1120.737 911.491,1129.687 932.811,1151.007 L933.251,1151.417 C933.251,1151.307 948.681,1141.887 950.061,1140.507 C950.531,1140.027 950.061,1136.367 950.061,1135.627 C950.061,1129.767 943.531,1094.597 967.111,1106.387 C976.011,1110.837 989.421,1108.407 1000.011,1113.697 C1005.051,1116.217 1008.121,1122.257 1010.981,1113.697 C1020.091,1086.357 1007.321,1070.607 1007.321,1047.907 C1007.321,1040.457 1022.391,1026.427 1015.851,1019.887 C1007.951,1011.987 972.301,1014.217 991.291,995.227 L993.894,993.671 C989.824,994.181 980.77,987.609 970.771,989.423 C967.062,990.096 954.983,990.973 946.694,992.824 C946.102,992.956 946.81,995.964 946.694,999.83 C946.474,1007.202 945.748,1017.812 944.774,1018.382 C944.774,1018.382 944.774,1018.382 944.774,1018.382 C931.073,1018.399 925.533,1018.781 899.833,1020.99 C897.992,1021.149 895.319,1020.292 892.791,1019.887" fill="#6EB191" id="Gabon"/>
    <path d="M952.761,1182.347 C959.481,1178.677 996.201,1167.457 998.791,1164.867 C1002.211,1161.457 1043.561,1196.257 1059.711,1147.817 C1063.371,1136.837 1058.761,1108.567 1067.021,1100.297 C1075.961,1091.367 1102.451,1071.447 1104.101,1055.557 C1108.711,1011.027 1125.181,981.028 1130.041,954.617 L1130.171,955.247 C1125.361,953.248 1120.831,951.799 1116.561,950.837 C1081.981,943.036 1064.881,967.141 1062.411,988.494 C1061.831,993.427 1065.061,996.827 1062.001,999.887 C1049.561,1012.327 1004.571,982.426 990.261,996.737 C971.271,1015.727 1007.951,1011.987 1015.851,1019.887 C1022.391,1026.427 1007.321,1040.457 1007.321,1047.907 C1007.321,1070.607 1020.091,1086.357 1010.981,1113.697 C1008.121,1122.257 1005.051,1116.217 1000.011,1113.697 C989.421,1108.407 976.011,1110.837 967.111,1106.387 C943.531,1094.597 950.061,1129.767 950.061,1135.627 C950.061,1136.367 950.531,1140.027 950.061,1140.507 C948.681,1141.887 933.931,1150.957 933.931,1151.057 L933.121,1151.577 C945.381,1166.397 938.941,1161.267 952.891,1184.017" fill="#6EB191" id="Congo"/>
    <path d="M1005.285,701.167 C1007.898,710.863 1024.701,731.711 1018.291,744.529 C1001.741,777.622 973.491,810.976 956.151,845.654 C951.391,855.178 949.241,868.397 942.751,874.895 C940.381,877.264 901.911,869.429 880.611,890.734 C871.121,900.229 870.581,919.038 862.331,927.286 L863.131,926.627 C866.891,929.945 887.121,944.482 890.271,950.79 C908.691,987.639 897.851,979.777 897.581,994.481 L897.581,994.481 C901.846,994.365 902.439,991.711 905.938,992.143 C930.514,995.18 943.541,993.568 970.771,989.423 C980.818,987.893 988.391,993.317 992.471,992.797 L991.521,992.957 C1014.381,994.607 1043.537,1006.854 1058.677,1001.504 C1067.797,998.274 1062.861,981.404 1065.081,976.963 L1065.801,976.021 C1052.541,976.021 1008.471,907.932 1017.071,890.734 C1021.991,880.882 1029.121,870.155 1037.781,861.493 C1040.141,859.131 1044.121,854.722 1047.511,856.165 C1055.911,859.74 1055.911,859.74 1048.501,853.804 C1047.131,855.176 1044.911,848.938 1043.871,846.873 C1039.381,837.89 1004.291,804.823 1010.981,798.137 C1017.581,791.536 1041.081,795.192 1045.091,787.172 C1047.021,783.303 1042.931,770.937 1041.441,766.46 C1037.301,754.051 1041.961,741.659 1034.131,729.908 C1022.191,711.999 1017.905,714.581 1005.285,701.167" fill="#6EB191" id="Cameroon"/>
    <path d="M995.49,683.09 C988.35,682.017 978.581,698.065 970.771,700.667 C957.561,705.071 933.381,704.322 919.601,704.322 C909.221,704.322 895.751,709.066 885.481,711.632 C874.721,714.323 836.411,716.336 827.001,711.632 C815.041,705.654 795.281,686.062 780.701,690.92 C764.611,696.283 753.771,703.23 742.931,714.069 C734.601,722.406 738.061,748.551 738.061,760.368 C738.061,787.944 728.861,799.477 718.561,820.068 C709.491,838.223 710.561,858.869 710.561,878.918 L709.361,878.429 C776.201,882.323 784.411,920.609 800.201,928.504 C830.311,943.56 849.831,929.908 862.941,927.842 L862.331,927.286 C870.581,919.038 871.121,900.229 880.611,890.734 C901.911,869.429 940.381,877.264 942.751,874.895 C949.241,868.397 951.391,855.178 956.151,845.654 C973.491,810.976 1001.741,777.622 1018.291,744.529 C1024.701,731.711 1009.137,716.273 1006.947,705.628 L1003.899,699.792 C1002.208,697.344 997.343,690.053 995.49,683.158" fill="#6EB191" id="Nigeria"/>
    <path d="M1134.201,956.984 C1090.491,942.552 1079.881,956.972 1065.201,976.073 L1065.801,976.021 C1052.541,976.021 1008.471,907.932 1017.071,890.734 C1021.991,880.882 1029.121,870.155 1037.781,861.493 C1040.141,859.131 1043.701,858.007 1046.311,855.401 C1047.941,853.767 1046.851,853.596 1048.751,852.965 C1068.461,846.393 1090.541,851.563 1109.671,841.999 C1130.801,831.433 1202.618,761.73 1227.048,769.873 C1227.468,770.013 1237.079,771.107 1237.601,771.333 C1263.796,782.655 1241.061,811.354 1254.651,824.942 C1258.401,828.684 1275.821,829.434 1281.461,832.252 C1293.081,838.065 1351.901,909.542 1352.141,919.481 L1351.671,920.837 C1346.321,915.487 1329.531,917.209 1322.881,913.884 C1299.351,902.12 1227.901,942.542 1209.571,933.378 C1189.371,923.278 1155.151,901.292 1137.691,918.757 C1120.591,935.857 1132.551,949.207 1129.191,955.457" fill="#6EB191" id="Central-African-Republic"/>
    <path d="M960.481,417.275 C961.501,415.512 950.731,422.676 948.841,424.095 C937.571,432.549 925.581,439.998 913.501,447.244 C893.111,459.481 865.671,469.622 847.711,485.014 C838.391,493.005 829.291,503.971 818.471,509.381 C804.251,516.493 773.831,524.783 763.651,534.967 C740.631,557.98 764.371,612.221 740.491,636.093 C717.701,658.891 622.673,619.736 654.767,691.751 C657.996,698.997 678.075,706.008 684.451,709.196 C694.266,714.103 693.868,725.923 700.291,732.345 L699.163,733.966 C711.723,727.686 727.546,744.475 735.289,747.424 L738.118,749.285 C738.118,737.469 734.601,722.406 742.931,714.069 C753.771,703.23 764.611,696.283 780.701,690.92 C795.281,686.062 815.041,705.654 827.001,711.632 C836.411,716.336 874.721,714.323 885.481,711.632 C895.751,709.066 909.221,704.322 919.601,704.322 C933.381,704.322 957.561,705.071 970.771,700.667 C978.581,698.065 988.561,681.924 995.701,682.997 L995.511,683.489 C992.911,654.571 1030.241,620.487 1046.311,604.415 C1049.411,601.311 1060.221,515.769 1058.491,510.6 C1055.701,502.208 1043.971,497.589 1041.441,487.45 C1037.121,470.169 1037.161,445.13 1034.901,427 L1035.081,426.252 C1015.371,434.49 1002.321,437.219 984.171,424.095 C979.171,420.48 964.721,419.876 961.241,416.4" fill="#6EB191" id="Niger"/>
    <path d="M517.795,372.091 C507.151,379.732 477.015,380.854 474.889,385.106 C471.843,391.199 475.008,410.185 476.108,416.784 C479.84,439.179 503.14,618.579 498.038,628.783 C490.261,644.338 407.853,636.361 394.476,634.874 C375.301,632.744 360.126,633.774 345.741,640.966 C337.146,645.264 332.768,652.43 328.233,658.473 L327.465,659.242 C327.465,680.558 330.763,697.159 337.212,716.506 C351.107,758.191 386.264,709.512 410.315,733.563 C431.256,754.504 422.562,786.081 435.901,812.758 C437.105,815.165 437.896,819.657 440.639,819.484 L440.55,818.065 C440.673,799.743 436.114,800.574 443.211,784.735 C443.824,783.366 446.365,781.582 446.866,781.08 C455.429,772.518 484.354,776.351 496.065,774.76 L497.077,774.577 C493.056,757.797 500.168,736.763 518.751,727.471 C529.64,722.027 530.749,700.76 540.682,695.793 C568.113,682.078 606.792,670.658 636.934,655.587 C643.284,652.412 652.592,658.758 657.223,657.871 L657.119,657.452 C678.208,630.072 717.701,658.891 740.491,636.093 C764.371,612.221 739.701,557.715 762.711,534.702 L763.141,534.616 C763.141,538.038 736.711,543.496 733.191,543.496 L730.751,543.496 C709.481,543.496 705.781,520.368 697.851,504.508 C691.354,491.509 590.363,426.756 569.923,413.129 C555.682,403.635 521.995,369.385 517.98,372.46" fill="#6EB191" id="Mali"/>
    <path d="M413.794,297.374 C410.652,297.264 417.209,338.006 412.752,342.463 C400.108,355.107 332.109,340.486 326.247,352.21 C318.099,368.507 332.071,395.657 326.247,413.129 C323.285,422.013 304.513,429.793 299.442,439.934 C295.611,447.596 301.381,469.673 295.787,475.267 C290.86,480.193 208.42,480.292 195.977,480.292 L196.185,480.259 C196.185,492.368 209.491,507.57 214.156,521.565 C218.992,536.075 210.455,552.722 214.156,567.864 C220.397,593.4 209.235,600.327 217.413,617.936 L216.592,617.817 C225.004,617.817 234.424,601.756 247.052,608.07 C260.878,614.983 275.37,621.62 289.695,628.783 C301.949,634.91 307.772,652.271 321.373,656.805 C333.764,660.935 337.146,645.264 345.741,640.966 C360.126,633.774 375.301,632.744 394.476,634.874 C407.853,636.361 490.261,644.338 498.038,628.783 C503.14,618.579 479.84,439.179 476.108,416.784 C475.008,410.185 471.843,391.199 474.889,385.106 C477.015,380.854 521.842,381.542 516.314,370.486 C505.067,347.991 467.599,337.197 448.085,324.187 C440.239,318.957 431.424,314.638 423.717,310.785 C421.12,309.486 413.419,297.027 414.435,297.563" fill="#6EB191" id="Mauritania"/>
    <path d="M196.856,480.437 C209.298,480.437 290.86,480.193 295.787,475.267 C301.381,469.673 295.611,447.596 299.442,439.934 C304.513,429.793 323.285,422.013 326.247,413.129 C332.071,395.657 318.099,368.507 326.247,352.21 C332.109,340.486 400.108,355.107 412.752,342.463 C417.209,338.006 411.042,295.038 414.184,295.149 L413.377,295.742 C377.11,299.561 331.576,292.509 307.971,292.509 L308.54,291.727 C272.583,309.706 234.304,408.166 217.811,441.152 C212.344,452.086 199.742,457.261 196.14,481.217" fill="#6EB191" id="Western-Sahara"/>
    <path d="M580.535,69.453 C556.742,74.042 547.104,73.547 526.061,70.764 C519.485,69.895 491.885,54.987 489.51,57.362 C478.711,68.16 468.919,81.485 461.487,96.35 C452.414,114.496 407.004,126.994 395.694,160.924 C386.722,187.842 392.956,229.455 372.545,249.866 C354.837,267.574 330.229,281.58 308.016,292.687 L307.971,292.509 C331.576,292.509 402.453,310.706 417.744,295.416 C433.757,279.402 428.961,249.743 457.832,240.119 C492.351,228.613 512.464,231.786 538.245,206.004 C545.422,198.828 539.054,179.61 546.774,171.89 C557.496,161.167 606.778,170.978 611.348,157.269 C619.647,132.372 578.133,71.004 579.463,70.003" fill="#6EB191" id="Morocco"/>
    <path d="M894.391,216.57 C897.551,154.303 824.841,157.645 850.151,81.73 C855.021,67.126 856.241,48.084 856.241,31.776 C856.241,26.3 857.461,21.274 857.461,15.937 C857.461,13.588 859.001,7.753 860.061,9.055 L859.861,10.261 C809.371,0.922 700.791,15.364 655.21,30.558 C638,36.294 597.588,63.941 580.057,69.785 L579.463,70.003 C578.133,71.004 619.647,132.372 611.348,157.269 C606.778,170.978 557.496,161.167 546.774,171.89 C539.054,179.61 545.422,198.828 538.245,206.004 C512.464,231.786 492.351,228.613 457.832,240.119 C428.961,249.743 429.808,281.361 413.794,297.374 L414.809,296.644 C413.793,296.109 421.12,309.486 423.717,310.785 C431.424,314.638 440.239,318.957 448.085,324.187 C467.599,337.197 505.067,347.991 516.314,370.486 L515.568,371.057 C519.583,367.983 555.682,403.635 569.923,413.129 C590.363,426.756 691.354,491.509 697.851,504.508 C705.781,520.368 709.481,543.496 730.751,543.496 L733.191,543.496 C736.711,543.496 766.641,536.118 766.641,532.695 L763.651,534.967 C773.831,524.783 804.251,516.493 818.471,509.381 C829.291,503.971 838.391,493.005 847.711,485.014 C865.671,469.622 893.111,459.481 913.501,447.244 C925.581,439.998 937.571,432.549 948.841,424.095 C950.731,422.676 964.251,414.607 963.231,416.37 L963.231,417.241 C944.591,398.606 901.381,385.328 894.011,355.865 C886.241,324.779 904.411,292.133 897.671,258.395 C895.041,245.26 890.651,225.526 894.011,212.096" fill="#6EB191" id="Algeria"/>
    <path d="M948.221,137.127 C938.991,131.975 939.931,138.709 908.631,113.407 C887.471,96.297 942.271,73.459 934.221,57.362 C929.981,48.878 920.191,47.672 923.251,35.431 C924.011,32.394 932.631,18.007 930.561,15.937 C928.131,13.5 918.381,18.374 915.941,15.937 C910.961,10.954 904.451,8.095 900.101,3.753 C887.631,-8.719 872.201,14.312 857.261,9.333 L856.981,9.54 C855.931,8.238 857.461,13.588 857.461,15.937 C857.461,21.274 856.241,26.3 856.241,31.776 C856.241,48.084 855.021,67.126 850.151,81.73 C824.841,157.645 894.551,158.646 894.551,213.315 L894.781,212.697 C899.661,193.19 922.251,174.112 935.441,160.924 C939.041,157.315 944.081,139.997 947.181,135.956" fill="#6EB191" id="Tunisia"/>
    <path d="M1034.071,425.999 C1036.331,444.13 1037.121,470.169 1041.441,487.45 C1043.971,497.589 1055.701,502.208 1058.491,510.6 C1060.221,515.769 1049.411,601.311 1046.311,604.415 C1030.241,620.487 1004.251,644.075 996.361,667.771 C986.991,695.867 1022.191,711.999 1034.131,729.908 C1041.961,741.659 1037.301,754.051 1041.441,766.46 C1042.931,770.937 1047.021,783.303 1045.091,787.172 C1041.081,795.192 1017.581,791.536 1010.981,798.137 C1004.291,804.823 1039.381,837.89 1043.871,846.873 C1044.911,848.938 1047.371,855.555 1048.751,854.183 L1048.821,854.652 C1068.531,848.081 1090.541,851.563 1109.671,841.999 C1130.801,831.433 1193.691,784.578 1206.231,772.729 L1205.921,773.77 C1205.921,758.004 1238.181,762.255 1242.471,749.402 C1247.041,735.671 1219.681,720.873 1214.451,710.414 C1206.171,693.868 1230.681,654.78 1243.691,648.277 C1247.651,646.294 1265.701,646.979 1266.841,645.84 C1271.241,641.438 1266.721,564.534 1265.621,555.68 C1265.061,551.202 1262.861,521.387 1264.071,522.06 L1263.531,522.724 C1217.731,511.274 1175.351,470.95 1135.251,450.899 C1124.951,445.749 1118.251,434.673 1108.451,431.405 C1098.941,428.237 1076.691,424.013 1070.681,418.003 C1070.391,417.715 1069.861,417.991 1069.461,418.003 C1032.911,419.057 1035.031,428.446 1034.081,427.155" fill="#6EB191" id="Chad"/>
    <path d="M1296.421,454.149 C1282.911,433.895 1296.081,318.713 1296.081,290.073 C1296.081,258.067 1276.061,196.43 1300.621,179.16 L1300.651,179.751 C1274.511,166.68 1243.681,156.659 1215.661,142.649 C1211.461,140.549 1201.061,142.649 1196.171,142.649 C1148.701,142.649 1178.231,242.115 1127.941,216.97 C1117.681,211.838 1108.561,204.236 1097.481,198.694 C1086.281,193.095 1057.841,194.382 1049.961,186.51 C1040.841,177.382 1042.831,164.667 1030.471,158.488 C985.081,135.79 980.401,146.271 949.421,136.111 L949.451,136.341 C943.961,136.341 939.041,157.315 935.441,160.924 C922.251,174.112 898.891,192.589 894.011,212.096 C890.651,225.526 895.041,245.26 897.671,258.395 C904.411,292.133 886.241,324.779 894.011,355.865 C901.381,385.328 946.041,400.587 964.681,419.221 C968.151,422.697 979.041,420.673 984.171,424.095 C1022.131,449.397 1024.031,418.003 1069.461,418.003 C1069.861,418.003 1070.391,417.715 1070.681,418.003 C1076.691,424.013 1098.941,428.237 1108.451,431.405 C1118.251,434.673 1124.951,445.749 1135.251,450.899 C1175.351,470.95 1213.731,510.115 1259.531,521.565 C1266.551,523.322 1266.561,515.846 1272.931,514.255 C1296.351,508.399 1294.861,502.086 1294.861,476.485 L1294.861,452.117 C1294.861,450.695 1293.711,448.879 1293.931,450.29" fill="#6EB191" id="Libya"/>
    <path d="M1296.081,182.855 C1276.161,202.775 1296.081,258.067 1296.081,290.073 C1296.081,318.713 1282.571,434.3 1296.081,454.554 C1298.121,457.617 1354.151,452.117 1374.051,452.117 C1447.721,452.117 1535.051,439.966 1605.481,458.514 L1605.841,458.183 C1584.631,435.998 1578.141,435.078 1570.211,419.221 C1555.441,389.684 1545.661,357.065 1530.011,320.532 C1523.051,304.297 1481.221,245.103 1487.361,232.809 C1488.291,230.951 1490.561,231.59 1492.241,231.59 C1503.031,231.59 1524.271,304.332 1536.101,292.509 C1553.591,275.023 1554.101,230.094 1534.881,210.878 C1531.601,207.599 1534.211,196.805 1531.221,193.821 C1530.751,193.346 1527.091,193.821 1526.351,193.821 C1505.481,193.821 1448.661,176.622 1436.191,182.855 C1422.401,189.748 1409.841,201.131 1392.331,201.131 L1389.891,201.131 C1379.061,195.713 1336.521,184.312 1331.411,179.2 C1324.651,172.438 1303.131,177.497 1296.801,182.065" fill="#6EB191" id="Egypt"/>
    <path d="M1594.741,675.77 C1592.431,673.457 1592.571,661.202 1593.361,658.024 C1595.581,649.161 1605.431,598.438 1607.981,595.886 C1613.591,590.278 1625.101,589.733 1629.911,584.921 C1634.331,580.501 1636.471,566.98 1642.921,566.98 L1643.291,566.628 C1634.411,552.165 1621.911,559.687 1614.071,536.186 C1607.101,515.248 1614.641,475.944 1605.801,458.25 L1605.481,458.514 C1535.051,439.966 1447.721,452.117 1374.051,452.117 C1354.151,452.117 1298.121,457.617 1296.081,454.554 C1296.081,454.554 1295.681,452.989 1295.681,454.411 C1295.681,462.534 1294.861,468.362 1294.861,476.485 C1294.861,502.086 1296.351,508.399 1272.931,514.255 C1266.561,515.846 1264.821,516.855 1263.841,521.429 L1264.071,522.06 C1262.861,521.387 1265.061,551.202 1265.621,555.68 C1266.721,564.534 1271.241,641.438 1266.841,645.84 C1265.701,646.979 1247.651,646.294 1243.691,648.277 C1230.681,654.78 1206.171,693.868 1214.451,710.414 C1219.681,720.873 1247.041,735.671 1242.471,749.402 C1238.181,762.255 1205.921,758.004 1205.921,773.77 L1207.251,772.774 C1213.451,774.487 1228.191,768.198 1233.941,770.115 C1234.361,770.255 1237.091,771.082 1237.601,771.333 C1258.571,781.821 1237.041,786.348 1250.631,799.936 L1251.001,800.574 C1273.261,800.574 1302.801,773.179 1308.261,778.643 C1314.441,784.825 1326.041,793.015 1336.281,798.137 C1350.741,805.368 1382.951,792.894 1391.111,784.735 C1395.251,780.596 1428.911,787.172 1436.191,787.172 C1438.131,787.172 1446.211,790.558 1448.381,788.39 C1454.441,782.324 1469.141,777.376 1476.401,770.115 C1486.501,760.009 1484.431,746.242 1493.461,737.218 C1494.221,736.451 1498.421,734.827 1500.761,736 C1516.101,743.667 1510.541,787.608 1530.921,793.53 L1530.621,792.46 C1538.501,761.784 1567.061,733.057 1588.491,711.632 C1596.731,703.392 1596.141,679.856 1593.151,670.198" fill="#6EB191" id="Sudan"/>
    <path d="M1764.03,716.619 C1753.88,705.62 1733.351,684.03 1722.511,667.771 C1716.751,659.127 1695.191,646.893 1682.351,638.842 C1676.571,635.216 1668.981,634.363 1668.981,633.145 L1668.411,634.418 C1671.261,635.18 1662.861,602.182 1660.371,592.231 C1651.161,555.358 1634.301,572.578 1642.021,569.308 L1640.881,569.082 C1634.441,569.082 1634.331,580.501 1629.911,584.921 C1625.101,589.733 1613.591,590.278 1607.981,595.886 C1605.431,598.438 1595.581,649.161 1593.361,658.024 C1592.571,661.202 1592.271,672.768 1594.581,675.081 C1597.701,678.199 1602.861,677.518 1607.981,677.518 C1624.161,677.518 1621.911,665.071 1633.571,659.242 C1636.211,657.923 1647.991,661.484 1649.411,662.897 C1649.701,663.184 1650.221,662.897 1650.631,662.897 C1680.811,662.897 1697.291,673.013 1717.641,693.357 C1723.111,698.827 1743.671,714.976 1743.131,721.265 L1745.875,719.711 C1756.345,715.634 1759.461,716.391 1764.03,716.619" fill="#6EB191" id="Eritrea"/>
    <path d="M1778.132,743.981 C1767.982,734.626 1772.903,724.385 1764.273,716.888 L1764.261,716.887 C1741.351,707.762 1702.481,763.225 1754.371,763.225 L1754.191,764.023 C1760.181,758.031 1775.967,750.841 1778.117,744.013" fill="#6EB191" id="Djibouti"/>
    <path d="M1725.621,1091.347 C1749.991,1060.887 1783.451,1024.737 1810.231,997.957 C1835.031,973.153 1869.111,957.22 1890.651,928.504 C1914.281,896.998 1931.191,863.772 1951.571,829.815 C1958.221,818.73 1967.661,804.427 1971.061,790.827 C1972.701,784.264 1986.521,745.366 1980.811,739.655 C1961.911,720.755 1785.211,811.381 1778.181,744.595 L1777.611,744.871 C1775.461,751.699 1760.181,758.031 1754.191,764.023 C1748.511,769.698 1768.731,800.496 1773.681,805.448 C1777.321,809.084 1786.791,805.15 1789.521,807.885 C1796.751,815.117 1820.731,827.143 1830.951,832.252 C1843.691,838.622 1861.731,840.781 1876.031,840.781 C1878.491,840.781 1893.781,839.384 1891.861,843.218 C1889.371,848.203 1880.051,850.163 1876.031,854.183 C1864.421,865.79 1850.541,889.465 1833.381,898.045 C1795.681,916.898 1744.091,928.965 1722.511,957.745 C1713.621,969.596 1711.391,981.367 1706.671,995.517 C1704.561,1001.837 1709.111,1009.887 1709.111,1016.227 C1709.111,1027.807 1718.621,1089.327 1723.731,1089.327" fill="#6EB191" id="Somalia"/>
    <path d="M1754.191,764.023 C1748.511,769.698 1768.731,800.496 1773.681,805.448 C1777.321,809.084 1786.791,805.15 1789.521,807.885 C1796.751,815.117 1820.731,827.143 1830.951,832.252 C1843.691,838.622 1861.731,840.781 1876.031,840.781 C1878.491,840.781 1893.781,839.384 1891.861,843.218 C1889.371,848.203 1880.051,850.163 1876.031,854.183 C1864.421,865.79 1850.541,889.465 1833.381,898.045 C1795.681,916.898 1761.092,925.62 1733.542,946.036 L1729.867,948.413 C1723.307,948.413 1702.431,931.532 1698.141,935.815 C1692.121,941.837 1680.121,947.743 1672.561,955.309 C1665.601,962.262 1593.831,938.717 1589.711,934.596 C1586.251,931.14 1584.423,924.279 1580.823,920.675 C1576.643,916.496 1567.232,918.362 1562.901,909.01 C1557.807,898.011 1548.961,884.099 1539.751,874.895 C1531.881,867.026 1490.591,852.608 1497.111,839.562 C1503.271,827.245 1524.301,833.909 1530.011,822.505 C1536.191,810.13 1528.501,790.185 1534.881,777.425 C1547.021,753.135 1567.061,733.057 1588.491,711.632 C1596.731,703.392 1592.951,684.167 1594.971,674.261 L1594.581,675.081 C1597.701,678.199 1602.861,677.518 1607.981,677.518 C1624.161,677.518 1621.911,665.071 1633.571,659.242 C1636.211,657.923 1647.991,661.484 1649.411,662.897 C1649.701,663.184 1650.221,662.897 1650.631,662.897 C1680.811,662.897 1697.291,673.013 1717.641,693.357 C1723.111,698.827 1743.671,714.976 1743.131,721.265 L1744.151,720.416 C1743.451,719.454 1703.521,761.586 1755.411,761.586" fill="#6EB191" id="Ethiopia"/>
    <path d="M1353.321,919.17 C1351.991,917.908 1350.111,913.821 1346.821,908.698 C1332.041,885.688 1290.971,837.007 1281.461,832.252 C1275.821,829.434 1258.401,828.684 1254.651,824.942 C1241.061,811.354 1250.081,804.397 1250.741,800.702 L1251.001,800.574 C1273.261,800.574 1302.801,773.179 1308.261,778.643 C1314.441,784.825 1326.041,793.015 1336.281,798.137 C1350.741,805.368 1382.951,792.894 1391.111,784.735 C1395.251,780.596 1428.911,787.172 1436.191,787.172 C1438.131,787.172 1446.211,790.558 1448.381,788.39 C1454.441,782.324 1469.141,777.376 1476.401,770.115 C1486.501,760.009 1484.431,746.242 1493.461,737.218 C1494.221,736.451 1498.421,734.827 1500.761,736 C1516.101,743.667 1513.721,787.035 1532.269,791.719 L1531.789,791.08 C1530.156,802.891 1535.244,810.304 1530.011,822.505 C1524.984,834.226 1503.271,827.245 1497.111,839.562 C1490.591,852.608 1531.881,867.026 1539.751,874.895 C1548.961,884.099 1557.481,898.168 1562.901,909.01 C1565.411,914.033 1567.791,913.868 1573.621,916.636 L1571.391,916.269 C1568.281,922.566 1535.351,909.085 1524.821,939.956 L1523.831,940.07 C1519.941,947.13 1466.331,941.594 1449.631,955.41 L1448.951,955.042 C1438.521,956.594 1419.151,932.176 1414.261,927.286 C1412.601,925.621 1404.631,927.731 1403.291,928.504 C1386.061,938.52 1363.641,930.243 1351.201,917.804" fill="#6EB191" id="South-Sudan"/>
    <path d="M1528.321,935.643 C1524.801,957.14 1562.751,984.194 1553.161,1008.917 C1546.231,1026.757 1516.301,1046.997 1523.911,1069.837 L1522.701,1068.617 C1500.331,1068.617 1469.6,1065.547 1447.74,1072.837 C1437.74,1076.167 1423.501,1090.297 1411.821,1084.457 C1393.731,1075.407 1443.151,1010.497 1450.811,1002.827 C1462.241,991.397 1436.195,966.805 1452.975,954.095 C1469.445,941.618 1516.586,946.76 1528.301,935.968" fill="#6EB191" id="Uganda"/>
    <path d="M1665.731,1167.537 C1676.381,1124.917 1698.471,1122.867 1724.001,1090.957 L1723.981,1091.237 C1718.881,1091.237 1709.111,1027.807 1709.111,1016.227 C1709.111,1009.887 1704.561,1001.837 1706.671,995.517 C1711.391,981.367 1722.971,957.222 1731.861,945.371 L1731.651,945.2 C1725.081,945.2 1702.431,931.532 1698.141,935.815 C1692.121,941.837 1680.121,947.743 1672.561,955.309 C1665.601,962.262 1593.831,938.717 1589.711,934.596 C1586.251,931.14 1583.741,921.182 1574.641,917.545 L1574.651,917.539 C1473.071,917.539 1568.411,978.41 1553.161,1008.917 C1544.601,1026.027 1516.301,1046.997 1523.911,1069.837 C1527.441,1080.407 1548.561,1089.117 1558.031,1095.417 C1578.951,1109.367 1654.261,1168.517 1665.041,1168.517" fill="#6EB191" id="Kenya"/>
    <path d="M1442.881,1073.317 C1432.881,1076.647 1423.501,1090.297 1411.821,1084.457 C1393.731,1075.407 1443.151,1010.497 1450.811,1002.827 C1462.241,991.397 1435.977,973.036 1452.581,954.843 L1452.591,954.873 C1442.161,956.425 1419.151,932.176 1414.261,927.286 C1412.601,925.621 1404.671,927.816 1403.291,928.504 C1383.491,938.405 1368.791,932.989 1356.351,920.549 C1351.001,915.199 1329.531,917.209 1322.881,913.884 C1299.351,902.12 1227.901,942.542 1209.571,933.378 C1189.371,923.278 1155.151,901.292 1137.691,918.757 C1120.591,935.857 1135.961,952.668 1125.501,973.584 C1113.271,998.047 1110.501,1029.567 1101.141,1057.657 C1096.081,1072.807 1075.961,1091.367 1067.021,1100.297 C1058.761,1108.567 1063.371,1136.837 1059.711,1147.817 C1043.561,1196.257 1002.211,1161.457 998.791,1164.867 C996.201,1167.457 973.991,1171.897 955.921,1180.367 L955.391,1180.297 C956.061,1180.617 946.561,1185.847 962.021,1201.307 L962.671,1201.237 C959.841,1201.237 980.291,1196.047 981.731,1195.327 C987.981,1192.207 996.211,1190.457 1003.671,1190.457 C1014.371,1190.457 1065.151,1198.337 1070.681,1203.857 C1085.051,1218.237 1085.041,1247.597 1107.231,1258.687 C1132.141,1271.137 1138.791,1242.967 1149.871,1231.877 C1156.031,1225.727 1195.211,1234.577 1199.831,1239.187 C1219.241,1258.607 1205.901,1313.477 1219.321,1340.317 C1222.911,1347.497 1253.731,1340.317 1260.741,1340.317 C1262.741,1340.317 1270.831,1341.107 1270.011,1339.217 L1271.211,1339.087 C1285.311,1346.137 1307.021,1353.097 1320.451,1359.807 C1328.091,1363.637 1340.131,1358.077 1348.471,1362.247 C1366.061,1371.047 1378.961,1384.197 1395.981,1392.707 C1401.901,1395.667 1415.481,1396.367 1415.481,1396.367 C1415.481,1396.367 1413.041,1385.867 1413.041,1380.527 C1413.041,1362.157 1393.211,1378.637 1387.461,1367.117 C1381.531,1355.277 1387.461,1321.837 1387.461,1308.637 C1387.461,1303.957 1384.421,1294.007 1386.241,1290.367 C1401.971,1258.887 1412.191,1274.767 1443.961,1260.837 L1443.771,1261.387 C1439.831,1253.507 1404.571,1180.657 1415.481,1169.747 C1450.981,1134.237 1443.501,1129.667 1443.501,1079.587" fill="#6EB191" id="DR-Congo"/>
    <path d="M1442.551,1126.287 C1435.891,1129.167 1438.841,1113.827 1434.071,1111.437 C1428.901,1108.857 1422.991,1116.707 1421.291,1118.407 C1415.991,1123.707 1404.951,1116.157 1399.211,1121.897 C1397.891,1123.227 1402.511,1158.297 1402.701,1158.487 C1405.391,1161.177 1416.021,1163.047 1420.791,1163.047 L1421.621,1163.867 C1438.671,1140.657 1436.681,1155.777 1443.821,1125.597" fill="#6EB191" id="Burundi"/>
    <path d="M1401.021,1121.627 C1396.371,1121.627 1392.391,1116.377 1392.901,1111.837 C1393.501,1106.437 1400.591,1094.997 1401.441,1093.287 C1403.161,1089.847 1408.381,1086.547 1409.931,1083.447 C1410.151,1083.027 1410.151,1083.027 1410.441,1082.457 C1422.111,1088.297 1432.171,1076.167 1442.171,1072.837 L1442.521,1073.197 C1442.631,1073.577 1441.561,1088.047 1441.961,1088.837 C1442.701,1090.317 1442.821,1109.487 1441.841,1116.327 C1441.521,1118.567 1441.651,1124.607 1441.651,1126.697 L1442.551,1126.287 C1435.891,1129.167 1438.841,1113.827 1434.071,1111.437 C1428.901,1108.857 1422.991,1116.707 1421.291,1118.407 C1415.991,1123.707 1404.951,1116.157 1399.211,1121.897" fill="#6EB191" id="Rwanda"/>
    <path d="M1694.431,1323.547 C1688.461,1311.607 1677.071,1296.227 1673.771,1283.057 C1669.081,1264.277 1674.881,1241.297 1668.901,1223.357 C1664.051,1208.787 1652.671,1201.367 1659.151,1184.367 C1662.241,1176.267 1662.761,1179.877 1664.981,1169.247 L1664.541,1168.327 C1653.771,1168.327 1578.951,1109.367 1558.031,1095.417 C1548.561,1089.117 1528.661,1076.677 1523.871,1068.537 L1524.091,1068.197 C1501.731,1068.197 1463.621,1066.377 1441.761,1073.657 L1441.981,1073.577 C1441.981,1123.657 1450.981,1134.237 1415.481,1169.747 C1404.571,1180.657 1438.341,1253.247 1442.281,1261.127 C1447.361,1271.277 1475.591,1291.787 1484.931,1296.457 C1494.531,1301.257 1521.981,1300.617 1528.791,1307.417 C1541.421,1320.047 1538.791,1341.797 1548.281,1351.287 C1550.381,1353.377 1650.941,1341.377 1655.501,1339.097 C1665.631,1334.037 1677.811,1332.817 1687.181,1328.137 C1689.741,1326.857 1694.201,1322.237 1693.761,1322.537" fill="#6EB191" id="Tanzania"/>
    <path d="M1549.131,1349.967 C1539.641,1340.477 1541.421,1320.047 1528.791,1307.417 C1521.981,1300.617 1517.489,1304.249 1515.517,1303.065 L1512.46,1302.474 C1514.531,1313.419 1507.621,1341.847 1512.951,1352.497 C1513.971,1354.547 1519.541,1375.157 1519.041,1375.647 C1509.121,1385.567 1495.191,1403.477 1503.201,1419.517 C1510.891,1434.887 1537.861,1432.787 1538.531,1434.127 C1545.341,1447.747 1522.761,1492.617 1551.941,1492.617 C1559.791,1492.617 1568.711,1475.847 1576.301,1468.247 C1603.111,1441.437 1517.921,1392.217 1549.07,1349.577" fill="#6EB191" id="Malawi"/>
    <path d="M1432.121,1454.057 C1418.491,1483.677 1483.771,1482.937 1492.241,1491.397 C1508.641,1507.797 1489.911,1547.657 1500.761,1569.377 C1501.641,1571.117 1500.761,1575.777 1500.761,1577.897 C1500.761,1607.197 1471.041,1628.827 1460.561,1649.787 C1455.901,1659.107 1471.161,1686.837 1475.181,1694.867 C1484.771,1714.057 1471.421,1755.987 1500.491,1755.987 L1500.541,1756.317 C1508.821,1731.457 1554.431,1714.097 1561.681,1677.807 C1572.991,1621.287 1523.471,1589.197 1582.401,1545.007 C1606.681,1526.797 1685.901,1483.047 1695.711,1453.627 C1705.991,1422.777 1709.191,1351.447 1694.491,1322.037 L1693.761,1322.537 C1694.201,1322.237 1689.741,1326.857 1687.181,1328.137 C1677.811,1332.817 1665.631,1334.037 1655.501,1339.097 C1650.941,1341.377 1550.381,1353.377 1548.281,1351.287 L1548.281,1351.677 C1517.131,1394.327 1603.111,1441.437 1576.301,1468.247 C1568.711,1475.847 1559.791,1492.617 1551.941,1492.617 C1522.761,1492.617 1545.341,1447.747 1538.531,1434.127 C1537.861,1432.787 1509.911,1430.947 1502.221,1415.577 L1500.811,1415.377 C1494.141,1425.847 1444.081,1432.337 1434.971,1441.447 C1430.991,1445.427 1435.661,1454.997 1431.971,1458.677" fill="#6EB191" id="Mozambique"/>
    <path d="M1502.001,1415.737 C1498.631,1398.947 1509.121,1385.567 1519.041,1375.647 C1519.541,1375.157 1513.971,1354.547 1512.951,1352.497 C1507.621,1341.847 1514.171,1317.197 1514.171,1306.197 L1514.061,1304.617 C1507.251,1297.817 1494.531,1301.257 1484.931,1296.457 C1475.591,1291.787 1447.361,1271.277 1442.281,1261.127 L1442.481,1261.197 C1410.721,1275.117 1401.971,1258.887 1386.241,1290.367 C1384.421,1294.007 1387.461,1303.957 1387.461,1308.637 C1387.461,1321.837 1381.531,1355.277 1387.461,1367.117 C1393.211,1378.637 1413.041,1362.157 1413.041,1380.527 C1413.041,1385.867 1415.481,1396.367 1415.481,1396.367 C1415.481,1396.367 1401.901,1395.667 1395.981,1392.707 C1378.961,1384.197 1366.061,1371.047 1348.471,1362.247 C1340.131,1358.077 1328.091,1363.637 1320.451,1359.807 C1307.021,1353.097 1290.681,1348.587 1276.581,1341.537 C1275.711,1341.097 1270.891,1338.777 1270.011,1339.217 C1254.051,1347.197 1275.901,1382.427 1266.841,1391.487 C1264.641,1393.687 1256.261,1392.917 1252.221,1393.927 C1222.101,1401.457 1214.451,1400.127 1214.451,1431.697 C1214.451,1446.527 1211.591,1466.197 1218.101,1479.207 C1225.081,1493.167 1245.871,1504.547 1255.871,1514.547 C1262.481,1521.157 1282.411,1504.527 1289.981,1512.107 C1294.131,1516.257 1323.121,1535.027 1332.631,1525.507 C1341.361,1516.777 1386.481,1468.127 1393.551,1464.597 C1399.731,1461.497 1430.171,1460.477 1431.971,1458.677 C1435.661,1454.987 1430.991,1445.427 1434.971,1441.447 C1444.081,1432.337 1500.721,1427.857 1502.381,1413.217" fill="#6EB191" id="Zambia"/>
    <path d="M1397.708,1637.035 C1389.688,1628.245 1366.621,1628.827 1361.871,1619.327 C1341.691,1578.967 1338.351,1582.397 1307.041,1551.097 C1300.621,1544.667 1296.541,1518.757 1290.861,1513.077 L1291.181,1513.007 C1293.791,1515.617 1304.971,1523.127 1316.291,1526.627 C1322.921,1528.677 1329.121,1529.027 1332.631,1525.507 C1341.361,1516.777 1386.481,1468.127 1393.551,1464.597 C1399.731,1461.497 1433.221,1456.267 1435.011,1454.467 L1434.271,1454.157 C1413.851,1481.347 1483.771,1482.937 1492.241,1491.397 C1508.641,1507.797 1489.911,1547.657 1500.761,1569.377 C1501.641,1571.117 1500.761,1575.777 1500.761,1577.897 C1500.761,1607.197 1473.921,1628.247 1463.441,1649.207 L1462.661,1649.787 C1445.811,1649.787 1426.682,1634.053 1398.641,1637.035" fill="#6EB191" id="Zimbabwe"/>
    <path d="M1289.981,1512.107 C1282.411,1504.527 1262.481,1521.157 1255.871,1514.547 C1245.871,1504.547 1225.081,1493.167 1218.101,1479.207 C1211.591,1466.197 1214.451,1446.527 1214.451,1431.697 C1214.451,1400.127 1222.101,1401.457 1252.221,1393.927 C1256.261,1392.917 1264.641,1393.687 1266.841,1391.487 C1275.901,1382.427 1254.111,1346.907 1270.071,1338.927 C1270.951,1338.487 1270.441,1339.157 1270.441,1339.157 C1265.921,1339.227 1263.581,1339.957 1260.741,1340.317 C1253.791,1341.207 1222.911,1347.497 1219.321,1340.317 C1205.901,1313.477 1219.241,1258.607 1199.831,1239.187 C1195.211,1234.577 1156.031,1225.727 1149.871,1231.877 C1138.791,1242.967 1132.141,1271.137 1107.231,1258.687 C1085.041,1247.597 1085.051,1218.237 1070.681,1203.857 C1065.151,1198.337 1014.371,1190.457 1003.671,1190.457 C996.211,1190.457 987.981,1192.207 981.731,1195.327 C980.291,1196.047 959.211,1199.707 962.041,1199.707 L961.211,1199.707 C980.201,1218.697 972.361,1246.877 987.831,1262.337 C991.971,1266.487 981.541,1280.027 984.171,1287.927 C986.281,1294.257 1009.581,1347.807 1004.881,1352.497 C974.851,1382.537 931.891,1452.387 949.611,1505.537 L950.221,1506.007 C970.501,1506.007 993.101,1503.167 1013.411,1513.327 C1026.781,1520.007 1094.021,1512.107 1110.881,1512.107 L1113.321,1512.107 C1121.251,1520.037 1138.181,1519.417 1152.311,1519.417 C1177.711,1519.417 1204.751,1519.327 1227.851,1518.197 C1262.481,1516.507 1288.471,1510.957 1287.921,1511.947" fill="#6EB191" id="Angola"/>
    <path d="M1161.573,1719.081 C1161.573,1688.471 1156.691,1667.827 1170.581,1640.037 C1173.941,1633.317 1185.561,1632.377 1190.081,1627.857 C1191.861,1626.077 1187.641,1557.977 1187.641,1548.657 C1187.641,1543.977 1188.091,1538.467 1191.301,1535.257 C1197.261,1529.297 1225.731,1535.947 1232.721,1537.697 C1247.821,1541.467 1288.361,1510.857 1295.131,1517.627 C1300.811,1523.307 1300.621,1544.667 1307.041,1551.097 C1338.351,1582.397 1341.691,1578.967 1361.871,1619.327 C1366.621,1628.827 1393.161,1628.127 1398.641,1639.037 C1364.281,1647.627 1323.141,1712.877 1298.511,1737.507 C1282.241,1753.777 1254.171,1729.837 1238.811,1737.507 C1225.521,1744.157 1203.841,1762.727 1193.731,1772.847 C1182.541,1784.037 1173.241,1731.867 1170.581,1726.547 C1169.911,1725.187 1162.091,1718.487 1161.721,1719.237" fill="#6EB191" id="Botswana"/>
    <path d="M1293.073,1514.472 C1285.493,1506.892 1271.831,1514.767 1263.921,1515.007 C1249.791,1515.457 1249.791,1515.457 1263.921,1515.417 C1264.461,1514.427 1231.821,1518.197 1227.851,1518.197 C1204.721,1518.197 1177.711,1519.417 1152.311,1519.417 C1138.181,1519.417 1121.251,1520.037 1113.321,1512.107 L1110.881,1512.107 C1094.021,1512.107 1026.781,1520.007 1013.411,1513.327 C993.101,1503.167 969.431,1504.707 949.161,1504.707 C960.651,1539.177 992.131,1630.937 1015.851,1654.657 C1027.621,1666.427 1016.191,1735.407 1030.471,1749.697 C1038.711,1757.937 1035.031,1781.057 1042.651,1788.677 C1062.661,1808.687 1053.801,1808.217 1071.901,1826.307 C1078.331,1826.307 1079.381,1810.697 1086.511,1814.267 C1092.501,1817.257 1098.031,1825.777 1102.351,1830.107 C1104.451,1832.207 1113.001,1828.727 1115.761,1830.107 C1139.281,1841.867 1153.451,1826.527 1166.931,1813.047 C1174.411,1805.567 1161.251,1737.957 1161.721,1725.667 C1161.751,1724.837 1160.661,1714.107 1161.341,1715.457 L1161.241,1715.337 C1161.241,1684.737 1156.691,1667.827 1170.581,1640.037 C1173.941,1633.317 1185.561,1632.377 1190.081,1627.857 C1191.861,1626.077 1187.641,1557.977 1187.641,1548.657 C1187.641,1543.977 1188.091,1538.467 1191.301,1535.257 C1197.261,1529.297 1225.731,1535.947 1232.721,1537.697 C1247.821,1541.467 1288.361,1512.667 1295.131,1519.427" fill="#6EB191" id="Namibia"/>
    <path d="M1458.851,1650.077 C1443.821,1649.787 1422.011,1631.437 1400.101,1636.917 C1365.741,1645.497 1323.141,1712.877 1298.511,1737.507 C1282.241,1753.777 1254.171,1729.837 1238.811,1737.507 C1225.521,1744.157 1203.841,1762.727 1193.731,1772.847 C1182.541,1784.037 1173.241,1731.867 1170.581,1726.547 C1169.911,1725.187 1163.651,1714.827 1163.271,1715.577 C1155.931,1730.267 1174.411,1805.567 1166.931,1813.047 C1153.451,1826.527 1139.281,1841.867 1115.761,1830.107 C1113.001,1828.727 1104.451,1832.207 1102.351,1830.107 C1098.031,1825.777 1092.501,1817.257 1086.511,1814.267 C1079.381,1810.697 1078.331,1826.447 1071.901,1826.447 L1071.901,1826.477 C1074.961,1832.247 1068.421,1841.257 1086.511,1859.347 C1104.951,1877.777 1112.101,1932.317 1112.101,1960.477 C1112.101,1960.977 1111.781,1963.807 1112.101,1964.127 C1122.741,1974.767 1136.551,1995.887 1146.221,2005.557 C1151.451,2010.787 1160.851,2011.637 1168.151,2009.207 C1214.411,1993.787 1262.261,2003.427 1303.391,1989.717 C1314.671,1985.957 1359.101,1994.147 1363.091,1992.147 C1371.741,1987.827 1388.101,1956.147 1393.551,1947.067 C1399.881,1936.517 1413.701,1931.347 1420.351,1920.267 C1433.731,1897.967 1443.541,1873.907 1458.121,1852.037 C1468.271,1836.817 1492.531,1818.267 1498.331,1800.867 C1504.481,1782.407 1494.431,1769.917 1499.551,1754.567 C1470.471,1754.567 1484.771,1714.057 1475.181,1694.867 C1471.161,1686.837 1455.021,1659.397 1459.681,1650.077" fill="#6EB191" id="South-Africa"/>
    <path d="M1935.931,1366.707 C1907.191,1375.177 1894.651,1421.427 1879.681,1443.877 C1862.311,1469.937 1820.381,1463.387 1804.141,1487.737 C1780.961,1522.507 1810.621,1552.367 1799.271,1586.427 C1793.921,1602.487 1782.671,1615.977 1774.901,1631.507 C1762.861,1655.597 1794.821,1753.617 1824.851,1743.597 C1832.091,1741.187 1863.791,1732.687 1868.721,1727.767 C1882.721,1713.757 1883.341,1687.527 1886.991,1669.277 C1892.211,1643.167 1907.761,1619.167 1916.231,1593.737 C1926.491,1562.987 1934.251,1531.417 1941.821,1501.147 C1943.181,1495.697 1939.311,1473.197 1943.041,1469.467 C1947.461,1465.047 1951.061,1465.607 1955.221,1457.287 C1955.751,1456.227 1940.811,1375.867 1940.601,1375.647 C1939.341,1374.387 1938.361,1366.707 1935.931,1366.707 z" fill="#6EB191" id="Madagascar"/>
    <path d="M1372.851,1888.637 C1371.711,1890.327 1367.961,1887.407 1366.841,1886.737 C1361.051,1883.267 1352.461,1880.417 1347.681,1875.637 C1344.501,1872.457 1348.371,1861.157 1350.031,1857.827 C1355.441,1847.007 1376.921,1821.367 1392.041,1828.927 C1401.741,1833.777 1414.531,1848.847 1410.521,1860.857 C1409.761,1863.157 1406.301,1864.007 1404.481,1865.227 C1396.681,1870.417 1385.581,1869.757 1380.281,1873.287 C1377.661,1875.037 1375.571,1878.407 1375.571,1882.027 C1375.571,1883.857 1372.851,1889.237 1372.851,1888.637 z" fill="#6EB191" id="Lesotho"/>
    <path d="M1482.091,1745.747 C1481.731,1747.507 1482.131,1754.327 1482.181,1756.207 C1482.421,1765.057 1482.481,1764.737 1481.951,1773.377 C1481.751,1776.597 1481.061,1786.067 1480.641,1786.917 C1480.391,1787.407 1471.321,1787.457 1468.061,1787.817 C1464.381,1788.227 1458.941,1789.187 1454.751,1787.607 C1450.381,1785.957 1444.191,1773.317 1444.971,1767.067 C1445.851,1760.117 1455.231,1749.297 1459.761,1747.357 C1464.841,1745.187 1477.591,1745.747 1482.091,1745.747 z" fill="#6EB191" id="Eswatini"/>
    <path d="M897.194,994.675 C896.966,1003.356 886.342,1016.378 890.412,1019.091 C893.218,1020.962 901.078,1021.391 907.872,1020.64 C913.298,1020.041 919.409,1019.279 925.533,1018.781 L944.774,1018.382 C945.104,1018.57 948.45,992.513 945.464,992.931 C942.189,993.388 936.061,993.247 933.121,993.512 C920.906,994.612 914.7,992.449 906.495,992.156 C901.069,991.962 900.407,994.053 897.581,994.481" fill="#6EB191" id="Equatorial-Guinea"/>
  </g>
</svg>
