<svg width="1264" height="955" viewBox="0 0 1264 955" fill="none" xmlns="http://www.w3.org/2000/svg">
<path d="M699.204 24.0115C724.324 24.0115 767 37.3538 774.873 37.3538C778.5 37.3538 790.244 36.9472 793.5 35.5C799.059 33.0295 807.02 34.0182 812.676 34.0182C821.263 34.0182 829.394 36.2419 838.002 36.2419C855.248 36.2419 873.306 40.6894 890.506 40.6894C894.349 40.6894 899.086 41.4994 902.86 42.3572C910.835 44.1697 920.548 43.4949 928.742 43.9632C945.202 44.9037 963.062 45.999 978.899 50.6343C990.531 54.0388 1003.21 54.0353 1015.26 54.0319L1016.39 54.0317C1023.87 54.0317 1031.5 56.1852 1038.88 57.3055C1046.13 58.4071 1053.49 57.8986 1060.68 59.0968C1076.64 61.7569 1092.79 62.2879 1108.68 65.3974C1117.61 67.1445 1125.84 70.2806 1134.5 72.6863C1138.75 73.8677 1143.17 75.3132 1147.47 76.2689C1155.27 78.0033 1161.59 84.8722 1168.97 86.2139C1180.82 88.3697 1194.48 89.6112 1206.52 89.6112C1217.51 89.6112 1228.74 94.0587 1239.07 94.0587C1243.39 94.0587 1248.09 97.5727 1251 100.483C1253.36 102.848 1255.26 105.676 1256.31 109.069C1258 114.566 1260.94 119.3 1262.86 124.573C1265.62 132.17 1260.98 141.428 1257.69 147.998L1257.42 148.54C1253.35 156.67 1249.97 166.059 1242.9 171.951C1240.52 173.937 1238.6 176.839 1236.54 179.178C1234.62 181.359 1231.49 180.722 1229.01 181.896C1224.67 183.944 1223.45 190.79 1220.73 194.373C1215.92 200.699 1212.21 206.101 1206.89 211.422C1204.61 213.702 1203.39 217.188 1201.58 219.452C1200.04 221.376 1196.95 222.678 1194.91 224.146C1191.09 226.895 1186.58 229.566 1184.28 234.153C1179.42 243.886 1186.26 254.337 1186.26 264.173C1186.26 276.776 1189.18 298.006 1173.47 301.421C1165.63 303.126 1167.46 307.42 1162.66 311.736C1161.23 313.03 1158.67 314.46 1156.67 315.381C1153.62 316.79 1148.67 317.126 1146.17 319.21C1143.38 321.54 1136.5 323.767 1132.89 325.573C1131.02 326.51 1127.48 325.921 1127.33 328.661C1127.17 331.575 1129.4 333.983 1130.67 336.444C1133.81 342.562 1135.32 350.294 1136.78 357.014C1138.22 363.631 1140.67 369.536 1140.67 376.471C1140.67 381.426 1140.95 391.425 1143.45 395.929C1146.01 400.533 1144.01 412.547 1144.01 417.363C1144.01 430.667 1143.28 447.052 1137.09 458.749C1135.49 461.775 1130.97 462.974 1129 466.47C1128.19 467.911 1125.59 470.135 1125.17 471.597C1124.08 475.399 1118.72 478.504 1115.6 480.492C1107.91 485.385 1100.15 489.155 1091.14 490.746C1084.43 491.928 1079.13 499.294 1074.58 503.841L1074.13 504.29C1069.55 508.881 1062.99 515.454 1056.17 515.454C1050.78 515.454 1046.74 517.209 1042.34 519.654C1037.51 522.334 1035.12 525.954 1032.21 530.526C1030.05 533.922 1029.69 537.136 1029.49 541.027C1029.36 543.44 1027.27 545.137 1027.27 547.698C1027.27 560.177 1025 576.736 1028.32 588.343C1032.02 601.326 1045.64 610.8 1052.28 622.748C1056.21 629.817 1060.65 636.603 1065.32 643.318C1071.5 652.218 1075.76 663.579 1080.39 673.338C1085.26 683.623 1083.02 697.826 1086.19 708.918C1086.93 711.493 1086.68 714.515 1087.55 716.948C1089.27 721.757 1093.58 725.529 1095.95 730.043C1099.11 736.049 1099.26 744.067 1103.49 749.501C1108.08 755.397 1110.49 762.786 1116.28 767.846C1125.65 776.045 1136.2 781.986 1147.9 784.586C1159.49 787.16 1170.23 788.404 1181.2 793.419C1191.93 798.327 1206.42 797.827 1213.81 807.873C1217.66 813.111 1217.97 820.271 1221.84 825.107C1224.09 827.919 1225.57 831.612 1227.96 834.002C1233.11 839.155 1234.33 849.733 1232.71 856.795C1231.39 862.561 1228.62 872.313 1224.68 876.809C1220.77 881.285 1220.64 889.183 1219.37 894.598C1218.21 899.508 1217.51 901.449 1212.88 904.049C1208.26 906.651 1208.14 910.525 1204.61 914.056C1199.74 918.926 1194.04 921.283 1187.13 921.283H1173.97C1168.82 921.283 1165.06 922.687 1160.13 923.445C1143.07 926.07 1124.51 927.954 1107.32 927.954C1082.74 927.954 1059.06 937.841 1037.83 949.635C1033.23 952.188 1025.44 949.314 1020.84 952.662C1017.14 955.351 1007.77 954.639 1003.3 954.639C998.736 954.639 994.723 953.691 990.326 952.415C980.233 949.485 970.035 947.664 959.689 945.744C949.961 943.939 939.659 941.504 930.286 938.826C921.171 936.221 912.598 935.995 903.292 934.564C899.381 933.962 895.62 932.402 891.618 932.402C889.648 932.402 886.781 932.927 884.947 932.155C878.55 929.461 869.639 927.954 862.71 927.954C857.103 927.954 852.376 926.122 846.896 925.731C834.128 924.818 824.565 916.188 815.764 908.188C812.006 904.771 807.112 903.267 803.225 900.158C799.458 897.144 794.561 890.532 792.662 886.259C790.167 880.646 785.695 875.161 780.432 872.114C777.524 870.43 776.268 865.417 774.317 862.849C770.606 857.966 768.335 852.373 764.31 847.9C757.16 839.956 747.754 829.005 738.181 823.686C733.758 821.229 732.644 815.452 728.73 812.321C726.323 810.395 720.695 802.822 720.391 800.09C719.274 790.034 706.818 785.814 708.223 774.579C709.817 761.823 711.497 748.971 711.497 736.158C711.497 732.421 714.589 728.615 714.832 724.484C715.038 720.992 717.271 715.455 718.106 711.697C719.915 703.558 725.204 697.131 722.677 688.286C721.57 684.414 723.219 679.652 720.638 676.427C718.504 673.758 716.787 669.893 715.079 666.667C713.709 664.078 707.927 661.914 705.32 661.169C702.592 660.39 698.468 656.016 696.208 653.619L695.93 653.325C689.746 646.776 685.503 638.757 678.697 633.311C670.001 626.355 662.031 641.687 655.286 645.542C646.098 650.792 647.594 668.313 648.12 677.786C648.451 683.728 650.344 689.348 650.344 695.575C650.344 704.564 649.232 713.526 649.232 722.26V737.27C649.232 738.812 646.399 745.874 645.341 746.721C644.171 747.657 644.028 751.468 643.426 752.898C642.209 755.788 640.513 758.231 637.867 760.063C633.301 763.224 631.714 768.838 626.439 771.182C624.086 772.228 624.327 774.347 621.436 774.517C620.772 774.557 617.761 776.568 617.235 776.988C612.137 781.067 605.123 779.379 598.951 781.436C590.637 784.207 581.358 788.405 574.985 794.778C572.103 797.66 564.616 798.675 560.778 799.04C555.299 799.562 550.919 801.202 545.273 801.202H516.365C507.567 801.202 492.861 795.028 488.013 787.613C479.824 775.09 478.424 759.967 482.5 746.721C484.094 741.542 484.651 732.584 486.5 727.5C488.38 722.331 492.305 719.273 494.437 714.477C495.531 712.014 494.627 709.325 497.525 707.744C500.779 705.969 501.651 705.934 502.528 702.864C503.568 699.227 505.802 694.986 505.802 691.128C505.802 688.898 507.902 687.301 507.902 685.074C507.902 683.349 505.3 681.068 504.69 679.392C503.512 676.152 499.72 670.715 497.34 668.335C495.774 666.769 490.525 664.531 490.236 662.22C490.127 661.345 488.305 657.582 487.765 656.907C484.927 653.359 482.569 649.575 479.674 646.036C472.506 637.276 467.246 628.794 459.104 621.081C453.397 615.674 442.689 607.265 434.643 607.738C430.576 607.978 430.432 615.901 427.416 616.571C424.964 617.116 419.175 620.558 417.471 622.748C415.555 625.212 413.516 627.111 412.159 629.976C410.708 633.038 410.375 637.819 408.206 640.229C406.637 641.972 405.005 644.23 403.511 646.098C402.583 647.257 399.945 647.008 398.569 648.383C396.387 650.566 395.79 654.176 392.145 654.437L392.12 654.438C388.86 654.671 379.504 655.339 378.185 658.637C376.267 663.434 371.951 668.536 367.437 671.114C364.764 672.642 362.136 678.51 359.037 678.897C355.328 679.361 356.768 681.716 358.913 682.789C360.252 683.459 357.467 685.528 356.751 686.125C353.209 689.076 348.259 686.732 344.335 688.039C342.184 688.757 339.671 692.086 338.158 693.599C335.04 696.717 333.126 700.456 329.881 703.111C325.221 706.924 318.453 709.783 312.894 712.253C307.752 714.539 302.733 718.611 296.772 718.924C290.13 719.274 282.944 722.26 275.709 722.26H256.128C244.694 722.26 233.397 722.975 222.895 719.974C215.362 717.822 206.834 711.827 200.041 708.053C195.469 705.513 192.964 702.256 190.59 697.243C189.029 693.949 187.401 690.928 185.833 687.792C184.852 685.83 185.673 683.263 184.722 681.121C179.751 669.937 177.743 657.613 168.908 648.26C165.413 644.559 165.461 640.069 161.002 637.203C154.403 632.96 149.721 620.908 148.03 613.298C147.171 609.433 146.743 605.592 145.559 601.747C144.835 599.394 142.818 597.349 142.286 594.952C140.9 588.717 138.389 580.862 135.8 575.062C130.95 564.199 125.544 553.688 121.098 542.633C120.558 541.289 119.7 536.787 118.628 535.714C117.47 534.557 114.573 534.612 114.427 532.132C114.135 527.157 109.98 522.313 109.98 517.678C109.98 514.694 109.864 513.086 108.003 510.759C107.376 509.976 108.217 508.626 107.509 507.918C106.695 507.104 105.378 507.901 104.668 506.559C103.005 503.419 103.035 498.434 100.838 495.688C95.3951 488.884 94.4635 478.812 87.7426 472.091C84.9208 469.269 80.6547 466.492 77.1182 465.482C73.9458 464.576 70.5466 460.973 67.1732 460.973C64.1796 460.973 57.9809 457.401 55.7458 455.166C52.6811 452.102 52.2164 444.337 49.3834 442.071C48.8263 441.625 45.5544 432.077 45.4919 430.952C45.228 426.202 44.3801 420.994 44.3801 416.498C44.3801 412.371 43.2682 408.261 43.2682 403.712C43.2682 399.227 45.2311 394.509 45.4919 389.814C45.9753 381.112 49.8659 372.559 52.1013 364.735C53.9169 358.381 60.4822 351.619 67.1114 349.725C71.0991 348.586 75.753 347.563 79.9596 347.563C81.7992 347.563 90.6186 347.264 91.943 346.204C94.4567 344.193 100.635 343.115 103.865 343.115C110.229 343.115 107.997 341.627 104.173 337.803C101.275 334.905 99.083 333.607 97.8112 329.155C97.3276 327.463 95.5257 326.56 95.5257 324.77C95.5257 322.679 96.0093 319.97 94.9697 318.099C93.8718 316.122 95.4502 312.874 93.3019 311.736C90.558 310.284 89.9346 309.854 86.6308 309.76C84.0907 309.687 72.8096 306.937 71.0647 304.756C68.1311 301.089 63.6185 300.255 63.2817 294.194C63.0242 289.558 57.1367 285.956 54.3868 282.519C51.4729 278.877 48.6059 277.483 45.2449 274.427C41.9632 271.444 38.4827 268.128 34.9293 265.285C27.5877 259.412 24.5934 256.016 21.8958 247.248C16.4019 229.393 15.2201 210.189 17.7572 191.161C19.2508 179.959 16.3104 169.543 13.3097 159.041C12.2943 155.487 9.47182 153.108 7.93575 149.652C6.04784 145.404 5.92329 140.398 4.106 136.309C-3.66439 118.826 0.314573 95.0669 17.6954 85.4109C22.8849 82.5279 28.3714 81.1432 33.8174 79.0486C39.2845 76.9458 46.6007 74.2686 52.4102 74.0452C64.8359 73.5673 79.6778 72.4383 91.6341 75.0953C104.013 77.8461 116.888 76.8774 129.437 79.6663C134.684 80.8321 140.502 84.8663 145.559 85.1638C148.8 85.3545 155.392 87.2483 158.037 89.3642C160.519 91.3501 170.423 89.6112 173.912 89.6112C178.389 89.6112 185.278 88.5278 189.787 87.1404C194.826 85.59 201.005 85.0615 206.218 84.1137C211.112 83.2238 216.893 85.3522 221.66 83.9902C225.324 82.9433 230.459 82.0413 234.508 81.8282C241.454 81.4627 248.051 78.4926 255.078 78.4926C259.627 78.4926 264.059 75.4463 268.976 75.1571C272.911 74.9256 277.915 71.3075 281.762 69.5978C285.577 67.9024 290.255 63.3907 293.19 60.4558C296.613 57.033 300.906 55.4566 304.617 52.3639C308.419 49.1961 314.29 49.5799 318.145 46.4958C321.162 44.0824 326.24 45.5791 329.263 43.1602C332.142 40.8575 338.252 40.6894 341.803 40.6894C343.716 40.6894 348.401 39.8498 349.895 40.9365C350.816 41.6064 353.439 42.8454 354.589 42.9131C359.634 43.2098 361.889 38.3876 366.264 37.4156C368.365 36.9487 368.191 35.2317 369.167 33.524C370.277 31.5816 375.168 32.1997 376.826 30.1267C379.552 26.7199 386.726 29.1842 389.922 25.9881C393.569 22.3404 401.317 21.5277 405.797 19.0081C413.434 14.7118 421.123 11.9834 429.084 8.44541C433.598 6.4391 441.245 4.94258 444.897 2.02133C448.295 -0.696806 462.11 2.0751 465.528 2.33018C480.171 3.42291 494.955 2.88611 509.632 2.88611C516.409 2.88611 523.246 2.63536 530.016 2.88611L530.293 2.89637C543.934 3.40149 559.003 3.95951 572.576 6.22169C580.868 7.60368 588.887 8.12482 597.222 8.44541C600.679 8.57836 606.584 10.003 609.761 11.2251C612.259 12.1857 615.227 11.0497 617.544 12.3369C620.86 14.1792 626.189 13.1376 628.972 15.3637C631.027 17.0079 635.469 20.5289 638.114 20.6759C658.032 21.7825 679.422 24.0115 699.204 24.0115Z" fill="#B8E5FF"/>
</svg>
