<svg width="1168" height="850" viewBox="0 0 1168 850" fill="none" xmlns="http://www.w3.org/2000/svg">
<path d="M1143.31 91.4635C1155.03 114.367 1164.12 134.448 1168 160.578C1168 168.763 1164.18 173.907 1161.59 181.408C1159.26 188.18 1156.85 196.42 1153.58 202.331C1149.13 210.378 1147.54 218.624 1140.86 225.338C1134.39 231.831 1126.58 233.985 1123.04 243.232C1119.23 253.198 1117.11 263.318 1117.11 273.908C1117.11 280.803 1121.85 285.854 1124.27 292.181C1127.48 300.563 1132.84 311.268 1138.22 318.217C1140.61 321.312 1141.58 325.818 1143.31 329.294C1145.83 334.363 1150.12 337.532 1152.73 342.928C1161.37 360.788 1159.52 384.109 1159.52 403.427C1159.52 413.506 1156.35 424.877 1156.12 435.334C1155.92 444.895 1158.44 457.06 1155.75 466.199C1154.71 469.729 1151.8 472.928 1151.13 476.613C1150.54 479.872 1148.31 481.515 1146.98 484.472C1145.42 487.959 1146.32 491.367 1144.25 494.697C1141.06 499.816 1141.33 506.249 1138.78 511.644C1133.89 522.02 1129.42 535.242 1127.28 546.486C1124 563.807 1116.24 581.91 1104.38 595.15C1087.57 613.912 1070.32 609.428 1046.61 608.784C1022.7 608.135 992.331 601.488 970.266 612.571C957.08 619.194 969.512 639.042 969.512 649.685C969.512 655.49 971.001 663.624 969.418 669.188C967.125 677.251 963.525 683.348 959.711 690.586C957.447 694.882 959.96 709.204 963.104 712.362C970.325 719.615 973.215 722.772 974.696 733.191C975.969 742.14 975.071 748.559 974.602 757.049C974.432 760.127 975.49 764.415 974.225 767.275C972.705 770.711 970.084 773.063 969.418 776.743C967.597 786.807 956.837 801.974 949.909 808.933C944.335 814.532 936.616 809.798 930.117 808.554C919.789 806.578 909.123 806.471 898.637 806.471C896.43 806.471 889.656 805.347 888.082 807.324C887.105 808.55 881.416 809.914 879.599 810.827C873.995 813.641 871.588 818.885 866.876 822.567C864.699 824.268 858.491 824.969 855.754 825.312C849.878 826.05 845.006 829.932 839.261 830.33C831.545 830.865 819.565 834.771 812.494 837.999C804.925 841.456 796.265 843.3 788.367 846.047C769.688 852.542 745.32 849.077 725.597 849.077C698.404 849.077 670.037 847.372 643.789 847.372C627.665 847.372 606.245 840.81 592.047 832.887C579.727 826.011 569.121 817.019 558.117 808.176C551.6 802.938 550.72 801.359 542.001 801.359C535.1 801.359 534.84 811.57 529.183 813.194C518.03 816.395 502.865 820.141 491.106 814.235C483.743 810.537 472.999 809.297 467.356 802.211C462.959 796.69 455.507 797.972 450.768 794.163C442.251 787.318 423.212 786.04 416.838 775.796C411.614 767.398 378.806 772.385 372.73 777.879C368.555 781.653 364.787 787.585 359.63 791.039C355.939 793.511 353.973 798.425 350.205 801.453C343.766 806.628 336.521 810.844 330.695 816.697C309.2 838.289 271.568 827.215 245.118 823.419C232.449 821.601 217.995 815.788 211.188 803.82C204.837 792.655 189.134 788.404 189.134 774.944C189.134 761.35 189.328 744.59 193.375 731.581C195.351 725.23 193.256 713.955 197.239 708.953C200.15 705.298 197.896 693.13 200.161 688.124C203.869 679.929 204.278 673.669 211.188 666.727C215.015 662.882 224.2 657.099 229.849 656.502C237.923 655.648 243.454 649.772 251.055 648.075C269.184 644.028 267.021 626.137 251.055 619.009C237.54 612.975 242.808 592.609 243.421 581.517C244.026 570.584 222.478 564.475 214.581 564.475C199.543 564.475 189.853 563.118 178.578 552.924C168.787 544.072 163.168 528.675 167.457 514.674C171.669 500.922 180.696 489.404 187.437 476.613C191.517 468.873 196.749 461.273 201.952 454.553C206.604 448.544 212.82 443.207 216.654 436.659C220.066 430.833 216.277 424.138 216.277 416.966C216.277 405.961 214.1 381.968 225.702 375.308C239.13 367.6 248.887 346.93 268.114 355.71C275.4 359.036 281.564 355.404 288.378 360.728C291.94 363.511 296.504 364.616 300.253 367.544C302.215 369.078 304.101 370.967 306.191 372.278C311.721 375.751 317.547 381.603 322.17 386.247L322.307 386.385C325.92 390.014 336.188 399.676 336.727 404.279C337.099 407.45 342.039 417.751 344.361 419.617C350.287 424.379 352.099 432.728 357.085 438.364C361.274 443.098 368.976 447.241 370.751 439.216C371.964 433.731 374.05 427.838 374.05 422.079C374.05 416.395 371.204 412.908 370.657 407.688C367.241 375.094 341.122 344.789 348.508 311.4C350.543 302.204 349.78 292.019 352.372 282.902C354.125 276.739 357.085 267.159 357.085 261.126C357.085 255.067 361.704 249.324 363.023 243.232C364.873 234.683 381.099 223.554 381.099 223.554C388.526 217.458 389.287 222.876 403.255 202.331C403.255 202.331 413.538 188.986 416.838 181.408C422.247 168.989 443.569 136.817 450.768 125.332C462.962 105.877 467.356 91.4635 467.356 70.1609C467.356 42.9883 477.11 44.2938 496.196 36.0769C509.425 30.3813 524.052 26.5741 536.911 20.455C557.221 10.7906 586.006 0.879489 608.729 0.383267C634.135 -0.171569 660.924 -1.07347 685.447 5.49588C708.911 11.7815 734.317 25.1466 754.908 37.8757C764.794 43.9868 774.807 49.2545 785.037 54.6358L786.293 55.2965C793.698 59.1929 801.11 64.1859 809.29 66.4685C814.633 67.9595 819.118 72.6102 824.37 73.5693C849.449 78.15 875.561 74.2579 900.711 70.1609C925.167 66.1771 949.131 58.6557 973.565 54.7284C989.185 52.2178 1005.08 45.59 1021.16 44.6926L1021.74 44.6601C1036.73 43.8237 1051.69 42.9883 1066.97 42.9883C1079.67 42.9883 1091.25 48.4336 1103.53 49.8052C1122.7 51.945 1135.58 76.3724 1143.31 91.4635Z" fill="#BCE7FF"/>
<path d="M109.576 150.638C120.07 150.638 131.738 152.47 141.584 156.164C142.641 158.246 145.563 159.673 147.663 161.281C151.076 163.895 153.63 166.977 157.016 169.57C162.791 173.994 168.845 184.098 169.642 191.164C170.083 195.069 174.724 201.092 176.657 204.519C178.996 208.665 178.995 213.486 178.995 218.124V218.284C178.995 222.769 179.29 229.208 175.306 232.151C172.916 233.916 170.224 239.719 168.707 242.333C164.678 249.277 158.743 256.529 151.872 260.447C145.096 264.311 137.943 268.916 131.763 273.649C124.84 278.952 112.853 278.178 104.64 279.585C92.8453 281.605 78.2534 281.794 66.9687 277.947C57.4412 274.699 47.3367 266.374 40.5728 259.322C34.8926 253.399 35.6348 243.406 29.817 237.677C23.3733 231.331 17.3094 224.995 10.6437 218.795C6.96007 215.369 1.65137 213.715 0.407519 208.203C-0.437618 204.458 -0.102108 198.062 2.69377 195.309C7.18755 190.883 13.5415 183.488 16.2034 177.809C19.0958 171.637 24.6558 166.564 27.4788 160.309C28.9255 157.103 35.6453 155.278 38.7023 153.606C43.0253 151.241 44.5601 148.618 49.9257 150.842C60.3271 155.155 69.8306 156.65 80.8421 155.294C85.4953 154.721 90.087 153.401 94.8194 153.401C99.8508 153.401 104.51 150.638 109.576 150.638Z" fill="#BCE7FF"/>
</svg>
