<svg width="1228" height="885" viewBox="0 0 1228 885" fill="none"
    xmlns="http://www.w3.org/2000/svg">
    <g filter="url(#filter0_d)">
        <path d="M1201.73 94.5155C1213.9 118.184 1223.33 138.935 1227.36 165.937C1227.36 174.395 1223.39 179.711 1220.71 187.461C1218.29 194.46 1215.79 202.974 1212.39 209.083C1207.77 217.398 1206.12 225.919 1199.19 232.857C1192.48 239.567 1184.37 241.793 1180.7 251.349C1176.73 261.647 1174.53 272.105 1174.53 283.048C1174.53 290.173 1179.45 295.393 1181.97 301.931C1185.3 310.593 1190.86 321.655 1196.45 328.836C1198.93 332.034 1199.93 336.691 1201.73 340.283C1204.35 345.521 1208.81 348.795 1211.51 354.371C1220.48 372.827 1218.56 396.927 1218.56 416.889C1218.56 427.305 1215.27 439.055 1215.04 449.86C1214.83 459.74 1217.44 472.312 1214.64 481.755C1213.56 485.404 1210.54 488.709 1209.85 492.517C1209.24 495.885 1206.92 497.582 1205.55 500.638C1203.92 504.241 1204.86 507.763 1202.71 511.204C1199.4 516.495 1199.67 523.142 1197.03 528.717C1191.95 539.44 1187.31 553.102 1185.1 564.721C1181.69 582.621 1173.64 601.328 1161.32 615.01C1143.87 634.397 1125.96 629.764 1101.35 629.098C1076.53 628.428 1045.01 621.559 1022.1 633.012C1008.41 639.856 1021.32 660.366 1021.32 671.364C1021.32 677.363 1022.86 685.768 1021.22 691.518C1018.84 699.85 1015.1 706.151 1011.14 713.63C1008.79 718.069 1011.4 732.869 1014.67 736.132C1022.16 743.628 1025.16 746.891 1026.7 757.656C1028.02 766.904 1027.09 773.537 1026.6 782.311C1026.42 785.492 1027.52 789.922 1026.21 792.878C1024.63 796.429 1021.91 798.859 1021.22 802.662C1019.33 813.062 1008.16 828.735 1000.97 835.926C995.182 841.712 987.169 836.82 980.422 835.535C969.702 833.493 958.629 833.383 947.745 833.383C945.453 833.383 938.421 832.22 936.787 834.263C935.773 835.531 929.868 836.94 927.981 837.883C922.164 840.792 919.665 846.21 914.773 850.015C912.513 851.773 906.069 852.497 903.229 852.852C897.129 853.615 892.071 857.626 886.107 858.037C878.098 858.59 865.661 862.626 858.321 865.962C850.463 869.534 841.474 871.44 833.275 874.279C813.885 880.99 788.589 877.409 768.115 877.409C739.887 877.409 710.44 875.648 683.193 875.648C666.454 875.648 644.218 868.867 629.48 860.679C616.691 853.574 605.681 844.282 594.258 835.144C587.493 829.731 586.579 828.099 577.528 828.099C570.365 828.099 570.095 838.651 564.222 840.329C552.645 843.637 536.903 847.508 524.696 841.405C517.053 837.583 505.9 836.303 500.041 828.98C495.477 823.275 487.742 824.6 482.822 820.664C473.98 813.59 454.217 812.269 447.6 801.683C442.177 793.005 408.12 798.159 401.813 803.836C397.479 807.736 393.567 813.866 388.213 817.435C384.382 819.989 382.342 825.067 378.429 828.197C371.745 833.544 364.225 837.901 358.177 843.949C335.864 866.262 296.799 854.818 269.341 850.895C256.19 849.017 241.186 843.01 234.12 830.643C227.526 819.105 211.226 814.712 211.226 800.803C211.226 786.755 211.427 769.436 215.628 755.993C217.679 749.43 215.504 737.779 219.64 732.61C222.661 728.833 220.321 716.259 222.673 711.086C226.522 702.618 226.946 696.148 234.12 688.975C238.092 685.002 247.627 679.026 253.491 678.408C261.872 677.526 267.614 671.454 275.505 669.701C294.324 665.519 292.079 647.031 275.505 639.665C261.475 633.429 266.943 612.384 267.58 600.921C268.208 589.623 245.84 583.31 237.642 583.31C222.031 583.31 211.972 581.908 200.268 571.374C190.105 562.227 184.271 546.317 188.723 531.848C193.096 517.637 202.467 505.735 209.465 492.517C213.699 484.519 219.13 476.666 224.531 469.721C229.361 463.512 235.814 457.997 239.794 451.23C243.336 445.209 239.403 438.291 239.403 430.88C239.403 419.507 237.142 394.714 249.186 387.832C263.125 379.867 273.254 358.507 293.213 367.579C300.776 371.017 307.175 367.263 314.248 372.765C317.946 375.641 322.685 376.782 326.576 379.809C328.613 381.393 330.571 383.345 332.74 384.701C338.481 388.289 344.528 394.337 349.327 399.136L349.47 399.279C353.22 403.029 363.879 413.013 364.439 417.77C364.824 421.046 369.953 431.691 372.364 433.619C378.515 438.54 380.396 447.168 385.572 452.991C389.92 457.884 397.915 462.165 399.758 453.872C401.017 448.204 403.182 442.115 403.182 436.163C403.182 430.289 400.228 426.686 399.66 421.292C396.115 387.61 369.001 356.294 376.668 321.791C378.78 312.288 377.988 301.763 380.68 292.342C382.499 285.974 385.572 276.074 385.572 269.84C385.572 263.578 390.367 257.644 391.735 251.349C393.656 242.514 410.5 231.014 410.5 231.014C418.21 224.715 419 230.314 433.5 209.083C433.5 209.083 444.174 195.293 447.6 187.461C453.215 174.628 475.349 141.383 482.822 129.514C495.48 109.41 500.041 94.5155 500.041 72.5021C500.041 44.4228 510.167 45.7718 529.979 37.2807C543.713 31.3951 558.896 27.4609 572.245 21.1376C593.329 11.1506 623.209 0.908837 646.797 0.396056C673.171 -0.177294 700.98 -1.10929 726.437 5.67927C750.794 12.1747 777.168 25.9857 798.543 39.1396C808.804 45.4545 819.199 50.8978 829.818 56.4587L831.122 57.1417C838.809 61.1681 846.503 66.3277 854.995 68.6865C860.542 70.2272 865.198 75.0331 870.649 76.0243C896.683 80.7578 923.789 76.7358 949.897 72.5021C975.284 68.3853 1000.16 60.613 1025.53 56.5546C1041.74 53.9602 1058.24 47.1113 1074.93 46.1839L1075.54 46.1503C1091.09 45.286 1106.63 44.4228 1122.48 44.4228C1135.67 44.4228 1147.69 50.0498 1160.44 51.4671C1180.34 53.6783 1193.71 78.9209 1201.73 94.5155Z" fill="#C2E9FF"/>
    </g>
    <g filter="url(#filter1_d)">
        <path d="M146.899 159.759C159.914 159.759 174.385 161.9 186.595 166.213C187.906 168.645 191.531 170.311 194.135 172.19C198.368 175.243 201.535 178.842 205.735 181.871C212.897 187.037 220.406 198.839 221.394 207.091C221.941 211.652 227.696 218.687 230.094 222.689C232.995 227.531 232.994 233.162 232.994 238.579V238.765C232.994 244.004 233.36 251.524 228.418 254.961C225.455 257.022 222.115 263.801 220.234 266.854C215.237 274.964 207.877 283.434 199.355 288.01C190.951 292.522 182.08 297.9 174.416 303.429C165.829 309.622 150.962 308.718 140.777 310.361C126.149 312.72 108.052 312.941 94.0561 308.449C82.2399 304.655 69.7081 294.932 61.3194 286.695C54.2746 279.778 55.1951 268.107 47.9798 261.415C39.9881 254.004 32.4675 246.604 24.2006 239.363C19.632 235.362 13.0481 233.43 11.5054 226.992C10.4573 222.618 10.8734 215.148 14.3409 211.932C19.9142 206.763 27.7945 198.127 31.0959 191.493C34.6831 184.285 41.5787 178.36 45.0799 171.054C46.874 167.311 55.2081 165.179 58.9995 163.225C64.361 160.463 66.2645 157.4 72.919 159.998C85.8191 165.035 97.6055 166.781 111.262 165.197C117.033 164.529 122.728 162.986 128.597 162.986C134.837 162.986 140.616 159.759 146.899 159.759Z" fill="#B8E5FF"/>
    </g>
    <defs>
        <filter id="filter0_d" x="180.211" y="0" width="1047.15" height="884.364" filterUnits="userSpaceOnUse" color-interpolation-filters="sRGB">
            <feFlood flood-opacity="0" result="BackgroundImageFix"/>
            <feColorMatrix in="SourceAlpha" type="matrix" values="0 0 0 0 0 0 0 0 0 0 0 0 0 0 0 0 0 0 127 0"/>
            <feOffset dx="-7" dy="6"/>
            <feColorMatrix type="matrix" values="0 0 0 0 0 0 0 0 0 0 0 0 0 0 0 0 0 0 0.05 0"/>
            <feBlend mode="normal" in2="BackgroundImageFix" result="effect1_dropShadow"/>
            <feBlend mode="normal" in="SourceGraphic" in2="effect1_dropShadow" result="shape"/>
        </filter>
        <filter id="filter1_d" x="0" y="159.014" width="233" height="162" filterUnits="userSpaceOnUse" color-interpolation-filters="sRGB">
            <feFlood flood-opacity="0" result="BackgroundImageFix"/>
            <feColorMatrix in="SourceAlpha" type="matrix" values="0 0 0 0 0 0 0 0 0 0 0 0 0 0 0 0 0 0 127 0"/>
            <feOffset dx="-11" dy="9"/>
            <feColorMatrix type="matrix" values="0 0 0 0 0 0 0 0 0 0 0 0 0 0 0 0 0 0 0.05 0"/>
            <feBlend mode="normal" in2="BackgroundImageFix" result="effect1_dropShadow"/>
            <feBlend mode="normal" in="SourceGraphic" in2="effect1_dropShadow" result="shape"/>
        </filter>
    </defs>
</svg>
