<svg width="1369" height="983" viewBox="0 0 1369 983" fill="none" xmlns="http://www.w3.org/2000/svg">
<path d="M1316.95 50.3339C1329.77 53.1844 1340.61 60.4229 1353.59 63.2733C1357.14 65.0461 1359.25 70.5904 1362.46 71.5075C1365.78 72.4552 1364.47 80.9421 1366.26 83.1801C1372.43 90.8983 1360.58 110.885 1358.57 117.926C1357.7 120.966 1359.07 124.517 1358.39 127.608C1357.8 130.252 1355.75 132.713 1354.86 135.3C1352.86 141.076 1351.4 146.419 1349.07 151.949C1347.39 155.926 1347.98 157.523 1345.81 160.997C1344.83 162.571 1342.83 164.718 1341.38 165.884C1336.91 169.454 1335.65 175.316 1331.6 178.913C1322.21 187.267 1317.02 202.282 1311.61 213.117C1306.52 223.285 1296.59 234.186 1296.59 246.415C1296.59 275.513 1298.21 303.962 1298.21 332.829C1298.21 346.273 1285.47 349.894 1276.32 355.721C1266.99 361.655 1255.91 362.027 1246.46 367.846C1238.98 372.451 1230.9 378.083 1222.39 380.514C1215.05 382.611 1209.25 387.919 1202.21 390.558C1195.62 393.028 1188.97 395.356 1183.39 399.697C1174.24 406.815 1163.56 421.251 1158.51 431.367C1155.33 437.726 1148.87 440.645 1143.49 446.026C1139.96 449.555 1130.84 459.296 1126.29 460.594C1121.56 461.947 1114.75 467.04 1110.91 470.457C1106.09 474.742 1100.24 476.152 1094.62 478.962C1084.4 484.074 1074.05 485.245 1063.68 489.278C1056.38 492.114 1053.25 497.349 1048.29 502.308C1036.24 514.363 1045.33 539.064 1028.57 547.912C1012.81 556.228 997.693 564.572 982.241 572.705C979.596 574.097 970.565 576.488 969.211 578.858C968.292 580.467 962.26 584.898 960.162 586.097C939.626 597.832 944.373 621.637 930.845 639.031C924.672 646.967 916.128 653.846 907.319 659.028C900.47 663.057 894.381 671.044 888.588 675.677C873.015 688.136 860.141 701.959 847.146 717.119C842.102 723.004 829.14 730.89 829.14 739.198C829.14 744.017 827.854 751.104 830.044 755.485C831.186 757.767 832.609 759.859 834.388 761.638C835.594 762.844 835.203 766.408 836.559 766.796C840.726 767.986 844.22 771.524 848.684 771.772C852.381 771.978 859.277 774.057 862.076 776.297C864.798 778.474 873.566 777.369 877.097 778.378C880.997 779.492 884.346 780.693 888.588 781.635C913.428 787.155 937.642 797.538 961.791 804.438C969.805 806.727 980.616 806.63 987.489 812.129C990.719 814.713 997.898 814.92 1000.16 820.001C1002.3 824.82 1006.58 828.285 1009.11 832.85C1011.61 837.349 1019.13 843.223 1019.7 848.323C1020.53 855.755 1028.39 854.252 1031.1 859C1035.04 865.89 1035.76 874.353 1035.99 882.526C1036.09 886.159 1037.87 897.274 1035.63 900.08C1032.99 903.38 1033.42 911.693 1032.64 916.006C1031.27 923.531 1025.99 929.778 1024.68 936.998C1023.71 942.303 1015.73 953.996 1011.92 957.81C1008.21 961.516 1005.73 964.552 1001.06 967.22C996.146 970.029 985.7 970.225 982.241 974.55C979.767 977.642 963.914 972.452 960.705 970.478C954.216 966.484 948.799 962.783 943.151 957.448C938.79 953.33 930.198 952.658 926.864 948.49C925.666 946.993 919.733 943.428 917.815 942.88C901.74 938.287 881 947 875.5 950.933C872.697 952.937 865.334 960 867 970.478C859.5 974.55 853.013 980.25 830.768 980.25C825.304 980.25 802.897 977.221 799.822 981.065C797.678 983.746 773.923 983.036 770.505 981.517C765.463 979.276 755.198 978.622 750.146 978.622C745.815 978.622 740.659 974.183 737.026 972.107C729.485 967.798 718.717 958.835 714.766 950.933C712.404 946.208 706.069 940.586 701.375 937.903C698.955 936.521 697.166 932.529 694.769 930.664C692.77 929.11 690.599 930.196 688.707 928.493C683.456 923.767 675.325 922.53 670.338 917.544C666.549 913.755 658.24 908.412 653.146 907.138C647.962 905.842 640.195 905.938 635.32 905.329C631.132 904.805 627.842 899.25 623.919 898.814C619.24 898.294 615.835 891.967 611.613 890.76C607.118 889.476 603.991 884.671 600.303 881.802C595.735 878.25 590.248 877.764 586.096 874.745C582.512 872.138 580.408 869.237 577.048 865.877C570.638 859.467 565.214 852.501 557.956 846.694C553.819 843.385 542.781 832.123 536.33 837.284C528.129 843.844 514.755 835.224 510.722 827.964C507.416 822.012 505.417 819.679 498.869 817.739C496.229 816.957 491.726 818.559 489.639 816.472C488.034 814.867 487.4 812.235 485.839 810.5C479.884 803.884 476.356 795.407 469.913 788.965C466.033 785.084 452.839 772.056 448.016 771.772C438.67 771.223 431.058 765.234 425.214 757.928C411.703 741.04 402.445 725.643 395.897 704.361C394.595 700.132 386.715 698.51 383.5 696.5C378.033 693.083 377.335 680.487 373.456 675.315C367.529 667.413 366.707 649.068 359.25 643.102C351.61 636.991 353.58 616.62 352.011 607.994C350.131 597.653 348.663 584.802 348.663 574.696C348.663 564.998 339.533 561.064 337.172 552.798C335.977 548.617 326.412 542.658 322.604 540.854C317.44 538.408 318.088 536.19 314.46 532.349C306.938 524.384 303.47 514.844 295.729 507.103C285.714 497.088 275.623 492.71 262.702 488.735C253.953 486.043 244.75 478.6 235.466 478.6C225.075 478.6 214.237 478.015 203.706 478.6C193.978 479.141 182.016 482.992 172.76 487.106C164.684 490.695 155.933 497.813 147.515 499.683C140.219 501.305 128.032 507.648 122.269 512.804C118.86 515.854 113.626 518.315 110.868 521.762C109.485 523.49 101.977 530.119 100.191 530.629C95.9441 531.843 90.8447 535.361 87.7039 538.502C84.4763 541.729 79.1856 542.134 76.3028 545.017C70.3241 550.995 56.5421 545.378 49.7001 545.378C28.7987 545.378 18.0303 522.338 18.0303 503.846C18.0303 498.353 19.6591 493.66 19.6591 488.373C19.6591 483.266 18.0303 478.42 18.0303 472.9C18.0303 468.365 15.7202 463.238 13.5061 459.056C12.1176 456.433 6.93081 451.696 6.62919 449.283C6.09307 444.994 3.37173 441.962 3.37173 437.068C3.37173 432.081 5.00046 428.847 5.00046 424.038C5.00046 418.311 7.94163 412.629 8.25793 406.936C8.45101 403.461 8.83114 395.467 10.2486 392.278C14.2859 383.194 8.4348 373.936 6.53871 365.403C5.27298 359.708 0.114258 362.478 0.114258 354.817C0.114258 349.683 1.74299 344.958 1.74299 340.158C1.74299 329.889 8.25793 321.242 8.25793 311.655C8.25793 304.747 5.34894 288.01 9.52472 282.79C11.8247 279.915 10.5212 274.216 13.1441 270.937C15.4998 267.992 18.6535 265.14 22.1022 263.608C29.8509 260.164 39.5563 254.53 46.0807 249.311C53.8699 243.08 68.8224 238.677 78.4744 235.919C85.9592 233.781 94.212 234.447 101.458 232.3C109.43 229.937 118.217 231.315 125.889 229.042C150.036 221.887 176.972 224.518 202.077 224.518C214.07 224.518 225.216 227.775 237.095 227.775C250.818 227.775 261.386 228.314 274.103 233.024C286.616 237.658 296.521 237.548 309.936 237.548C317.866 237.548 332.146 235.778 338.076 231.033C345.373 225.195 349.158 214.661 353.188 206.602C356.497 199.983 356.652 185.226 362.507 180.542C369.091 175.276 371.756 163.241 377.618 157.378C383.445 151.551 388.612 145.58 395.082 140.548C402.618 134.686 413.587 126.276 423.585 125.165C433.527 124.061 442.084 117.105 451.997 115.302C462.499 113.393 472.879 106.615 482.581 103.63C490.607 101.16 499.808 99.3926 507.465 96.5719C512.768 94.6182 520.731 94.3594 525.381 91.7762C536.006 85.8734 551.241 90.5076 562.027 85.7137C570.367 82.0071 581.895 79.7604 590.53 77.8414C601.299 75.4484 608.407 65.7812 617.404 61.2827C625.352 57.3087 633.158 51.531 641.111 46.986C662.627 34.6912 685.197 26.1646 707.075 15.2257C713.992 11.767 726.992 11.6046 734.583 10.3395C745.82 8.46653 757.458 4.84282 768.877 4.63892C777.392 4.48687 787.512 5.24782 795.66 2.9197C807.365 -0.424538 821.872 1.38145 834.388 1.38145C840.251 1.38145 845.587 3.01019 851.128 3.01019C855.347 3.01019 862.047 1.74746 865.786 3.82455C869.247 5.74748 879.019 6.26765 882.888 6.26765C888.532 6.26765 893.64 9.21761 899.175 9.52512C906.485 9.93122 912.584 12.7762 919.534 14.3208C925.715 15.6942 932.699 14.987 938.989 16.1305C948.884 17.9297 959.058 23.4306 968.849 24.1837C993.797 26.1028 1019.92 25.8125 1044.95 25.8125C1056.95 25.8125 1068.19 24.1837 1079.96 24.1837C1102.65 24.1837 1125.83 25.8125 1148.01 25.8125C1160.7 25.8125 1172.59 30.6987 1185.02 30.6987C1193.57 30.6987 1203.67 36.8834 1212.25 37.2136C1223.89 37.661 1235.79 42.0998 1246.91 42.0998C1252.37 42.0998 1256.02 43.7285 1261.48 43.7285C1266.76 43.7285 1273.91 42.5736 1279.03 44.0905C1285.46 45.9962 1293.26 45.9546 1299.84 46.8955C1305.89 47.7589 1310.98 49.0079 1316.95 50.3339Z" fill="#C2E9FF"/>
</svg>
