<?xml version="1.0" encoding="UTF-8"?>
<!DOCTYPE svg PUBLIC "-//W3C//DTD SVG 1.1//EN" "http://www.w3.org/Graphics/SVG/1.1/DTD/svg11.dtd">
<svg version="1.1" xmlns="http://www.w3.org/2000/svg" xmlns:xlink="http://www.w3.org/1999/xlink" x="0" y="0" width="1123" height="2014" viewBox="0, 0, 1123, 2014">
  <g id="south-america" transform="translate(0, 0)">
    <g id="Venezuela">
      <path d="M239.5,94.92 C242.262,98.871 261.84,142.012 225.183,129.793 C208.732,124.309 221.277,81.371 228.445,74.203 C228.668,73.98 228.668,73.98 228.113,77.007 C225.092,81.813 203.405,88.875 196.627,99.041 C191.332,106.983 194.431,119.014 194.431,127.596 C194.431,203.379 310.5,168.632 329.52,206.673 C332.32,212.276 327.14,226.409 325.13,230.835 C316.36,250.109 330.19,280.209 326.22,294.536 C326.22,296.845 333.1,302.803 335.01,306.617 C340.97,318.544 352,327.519 357.2,329.619 C362.22,331.644 419.56,317.643 423.97,308.814 C434.57,287.626 391.85,251.841 405.3,245.113 C416.43,239.547 462.168,265.163 485.627,241.89 C496.994,230.613 485.07,197.609 493.16,181.412 L495.36,179.216 C504.66,165.267 496.42,151.406 515.13,145.169 C517.59,144.348 480.35,123.563 467.9,111.122 C463.52,106.733 467.98,94.687 465.71,93.55 C445.05,83.221 325.73,107.33 318.54,100.139 C308.66,90.265 279.04,77.604 262.525,85.862 C256.381,88.933 237.114,91.508 239.5,94.92 z" fill="#6EB191"/>
      <path d="M239.5,94.92 C242.262,98.871 261.84,142.012 225.183,129.793 C208.732,124.309 221.277,81.371 228.445,74.203 C228.668,73.98 228.668,73.98 228.113,77.007 C225.092,81.813 203.405,88.875 196.627,99.041 C191.332,106.983 194.431,119.014 194.431,127.596 C194.431,203.379 310.5,168.632 329.52,206.673 C332.32,212.276 327.14,226.409 325.13,230.835 C316.36,250.109 330.19,280.209 326.22,294.536 C326.22,296.845 333.1,302.803 335.01,306.617 C340.97,318.544 352,327.519 357.2,329.619 C362.22,331.644 419.56,317.643 423.97,308.814 C434.57,287.626 391.85,251.841 405.3,245.113 C416.43,239.547 462.168,265.163 485.627,241.89 C496.994,230.613 485.07,197.609 493.16,181.412 L495.36,179.216 C504.66,165.267 496.42,151.406 515.13,145.169 C517.59,144.348 480.35,123.563 467.9,111.122 C463.52,106.733 467.98,94.687 465.71,93.55 C445.05,83.221 325.73,107.33 318.54,100.139 C308.66,90.265 279.04,77.604 262.525,85.862 C256.381,88.933 237.114,91.508 239.5,94.92 z" fill-opacity="0" stroke="#FFFFFF" stroke-width="1"/>
    </g>
    <g id="Brazil">
      <path d="M642.31,1006.654 C680.41,980.711 674.67,1009.948 660.6,1031.049 C638.87,1063.639 591.93,1082.659 573.93,1118.659 C568.73,1129.059 605.88,1131.769 614.44,1140.329 C634.11,1159.999 656.17,1177.349 673.79,1194.979 C673.79,1194.979 680.087,1198.572 685.057,1196.502 C685.907,1196.152 691.6,1181.329 715.02,1150.099 C734.51,1124.109 772.15,1110.519 787.51,1079.809 C800.9,1053.019 790.6,1018.708 803.98,991.947 C814.24,971.42 880.26,935.135 900.63,924.952 C922.56,913.989 953.3,929.963 969.82,905.183 C989.12,876.228 995.67,851.192 1003.87,818.418 C1008.55,799.689 1020.02,783.459 1024.74,764.602 C1031.15,738.947 1014.91,711.633 1021.44,685.526 C1030.13,650.777 1147.42,589.334 1114.79,524.078 C1111.18,516.857 1117.86,506.278 1111.5,499.915 C1101.22,489.636 1085.82,484.401 1069.77,479.048 C1041.2,469.527 1026.12,437.11 996.18,429.625 C986.05,427.092 972.97,430.674 963.23,427.429 C952.39,423.815 942.85,414.347 931.38,412.053 C923.27,410.431 912.29,414.589 905.02,410.954 C884.62,400.751 865.25,378.984 841.32,367.023 C825.72,359.222 793.81,384.455 789.7,382.399 C775.97,375.533 788.1,357.138 760.05,357.138 C752.68,357.138 725.62,377.62 718.31,370.318 L718.31,368.121 C718.31,355.432 738.82,333.688 744.67,321.993 C750.26,310.81 717.37,257.594 707.77,246.5 C707.46,246.146 694.782,293.854 682.07,297.831 C671.869,301.023 659.036,300.735 650.22,293.438 C643.208,287.635 639.54,284.782 651.205,278.291 C651.205,278.291 637.884,286.203 632.591,287.448 C627.946,288.541 602.738,289.522 587.958,298.806 C587.958,298.806 585.806,301.425 585.64,301.732 C584.047,304.673 555.49,313.825 549.18,315.403 C536.64,318.537 515.71,297.886 510.74,287.946 C505.85,278.169 513.93,254.639 515.13,244.015 C517.47,223.315 496.745,223.514 490.555,201.967 C490.555,201.967 491.414,214.758 491.247,223.353 C490.27,273.785 416.43,239.547 405.3,245.113 C391.85,251.841 434.57,287.626 423.97,308.814 C419.56,317.643 363.213,331.569 357.339,329.817 C352.399,328.343 340.97,318.544 335.01,306.617 C333.1,302.803 327.4,295.568 325.47,294.804 C325.47,294.804 323.37,296.573 321.83,298.929 C310.9,315.656 291.09,303.299 279,327.485 C278.27,328.936 279.51,331.43 279,332.976 C274.81,345.549 271.31,406.535 271.31,420.839 C271.31,422.709 267.42,434.521 263.623,430.723 C258.804,425.905 258.804,425.905 265.931,428.252 C252.058,431.402 267.48,446.917 251.542,454.886 C211.049,475.132 158.717,505.367 185.645,559.223 C187.892,563.718 193.972,581.508 197.726,583.385 C209.695,589.37 246.631,579.573 248.247,581.189 C253.464,586.406 252.462,600.78 258.131,606.449 C266.387,614.705 281.69,614.51 286.69,629.513 C295.64,656.384 295.64,656.384 288.18,624.708 C300.67,627.566 348.14,599.894 358.08,593.27 C359.05,592.621 364.47,589.778 365.76,591.073 C376.54,601.85 374.36,622.73 385.53,633.906 C395.27,643.647 409.72,664.302 423.97,669.051 C442.74,675.307 466.9,670.748 483.28,678.936 C502.84,688.713 491.44,719.428 500.85,738.243 C505.36,747.261 539.29,745.199 548.08,748.128 C549.44,748.58 549.18,749.348 549.18,750.325 C549.18,769.155 559.91,786.652 564.55,805.239 C566.47,812.915 566.11,833.339 561.26,838.187 C558.13,841.315 558.13,841.315 561.33,837.81 C560.6,852.707 555.15,877.599 562.36,892.003 C568.78,904.849 588.85,897.628 596.4,905.183 C603.92,912.697 602.93,925.985 610.68,933.738 C635.07,958.129 647.19,956.819 637.04,997.439" fill="#6EB191"/>
      <path d="M642.31,1006.654 C680.41,980.711 674.67,1009.948 660.6,1031.049 C638.87,1063.639 591.93,1082.659 573.93,1118.659 C568.73,1129.059 605.88,1131.769 614.44,1140.329 C634.11,1159.999 656.17,1177.349 673.79,1194.979 C673.79,1194.979 680.087,1198.572 685.057,1196.502 C685.907,1196.152 691.6,1181.329 715.02,1150.099 C734.51,1124.109 772.15,1110.519 787.51,1079.809 C800.9,1053.019 790.6,1018.708 803.98,991.947 C814.24,971.42 880.26,935.135 900.63,924.952 C922.56,913.989 953.3,929.963 969.82,905.183 C989.12,876.228 995.67,851.192 1003.87,818.418 C1008.55,799.689 1020.02,783.459 1024.74,764.602 C1031.15,738.947 1014.91,711.633 1021.44,685.526 C1030.13,650.777 1147.42,589.334 1114.79,524.078 C1111.18,516.857 1117.86,506.278 1111.5,499.915 C1101.22,489.636 1085.82,484.401 1069.77,479.048 C1041.2,469.527 1026.12,437.11 996.18,429.625 C986.05,427.092 972.97,430.674 963.23,427.429 C952.39,423.815 942.85,414.347 931.38,412.053 C923.27,410.431 912.29,414.589 905.02,410.954 C884.62,400.751 865.25,378.984 841.32,367.023 C825.72,359.222 793.81,384.455 789.7,382.399 C775.97,375.533 788.1,357.138 760.05,357.138 C752.68,357.138 725.62,377.62 718.31,370.318 L718.31,368.121 C718.31,355.432 738.82,333.688 744.67,321.993 C750.26,310.81 717.37,257.594 707.77,246.5 C707.46,246.146 694.782,293.854 682.07,297.831 C671.869,301.023 659.036,300.735 650.22,293.438 C643.208,287.635 639.54,284.782 651.205,278.291 C651.205,278.291 637.884,286.203 632.591,287.448 C627.946,288.541 602.738,289.522 587.958,298.806 C587.958,298.806 585.806,301.425 585.64,301.732 C584.047,304.673 555.49,313.825 549.18,315.403 C536.64,318.537 515.71,297.886 510.74,287.946 C505.85,278.169 513.93,254.639 515.13,244.015 C517.47,223.315 496.745,223.514 490.555,201.967 C490.555,201.967 491.414,214.758 491.247,223.353 C490.27,273.785 416.43,239.547 405.3,245.113 C391.85,251.841 434.57,287.626 423.97,308.814 C419.56,317.643 363.213,331.569 357.339,329.817 C352.399,328.343 340.97,318.544 335.01,306.617 C333.1,302.803 327.4,295.568 325.47,294.804 C325.47,294.804 323.37,296.573 321.83,298.929 C310.9,315.656 291.09,303.299 279,327.485 C278.27,328.936 279.51,331.43 279,332.976 C274.81,345.549 271.31,406.535 271.31,420.839 C271.31,422.709 267.42,434.521 263.623,430.723 C258.804,425.905 258.804,425.905 265.931,428.252 C252.058,431.402 267.48,446.917 251.542,454.886 C211.049,475.132 158.717,505.367 185.645,559.223 C187.892,563.718 193.972,581.508 197.726,583.385 C209.695,589.37 246.631,579.573 248.247,581.189 C253.464,586.406 252.462,600.78 258.131,606.449 C266.387,614.705 281.69,614.51 286.69,629.513 C295.64,656.384 295.64,656.384 288.18,624.708 C300.67,627.566 348.14,599.894 358.08,593.27 C359.05,592.621 364.47,589.778 365.76,591.073 C376.54,601.85 374.36,622.73 385.53,633.906 C395.27,643.647 409.72,664.302 423.97,669.051 C442.74,675.307 466.9,670.748 483.28,678.936 C502.84,688.713 491.44,719.428 500.85,738.243 C505.36,747.261 539.29,745.199 548.08,748.128 C549.44,748.58 549.18,749.348 549.18,750.325 C549.18,769.155 559.91,786.652 564.55,805.239 C566.47,812.915 566.11,833.339 561.26,838.187 C558.13,841.315 558.13,841.315 561.33,837.81 C560.6,852.707 555.15,877.599 562.36,892.003 C568.78,904.849 588.85,897.628 596.4,905.183 C603.92,912.697 602.93,925.985 610.68,933.738 C635.07,958.129 647.19,956.819 637.04,997.439" fill-opacity="0" stroke="#FFFFFF" stroke-width="1"/>
    </g>
    <g id="Colombia">
      <path d="M48.639,315.026 C50.369,315.026 56.923,316.502 59.342,316.502 C79.436,316.502 154.528,373.979 175.76,384.595 C199.05,396.24 222.09,393.516 248.247,410.954 C248.928,411.408 249.865,411.474 250.443,412.053 C255.94,417.55 258.804,425.905 263.623,430.723 C267.42,434.521 271.31,422.709 271.31,420.839 C271.31,406.535 274.81,345.549 279,332.976 C279.51,331.43 278.27,328.936 279,327.485 C291.09,303.299 310.75,315.557 321.83,298.929 C333.63,281.228 315.36,250.37 325.13,230.835 C327.3,226.485 332.32,212.276 329.52,206.673 C310.5,168.632 194.431,203.379 194.431,127.596 C194.431,119.014 191.332,106.983 196.627,99.041 C203.405,88.875 225.092,81.813 228.113,77.007 C228.113,77.007 231.748,74.26 232.11,72.152 C232.163,71.841 232.491,62.444 230.674,58.404 C229.582,55.975 223.445,57.306 220.79,57.306 C217.709,57.306 207.331,61.979 205.414,63.896 C201.804,67.506 190.652,67.718 185.645,69.387 C176.753,72.351 166.857,75.79 159.286,81.468 C144.253,92.743 125.974,114.044 118.649,128.695 C115.682,134.628 103.232,137.523 99.978,140.776 C93.548,147.206 90.445,162.039 85.701,171.528 C73.253,196.423 105.444,229.813 96.683,256.096 C91.373,272.027 76.032,275.649 65.931,285.75 C54.68,297.001 57.4,298.166 47.572,313.778" fill="#6EB191"/>
      <path d="M48.639,315.026 C50.369,315.026 56.923,316.502 59.342,316.502 C79.436,316.502 154.528,373.979 175.76,384.595 C199.05,396.24 222.09,393.516 248.247,410.954 C248.928,411.408 249.865,411.474 250.443,412.053 C255.94,417.55 258.804,425.905 263.623,430.723 C267.42,434.521 271.31,422.709 271.31,420.839 C271.31,406.535 274.81,345.549 279,332.976 C279.51,331.43 278.27,328.936 279,327.485 C291.09,303.299 310.75,315.557 321.83,298.929 C333.63,281.228 315.36,250.37 325.13,230.835 C327.3,226.485 332.32,212.276 329.52,206.673 C310.5,168.632 194.431,203.379 194.431,127.596 C194.431,119.014 191.332,106.983 196.627,99.041 C203.405,88.875 225.092,81.813 228.113,77.007 C228.113,77.007 231.748,74.26 232.11,72.152 C232.163,71.841 232.491,62.444 230.674,58.404 C229.582,55.975 223.445,57.306 220.79,57.306 C217.709,57.306 207.331,61.979 205.414,63.896 C201.804,67.506 190.652,67.718 185.645,69.387 C176.753,72.351 166.857,75.79 159.286,81.468 C144.253,92.743 125.974,114.044 118.649,128.695 C115.682,134.628 103.232,137.523 99.978,140.776 C93.548,147.206 90.445,162.039 85.701,171.528 C73.253,196.423 105.444,229.813 96.683,256.096 C91.373,272.027 76.032,275.649 65.931,285.75 C54.68,297.001 57.4,298.166 47.572,313.778" fill-opacity="0" stroke="#FFFFFF" stroke-width="1"/>
    </g>
    <g id="Guyana">
      <path d="M590.32,202.242 C582.38,198.982 581.12,197.275 576.63,195.69 C571.34,193.819 560.58,179.724 556.87,175.921 C547.67,166.509 542.77,162.58 529.37,154.291 C528.17,153.551 522.58,150.941 522.78,146.096 C522.92,142.76 517.59,144.348 515.13,145.169 C496.42,151.406 504.66,165.267 495.36,179.216 L493.16,181.412 C485.07,197.609 492.16,209.591 503.34,221.059 C514.5,232.515 515.13,227.802 515.13,244.015 C515.13,254.707 505.85,278.169 510.74,287.946 C515.71,297.886 536.64,318.537 549.18,315.403 C555.49,313.825 584.46,305.242 586.52,301.126 C591.04,292.081 569.53,269.394 566.06,262.458 C561.94,254.203 590.32,215.888 590.32,202.242 z" fill="#6EB191"/>
      <path d="M590.32,202.242 C582.38,198.982 581.12,197.275 576.63,195.69 C571.34,193.819 560.58,179.724 556.87,175.921 C547.67,166.509 542.77,162.58 529.37,154.291 C528.17,153.551 522.58,150.941 522.78,146.096 C522.92,142.76 517.59,144.348 515.13,145.169 C496.42,151.406 504.66,165.267 495.36,179.216 L493.16,181.412 C485.07,197.609 492.16,209.591 503.34,221.059 C514.5,232.515 515.13,227.802 515.13,244.015 C515.13,254.707 505.85,278.169 510.74,287.946 C515.71,297.886 536.64,318.537 549.18,315.403 C555.49,313.825 584.46,305.242 586.52,301.126 C591.04,292.081 569.53,269.394 566.06,262.458 C561.94,254.203 590.32,215.888 590.32,202.242 z" fill-opacity="0" stroke="#FFFFFF" stroke-width="1"/>
    </g>
    <g id="Suriname">
      <path d="M587.958,298.806 C606.858,287.383 641.12,292.854 651.32,276.963 C653.96,272.843 639.53,224.236 649.33,221.02 C624.61,214.6 643.88,219.765 618.26,213.391 C605.36,210.18 593.41,205.812 590.32,201.967 C589.75,214.762 561.93,254.203 566.06,262.458 C569.53,269.394 583.508,287.728 587.958,298.806 z" fill="#6EB191"/>
      <path d="M587.958,298.806 C606.858,287.383 641.12,292.854 651.32,276.963 C653.96,272.843 639.53,224.236 649.33,221.02 C624.61,214.6 643.88,219.765 618.26,213.391 C605.36,210.18 593.41,205.812 590.32,201.967 C589.75,214.762 561.93,254.203 566.06,262.458 C569.53,269.394 583.508,287.728 587.958,298.806 z" fill-opacity="0" stroke="#FFFFFF" stroke-width="1"/>
    </g>
    <g id="French-Guiana">
      <path d="M650.22,220.951 C639.27,222.242 653.32,272.492 651.32,276.963 C649.57,280.873 643.179,283.177 642.742,285.802 C642.742,285.802 642.995,285.033 642.8,285.511 C642.217,286.94 647.28,290.498 650.22,293.438 C658.31,301.532 671.93,301.21 682.07,297.831 C699.1,292.154 703.54,250.735 709.02,247.811 C669.44,208.836 651.33,220.82 650.22,220.951 z" fill="#6EB191"/>
      <path d="M650.22,220.951 C639.27,222.242 653.32,272.492 651.32,276.963 C649.57,280.873 643.179,283.177 642.742,285.802 C642.742,285.802 642.995,285.033 642.8,285.511 C642.217,286.94 647.28,290.498 650.22,293.438 C658.31,301.532 671.93,301.21 682.07,297.831 C699.1,292.154 703.54,250.735 709.02,247.811 C669.44,208.836 651.33,220.82 650.22,220.951 z" fill-opacity="0" stroke="#FFFFFF" stroke-width="1"/>
    </g>
    <g id="Ecuador">
      <path d="M144.166,364.185 C123.648,352.785 79.436,316.502 59.342,316.502 C56.923,316.502 49.406,315.403 47.676,315.403 C36.425,326.654 41.213,327.049 27.491,341.762 C24.926,344.513 24.887,353.561 23.098,357.138 C-0.168,403.67 29.708,414.016 25.295,425.232 C20.454,437.533 12.154,441.207 9.205,450.006 C5.112,450.006 22.401,456.385 25.295,459.279 C31.378,465.362 52.671,469.325 58.243,458.181 C73.244,428.179 89.148,419.272 116.453,401.07 C127.439,393.745 133.664,368.788 139.423,367.152 C140.595,366.819 145.503,364.928 144.166,364.185 z" fill="#6EB191"/>
      <path d="M144.166,364.185 C123.648,352.785 79.436,316.502 59.342,316.502 C56.923,316.502 49.406,315.403 47.676,315.403 C36.425,326.654 41.213,327.049 27.491,341.762 C24.926,344.513 24.887,353.561 23.098,357.138 C-0.168,403.67 29.708,414.016 25.295,425.232 C20.454,437.533 12.154,441.207 9.205,450.006 C5.112,450.006 22.401,456.385 25.295,459.279 C31.378,465.362 52.671,469.325 58.243,458.181 C73.244,428.179 89.148,419.272 116.453,401.07 C127.439,393.745 133.664,368.788 139.423,367.152 C140.595,366.819 145.503,364.928 144.166,364.185 z" fill-opacity="0" stroke="#FFFFFF" stroke-width="1"/>
    </g>
    <g id="Uruguay">
      <path d="M573.609,1119.854 C573,1121.588 572.757,1122.547 572.068,1124.853 C570.358,1130.578 559.502,1166.728 559.38,1173.114 C558.856,1200.638 547.583,1213.508 551.474,1231.3 C554.272,1244.092 559.53,1256.969 560.8,1256.969 C560.8,1256.969 557.483,1256.807 561.442,1256.769 C593.88,1256.454 617.21,1259.959 645.83,1245.649 C646.65,1245.239 648.52,1242.169 649.12,1241.259 C669.55,1210.619 657.972,1228.575 681.392,1197.345 C663.762,1179.715 623.545,1148.697 614.44,1140.329 C605.526,1132.138 580.621,1122.433 573.594,1119.854" fill="#6EB191"/>
      <path d="M573.609,1119.854 C573,1121.588 572.757,1122.547 572.068,1124.853 C570.358,1130.578 559.502,1166.728 559.38,1173.114 C558.856,1200.638 547.583,1213.508 551.474,1231.3 C554.272,1244.092 559.53,1256.969 560.8,1256.969 C560.8,1256.969 557.483,1256.807 561.442,1256.769 C593.88,1256.454 617.21,1259.959 645.83,1245.649 C646.65,1245.239 648.52,1242.169 649.12,1241.259 C669.55,1210.619 657.972,1228.575 681.392,1197.345 C663.762,1179.715 623.545,1148.697 614.44,1140.329 C605.526,1132.138 580.621,1122.433 573.594,1119.854" fill-opacity="0" stroke="#FFFFFF" stroke-width="1"/>
    </g>
    <g id="Peru">
      <path d="M9.205,450.006 C3.468,459.763 -4.639,470.908 3.329,486.736 C31.368,542.433 76.103,598.238 105.47,656.97 C114.387,674.804 106.803,685.761 123.042,702 C153.175,732.133 237.846,775.93 251.902,804.041 C264.747,802.658 275.636,784.599 279.985,772.577 C296.118,727.973 292.256,647.456 286.69,629.513 C282,614.408 266.387,614.705 258.131,606.449 C252.462,600.78 253.464,586.406 248.247,581.189 C246.631,579.573 209.695,589.37 197.726,583.385 C193.972,581.508 187.892,563.718 185.645,559.223 C158.717,505.367 210.859,474.747 251.542,454.886 C262.567,449.503 256.93,437.469 261.348,428.74 L261.593,428.74 C259.681,425.674 260.282,426.64 257.394,421.912 C253.228,415.092 255.94,417.55 250.443,412.053 C249.865,411.474 248.928,411.408 248.247,410.954 C222.09,393.516 199.05,396.24 175.76,384.595 C154.528,373.979 151.767,367.728 150.406,366.791 C149.61,366.243 148.733,365.948 147.038,365.738 C145.707,365.573 143.313,365.025 140.615,365.925 C130.005,369.461 127.439,393.745 116.453,401.07 C89.148,419.272 73.244,428.179 58.243,458.181 C52.671,469.325 31.378,465.362 25.295,459.279 C22.401,456.385 14.293,454.325 9.205,450.006" fill="#6EB191"/>
      <path d="M9.205,450.006 C3.468,459.763 -4.639,470.908 3.329,486.736 C31.368,542.433 76.103,598.238 105.47,656.97 C114.387,674.804 106.803,685.761 123.042,702 C153.175,732.133 237.846,775.93 251.902,804.041 C264.747,802.658 275.636,784.599 279.985,772.577 C296.118,727.973 292.256,647.456 286.69,629.513 C282,614.408 266.387,614.705 258.131,606.449 C252.462,600.78 253.464,586.406 248.247,581.189 C246.631,579.573 209.695,589.37 197.726,583.385 C193.972,581.508 187.892,563.718 185.645,559.223 C158.717,505.367 210.859,474.747 251.542,454.886 C262.567,449.503 256.93,437.469 261.348,428.74 L261.593,428.74 C259.681,425.674 260.282,426.64 257.394,421.912 C253.228,415.092 255.94,417.55 250.443,412.053 C249.865,411.474 248.928,411.408 248.247,410.954 C222.09,393.516 199.05,396.24 175.76,384.595 C154.528,373.979 151.767,367.728 150.406,366.791 C149.61,366.243 148.733,365.948 147.038,365.738 C145.707,365.573 143.313,365.025 140.615,365.925 C130.005,369.461 127.439,393.745 116.453,401.07 C89.148,419.272 73.244,428.179 58.243,458.181 C52.671,469.325 31.378,465.362 25.295,459.279 C22.401,456.385 14.293,454.325 9.205,450.006" fill-opacity="0" stroke="#FFFFFF" stroke-width="1"/>
    </g>
    <g id="Bolivia">
      <path d="M279.002,776.088 C278.053,779.947 284.27,786.128 285.59,788.765 C300.24,818.065 311.84,892.243 325.85,906.254 C329.55,909.952 358.32,900.75 372.93,905.771 C409.17,918.228 438.35,916.958 451.43,877.726 C456.34,862.985 463.1,851.953 475.59,842.581 C497.22,826.359 524.94,820.579 549.18,832.696 C553.13,834.674 558.13,841.315 561.26,838.187 C566.11,833.339 566.47,812.915 564.55,805.239 C559.91,786.652 549.18,769.155 549.18,750.325 C549.18,749.348 550.35,751.138 549.18,750.325 C541.19,744.811 505.36,747.261 500.85,738.243 C491.44,719.428 502.84,688.713 483.28,678.936 C466.9,670.748 442.74,675.307 423.97,669.051 C409.72,664.302 395.27,643.647 385.53,633.906 C374.36,622.73 376.54,601.85 365.76,591.073 C364.47,589.778 359.05,592.621 358.08,593.27 C348.14,599.894 300.11,628.985 287.62,626.127 C293.44,655.571 280.511,769.951 279.002,776.088 z" fill="#6EB191"/>
      <path d="M279.002,776.088 C278.053,779.947 284.27,786.128 285.59,788.765 C300.24,818.065 311.84,892.243 325.85,906.254 C329.55,909.952 358.32,900.75 372.93,905.771 C409.17,918.228 438.35,916.958 451.43,877.726 C456.34,862.985 463.1,851.953 475.59,842.581 C497.22,826.359 524.94,820.579 549.18,832.696 C553.13,834.674 558.13,841.315 561.26,838.187 C566.11,833.339 566.47,812.915 564.55,805.239 C559.91,786.652 549.18,769.155 549.18,750.325 C549.18,749.348 550.35,751.138 549.18,750.325 C541.19,744.811 505.36,747.261 500.85,738.243 C491.44,719.428 502.84,688.713 483.28,678.936 C466.9,670.748 442.74,675.307 423.97,669.051 C409.72,664.302 395.27,643.647 385.53,633.906 C374.36,622.73 376.54,601.85 365.76,591.073 C364.47,589.778 359.05,592.621 358.08,593.27 C348.14,599.894 300.11,628.985 287.62,626.127 C293.44,655.571 280.511,769.951 279.002,776.088 z" fill-opacity="0" stroke="#FFFFFF" stroke-width="1"/>
    </g>
    <g id="Paraguay">
      <path d="M560.03,837.81 C557.56,834.826 553.13,834.674 549.18,832.696 C524.94,820.579 497.22,826.359 475.59,842.581 C463.1,851.953 457.68,863.502 451.43,877.726 C447.2,887.345 444.57,889.938 441.73,897.835 L442.64,898.593 C437.08,898.593 458.64,919.3 462.41,924.952 C469.61,935.741 520.89,963.116 534.9,967.785 C548.63,972.362 561.97,984.973 571.14,994.144 C579.54,1002.541 528.91,1042.469 579.93,1042.469 C594.04,1042.469 606.29,1038.619 618.37,1032.589 C631.37,1026.089 638.051,1017.92 641.151,1005.506 C651.301,964.886 635.07,958.129 610.68,933.738 C602.93,925.985 603.92,912.697 596.4,905.183 C588.85,897.628 568.78,904.849 562.36,892.003 C555.15,877.599 560.6,852.707 561.33,837.81" fill="#6EB191"/>
      <path d="M560.03,837.81 C557.56,834.826 553.13,834.674 549.18,832.696 C524.94,820.579 497.22,826.359 475.59,842.581 C463.1,851.953 457.68,863.502 451.43,877.726 C447.2,887.345 444.57,889.938 441.73,897.835 L442.64,898.593 C437.08,898.593 458.64,919.3 462.41,924.952 C469.61,935.741 520.89,963.116 534.9,967.785 C548.63,972.362 561.97,984.973 571.14,994.144 C579.54,1002.541 528.91,1042.469 579.93,1042.469 C594.04,1042.469 606.29,1038.619 618.37,1032.589 C631.37,1026.089 638.051,1017.92 641.151,1005.506 C651.301,964.886 635.07,958.129 610.68,933.738 C602.93,925.985 603.92,912.697 596.4,905.183 C588.85,897.628 568.78,904.849 562.36,892.003 C555.15,877.599 560.6,852.707 561.33,837.81" fill-opacity="0" stroke="#FFFFFF" stroke-width="1"/>
    </g>
    <g id="Chile">
      <path d="M338.732,906.796 C333.322,906.796 327.648,909.229 324.153,905.337 C312.054,891.862 300.24,818.065 285.59,788.765 C284.27,786.128 282.743,780.238 279.368,777.239 C277.454,775.538 264.478,802.414 252.787,801.956 L251.23,802.2 C256.949,813.637 264.23,951.194 255.935,967.785 C247.739,984.176 261.92,1011.828 253.738,1028.189 C244.027,1047.609 242.289,1072.419 235.067,1094.089 C231.207,1105.669 238.29,1120.589 232.871,1131.429 C224.379,1148.419 239.36,1177.759 230.674,1195.129 C220.554,1215.369 225.813,1244.389 215.298,1265.419 C206.254,1283.509 190.959,1304.389 184.546,1323.629 C182.752,1329.009 175.259,1456.619 177.957,1462.009 C186.509,1479.119 196.627,1473.999 196.627,1493.869 C196.627,1499.919 198.144,1511.699 195.529,1516.929 C188.687,1530.609 190.912,1575.359 182.35,1583.929 C177.21,1589.059 175.907,1582.199 172.465,1583.929 C161.543,1589.389 147.2,1608.089 140.615,1614.679 C136.073,1619.219 173.691,1651.889 157.089,1668.489 C154.454,1671.129 147.169,1667.429 145.008,1669.589 C129.624,1684.979 146.055,1743.069 152.696,1756.359 C156.761,1764.489 149.401,1777.699 149.401,1786.009 C149.401,1786.869 148.853,1790.949 149.401,1791.499 C153.726,1795.829 170.319,1807.029 172.465,1813.469 C183.543,1846.699 171.422,1851.959 196.627,1877.169 C200.07,1880.609 207.563,1884.829 212.003,1887.049 C244.36,1903.229 221.416,1857.399 238.362,1857.399 C239.021,1857.399 244.227,1854.479 246.05,1856.299 C254.264,1864.509 256.124,1874.059 266.92,1884.859 C268.81,1886.739 262.395,1894.479 264.721,1899.129 C266.59,1902.869 289.94,1917.849 284.49,1923.289 C279.94,1927.849 247.149,1912.839 247.149,1927.689 C247.149,1928.139 246.858,1930.689 247.149,1930.979 C253.016,1936.849 307.65,1957.349 309.55,1941.069 L309.75,1940.869 C308.22,1942.399 306.95,1934.769 305.36,1933.179 C285.75,1913.569 300.55,1882.929 289.98,1861.789 C269.57,1820.959 246.457,1840.229 222.986,1816.759 C216.085,1809.859 218.298,1796.699 212.003,1790.399 C201.51,1779.909 194.025,1774.909 188.939,1759.649 L188.939,1757.449 C188.939,1733.389 201.334,1715.089 209.807,1698.149 C215.891,1685.979 206.584,1664.979 210.905,1652.019 C215.169,1639.229 221.175,1629.279 226.281,1619.069 C233.943,1603.749 227.407,1580.569 235.067,1565.249 C239.842,1555.709 230.849,1533.579 225.183,1527.909 C220.856,1523.579 225.183,1445.579 225.183,1432.359 C225.183,1404.859 232.622,1383.439 243.854,1360.969 C250.437,1347.809 239.153,1325.649 243.854,1311.549 C253.241,1283.389 265.154,1249.409 272.41,1220.389 C277.24,1201.089 253.751,1180.819 260.328,1161.079 C266.78,1141.739 264.055,1119.149 270.21,1100.679 C279.47,1072.919 291.66,1045.699 304.26,1020.503 C308.68,1011.656 302.9,996.862 307.55,987.554 C308.38,985.897 309.07,985.21 309.75,983.161 C317.29,960.559 339.16,951.804 349.29,931.542 C352.98,924.168 341.312,913.679 338.732,906.796 z" fill="#6EB191"/>
      <path d="M338.732,906.796 C333.322,906.796 327.648,909.229 324.153,905.337 C312.054,891.862 300.24,818.065 285.59,788.765 C284.27,786.128 282.743,780.238 279.368,777.239 C277.454,775.538 264.478,802.414 252.787,801.956 L251.23,802.2 C256.949,813.637 264.23,951.194 255.935,967.785 C247.739,984.176 261.92,1011.828 253.738,1028.189 C244.027,1047.609 242.289,1072.419 235.067,1094.089 C231.207,1105.669 238.29,1120.589 232.871,1131.429 C224.379,1148.419 239.36,1177.759 230.674,1195.129 C220.554,1215.369 225.813,1244.389 215.298,1265.419 C206.254,1283.509 190.959,1304.389 184.546,1323.629 C182.752,1329.009 175.259,1456.619 177.957,1462.009 C186.509,1479.119 196.627,1473.999 196.627,1493.869 C196.627,1499.919 198.144,1511.699 195.529,1516.929 C188.687,1530.609 190.912,1575.359 182.35,1583.929 C177.21,1589.059 175.907,1582.199 172.465,1583.929 C161.543,1589.389 147.2,1608.089 140.615,1614.679 C136.073,1619.219 173.691,1651.889 157.089,1668.489 C154.454,1671.129 147.169,1667.429 145.008,1669.589 C129.624,1684.979 146.055,1743.069 152.696,1756.359 C156.761,1764.489 149.401,1777.699 149.401,1786.009 C149.401,1786.869 148.853,1790.949 149.401,1791.499 C153.726,1795.829 170.319,1807.029 172.465,1813.469 C183.543,1846.699 171.422,1851.959 196.627,1877.169 C200.07,1880.609 207.563,1884.829 212.003,1887.049 C244.36,1903.229 221.416,1857.399 238.362,1857.399 C239.021,1857.399 244.227,1854.479 246.05,1856.299 C254.264,1864.509 256.124,1874.059 266.92,1884.859 C268.81,1886.739 262.395,1894.479 264.721,1899.129 C266.59,1902.869 289.94,1917.849 284.49,1923.289 C279.94,1927.849 247.149,1912.839 247.149,1927.689 C247.149,1928.139 246.858,1930.689 247.149,1930.979 C253.016,1936.849 307.65,1957.349 309.55,1941.069 L309.75,1940.869 C308.22,1942.399 306.95,1934.769 305.36,1933.179 C285.75,1913.569 300.55,1882.929 289.98,1861.789 C269.57,1820.959 246.457,1840.229 222.986,1816.759 C216.085,1809.859 218.298,1796.699 212.003,1790.399 C201.51,1779.909 194.025,1774.909 188.939,1759.649 L188.939,1757.449 C188.939,1733.389 201.334,1715.089 209.807,1698.149 C215.891,1685.979 206.584,1664.979 210.905,1652.019 C215.169,1639.229 221.175,1629.279 226.281,1619.069 C233.943,1603.749 227.407,1580.569 235.067,1565.249 C239.842,1555.709 230.849,1533.579 225.183,1527.909 C220.856,1523.579 225.183,1445.579 225.183,1432.359 C225.183,1404.859 232.622,1383.439 243.854,1360.969 C250.437,1347.809 239.153,1325.649 243.854,1311.549 C253.241,1283.389 265.154,1249.409 272.41,1220.389 C277.24,1201.089 253.751,1180.819 260.328,1161.079 C266.78,1141.739 264.055,1119.149 270.21,1100.679 C279.47,1072.919 291.66,1045.699 304.26,1020.503 C308.68,1011.656 302.9,996.862 307.55,987.554 C308.38,985.897 309.07,985.21 309.75,983.161 C317.29,960.559 339.16,951.804 349.29,931.542 C352.98,924.168 341.312,913.679 338.732,906.796 z" fill-opacity="0" stroke="#FFFFFF" stroke-width="1"/>
    </g>
    <g id="Argentina">
      <path d="M573.93,1118.659 C591.93,1082.659 638.87,1063.639 660.6,1031.049 C674.67,1009.948 678.25,984.611 649.38,1002.114 C649.38,1002.114 642.95,1006.064 640.64,1009.721 C633.18,1021.527 631.37,1026.089 618.37,1032.589 C606.29,1038.619 594.04,1042.469 579.93,1042.469 C528.91,1042.469 579.54,1002.541 571.14,994.144 C561.97,984.973 548.63,972.362 534.9,967.785 C520.89,963.116 469.61,935.741 462.41,924.952 C458.64,919.3 443.82,899.225 442.64,898.593 C442.64,898.593 438.85,896.207 437.18,898.957 C420.97,925.646 392.53,904.085 356.98,904.085 C351.58,904.085 341.145,905.038 340.704,905.353 C340.704,905.353 335.37,908.766 337.9,913.441 C343,922.831 352.98,924.168 349.29,931.542 C339.16,951.804 317.29,960.559 309.75,983.161 C309.07,985.21 308.38,985.897 307.55,987.554 C302.9,996.862 308.68,1011.656 304.26,1020.503 C291.66,1045.699 279.47,1072.919 270.21,1100.679 C264.055,1119.149 266.78,1141.739 260.328,1161.079 C253.751,1180.819 277.24,1201.089 272.41,1220.389 C265.154,1249.409 253.241,1283.389 243.854,1311.549 C239.153,1325.649 250.437,1347.809 243.854,1360.969 C232.622,1383.439 225.183,1404.859 225.183,1432.359 C225.183,1445.579 220.856,1523.579 225.183,1527.909 C230.849,1533.579 239.842,1555.709 235.067,1565.249 C227.407,1580.569 233.943,1603.749 226.281,1619.069 C221.175,1629.279 215.169,1639.229 210.905,1652.019 C206.584,1664.979 215.891,1685.979 209.807,1698.149 C201.334,1715.089 188.939,1733.389 188.939,1757.449 L188.939,1759.649 C194.025,1774.909 201.51,1779.909 212.003,1790.399 C218.298,1796.699 216.085,1809.859 222.986,1816.759 C246.457,1840.229 269.57,1820.959 289.98,1861.789 C300.55,1882.929 285.75,1913.569 305.36,1933.179 C306.95,1934.769 308.22,1942.399 309.75,1940.869 L309.79,1941.069 C315.65,1946.939 328.46,1963.889 338.31,1954.049 C345.41,1946.939 367.13,1952.679 374.55,1945.259 C376.68,1943.129 351.15,1932.499 349.29,1928.789 C339.8,1909.799 328.86,1887.489 311.95,1870.579 C305.89,1864.519 301.81,1855.719 306.13,1847.069 C309.7,1839.929 299.73,1834.719 297.07,1827.719 C292.03,1814.499 285.47,1806.469 288.88,1796.989 C295.01,1779.969 314.31,1774.689 320.73,1761.849 C326.09,1751.139 321.19,1736.759 326.22,1726.699 C336.34,1706.469 360.77,1698.249 370.16,1679.479 C384.09,1651.619 326.55,1633.129 337.21,1590.509 C341.36,1573.919 367.83,1588.579 374.55,1575.139 C387.66,1548.919 388.73,1514.829 408.6,1494.959 C411.84,1491.719 387.61,1465.549 394.32,1452.129 C398.02,1444.739 432.16,1448.139 445.94,1438.949 C465.86,1425.669 448.39,1387.069 453.63,1381.839 C462.27,1373.189 524.19,1379.369 529.41,1374.149 C537.11,1366.449 550.04,1355.719 559.06,1346.699 C562.73,1343.029 570.1,1338.899 572.24,1334.609 C589.38,1300.329 575.41,1299.829 554.67,1268.719 C553.44,1266.869 551.2,1262.209 551.33,1259.189 C551.48,1255.569 551.75,1253.629 553.16,1251.739 C553.16,1251.739 554.34,1250.149 556.04,1248.449 C556.61,1247.269 556.7,1247.189 556.03,1245.849 C541.77,1217.339 558.92,1205.829 558.92,1176.139 C558.92,1168.189 566.31,1143.219 564.17,1151.159 C561.3,1161.819 571.44,1124.139 573.93,1118.659 z" fill="#6EB191"/>
      <path d="M573.93,1118.659 C591.93,1082.659 638.87,1063.639 660.6,1031.049 C674.67,1009.948 678.25,984.611 649.38,1002.114 C649.38,1002.114 642.95,1006.064 640.64,1009.721 C633.18,1021.527 631.37,1026.089 618.37,1032.589 C606.29,1038.619 594.04,1042.469 579.93,1042.469 C528.91,1042.469 579.54,1002.541 571.14,994.144 C561.97,984.973 548.63,972.362 534.9,967.785 C520.89,963.116 469.61,935.741 462.41,924.952 C458.64,919.3 443.82,899.225 442.64,898.593 C442.64,898.593 438.85,896.207 437.18,898.957 C420.97,925.646 392.53,904.085 356.98,904.085 C351.58,904.085 341.145,905.038 340.704,905.353 C340.704,905.353 335.37,908.766 337.9,913.441 C343,922.831 352.98,924.168 349.29,931.542 C339.16,951.804 317.29,960.559 309.75,983.161 C309.07,985.21 308.38,985.897 307.55,987.554 C302.9,996.862 308.68,1011.656 304.26,1020.503 C291.66,1045.699 279.47,1072.919 270.21,1100.679 C264.055,1119.149 266.78,1141.739 260.328,1161.079 C253.751,1180.819 277.24,1201.089 272.41,1220.389 C265.154,1249.409 253.241,1283.389 243.854,1311.549 C239.153,1325.649 250.437,1347.809 243.854,1360.969 C232.622,1383.439 225.183,1404.859 225.183,1432.359 C225.183,1445.579 220.856,1523.579 225.183,1527.909 C230.849,1533.579 239.842,1555.709 235.067,1565.249 C227.407,1580.569 233.943,1603.749 226.281,1619.069 C221.175,1629.279 215.169,1639.229 210.905,1652.019 C206.584,1664.979 215.891,1685.979 209.807,1698.149 C201.334,1715.089 188.939,1733.389 188.939,1757.449 L188.939,1759.649 C194.025,1774.909 201.51,1779.909 212.003,1790.399 C218.298,1796.699 216.085,1809.859 222.986,1816.759 C246.457,1840.229 269.57,1820.959 289.98,1861.789 C300.55,1882.929 285.75,1913.569 305.36,1933.179 C306.95,1934.769 308.22,1942.399 309.75,1940.869 L309.79,1941.069 C315.65,1946.939 328.46,1963.889 338.31,1954.049 C345.41,1946.939 367.13,1952.679 374.55,1945.259 C376.68,1943.129 351.15,1932.499 349.29,1928.789 C339.8,1909.799 328.86,1887.489 311.95,1870.579 C305.89,1864.519 301.81,1855.719 306.13,1847.069 C309.7,1839.929 299.73,1834.719 297.07,1827.719 C292.03,1814.499 285.47,1806.469 288.88,1796.989 C295.01,1779.969 314.31,1774.689 320.73,1761.849 C326.09,1751.139 321.19,1736.759 326.22,1726.699 C336.34,1706.469 360.77,1698.249 370.16,1679.479 C384.09,1651.619 326.55,1633.129 337.21,1590.509 C341.36,1573.919 367.83,1588.579 374.55,1575.139 C387.66,1548.919 388.73,1514.829 408.6,1494.959 C411.84,1491.719 387.61,1465.549 394.32,1452.129 C398.02,1444.739 432.16,1448.139 445.94,1438.949 C465.86,1425.669 448.39,1387.069 453.63,1381.839 C462.27,1373.189 524.19,1379.369 529.41,1374.149 C537.11,1366.449 550.04,1355.719 559.06,1346.699 C562.73,1343.029 570.1,1338.899 572.24,1334.609 C589.38,1300.329 575.41,1299.829 554.67,1268.719 C553.44,1266.869 551.2,1262.209 551.33,1259.189 C551.48,1255.569 551.75,1253.629 553.16,1251.739 C553.16,1251.739 554.34,1250.149 556.04,1248.449 C556.61,1247.269 556.7,1247.189 556.03,1245.849 C541.77,1217.339 558.92,1205.829 558.92,1176.139 C558.92,1168.189 566.31,1143.219 564.17,1151.159 C561.3,1161.819 571.44,1124.139 573.93,1118.659 z" fill-opacity="0" stroke="#FFFFFF" stroke-width="1"/>
    </g>
  </g>
</svg>
