<svg width="70" height="59" viewBox="0 0 70 59" fill="none" xmlns="http://www.w3.org/2000/svg">
<path d="M21.916 8.8125C21.916 8.8125 25.394 15.1398 28.6007 18.3781C31.9129 21.723 38.4523 25.3236 38.4523 25.3236C38.4523 25.3236 31.8841 29.1405 28.6007 32.627C25.8536 35.5439 22.7466 41.0533 22.7466 41.0533C22.7466 41.0533 18.7621 35.6807 15.7768 32.627C12.3575 29.1292 6.21029 24.5422 6.21029 24.5422C6.21029 24.5422 12.6374 21.524 15.7768 18.3781C18.9122 15.2362 21.916 8.8125 21.916 8.8125Z" fill="#6B9FFF"/>
<path d="M58.7539 0C58.7539 0 61.1192 4.30308 63.3 6.50541C65.5526 8.78018 69.9999 11.2289 69.9999 11.2289C69.9999 11.2289 65.533 13.8247 63.3 16.1958C61.4318 18.1795 59.3188 21.9264 59.3188 21.9264C59.3188 21.9264 56.609 18.2726 54.5787 16.1958C52.2533 13.817 48.0727 10.6974 48.0727 10.6974C48.0727 10.6974 52.4437 8.64483 54.5787 6.50541C56.7111 4.36864 58.7539 0 58.7539 0Z" fill="#6B9FFF"/>
<ellipse cx="55" cy="50.2539" rx="8" ry="8.5" fill="#6BACFF"/>
<circle cx="5.5" cy="42.2539" r="5.5" fill="#6BACFF"/>
</svg>
