<svg width="80" height="71" viewBox="0 0 80 71" fill="none" xmlns="http://www.w3.org/2000/svg">
<path d="M39.207 0C39.207 0 42.685 6.32731 45.8917 9.56564C49.2039 12.9105 55.7433 16.5111 55.7433 16.5111C55.7433 16.5111 49.1752 20.328 45.8917 23.8145C43.1446 26.7314 40.0376 32.2408 40.0376 32.2408C40.0376 32.2408 36.0531 26.8682 33.0678 23.8145C29.6485 20.3167 23.5013 15.7297 23.5013 15.7297C23.5013 15.7297 29.9284 12.7115 33.0678 9.56564C36.2033 6.4237 39.207 0 39.207 0Z" fill="#6B9FFF"/>
<path d="M68.7012 48.4717C68.7012 48.4717 71.0665 52.7748 73.2473 54.9771C75.4999 57.2519 79.9472 59.7006 79.9472 59.7006C79.9472 59.7006 75.4803 62.2964 73.2473 64.6674C71.3791 66.6512 69.266 70.398 69.266 70.398C69.266 70.398 66.5562 66.7442 64.526 64.6674C62.2006 62.2887 58.02 59.1691 58.02 59.1691C58.02 59.1691 62.391 57.1165 64.526 54.9771C66.6584 52.8403 68.7012 48.4717 68.7012 48.4717Z" fill="#6B9FFF"/>
<circle cx="8.5" cy="36.0049" r="8.5" fill="#6BACFF"/>
<ellipse cx="65" cy="28.0049" rx="6" ry="5.5" fill="#6BACFF"/>
</svg>
