<svg width="301" height="151" viewBox="0 0 301 151" fill="none" xmlns="http://www.w3.org/2000/svg">
<circle r="50" transform="matrix(-1 0 0 1 250.071 100.421)" fill="url(#paint0_linear)"/>
<circle r="50" transform="matrix(-1 0 0 1 123.963 100.421)" fill="url(#paint1_linear)"/>
<circle r="50" transform="matrix(-1 0 0 1 200.071 86.8405)" fill="url(#paint2_linear)"/>
<circle r="50" transform="matrix(-1 0 0 1 50.2393 86.8405)" fill="url(#paint3_linear)"/>
<circle r="50" transform="matrix(-1 0 0 1 123.963 50.4214)" fill="url(#paint4_linear)"/>
<circle r="50" transform="matrix(-1 0 0 1 200.071 50.4214)" fill="url(#paint5_linear)"/>
<defs>
<linearGradient id="paint0_linear" x1="50" y1="0" x2="50" y2="100" gradientUnits="userSpaceOnUse">
<stop stop-color="#E1EFFF"/>
<stop offset="1" stop-color="#F4F6F8" stop-opacity="0"/>
</linearGradient>
<linearGradient id="paint1_linear" x1="50" y1="0" x2="50" y2="100" gradientUnits="userSpaceOnUse">
<stop stop-color="#E1EFFF"/>
<stop offset="1" stop-color="#F4F6F8" stop-opacity="0"/>
</linearGradient>
<linearGradient id="paint2_linear" x1="50" y1="0" x2="50" y2="100" gradientUnits="userSpaceOnUse">
<stop stop-color="#E1EFFF"/>
<stop offset="1" stop-color="#F4F6F8" stop-opacity="0"/>
</linearGradient>
<linearGradient id="paint3_linear" x1="50" y1="0" x2="50" y2="100" gradientUnits="userSpaceOnUse">
<stop stop-color="#E1EFFF"/>
<stop offset="1" stop-color="#F4F6F8" stop-opacity="0"/>
</linearGradient>
<linearGradient id="paint4_linear" x1="50" y1="0" x2="50" y2="100" gradientUnits="userSpaceOnUse">
<stop stop-color="#E1EFFF"/>
<stop offset="1" stop-color="#F4F6F8" stop-opacity="0"/>
</linearGradient>
<linearGradient id="paint5_linear" x1="50" y1="0" x2="50" y2="100" gradientUnits="userSpaceOnUse">
<stop stop-color="#E1EFFF"/>
<stop offset="1" stop-color="#F4F6F8" stop-opacity="0"/>
</linearGradient>
</defs>
</svg>
