<svg width="567" height="308" viewBox="0 0 567 308" fill="none" xmlns="http://www.w3.org/2000/svg">
<circle cx="50.0439" cy="171.25" r="50" fill="url(#paint0_linear)"/>
<circle cx="176.152" cy="171.25" r="50" fill="url(#paint1_linear)"/>
<circle cx="100.044" cy="157.669" r="50" fill="url(#paint2_linear)"/>
<circle cx="249.876" cy="157.669" r="50" fill="url(#paint3_linear)"/>
<circle cx="176.152" cy="121.25" r="50" fill="url(#paint4_linear)"/>
<circle cx="100.044" cy="121.25" r="50" fill="url(#paint5_linear)"/>
<circle cx="366.105" cy="83.9883" r="49.4663" transform="rotate(10.4682 366.105 83.9883)" fill="url(#paint6_linear)"/>
<circle cx="431.635" cy="57.8212" r="49.4663" transform="rotate(10.4682 431.635 57.8212)" fill="url(#paint7_linear)"/>
<circle cx="263.23" cy="232.331" r="69.7714" fill="url(#paint8_linear)"/>
<circle cx="341.6" cy="204.572" r="69.7714" fill="url(#paint9_linear)"/>
<circle cx="436.579" cy="260.09" r="42.0125" fill="url(#paint10_linear)"/>
<circle cx="353.957" cy="267.089" r="40.6101" fill="url(#paint11_linear)"/>
<circle cx="193.459" cy="243.537" r="43.4148" fill="url(#paint12_linear)"/>
<circle cx="447.28" cy="226.479" r="52.7131" fill="url(#paint13_linear)"/>
<circle cx="508.407" cy="94.3331" r="49.4663" transform="rotate(10.4682 508.407 94.3331)" fill="url(#paint14_linear)"/>
<circle cx="440.421" cy="88.6193" r="49.4663" transform="rotate(10.4682 440.421 88.6193)" fill="url(#paint15_linear)"/>
<defs>
<linearGradient id="paint0_linear" x1="50.0439" y1="121.25" x2="50.0439" y2="221.25" gradientUnits="userSpaceOnUse">
<stop stop-color="#E1EFFF"/>
<stop offset="1" stop-color="#F4F6F8" stop-opacity="0"/>
</linearGradient>
<linearGradient id="paint1_linear" x1="176.152" y1="121.25" x2="176.152" y2="221.25" gradientUnits="userSpaceOnUse">
<stop stop-color="#E1EFFF"/>
<stop offset="1" stop-color="#F4F6F8" stop-opacity="0"/>
</linearGradient>
<linearGradient id="paint2_linear" x1="100.044" y1="107.669" x2="100.044" y2="207.669" gradientUnits="userSpaceOnUse">
<stop stop-color="#E1EFFF"/>
<stop offset="1" stop-color="#F4F6F8" stop-opacity="0"/>
</linearGradient>
<linearGradient id="paint3_linear" x1="249.876" y1="107.669" x2="249.876" y2="207.669" gradientUnits="userSpaceOnUse">
<stop stop-color="#E1EFFF"/>
<stop offset="1" stop-color="#F4F6F8" stop-opacity="0"/>
</linearGradient>
<linearGradient id="paint4_linear" x1="176.152" y1="71.2498" x2="176.152" y2="171.25" gradientUnits="userSpaceOnUse">
<stop stop-color="#E1EFFF"/>
<stop offset="1" stop-color="#F4F6F8" stop-opacity="0"/>
</linearGradient>
<linearGradient id="paint5_linear" x1="100.044" y1="71.2498" x2="100.044" y2="171.25" gradientUnits="userSpaceOnUse">
<stop stop-color="#E1EFFF"/>
<stop offset="1" stop-color="#F4F6F8" stop-opacity="0"/>
</linearGradient>
<linearGradient id="paint6_linear" x1="366.105" y1="34.5219" x2="366.105" y2="133.455" gradientUnits="userSpaceOnUse">
<stop stop-color="#E1EFFF"/>
<stop offset="1" stop-color="#F4F6F8" stop-opacity="0"/>
</linearGradient>
<linearGradient id="paint7_linear" x1="431.635" y1="8.35489" x2="431.635" y2="107.288" gradientUnits="userSpaceOnUse">
<stop stop-color="#E1EFFF"/>
<stop offset="1" stop-color="#F4F6F8" stop-opacity="0"/>
</linearGradient>
<linearGradient id="paint8_linear" x1="263.23" y1="162.56" x2="263.23" y2="302.103" gradientUnits="userSpaceOnUse">
<stop stop-color="#E1EFFF"/>
<stop offset="1" stop-color="#F4F6F8" stop-opacity="0"/>
</linearGradient>
<linearGradient id="paint9_linear" x1="341.6" y1="134.801" x2="341.6" y2="274.344" gradientUnits="userSpaceOnUse">
<stop stop-color="#E1EFFF"/>
<stop offset="1" stop-color="#F4F6F8" stop-opacity="0"/>
</linearGradient>
<linearGradient id="paint10_linear" x1="436.579" y1="218.078" x2="436.579" y2="302.103" gradientUnits="userSpaceOnUse">
<stop stop-color="#E1EFFF"/>
<stop offset="1" stop-color="#F4F6F8" stop-opacity="0"/>
</linearGradient>
<linearGradient id="paint11_linear" x1="353.957" y1="226.479" x2="353.957" y2="307.699" gradientUnits="userSpaceOnUse">
<stop stop-color="#E1EFFF"/>
<stop offset="1" stop-color="#F4F6F8" stop-opacity="0"/>
</linearGradient>
<linearGradient id="paint12_linear" x1="193.459" y1="200.122" x2="193.459" y2="286.952" gradientUnits="userSpaceOnUse">
<stop stop-color="#E1EFFF"/>
<stop offset="1" stop-color="#F4F6F8" stop-opacity="0"/>
</linearGradient>
<linearGradient id="paint13_linear" x1="447.28" y1="173.765" x2="447.28" y2="279.192" gradientUnits="userSpaceOnUse">
<stop stop-color="#E1EFFF"/>
<stop offset="1" stop-color="#F4F6F8" stop-opacity="0"/>
</linearGradient>
<linearGradient id="paint14_linear" x1="508.407" y1="44.8668" x2="508.407" y2="143.799" gradientUnits="userSpaceOnUse">
<stop stop-color="#E1EFFF"/>
<stop offset="1" stop-color="#F4F6F8" stop-opacity="0"/>
</linearGradient>
<linearGradient id="paint15_linear" x1="440.421" y1="39.153" x2="440.421" y2="138.086" gradientUnits="userSpaceOnUse">
<stop stop-color="#E1EFFF"/>
<stop offset="1" stop-color="#F4F6F8" stop-opacity="0"/>
</linearGradient>
</defs>
</svg>
