<svg width="1440" height="1012" viewBox="0 0 1440 1012" fill="none" xmlns="http://www.w3.org/2000/svg">
<rect width="1440" height="1007.62" fill="#FEF1F1"/>
<path d="M1006.93 526.882C978.989 535.412 949.872 543.347 930.872 561.33C918.874 572.684 903.825 606 914.679 620.382C925.079 634.163 953.345 647.148 973.36 653.845C999.976 662.751 1024.26 668.511 1053.58 672.436C1066.54 674.17 1080.94 672.828 1092.5 669.046C1096.5 667.74 1103 664.671 1107.21 664.671C1114.26 664.671 1114.65 660.121 1119.25 658.329C1136.78 651.495 1111.8 620.355 1106.47 611.524C1101.97 604.076 1105.5 593.956 1098.45 587.466C1093.62 583.028 1087.79 572.5 1081.81 569.75C1075.29 566.749 1066.17 551.693 1065.76 546.567C1065.07 537.912 1058.61 533.299 1050.31 528.413C1044.07 524.736 1027.19 520.977 1018.97 520.977C1008.39 520.977 1011.31 506.233 1002.92 501.293C998.328 498.587 998.43 493.489 992.078 491.013C987.367 489.177 983.502 486.461 978.857 484.561C967.342 479.853 954.204 476.68 944.094 470.892C926.535 460.839 910.466 448.807 888.086 444.1C879.762 442.349 867.882 431.235 867.882 425.509C867.882 415.838 851.363 416.651 839.656 416.651C826.754 416.651 820.122 407.153 813.806 401.341C803.616 391.965 825.842 383.734 832.525 378.814C841.964 371.866 841.248 361.93 848.57 355.193C852.06 351.982 849.556 345.788 858.523 345.788C864.767 345.788 869.803 344.054 872.636 339.883C879.622 329.598 879.573 324.136 897.297 324.136C909.091 324.136 921.77 322.167 934.734 322.167C950.607 322.167 953.833 324.178 960.881 333.978C965.708 340.69 971.569 349.612 972.171 357.599C972.377 360.33 974.059 368.989 969.497 369.409C961.807 370.117 966.268 376.182 970.983 377.174C986.487 380.434 982.868 389.056 982.868 399.92C982.868 420.791 959.396 434.016 938.745 446.177C931.156 450.647 922.643 455.266 914.679 459.956C907.113 464.412 900.711 474.486 893.137 477.672C882.911 481.974 878.909 495.587 869.219 501.293C864.454 504.099 851.838 517.103 851.838 521.961C851.838 531.419 851.084 541.064 851.838 550.503C852.162 554.563 865.404 572.949 851.838 574.124C845.314 574.689 841.829 577.263 837.13 580.03C834.475 581.593 834.331 591.661 838.467 591.84C848.416 592.271 855.638 605.515 859.266 611.524C865.121 621.222 863.155 626.055 879.173 630.771C888.607 633.549 900.12 642.697 907.993 643.019C920.239 643.52 938.834 644.448 948.105 650.892C957.958 657.742 968.364 662.963 978.114 670.139C982.042 673.031 996.238 688.875 996.238 693.213C996.238 698.766 998.098 702.761 990.89 705.571C987.187 707.014 979.713 710.879 977.52 712.897C970.627 719.239 960.007 723.055 952.264 728.754C941.708 736.525 931.755 735.659 920.027 740.455C915.847 742.165 903.14 749.176 899.971 749.313C896.441 749.466 881.205 747.881 878.727 746.361C868.658 740.184 857.884 735.758 845.153 733.675C828.196 730.901 820.552 728.252 807.715 718.803C795.302 709.665 786.21 698.61 772.804 690.151C752.791 677.524 722.178 659.964 692.73 664.781C688.498 665.473 680.089 670.26 675.349 672.108C667.817 675.043 660.253 678.006 652.768 681.512C640.594 687.215 627.213 693.011 615.033 698.134C595.127 706.508 575.784 729.055 592.452 744.392C598.891 750.317 606.989 753.831 613.845 760.139C617.202 763.228 621.629 765.692 625.135 768.56C626.111 769.358 635.077 775.966 635.089 775.996C638.363 784.432 654.295 784.729 662.572 790.212C666.751 792.981 674.615 796.971 679.36 798.524C686.63 800.902 687.005 807.144 694.067 809.897C707.462 815.117 713.65 824.347 723.482 831.987C730.184 837.194 746.307 848.293 747.549 855.608C748.166 859.244 756.987 862.995 759.582 866.434C763.079 871.067 761.22 874.638 766.862 878.791C774.907 884.713 786.657 885.65 792.414 891.476C796.91 896.027 791.907 907.093 785.134 908.755C777.696 910.58 771.585 910.723 763.593 910.723C748.44 910.723 733.287 910.723 718.134 910.723C710.536 910.723 703.388 909.042 696.741 908.755C692.483 908.57 687.731 908.477 683.519 908.864C677.091 909.456 676.073 914.66 668.812 914.66C654.55 914.66 640.289 914.66 626.027 914.66C612.979 914.66 598.379 914.675 585.767 916.738C580.327 917.628 571.932 919.658 567.791 922.096C564.96 923.763 560.791 928.439 556.352 928.439C542.78 928.439 540.128 941.477 524.412 938.172C522.256 937.718 518.809 929.798 514.904 928.001C509.564 925.545 505.07 922.534 497.522 922.534C491.924 922.534 464.567 920.506 461.422 917.613C450.693 907.74 475.989 904.68 484.152 900.006C493.205 894.823 500.133 890.899 504.802 883.165C506.922 879.653 512.23 871.977 512.23 868.402C512.23 862.149 519.499 858.626 520.252 853.639C521.518 845.251 536.039 838.34 546.993 837.892C559.748 837.37 577.858 831.307 589.778 827.612C596.676 825.474 607.99 820.176 615.182 820.176C617.141 820.176 620.922 817.214 620.679 818.645C620.276 821.019 613.687 822.852 611.171 823.675C600.659 827.115 584.697 829.57 573.734 830.018C560.455 830.561 550.335 835.923 536.297 835.923C521.201 835.923 532.996 820.146 533.622 812.302C533.998 807.602 551.49 790.65 556.352 790.65C569.722 790.65 583.093 790.65 596.463 790.65C606.612 790.65 627.215 786.507 627.215 777.855C627.215 767.768 619.614 763.602 607.308 761.014C603.099 760.129 600.243 753.472 595.126 753.25C587.557 752.922 582.066 753.965 575.071 755.109C568.958 756.109 561.078 758.807 555.015 760.686C549.975 762.248 545.173 761.235 540.456 764.076C536.636 766.377 531.92 770.041 526.937 770.856C503.94 774.618 463.166 762.597 445.526 777.746C441.046 781.594 432.499 781.557 427.996 786.713C423.725 791.604 420.119 792.621 415.369 796.118C408.215 801.384 414.605 816.114 420.717 820.613C426.711 825.026 436.365 837.6 437.356 843.797C439.388 856.512 454.026 865.994 460.828 877.26C465.621 885.199 470.964 899.807 469.445 908.755C468.817 912.448 459.089 899.901 457.411 898.913C451.756 895.582 452.817 889.973 445.378 887.54C422.13 879.934 397.354 881.197 370.504 881.197C362.564 881.197 359.633 882.384 356.539 877.26C354.335 873.609 350.061 870.072 348.962 866.434C346.029 856.715 338.415 848.816 338.415 838.876C338.415 827.82 337.202 817.511 353.122 812.302C358.661 810.49 389.222 805.266 389.222 803.445C389.222 793.854 368.535 792.618 358.47 792.618C342.411 792.618 325.834 781.731 310.485 777.965C299.237 775.204 289.076 775.23 277.505 774.903C272.11 774.75 258.968 773.907 254.181 771.95C245.442 768.376 220.004 762.234 215.407 756.312C212.327 752.344 201.84 751.652 196.689 750.297C187.42 747.861 187.973 744.374 180.644 741.002C175.426 738.601 170.3 720.523 169.948 715.85C169.081 704.363 160.671 693.514 177.97 687.855C188.825 684.304 206.071 685.773 214.813 679.981C220.255 676.376 219.196 672.135 220.904 667.733C221.813 665.391 236.474 666.64 239.474 666.64C250.737 666.64 273.645 668.339 282.259 662.703C291.558 656.619 307.542 656.798 319.696 656.798C329.458 656.798 353.276 653.608 360.402 658.329C370.608 665.09 377.666 667.691 378.526 678.45C379.043 684.927 383.874 674.348 383.874 671.561C383.874 668.105 381.648 659.145 386.548 657.235C395.714 653.663 410.929 650.892 421.311 650.892C434.54 650.892 450.726 643.406 450.726 658.766C450.726 666.969 445.128 662.933 440.03 667.624C436.815 670.582 434.682 676.413 434.682 680.419C434.682 696.874 427.828 713.29 426.659 729.629C426.298 734.678 425.809 738.217 424.134 742.533C423.034 745.368 423.067 752.618 420.717 754.781C408.333 766.176 431.825 771.064 440.624 774.903C456.05 781.632 477.417 780.808 494.848 780.808C511.485 780.808 517.705 764.892 524.263 756.203C541.133 733.85 525.732 709.25 505.842 691.354C495.763 682.287 481.956 674.1 470.633 665.765C465.054 661.658 463.604 659.021 464.096 652.861C464.391 649.171 479.99 650.892 484.152 650.892C495.64 650.892 516.876 654.023 526.937 649.908C539.227 644.882 538.477 636.006 533.622 626.178C529.237 617.301 528.274 602.934 528.274 593.808C528.274 583.399 533.622 576.006 533.622 566.251C533.622 557.254 534.986 547.705 533.474 538.802C532.484 532.97 528.274 529.203 528.274 522.946C528.274 507.613 529.39 495.788 544.319 483.577C557.443 472.843 572.476 468.565 592.452 467.83C604.09 467.402 627.955 466.691 637.317 472.204C649.966 479.653 652.369 484.885 658.71 495.388C660.287 498 660.808 505.722 663.315 507.198C665.996 508.777 669.807 514.474 670 517.04C671.125 531.938 685.164 573.066 655.293 577.952C640.052 580.445 624.23 584.12 609.982 588.887C605.111 590.517 594.969 591.628 589.778 591.84C582.745 592.128 573.88 595.956 567.197 597.745C555.827 600.789 541.645 609.71 541.645 618.414C541.645 630.797 542.111 633.739 553.529 642.144C563.426 649.429 565.738 660.735 583.093 660.735C593.318 660.735 615.153 669.355 624.393 663.687C635.276 657.011 650.75 660.667 661.978 652.861C674.218 644.352 672.675 637.29 672.675 625.303C672.675 620.598 675.349 616.41 675.349 612.508C675.349 605.903 681.21 607.587 688.719 607.587C704.982 607.587 714.275 606.054 726.156 597.745C732.207 593.514 747.493 591.492 750.074 584.841C751.357 581.536 755.237 578.916 758.839 576.53C772.307 567.608 782.137 560.676 787.066 546.567C792.594 530.741 798.142 517.605 808.458 503.261C814.635 494.674 827.771 491.026 827.771 479.64C827.771 472.671 830.921 456.019 815.738 456.019C805.468 456.019 802.917 441.984 791.82 444.318C779.112 446.991 761.378 445.773 750.223 452.957C744.905 456.382 731.698 457.655 724.671 460.394C719.285 462.492 709.716 465.862 703.426 465.862C690.83 465.862 680.337 471.767 668.663 471.767C653.216 471.767 650.898 462.409 636.574 460.066C621.835 457.654 619.099 434.985 639.249 443.225C649.394 447.374 664.895 446.177 676.686 446.177C704.086 446.177 728.815 440.272 755.571 440.272C759.682 440.272 771.617 441.747 774.29 439.288C777.761 436.094 780.359 430.981 784.986 428.899C798.989 422.6 801.03 413.847 801.03 402.872C801.03 394.364 800.99 382.266 795.088 375.314C791.289 370.84 754.295 371.378 747.549 371.378C729.272 371.378 714.173 365.472 696.741 365.472C685.156 365.472 655.712 361.356 653.956 349.725C652.822 342.211 648.994 334.883 648.608 327.198C648.237 319.828 647.755 307.493 639.249 302.483C623.53 293.227 658.687 291.163 663.167 290.563C695.316 286.261 729.136 284.767 762.405 284.767C779.861 284.767 796.559 284.976 813.064 286.845C833.162 289.121 852.893 294.124 872.042 296.687C881.03 297.89 886.989 302.483 896.703 302.483C904.478 302.483 912.252 302.483 920.027 302.483C939.071 302.483 959.419 304.289 977.52 299.531C994.445 295.081 1012.28 291.303 1012.28 275.91C1012.28 268.107 1019.77 255.911 1031.6 255.241C1034.19 255.094 1048.46 251.48 1049.72 250.32C1050.15 249.921 1065.47 265.178 1069.92 267.052C1081.89 272.083 1085.57 285.213 1096.52 289.688C1105.11 293.205 1105.35 297.548 1105.88 304.452C1106.14 307.929 1109.05 310.37 1108.4 314.184C1107.78 317.816 1103.2 319.361 1103.2 323.151C1103.2 331.023 1079.16 335.166 1072.45 339.008C1062.23 344.859 1043.18 352.302 1029.66 346.772C1011.89 339.502 1016.34 321.436 1002.77 311.45C990.164 302.168 997.876 305.84 1006.34 312.763C1013.21 318.381 1019.01 323.556 1025.5 329.932C1034.48 338.737 1035.97 348.718 1041.7 358.474C1049.45 371.67 1045.49 387.612 1028.33 394.561C1016.63 399.298 1004.8 402.074 993.713 407.684C988.936 410.101 966.45 420.884 984.353 414.683C996.847 410.355 1009.12 408.778 1022.98 408.778C1037.05 408.778 1043.87 408.001 1053.73 416.542C1060.1 422.055 1068.81 427.64 1075.87 432.836C1082.29 437.563 1102.7 448.311 1089.83 452.52C1078.56 456.207 1056.14 452.443 1055.07 465.862C1054.18 476.989 1046.14 486.487 1031 490.467C1011.28 495.652 1004.26 493.838 1004.26 510.151C1004.26 516.879 1002.31 520.022 1011.69 522.508C1018.48 524.309 1019.96 526.862 1024.32 530.71C1028.76 534.635 1035.06 535.974 1038.43 540.661C1040.99 544.226 1048.91 548.926 1053.73 550.503C1072.66 556.697 1095.65 558.377 1116.72 558.377C1120.37 558.377 1126.55 559.262 1129.94 557.94C1134.3 556.24 1130.63 552.838 1133.21 550.941C1136.57 548.466 1149.89 549.654 1151.19 545.364C1155.62 530.681 1159.04 505.087 1144.5 492.435C1136.05 485.083 1123.93 479.241 1113.3 473.735C1106.61 470.266 1093.93 464.358 1089.83 459.081C1080.34 446.856 1104.38 448.146 1116.57 448.146C1132.67 448.146 1149.97 449.047 1165.3 452.52C1175.06 454.731 1184.39 453.34 1194.42 454.16C1207.45 455.226 1217.79 457.988 1231.56 457.988C1251.55 457.988 1283.08 453.418 1301.08 460.394C1323.33 469.012 1338.01 486.706 1351.89 501.73C1359.16 509.596 1366.35 513.898 1371.95 523.055C1375.66 529.138 1381.04 539.846 1381.31 546.567C1381.55 552.69 1383.35 559.302 1375.81 563.189C1367.56 567.44 1355.72 568.017 1347.14 572.156C1332.54 579.197 1322.13 586.929 1305.09 590.746C1291.99 593.682 1274.54 592.096 1260.97 591.84C1231.14 591.277 1205.56 575.961 1179.26 568.219C1167.86 564.862 1121.92 541.092 1121.92 561.439C1121.92 570.779 1129.27 575.118 1132.02 583.966C1135.05 593.713 1132.62 605.483 1132.62 615.461C1132.62 623.869 1119.69 625.686 1111.22 628.802C1102.02 632.191 1103.2 639.341 1103.2 645.971C1103.2 658.238 1108.55 655.292 1108.55 644.987C1108.55 640.991 1105.8 629.516 1110.03 626.397C1115.35 622.482 1136.05 622.93 1143.31 621.804C1157.78 619.561 1173.28 620.921 1187.58 618.414C1208.29 614.784 1244.67 614.328 1262.31 624.428C1279.84 634.467 1283.01 661.921 1268.99 673.529C1255.34 684.833 1258.3 699.373 1258.3 713.882C1258.3 723.318 1241.44 729.393 1231.26 733.675C1223.03 737.137 1206.07 747.065 1196.2 747.345C1185.77 747.64 1172.64 748.857 1163.22 745.158C1151.16 740.421 1142.17 729.748 1130.54 723.724C1094.67 705.147 1049.94 706.008 1006.93 706.008C967.524 706.008 934.734 738.128 934.734 765.498C934.734 787.697 949.785 797.719 978.708 802.898C994.47 805.72 1030.36 807.61 1035.75 792.618C1040.82 778.526 1007.39 765.06 1037.69 765.06C1045.85 765.06 1093.96 769.356 1095.03 765.826C1099.64 750.568 1076.37 749.067 1064.28 741.44C1056.14 736.307 1052.44 728.397 1049.72 720.88C1045.73 709.861 1051.77 710.555 1059.82 718.256C1069.43 727.453 1073.57 740.027 1084.48 749.204C1091.19 754.847 1100.24 764.697 1108.55 768.56C1117.68 772.803 1127.75 775.704 1136.78 779.933C1155.19 788.558 1183.31 786.713 1204.82 786.713C1245.28 786.713 1357.24 760.184 1357.24 812.193C1357.24 817.655 1359.5 829.019 1348.62 829.909C1316.33 832.55 1284.24 836.362 1251.46 835.923C1236.75 835.726 1221.76 831.506 1215.51 821.16C1212.9 816.828 1209.2 808.893 1202.74 814.708C1196.52 820.303 1195.04 828.104 1184.76 830.893C1165.34 836.161 1138.45 833.955 1118.06 833.955C1109 833.955 1084.28 830.359 1079.13 838.876C1074.66 846.289 1067.7 852.528 1060.42 858.451C1052.01 865.294 1039.48 876.962 1026.4 879.228C1020.23 880.296 983.866 885.159 982.868 891.039C982.036 895.936 977.52 899.847 977.52 905.693C977.52 910.65 977.52 915.608 977.52 920.565C977.52 932.259 992.923 943.588 1001.29 952.825C1011.34 963.928 1026.12 972.793 1033.68 985.085C1040.82 996.708 1056 999.302 1071.71 999.302C1094.39 999.302 1113.27 993.214 1129.94 981.586C1146.88 969.776 1162.17 950.604 1186.69 946.592C1216.53 941.711 1249.83 939.457 1250.28 911.598C1250.34 907.373 1254 872.56 1248.79 871.464C1244.81 870.627 1234.4 885.909 1231.56 888.633C1223.86 896 1208.24 901.567 1197.83 906.896C1170.44 920.921 1143.95 922.716 1112.41 926.033C1093.3 928.043 1123.93 926.47 1129.94 926.47C1148.93 926.47 1162.39 920.702 1179.26 914.66C1214.27 902.122 1235.76 882.146 1220.27 853.202C1215.61 844.493 1179.68 815.842 1167.38 833.955" stroke="#FFF0F0" stroke-width="7" stroke-linecap="round" stroke-linejoin="round"/>
<path d="M1041.89 499C1013.94 507.529 984.826 515.465 965.826 533.447C953.828 544.802 938.779 578.118 949.633 592.499C960.033 606.28 988.299 619.265 1008.31 625.962C1034.93 634.868 1059.21 640.628 1088.54 644.553C1101.5 646.287 1115.9 644.945 1127.46 641.163C1131.45 639.857 1137.96 636.789 1142.17 636.789C1149.21 636.789 1149.6 632.239 1154.2 630.446C1171.74 623.612 1146.76 592.472 1141.42 583.641C1136.93 576.194 1140.46 566.074 1133.4 559.583C1128.58 555.145 1122.74 544.617 1116.76 541.867C1110.24 538.866 1101.13 523.81 1100.72 518.684C1100.03 510.029 1093.56 505.416 1085.27 500.531C1079.02 496.853 1062.14 493.094 1053.92 493.094C1043.34 493.094 1046.27 478.35 1037.88 473.41C1033.28 470.704 1033.38 465.606 1027.03 463.131C1022.32 461.294 1018.46 458.578 1013.81 456.679C1002.3 451.97 989.158 448.798 979.048 443.009C961.489 432.956 945.421 420.924 923.041 416.217C914.716 414.466 902.836 403.352 902.836 397.626C902.836 387.955 886.317 388.768 874.61 388.768C861.708 388.768 855.076 379.27 848.761 373.458C838.57 364.082 860.796 355.851 867.479 350.931C876.918 343.983 876.202 334.047 883.524 327.31C887.014 324.099 884.51 317.905 893.477 317.905C899.721 317.905 904.757 316.171 907.59 312C914.576 301.715 914.527 296.253 932.251 296.253C944.045 296.253 956.724 294.284 969.688 294.284C985.562 294.284 988.787 296.296 995.835 306.095C1000.66 312.807 1006.52 321.729 1007.13 329.716C1007.33 332.447 1009.01 341.107 1004.45 341.526C996.761 342.234 1001.22 348.299 1005.94 349.291C1021.44 352.551 1017.82 361.173 1017.82 372.037C1017.82 392.908 994.351 406.133 973.7 418.295C966.11 422.764 957.597 427.383 949.633 432.073C942.067 436.529 935.665 446.603 928.092 449.789C917.865 454.091 913.863 467.704 904.173 473.41C899.408 476.216 886.792 489.22 886.792 494.079C886.792 503.537 886.038 513.181 886.792 522.62C887.116 526.68 900.358 545.067 886.792 546.241C880.268 546.806 876.783 549.38 872.085 552.147C869.429 553.71 869.285 563.778 873.422 563.957C883.37 564.388 890.592 577.632 894.22 583.641C900.075 593.339 898.109 598.172 914.127 602.888C923.561 605.666 935.074 614.814 942.948 615.136C955.193 615.637 973.789 616.565 983.059 623.01C992.912 629.859 1003.32 635.08 1013.07 642.256C1017 645.148 1031.19 660.992 1031.19 665.331C1031.19 670.883 1033.05 674.879 1025.84 677.688C1022.14 679.131 1014.67 682.996 1012.47 685.015C1005.58 691.357 994.961 695.172 987.218 700.871C976.662 708.642 966.71 707.776 954.981 712.572C950.801 714.282 938.094 721.293 934.925 721.43C931.395 721.583 916.159 719.998 913.681 718.478C903.612 712.301 892.838 707.875 880.107 705.792C863.15 703.019 855.506 700.369 842.67 690.92C830.256 681.782 821.164 670.727 807.758 662.269C787.745 649.641 757.132 632.081 727.684 636.898C723.452 637.59 715.043 642.377 710.303 644.225C702.771 647.16 695.207 650.123 687.722 653.629C675.548 659.332 662.167 665.128 649.987 670.252C630.081 678.625 610.738 701.172 627.406 716.509C633.845 722.434 641.944 725.949 648.799 732.257C652.156 735.345 656.583 737.809 660.09 740.677C661.065 741.475 670.031 748.083 670.043 748.113C673.317 756.549 689.249 756.846 697.527 762.33C701.705 765.098 709.569 769.088 714.314 770.641C721.584 773.019 721.959 779.262 729.021 782.014C742.416 787.234 748.604 796.464 758.436 804.104C765.138 809.311 781.261 820.41 782.503 827.725C783.12 831.361 791.941 835.112 794.536 838.551C798.033 843.184 796.174 846.756 801.816 850.908C809.861 856.83 821.611 857.767 827.368 863.594C831.864 868.144 826.861 879.21 820.089 880.872C812.65 882.697 806.539 882.84 798.547 882.84C783.394 882.84 768.241 882.84 753.088 882.84C745.49 882.84 738.342 881.16 731.695 880.872C727.437 880.687 722.685 880.594 718.474 880.981C712.045 881.573 711.027 886.777 703.766 886.777C689.504 886.777 675.243 886.777 660.981 886.777C647.933 886.777 633.334 886.792 620.721 888.855C615.281 889.745 606.886 891.775 602.745 894.213C599.914 895.88 595.745 900.556 591.306 900.556C577.734 900.556 575.082 913.594 559.366 910.289C557.21 909.835 553.764 901.915 549.858 900.119C544.518 897.662 540.024 894.651 532.477 894.651C526.879 894.651 499.521 892.623 496.376 889.73C485.647 879.857 510.943 876.797 519.106 872.123C528.159 866.94 535.087 863.016 539.756 855.282C541.876 851.771 547.184 844.094 547.184 840.519C547.184 834.266 554.453 830.743 555.206 825.756C556.472 817.369 570.993 810.457 581.947 810.009C594.702 809.487 612.812 803.424 624.732 799.729C631.63 797.591 642.945 792.293 650.136 792.293C652.095 792.293 655.876 789.331 655.633 790.762C655.23 793.136 648.641 794.97 646.125 795.793C635.613 799.232 619.651 801.687 608.688 802.135C595.41 802.678 585.289 808.041 571.251 808.041C556.155 808.041 567.95 792.263 568.577 784.42C568.952 779.719 586.444 762.767 591.306 762.767C604.677 762.767 618.047 762.767 631.417 762.767C641.566 762.767 662.169 758.624 662.169 749.972C662.169 739.885 654.568 735.72 642.262 733.131C638.053 732.246 635.197 725.589 630.08 725.367C622.511 725.039 617.02 726.082 610.025 727.226C603.912 728.226 596.032 730.924 589.969 732.803C584.929 734.366 580.127 733.353 575.41 736.193C571.59 738.494 566.874 742.158 561.891 742.973C538.894 746.735 498.12 734.714 480.481 749.863C476 753.711 467.453 753.674 462.951 758.83C458.679 763.721 455.073 764.738 450.323 768.235C443.169 773.501 449.559 788.232 455.671 792.731C461.665 797.143 471.319 809.717 472.31 815.914C474.342 828.629 488.98 838.111 495.782 849.377C500.576 857.316 505.918 871.924 504.399 880.872C503.772 884.565 494.044 872.018 492.365 871.03C486.71 867.699 487.771 862.09 480.332 859.657C457.084 852.051 432.308 853.314 405.458 853.314C397.518 853.314 394.587 854.501 391.493 849.377C389.289 845.727 385.015 842.189 383.917 838.551C380.983 828.832 373.369 820.933 373.369 810.993C373.369 799.938 372.156 789.628 388.076 784.42C393.615 782.607 424.176 777.383 424.176 775.562C424.176 765.971 403.489 764.735 393.424 764.735C377.365 764.735 360.789 753.848 345.44 750.082C334.191 747.322 324.03 747.347 312.459 747.02C307.064 746.867 293.922 746.025 289.135 744.067C280.396 740.493 254.959 734.351 250.361 728.429C247.281 724.461 236.795 723.769 231.643 722.415C222.374 719.978 222.927 716.491 215.598 713.119C210.38 710.719 205.255 692.64 204.902 687.967C204.035 676.48 195.625 665.632 212.924 659.972C223.779 656.421 241.025 657.89 249.767 652.098C255.209 648.493 254.15 644.252 255.858 639.851C256.767 637.508 271.428 638.757 274.428 638.757C285.691 638.757 308.599 640.457 317.213 634.82C326.512 628.736 342.496 628.915 354.65 628.915C364.413 628.915 388.23 625.725 395.356 630.446C405.562 637.207 412.62 639.808 413.48 650.567C413.998 657.044 418.828 646.465 418.828 643.678C418.828 640.222 416.602 631.262 421.502 629.352C430.668 625.78 445.883 623.01 456.265 623.01C469.495 623.01 485.68 615.523 485.68 630.883C485.68 639.087 480.082 635.05 474.984 639.741C471.769 642.699 469.636 648.53 469.636 652.536C469.636 668.992 462.782 685.407 461.613 701.746C461.252 706.795 460.763 710.334 459.088 714.65C457.988 717.485 458.022 724.735 455.671 726.898C443.287 738.293 466.779 743.182 475.578 747.02C491.004 753.749 512.371 752.925 529.802 752.925C546.439 752.925 552.659 737.009 559.217 728.32C576.087 705.967 560.686 681.367 540.796 663.471C530.718 654.404 516.91 646.217 505.587 637.882C500.008 633.775 498.558 631.139 499.051 624.978C499.345 621.288 514.944 623.01 519.106 623.01C530.594 623.01 551.83 626.14 561.891 622.025C574.181 617 573.431 608.123 568.577 598.295C564.192 589.418 563.228 575.052 563.228 565.926C563.228 555.516 568.577 548.123 568.577 538.368C568.577 529.371 569.94 519.822 568.428 510.919C567.438 505.087 563.228 501.32 563.228 495.063C563.228 479.73 564.344 467.905 579.273 455.694C592.397 444.96 607.43 440.682 627.406 439.947C639.044 439.519 662.909 438.808 672.271 444.321C684.92 451.77 687.323 457.003 693.664 467.505C695.241 470.117 695.762 477.839 698.269 479.315C700.95 480.894 704.761 486.592 704.955 489.157C706.079 504.055 720.118 545.183 690.247 550.069C675.006 552.562 659.184 556.237 644.936 561.005C640.065 562.634 629.923 563.745 624.732 563.957C617.699 564.245 608.834 568.074 602.151 569.862C590.781 572.906 576.599 581.827 576.599 590.531C576.599 602.914 577.065 605.856 588.484 614.261C598.38 621.546 600.692 632.852 618.047 632.852C628.272 632.852 650.107 641.472 659.347 635.804C670.23 629.128 685.704 632.784 696.932 624.978C709.172 616.469 707.629 609.407 707.629 597.42C707.629 592.715 710.303 588.527 710.303 584.626C710.303 578.02 716.164 579.704 723.673 579.704C739.936 579.704 749.229 578.171 761.11 569.862C767.161 565.631 782.447 563.61 785.028 556.958C786.311 553.653 790.192 551.034 793.793 548.647C807.261 539.725 817.091 532.793 822.02 518.684C827.548 502.858 833.096 489.723 843.412 475.379C849.589 466.791 862.725 463.143 862.725 451.758C862.725 444.788 865.875 428.137 850.692 428.137C840.422 428.137 837.871 414.101 826.774 416.436C814.066 419.108 796.332 417.89 785.177 425.075C779.859 428.5 766.652 429.772 759.625 432.511C754.239 434.61 744.67 437.979 738.381 437.979C725.784 437.979 715.292 443.884 703.618 443.884C688.17 443.884 685.852 434.526 671.529 432.183C656.789 429.772 654.054 407.102 674.203 415.342C684.349 419.491 699.849 418.295 711.64 418.295C739.04 418.295 763.769 412.389 790.525 412.389C794.636 412.389 806.571 413.864 809.244 411.405C812.715 408.211 815.313 403.098 819.94 401.016C833.943 394.717 835.984 385.964 835.984 374.989C835.984 366.481 835.944 354.383 830.042 347.432C826.243 342.957 789.249 343.495 782.503 343.495C764.226 343.495 749.127 337.59 731.695 337.59C720.11 337.59 690.666 333.473 688.91 321.842C687.776 314.329 683.949 307 683.562 299.315C683.191 291.945 682.709 279.61 674.203 274.6C658.484 265.344 693.641 263.28 698.121 262.68C730.27 258.378 764.09 256.885 797.359 256.885C814.815 256.885 831.513 257.093 848.018 258.962C868.116 261.238 887.847 266.242 906.996 268.804C915.984 270.007 921.943 274.6 931.657 274.6C939.432 274.6 947.206 274.6 954.981 274.6C974.025 274.6 994.373 276.406 1012.47 271.648C1029.4 267.198 1047.24 263.42 1047.24 248.027C1047.24 240.224 1054.72 228.028 1066.55 227.358C1069.15 227.211 1083.41 223.597 1084.67 222.437C1085.11 222.039 1100.42 237.295 1104.88 239.169C1116.84 244.201 1120.53 257.33 1131.47 261.806C1140.07 265.322 1140.31 269.666 1140.83 276.569C1141.09 280.046 1144 282.487 1143.35 286.301C1142.74 289.933 1138.16 291.479 1138.16 295.269C1138.16 303.14 1114.11 307.283 1107.4 311.125C1097.18 316.977 1078.14 324.419 1064.62 318.89C1046.84 311.619 1051.29 293.553 1037.73 283.568C1025.12 274.285 1032.83 277.957 1041.29 284.88C1048.16 290.499 1053.96 295.673 1060.46 302.049C1069.43 310.854 1070.92 320.835 1076.65 330.591C1084.4 343.787 1080.45 359.729 1063.28 366.678C1051.58 371.415 1039.75 374.191 1028.67 379.801C1023.89 382.219 1001.4 393.002 1019.31 386.8C1031.8 382.472 1044.08 380.895 1057.93 380.895C1072.01 380.895 1078.82 380.119 1088.68 388.659C1095.05 394.173 1103.76 399.757 1110.82 404.953C1117.24 409.68 1137.65 420.428 1124.78 424.637C1113.52 428.324 1091.09 424.56 1090.02 437.979C1089.13 449.107 1081.09 458.604 1065.96 462.584C1046.23 467.769 1039.21 465.956 1039.21 482.268C1039.21 488.996 1037.26 492.14 1046.64 494.625C1053.44 496.426 1054.91 498.98 1059.27 502.827C1063.71 506.752 1070.01 508.091 1073.38 512.778C1075.95 516.343 1083.86 521.043 1088.68 522.62C1107.62 528.814 1130.61 530.494 1151.67 530.494C1155.32 530.494 1161.5 531.379 1164.9 530.057C1169.26 528.357 1165.59 524.955 1168.16 523.058C1171.53 520.583 1184.84 521.771 1186.14 517.481C1190.57 502.798 1194 477.204 1179.45 464.552C1171 457.2 1158.89 451.358 1148.26 445.852C1141.56 442.383 1128.88 436.475 1124.78 431.199C1115.29 418.973 1139.34 420.263 1151.53 420.263C1167.62 420.263 1184.92 421.165 1200.25 424.637C1210.01 426.848 1219.34 425.457 1229.37 426.278C1242.41 427.344 1252.75 430.105 1266.51 430.105C1286.5 430.105 1318.03 425.536 1336.04 432.511C1358.28 441.129 1372.97 458.824 1386.84 473.848C1394.11 481.713 1401.3 486.015 1406.9 495.172C1410.62 501.255 1415.99 511.963 1416.26 518.684C1416.5 524.807 1418.31 531.419 1410.76 535.306C1402.51 539.557 1390.67 540.134 1382.09 544.273C1367.49 551.314 1357.09 559.047 1340.05 562.864C1326.95 565.799 1309.5 564.213 1295.93 563.957C1266.09 563.394 1240.51 548.078 1214.22 540.336C1202.82 536.979 1156.87 513.209 1156.87 533.556C1156.87 542.896 1164.23 547.235 1166.98 556.084C1170 565.83 1167.57 577.6 1167.57 587.578C1167.57 595.986 1154.64 597.803 1146.18 600.92C1136.97 604.308 1138.16 611.458 1138.16 618.089C1138.16 630.355 1143.5 627.409 1143.5 617.104C1143.5 613.108 1140.75 601.633 1144.99 598.514C1150.31 594.599 1171 595.047 1178.27 593.921C1192.74 591.678 1208.23 593.038 1222.54 590.531C1243.25 586.901 1279.62 586.445 1297.26 596.545C1314.8 606.584 1317.97 634.038 1303.95 645.646C1290.3 656.95 1293.25 671.491 1293.25 685.999C1293.25 695.436 1276.39 701.51 1266.21 705.792C1257.98 709.254 1241.03 719.182 1231.15 719.462C1220.72 719.757 1207.6 720.974 1198.17 717.275C1186.11 712.539 1177.12 701.865 1165.49 695.841C1129.63 677.265 1084.89 678.125 1041.89 678.125C1002.48 678.125 969.688 710.246 969.688 737.615C969.688 759.815 984.739 769.836 1013.66 775.015C1029.42 777.837 1065.32 779.727 1070.71 764.735C1075.78 750.643 1042.35 737.178 1072.64 737.178C1080.8 737.178 1128.92 741.473 1129.98 737.943C1134.59 722.685 1111.32 721.184 1099.23 713.557C1091.1 708.424 1087.4 700.514 1084.67 692.998C1080.68 681.978 1086.73 682.673 1094.78 690.373C1104.39 699.57 1108.53 712.144 1119.44 721.321C1126.14 726.964 1135.2 736.815 1143.5 740.677C1152.63 744.921 1162.7 747.821 1171.73 752.05C1190.14 760.675 1218.26 758.83 1239.77 758.83C1280.23 758.83 1392.19 732.301 1392.19 784.31C1392.19 789.772 1394.45 801.136 1383.58 802.026C1351.28 804.667 1319.19 808.479 1286.42 808.041C1271.7 807.844 1256.71 803.624 1250.47 793.277C1247.85 788.945 1244.15 781.01 1237.69 786.825C1231.47 792.42 1230 800.222 1219.71 803.01C1200.29 808.278 1173.41 806.072 1153.01 806.072C1143.95 806.072 1119.23 802.477 1114.09 810.993C1109.61 818.406 1102.65 824.646 1095.37 830.568C1086.96 837.411 1074.44 849.079 1061.35 851.346C1055.18 852.414 1018.82 857.276 1017.82 863.156C1016.99 868.053 1012.47 871.964 1012.47 877.81C1012.47 882.767 1012.47 887.725 1012.47 892.682C1012.47 904.376 1027.88 915.705 1036.24 924.942C1046.3 936.045 1061.07 944.91 1068.63 957.203C1075.77 968.825 1090.96 971.419 1106.66 971.419C1129.35 971.419 1148.22 965.331 1164.9 953.703C1181.83 941.893 1197.12 922.721 1221.65 918.709C1251.48 913.829 1284.78 911.574 1285.23 883.715C1285.3 879.49 1288.95 844.677 1283.74 843.581C1279.76 842.744 1269.36 858.026 1266.51 860.75C1258.81 868.117 1243.19 873.684 1232.79 879.013C1205.4 893.038 1178.91 894.833 1147.37 898.15C1128.25 900.16 1158.89 898.588 1164.9 898.588C1183.89 898.588 1197.35 892.819 1214.22 886.777C1249.23 874.239 1270.71 854.263 1255.22 825.319C1250.56 816.611 1214.64 787.959 1202.33 806.072" stroke="#FFF8F8" stroke-width="7" stroke-linecap="round" stroke-linejoin="round"/>
<path d="M111.228 321.506C89.8475 326.82 69.9953 328.723 57.3301 342.708C48.7335 352.2 44.4972 360.657 44.4972 372.621C44.4972 402.908 51.9908 431.201 79.0034 454.7C85.649 460.481 89.8652 474.538 102.245 474.538C113.171 474.538 115.685 461.966 118.358 456.065C128.514 433.636 142.027 408.041 142.027 384.272C142.027 373.142 145.692 361.181 125.344 361.181C104.137 361.181 97.7613 361.992 81.8551 371.572C67.0572 380.484 51.1042 390.079 42.501 402.745C41.2229 404.627 41.8705 417.561 40.6474 415.76C36.5951 409.794 29.4805 404.541 29.0978 397.497C28.7353 390.827 32.3604 391.391 39.3641 389.1C47.7598 386.353 55.4058 377.712 63.7465 373.461C69.8963 370.327 76.8398 368.384 82.8532 365.064C90.0744 361.078 100.917 361.915 109.232 358.242C124.227 351.619 145.635 351.734 162.417 351.734C180.844 351.734 183.092 358.196 183.092 370.627C183.092 385.944 185.659 400.349 185.659 415.55C185.659 429.366 184.208 443.546 188.225 457.114C190.07 463.344 197.538 487.762 210.184 487.762C229.066 487.762 242.311 489.599 260.66 484.404C272.108 481.162 273.662 470.983 279.481 464.251C291.123 450.784 289.991 434.823 297.305 419.748C305.794 402.252 288.861 402.745 271.639 402.745C263.808 402.745 249.975 400.651 243.264 403.795C236.154 407.125 231.784 411.166 224.157 413.661C211.666 417.747 194.696 419.028 185.088 426.886C168.876 440.146 203.625 456.72 203.625 471.704C203.625 478.183 198.492 483.485 198.492 490.072C198.492 497.068 194.875 509.01 189.651 515.052C174.88 532.138 130.679 525.548 106.095 525.548C90.5011 525.548 91.5948 527.136 82.9958 536.464C74.0242 546.196 67.5964 554.91 67.5964 567.112C67.5964 583.554 70.1682 589.784 93.4047 589.784C121.271 589.784 149.754 591.673 177.959 591.673C196.656 591.673 205.968 590.933 217.028 580.757C228.603 570.107 219.298 552.474 216.6 540.557C215.467 535.551 213.742 531.128 208.188 527.857C204.935 525.942 186.392 524.13 185.801 522.609C180.947 510.102 218.093 514.212 226.724 514.212C235.561 514.212 240.109 512.929 244.69 518.831C248.754 524.066 256.556 524.601 262.086 527.857C269.383 532.155 294.005 529.724 303.721 529.327C307.813 529.159 308.24 526.368 311.421 525.128C313.793 524.204 320.288 524.207 321.545 522.819C322.514 521.749 319.585 525.548 317.837 525.548C312.086 525.548 306.335 525.548 300.584 525.548C260.791 525.548 222.495 525.085 184.376 531.321C171.338 533.453 187.498 540.561 189.509 541.712C196.904 545.946 201.397 547.324 205.621 553.887C212.324 564.304 216.458 578.347 216.458 589.784C216.458 603.111 196.641 600.826 184.376 605.842C175.105 609.633 157.967 618.559 148.443 620.117C128.721 623.343 113.647 647.911 100.962 657.798C87.9037 667.975 78.7052 683.072 73.2999 696.003C66.918 711.271 62.8885 735.25 67.739 751.317C69.3457 756.639 74.6333 758.844 77.2923 763.597C79.8434 768.158 64.9392 759.962 63.6039 758.979C51.8461 750.324 39.3641 755.595 39.3641 740.926C39.3641 728.296 38.7031 716.21 39.3641 703.56C40.5958 679.987 77.4709 651.894 104.669 677.635C114.183 686.639 120.01 700.443 128.053 710.592C137.765 722.847 169.384 724.352 185.944 725.707C211.758 727.818 234.743 725.72 244.69 706.499C250.394 695.478 248.198 679.019 247.257 667.244C246.499 657.768 224.54 657.649 221.448 647.407C217.689 634.955 200.927 625.793 189.366 617.283C175.117 606.794 163.328 618.123 147.16 618.123C138.077 618.123 132.481 618.786 126.628 613.4C123.334 610.369 113.737 607.202 108.662 606.787C94.1448 605.6 76.863 602.294 77.8627 589.784C78.2069 585.476 90.6955 587.974 90.6955 592.617C90.6955 601.233 93.068 601.299 100.962 606.787C111.756 614.292 124.128 620.807 135.611 627.569C146.268 633.845 163.372 631.348 176.676 631.348C187.009 631.348 194.653 639.037 203.625 641.739C213.607 644.745 224.377 649.943 232.713 654.964C236.056 656.977 235.759 661.298 239.557 663.046C249.342 667.547 252.39 685.922 252.39 693.694C252.39 704.129 252.688 714.542 263.939 720.983C269.004 723.883 273.4 728.141 277.485 731.899C279.826 734.053 287.439 743.196 288.179 745.649C295.113 768.619 321.516 801.376 287.038 821.115C256.617 838.532 271.582 873.359 291.459 891.649C301.417 900.811 311.702 901.515 328.246 901.515C348.009 901.515 368.004 897.152 386.422 892.068C400.382 888.215 401.251 888.022 401.251 877.794C401.251 865.14 403.818 851.901 403.818 838.749C403.818 831.985 401.576 826.65 410.234 823.11C413.471 821.786 431.358 822 423.78 815.028C412.823 804.946 399.86 794.624 395.975 781.755C393.123 772.306 365.723 772.708 357.477 777.767C354.295 779.718 349.503 778.086 345.927 779.761C341.779 781.704 339.333 784.19 335.803 786.269C329.802 789.803 323.499 796.518 316.554 799.074C310.299 801.376 304.575 801.383 297.305 801.383C285.403 801.383 293.541 810.565 290.318 816.497C277.988 839.187 228.26 833.501 199.775 833.501C185.619 833.501 168.754 830.808 160.563 841.058C154.069 849.185 144.594 862.038 144.594 871.286C144.594 882.882 141.175 894.006 142.027 905.293C142.487 911.389 147.712 916.116 151.01 921.457C156.212 929.882 156.31 931.743 142.597 931.743C127.029 931.743 111.868 929.854 95.8287 929.854C90.1087 929.854 79.5866 930.629 75.8665 934.052C71.7132 937.874 75.3599 942.308 68.8797 946.018C64.3256 948.625 58.2156 950.294 54.7635 953.47C47.7446 959.928 47.0638 946.862 47.0638 942.659C47.0638 931.962 45.6342 913.329 51.6266 903.404C54.6186 898.449 49.6304 890.062 49.6304 884.511C49.6304 878.94 47.0638 873.576 47.0638 868.452C47.0638 856.429 82.486 852.394 94.5454 852.394C112.596 852.394 125.59 839.169 143.31 839.169C150.332 839.169 155.537 835.694 162.56 835.39C171.823 834.989 159.127 823.178 153.577 822.27C139.097 819.901 144.231 805.294 149.156 799.494C153.09 794.86 158.59 790.87 163.7 787.108C168.377 783.666 168.308 777.22 170.83 773.044C175.836 764.752 172.216 749.564 166.409 741.87C159.454 732.654 136.206 737.147 122.635 737.147C115.425 737.147 97.7538 734.891 91.9788 738.197C84.2567 742.618 86.4365 748.246 82.4255 754.151C75.8464 763.837 73.3558 778.455 59.8967 783.959C50.9318 787.626 30.9758 798.434 31.6643 807.051C32.0718 812.15 46.1336 816.538 50.7711 819.331C55.5955 822.237 64.721 833.415 65.0298 837.279C65.9049 848.23 88.3957 858.509 95.6861 868.347C108.105 885.107 119.648 899.118 126.77 917.469C128.699 922.439 135.636 926.959 136.751 933.528C137.635 938.729 140.129 948.399 145.164 952.105C153.653 958.355 176.741 960.691 190.792 960.082C195.545 959.877 200.192 949.7 203.625 946.857C209.818 941.728 214.287 936.199 222.874 932.688C232.825 928.619 255.101 931.743 266.506 931.743C283.892 931.743 289.449 941.097 303.721 947.277C312.847 951.229 314.136 952.525 325.537 952.525C340.187 952.525 337.97 937.516 332.524 931.743C326.342 925.191 324.254 917.299 324.254 909.492C324.254 901.99 321.681 897.736 333.237 897.736C354.214 897.736 376.368 893.156 397.259 895.952C410.296 897.697 424.082 920.492 430.054 927.965C432.862 931.479 444.415 939.372 449.018 942.239C460.383 949.318 466.264 948.783 479.389 951.056C488.226 952.586 501.501 954.542 509.618 950.636C520.503 945.397 515.192 934.182 520.597 927.02C524.68 921.61 536.858 921.657 537.279 913.27C537.711 904.691 537.279 896.037 537.279 887.45C537.279 883.15 535.001 874.013 539.276 870.866C543.843 867.505 556.544 869.397 562.945 869.397C578.084 869.397 591.647 872.429 596.311 882.727C600.532 892.048 606.14 904.775 595.74 912.431C585.41 920.035 586.044 932.947 586.044 943.079C586.044 955.176 634.338 958.193 644.79 958.193C669.497 958.193 691.488 959.666 706.531 942.134C719.327 927.221 720.671 909.147 709.81 893.958C704.477 886.499 696.931 863.729 714.373 863.729C735.361 863.729 755.741 864.791 775.971 865.618C782.982 865.905 791.017 870.399 797.787 869.292C803.151 868.415 807.938 862.123 814.469 861.84C836.444 860.888 843.123 886.886 856.818 895.847C866.338 902.076 885.558 930.379 868.082 934.472C860.502 936.248 853.827 936.92 846.552 939.3C842.573 940.602 840.656 942.469 836.285 943.184C830.063 944.202 829.744 950.308 822.169 950.636C812.194 951.068 833.874 961.536 828.443 955.254C824.513 950.709 823.018 937.982 816.466 935.942C792.225 928.392 724.639 941.045 724.639 911.906C724.639 898.429 752.581 909.134 764.421 902.354C773.441 897.19 789.282 897.736 800.496 897.736C812.769 897.736 824.768 895.623 836.428 894.063C851.102 892.099 865.801 880.974 865.801 869.397C865.801 854.642 868.368 840.394 868.368 825.944C868.368 814.923 868.368 803.902 868.368 792.881C868.368 783.773 869.3 781.898 858.957 776.822C850.758 772.799 839.776 766.633 829.869 765.591C823.454 764.917 808.647 760.784 804.346 757.09C802.197 755.244 798.236 753.47 795.363 752.262C793.124 751.32 793.723 747.814 791.941 746.174C786.856 741.495 809.154 742.815 811.903 742.815C826.005 742.815 840.351 739.769 852.968 735.258C878.989 725.955 888.9 707.609 888.9 687.081C888.9 675.896 885.325 675.528 870.364 671.023C858.73 667.519 847.244 664.346 836.143 660.632C825.152 656.954 808.968 660.371 799.213 664.41C791.171 667.74 787.497 675.079 779.963 678.16C763.898 684.73 749.503 690.1 740.609 675.221C735.646 666.918 721.095 662.781 716.369 653.389C713.256 647.201 711.552 640.612 709.097 634.287C708.365 632.398 706.673 647.373 706.673 650.24C706.673 654.621 714.459 662.602 718.366 666.299C730.357 677.649 750.331 683.157 763.138 693.694C772.6 701.478 770.838 712.33 770.838 722.033C770.838 727.736 773.438 737.564 770.267 742.815C768.132 746.352 763.378 749.853 759.288 752.262C752.299 756.377 766.205 752.345 768.842 750.792C776.32 746.388 816.8 749.382 824.736 751.842C840.022 756.579 864.584 747.453 878.634 743.76C887.552 741.415 892.21 737.124 902.303 734.838C911.113 732.843 922.348 732.433 931.534 733.474C946.242 735.139 961.25 736.61 976.164 734.208C980.398 733.527 1012.1 727.302 1012.1 729.59C1012.1 742.1 1008.2 757.834 1002.4 769.685C998.539 777.578 986.153 781.722 976.734 785.849C965.531 790.758 956.03 794.629 945.507 800.438C940.094 803.427 931.248 812.153 927.969 816.497C921.901 824.537 911.597 830.035 900.735 834.34C893.508 837.205 887.438 840.137 879.775 841.163C866.356 842.959 865.956 842.336 871.505 850.504C881.51 865.235 887.059 880.475 909.433 888.71C919.666 892.476 930.49 895.873 941.658 898.156C953.68 900.614 961.408 911.233 973.74 912.746C985.405 914.177 994.662 919.878 1001.83 909.912C1008.77 900.267 1008.23 891.482 1009.67 880.838C1011.08 870.439 1019.05 843.266 1006.39 835.81C1002.5 833.516 987.858 835.39 982.58 835.39C971.999 835.39 970.053 840.81 962.76 844.836C953.682 849.849 947.931 853.2 947.931 861.84C947.931 866.795 948.138 872.035 943.939 876.01C931.824 887.475 922.694 902.222 914.566 915.684C910.325 922.709 907.501 948.586 915.849 953.365C921.074 956.356 921.832 959.903 929.11 961.552C940.714 964.18 961.845 967.895 973.597 964.806C1005.41 956.443 1035.35 955.178 1060.86 937.411C1069.41 931.456 1081.43 929.854 1092.94 929.854C1105.18 929.854 1103.77 932.929 1112.76 938.251C1129.51 948.166 1141.62 955.198 1161.53 960.082C1173.83 963.102 1187.57 961.773 1200.31 963.441C1205.76 964.154 1213.41 964.642 1218.56 962.916C1227.26 960.005 1222.65 944.891 1225.69 939.3C1229.76 931.811 1230.19 923.175 1234.1 915.684C1238.81 906.684 1239.16 902.611 1249.5 896.687C1256.33 892.776 1274.87 892.068 1283.58 892.068C1312.8 892.068 1340.26 888.44 1358.58 908.862C1366.38 917.553 1371.42 927.556 1371.42 937.831C1371.42 948.216 1374.86 952.288 1384.25 960.187C1393.84 968.26 1395.57 971.418 1409.91 971.418C1416.91 971.418 1420.18 963.86 1420.18 959.033C1420.18 950.846 1422.13 942.625 1413.62 936.362C1401.3 927.288 1394.74 914.762 1388.81 902.984C1381.82 889.083 1360.38 881.386 1351.45 867.508C1346.78 860.245 1345.52 850.277 1355.45 845.676C1360.54 843.313 1362.72 841.913 1366.85 838.749C1373.39 833.744 1378.57 835.644 1385.39 832.451C1399.23 825.97 1414.51 830.403 1424.17 819.226C1435.51 806.118 1430.45 786.275 1430.45 771.154C1430.45 762.958 1398.79 759.562 1408.77 757.93C1417.32 756.531 1424.17 750.072 1424.17 743.478C1424.17 739.34 1421.45 726.263 1420.18 722.18C1415.55 707.289 1436.24 704.914 1424.17 692.15C1416.38 683.907 1413.12 683.908 1400.22 684.248C1386.72 684.602 1375.25 694.928 1362.29 697.472C1348.88 700.104 1336.45 704.302 1322.65 706.499C1300.33 710.052 1301.22 699.291 1295.84 687.186C1289.26 672.363 1289.29 659.427 1289.29 643.838C1289.29 617.683 1340.12 608.676 1368.71 608.676C1383.58 608.676 1404.92 605.734 1417.04 612.875C1435.73 623.879 1426.53 646.65 1427.41 663.57C1428.19 678.396 1440.12 701.416 1413.91 704.925C1391.54 707.918 1397.04 671.257 1399.65 663.57C1407.62 640.087 1409.1 616.543 1418.9 593.457C1423.4 582.862 1420.6 570.124 1423.32 559.135C1426.6 545.842 1429.36 538.773 1408.77 538.773C1387.11 538.773 1353.45 543.415 1353.45 563.334C1353.45 572.555 1359.7 602.071 1345.75 607.207C1336.46 610.628 1340.51 591.815 1340.62 587.684C1340.74 583.26 1348.4 570.542 1352.17 567.217C1365.83 555.147 1380.36 548.506 1399.08 540.662C1407.03 537.329 1419.6 532.396 1420.18 524.708C1420.89 515.381 1420.18 507.268 1425.31 498.363C1431.86 487.014 1427.31 475.378 1427.31 462.4C1427.31 446.611 1430.54 429.161 1425.31 413.78C1422.85 406.512 1434.14 397.584 1422.75 395.188C1410.66 392.645 1407.71 385.686 1397.08 381.543C1387.17 377.68 1381.82 369.837 1371.42 366.009C1356.58 360.547 1339.25 361.181 1323.22 361.181C1300.48 361.181 1284.67 374.406 1261.05 374.406C1257.25 374.406 1243.78 372.85 1241.09 374.826C1234.25 379.86 1257.54 381.963 1259.91 381.963C1289.4 381.963 1319.03 383.852 1348.17 383.852C1355.33 383.852 1369.52 386.09 1375.27 382.803C1385.13 377.154 1393.23 371.703 1405.35 368.318C1427.62 362.102 1420.8 345.235 1422.75 326.551C1424.16 312.997 1433.97 305.273 1415.19 300.335C1404.78 297.597 1409.28 295.243 1399.65 291.697C1393.84 289.561 1381.21 291.278 1374.84 291.278C1354.02 291.278 1333.2 291.278 1312.38 291.278C1306.71 291.278 1299.77 289.644 1299.55 295.056C1299.42 298.327 1298.32 303.705 1300.98 306.497C1307.92 313.793 1302.56 323.018 1305.97 331.057C1310.09 340.774 1314.86 352.734 1312.38 363.07C1311.43 367.056 1264.94 372.543 1259.06 373.986C1216.4 384.453 1147.6 394.139 1120.89 359.187C1110.2 345.193 1104.49 330.132 1104.49 313.949C1104.49 305.93 1103.98 298.915 1111.05 292.222C1114.17 289.268 1120.55 287.848 1125.17 286.659C1139.84 282.88 1149.98 275.161 1164.09 270.495C1184.19 263.854 1202.69 267.418 1222.55 272.385C1234.86 275.461 1242.3 282.669 1252.36 287.604C1271.69 297.094 1301.94 315.233 1307.25 332.842C1308.15 335.802 1317.58 352.736 1324.65 347.536C1336.48 338.829 1338.05 327.765 1338.05 315.943C1338.05 301.141 1320.08 299.671 1309.25 291.697C1299.93 284.837 1290.7 278.079 1282.87 270.39C1273.29 260.986 1267.84 250.133 1261.2 239.532C1256.57 232.157 1251.11 224.914 1250.79 216.546C1249.96 195.181 1208.12 200.341 1191.76 206.68C1171.87 214.382 1157.69 217.947 1139 206.155C1120.67 194.594 1135.7 173.983 1149.55 165.64C1159.84 159.442 1154.44 158.011 1146.84 152.416C1132 141.49 1117.01 126.824 1096.79 121.242C1074.41 115.064 1053.54 119.353 1032.06 119.353C1013.69 119.353 976.164 120.873 976.164 138.246C976.164 151.961 976.164 165.675 976.164 179.39C976.164 187.696 974.047 197.686 979.301 205.42C984.536 213.127 995.424 215.48 1001.83 221.374C1010.31 229.18 1048.75 229.724 1059.58 224.208C1072.67 217.534 1070.82 199.859 1066.56 189.676C1063.5 182.343 1063.93 181.024 1054.44 177.921C1042.63 174.055 1026.8 176.031 1014.09 176.031C999.231 176.031 985.305 172.806 971.031 172.253C961.088 171.868 957.442 167.69 947.931 166.69C925.033 164.282 913.133 179.81 892.607 179.81C856.935 179.81 852.968 160.291 852.968 138.246C852.968 123.749 859.642 108.007 878.634 100.88C887.715 97.4723 909.694 93.0233 919.699 97.6264C939.891 106.916 958.198 119.565 958.198 137.826C958.198 151.558 963.873 169.682 943.369 175.612C922.551 181.632 863.636 202.156 855.392 176.871C852.372 167.607 847.835 160.594 847.835 150.736C847.835 145.049 845.33 140.208 842.702 134.887C836.023 121.367 833.335 102.477 844.128 89.8594C850.2 82.76 859.565 57.9454 849.261 51.444C835.043 42.4733 827.013 28.292 811.903 19.6412C782.666 2.90208 769.792 35.2273 758.005 49.8696C752.131 57.1656 752.611 72.9042 752.872 81.1477C753.375 97.0729 800.351 92.9032 813.044 92.9032C834.053 92.9032 851.425 96.7578 862.664 82.1973C868.084 75.176 866.99 63.1316 867.797 55.3276C869.276 41.0437 868.368 26.5097 868.368 12.189C868.368 3.45285 862.816 8.30578 876.638 8.30578C881.326 8.30578 892.48 5.402 896.03 8.30552C902.464 13.5683 915.008 10.9368 922.123 14.6031C935.289 21.3872 965.734 19.2213 981.297 19.2213C996.181 19.2213 985.788 10.1442 1001.83 8.30552C1001.83 0.982749 1008.2 9.11928 1021.4 10.6145C1027.86 11.3464 1033.72 11.4571 1040.18 12.189C1047.24 12.9884 1042.71 10.6993 1048.6 14.6031C1062.05 23.5122 1074.39 23.2492 1075.97 36.1199C1077.38 47.5358 1081.63 68.5936 1065.57 75.6898C1047.99 83.4504 1017.4 91.4747 996.696 86.3957C973.915 80.8059 962.13 61.8014 948.217 48.7151C933.614 34.9799 912.425 35.7795 890.041 36.2249C876.127 36.5017 872.123 49.2737 870.792 57.1119C868.442 70.9474 860.451 81.0097 876.638 92.4834C888.283 100.738 906.896 98.5711 921.41 98.5711C951.087 98.5711 981.254 99.926 1010.67 97.1016C1033.88 94.8728 1061.22 91.7407 1073.12 74.2203C1081.66 61.6506 1081.48 47.0473 1094.08 36.2249C1106.07 25.9322 1116.62 16.9014 1133.87 10.6146C1149.34 4.97423 1173.06 8.3089 1191.76 10.1442C1219.77 12.8939 1230.25 29.9369 1230.25 45.4613C1230.25 57.3201 1232.45 70.6382 1221.13 80.308C1211.29 88.7124 1190.2 98.0102 1175.22 98.5711C1152.95 99.4046 1145.12 78.873 1137.29 66.8732C1127.91 52.5019 1117.33 41.5312 1117.33 24.8892C1117.33 14.8952 1119.85 16.5898 1135.29 13.8612C1154.4 10.4855 1186.66 9.39017 1205.95 10.6146C1232.92 12.3257 1253.41 5.45618 1265.62 23.4197C1272.95 34.2217 1273.09 49.9007 1271.32 61.8351C1269.6 73.4536 1228.95 81.1138 1217.28 85.556C1196.32 93.5362 1177.77 103.544 1155.68 109.907C1147.48 112.268 1122.46 114.004 1122.46 122.712C1122.46 127.996 1131.53 132.38 1135.29 136.147C1143.79 144.656 1147.75 156.937 1160.96 162.492C1184.83 172.533 1210.21 166.329 1225.98 151.681C1240.95 137.771 1246.6 120.389 1252.21 103.399C1253.92 98.2371 1265.58 78.9938 1249.5 81.7775C1230.66 85.0406 1205.38 99.6787 1200.03 113.265C1193.11 130.804 1206.92 143.89 1216.28 158.293C1224.82 171.433 1242.51 180.9 1258.2 189.151C1268.26 194.44 1281.42 204.371 1294.56 204.371C1304.72 204.371 1314.57 206.26 1324.79 206.26C1341.58 206.26 1382.37 212.066 1395.09 202.062C1404.46 194.685 1403.8 177.758 1401.64 168.474C1398.43 154.622 1378.54 140.423 1361.86 134.677C1350.59 130.792 1315.72 122.719 1307.25 133.103C1297.76 144.745 1294.58 158.277 1294.42 171.623C1294.21 188.6 1301.55 202.839 1304.69 219.485C1306.65 229.9 1306.95 240.805 1310.96 250.973C1317.81 268.333 1342.59 284.277 1367.71 275.743C1386.33 269.417 1400.82 255.251 1415.19 244.885C1433.34 231.793 1422.55 220.706 1422.75 202.062C1422.98 179.454 1432.2 155.604 1430 133.103C1427.89 111.502 1435.25 95.1496 1414.76 78.1039C1399.82 65.6657 1379.43 58.0882 1363.15 46.8258C1353.53 40.177 1345.47 33.787 1330.64 38.6389C1312.26 44.6504 1310.61 64.7988 1309.96 77.2642C1309.21 91.6753 1312.58 104.492 1332.92 110.956C1391.9 129.705 1419.64 58.9365 1430 29.1144C1433.64 18.6329 1432.69 13.1616 1414.76 10.6146C1384.86 6.36706 1372.83 12.3891 1342.58 10.6146C1321.28 9.36457 1278.65 3.57452 1275.24 24.8892C1272.78 40.2937 1309.31 28.2981 1326.07 24.4693C1335.9 22.2245 1338.05 11.0726 1338.05 5.05176" stroke="#FFF0F0" stroke-width="7" stroke-linecap="round" stroke-linejoin="round"/>
<path d="M375.733 578.334C381.98 572.263 399.007 550.512 390.192 542.168C379.803 532.336 367.383 529.462 350.504 529.462C337.377 529.462 327.93 541.054 327.93 550.531C327.93 558.654 322.928 578.973 331.176 585.719C334.349 588.313 336.029 594.245 340.029 595.928C346.05 598.461 352.265 599.762 358.471 601.792C369.357 605.354 380.481 610.068 391.815 611.458C398.954 612.334 428.159 614.318 433.568 611.132C444.866 604.479 442.427 597.383 448.027 588.108C452.36 580.931 456.583 568.446 455.256 560.631C454.561 556.535 454.141 547.728 451.42 544.123C447.268 538.621 452.748 532.939 452.748 527.398C452.748 514.958 465.864 508.185 477.24 500.573C491.072 491.317 534.799 487.581 549.239 494.274C568.936 503.403 580.222 523.743 580.222 540.322C580.222 554.519 584.877 573.001 576.091 585.936C567.776 598.176 526.202 595.928 511.174 595.928C492.297 595.928 473.293 592.045 462.191 579.202C455.22 571.139 457.798 559.561 452.748 550.965C446.583 540.471 450.092 525.615 450.092 514.474C450.092 492.371 439.113 450.566 463.371 431.717C471.043 425.756 487.931 418.033 499.223 418.033C516.614 418.033 533.208 406.304 552.337 406.304C568.352 406.304 584.53 396.396 599.402 392.185C607.896 389.78 614.923 383.871 620.057 378.501C627.972 370.221 626.298 365.288 628.614 355.911C632.483 340.248 630.193 328.109 605.451 328.109C592.384 328.109 578.914 327.385 565.91 328.217C552.817 329.055 545.82 336.064 536.403 341.901C511.661 357.238 497.895 376.744 497.895 400.005C497.895 416.099 525.625 422.511 541.271 429.762C569.464 442.829 608.982 441.485 639.975 434.541C671.981 427.371 712.147 405.803 730.416 385.235C738.283 376.378 712.234 366.638 705.039 361.342C684.933 346.541 664.435 339.715 659.302 317.465C654.551 296.867 653.438 276.379 654.581 255.343C655.065 246.449 687.024 230.364 698.4 230.364C712.8 230.364 727.174 221.196 743.4 224.608C753.024 226.633 740.22 250.961 748.121 246.438C752.198 244.103 763.693 245.298 768.776 243.614C777.275 240.799 785.516 239.311 793.268 235.36C808.053 227.825 820.2 209.407 821.743 196.914C822.585 190.094 825.47 174.296 820.415 167.917C815.342 161.515 797.019 163.898 788.842 163.898C772.071 163.898 755.301 163.898 738.531 163.898C714.785 163.898 703.37 162.481 686.45 175.628C677.738 182.397 675.85 191.641 672.581 200.172C665.799 217.872 654.048 234.238 649.86 252.737C643.787 279.56 638.347 299.994 605.451 313.447C593.105 318.496 558.464 315.589 545.698 312.904C536.544 310.979 530.207 298.95 527.698 292.486C525.047 285.656 527.108 276.552 527.108 269.462C527.108 251.938 555.535 233.356 573.582 224.5C593.047 214.948 630.876 202.106 647.794 221.676C656.837 232.136 654.259 256.614 651.778 268.485C646.76 292.496 618.557 306.62 590.697 316.271C562.712 325.965 537.727 341.793 505.862 341.793C492.304 341.793 479.899 345.34 466.617 345.703C455.749 345.999 444.771 346.192 434.158 348.092C413.387 351.811 389.011 352.164 389.011 372.093C389.011 384.7 384.734 408.803 398.454 418.902C420.418 435.07 471.102 425.106 494.354 417.599C516.416 410.476 524.452 396.633 524.452 379.913C524.452 364.402 524.807 357.201 507.338 346.68C491.213 336.969 467.134 338.562 448.027 333.539C429.473 328.661 416.874 324.199 396.979 324.199C359.537 324.199 304.787 341.494 289.57 367.098C280.901 381.684 282.783 398.878 282.783 414.558C282.783 429.7 278.024 453.369 301.373 460.606C312.192 463.959 334.599 462.996 346.52 462.996C359.927 462.996 375.722 464.824 388.421 461.041C416.996 452.527 415.568 427.868 415.568 408.259C415.568 395.047 411.379 387.161 406.273 375.134C401.414 363.688 384.762 362.601 378.389 354.391C371.125 345.034 345.553 347.657 333.832 347.657C309.045 347.657 284.259 347.657 259.472 347.657C230.099 347.657 201.669 343.706 191.309 321.918C185.64 309.995 187.178 293.635 187.178 281.083C187.178 255.202 200.422 232.607 217.571 210.273C226.181 199.06 238.075 179.963 258.882 179.537C269.297 179.324 284.144 177.721 293.996 179.972C323.091 186.618 343.586 208.464 357.733 226.889C371.755 245.15 373.077 258.975 373.077 279.345C373.077 291.148 350.555 308.904 337.078 314.316C329.213 317.474 322.871 321.749 315.242 325.285C306.508 329.333 294.92 330.384 285.439 333.973C265.908 341.367 249.421 346.255 229.079 339.838C223.006 337.922 210.183 332.859 205.916 329.195C198.843 323.121 172.539 322.244 161.802 322.244C150.675 322.244 78.2947 316.079 78.2947 329.086C78.2947 333.85 77.5271 339.032 78.4423 343.748C79.8901 351.208 95.7085 360.001 102.048 365.251C114.285 375.385 151.173 386.135 169.769 379.913C195.152 371.42 187.178 346.652 187.178 330.063C187.178 314.475 183.752 296.982 173.31 283.146C163.932 270.721 138.977 267.335 127.425 255.561C111.82 239.655 91.2014 224.661 89.0651 203.43C87.4778 187.657 85.0958 166.237 89.5077 150.649C93.8861 135.178 114.892 131.212 132.884 128.71C155.089 125.623 192.291 119.926 198.391 139.571C201.399 149.257 208.424 157.868 208.424 167.917C208.424 178.42 211.08 188.702 211.08 199.303C211.08 218.563 193.547 242.837 167.113 249.913C142.883 256.399 126.753 245.726 121.376 228.409C116.235 211.854 104.663 196.358 98.9502 179.537C94.0398 165.079 92.1634 138.919 98.36 124.583C103.318 113.112 113.919 95.5971 126.245 87.6579C136.267 81.2027 153.865 78.9974 166.08 74.9511C184.757 68.7645 202.077 67.3732 222.293 65.7197C240.844 64.2024 270.227 59.7558 286.915 68.109C308.436 78.8815 317.308 101.404 317.308 119.588C317.308 131.645 312.983 134.575 296.062 134.575C275.898 134.575 255.735 134.575 235.571 134.575C226.042 134.575 208.229 137.024 201.637 130.231C194.335 122.705 192.216 112.047 189.244 103.297C184.272 88.6572 187.178 71.545 187.178 56.4883C187.178 48.8439 187.424 43.3473 198.244 39.7632C213.193 34.8114 234.816 34.7762 251.063 31.9437C296.917 23.9494 352.809 15.336 399.044 27.4909C420.852 33.224 434.938 52.8659 436.814 68.9779C437.741 76.9349 441.1 86.5302 443.453 94.5C445.878 102.711 444.781 111.545 444.781 119.913C444.781 139.44 440.097 149.031 415.716 158.903C398.843 165.734 382.127 172.84 365.11 179.103C343.659 186.998 328.431 178.65 322.029 163.464C314.842 146.417 317.952 114.446 346.668 109.162C364.259 105.924 382.748 107.207 400.815 107.207C425.923 107.207 449.249 106.727 473.551 112.094C494.56 116.733 527.108 134.56 527.108 151.735C527.108 172.697 529.763 193.631 529.763 214.725C529.763 236.132 519.871 253.317 500.551 269.571C488.177 279.98 454.532 309.02 431.65 299.546C420.604 294.972 416.021 282.541 408.782 275.435C396.039 262.929 376.603 251.141 373.372 234.491C366.531 199.242 421.468 202.996 453.928 202.996C466.057 202.996 482.135 200.691 489.928 209.295C497.972 218.177 497.407 230.61 501.141 240.573C507.824 258.408 505.862 278.378 505.862 296.83C505.862 316.152 575.37 290.349 585.976 284.884C670.344 241.411 733.516 170.633 752.842 96.4548C757.963 76.7982 765.705 31.9556 736.908 19.2369C711.443 7.98978 679.556 21.2602 659.893 33.3555C638.186 46.7073 626.187 55.7761 616.811 75.9286C613.243 83.5985 605.962 104.909 615.336 112.637C632.54 126.821 650.875 132.62 677.155 132.62C693.294 132.62 706.838 134.79 716.843 123.497C724.209 115.183 739.564 96.1412 739.564 85.703C739.564 67.9198 712.123 70.0639 692.351 70.0639C680.027 70.0639 669.311 69.4521 657.237 67.6746C644.131 65.7452 631.567 61.2091 618.729 58.4432C606.418 55.7908 592.944 55.9296 580.222 54.8593C559.045 53.0778 526.575 48.8828 521.944 71.0414C518.99 85.1761 520.014 98.906 518.993 113.18C517.323 136.535 517.306 159.046 530.944 180.949C539.8 195.172 571.412 189.312 589.074 189.312C622.688 189.312 635.07 171.062 627.434 147.173C622.75 132.519 593.919 125.507 577.566 122.411C566.259 120.271 519.477 108.418 513.829 120.891" stroke="#FFF8F8" stroke-width="7" stroke-linecap="round" stroke-linejoin="round"/>
<path d="M326.813 564.243C333.06 558.172 350.087 536.421 341.271 528.077C330.882 518.245 318.462 515.371 301.583 515.371C288.457 515.371 279.01 526.963 279.01 536.44C279.01 544.563 274.008 564.882 282.256 571.628C285.428 574.223 287.109 580.155 291.108 581.837C297.13 584.37 303.344 585.671 309.55 587.701C320.436 591.263 331.561 595.977 342.894 597.367C350.034 598.243 379.239 600.227 384.648 597.041C395.946 590.388 393.506 583.292 399.107 574.017C403.44 566.84 407.663 554.356 406.336 546.54C405.64 542.444 405.22 533.637 402.5 530.032C398.347 524.53 403.828 518.848 403.828 513.307C403.828 500.867 416.943 494.094 428.319 486.482C442.151 477.226 485.878 473.49 500.318 480.183C520.016 489.312 531.301 509.652 531.301 526.231C531.301 540.428 535.956 558.91 527.17 571.845C518.856 584.085 477.282 581.837 462.253 581.837C443.377 581.837 424.373 577.954 413.27 565.112C406.3 557.049 408.877 545.47 403.828 536.874C397.663 526.38 401.172 511.525 401.172 500.383C401.172 478.28 390.192 436.475 414.451 417.627C422.123 411.665 439.011 403.942 450.302 403.942C467.694 403.942 484.288 392.213 503.416 392.213C519.431 392.213 535.61 382.305 550.481 378.094C558.976 375.689 566.003 369.78 571.137 364.41C579.052 356.131 577.378 351.197 579.694 341.821C583.563 326.158 581.273 314.018 556.53 314.018C543.464 314.018 529.993 313.294 516.99 314.126C503.897 314.964 496.9 321.973 487.482 327.811C462.741 343.147 448.975 362.653 448.975 385.914C448.975 402.008 476.705 408.42 492.351 415.672C520.543 428.738 560.061 427.394 591.054 420.45C623.061 413.28 663.226 391.712 681.496 371.144C689.362 362.287 663.314 352.547 656.119 347.251C636.013 332.45 615.515 325.624 610.382 303.374C605.63 282.776 604.518 262.288 605.661 241.253C606.144 232.358 638.104 216.274 649.48 216.274C663.88 216.274 678.253 207.105 694.479 210.518C704.104 212.542 691.299 236.871 699.2 232.347C703.278 230.013 714.773 231.207 719.856 229.523C728.355 226.708 736.595 225.22 744.347 221.269C759.132 213.735 771.279 195.316 772.822 182.823C773.664 176.004 776.55 160.205 771.494 153.826C766.421 147.424 748.098 149.808 739.921 149.808C723.151 149.808 706.381 149.808 689.61 149.808C665.864 149.808 654.449 148.39 637.529 161.537C628.817 168.306 626.929 177.551 623.661 186.081C616.879 203.781 605.128 220.147 600.94 238.646C594.866 265.47 589.427 285.903 556.53 299.356C544.185 304.405 509.544 301.498 496.777 298.813C487.624 296.888 481.286 284.859 478.777 278.395C476.126 271.566 478.187 262.461 478.187 255.371C478.187 237.848 506.615 219.265 524.662 210.409C544.127 200.857 581.956 188.015 598.874 207.585C607.917 218.045 605.339 242.523 602.858 254.394C597.839 278.405 569.636 292.529 541.777 302.18C513.792 311.874 488.807 327.702 456.942 327.702C443.383 327.702 430.979 331.25 417.696 331.612C406.828 331.908 395.851 332.101 385.238 334.001C364.467 337.72 340.091 338.073 340.091 358.003C340.091 370.609 335.814 394.712 349.533 404.811C371.497 420.979 422.181 411.015 445.434 403.508C467.496 396.385 475.532 382.542 475.532 365.822C475.532 350.311 475.887 343.111 458.417 332.589C442.293 322.878 418.213 324.471 399.107 319.448C380.553 314.57 367.953 310.108 348.058 310.108C310.616 310.108 255.867 327.403 240.65 353.007C231.981 367.593 233.863 384.787 233.863 400.467C233.863 415.609 229.104 439.279 252.453 446.515C263.272 449.869 285.679 448.905 297.6 448.905C311.007 448.905 326.802 450.733 339.501 446.95C368.076 438.436 366.648 413.777 366.648 394.168C366.648 380.956 362.459 373.07 357.353 361.044C352.494 349.597 335.842 348.51 329.468 340.3C322.205 330.944 296.633 333.567 284.911 333.567C260.125 333.567 235.338 333.567 210.552 333.567C181.179 333.567 152.748 329.615 142.389 307.827C136.72 295.904 138.258 279.545 138.258 266.992C138.258 241.111 151.501 218.517 168.651 196.182C177.26 184.969 189.155 165.872 209.962 165.447C220.377 165.234 235.223 163.63 245.076 165.881C274.17 172.528 294.665 194.373 308.813 212.798C322.835 231.06 324.157 244.884 324.157 265.254C324.157 277.057 301.635 294.814 288.157 300.225C280.292 303.383 273.95 307.658 266.322 311.194C257.588 315.242 245.999 316.293 236.519 319.882C216.987 327.276 200.501 332.164 180.159 325.747C174.086 323.831 161.263 318.769 156.995 315.104C149.923 309.03 123.618 308.153 112.881 308.153C101.755 308.153 29.3743 301.988 29.3743 314.995C29.3743 319.759 28.6067 324.941 29.5219 329.657C30.9697 337.117 46.7881 345.91 53.1281 351.161C65.3649 361.294 102.253 372.044 120.848 365.822C146.232 357.329 138.258 332.561 138.258 315.973C138.258 300.384 134.831 282.891 124.389 269.055C115.011 256.63 90.0565 253.244 78.5047 241.47C62.8992 225.564 42.281 210.57 40.1446 189.34C38.5574 173.566 36.1754 152.146 40.5873 136.558C44.9657 121.087 65.9715 117.121 83.9637 114.62C106.169 111.532 143.371 105.835 149.471 125.48C152.479 135.167 159.504 143.778 159.504 153.826C159.504 164.329 162.159 174.611 162.159 185.213C162.159 204.472 144.627 228.747 118.193 235.822C93.9624 242.308 77.8327 231.635 72.4556 214.319C67.315 197.763 55.7423 182.267 50.0297 165.447C45.1194 150.988 43.243 124.828 49.4396 110.493C54.3979 99.0216 64.9982 81.5063 77.3244 73.567C87.3465 67.1118 104.945 64.9066 117.16 60.8603C135.837 54.6736 153.157 53.2823 173.372 51.6289C191.924 50.1116 221.306 45.665 237.994 54.0182C259.515 64.7907 268.387 87.3128 268.387 105.497C268.387 117.554 264.062 120.484 247.142 120.484C226.978 120.484 206.814 120.484 186.651 120.484C177.122 120.484 159.308 122.933 152.717 116.14C145.414 108.615 143.295 97.9563 140.323 89.2061C135.351 74.5664 138.258 57.4542 138.258 42.3975C138.258 34.753 138.503 29.2565 149.323 25.6724C164.272 20.7205 185.895 20.6854 202.142 17.8529C247.997 9.85855 303.889 1.24518 350.124 13.4001C371.931 19.1332 386.017 38.7751 387.894 54.887C388.82 62.8441 392.179 72.4394 394.533 80.4091C396.958 88.6198 395.861 97.4538 395.861 105.823C395.861 125.349 391.177 134.941 366.796 144.812C349.922 151.643 333.206 158.749 316.19 165.012C294.739 172.907 279.511 164.56 273.108 149.373C265.921 132.326 269.032 100.355 297.747 95.0708C315.339 91.8334 333.828 93.1159 351.894 93.1159C377.003 93.1159 400.328 92.6363 424.631 98.0031C445.64 102.643 478.187 120.47 478.187 137.644C478.187 158.607 480.843 179.54 480.843 200.634C480.843 222.041 470.951 239.226 451.63 255.48C439.257 265.889 405.612 294.929 382.73 285.455C371.683 280.881 367.101 268.45 359.861 261.344C347.119 248.838 327.683 237.05 324.452 220.401C317.611 185.151 372.548 188.905 405.008 188.905C417.137 188.905 433.215 186.6 441.008 195.204C449.051 204.086 448.487 216.52 452.22 226.482C458.904 244.317 456.942 264.287 456.942 282.74C456.942 302.061 526.45 276.258 537.055 270.793C621.423 227.32 684.596 156.542 703.922 82.364C709.043 62.7074 716.784 17.8648 687.987 5.14612C662.522 -6.10104 630.636 7.1694 610.972 19.2647C589.266 32.6165 577.267 41.6852 567.891 61.8377C564.323 69.5077 557.042 90.8181 566.415 98.5461C583.62 112.73 601.955 118.529 628.234 118.529C644.374 118.529 657.917 120.699 667.922 109.407C675.288 101.093 690.643 82.0504 690.643 71.6122C690.643 53.829 663.202 55.9731 643.431 55.9731C631.107 55.9731 620.39 55.3613 608.317 53.5838C595.211 51.6544 582.647 47.1183 569.809 44.3524C557.498 41.7 544.024 41.8388 531.301 40.7684C510.125 38.9869 477.655 34.792 473.023 56.9505C470.069 71.0852 471.093 84.8152 470.073 99.0891C468.403 122.445 468.385 144.955 482.023 166.858C490.879 181.082 522.492 175.221 540.154 175.221C573.767 175.221 586.149 156.971 578.514 133.082C573.83 118.428 544.998 111.416 528.646 108.321C517.339 106.18 470.557 94.3276 464.909 106.8" stroke="#FFF8F8" stroke-width="7" stroke-linecap="round" stroke-linejoin="round"/>
<path d="M82.1555 357.704C60.7749 363.018 40.9227 364.921 28.2575 378.906C19.6609 388.398 15.4246 396.855 15.4246 408.819C15.4246 439.106 22.9182 467.399 49.9308 490.898C56.5764 496.679 60.7926 510.736 73.1725 510.736C84.0987 510.736 86.6127 498.164 89.2849 492.263C99.4415 469.834 112.954 444.239 112.954 420.47C112.954 409.34 116.619 397.379 96.2717 397.379C75.0649 397.379 68.6887 398.19 52.7825 407.77C37.9845 416.682 22.0316 426.277 13.4284 438.943C12.1503 440.825 12.7979 453.759 11.5747 451.958C7.52243 445.992 11.9575 438.398 11.5747 431.354C11.2123 424.684 3.28781 427.589 10.2914 425.298C18.6872 422.551 26.3332 413.91 34.6739 409.659C40.8237 406.525 47.7671 404.582 53.7806 401.262C61.0017 397.276 71.844 398.112 80.1593 394.44C95.1544 387.817 116.562 387.932 133.344 387.932C151.771 387.932 154.02 394.394 154.02 406.825C154.02 422.142 156.586 436.547 156.586 451.748C156.586 465.564 155.135 479.744 159.153 493.312C160.997 499.542 168.466 523.96 181.111 523.96C199.994 523.96 213.238 525.797 231.587 520.602C243.036 517.36 244.589 507.181 250.409 500.449C262.051 486.982 260.919 471.021 268.232 455.946C276.721 438.45 259.788 438.943 242.566 438.943C234.736 438.943 220.902 436.849 214.192 439.993C207.081 443.323 202.711 447.364 195.085 449.859C182.594 453.945 165.623 455.226 156.016 463.084C139.803 476.344 174.552 492.918 174.552 507.902C174.552 514.381 169.419 519.683 169.419 526.27C169.419 533.266 165.802 545.208 160.579 551.25C145.808 568.336 101.606 561.746 77.0224 561.746C61.4285 561.746 62.5222 563.334 53.9232 572.662C44.9516 582.394 38.5238 591.108 38.5238 603.31C38.5238 619.752 41.0955 625.982 64.3321 625.982C92.1981 625.982 120.681 627.871 148.886 627.871C167.583 627.871 176.896 627.131 187.955 616.955C199.53 606.305 190.226 588.672 187.528 576.755C186.394 571.749 184.67 567.326 179.115 564.055C175.862 562.14 157.319 560.328 156.729 558.807C151.874 546.3 189.02 550.41 197.651 550.41C206.488 550.41 211.036 549.127 215.617 555.029C219.681 560.264 227.484 560.799 233.013 564.055C240.311 568.353 264.932 565.922 274.649 565.525C278.741 565.357 279.168 562.566 282.348 561.326C284.721 560.402 291.215 560.405 292.472 559.017C293.441 557.947 290.512 561.746 288.765 561.746C283.014 561.746 277.263 561.746 271.512 561.746C231.718 561.746 193.423 561.283 155.303 567.519C142.266 569.651 158.426 576.759 160.436 577.91C167.832 582.144 172.325 583.522 176.548 590.085C183.251 600.502 187.385 614.545 187.385 625.982C187.385 639.309 167.568 637.024 155.303 642.04C146.033 645.831 128.894 654.757 119.371 656.315C99.6485 659.541 84.5746 684.109 71.8892 693.996C58.8311 704.173 49.6326 719.27 44.2273 732.201C37.8454 747.469 33.8159 771.448 38.6663 787.515C40.273 792.837 45.5606 795.042 48.2197 799.795C50.7708 804.356 35.8666 796.16 34.5313 795.177C22.7735 786.522 10.2914 791.793 10.2914 777.124C10.2914 764.494 9.63049 752.408 10.2914 739.758C11.5231 716.185 48.3983 688.092 75.5965 713.833C85.1106 722.837 90.9377 736.641 98.9809 746.79C108.692 759.045 140.311 760.55 156.871 761.905C182.685 764.016 205.67 761.918 215.617 742.697C221.321 731.676 219.125 715.217 218.184 703.442C217.427 693.966 195.468 693.847 192.376 683.605C188.617 671.153 171.854 661.991 160.293 653.481C146.044 642.992 134.255 654.321 118.088 654.321C109.004 654.321 103.409 654.984 97.555 649.598C94.2618 646.567 84.6647 643.4 79.589 642.985C65.0722 641.798 47.7904 638.492 48.7901 625.982C49.1343 621.674 61.6229 624.172 61.6229 628.815C61.6229 637.431 63.9954 637.497 71.8892 642.985C82.6838 650.49 95.0558 657.005 106.538 663.767C117.196 670.043 134.299 667.546 147.603 667.546C157.936 667.546 165.58 675.235 174.552 677.937C184.535 680.943 195.304 686.141 203.64 691.162C206.983 693.175 206.686 697.496 210.484 699.244C220.269 703.745 223.317 722.12 223.317 729.892C223.317 740.327 223.615 750.74 234.867 757.182C239.931 760.081 244.328 764.339 248.413 768.097C250.754 770.251 258.366 779.394 259.107 781.847C266.041 804.817 292.443 837.574 257.966 857.313C227.545 874.73 242.509 909.557 262.386 927.846C272.344 937.009 282.63 937.713 299.174 937.713C318.936 937.713 338.932 933.35 357.349 928.266C371.31 924.413 372.178 924.22 372.178 913.992C372.178 901.338 374.745 888.099 374.745 874.947C374.745 868.183 372.503 862.848 381.161 859.308C384.398 857.984 402.285 858.198 394.707 851.226C383.751 841.144 370.788 830.822 366.903 817.953C364.05 808.504 336.651 808.906 328.404 813.965C325.223 815.916 320.43 814.284 316.855 815.959C312.706 817.902 310.26 820.388 306.731 822.467C300.73 826.001 294.426 832.716 287.482 835.272C281.226 837.574 275.502 837.581 268.232 837.581C256.33 837.581 264.469 846.763 261.245 852.695C248.915 875.385 199.188 869.699 170.702 869.699C156.547 869.699 139.682 867.006 131.491 877.256C124.997 885.382 115.521 898.236 115.521 907.484C115.521 919.079 112.103 930.204 112.954 941.491C113.414 947.587 118.639 952.313 121.937 957.655C127.14 966.08 127.237 967.941 113.525 967.941C97.9564 967.941 82.7955 966.052 66.7561 966.052C61.0361 966.052 50.514 966.827 46.7938 970.25C42.6406 974.072 46.2873 978.505 39.807 982.216C35.2529 984.823 29.1429 986.491 25.6909 989.668C18.672 996.126 17.9912 983.06 17.9912 978.857C17.9912 968.159 16.5616 949.527 22.554 939.602C25.546 934.646 20.5577 926.26 20.5577 920.709C20.5577 915.137 17.9912 909.774 17.9912 904.65C17.9912 892.627 53.4134 888.591 65.4728 888.591C83.5231 888.591 96.5173 875.366 114.238 875.366C121.259 875.366 126.465 871.892 133.487 871.588C142.75 871.187 130.054 859.376 124.504 858.468C110.025 856.099 115.158 841.493 120.084 835.692C124.018 831.058 129.517 827.068 134.628 823.306C139.304 819.864 139.236 813.418 141.757 809.242C146.763 800.95 143.144 785.762 137.337 778.069C130.381 768.852 107.134 773.345 93.5625 773.345C86.3521 773.345 68.6812 771.089 62.9062 774.395C55.1841 778.816 57.3639 784.444 53.3529 790.349C46.7738 800.035 44.2832 814.653 30.824 820.157C21.8591 823.824 1.90313 834.632 2.59172 843.249C2.9992 848.348 17.061 852.736 21.6984 855.529C26.5228 858.435 35.6484 869.613 35.9572 873.477C36.8323 884.428 59.3231 894.707 66.6135 904.545C79.0322 921.305 90.5751 935.316 97.6976 953.667C99.6268 958.637 106.563 963.157 107.679 969.725C108.562 974.927 111.056 984.597 116.091 988.303C124.581 994.552 147.668 996.889 161.719 996.28C166.473 996.074 171.119 985.898 174.552 983.055C180.746 977.926 185.215 972.397 193.802 968.886C203.752 964.816 226.029 967.941 237.433 967.941C254.819 967.941 260.376 977.295 274.649 983.475C283.774 987.427 285.063 988.723 296.465 988.723C311.114 988.723 308.898 973.714 303.451 967.941C297.269 961.388 295.181 953.497 295.181 945.69C295.181 938.188 292.609 933.934 304.164 933.934C325.142 933.934 347.295 929.354 368.186 932.15C381.224 933.895 395.01 956.69 400.981 964.162C403.79 967.677 415.342 975.57 419.945 978.437C431.311 985.516 437.191 984.98 450.316 987.254C459.153 988.784 472.429 990.74 480.545 986.834C491.431 981.595 486.119 970.38 491.524 963.218C495.607 957.808 507.785 957.854 508.207 949.468C508.639 940.888 508.207 932.234 508.207 923.648C508.207 919.348 505.928 910.211 510.203 907.064C514.77 903.703 527.471 905.595 533.873 905.595C549.012 905.595 562.575 908.627 567.238 918.925C571.459 928.246 577.067 940.973 566.668 948.628C556.338 956.232 556.972 969.145 556.972 979.277C556.972 991.374 605.265 994.391 615.718 994.391C640.424 994.391 662.416 995.864 677.458 978.332C690.254 963.418 691.598 945.345 680.738 930.155C675.405 922.696 667.859 899.927 685.301 899.927C706.288 899.927 726.668 900.989 746.898 901.816C753.909 902.103 761.945 906.597 768.714 905.49C774.078 904.612 778.866 898.321 785.397 898.038C807.371 897.086 814.05 923.084 827.745 932.045C837.266 938.274 856.485 966.577 839.01 970.67C831.43 972.445 824.755 973.118 817.479 975.498C813.5 976.8 811.583 978.667 807.213 979.382C800.99 980.4 800.672 986.506 793.097 986.834C783.121 987.266 804.801 997.734 799.371 991.452C795.441 986.906 793.945 974.18 787.393 972.139C763.153 964.59 695.567 977.242 695.567 948.104C695.567 934.627 723.508 945.331 735.349 938.552C744.368 933.388 760.209 933.934 771.423 933.934C783.697 933.934 795.696 931.821 807.355 930.26C822.029 928.296 836.728 917.172 836.728 905.595C836.728 890.84 839.295 876.592 839.295 862.141C839.295 851.121 839.295 840.1 839.295 829.079C839.295 819.971 840.227 818.096 829.884 813.02C821.686 808.997 810.703 802.831 800.796 801.789C794.382 801.115 779.574 796.982 775.273 793.288C773.124 791.442 769.164 789.668 766.29 788.46C764.051 787.518 764.65 784.012 762.868 782.372C757.784 777.693 780.082 779.013 782.83 779.013C796.932 779.013 811.278 775.967 823.896 771.456C849.916 762.153 859.828 743.807 859.828 723.279C859.828 712.094 856.252 711.726 841.291 707.221C829.658 703.717 818.171 700.544 807.07 696.83C796.08 693.152 779.895 696.569 770.14 700.608C762.098 703.938 758.424 711.277 750.891 714.358C734.826 720.928 720.43 726.298 711.537 711.419C706.574 703.116 692.022 698.979 687.297 689.587C684.183 683.4 682.48 676.81 680.025 670.485C679.292 668.596 677.601 683.571 677.601 686.439C677.601 690.819 685.387 698.8 689.293 702.497C701.285 713.847 721.258 719.355 734.065 729.892C743.527 737.676 741.765 748.528 741.765 758.231C741.765 763.934 744.365 773.762 741.195 779.013C739.06 782.55 734.305 786.051 730.216 788.46C723.227 792.575 737.133 788.543 739.769 786.99C747.247 782.586 787.727 785.58 795.663 788.04C810.949 792.777 835.512 783.651 849.561 779.958C858.48 777.613 863.138 773.322 873.231 771.036C882.041 769.041 893.275 768.631 902.461 769.672C917.169 771.337 932.178 772.808 947.091 770.406C951.326 769.725 983.023 763.5 983.023 765.788C983.023 778.298 979.123 794.032 973.327 805.883C969.467 813.776 957.081 817.92 947.662 822.047C936.458 826.956 926.958 830.827 916.435 836.636C911.021 839.625 902.176 848.35 898.897 852.695C892.829 860.735 882.525 866.233 871.662 870.538C864.435 873.403 858.366 876.335 850.702 877.361C837.284 879.156 836.884 878.534 842.432 886.702C852.438 901.433 857.987 916.673 880.36 924.907C890.594 928.674 901.417 932.07 912.585 934.354C924.607 936.812 932.335 947.43 944.667 948.943C956.332 950.374 965.589 956.075 972.757 946.109C979.693 936.465 979.153 927.68 980.599 917.036C982.012 906.637 989.981 879.463 977.32 872.008C973.424 869.714 958.786 871.588 953.508 871.588C942.927 871.588 940.981 877.008 933.688 881.034C924.609 886.046 918.859 889.397 918.859 898.038C918.859 902.993 919.066 908.233 914.866 912.207C902.752 923.673 893.622 938.42 885.493 951.882C881.252 958.907 878.429 984.783 886.777 989.563C892.001 992.554 892.76 996.101 900.037 997.75C911.642 1000.38 932.772 1004.09 944.525 1001C976.335 992.641 1006.27 991.375 1031.79 973.609C1040.34 967.654 1052.35 966.052 1063.87 966.052C1076.11 966.052 1074.7 969.127 1083.69 974.449C1100.44 984.364 1112.55 991.395 1132.45 996.28C1144.76 999.3 1158.49 997.971 1171.24 999.639C1176.69 1000.35 1184.33 1000.84 1189.49 999.114C1198.19 996.203 1193.58 981.089 1196.62 975.498C1200.69 968.009 1201.12 959.373 1205.03 951.882C1209.73 942.882 1210.08 938.808 1220.43 932.884C1227.26 928.974 1245.8 928.266 1254.51 928.266C1283.73 928.266 1311.19 924.637 1329.51 945.06C1337.31 953.751 1342.34 963.753 1342.34 974.029C1342.34 984.414 1345.79 988.486 1355.18 996.385C1364.77 1004.46 1366.5 1007.62 1380.84 1007.62C1387.83 1007.62 1391.11 1000.06 1391.11 995.231C1391.11 987.043 1393.06 978.823 1384.55 972.559C1372.22 963.486 1365.67 950.96 1359.74 939.182C1352.74 925.281 1331.31 917.584 1322.38 903.706C1317.71 896.442 1316.45 886.475 1326.37 881.874C1331.47 879.511 1333.65 878.111 1337.78 874.947C1344.32 869.942 1349.5 871.842 1356.32 868.649C1370.15 862.168 1385.44 866.601 1395.1 855.424C1406.43 842.316 1401.37 822.473 1401.37 807.352C1401.37 799.156 1400.38 799.434 1410.36 797.801C1418.91 796.402 1427.04 793.164 1427.04 786.57C1427.04 782.432 1424.03 777.848 1422.76 773.765C1418.13 758.875 1413.58 741.921 1401.52 729.157C1393.73 720.913 1384.05 720.106 1371.15 720.446C1357.65 720.8 1346.18 731.127 1333.22 733.67C1319.81 736.302 1307.38 740.5 1293.58 742.697C1271.26 746.25 1272.15 735.489 1266.77 723.384C1260.19 708.561 1260.21 695.625 1260.21 680.036C1260.21 653.881 1311.04 644.874 1339.63 644.874C1354.5 644.874 1375.85 641.932 1387.97 649.073C1406.66 660.077 1405.62 686.102 1406.51 703.022C1407.28 717.848 1411.05 737.614 1384.83 741.123C1362.47 744.116 1367.97 707.455 1370.58 699.768C1378.55 676.285 1380.02 652.741 1389.83 629.655C1394.32 619.06 1391.53 606.322 1394.25 595.333C1397.53 582.04 1400.29 574.971 1379.7 574.971C1358.04 574.971 1324.38 579.613 1324.38 599.532C1324.38 608.753 1330.63 638.269 1316.68 643.405C1307.38 646.826 1311.43 628.013 1311.54 623.882C1311.66 619.458 1319.33 606.74 1323.09 603.415C1336.76 591.345 1351.29 584.704 1370.01 576.86C1377.96 573.527 1390.53 568.594 1391.11 560.906C1391.81 551.579 1391.11 543.466 1396.24 534.561C1402.78 523.212 1411.64 515.002 1411.64 502.024C1411.64 486.236 1414.87 468.388 1409.65 453.008C1407.18 445.74 1405.07 433.782 1393.68 431.386C1381.58 428.843 1378.64 421.884 1368.01 417.741C1358.1 413.878 1352.74 406.035 1342.34 402.207C1327.5 396.745 1310.18 397.379 1294.15 397.379C1271.4 397.379 1255.6 410.604 1231.98 410.604C1228.18 410.604 1214.7 409.048 1212.02 411.024C1205.18 416.058 1228.46 418.161 1230.84 418.161C1260.33 418.161 1289.96 420.05 1319.1 420.05C1326.26 420.05 1340.45 422.288 1346.19 419.001C1356.06 413.352 1364.16 407.901 1376.28 404.516C1398.54 398.299 1417.25 387.724 1419.2 369.04C1420.61 355.485 1417.02 344.169 1398.24 339.231C1387.82 336.493 1380.21 331.441 1370.58 327.895C1364.77 325.759 1352.14 327.475 1345.77 327.475C1324.95 327.475 1304.13 327.475 1283.31 327.475C1277.64 327.475 1270.7 325.842 1270.48 331.254C1270.34 334.525 1269.25 339.903 1271.91 342.695C1278.84 349.991 1273.48 359.216 1276.9 367.255C1281.02 376.972 1285.79 388.932 1283.31 399.268C1282.36 403.254 1235.87 408.741 1229.98 410.184C1187.33 420.651 1118.53 430.337 1091.82 395.385C1081.12 381.391 1075.42 366.33 1075.42 350.147C1075.42 342.128 1074.91 335.113 1081.98 328.42C1085.1 325.466 1091.48 324.046 1096.1 322.857C1110.77 319.077 1120.9 311.359 1135.02 306.693C1155.12 300.051 1173.62 303.616 1193.48 308.583C1205.79 311.659 1213.23 318.867 1223.28 323.802C1242.62 333.292 1272.86 351.431 1278.18 369.04C1279.07 372 1288.51 388.934 1295.58 383.734C1307.4 375.026 1308.98 363.963 1308.98 352.141C1308.98 337.339 1291.01 335.869 1280.18 327.895C1270.86 321.035 1261.63 314.277 1253.8 306.588C1244.22 297.184 1238.77 286.331 1232.12 275.73C1227.5 268.355 1222.04 261.112 1221.71 252.744C1220.89 231.379 1179.04 236.539 1162.68 242.878C1142.8 250.58 1128.61 254.144 1109.93 242.353C1091.6 230.792 1106.63 210.181 1120.48 201.838C1130.77 195.64 1125.37 194.209 1117.77 188.613C1102.93 177.688 1087.94 163.022 1067.72 157.44C1045.34 151.262 1024.47 155.551 1002.99 155.551C984.622 155.551 947.091 157.071 947.091 174.444C947.091 188.159 947.091 201.873 947.091 215.588C947.091 223.894 944.975 233.884 950.228 241.618C955.463 249.325 966.351 251.678 972.757 257.572C981.24 265.378 1019.68 265.922 1030.5 260.406C1043.6 253.732 1041.75 236.057 1037.49 225.874C1034.43 218.541 1034.86 217.222 1025.37 214.119C1013.56 210.253 997.725 212.229 985.019 212.229C970.158 212.229 956.232 209.004 941.958 208.451C932.016 208.066 928.37 203.888 918.859 202.888C895.96 200.48 884.061 216.008 863.535 216.008C827.862 216.008 823.896 196.489 823.896 174.444C823.896 159.947 830.569 144.205 849.561 137.078C858.642 133.67 880.621 129.221 890.627 133.824C910.819 143.114 929.125 155.763 929.125 174.024C929.125 187.756 934.8 205.88 914.296 211.81C893.478 217.83 834.564 238.354 826.32 213.069C823.299 203.805 818.762 196.792 818.762 186.934C818.762 181.246 816.258 176.406 813.629 171.085C806.95 157.565 804.263 138.675 815.055 126.057C821.128 118.958 830.492 94.1434 820.188 87.642C805.971 78.6713 797.94 64.4899 782.83 55.8391C753.593 39.1 740.72 71.4252 728.932 86.0676C723.059 93.3636 723.539 109.102 723.799 117.346C724.302 133.271 771.279 129.101 783.971 129.101C804.98 129.101 822.353 132.956 833.592 118.395C839.011 111.374 837.917 99.3296 838.725 91.5255C840.203 77.2417 839.295 62.7077 839.295 48.387C839.295 39.6508 842.014 32.748 855.835 32.748C860.524 32.748 863.407 41.5999 866.957 44.5035C873.392 49.7662 885.935 47.1347 893.051 50.8011C906.216 57.5851 936.661 55.4193 952.224 55.4193C967.108 55.4193 975.324 49.8403 975.324 38.8356C975.324 31.5129 973.67 23.8005 986.873 25.2958C993.336 26.0277 998.377 30.0218 1004.84 30.7537C1011.9 31.5531 1018.2 30.7334 1024.09 34.6372C1037.54 43.5463 1045.31 59.4471 1046.9 72.3178C1048.31 83.7337 1052.56 104.792 1036.49 111.888C1018.92 119.648 988.323 127.673 967.624 122.594C944.843 117.004 933.057 97.9994 919.144 84.913C904.541 71.1779 883.352 71.9775 860.968 72.4228C847.055 72.6996 843.05 85.4717 841.719 93.3098C839.37 107.145 831.379 117.208 847.565 128.681C859.21 136.936 877.824 134.769 892.338 134.769C922.015 134.769 952.181 136.124 981.597 133.3C1004.81 131.071 1032.15 127.939 1044.05 110.418C1052.59 97.8486 1052.41 83.2453 1065.01 72.4228C1077 62.1301 1087.54 53.0993 1104.79 46.8126C1120.27 41.1722 1147.69 31.0176 1166.39 32.8529C1194.41 35.6027 1201.18 66.1348 1201.18 81.6593C1201.18 93.518 1203.38 106.836 1192.06 116.506C1182.21 124.91 1161.13 134.208 1146.14 134.769C1123.87 135.603 1116.05 115.071 1108.22 103.071C1098.84 88.6999 1088.25 77.7291 1088.25 61.0871C1088.25 51.0931 1094.48 32.0128 1109.93 29.2843C1129.03 25.9085 1155.94 28.1648 1175.23 29.3892C1202.2 31.1003 1224.34 41.6541 1236.54 59.6177C1243.88 70.4197 1244.02 86.0987 1242.25 98.033C1240.53 109.652 1199.87 117.312 1188.21 121.754C1167.25 129.734 1148.7 139.742 1126.61 146.105C1118.41 148.466 1093.39 150.202 1093.39 158.91C1093.39 164.194 1102.46 168.578 1106.22 172.345C1114.72 180.854 1118.68 193.135 1131.88 198.69C1155.76 208.731 1181.14 202.527 1196.9 187.879C1211.87 173.969 1217.53 156.587 1223.14 139.597C1224.85 134.435 1236.5 115.192 1220.43 117.975C1201.59 121.239 1176.31 135.877 1170.95 149.463C1164.04 167.002 1177.85 180.088 1187.21 194.491C1195.75 207.631 1213.44 217.098 1229.13 225.349C1239.19 230.638 1252.35 240.569 1265.49 240.569C1275.65 240.569 1285.5 242.458 1295.72 242.458C1312.51 242.458 1353.3 248.264 1366.01 238.26C1375.39 230.883 1374.73 213.956 1372.57 204.672C1369.35 190.819 1349.47 176.621 1332.79 170.875C1321.52 166.99 1286.64 158.917 1278.18 169.301C1268.69 180.943 1265.51 194.475 1265.35 207.821C1265.14 224.798 1272.48 239.037 1275.61 255.683C1277.57 266.098 1277.88 277.003 1281.89 287.171C1288.73 304.531 1313.52 320.475 1338.64 311.941C1357.26 305.615 1371.75 291.449 1386.12 281.083C1404.27 267.991 1411.45 256.904 1411.64 238.26C1411.88 215.652 1407.28 194.006 1405.08 171.505C1402.97 149.904 1406.17 131.348 1385.69 114.302C1370.74 101.864 1350.36 94.2862 1334.07 83.0238C1324.46 76.375 1316.39 69.985 1301.56 74.8369C1283.19 80.8483 1281.54 100.997 1280.89 113.462C1280.14 127.873 1283.51 140.69 1303.85 147.154C1362.83 165.903 1402.42 92.1687 1412.78 62.3467C1416.42 51.8652 1421.87 41.8024 1403.94 39.2555C1374.04 35.0079 1342.93 27.3852 1312.69 25.6107C1291.38 24.3606 1250.93 17.8358 1247.52 39.1505C1245.06 54.555 1280.24 64.496 1297 60.6673C1306.83 58.4225 1308.98 47.2706 1308.98 41.2497C1308.98 35.0159 1291.98 36.5265 1285.88 36.5265" stroke="#FFF8F8" stroke-width="7" stroke-linecap="round" stroke-linejoin="round"/>
</svg>
